<svg width="1000" height="520" xmlns="http://www.w3.org/2000/svg" version="1.1"><g transform="translate(0, 10)"><g class="links" fill="none" stroke-opacity="0.4"><path d="M5,179.2857142857144C251.25,179.2857142857144,251.25,277.85714285714323,497.5,277.85714285714323" stroke-width="131.42857142857142" style="stroke: rgb(191, 105, 105);"></path><path d="M5,277.85714285714295C251.25,277.85714285714295,251.25,386.42857142857156,497.5,386.42857142857156" stroke-width="65.71428571428571" style="stroke: rgb(191, 105, 105);"></path><path d="M5,343.5714285714286C251.25,343.5714285714286,251.25,462.1428571428573,497.5,462.1428571428573" stroke-width="65.71428571428571" style="stroke: rgb(191, 105, 105);"></path><path d="M5,64.28571428571439C251.25,64.28571428571439,251.25,54.28571428571411,497.5,54.28571428571411" stroke-width="98.57142857142856" style="stroke: rgb(191, 105, 105);"></path><path d="M5,435.71428571428584C251.25,435.71428571428584,251.25,152.85714285714266,497.5,152.85714285714266" stroke-width="98.57142857142856" style="stroke: rgb(191, 191, 105);"></path><path d="M502.5,245.00000000000037C748.75,245.00000000000037,748.75,391.4285714285715,995,391.4285714285715" stroke-width="65.71428571428571" style="stroke: rgb(105, 191, 105);"></path><path d="M502.5,310.71428571428606C748.75,310.71428571428606,748.75,467.1428571428572,995,467.1428571428572" stroke-width="65.71428571428571" style="stroke: rgb(105, 191, 105);"></path><path d="M502.5,402.857142857143C748.75,402.857142857143,748.75,223.57142857142875,995,223.57142857142875" stroke-width="32.857142857142854" style="stroke: rgb(105, 191, 191);"></path><path d="M502.5,370.00000000000017C748.75,370.00000000000017,748.75,82.14285714285722,995,82.14285714285722" stroke-width="32.857142857142854" style="stroke: rgb(105, 191, 191);"></path><path d="M502.5,478.5714285714287C748.75,478.5714285714287,748.75,256.4285714285716,995,256.4285714285716" stroke-width="32.857142857142854" style="stroke: rgb(105, 105, 191);"></path><path d="M502.5,445.7142857142859C748.75,445.7142857142859,748.75,115.00000000000007,995,115.00000000000007" stroke-width="32.857142857142854" style="stroke: rgb(105, 105, 191);"></path><path d="M502.5,103.57142857142838C748.75,103.57142857142838,748.75,174.2857142857145,995,174.2857142857145" stroke-width="65.71428571428571" style="stroke: rgb(191, 105, 191);"></path><path d="M502.5,37.857142857142684C748.75,37.857142857142684,748.75,32.85714285714294,995,32.85714285714294" stroke-width="65.71428571428571" style="stroke: rgb(191, 105, 191);"></path><path d="M502.5,169.2857142857141C748.75,169.2857142857141,748.75,315.7142857142857,995,315.7142857142857" stroke-width="65.71428571428571" style="stroke: rgb(191, 105, 191);"></path></g><g class="nodes" font-family="Arial, Helvetica" font-size="10"><g><rect x="995" y="358.57142857142867" height="65.71428571428571" width="5" fill="#000"></rect><text x="989" y="391.4285714285715" dy="0.35em" text-anchor="end">binary file metadata</text></g><g><rect x="995" y="141.42857142857164" height="131.42857142857122" width="5" fill="#000"></rect><text x="989" y="207.14285714285725" dy="0.35em" text-anchor="end">malware reverse engineering</text></g><g><rect x="995" y="8.526512829121202e-14" height="131.42857142857156" width="5" fill="#000"></rect><text x="989" y="65.71428571428586" dy="0.35em" text-anchor="end">netflow/enclave netflow</text></g><g><rect x="995" y="434.2857142857144" height="65.71428571428555" width="5" fill="#000"></rect><text x="989" y="467.14285714285717" dy="0.35em" text-anchor="end">network protocol analysis</text></g><g><rect x="995" y="282.8571428571429" height="65.71428571428578" width="5" fill="#000"></rect><text x="989" y="315.7142857142858" dy="0.35em" text-anchor="end">ssl/tls inspection</text></g><g><rect x="0" y="15.000000000000114" height="361.42857142857144" width="5" fill="#000"></rect><text x="11" y="195.71428571428584" dy="0.35em" text-anchor="start">Network Intrusion Prevention</text></g><g><rect x="0" y="386.42857142857156" height="98.57142857142833" width="5" fill="#000"></rect><text x="11" y="435.7142857142857" dy="0.35em" text-anchor="start">SSL/TLS Inspection</text></g><g><rect x="497.5" y="353.5714285714287" height="65.71428571428572" width="5" fill="#000"></rect><text x="491.5" y="386.42857142857156" dy="0.35em" text-anchor="end">custom cryptographic protocol</text></g><g><rect x="497.5" y="212.1428571428575" height="131.42857142857122" width="5" fill="#000"></rect><text x="491.5" y="277.8571428571431" dy="0.35em" text-anchor="end">redundant access</text></g><g><rect x="497.5" y="429.28571428571445" height="65.71428571428572" width="5" fill="#000"></rect><text x="491.5" y="462.14285714285734" dy="0.35em" text-anchor="end">standard application layer protocol</text></g><g><rect x="497.5" y="4.9999999999998295" height="197.14285714285768" width="5" fill="#000"></rect><text x="491.5" y="103.57142857142867" dy="0.35em" text-anchor="end">standard cryptographic protocol</text></g></g></g></svg>