<svg width="847" height="520" xmlns="http://www.w3.org/2000/svg" version="1.1"><g transform="translate(0, 10)"><g class="links" fill="none" stroke-opacity="0.4"><path d="M5,374.9999999999998C213,374.9999999999998,213,370,421,370" stroke-width="240" style="stroke: rgb(191, 105, 105);"></path><path d="M5,124.99999999999997C213,124.99999999999997,213,130,421,130" stroke-width="240" style="stroke: rgb(105, 191, 105);"></path><path d="M426,410C634,410,634,420,842,420" stroke-width="160" style="stroke: rgb(105, 105, 191);"></path><path d="M426,250C634,250,634,250,842,250" stroke-width="160" style="stroke: rgb(105, 105, 191);"></path><path d="M426,90C634,90,634,79.99999999999989,842,79.99999999999989" stroke-width="160" style="stroke: rgb(105, 105, 191);"></path></g><g class="nodes" font-family="Arial, Helvetica" font-size="10"><g><rect x="842" y="340" height="160.00000000000014" width="5" fill="#000"></rect><text x="836" y="420.00000000000006" dy="0.35em" text-anchor="end">malware reverse engineering</text></g><g><rect x="842" y="170" height="160" width="5" fill="#000"></rect><text x="836" y="250" dy="0.35em" text-anchor="end">netflow/enclave netflow</text></g><g><rect x="842" y="-1.1368683772161603e-13" height="160.0000000000001" width="5" fill="#000"></rect><text x="836" y="79.99999999999994" dy="0.35em" text-anchor="end">ssl/tls inspection</text></g><g><rect x="0" y="254.9999999999998" height="240.00000000000023" width="5" fill="#000"></rect><text x="11" y="374.9999999999999" dy="0.35em" text-anchor="start">Network Intrusion Prevention</text></g><g><rect x="0" y="4.999999999999972" height="239.99999999999983" width="5" fill="#000"></rect><text x="11" y="124.99999999999989" dy="0.35em" text-anchor="start">SSL/TLS Inspection</text></g><g><rect x="421" y="10" height="480" width="5" fill="#000"></rect><text x="415" y="250" dy="0.35em" text-anchor="end">standard cryptographic protocol</text></g></g></g></svg>