<svg width="847" height="520" xmlns="http://www.w3.org/2000/svg" version="1.1"><g transform="translate(0, 10)"><g class="links" fill="none" stroke-opacity="0.4"><path d="M5,101.36363636363627C213,101.36363636363627,213,86.36363636363625,421,86.36363636363625" stroke-width="114.54545454545453" style="stroke: rgb(191, 105, 105);"></path><path d="M5,465.90909090909093C213,465.90909090909093,213,480.90909090909093,421,480.90909090909093" stroke-width="38.18181818181818" style="stroke: rgb(191, 139, 105);"></path><path d="M5,427.2727272727271C213,427.2727272727271,213,442.2727272727273,421,442.2727272727273" stroke-width="19.09090909090909" style="stroke: rgb(191, 174, 105);"></path><path d="M5,379.54545454545433C213,379.54545454545433,213,374.54545454545445,421,374.54545454545445" stroke-width="38.18181818181818" style="stroke: rgb(191, 174, 105);"></path><path d="M5,312.7272727272726C213,312.7272727272726,213,268.63636363636334,421,268.63636363636334" stroke-width="57.272727272727266" style="stroke: rgb(191, 174, 105);"></path><path d="M5,350.90909090909076C213,350.90909090909076,213,335.909090909091,421,335.909090909091" stroke-width="19.09090909090909" style="stroke: rgb(191, 174, 105);"></path><path d="M5,408.181818181818C213,408.181818181818,213,413.18181818181824,421,413.18181818181824" stroke-width="19.09090909090909" style="stroke: rgb(191, 174, 105);"></path><path d="M5,274.54545454545445C213,274.54545454545445,213,163.18181818181773,421,163.18181818181773" stroke-width="19.09090909090909" style="stroke: rgb(191, 174, 105);"></path><path d="M5,245.45454545454535C213,245.45454545454535,213,316.8181818181819,421,316.8181818181819" stroke-width="19.09090909090909" style="stroke: rgb(174, 191, 105);"></path><path d="M5,24.545454545454433C213,24.545454545454433,213,9.545454545454403,421,9.545454545454403" stroke-width="19.09090909090909" style="stroke: rgb(139, 191, 105);"></path><path d="M5,197.27272727272737C213,197.27272727272737,213,211.36363636363606,421,211.36363636363606" stroke-width="57.272727272727266" style="stroke: rgb(105, 191, 105);"></path><path d="M426,134.09090909090898C634,134.09090909090898,634,423.1818181818183,842,423.1818181818183" stroke-width="19.09090909090909" style="stroke: rgb(105, 191, 139);"></path><path d="M426,114.9999999999999C634,114.9999999999999,634,212.27272727272742,842,212.27272727272742" stroke-width="19.09090909090909" style="stroke: rgb(105, 191, 139);"></path><path d="M426,57.72727272727262C634,57.72727272727262,634,67.72727272727282,842,67.72727272727282" stroke-width="19.09090909090909" style="stroke: rgb(105, 191, 139);"></path><path d="M426,76.81818181818171C634,76.81818181818171,634,96.81818181818171,842,96.81818181818171" stroke-width="19.09090909090909" style="stroke: rgb(105, 191, 139);"></path><path d="M426,95.9090909090908C634,95.9090909090908,634,145.00000000000006,842,145.00000000000006" stroke-width="19.09090909090909" style="stroke: rgb(105, 191, 139);"></path><path d="M426,38.63636363636353C634,38.63636363636353,634,38.63636363636366,842,38.63636363636366" stroke-width="19.09090909090909" style="stroke: rgb(105, 191, 139);"></path><path d="M426,480.90909090909093C634,480.90909090909093,634,470.90909090909093,842,470.90909090909093" stroke-width="38.18181818181818" style="stroke: rgb(105, 191, 174);"></path><path d="M426,442.2727272727273C634,442.2727272727273,634,442.27272727272737,842,442.27272727272737" stroke-width="19.09090909090909" style="stroke: rgb(105, 174, 191);"></path><path d="M426,364.99999999999994C634,364.99999999999994,634,269.54545454545473,842,269.54545454545473" stroke-width="19.09090909090909" style="stroke: rgb(105, 139, 191);"></path><path d="M426,384.090909090909C634,384.090909090909,634,375.00000000000017,842,375.00000000000017" stroke-width="19.09090909090909" style="stroke: rgb(105, 139, 191);"></path><path d="M426,239.99999999999972C634,239.99999999999972,634,240.90909090909108,842,240.90909090909108" stroke-width="38.18181818181818" style="stroke: rgb(105, 105, 191);"></path><path d="M426,278.18181818181785C634,278.18181818181785,634,308.1818181818183,842,308.1818181818183" stroke-width="38.18181818181818" style="stroke: rgb(105, 105, 191);"></path><path d="M426,201.81818181818153C634,201.81818181818153,634,173.6363636363637,842,173.6363636363637" stroke-width="38.18181818181818" style="stroke: rgb(105, 105, 191);"></path><path d="M426,326.36363636363643C634,326.36363636363643,634,346.3636363636365,842,346.3636363636365" stroke-width="38.18181818181818" style="stroke: rgb(139, 105, 191);"></path><path d="M426,413.18181818181824C634,413.18181818181824,634,394.09090909090924,842,394.09090909090924" stroke-width="19.09090909090909" style="stroke: rgb(174, 105, 191);"></path><path d="M426,163.18181818181773C634,163.18181818181773,634,115.9090909090908,842,115.9090909090908" stroke-width="19.09090909090909" style="stroke: rgb(191, 105, 174);"></path><path d="M426,9.545454545454403C634,9.545454545454403,634,19.545454545454575,842,19.545454545454575" stroke-width="19.09090909090909" style="stroke: rgb(191, 105, 139);"></path></g><g class="nodes" font-family="Arial, Helvetica" font-size="10"><g><rect x="842" y="413.63636363636374" height="76.3636363636362" width="5" fill="#000"></rect><text x="836" y="451.81818181818187" dy="0.35em" text-anchor="end">binary file metadata</text></g><g><rect x="842" y="202.7272727272729" height="76.36363636363637" width="5" fill="#000"></rect><text x="836" y="240.90909090909108" dy="0.35em" text-anchor="end">malware reverse engineering</text></g><g><rect x="842" y="289.09090909090924" height="114.5454545454545" width="5" fill="#000"></rect><text x="836" y="346.3636363636365" dy="0.35em" text-anchor="end">netflow/enclave netflow</text></g><g><rect x="842" y="58.18181818181827" height="19.090909090908895" width="5" fill="#000"></rect><text x="836" y="67.72727272727272" dy="0.35em" text-anchor="end">network intrusion detection system</text></g><g><rect x="842" y="87.27272727272717" height="38.18181818181836" width="5" fill="#000"></rect><text x="836" y="106.36363636363635" dy="0.35em" text-anchor="end">network protocol analysis</text></g><g><rect x="842" y="135.45454545454552" height="57.272727272727366" width="5" fill="#000"></rect><text x="836" y="164.0909090909092" dy="0.35em" text-anchor="end">ssl/tls inspection</text></g><g><rect x="842" y="10.000000000000028" height="38.181818181818244" width="5" fill="#000"></rect><text x="836" y="29.09090909090915" dy="0.35em" text-anchor="end">windows event logs</text></g><g><rect x="0" y="44.09090909090901" height="114.54545454545473" width="5" fill="#000"></rect><text x="11" y="101.36363636363637" dy="0.35em" text-anchor="start">Antivirus/Antimalware</text></g><g><rect x="0" y="446.81818181818187" height="38.1818181818182" width="5" fill="#000"></rect><text x="11" y="465.909090909091" dy="0.35em" text-anchor="start">Exploit Protection</text></g><g><rect x="0" y="264.9999999999999" height="171.818181818182" width="5" fill="#000"></rect><text x="11" y="350.9090909090909" dy="0.35em" text-anchor="start">Network Intrusion Prevention</text></g><g><rect x="0" y="235.90909090909082" height="19.090909090909065" width="5" fill="#000"></rect><text x="11" y="245.45454545454535" dy="0.35em" text-anchor="start">Network Segmentation</text></g><g><rect x="0" y="14.999999999999886" height="19.090909090909122" width="5" fill="#000"></rect><text x="11" y="24.545454545454447" dy="0.35em" text-anchor="start">Restrict Registry Permissions</text></g><g><rect x="0" y="168.63636363636374" height="57.27272727272708" width="5" fill="#000"></rect><text x="11" y="197.27272727272728" dy="0.35em" text-anchor="start">SSL/TLS Inspection</text></g><g><rect x="421" y="307.27272727272737" height="38.181818181818045" width="5" fill="#000"></rect><text x="415" y="326.3636363636364" dy="0.35em" text-anchor="end">commonly used port</text></g><g><rect x="421" y="432.72727272727275" height="19.090909090909122" width="5" fill="#000"></rect><text x="415" y="442.2727272727273" dy="0.35em" text-anchor="end">data compressed</text></g><g><rect x="421" y="153.6363636363632" height="19.090909090909236" width="5" fill="#000"></rect><text x="415" y="163.18181818181782" dy="0.35em" text-anchor="end">data encoding</text></g><g><rect x="421" y="-1.4210854715202004e-13" height="19.090909090909122" width="5" fill="#000"></rect><text x="415" y="9.545454545454419" dy="0.35em" text-anchor="end">modify registry</text></g><g><rect x="421" y="29.09090909090898" height="114.54545454545422" width="5" fill="#000"></rect><text x="415" y="86.36363636363609" dy="0.35em" text-anchor="end">obfuscated files or information</text></g><g><rect x="421" y="461.81818181818187" height="38.1818181818182" width="5" fill="#000"></rect><text x="415" y="480.909090909091" dy="0.35em" text-anchor="end">rundll32</text></g><g><rect x="421" y="403.6363636363637" height="19.090909090909065" width="5" fill="#000"></rect><text x="415" y="413.18181818181824" dy="0.35em" text-anchor="end">scheduled transfer</text></g><g><rect x="421" y="355.4545454545454" height="38.1818181818183" width="5" fill="#000"></rect><text x="415" y="374.5454545454545" dy="0.35em" text-anchor="end">standard application layer protocol</text></g><g><rect x="421" y="182.72727272727244" height="114.54545454545496" width="5" fill="#000"></rect><text x="415" y="239.99999999999991" dy="0.35em" text-anchor="end">standard cryptographic protocol</text></g></g></g></svg>