<svg width="847" height="520" xmlns="http://www.w3.org/2000/svg" version="1.1"><g transform="translate(0, 10)"><g class="links" fill="none" stroke-opacity="0.4"><path d="M5,122.50000000000006C213,122.50000000000006,213,127.49999999999997,421,127.49999999999997" stroke-width="245" style="stroke: rgb(191, 105, 105);"></path><path d="M5,377.50000000000017C213,377.50000000000017,213,372.5,421,372.5" stroke-width="245" style="stroke: rgb(105, 191, 105);"></path><path d="M426,372.5C634,372.5,634,377.5,842,377.5" stroke-width="245" style="stroke: rgb(105, 105, 191);"></path><path d="M426,127.49999999999997C634,127.49999999999997,634,122.49999999999997,842,122.49999999999997" stroke-width="245" style="stroke: rgb(105, 105, 191);"></path></g><g class="nodes" font-family="Arial, Helvetica" font-size="10"><g><rect x="842" y="255.00000000000003" height="245" width="5" fill="#000"></rect><text x="836" y="377.5" dy="0.35em" text-anchor="end">anti-virus</text></g><g><rect x="842" y="-2.842170943040401e-14" height="245.00000000000006" width="5" fill="#000"></rect><text x="836" y="122.5" dy="0.35em" text-anchor="end">netflow/enclave netflow</text></g><g><rect x="0" y="5.684341886080802e-14" height="245.0000000000001" width="5" fill="#000"></rect><text x="11" y="122.50000000000011" dy="0.35em" text-anchor="start">Privileged Account Management</text></g><g><rect x="0" y="255.00000000000017" height="244.99999999999977" width="5" fill="#000"></rect><text x="11" y="377.50000000000006" dy="0.35em" text-anchor="start">Update Software</text></g><g><rect x="421" y="4.999999999999972" height="490.00000000000006" width="5" fill="#000"></rect><text x="415" y="250" dy="0.35em" text-anchor="end">web shell</text></g></g></g></svg>