<svg width="847" height="520" xmlns="http://www.w3.org/2000/svg" version="1.1"><g transform="translate(0, 10)"><g class="links" fill="none" stroke-opacity="0.4"><path d="M5,78.00000000000009C213,78.00000000000009,213,63,421,63" stroke-width="126" style="stroke: rgb(191, 105, 105);"></path><path d="M5,151.50000000000009C213,151.50000000000009,213,396.4999999999998,421,396.4999999999998" stroke-width="21" style="stroke: rgb(191, 105, 105);"></path><path d="M5,339.5000000000002C213,339.5000000000002,213,427.5,421,427.5" stroke-width="21" style="stroke: rgb(191, 139, 105);"></path><path d="M5,308.0000000000002C213,308.0000000000002,213,302.9999999999999,421,302.9999999999999" stroke-width="42" style="stroke: rgb(191, 139, 105);"></path><path d="M5,360.5000000000002C213,360.5000000000002,213,489.50000000000006,421,489.50000000000006" stroke-width="21" style="stroke: rgb(191, 139, 105);"></path><path d="M5,402.0000000000001C213,402.0000000000001,213,250.99999999999983,421,250.99999999999983" stroke-width="42" style="stroke: rgb(191, 174, 105);"></path><path d="M5,214.00000000000026C213,214.00000000000026,213,177.99999999999983,421,177.99999999999983" stroke-width="84" style="stroke: rgb(174, 191, 105);"></path><path d="M5,266.5000000000002C213,266.5000000000002,213,458.50000000000006,421,458.50000000000006" stroke-width="21" style="stroke: rgb(174, 191, 105);"></path><path d="M5,443.5000000000001C213,443.5000000000001,213,344.4999999999999,421,344.4999999999999" stroke-width="21" style="stroke: rgb(139, 191, 105);"></path><path d="M5,474.5C213,474.5,213,365.4999999999999,421,365.4999999999999" stroke-width="21" style="stroke: rgb(105, 191, 105);"></path><path d="M426,31.5C634,31.5,634,271.5,842,271.5" stroke-width="21" style="stroke: rgb(105, 191, 139);"></path><path d="M426,94.5C634,94.5,634,458.50000000000034,842,458.50000000000034" stroke-width="21" style="stroke: rgb(105, 191, 139);"></path><path d="M426,115.5C634,115.5,634,489.50000000000034,842,489.50000000000034" stroke-width="21" style="stroke: rgb(105, 191, 139);"></path><path d="M426,10.5C634,10.5,634,104.50000000000003,842,104.50000000000003" stroke-width="21" style="stroke: rgb(105, 191, 139);"></path><path d="M426,73.5C634,73.5,634,427.5000000000002,842,427.5000000000002" stroke-width="21" style="stroke: rgb(105, 191, 139);"></path><path d="M426,52.5C634,52.5,634,375.5000000000002,842,375.5000000000002" stroke-width="21" style="stroke: rgb(105, 191, 139);"></path><path d="M426,396.4999999999998C634,396.4999999999998,634,292.5,842,292.5" stroke-width="21" style="stroke: rgb(105, 191, 174);"></path><path d="M426,427.5C634,427.5,634,240.50000000000003,842,240.50000000000003" stroke-width="21" style="stroke: rgb(105, 174, 191);"></path><path d="M426,302.9999999999999C634,302.9999999999999,634,209.00000000000003,842,209.00000000000003" stroke-width="42" style="stroke: rgb(105, 139, 191);"></path><path d="M426,489.50000000000006C634,489.50000000000006,634,396.5000000000002,842,396.5000000000002" stroke-width="21" style="stroke: rgb(105, 105, 191);"></path><path d="M426,250.99999999999983C634,250.99999999999983,634,334.0000000000002,842,334.0000000000002" stroke-width="42" style="stroke: rgb(139, 105, 191);"></path><path d="M426,156.99999999999983C634,156.99999999999983,634,20.9999999999998,842,20.9999999999998" stroke-width="42" style="stroke: rgb(174, 105, 191);"></path><path d="M426,198.99999999999983C634,198.99999999999983,634,136.00000000000003,842,136.00000000000003" stroke-width="42" style="stroke: rgb(174, 105, 191);"></path><path d="M426,458.50000000000006C634,458.50000000000006,634,167.50000000000003,842,167.50000000000003" stroke-width="21" style="stroke: rgb(191, 105, 174);"></path><path d="M426,354.9999999999999C634,354.9999999999999,634,62.9999999999998,842,62.9999999999998" stroke-width="42" style="stroke: rgb(191, 105, 139);"></path></g><g class="nodes" font-family="Arial, Helvetica" font-size="10"><g><rect x="842" y="261" height="42.00000000000023" width="5" fill="#000"></rect><text x="836" y="282.0000000000001" dy="0.35em" text-anchor="end">binary file metadata</text></g><g><rect x="842" y="188.00000000000003" height="62.999999999999936" width="5" fill="#000"></rect><text x="836" y="219.5" dy="0.35em" text-anchor="end">dll monitoring</text></g><g><rect x="842" y="313.0000000000002" height="42" width="5" fill="#000"></rect><text x="836" y="334.0000000000002" dy="0.35em" text-anchor="end">loaded dlls</text></g><g><rect x="842" y="448.00000000000034" height="21" width="5" fill="#000"></rect><text x="836" y="458.50000000000034" dy="0.35em" text-anchor="end">malware reverse engineering</text></g><g><rect x="842" y="-1.9895196601282805e-13" height="84.00000000000023" width="5" fill="#000"></rect><text x="836" y="41.999999999999915" dy="0.35em" text-anchor="end">netflow/enclave netflow</text></g><g><rect x="842" y="479.00000000000034" height="20.999999999999886" width="5" fill="#000"></rect><text x="836" y="489.5000000000003" dy="0.35em" text-anchor="end">network intrusion detection system</text></g><g><rect x="842" y="94.00000000000003" height="84" width="5" fill="#000"></rect><text x="836" y="136.00000000000003" dy="0.35em" text-anchor="end">network protocol analysis</text></g><g><rect x="842" y="417.0000000000002" height="21.000000000000114" width="5" fill="#000"></rect><text x="836" y="427.5000000000003" dy="0.35em" text-anchor="end">ssl/tls inspection</text></g><g><rect x="842" y="365.0000000000002" height="42" width="5" fill="#000"></rect><text x="836" y="386.0000000000002" dy="0.35em" text-anchor="end">windows event logs</text></g><g><rect x="0" y="15.000000000000085" height="147.00000000000017" width="5" fill="#000"></rect><text x="11" y="88.50000000000017" dy="0.35em" text-anchor="start">Antivirus/Antimalware</text></g><g><rect x="0" y="287.0000000000002" height="83.99999999999991" width="5" fill="#000"></rect><text x="11" y="329.00000000000017" dy="0.35em" text-anchor="start">Execution Prevention</text></g><g><rect x="0" y="381.0000000000001" height="41.999999999999986" width="5" fill="#000"></rect><text x="11" y="402.0000000000001" dy="0.35em" text-anchor="start">Exploit Protection</text></g><g><rect x="0" y="172.00000000000026" height="105" width="5" fill="#000"></rect><text x="11" y="224.50000000000026" dy="0.35em" text-anchor="start">Network Intrusion Prevention</text></g><g><rect x="0" y="433.0000000000001" height="20.999999999999886" width="5" fill="#000"></rect><text x="11" y="443.50000000000006" dy="0.35em" text-anchor="start">Privileged Account Management</text></g><g><rect x="0" y="464" height="20.999999999999886" width="5" fill="#000"></rect><text x="11" y="474.49999999999994" dy="0.35em" text-anchor="start">User Account Management</text></g><g><rect x="421" y="448.00000000000006" height="21" width="5" fill="#000"></rect><text x="415" y="458.50000000000006" dy="0.35em" text-anchor="end">data encoding</text></g><g><rect x="421" y="417" height="21.000000000000043" width="5" fill="#000"></rect><text x="415" y="427.5" dy="0.35em" text-anchor="end">execution through module load</text></g><g><rect x="421" y="479.00000000000006" height="21" width="5" fill="#000"></rect><text x="415" y="489.50000000000006" dy="0.35em" text-anchor="end">hidden window</text></g><g><rect x="421" y="0" height="125.99999999999983" width="5" fill="#000"></rect><text x="415" y="62.999999999999915" dy="0.35em" text-anchor="end">obfuscated files or information</text></g><g><rect x="421" y="229.99999999999983" height="42.00000000000003" width="5" fill="#000"></rect><text x="415" y="250.99999999999983" dy="0.35em" text-anchor="end">regsvr32</text></g><g><rect x="421" y="135.99999999999983" height="84" width="5" fill="#000"></rect><text x="415" y="177.99999999999983" dy="0.35em" text-anchor="end">remote file copy</text></g><g><rect x="421" y="385.9999999999998" height="21.000000000000227" width="5" fill="#000"></rect><text x="415" y="396.4999999999999" dy="0.35em" text-anchor="end">software packing</text></g><g><rect x="421" y="333.9999999999999" height="41.999999999999886" width="5" fill="#000"></rect><text x="415" y="354.99999999999983" dy="0.35em" text-anchor="end">windows management instrumentation</text></g><g><rect x="421" y="281.9999999999999" height="42.000000000000014" width="5" fill="#000"></rect><text x="415" y="302.9999999999999" dy="0.35em" text-anchor="end">xsl script processing</text></g></g></g></svg>