<svg width="847" height="520" xmlns="http://www.w3.org/2000/svg" version="1.1"><g transform="translate(0, 10)"><g class="links" fill="none" stroke-opacity="0.4"><path d="M5,234.99999999999997C213,234.99999999999997,213,74.50000000000034,421,74.50000000000034" stroke-width="129" style="stroke: rgb(191, 105, 105);"></path><path d="M5,331C213,331,213,266.50000000000045,421,266.50000000000045" stroke-width="43" style="stroke: rgb(191, 148, 105);"></path><path d="M5,149.75000000000009C213,149.75000000000009,213,404.75000000000034,421,404.75000000000034" stroke-width="21.5" style="stroke: rgb(191, 191, 105);"></path><path d="M5,117.50000000000009C213,117.50000000000009,213,362.5000000000004,421,362.5000000000004" stroke-width="43" style="stroke: rgb(191, 191, 105);"></path><path d="M5,53.000000000000085C213,53.000000000000085,213,192.00000000000034,421,192.00000000000034" stroke-width="86" style="stroke: rgb(191, 191, 105);"></path><path d="M5,479.25C213,479.25,213,426.25000000000034,421,426.25000000000034" stroke-width="21.5" style="stroke: rgb(148, 191, 105);"></path><path d="M5,437.00000000000006C213,437.00000000000006,213,309.50000000000045,421,309.50000000000045" stroke-width="43" style="stroke: rgb(105, 191, 105);"></path><path d="M5,384.00000000000006C213,384.00000000000006,213,468.5000000000002,421,468.5000000000002" stroke-width="43" style="stroke: rgb(105, 191, 148);"></path><path d="M426,63.75000000000034C634,63.75000000000034,634,394.75000000000006,842,394.75000000000006" stroke-width="21.5" style="stroke: rgb(105, 191, 191);"></path><path d="M426,85.25000000000034C634,85.25000000000034,634,426.25000000000006,842,426.25000000000006" stroke-width="21.5" style="stroke: rgb(105, 191, 191);"></path><path d="M426,106.75000000000034C634,106.75000000000034,634,457.75000000000006,842,457.75000000000006" stroke-width="21.5" style="stroke: rgb(105, 191, 191);"></path><path d="M426,42.25000000000034C634,42.25000000000034,634,320.2500000000003,842,320.2500000000003" stroke-width="21.5" style="stroke: rgb(105, 191, 191);"></path><path d="M426,128.25000000000034C634,128.25000000000034,634,489.25000000000006,842,489.25000000000006" stroke-width="21.5" style="stroke: rgb(105, 191, 191);"></path><path d="M426,20.75000000000034C634,20.75000000000034,634,245.7500000000001,842,245.7500000000001" stroke-width="21.5" style="stroke: rgb(105, 191, 191);"></path><path d="M426,288.00000000000045C634,288.00000000000045,634,182.0000000000001,842,182.0000000000001" stroke-width="86" style="stroke: rgb(105, 148, 191);"></path><path d="M426,415.50000000000034C634,415.50000000000034,634,107.49999999999994,842,107.49999999999994" stroke-width="43" style="stroke: rgb(105, 105, 191);"></path><path d="M426,362.5000000000004C634,362.5000000000004,634,64.49999999999994,842,64.49999999999994" stroke-width="43" style="stroke: rgb(148, 105, 191);"></path><path d="M426,170.50000000000034C634,170.50000000000034,634,21.499999999999943,842,21.499999999999943" stroke-width="43" style="stroke: rgb(191, 105, 191);"></path><path d="M426,213.50000000000034C634,213.50000000000034,634,352.5000000000003,842,352.5000000000003" stroke-width="43" style="stroke: rgb(191, 105, 191);"></path><path d="M426,468.5000000000002C634,468.5000000000002,634,278.0000000000001,842,278.0000000000001" stroke-width="43" style="stroke: rgb(191, 105, 148);"></path></g><g class="nodes" font-family="Arial, Helvetica" font-size="10"><g><rect x="842" y="384.00000000000006" height="21.5" width="5" fill="#000"></rect><text x="836" y="394.75000000000006" dy="0.35em" text-anchor="end">binary file metadata</text></g><g><rect x="842" y="139.0000000000001" height="86" width="5" fill="#000"></rect><text x="836" y="182.0000000000001" dy="0.35em" text-anchor="end">dll monitoring</text></g><g><rect x="842" y="415.50000000000006" height="21.5" width="5" fill="#000"></rect><text x="836" y="426.25000000000006" dy="0.35em" text-anchor="end">malware reverse engineering</text></g><g><rect x="842" y="-5.684341886080802e-14" height="129.00000000000017" width="5" fill="#000"></rect><text x="836" y="64.50000000000003" dy="0.35em" text-anchor="end">netflow/enclave netflow</text></g><g><rect x="842" y="447.00000000000006" height="21.5" width="5" fill="#000"></rect><text x="836" y="457.75000000000006" dy="0.35em" text-anchor="end">network intrusion detection system</text></g><g><rect x="842" y="309.5000000000003" height="64.49999999999977" width="5" fill="#000"></rect><text x="836" y="341.75000000000017" dy="0.35em" text-anchor="end">network protocol analysis</text></g><g><rect x="842" y="478.50000000000006" height="21.5" width="5" fill="#000"></rect><text x="836" y="489.25000000000006" dy="0.35em" text-anchor="end">ssl/tls inspection</text></g><g><rect x="842" y="235.0000000000001" height="64.50000000000017" width="5" fill="#000"></rect><text x="836" y="267.2500000000002" dy="0.35em" text-anchor="end">windows event logs</text></g><g><rect x="0" y="170.49999999999997" height="129" width="5" fill="#000"></rect><text x="11" y="234.99999999999997" dy="0.35em" text-anchor="start">Antivirus/Antimalware</text></g><g><rect x="0" y="309.5" height="43.000000000000036" width="5" fill="#000"></rect><text x="11" y="331" dy="0.35em" text-anchor="start">Behavior Prevention on Endpoint</text></g><g><rect x="0" y="10.000000000000085" height="150.4999999999999" width="5" fill="#000"></rect><text x="11" y="85.25000000000003" dy="0.35em" text-anchor="start">Network Intrusion Prevention</text></g><g><rect x="0" y="468.5" height="21.5" width="5" fill="#000"></rect><text x="11" y="479.25" dy="0.35em" text-anchor="start">Network Segmentation</text></g><g><rect x="0" y="415.50000000000006" height="42.99999999999994" width="5" fill="#000"></rect><text x="11" y="437" dy="0.35em" text-anchor="start">Privileged Account Management</text></g><g><rect x="0" y="362.50000000000006" height="43" width="5" fill="#000"></rect><text x="11" y="384.00000000000006" dy="0.35em" text-anchor="start">User Account Management</text></g><g><rect x="421" y="394.00000000000034" height="42.999999999999886" width="5" fill="#000"></rect><text x="415" y="415.5000000000003" dy="0.35em" text-anchor="end">commonly used port</text></g><g><rect x="421" y="341.0000000000004" height="42.99999999999994" width="5" fill="#000"></rect><text x="415" y="362.50000000000034" dy="0.35em" text-anchor="end">connection proxy</text></g><g><rect x="421" y="447.0000000000002" height="42.99999999999943" width="5" fill="#000"></rect><text x="415" y="468.49999999999994" dy="0.35em" text-anchor="end">new service</text></g><g><rect x="421" y="10.000000000000341" height="129" width="5" fill="#000"></rect><text x="415" y="74.50000000000034" dy="0.35em" text-anchor="end">obfuscated files or information</text></g><g><rect x="421" y="245.00000000000043" height="85.99999999999997" width="5" fill="#000"></rect><text x="415" y="288.0000000000004" dy="0.35em" text-anchor="end">process injection</text></g><g><rect x="421" y="149.00000000000034" height="86.00000000000009" width="5" fill="#000"></rect><text x="415" y="192.0000000000004" dy="0.35em" text-anchor="end">remote file copy</text></g></g></g></svg>