<svg width="847" height="520" xmlns="http://www.w3.org/2000/svg" version="1.1"><g transform="translate(0, 10)"><g class="links" fill="none" stroke-opacity="0.4"><path d="M5,183.07692307692312C213,183.07692307692312,213,336.53846153846166,421,336.53846153846166" stroke-width="69.23076923076923" style="stroke: rgb(191, 105, 105);"></path><path d="M5,341.53846153846155C213,341.53846153846155,213,188.07692307692315,421,188.07692307692315" stroke-width="69.23076923076923" style="stroke: rgb(191, 162, 105);"></path><path d="M5,262.3076923076924C213,262.3076923076924,213,118.84615384615392,421,118.84615384615392" stroke-width="69.23076923076923" style="stroke: rgb(162, 191, 105);"></path><path d="M5,482.6923076923075C213,482.6923076923075,213,467.6923076923077,421,467.6923076923077" stroke-width="34.61538461538461" style="stroke: rgb(105, 191, 105);"></path><path d="M5,34.615384615384755C213,34.615384615384755,213,49.6153846153847,421,49.6153846153847" stroke-width="69.23076923076923" style="stroke: rgb(105, 191, 162);"></path><path d="M5,103.84615384615398C213,103.84615384615398,213,267.30769230769243,421,267.30769230769243" stroke-width="69.23076923076923" style="stroke: rgb(105, 191, 162);"></path><path d="M5,420.7692307692307C213,420.7692307692307,213,405.76923076923083,421,405.76923076923083" stroke-width="69.23076923076923" style="stroke: rgb(105, 162, 191);"></path><path d="M426,336.53846153846166C634,336.53846153846166,634,113.84615384615395,842,113.84615384615395" stroke-width="207.69230769230768" style="stroke: rgb(105, 105, 191);"></path><path d="M426,66.923076923077C634,66.923076923077,634,279.61538461538476,842,279.61538461538476" stroke-width="103.84615384615384" style="stroke: rgb(162, 105, 191);"></path><path d="M426,170.76923076923083C634,170.76923076923083,634,393.46153846153857,842,393.46153846153857" stroke-width="103.84615384615384" style="stroke: rgb(162, 105, 191);"></path><path d="M426,467.6923076923077C634,467.6923076923077,634,472.6923076923077,842,472.6923076923077" stroke-width="34.61538461538461" style="stroke: rgb(191, 105, 162);"></path></g><g class="nodes" font-family="Arial, Helvetica" font-size="10"><g><rect x="842" y="227.69230769230785" height="103.84615384615383" width="5" fill="#000"></rect><text x="836" y="279.61538461538476" dy="0.35em" text-anchor="end">dll monitoring</text></g><g><rect x="842" y="341.53846153846166" height="103.8461538461537" width="5" fill="#000"></rect><text x="836" y="393.4615384615385" dy="0.35em" text-anchor="end">loaded dlls</text></g><g><rect x="842" y="455.38461538461536" height="34.61538461538453" width="5" fill="#000"></rect><text x="836" y="472.6923076923076" dy="0.35em" text-anchor="end">network protocol analysis</text></g><g><rect x="842" y="10.000000000000114" height="207.69230769230774" width="5" fill="#000"></rect><text x="836" y="113.84615384615398" dy="0.35em" text-anchor="end">system calls</text></g><g><rect x="0" y="148.4615384615385" height="69.23076923076923" width="5" fill="#000"></rect><text x="11" y="183.07692307692312" dy="0.35em" text-anchor="start">Audit</text></g><g><rect x="0" y="306.9230769230769" height="69.23076923076916" width="5" fill="#000"></rect><text x="11" y="341.5384615384615" dy="0.35em" text-anchor="start">Code Signing</text></g><g><rect x="0" y="227.69230769230774" height="69.2307692307692" width="5" fill="#000"></rect><text x="11" y="262.3076923076923" dy="0.35em" text-anchor="start">Disable or Remove Feature or Program</text></g><g><rect x="0" y="465.3846153846152" height="34.61538461538464" width="5" fill="#000"></rect><text x="11" y="482.6923076923075" dy="0.35em" text-anchor="start">Network Intrusion Prevention</text></g><g><rect x="0" y="1.4210854715202004e-13" height="138.46153846153837" width="5" fill="#000"></rect><text x="11" y="69.23076923076933" dy="0.35em" text-anchor="start">Privileged Account Management</text></g><g><rect x="0" y="386.1538461538461" height="69.23076923076911" width="5" fill="#000"></rect><text x="11" y="420.7692307692306" dy="0.35em" text-anchor="start">User Account Control</text></g><g><rect x="421" y="232.69230769230782" height="207.6923076923075" width="5" fill="#000"></rect><text x="415" y="336.53846153846155" dy="0.35em" text-anchor="end">bypass user account control</text></g><g><rect x="421" y="450.38461538461536" height="34.615384615384585" width="5" fill="#000"></rect><text x="415" y="467.6923076923076" dy="0.35em" text-anchor="end">data encoding</text></g><g><rect x="421" y="15.000000000000085" height="207.69230769230774" width="5" fill="#000"></rect><text x="415" y="118.84615384615395" dy="0.35em" text-anchor="end">powershell</text></g></g></g></svg>