<svg width="847" height="520" xmlns="http://www.w3.org/2000/svg" version="1.1"><g transform="translate(0, 10)"><g class="links" fill="none" stroke-opacity="0.4"><path d="M5,201C213,201,213,195.9999999999998,421,195.9999999999998" stroke-width="392" style="stroke: rgb(191, 105, 105);"></path><path d="M5,446C213,446,213,451,421,451" stroke-width="98" style="stroke: rgb(191, 105, 105);"></path><path d="M426,293.9999999999998C634,293.9999999999998,634,402,842,402" stroke-width="196" style="stroke: rgb(105, 191, 105);"></path><path d="M426,97.9999999999998C634,97.9999999999998,634,98.00000000000011,842,98.00000000000011" stroke-width="196" style="stroke: rgb(105, 191, 105);"></path><path d="M426,451C634,451,634,245.0000000000001,842,245.0000000000001" stroke-width="98" style="stroke: rgb(105, 105, 191);"></path></g><g class="nodes" font-family="Arial, Helvetica" font-size="10"><g><rect x="842" y="304" height="195.9999999999999" width="5" fill="#000"></rect><text x="836" y="401.99999999999994" dy="0.35em" text-anchor="end">netflow/enclave netflow</text></g><g><rect x="842" y="1.1368683772161603e-13" height="293.9999999999999" width="5" fill="#000"></rect><text x="836" y="147.00000000000006" dy="0.35em" text-anchor="end">network protocol analysis</text></g><g><rect x="0" y="5" height="490" width="5" fill="#000"></rect><text x="11" y="250" dy="0.35em" text-anchor="start">Network Intrusion Prevention</text></g><g><rect x="421" y="402" height="98.00000000000023" width="5" fill="#000"></rect><text x="415" y="451.0000000000001" dy="0.35em" text-anchor="end">data encoding</text></g><g><rect x="421" y="-1.9895196601282805e-13" height="392.00000000000017" width="5" fill="#000"></rect><text x="415" y="195.9999999999999" dy="0.35em" text-anchor="end">remote file copy</text></g></g></g></svg>