<svg width="847" height="520" xmlns="http://www.w3.org/2000/svg" version="1.1"><g transform="translate(0, 10)"><g class="links" fill="none" stroke-opacity="0.4"><path d="M5,298.00000000000017C213,298.00000000000017,213,293.00000000000006,421,293.00000000000006" stroke-width="192" style="stroke: rgb(191, 105, 105);"></path><path d="M5,452.00000000000017C213,452.00000000000017,213,446.99999999999994,421,446.99999999999994" stroke-width="96" style="stroke: rgb(174, 191, 105);"></path><path d="M5,96.00000000000011C213,96.00000000000011,213,101.00000000000006,421,101.00000000000006" stroke-width="192" style="stroke: rgb(105, 191, 139);"></path><path d="M426,197.00000000000006C634,197.00000000000006,634,197.0000000000001,842,197.0000000000001" stroke-width="384" style="stroke: rgb(105, 139, 191);"></path><path d="M426,446.99999999999994C634,446.99999999999994,634,446.9999999999999,842,446.9999999999999" stroke-width="96" style="stroke: rgb(174, 105, 191);"></path></g><g class="nodes" font-family="Arial, Helvetica" font-size="10"><g><rect x="842" y="5.000000000000114" height="383.9999999999998" width="5" fill="#000"></rect><text x="836" y="197" dy="0.35em" text-anchor="end">dll monitoring</text></g><g><rect x="842" y="398.9999999999999" height="96" width="5" fill="#000"></rect><text x="836" y="446.9999999999999" dy="0.35em" text-anchor="end">network protocol analysis</text></g><g><rect x="0" y="202.00000000000017" height="192" width="5" fill="#000"></rect><text x="11" y="298.00000000000017" dy="0.35em" text-anchor="start">Behavior Prevention on Endpoint</text></g><g><rect x="0" y="404.00000000000017" height="95.99999999999972" width="5" fill="#000"></rect><text x="11" y="452" dy="0.35em" text-anchor="start">Network Intrusion Prevention</text></g><g><rect x="0" y="1.1368683772161603e-13" height="192.00000000000006" width="5" fill="#000"></rect><text x="11" y="96.00000000000014" dy="0.35em" text-anchor="start">Privileged Account Management</text></g><g><rect x="421" y="398.99999999999994" height="96" width="5" fill="#000"></rect><text x="415" y="446.99999999999994" dy="0.35em" text-anchor="end">data obfuscation</text></g><g><rect x="421" y="5.000000000000057" height="383.9999999999999" width="5" fill="#000"></rect><text x="415" y="197" dy="0.35em" text-anchor="end">process injection</text></g></g></g></svg>