<svg width="847" height="520" xmlns="http://www.w3.org/2000/svg" version="1.1"><g transform="translate(0, 10)"><g class="links" fill="none" stroke-opacity="0.4"><path d="M5,235.0000000000002C213,235.0000000000002,213,345.0000000000001,421,345.0000000000001" stroke-width="90" style="stroke: rgb(191, 105, 105);"></path><path d="M5,145.0000000000002C213,145.0000000000002,213,245.00000000000017,421,245.00000000000017" stroke-width="90" style="stroke: rgb(191, 105, 105);"></path><path d="M5,55.0000000000002C213,55.0000000000002,213,145.00000000000017,421,145.00000000000017" stroke-width="90" style="stroke: rgb(191, 105, 105);"></path><path d="M5,302.5000000000002C213,302.5000000000002,213,422.4999999999999,421,422.4999999999999" stroke-width="45" style="stroke: rgb(191, 105, 105);"></path><path d="M5,467.4999999999998C213,467.4999999999998,213,67.50000000000014,421,67.50000000000014" stroke-width="45" style="stroke: rgb(191, 156, 105);"></path><path d="M5,412.4999999999998C213,412.4999999999998,213,477.4999999999999,421,477.4999999999999" stroke-width="45" style="stroke: rgb(174, 191, 105);"></path><path d="M5,357.4999999999998C213,357.4999999999998,213,22.500000000000142,421,22.500000000000142" stroke-width="45" style="stroke: rgb(122, 191, 105);"></path><path d="M426,367.5000000000001C634,367.5000000000001,634,417.5,842,417.5" stroke-width="45" style="stroke: rgb(105, 191, 139);"></path><path d="M426,322.5000000000001C634,322.5000000000001,634,162.50000000000009,842,162.50000000000009" stroke-width="45" style="stroke: rgb(105, 191, 139);"></path><path d="M426,245.00000000000017C634,245.00000000000017,634,95.00000000000009,842,95.00000000000009" stroke-width="90" style="stroke: rgb(105, 191, 191);"></path><path d="M426,122.50000000000016C634,122.50000000000016,634,27.500000000000085,842,27.500000000000085" stroke-width="45" style="stroke: rgb(105, 139, 191);"></path><path d="M426,167.50000000000017C634,167.50000000000017,634,317.5000000000001,842,317.5000000000001" stroke-width="45" style="stroke: rgb(105, 139, 191);"></path><path d="M426,422.4999999999999C634,422.4999999999999,634,362.5000000000001,842,362.5000000000001" stroke-width="45" style="stroke: rgb(122, 105, 191);"></path><path d="M426,45.00000000000014C634,45.00000000000014,634,240.00000000000014,842,240.00000000000014" stroke-width="90" style="stroke: rgb(174, 105, 191);"></path><path d="M426,477.4999999999999C634,477.4999999999999,634,472.5,842,472.5" stroke-width="45" style="stroke: rgb(191, 105, 156);"></path></g><g class="nodes" font-family="Arial, Helvetica" font-size="10"><g><rect x="842" y="195.00000000000014" height="89.99999999999999" width="5" fill="#000"></rect><text x="836" y="240.00000000000014" dy="0.35em" text-anchor="end">anti-virus</text></g><g><rect x="842" y="395" height="45" width="5" fill="#000"></rect><text x="836" y="417.5" dy="0.35em" text-anchor="end">malware reverse engineering</text></g><g><rect x="842" y="5.000000000000085" height="180.00000000000006" width="5" fill="#000"></rect><text x="836" y="95.00000000000011" dy="0.35em" text-anchor="end">netflow/enclave netflow</text></g><g><rect x="842" y="295.0000000000001" height="89.99999999999989" width="5" fill="#000"></rect><text x="836" y="340.00000000000006" dy="0.35em" text-anchor="end">network protocol analysis</text></g><g><rect x="842" y="450" height="44.999999999999886" width="5" fill="#000"></rect><text x="836" y="472.49999999999994" dy="0.35em" text-anchor="end">windows event logs</text></g><g><rect x="0" y="10.000000000000199" height="314.9999999999996" width="5" fill="#000"></rect><text x="11" y="167.5" dy="0.35em" text-anchor="start">Network Intrusion Prevention</text></g><g><rect x="0" y="444.9999999999998" height="44.99999999999999" width="5" fill="#000"></rect><text x="11" y="467.4999999999998" dy="0.35em" text-anchor="start">Restrict File and Directory Permissions</text></g><g><rect x="0" y="389.9999999999998" height="45" width="5" fill="#000"></rect><text x="11" y="412.4999999999998" dy="0.35em" text-anchor="start">Restrict Registry Permissions</text></g><g><rect x="0" y="334.9999999999998" height="45.000000000000014" width="5" fill="#000"></rect><text x="11" y="357.4999999999998" dy="0.35em" text-anchor="start">User Account Management</text></g><g><rect x="421" y="200.00000000000017" height="89.99999999999994" width="5" fill="#000"></rect><text x="415" y="245.00000000000014" dy="0.35em" text-anchor="end">connection proxy</text></g><g><rect x="421" y="399.9999999999999" height="45" width="5" fill="#000"></rect><text x="415" y="422.4999999999999" dy="0.35em" text-anchor="end">data obfuscation</text></g><g><rect x="421" y="1.4210854715202004e-13" height="90.00000000000001" width="5" fill="#000"></rect><text x="415" y="45.00000000000015" dy="0.35em" text-anchor="end">disabling security tools</text></g><g><rect x="421" y="454.9999999999999" height="45" width="5" fill="#000"></rect><text x="415" y="477.4999999999999" dy="0.35em" text-anchor="end">modify registry</text></g><g><rect x="421" y="100.00000000000016" height="90" width="5" fill="#000"></rect><text x="415" y="145.00000000000017" dy="0.35em" text-anchor="end">multi-stage channels</text></g><g><rect x="421" y="300.0000000000001" height="89.99999999999977" width="5" fill="#000"></rect><text x="415" y="345" dy="0.35em" text-anchor="end">standard application layer protocol</text></g></g></g></svg>