<svg width="847" height="520" xmlns="http://www.w3.org/2000/svg" version="1.1"><g transform="translate(0, 10)"><g class="links" fill="none" stroke-opacity="0.4"><path d="M5,102.22222222222214C213,102.22222222222214,213,163.3333333333334,421,163.3333333333334" stroke-width="102.22222222222223" style="stroke: rgb(191, 105, 105);"></path><path d="M5,25.555555555555472C213,25.555555555555472,213,25.555555555555443,421,25.555555555555443" stroke-width="51.111111111111114" style="stroke: rgb(191, 105, 105);"></path><path d="M5,204.44444444444437C213,204.44444444444437,213,387.77777777777794,421,387.77777777777794" stroke-width="102.22222222222223" style="stroke: rgb(191, 105, 105);"></path><path d="M5,413.3333333333335C213,413.3333333333335,213,76.66666666666656,421,76.66666666666656" stroke-width="51.111111111111114" style="stroke: rgb(191, 156, 105);"></path><path d="M5,352.2222222222224C213,352.2222222222224,213,250.0000000000001,421,250.0000000000001" stroke-width="51.111111111111114" style="stroke: rgb(174, 191, 105);"></path><path d="M5,291.1111111111112C213,291.1111111111112,213,474.4444444444445,421,474.4444444444445" stroke-width="51.111111111111114" style="stroke: rgb(122, 191, 105);"></path><path d="M5,474.44444444444457C213,474.44444444444457,213,301.1111111111112,421,301.1111111111112" stroke-width="51.111111111111114" style="stroke: rgb(105, 191, 139);"></path><path d="M426,188.88888888888897C634,188.88888888888897,634,469.4444444444446,842,469.4444444444446" stroke-width="51.111111111111114" style="stroke: rgb(105, 191, 191);"></path><path d="M426,137.77777777777783C634,137.77777777777783,634,132.77777777777766,842,132.77777777777766" stroke-width="51.111111111111114" style="stroke: rgb(105, 191, 191);"></path><path d="M426,51.111111111111C634,51.111111111111,634,56.11111111111097,842,56.11111111111097" stroke-width="102.22222222222223" style="stroke: rgb(105, 139, 191);"></path><path d="M426,387.77777777777794C634,387.77777777777794,634,209.44444444444431,842,209.44444444444431" stroke-width="102.22222222222223" style="stroke: rgb(122, 105, 191);"></path><path d="M426,275.55555555555566C634,275.55555555555566,634,321.6666666666665,842,321.6666666666665" stroke-width="102.22222222222223" style="stroke: rgb(174, 105, 191);"></path><path d="M426,474.4444444444445C634,474.4444444444445,634,408.33333333333326,842,408.33333333333326" stroke-width="51.111111111111114" style="stroke: rgb(191, 105, 156);"></path></g><g class="nodes" font-family="Arial, Helvetica" font-size="10"><g><rect x="842" y="270.55555555555543" height="102.22222222222226" width="5" fill="#000"></rect><text x="836" y="321.6666666666666" dy="0.35em" text-anchor="end">anti-virus</text></g><g><rect x="842" y="443.8888888888891" height="51.111111111111086" width="5" fill="#000"></rect><text x="836" y="469.4444444444446" dy="0.35em" text-anchor="end">malware reverse engineering</text></g><g><rect x="842" y="4.999999999999858" height="255.55555555555554" width="5" fill="#000"></rect><text x="836" y="132.77777777777763" dy="0.35em" text-anchor="end">netflow/enclave netflow</text></g><g><rect x="842" y="382.7777777777777" height="51.11111111111137" width="5" fill="#000"></rect><text x="836" y="408.33333333333337" dy="0.35em" text-anchor="end">windows event logs</text></g><g><rect x="0" y="-8.526512829121202e-14" height="255.55555555555577" width="5" fill="#000"></rect><text x="11" y="127.7777777777778" dy="0.35em" text-anchor="start">Network Intrusion Prevention</text></g><g><rect x="0" y="387.77777777777794" height="51.111111111111086" width="5" fill="#000"></rect><text x="11" y="413.3333333333335" dy="0.35em" text-anchor="start">Network Segmentation</text></g><g><rect x="0" y="326.66666666666686" height="51.111111111111114" width="5" fill="#000"></rect><text x="11" y="352.2222222222224" dy="0.35em" text-anchor="start">Restrict File and Directory Permissions</text></g><g><rect x="0" y="265.55555555555566" height="51.1111111111112" width="5" fill="#000"></rect><text x="11" y="291.11111111111126" dy="0.35em" text-anchor="start">Restrict Registry Permissions</text></g><g><rect x="0" y="448.888888888889" height="51.11111111111104" width="5" fill="#000"></rect><text x="11" y="474.44444444444457" dy="0.35em" text-anchor="start">User Account Management</text></g><g><rect x="421" y="-1.1368683772161603e-13" height="102.2222222222224" width="5" fill="#000"></rect><text x="415" y="51.111111111111086" dy="0.35em" text-anchor="end">commonly used port</text></g><g><rect x="421" y="336.6666666666668" height="102.22222222222217" width="5" fill="#000"></rect><text x="415" y="387.7777777777779" dy="0.35em" text-anchor="end">connection proxy</text></g><g><rect x="421" y="112.22222222222229" height="102.22222222222229" width="5" fill="#000"></rect><text x="415" y="163.33333333333343" dy="0.35em" text-anchor="end">custom cryptographic protocol</text></g><g><rect x="421" y="224.44444444444457" height="102.22222222222223" width="5" fill="#000"></rect><text x="415" y="275.55555555555566" dy="0.35em" text-anchor="end">disabling security tools</text></g><g><rect x="421" y="448.88888888888897" height="51.11111111111114" width="5" fill="#000"></rect><text x="415" y="474.44444444444457" dy="0.35em" text-anchor="end">modify registry</text></g></g></g></svg>