<svg width="847" height="520" xmlns="http://www.w3.org/2000/svg" version="1.1"><g transform="translate(0, 10)"><g class="links" fill="none" stroke-opacity="0.4"><path d="M5,256.78571428571433C213,256.78571428571433,213,304.64285714285705,421,304.64285714285705" stroke-width="9.285714285714286" style="stroke: rgb(191, 105, 105);"></path><path d="M5,238.21428571428572C213,238.21428571428572,213,23.928571428571544,421,23.928571428571544" stroke-width="27.85714285714286" style="stroke: rgb(191, 105, 105);"></path><path d="M5,437.5000000000002C213,437.5000000000002,213,361.07142857142844,421,361.07142857142844" stroke-width="9.285714285714286" style="stroke: rgb(191, 128, 105);"></path><path d="M5,456.7857142857145C213,456.7857142857145,213,408.9285714285714,421,408.9285714285714" stroke-width="9.285714285714286" style="stroke: rgb(191, 152, 105);"></path><path d="M5,418.21428571428595C213,418.21428571428595,213,351.78571428571416,421,351.78571428571416" stroke-width="9.285714285714286" style="stroke: rgb(191, 175, 105);"></path><path d="M5,102.14285714285707C213,102.14285714285707,213,384.99999999999983,421,384.99999999999983" stroke-width="18.571428571428573" style="stroke: rgb(183, 191, 105);"></path><path d="M5,120.71428571428564C213,120.71428571428564,213,442.14285714285705,421,442.14285714285705" stroke-width="18.571428571428573" style="stroke: rgb(183, 191, 105);"></path><path d="M5,74.2857142857142C213,74.2857142857142,213,271.4285714285711,421,271.4285714285711" stroke-width="37.142857142857146" style="stroke: rgb(183, 191, 105);"></path><path d="M5,27.857142857142776C213,27.857142857142776,213,159.2857142857143,421,159.2857142857143" stroke-width="55.71428571428572" style="stroke: rgb(183, 191, 105);"></path><path d="M5,134.64285714285705C213,134.64285714285705,213,466.0714285714285,421,466.0714285714285" stroke-width="9.285714285714286" style="stroke: rgb(183, 191, 105);"></path><path d="M5,143.92857142857133C213,143.92857142857133,213,485.35714285714283,421,485.35714285714283" stroke-width="9.285714285714286" style="stroke: rgb(183, 191, 105);"></path><path d="M5,323.21428571428595C213,323.21428571428595,213,79.64285714285727,421,79.64285714285727" stroke-width="27.85714285714286" style="stroke: rgb(160, 191, 105);"></path><path d="M5,285.357142857143C213,285.357142857143,213,51.785714285714405,421,51.785714285714405" stroke-width="27.85714285714286" style="stroke: rgb(136, 191, 105);"></path><path d="M5,476.0714285714288C213,476.0714285714288,213,418.21428571428567,421,418.21428571428567" stroke-width="9.285714285714286" style="stroke: rgb(113, 191, 105);"></path><path d="M5,398.9285714285717C213,398.9285714285717,213,342.4999999999999,421,342.4999999999999" stroke-width="9.285714285714286" style="stroke: rgb(105, 191, 121);"></path><path d="M5,389.6428571428574C213,389.6428571428574,213,313.92857142857133,421,313.92857142857133" stroke-width="9.285714285714286" style="stroke: rgb(105, 191, 121);"></path><path d="M5,186.4285714285714C213,186.4285714285714,213,215.00000000000003,421,215.00000000000003" stroke-width="55.71428571428572" style="stroke: rgb(105, 191, 144);"></path><path d="M5,495.35714285714306C213,495.35714285714306,213,323.2142857142856,421,323.2142857142856" stroke-width="9.285714285714286" style="stroke: rgb(105, 191, 167);"></path><path d="M5,361.07142857142884C213,361.07142857142884,213,107.50000000000013,421,107.50000000000013" stroke-width="27.85714285714286" style="stroke: rgb(105, 191, 191);"></path><path d="M426,313.92857142857133C634,313.92857142857133,634,408.92857142857144,842,408.92857142857144" stroke-width="27.85714285714286" style="stroke: rgb(105, 167, 191);"></path><path d="M426,65.71428571428584C634,65.71428571428584,634,75.71428571428578,842,75.71428571428578" stroke-width="111.42857142857144" style="stroke: rgb(105, 144, 191);"></path><path d="M426,351.78571428571416C634,351.78571428571416,634,371.07142857142856,842,371.07142857142856" stroke-width="27.85714285714286" style="stroke: rgb(105, 121, 191);"></path><path d="M426,413.5714285714285C634,413.5714285714285,634,442.1428571428571,842,442.1428571428571" stroke-width="18.571428571428573" style="stroke: rgb(113, 105, 191);"></path><path d="M426,389.642857142857C634,389.642857142857,634,466.07142857142856,842,466.07142857142856" stroke-width="9.285714285714286" style="stroke: rgb(136, 105, 191);"></path><path d="M426,380.3571428571427C634,380.3571428571427,634,286.0714285714287,842,286.0714285714287" stroke-width="9.285714285714286" style="stroke: rgb(136, 105, 191);"></path><path d="M426,446.7857142857142C634,446.7857142857142,634,475.35714285714283,842,475.35714285714283" stroke-width="9.285714285714286" style="stroke: rgb(160, 105, 191);"></path><path d="M426,437.49999999999994C634,437.49999999999994,634,295.357142857143,842,295.357142857143" stroke-width="9.285714285714286" style="stroke: rgb(160, 105, 191);"></path><path d="M426,280.7142857142854C634,280.7142857142854,634,272.1428571428573,842,272.1428571428573" stroke-width="18.571428571428573" style="stroke: rgb(183, 105, 191);"></path><path d="M426,262.1428571428568C634,262.1428571428568,634,187.85714285714303,842,187.85714285714303" stroke-width="18.571428571428573" style="stroke: rgb(183, 105, 191);"></path><path d="M426,187.14285714285717C634,187.14285714285717,634,244.28571428571442,842,244.28571428571442" stroke-width="37.142857142857146" style="stroke: rgb(191, 105, 175);"></path><path d="M426,150.00000000000003C634,150.00000000000003,634,160.0000000000002,842,160.0000000000002" stroke-width="37.142857142857146" style="stroke: rgb(191, 105, 175);"></path><path d="M426,224.2857142857143C634,224.2857142857143,634,328.57142857142856,842,328.57142857142856" stroke-width="37.142857142857146" style="stroke: rgb(191, 105, 175);"></path><path d="M426,466.0714285714285C634,466.0714285714285,634,201.78571428571448,842,201.78571428571448" stroke-width="9.285714285714286" style="stroke: rgb(191, 105, 152);"></path><path d="M426,485.35714285714283C634,485.35714285714283,634,211.07142857142875,842,211.07142857142875" stroke-width="9.285714285714286" style="stroke: rgb(191, 105, 128);"></path></g><g class="nodes" font-family="Arial, Helvetica" font-size="10"><g><rect x="842" y="357.1428571428571" height="27.857142857142865" width="5" fill="#000"></rect><text x="836" y="371.07142857142856" dy="0.35em" text-anchor="end">binary file metadata</text></g><g><rect x="842" y="432.85714285714283" height="18.57142857142857" width="5" fill="#000"></rect><text x="836" y="442.1428571428571" dy="0.35em" text-anchor="end">data loss prevention</text></g><g><rect x="842" y="395" height="27.857142857142833" width="5" fill="#000"></rect><text x="836" y="408.92857142857144" dy="0.35em" text-anchor="end">loaded dlls</text></g><g><rect x="842" y="461.4285714285714" height="18.571428571428555" width="5" fill="#000"></rect><text x="836" y="470.71428571428567" dy="0.35em" text-anchor="end">malware reverse engineering</text></g><g><rect x="842" y="225.71428571428584" height="74.28571428571414" width="5" fill="#000"></rect><text x="836" y="262.8571428571429" dy="0.35em" text-anchor="end">netflow/enclave netflow</text></g><g><rect x="842" y="141.42857142857162" height="74.28571428571422" width="5" fill="#000"></rect><text x="836" y="178.57142857142873" dy="0.35em" text-anchor="end">network protocol analysis</text></g><g><rect x="842" y="310" height="37.14285714285711" width="5" fill="#000"></rect><text x="836" y="328.57142857142856" dy="0.35em" text-anchor="end">ssl/tls inspection</text></g><g><rect x="842" y="20.000000000000057" height="111.42857142857156" width="5" fill="#000"></rect><text x="836" y="75.71428571428584" dy="0.35em" text-anchor="end">windows event logs</text></g><g><rect x="0" y="224.2857142857143" height="37.142857142857224" width="5" fill="#000"></rect><text x="11" y="242.85714285714292" dy="0.35em" text-anchor="start">Audit</text></g><g><rect x="0" y="432.85714285714306" height="9.285714285714285" width="5" fill="#000"></rect><text x="11" y="437.5000000000002" dy="0.35em" text-anchor="start">Code Signing</text></g><g><rect x="0" y="452.14285714285734" height="9.285714285714278" width="5" fill="#000"></rect><text x="11" y="456.78571428571445" dy="0.35em" text-anchor="start">Encrypt Sensitive Information</text></g><g><rect x="0" y="413.5714285714288" height="9.285714285714292" width="5" fill="#000"></rect><text x="11" y="418.21428571428595" dy="0.35em" text-anchor="start">Execution Prevention</text></g><g><rect x="0" y="-8.526512829121202e-14" height="148.5714285714286" width="5" fill="#000"></rect><text x="11" y="74.28571428571422" dy="0.35em" text-anchor="start">Network Intrusion Prevention</text></g><g><rect x="0" y="309.2857142857145" height="27.85714285714289" width="5" fill="#000"></rect><text x="11" y="323.21428571428595" dy="0.35em" text-anchor="start">Operating System Configuration</text></g><g><rect x="0" y="271.42857142857156" height="27.857142857142946" width="5" fill="#000"></rect><text x="11" y="285.357142857143" dy="0.35em" text-anchor="start">Privileged Account Management</text></g><g><rect x="0" y="471.4285714285716" height="9.285714285714278" width="5" fill="#000"></rect><text x="11" y="476.0714285714288" dy="0.35em" text-anchor="start">Remote Data Storage</text></g><g><rect x="0" y="385.0000000000002" height="18.571428571428584" width="5" fill="#000"></rect><text x="11" y="394.2857142857145" dy="0.35em" text-anchor="start">Restrict File and Directory Permissions</text></g><g><rect x="0" y="158.57142857142853" height="55.71428571428578" width="5" fill="#000"></rect><text x="11" y="186.42857142857142" dy="0.35em" text-anchor="start">Restrict Web-Based Content</text></g><g><rect x="0" y="490.7142857142859" height="9.28571428571422" width="5" fill="#000"></rect><text x="11" y="495.357142857143" dy="0.35em" text-anchor="start">Update Software</text></g><g><rect x="0" y="347.1428571428574" height="27.857142857142833" width="5" fill="#000"></rect><text x="11" y="361.0714285714288" dy="0.35em" text-anchor="start">User Account Management</text></g><g><rect x="421" y="404.2857142857142" height="18.571428571428584" width="5" fill="#000"></rect><text x="415" y="413.5714285714285" dy="0.35em" text-anchor="end">automated collection</text></g><g><rect x="421" y="375.71428571428555" height="18.57142857142867" width="5" fill="#000"></rect><text x="415" y="384.9999999999999" dy="0.35em" text-anchor="end">custom cryptographic protocol</text></g><g><rect x="421" y="461.42857142857133" height="9.285714285714334" width="5" fill="#000"></rect><text x="415" y="466.0714285714285" dy="0.35em" text-anchor="end">data encoding</text></g><g><rect x="421" y="480.71428571428567" height="9.28571428571422" width="5" fill="#000"></rect><text x="415" y="485.3571428571428" dy="0.35em" text-anchor="end">data obfuscation</text></g><g><rect x="421" y="299.9999999999999" height="27.857142857142833" width="5" fill="#000"></rect><text x="415" y="313.92857142857133" dy="0.35em" text-anchor="end">dll side-loading</text></g><g><rect x="421" y="337.8571428571427" height="27.85714285714283" width="5" fill="#000"></rect><text x="415" y="351.7857142857141" dy="0.35em" text-anchor="end">masquerading</text></g><g><rect x="421" y="252.85714285714255" height="37.14285714285734" width="5" fill="#000"></rect><text x="415" y="271.4285714285712" dy="0.35em" text-anchor="end">remote file copy</text></g><g><rect x="421" y="10.000000000000114" height="111.42857142857133" width="5" fill="#000"></rect><text x="415" y="65.71428571428578" dy="0.35em" text-anchor="end">scheduled task</text></g><g><rect x="421" y="432.8571428571428" height="18.571428571428555" width="5" fill="#000"></rect><text x="415" y="442.14285714285705" dy="0.35em" text-anchor="end">standard application layer protocol</text></g><g><rect x="421" y="131.42857142857144" height="111.4285714285711" width="5" fill="#000"></rect><text x="415" y="187.142857142857" dy="0.35em" text-anchor="end">web service</text></g></g></g></svg>