<svg width="847" height="520" xmlns="http://www.w3.org/2000/svg" version="1.1"><g transform="translate(0, 10)"><g class="links" fill="none" stroke-opacity="0.4"><path d="M5,365.0000000000001C213,365.0000000000001,213,440.0000000000001,421,440.0000000000001" stroke-width="120" style="stroke: rgb(191, 105, 105);"></path><path d="M5,275.0000000000001C213,275.0000000000001,213,279.9999999999999,421,279.9999999999999" stroke-width="60" style="stroke: rgb(191, 105, 105);"></path><path d="M5,125.00000000000014C213,125.00000000000014,213,119.99999999999991,421,119.99999999999991" stroke-width="240" style="stroke: rgb(191, 105, 105);"></path><path d="M5,465.0000000000002C213,465.0000000000002,213,339.9999999999999,421,339.9999999999999" stroke-width="60" style="stroke: rgb(174, 191, 105);"></path><path d="M426,470.0000000000001C634,470.0000000000001,634,470,842,470" stroke-width="60" style="stroke: rgb(105, 191, 139);"></path><path d="M426,410.0000000000001C634,410.0000000000001,634,270,842,270" stroke-width="60" style="stroke: rgb(105, 191, 139);"></path><path d="M426,309.9999999999999C634,309.9999999999999,634,180,842,180" stroke-width="120" style="stroke: rgb(105, 139, 191);"></path><path d="M426,59.999999999999915C634,59.999999999999915,634,60,842,60" stroke-width="120" style="stroke: rgb(174, 105, 191);"></path><path d="M426,179.99999999999991C634,179.99999999999991,634,370,842,370" stroke-width="120" style="stroke: rgb(174, 105, 191);"></path></g><g class="nodes" font-family="Arial, Helvetica" font-size="10"><g><rect x="842" y="440" height="60" width="5" fill="#000"></rect><text x="836" y="470" dy="0.35em" text-anchor="end">malware reverse engineering</text></g><g><rect x="842" y="0" height="300" width="5" fill="#000"></rect><text x="836" y="150" dy="0.35em" text-anchor="end">netflow/enclave netflow</text></g><g><rect x="842" y="310" height="120" width="5" fill="#000"></rect><text x="836" y="370" dy="0.35em" text-anchor="end">network protocol analysis</text></g><g><rect x="0" y="5.000000000000142" height="420.00000000000006" width="5" fill="#000"></rect><text x="11" y="215.00000000000017" dy="0.35em" text-anchor="start">Network Intrusion Prevention</text></g><g><rect x="0" y="435.0000000000002" height="59.99999999999966" width="5" fill="#000"></rect><text x="11" y="465.00000000000006" dy="0.35em" text-anchor="start">Network Segmentation</text></g><g><rect x="421" y="249.99999999999986" height="120.00000000000023" width="5" fill="#000"></rect><text x="415" y="310" dy="0.35em" text-anchor="end">commonly used port</text></g><g><rect x="421" y="-8.526512829121202e-14" height="239.99999999999994" width="5" fill="#000"></rect><text x="415" y="119.99999999999989" dy="0.35em" text-anchor="end">remote file copy</text></g><g><rect x="421" y="380.0000000000001" height="120" width="5" fill="#000"></rect><text x="415" y="440.0000000000001" dy="0.35em" text-anchor="end">standard application layer protocol</text></g></g></g></svg>