<svg width="847" height="520" xmlns="http://www.w3.org/2000/svg" version="1.1"><g transform="translate(0, 10)"><g class="links" fill="none" stroke-opacity="0.4"><path d="M5,381.0000000000001C213,381.0000000000001,213,157.00000000000006,421,157.00000000000006" stroke-width="42" style="stroke: rgb(191, 105, 105);"></path><path d="M5,235.50000000000009C213,235.50000000000009,213,271.5,421,271.5" stroke-width="21" style="stroke: rgb(191, 135, 105);"></path><path d="M5,214.50000000000009C213,214.50000000000009,213,198.5000000000001,421,198.5000000000001" stroke-width="21" style="stroke: rgb(191, 135, 105);"></path><path d="M5,277.0000000000001C213,277.0000000000001,213,115.00000000000004,421,115.00000000000004" stroke-width="42" style="stroke: rgb(191, 166, 105);"></path><path d="M5,110.00000000000003C213,110.00000000000003,213,334,421,334" stroke-width="42" style="stroke: rgb(186, 191, 105);"></path><path d="M5,47.00000000000003C213,47.00000000000003,213,41.99999999999994,421,41.99999999999994" stroke-width="84" style="stroke: rgb(186, 191, 105);"></path><path d="M5,141.50000000000003C213,141.50000000000003,213,375.5,421,375.5" stroke-width="21" style="stroke: rgb(186, 191, 105);"></path><path d="M5,162.50000000000003C213,162.50000000000003,213,427.5,421,427.5" stroke-width="21" style="stroke: rgb(186, 191, 105);"></path><path d="M5,183.50000000000003C213,183.50000000000003,213,458.5,421,458.5" stroke-width="21" style="stroke: rgb(186, 191, 105);"></path><path d="M5,453.5C213,453.5,213,396.5,421,396.5" stroke-width="21" style="stroke: rgb(155, 191, 105);"></path><path d="M5,339.5000000000001C213,339.5000000000001,213,292.5,421,292.5" stroke-width="21" style="stroke: rgb(125, 191, 105);"></path><path d="M5,318.5000000000001C213,318.5000000000001,213,219.5000000000001,421,219.5000000000001" stroke-width="21" style="stroke: rgb(125, 191, 105);"></path><path d="M5,422.4999999999999C213,422.4999999999999,213,240.5000000000001,421,240.5000000000001" stroke-width="21" style="stroke: rgb(105, 191, 115);"></path><path d="M5,484.5C213,484.5,213,489.5,421,489.5" stroke-width="21" style="stroke: rgb(105, 191, 145);"></path><path d="M426,115.00000000000004C634,115.00000000000004,634,333.9999999999998,842,333.9999999999998" stroke-width="42" style="stroke: rgb(105, 191, 176);"></path><path d="M426,157.00000000000006C634,157.00000000000006,634,437.9999999999998,842,437.9999999999998" stroke-width="42" style="stroke: rgb(105, 191, 176);"></path><path d="M426,282C634,282,634,385.9999999999998,842,385.9999999999998" stroke-width="42" style="stroke: rgb(105, 176, 191);"></path><path d="M426,219.5000000000001C634,219.5000000000001,634,250.50000000000014,842,250.50000000000014" stroke-width="63" style="stroke: rgb(105, 145, 191);"></path><path d="M426,344.5C634,344.5,634,479.4999999999998,842,479.4999999999998" stroke-width="21" style="stroke: rgb(105, 115, 191);"></path><path d="M426,323.5C634,323.5,634,62.50000000000023,842,62.50000000000023" stroke-width="21" style="stroke: rgb(105, 115, 191);"></path><path d="M426,20.999999999999943C634,20.999999999999943,634,31.000000000000227,842,31.000000000000227" stroke-width="42" style="stroke: rgb(125, 105, 191);"></path><path d="M426,62.99999999999994C634,62.99999999999994,634,146.0000000000002,842,146.0000000000002" stroke-width="42" style="stroke: rgb(125, 105, 191);"></path><path d="M426,386C634,386,634,94.00000000000023,842,94.00000000000023" stroke-width="42" style="stroke: rgb(155, 105, 191);"></path><path d="M426,427.5C634,427.5,634,177.5000000000002,842,177.5000000000002" stroke-width="21" style="stroke: rgb(186, 105, 191);"></path><path d="M426,458.5C634,458.5,634,198.5000000000002,842,198.5000000000002" stroke-width="21" style="stroke: rgb(191, 105, 166);"></path><path d="M426,489.5C634,489.5,634,292.5000000000001,842,292.5000000000001" stroke-width="21" style="stroke: rgb(191, 105, 135);"></path></g><g class="nodes" font-family="Arial, Helvetica" font-size="10"><g><rect x="842" y="312.9999999999998" height="42" width="5" fill="#000"></rect><text x="836" y="333.9999999999998" dy="0.35em" text-anchor="end">anti-virus</text></g><g><rect x="842" y="364.9999999999998" height="42" width="5" fill="#000"></rect><text x="836" y="385.9999999999998" dy="0.35em" text-anchor="end">data loss prevention</text></g><g><rect x="842" y="468.9999999999998" height="20.99999999999997" width="5" fill="#000"></rect><text x="836" y="479.4999999999998" dy="0.35em" text-anchor="end">malware reverse engineering</text></g><g><rect x="842" y="10.000000000000227" height="104.99999999999997" width="5" fill="#000"></rect><text x="836" y="62.50000000000021" dy="0.35em" text-anchor="end">netflow/enclave netflow</text></g><g><rect x="842" y="125.0000000000002" height="83.99999999999994" width="5" fill="#000"></rect><text x="836" y="167.00000000000017" dy="0.35em" text-anchor="end">network protocol analysis</text></g><g><rect x="842" y="416.9999999999998" height="42" width="5" fill="#000"></rect><text x="836" y="437.9999999999998" dy="0.35em" text-anchor="end">system calls</text></g><g><rect x="842" y="219.00000000000014" height="83.99999999999966" width="5" fill="#000"></rect><text x="836" y="261" dy="0.35em" text-anchor="end">windows event logs</text></g><g><rect x="0" y="360.0000000000001" height="41.99999999999977" width="5" fill="#000"></rect><text x="11" y="381" dy="0.35em" text-anchor="start">Application Isolation and Sandboxing</text></g><g><rect x="0" y="204.00000000000009" height="42" width="5" fill="#000"></rect><text x="11" y="225.00000000000009" dy="0.35em" text-anchor="start">Encrypt Sensitive Information</text></g><g><rect x="0" y="256.0000000000001" height="42" width="5" fill="#000"></rect><text x="11" y="277.0000000000001" dy="0.35em" text-anchor="start">Exploit Protection</text></g><g><rect x="0" y="5.000000000000028" height="189.00000000000006" width="5" fill="#000"></rect><text x="11" y="99.50000000000006" dy="0.35em" text-anchor="start">Network Intrusion Prevention</text></g><g><rect x="0" y="443" height="21" width="5" fill="#000"></rect><text x="11" y="453.5" dy="0.35em" text-anchor="start">Network Segmentation</text></g><g><rect x="0" y="308.0000000000001" height="42" width="5" fill="#000"></rect><text x="11" y="329.0000000000001" dy="0.35em" text-anchor="start">Remote Data Storage</text></g><g><rect x="0" y="411.9999999999999" height="21.000000000000114" width="5" fill="#000"></rect><text x="11" y="422.49999999999994" dy="0.35em" text-anchor="start">Restrict File and Directory Permissions</text></g><g><rect x="0" y="474" height="21" width="5" fill="#000"></rect><text x="11" y="484.5" dy="0.35em" text-anchor="start">Restrict Registry Permissions</text></g><g><rect x="421" y="261" height="42" width="5" fill="#000"></rect><text x="415" y="282" dy="0.35em" text-anchor="end">automated collection</text></g><g><rect x="421" y="417" height="21.00000000000003" width="5" fill="#000"></rect><text x="415" y="427.5" dy="0.35em" text-anchor="end">data encoding</text></g><g><rect x="421" y="448" height="21" width="5" fill="#000"></rect><text x="415" y="458.5" dy="0.35em" text-anchor="end">data obfuscation</text></g><g><rect x="421" y="94.00000000000004" height="84.00000000000006" width="5" fill="#000"></rect><text x="415" y="136.00000000000006" dy="0.35em" text-anchor="end">exploitation for client execution</text></g><g><rect x="421" y="188.0000000000001" height="62.999999999999886" width="5" fill="#000"></rect><text x="415" y="219.50000000000006" dy="0.35em" text-anchor="end">indicator removal on host</text></g><g><rect x="421" y="479" height="21" width="5" fill="#000"></rect><text x="415" y="489.5" dy="0.35em" text-anchor="end">modify registry</text></g><g><rect x="421" y="-5.684341886080802e-14" height="84.0000000000001" width="5" fill="#000"></rect><text x="415" y="41.99999999999999" dy="0.35em" text-anchor="end">remote file copy</text></g><g><rect x="421" y="313" height="42" width="5" fill="#000"></rect><text x="415" y="334" dy="0.35em" text-anchor="end">standard application layer protocol</text></g><g><rect x="421" y="365" height="42" width="5" fill="#000"></rect><text x="415" y="386" dy="0.35em" text-anchor="end">uncommonly used port</text></g></g></g></svg>