<svg width="847" height="520" xmlns="http://www.w3.org/2000/svg" version="1.1"><g transform="translate(0, 10)"><g class="links" fill="none" stroke-opacity="0.4"><path d="M5,365.0000000000002C213,365.0000000000002,213,23.000000000000114,421,23.000000000000114" stroke-width="46" style="stroke: rgb(191, 105, 105);"></path><path d="M5,253C213,253,213,476.99999999999983,421,476.99999999999983" stroke-width="46" style="stroke: rgb(191, 156, 105);"></path><path d="M5,138C213,138,213,296.0000000000001,421,296.0000000000001" stroke-width="92" style="stroke: rgb(191, 156, 105);"></path><path d="M5,46C213,46,213,194.00000000000009,421,194.00000000000009" stroke-width="92" style="stroke: rgb(191, 156, 105);"></path><path d="M5,207C213,207,213,375,421,375" stroke-width="46" style="stroke: rgb(191, 156, 105);"></path><path d="M5,309.0000000000001C213,309.0000000000001,213,421,421,421" stroke-width="46" style="stroke: rgb(174, 191, 105);"></path><path d="M5,421.00000000000017C213,421.00000000000017,213,69.00000000000011,421,69.00000000000011" stroke-width="46" style="stroke: rgb(122, 191, 105);"></path><path d="M5,477.0000000000001C213,477.0000000000001,213,115.00000000000011,421,115.00000000000011" stroke-width="46" style="stroke: rgb(105, 191, 139);"></path><path d="M426,69.00000000000011C634,69.00000000000011,634,267.99999999999994,842,267.99999999999994" stroke-width="138" style="stroke: rgb(105, 191, 191);"></path><path d="M426,476.99999999999983C634,476.99999999999983,634,472.00000000000034,842,472.00000000000034" stroke-width="46" style="stroke: rgb(105, 139, 191);"></path><path d="M426,319.0000000000001C634,319.0000000000001,634,415.9999999999999,842,415.9999999999999" stroke-width="46" style="stroke: rgb(122, 105, 191);"></path><path d="M426,273.0000000000001C634,273.0000000000001,634,73.99999999999972,842,73.99999999999972" stroke-width="46" style="stroke: rgb(122, 105, 191);"></path><path d="M426,217.00000000000009C634,217.00000000000009,634,369.9999999999999,842,369.9999999999999" stroke-width="46" style="stroke: rgb(174, 105, 191);"></path><path d="M426,171.00000000000009C634,171.00000000000009,634,27.999999999999716,842,27.999999999999716" stroke-width="46" style="stroke: rgb(174, 105, 191);"></path><path d="M426,398C634,398,634,142.99999999999972,842,142.99999999999972" stroke-width="92" style="stroke: rgb(191, 105, 156);"></path></g><g class="nodes" font-family="Arial, Helvetica" font-size="10"><g><rect x="842" y="449.00000000000034" height="46" width="5" fill="#000"></rect><text x="836" y="472.00000000000034" dy="0.35em" text-anchor="end">binary file metadata</text></g><g><rect x="842" y="198.99999999999994" height="137.99999999999991" width="5" fill="#000"></rect><text x="836" y="267.9999999999999" dy="0.35em" text-anchor="end">loaded dlls</text></g><g><rect x="842" y="346.9999999999999" height="92.00000000000045" width="5" fill="#000"></rect><text x="836" y="393.0000000000001" dy="0.35em" text-anchor="end">malware reverse engineering</text></g><g><rect x="842" y="4.999999999999716" height="184.00000000000023" width="5" fill="#000"></rect><text x="836" y="96.99999999999983" dy="0.35em" text-anchor="end">netflow/enclave netflow</text></g><g><rect x="0" y="342.0000000000002" height="45.999999999999964" width="5" fill="#000"></rect><text x="11" y="365.0000000000002" dy="0.35em" text-anchor="start">Audit</text></g><g><rect x="0" y="0" height="276.0000000000001" width="5" fill="#000"></rect><text x="11" y="138.00000000000006" dy="0.35em" text-anchor="start">Network Intrusion Prevention</text></g><g><rect x="0" y="286.0000000000001" height="46.000000000000114" width="5" fill="#000"></rect><text x="11" y="309.00000000000017" dy="0.35em" text-anchor="start">Network Segmentation</text></g><g><rect x="0" y="398.00000000000017" height="45.99999999999992" width="5" fill="#000"></rect><text x="11" y="421.0000000000001" dy="0.35em" text-anchor="start">Restrict File and Directory Permissions</text></g><g><rect x="0" y="454.0000000000001" height="45.999999999999915" width="5" fill="#000"></rect><text x="11" y="477.00000000000006" dy="0.35em" text-anchor="start">Update Software</text></g><g><rect x="421" y="352" height="91.99999999999983" width="5" fill="#000"></rect><text x="415" y="397.9999999999999" dy="0.35em" text-anchor="end">commonly used port</text></g><g><rect x="421" y="250.00000000000009" height="91.99999999999994" width="5" fill="#000"></rect><text x="415" y="296.00000000000006" dy="0.35em" text-anchor="end">custom cryptographic protocol</text></g><g><rect x="421" y="453.99999999999983" height="46" width="5" fill="#000"></rect><text x="415" y="476.99999999999983" dy="0.35em" text-anchor="end">data compressed</text></g><g><rect x="421" y="1.1368683772161603e-13" height="137.99999999999997" width="5" fill="#000"></rect><text x="415" y="69.0000000000001" dy="0.35em" text-anchor="end">dll side-loading</text></g><g><rect x="421" y="148.00000000000009" height="92" width="5" fill="#000"></rect><text x="415" y="194.00000000000009" dy="0.35em" text-anchor="end">standard application layer protocol</text></g></g></g></svg>