<svg width="847" height="520" xmlns="http://www.w3.org/2000/svg" version="1.1"><g transform="translate(0, 10)"><g class="links" fill="none" stroke-opacity="0.4"><path d="M5,462.14285714285734C213,462.14285714285734,213,169.28571428571396,421,169.28571428571396" stroke-width="65.71428571428572" style="stroke: rgb(191, 105, 105);"></path><path d="M5,245.95238095238085C213,245.95238095238085,213,473.0952380952384,421,473.0952380952384" stroke-width="43.80952380952381" style="stroke: rgb(191, 169, 105);"></path><path d="M5,103.57142857142847C213,103.57142857142847,213,244.99999999999986,421,244.99999999999986" stroke-width="65.71428571428572" style="stroke: rgb(191, 169, 105);"></path><path d="M5,37.85714285714275C213,37.85714285714275,213,37.85714285714252,421,37.85714285714252" stroke-width="65.71428571428572" style="stroke: rgb(191, 169, 105);"></path><path d="M5,180.23809523809513C213,180.23809523809513,213,397.38095238095264,421,397.38095238095264" stroke-width="87.61904761904762" style="stroke: rgb(191, 169, 105);"></path><path d="M5,310.71428571428555C213,310.71428571428555,213,103.57142857142824,421,103.57142857142824" stroke-width="65.71428571428572" style="stroke: rgb(148, 191, 105);"></path><path d="M5,386.42857142857144C213,386.42857142857144,213,310.71428571428555,421,310.71428571428555" stroke-width="65.71428571428572" style="stroke: rgb(105, 191, 126);"></path><path d="M426,37.85714285714252C634,37.85714285714252,634,32.857142857143,842,32.857142857143" stroke-width="65.71428571428572" style="stroke: rgb(105, 191, 191);"></path><path d="M426,169.28571428571396C634,169.28571428571396,634,337.6190476190477,842,337.6190476190477" stroke-width="65.71428571428572" style="stroke: rgb(105, 191, 191);"></path><path d="M426,103.57142857142824C634,103.57142857142824,634,218.09523809523813,842,218.09523809523813" stroke-width="65.71428571428572" style="stroke: rgb(105, 191, 191);"></path><path d="M426,484.0476190476194C634,484.0476190476194,634,435.23809523809535,842,435.23809523809535" stroke-width="21.904761904761905" style="stroke: rgb(105, 126, 191);"></path><path d="M426,462.14285714285745C634,462.14285714285745,634,164.28571428571445,842,164.28571428571445" stroke-width="21.904761904761905" style="stroke: rgb(105, 126, 191);"></path><path d="M426,277.8571428571427C634,277.8571428571427,634,402.3809523809525,842,402.3809523809525" stroke-width="43.80952380952381" style="stroke: rgb(148, 105, 191);"></path><path d="M426,234.0476190476189C634,234.0476190476189,634,87.61904761904776,842,87.61904761904776" stroke-width="43.80952380952381" style="stroke: rgb(148, 105, 191);"></path><path d="M426,321.6666666666665C634,321.6666666666665,634,478.09523809523824,842,478.09523809523824" stroke-width="43.80952380952381" style="stroke: rgb(148, 105, 191);"></path><path d="M426,375.47619047619077C634,375.47619047619077,634,131.4285714285716,842,131.4285714285716" stroke-width="43.80952380952381" style="stroke: rgb(191, 105, 169);"></path><path d="M426,419.28571428571456C634,419.28571428571456,634,272.8571428571429,842,272.8571428571429" stroke-width="43.80952380952381" style="stroke: rgb(191, 105, 169);"></path></g><g class="nodes" font-family="Arial, Helvetica" font-size="10"><g><rect x="842" y="380.4761904761906" height="65.71428571428572" width="5" fill="#000"></rect><text x="836" y="413.3333333333335" dy="0.35em" text-anchor="end">malware reverse engineering</text></g><g><rect x="842" y="1.4210854715202004e-13" height="175.23809523809513" width="5" fill="#000"></rect><text x="836" y="87.6190476190477" dy="0.35em" text-anchor="end">netflow/enclave netflow</text></g><g><rect x="842" y="304.7619047619048" height="65.71428571428578" width="5" fill="#000"></rect><text x="836" y="337.6190476190477" dy="0.35em" text-anchor="end">network intrusion detection system</text></g><g><rect x="842" y="185.23809523809527" height="109.52380952380958" width="5" fill="#000"></rect><text x="836" y="240.00000000000006" dy="0.35em" text-anchor="end">network protocol analysis</text></g><g><rect x="842" y="456.1904761904763" height="43.80952380952351" width="5" fill="#000"></rect><text x="836" y="478.0952380952381" dy="0.35em" text-anchor="end">ssl/tls inspection</text></g><g><rect x="0" y="429.28571428571445" height="65.71428571428567" width="5" fill="#000"></rect><text x="11" y="462.1428571428573" dy="0.35em" text-anchor="start">Filter Network Traffic</text></g><g><rect x="0" y="4.999999999999886" height="262.85714285714283" width="5" fill="#000"></rect><text x="11" y="136.4285714285713" dy="0.35em" text-anchor="start">Network Intrusion Prevention</text></g><g><rect x="0" y="277.8571428571427" height="65.7142857142859" width="5" fill="#000"></rect><text x="11" y="310.71428571428567" dy="0.35em" text-anchor="start">Network Segmentation</text></g><g><rect x="0" y="353.5714285714286" height="65.71428571428584" width="5" fill="#000"></rect><text x="11" y="386.42857142857156" dy="0.35em" text-anchor="start">SSL/TLS Inspection</text></g><g><rect x="421" y="4.999999999999659" height="197.14285714285734" width="5" fill="#000"></rect><text x="415" y="103.57142857142833" dy="0.35em" text-anchor="end">custom command and control protocol</text></g><g><rect x="421" y="451.1904761904765" height="43.809523809523824" width="5" fill="#000"></rect><text x="415" y="473.0952380952384" dy="0.35em" text-anchor="end">fallback channels</text></g><g><rect x="421" y="353.57142857142884" height="87.61904761904765" width="5" fill="#000"></rect><text x="415" y="397.38095238095264" dy="0.35em" text-anchor="end">remote file copy</text></g><g><rect x="421" y="212.142857142857" height="131.42857142857184" width="5" fill="#000"></rect><text x="415" y="277.8571428571429" dy="0.35em" text-anchor="end">standard cryptographic protocol</text></g></g></g></svg>