<svg width="847" height="520" xmlns="http://www.w3.org/2000/svg" version="1.1"><g transform="translate(0, 10)"><g class="links" fill="none" stroke-opacity="0.4"><path d="M5,295C213,295,213,175.00000000000006,421,175.00000000000006" stroke-width="110" style="stroke: rgb(191, 105, 105);"></path><path d="M5,443.3333333333333C213,443.3333333333333,213,388.33333333333337,421,388.33333333333337" stroke-width="36.666666666666664" style="stroke: rgb(191, 148, 105);"></path><path d="M5,175.00000000000006C213,175.00000000000006,213,435.00000000000006,421,435.00000000000006" stroke-width="36.666666666666664" style="stroke: rgb(191, 191, 105);"></path><path d="M5,211.6666666666667C213,211.6666666666667,213,481.6666666666667,421,481.6666666666667" stroke-width="36.666666666666664" style="stroke: rgb(191, 191, 105);"></path><path d="M5,37.50000000000003C213,37.50000000000003,213,27.5,421,27.5" stroke-width="55" style="stroke: rgb(191, 191, 105);"></path><path d="M5,147.50000000000003C213,147.50000000000003,213,332.50000000000006,421,332.50000000000006" stroke-width="18.333333333333332" style="stroke: rgb(191, 191, 105);"></path><path d="M5,101.66666666666669C213,101.66666666666669,213,276.66666666666663,421,276.66666666666663" stroke-width="73.33333333333333" style="stroke: rgb(191, 191, 105);"></path><path d="M5,480.83333333333337C213,480.83333333333337,213,350.83333333333337,421,350.83333333333337" stroke-width="18.333333333333332" style="stroke: rgb(148, 191, 105);"></path><path d="M5,387.4999999999999C213,387.4999999999999,213,82.5,421,82.5" stroke-width="55" style="stroke: rgb(105, 191, 105);"></path><path d="M426,184.16666666666674C634,184.16666666666674,634,397.5000000000003,842,397.5000000000003" stroke-width="18.333333333333332" style="stroke: rgb(105, 191, 148);"></path><path d="M426,129.1666666666667C634,129.1666666666667,634,202.49999999999997,842,202.49999999999997" stroke-width="18.333333333333332" style="stroke: rgb(105, 191, 148);"></path><path d="M426,202.50000000000009C634,202.50000000000009,634,462.5000000000003,842,462.5000000000003" stroke-width="18.333333333333332" style="stroke: rgb(105, 191, 148);"></path><path d="M426,147.50000000000006C634,147.50000000000006,634,267.49999999999994,842,267.49999999999994" stroke-width="18.333333333333332" style="stroke: rgb(105, 191, 148);"></path><path d="M426,165.8333333333334C634,165.8333333333334,634,369.16666666666686,842,369.16666666666686" stroke-width="18.333333333333332" style="stroke: rgb(105, 191, 148);"></path><path d="M426,220.83333333333343C634,220.83333333333343,634,490.83333333333354,842,490.83333333333354" stroke-width="18.333333333333332" style="stroke: rgb(105, 191, 148);"></path><path d="M426,388.33333333333337C634,388.33333333333337,634,425.0000000000002,842,425.0000000000002" stroke-width="36.666666666666664" style="stroke: rgb(105, 191, 191);"></path><path d="M426,444.16666666666674C634,444.16666666666674,634,220.83333333333331,842,220.83333333333331" stroke-width="18.333333333333332" style="stroke: rgb(105, 148, 191);"></path><path d="M426,425.8333333333334C634,425.8333333333334,634,119.16666666666659,842,119.16666666666659" stroke-width="18.333333333333332" style="stroke: rgb(105, 148, 191);"></path><path d="M426,490.83333333333337C634,490.83333333333337,634,239.16666666666666,842,239.16666666666666" stroke-width="18.333333333333332" style="stroke: rgb(105, 105, 191);"></path><path d="M426,472.50000000000006C634,472.50000000000006,634,137.49999999999991,842,137.49999999999991" stroke-width="18.333333333333332" style="stroke: rgb(105, 105, 191);"></path><path d="M426,55C634,55,634,175,842,175" stroke-width="36.666666666666664" style="stroke: rgb(148, 105, 191);"></path><path d="M426,18.333333333333332C634,18.333333333333332,634,18.333333333333247,842,18.333333333333247" stroke-width="36.666666666666664" style="stroke: rgb(148, 105, 191);"></path><path d="M426,91.66666666666666C634,91.66666666666666,634,341.6666666666668,842,341.6666666666668" stroke-width="36.666666666666664" style="stroke: rgb(148, 105, 191);"></path><path d="M426,341.6666666666667C634,341.6666666666667,634,91.66666666666657,842,91.66666666666657" stroke-width="36.666666666666664" style="stroke: rgb(191, 105, 191);"></path><path d="M426,258.33333333333326C634,258.33333333333326,634,54.999999999999915,842,54.999999999999915" stroke-width="36.666666666666664" style="stroke: rgb(191, 105, 148);"></path><path d="M426,294.99999999999994C634,294.99999999999994,634,294.9999999999999,842,294.9999999999999" stroke-width="36.666666666666664" style="stroke: rgb(191, 105, 148);"></path></g><g class="nodes" font-family="Arial, Helvetica" font-size="10"><g><rect x="842" y="388.3333333333336" height="54.999999999999986" width="5" fill="#000"></rect><text x="836" y="415.8333333333336" dy="0.35em" text-anchor="end">binary file metadata</text></g><g><rect x="842" y="156.66666666666666" height="91.66666666666657" width="5" fill="#000"></rect><text x="836" y="202.49999999999994" dy="0.35em" text-anchor="end">malware reverse engineering</text></g><g><rect x="842" y="-8.526512829121202e-14" height="146.66666666666674" width="5" fill="#000"></rect><text x="836" y="73.33333333333329" dy="0.35em" text-anchor="end">netflow/enclave netflow</text></g><g><rect x="842" y="453.3333333333336" height="18.333333333333258" width="5" fill="#000"></rect><text x="836" y="462.5000000000002" dy="0.35em" text-anchor="end">network intrusion detection system</text></g><g><rect x="842" y="258.33333333333326" height="55.00000000000023" width="5" fill="#000"></rect><text x="836" y="285.83333333333337" dy="0.35em" text-anchor="end">network protocol analysis</text></g><g><rect x="842" y="323.3333333333335" height="55.000000000000114" width="5" fill="#000"></rect><text x="836" y="350.83333333333354" dy="0.35em" text-anchor="end">ssl/tls inspection</text></g><g><rect x="842" y="481.66666666666686" height="18.333333333333258" width="5" fill="#000"></rect><text x="836" y="490.8333333333335" dy="0.35em" text-anchor="end">windows event logs</text></g><g><rect x="0" y="240" height="109.99999999999989" width="5" fill="#000"></rect><text x="11" y="294.99999999999994" dy="0.35em" text-anchor="start">Antivirus/Antimalware</text></g><g><rect x="0" y="425" height="36.66666666666667" width="5" fill="#000"></rect><text x="11" y="443.3333333333333" dy="0.35em" text-anchor="start">Exploit Protection</text></g><g><rect x="0" y="10.000000000000028" height="219.99999999999997" width="5" fill="#000"></rect><text x="11" y="120.00000000000001" dy="0.35em" text-anchor="start">Network Intrusion Prevention</text></g><g><rect x="0" y="471.6666666666667" height="18.333333333333314" width="5" fill="#000"></rect><text x="11" y="480.83333333333337" dy="0.35em" text-anchor="start">Network Segmentation</text></g><g><rect x="0" y="359.9999999999999" height="55.000000000000114" width="5" fill="#000"></rect><text x="11" y="387.49999999999994" dy="0.35em" text-anchor="start">SSL/TLS Inspection</text></g><g><rect x="421" y="323.33333333333337" height="36.666666666666686" width="5" fill="#000"></rect><text x="415" y="341.66666666666674" dy="0.35em" text-anchor="end">commonly used port</text></g><g><rect x="421" y="416.66666666666674" height="36.66666666666663" width="5" fill="#000"></rect><text x="415" y="435.00000000000006" dy="0.35em" text-anchor="end">custom cryptographic protocol</text></g><g><rect x="421" y="120.00000000000006" height="109.99999999999989" width="5" fill="#000"></rect><text x="415" y="175" dy="0.35em" text-anchor="end">obfuscated files or information</text></g><g><rect x="421" y="239.99999999999994" height="73.33333333333343" width="5" fill="#000"></rect><text x="415" y="276.66666666666663" dy="0.35em" text-anchor="end">remote file copy</text></g><g><rect x="421" y="370.00000000000006" height="36.66666666666667" width="5" fill="#000"></rect><text x="415" y="388.33333333333337" dy="0.35em" text-anchor="end">rundll32</text></g><g><rect x="421" y="463.33333333333337" height="36.66666666666663" width="5" fill="#000"></rect><text x="415" y="481.6666666666667" dy="0.35em" text-anchor="end">standard application layer protocol</text></g><g><rect x="421" y="0" height="110.00000000000006" width="5" fill="#000"></rect><text x="415" y="55.00000000000003" dy="0.35em" text-anchor="end">standard cryptographic protocol</text></g></g></g></svg>