<svg width="847" height="520" xmlns="http://www.w3.org/2000/svg" version="1.1"><g transform="translate(0, 10)"><g class="links" fill="none" stroke-opacity="0.4"><path d="M5,371.1111111111113C213,371.1111111111113,213,89.07407407407445,421,89.07407407407445" stroke-width="29.62962962962963" style="stroke: rgb(191, 105, 105);"></path><path d="M5,291.851851851852C213,291.851851851852,213,257.2222222222222,421,257.2222222222222" stroke-width="29.62962962962963" style="stroke: rgb(191, 132, 105);"></path><path d="M5,410.7407407407409C213,410.7407407407409,213,187.96296296296322,421,187.96296296296322" stroke-width="29.62962962962963" style="stroke: rgb(191, 159, 105);"></path><path d="M5,442.96296296296293C213,442.96296296296293,213,289.44444444444434,421,289.44444444444434" stroke-width="14.814814814814815" style="stroke: rgb(191, 186, 105);"></path><path d="M5,44.44444444444461C213,44.44444444444461,213,390.92592592592564,421,390.92592592592564" stroke-width="29.62962962962963" style="stroke: rgb(168, 191, 105);"></path><path d="M5,74.07407407407425C213,74.07407407407425,213,430.55555555555526,421,430.55555555555526" stroke-width="29.62962962962963" style="stroke: rgb(168, 191, 105);"></path><path d="M5,14.814814814814985C213,14.814814814814985,213,128.70370370370398,421,128.70370370370398" stroke-width="29.62962962962963" style="stroke: rgb(168, 191, 105);"></path><path d="M5,252.22222222222226C213,252.22222222222226,213,158.3333333333336,421,158.3333333333336" stroke-width="29.62962962962963" style="stroke: rgb(141, 191, 105);"></path><path d="M5,143.3333333333334C213,143.3333333333334,213,227.59259259259252,421,227.59259259259252" stroke-width="29.62962962962963" style="stroke: rgb(114, 191, 105);"></path><path d="M5,165.55555555555563C213,165.55555555555563,213,462.77777777777743,421,462.77777777777743" stroke-width="14.814814814814815" style="stroke: rgb(114, 191, 105);"></path><path d="M5,113.70370370370377C213,113.70370370370377,213,29.814814814815186,421,29.814814814815186" stroke-width="29.62962962962963" style="stroke: rgb(114, 191, 105);"></path><path d="M5,467.7777777777777C213,467.7777777777777,213,304.2592592592592,421,304.2592592592592" stroke-width="14.814814814814815" style="stroke: rgb(105, 191, 123);"></path><path d="M5,492.5925925925925C213,492.5925925925925,213,319.074074074074,421,319.074074074074" stroke-width="14.814814814814815" style="stroke: rgb(105, 191, 150);"></path><path d="M5,331.4814814814817C213,331.4814814814817,213,59.44444444444482,421,59.44444444444482" stroke-width="29.62962962962963" style="stroke: rgb(105, 191, 177);"></path><path d="M5,220.00000000000009C213,220.00000000000009,213,477.59259259259227,421,477.59259259259227" stroke-width="14.814814814814815" style="stroke: rgb(105, 177, 191);"></path><path d="M5,197.77777777777786C213,197.77777777777786,213,351.29629629629596,421,351.29629629629596" stroke-width="29.62962962962963" style="stroke: rgb(105, 177, 191);"></path><path d="M426,59.44444444444481C634,59.44444444444481,634,183.14814814814815,842,183.14814814814815" stroke-width="88.88888888888889" style="stroke: rgb(105, 150, 191);"></path><path d="M426,242.40740740740733C634,242.40740740740733,634,351.29629629629625,842,351.29629629629625" stroke-width="59.25925925925926" style="stroke: rgb(105, 123, 191);"></path><path d="M426,136.1111111111114C634,136.1111111111114,634,47.22222222222228,842,47.22222222222228" stroke-width="44.44444444444444" style="stroke: rgb(114, 105, 191);"></path><path d="M426,180.55555555555583C634,180.55555555555583,634,413.1481481481481,842,413.1481481481481" stroke-width="44.44444444444444" style="stroke: rgb(114, 105, 191);"></path><path d="M426,304.2592592592592C634,304.2592592592592,634,259.81481481481495,842,259.81481481481495" stroke-width="44.44444444444444" style="stroke: rgb(141, 105, 191);"></path><path d="M426,398.33333333333303C634,398.33333333333303,634,452.7777777777777,842,452.7777777777777" stroke-width="14.814814814814815" style="stroke: rgb(168, 105, 191);"></path><path d="M426,383.5185185185182C634,383.5185185185182,634,76.8518518518519,842,76.8518518518519" stroke-width="14.814814814814815" style="stroke: rgb(168, 105, 191);"></path><path d="M426,437.96296296296265C634,437.96296296296265,634,467.59259259259255,842,467.59259259259255" stroke-width="14.814814814814815" style="stroke: rgb(191, 105, 186);"></path><path d="M426,423.1481481481478C634,423.1481481481478,634,91.66666666666671,842,91.66666666666671" stroke-width="14.814814814814815" style="stroke: rgb(191, 105, 186);"></path><path d="M426,470.1851851851849C634,470.1851851851849,634,113.88888888888893,842,113.88888888888893" stroke-width="29.62962962962963" style="stroke: rgb(191, 105, 159);"></path><path d="M426,351.29629629629596C634,351.29629629629596,634,296.851851851852,842,296.851851851852" stroke-width="29.62962962962963" style="stroke: rgb(191, 105, 132);"></path></g><g class="nodes" font-family="Arial, Helvetica" font-size="10"><g><rect x="842" y="321.66666666666663" height="59.25925925925925" width="5" fill="#000"></rect><text x="836" y="351.29629629629625" dy="0.35em" text-anchor="end">dll monitoring</text></g><g><rect x="842" y="445.3703703703703" height="29.629629629629605" width="5" fill="#000"></rect><text x="836" y="460.1851851851851" dy="0.35em" text-anchor="end">malware reverse engineering</text></g><g><rect x="842" y="25.000000000000057" height="103.70370370370364" width="5" fill="#000"></rect><text x="836" y="76.85185185185188" dy="0.35em" text-anchor="end">netflow/enclave netflow</text></g><g><rect x="842" y="390.92592592592587" height="44.44444444444446" width="5" fill="#000"></rect><text x="836" y="413.1481481481481" dy="0.35em" text-anchor="end">network protocol analysis</text></g><g><rect x="842" y="138.7037037037037" height="88.88888888888903" width="5" fill="#000"></rect><text x="836" y="183.1481481481482" dy="0.35em" text-anchor="end">system calls</text></g><g><rect x="842" y="237.59259259259272" height="74.0740740740739" width="5" fill="#000"></rect><text x="836" y="274.6296296296297" dy="0.35em" text-anchor="end">windows event logs</text></g><g><rect x="0" y="356.2962962962965" height="29.629629629629562" width="5" fill="#000"></rect><text x="11" y="371.11111111111126" dy="0.35em" text-anchor="start">Audit</text></g><g><rect x="0" y="277.0370370370372" height="29.629629629629648" width="5" fill="#000"></rect><text x="11" y="291.851851851852" dy="0.35em" text-anchor="start">Behavior Prevention on Endpoint</text></g><g><rect x="0" y="395.92592592592604" height="29.629629629629505" width="5" fill="#000"></rect><text x="11" y="410.74074074074076" dy="0.35em" text-anchor="start">Disable or Remove Feature or Program</text></g><g><rect x="0" y="435.55555555555554" height="14.814814814814781" width="5" fill="#000"></rect><text x="11" y="442.96296296296293" dy="0.35em" text-anchor="start">Encrypt Sensitive Information</text></g><g><rect x="0" y="1.7053025658242404e-13" height="88.88888888888879" width="5" fill="#000"></rect><text x="11" y="44.444444444444564" dy="0.35em" text-anchor="start">Network Intrusion Prevention</text></g><g><rect x="0" y="237.40740740740745" height="29.629629629629733" width="5" fill="#000"></rect><text x="11" y="252.2222222222223" dy="0.35em" text-anchor="start">Network Segmentation</text></g><g><rect x="0" y="98.88888888888896" height="74.07407407407408" width="5" fill="#000"></rect><text x="11" y="135.92592592592598" dy="0.35em" text-anchor="start">Privileged Account Management</text></g><g><rect x="0" y="460.3703703703703" height="14.814814814814781" width="5" fill="#000"></rect><text x="11" y="467.7777777777777" dy="0.35em" text-anchor="start">Remote Data Storage</text></g><g><rect x="0" y="485.1851851851851" height="14.814814814814781" width="5" fill="#000"></rect><text x="11" y="492.5925925925925" dy="0.35em" text-anchor="start">Restrict File and Directory Permissions</text></g><g><rect x="0" y="316.66666666666686" height="29.62962962962962" width="5" fill="#000"></rect><text x="11" y="331.48148148148164" dy="0.35em" text-anchor="start">User Account Control</text></g><g><rect x="0" y="182.96296296296305" height="44.4444444444444" width="5" fill="#000"></rect><text x="11" y="205.18518518518525" dy="0.35em" text-anchor="start">User Account Management</text></g><g><rect x="421" y="15.00000000000037" height="88.8888888888888" width="5" fill="#000"></rect><text x="415" y="59.44444444444477" dy="0.35em" text-anchor="end">bypass user account control</text></g><g><rect x="421" y="376.1111111111108" height="29.62962962962962" width="5" fill="#000"></rect><text x="415" y="390.92592592592564" dy="0.35em" text-anchor="end">fallback channels</text></g><g><rect x="421" y="282.03703703703695" height="44.44444444444417" width="5" fill="#000"></rect><text x="415" y="304.259259259259" dy="0.35em" text-anchor="end">indicator removal on host</text></g><g><rect x="421" y="113.88888888888917" height="88.88888888888854" width="5" fill="#000"></rect><text x="415" y="158.33333333333343" dy="0.35em" text-anchor="end">network service scanning</text></g><g><rect x="421" y="336.4814814814811" height="29.629629629629676" width="5" fill="#000"></rect><text x="415" y="351.29629629629596" dy="0.35em" text-anchor="end">new service</text></g><g><rect x="421" y="212.77777777777771" height="59.259259259259274" width="5" fill="#000"></rect><text x="415" y="242.40740740740736" dy="0.35em" text-anchor="end">process injection</text></g><g><rect x="421" y="415.7407407407404" height="29.62962962962962" width="5" fill="#000"></rect><text x="415" y="430.5555555555552" dy="0.35em" text-anchor="end">standard application layer protocol</text></g><g><rect x="421" y="455.37037037037004" height="29.629629629629562" width="5" fill="#000"></rect><text x="415" y="470.1851851851848" dy="0.35em" text-anchor="end">windows management instrumentation</text></g></g></g></svg>