<svg width="847" height="520" xmlns="http://www.w3.org/2000/svg" version="1.1"><g transform="translate(0, 10)"><g class="links" fill="none" stroke-opacity="0.4"><path d="M5,244.99999999999977C213,244.99999999999977,213,460.7142857142855,421,460.7142857142855" stroke-width="68.57142857142857" style="stroke: rgb(191, 105, 105);"></path><path d="M5,107.85714285714263C213,107.85714285714263,213,107.85714285714252,421,107.85714285714252" stroke-width="205.71428571428572" style="stroke: rgb(191, 105, 105);"></path><path d="M5,392.142857142857C213,392.142857142857,213,313.5714285714282,421,313.5714285714282" stroke-width="205.71428571428572" style="stroke: rgb(148, 191, 105);"></path><path d="M426,443.5714285714284C634,443.5714285714284,634,154.2857142857143,842,154.2857142857143" stroke-width="34.285714285714285" style="stroke: rgb(105, 191, 191);"></path><path d="M426,477.85714285714266C634,477.85714285714266,634,335.7142857142858,842,335.7142857142858" stroke-width="34.285714285714285" style="stroke: rgb(105, 191, 191);"></path><path d="M426,73.57142857142823C634,73.57142857142823,634,68.5714285714286,842,68.5714285714286" stroke-width="137.14285714285714" style="stroke: rgb(148, 105, 191);"></path><path d="M426,210.71428571428538C634,210.71428571428538,634,250.00000000000006,842,250.00000000000006" stroke-width="137.14285714285714" style="stroke: rgb(148, 105, 191);"></path><path d="M426,347.8571428571425C634,347.8571428571425,634,431.4285714285712,842,431.4285714285712" stroke-width="137.14285714285714" style="stroke: rgb(148, 105, 191);"></path></g><g class="nodes" font-family="Arial, Helvetica" font-size="10"><g><rect x="842" y="2.842170943040401e-14" height="171.42857142857144" width="5" fill="#000"></rect><text x="836" y="85.71428571428575" dy="0.35em" text-anchor="end">netflow/enclave netflow</text></g><g><rect x="842" y="181.42857142857147" height="171.42857142857122" width="5" fill="#000"></rect><text x="836" y="267.1428571428571" dy="0.35em" text-anchor="end">network protocol analysis</text></g><g><rect x="842" y="362.85714285714266" height="137.14285714285728" width="5" fill="#000"></rect><text x="836" y="431.42857142857133" dy="0.35em" text-anchor="end">ssl/tls inspection</text></g><g><rect x="0" y="4.999999999999773" height="274.28571428571433" width="5" fill="#000"></rect><text x="11" y="142.14285714285694" dy="0.35em" text-anchor="start">Network Intrusion Prevention</text></g><g><rect x="0" y="289.2857142857141" height="205.71428571428612" width="5" fill="#000"></rect><text x="11" y="392.14285714285717" dy="0.35em" text-anchor="start">Restrict Web-Based Content</text></g><g><rect x="421" y="426.4285714285712" height="68.57142857142912" width="5" fill="#000"></rect><text x="415" y="460.7142857142858" dy="0.35em" text-anchor="end">multi-stage channels</text></g><g><rect x="421" y="4.999999999999659" height="411.42857142857156" width="5" fill="#000"></rect><text x="415" y="210.71428571428544" dy="0.35em" text-anchor="end">web service</text></g></g></g></svg>