<svg width="847" height="520" xmlns="http://www.w3.org/2000/svg" version="1.1"><g transform="translate(0, 10)"><g class="links" fill="none" stroke-opacity="0.4"><path d="M5,230.00000000000017C213,230.00000000000017,213,85.00000000000011,421,85.00000000000011" stroke-width="46.666666666666664" style="stroke: rgb(191, 105, 105);"></path><path d="M5,392.2222222222223C213,392.2222222222223,213,258.3333333333332,421,258.3333333333332" stroke-width="31.11111111111111" style="stroke: rgb(191, 139, 105);"></path><path d="M5,433.33333333333337C213,433.33333333333337,213,289.4444444444443,421,289.4444444444443" stroke-width="31.11111111111111" style="stroke: rgb(191, 174, 105);"></path><path d="M5,466.66666666666663C213,466.66666666666663,213,477.22222222222223,421,477.22222222222223" stroke-width="15.555555555555555" style="stroke: rgb(174, 191, 105);"></path><path d="M5,93.33333333333347C213,93.33333333333347,213,443.8888888888889,421,443.8888888888889" stroke-width="31.11111111111111" style="stroke: rgb(139, 191, 105);"></path><path d="M5,70.00000000000014C213,70.00000000000014,213,394.99999999999994,421,394.99999999999994" stroke-width="15.555555555555555" style="stroke: rgb(139, 191, 105);"></path><path d="M5,31.111111111111253C213,31.111111111111253,213,346.111111111111,421,346.111111111111" stroke-width="62.22222222222222" style="stroke: rgb(139, 191, 105);"></path><path d="M5,286.6666666666669C213,286.6666666666669,213,131.66666666666677,421,131.66666666666677" stroke-width="46.666666666666664" style="stroke: rgb(105, 191, 105);"></path><path d="M5,181.1111111111113C213,181.1111111111113,213,227.22222222222206,421,227.22222222222206" stroke-width="31.11111111111111" style="stroke: rgb(105, 191, 139);"></path><path d="M5,142.22222222222246C213,142.22222222222246,213,38.33333333333344,421,38.33333333333344" stroke-width="46.666666666666664" style="stroke: rgb(105, 191, 139);"></path><path d="M5,492.2222222222222C213,492.2222222222222,213,410.5555555555555,421,410.5555555555555" stroke-width="15.555555555555555" style="stroke: rgb(105, 191, 174);"></path><path d="M5,343.3333333333336C213,343.3333333333336,213,178.33333333333346,421,178.33333333333346" stroke-width="46.666666666666664" style="stroke: rgb(105, 174, 191);"></path><path d="M426,108.33333333333344C634,108.33333333333344,634,108.33333333333316,842,108.33333333333316" stroke-width="186.66666666666666" style="stroke: rgb(105, 139, 191);"></path><path d="M426,281.6666666666665C634,281.6666666666665,634,395.00000000000006,842,395.00000000000006" stroke-width="46.666666666666664" style="stroke: rgb(105, 105, 191);"></path><path d="M426,234.99999999999986C634,234.99999999999986,634,338.33333333333337,842,338.33333333333337" stroke-width="46.666666666666664" style="stroke: rgb(105, 105, 191);"></path><path d="M426,477.22222222222223C634,477.22222222222223,634,209.44444444444426,842,209.44444444444426" stroke-width="15.555555555555555" style="stroke: rgb(139, 105, 191);"></path><path d="M426,451.6666666666667C634,451.6666666666667,634,477.22222222222234,842,477.22222222222234" stroke-width="15.555555555555555" style="stroke: rgb(174, 105, 191);"></path><path d="M426,436.11111111111114C634,436.11111111111114,634,297.2222222222221,842,297.2222222222221" stroke-width="15.555555555555555" style="stroke: rgb(174, 105, 191);"></path><path d="M426,402.7777777777777C634,402.7777777777777,634,273.8888888888888,842,273.8888888888888" stroke-width="31.11111111111111" style="stroke: rgb(191, 105, 174);"></path><path d="M426,330.55555555555543C634,330.55555555555543,634,242.77777777777771,842,242.77777777777771" stroke-width="31.11111111111111" style="stroke: rgb(191, 105, 139);"></path><path d="M426,361.6666666666665C634,361.6666666666665,634,443.8888888888889,842,443.8888888888889" stroke-width="31.11111111111111" style="stroke: rgb(191, 105, 139);"></path></g><g class="nodes" font-family="Arial, Helvetica" font-size="10"><g><rect x="842" y="371.66666666666674" height="46.66666666666666" width="5" fill="#000"></rect><text x="836" y="395.00000000000006" dy="0.35em" text-anchor="end">dll monitoring</text></g><g><rect x="842" y="315.00000000000006" height="46.666666666666714" width="5" fill="#000"></rect><text x="836" y="338.3333333333334" dy="0.35em" text-anchor="end">loaded dlls</text></g><g><rect x="842" y="469.44444444444457" height="15.555555555555543" width="5" fill="#000"></rect><text x="836" y="477.22222222222234" dy="0.35em" text-anchor="end">malware reverse engineering</text></g><g><rect x="842" y="227.22222222222217" height="77.77777777777789" width="5" fill="#000"></rect><text x="836" y="266.1111111111111" dy="0.35em" text-anchor="end">netflow/enclave netflow</text></g><g><rect x="842" y="428.33333333333337" height="31.1111111111112" width="5" fill="#000"></rect><text x="836" y="443.88888888888897" dy="0.35em" text-anchor="end">network protocol analysis</text></g><g><rect x="842" y="14.99999999999983" height="202.22222222222234" width="5" fill="#000"></rect><text x="836" y="116.111111111111" dy="0.35em" text-anchor="end">windows event logs</text></g><g><rect x="0" y="206.66666666666683" height="46.66666666666674" width="5" fill="#000"></rect><text x="11" y="230.0000000000002" dy="0.35em" text-anchor="start">Audit</text></g><g><rect x="0" y="376.66666666666674" height="31.111111111111114" width="5" fill="#000"></rect><text x="11" y="392.2222222222223" dy="0.35em" text-anchor="start">Code Signing</text></g><g><rect x="0" y="417.7777777777778" height="31.11111111111103" width="5" fill="#000"></rect><text x="11" y="433.33333333333337" dy="0.35em" text-anchor="start">Disable or Remove Feature or Program</text></g><g><rect x="0" y="458.88888888888886" height="15.555555555555543" width="5" fill="#000"></rect><text x="11" y="466.66666666666663" dy="0.35em" text-anchor="start">Execution Prevention</text></g><g><rect x="0" y="1.4210854715202004e-13" height="108.88888888888897" width="5" fill="#000"></rect><text x="11" y="54.44444444444463" dy="0.35em" text-anchor="start">Network Intrusion Prevention</text></g><g><rect x="0" y="263.3333333333336" height="46.666666666666686" width="5" fill="#000"></rect><text x="11" y="286.66666666666697" dy="0.35em" text-anchor="start">Operating System Configuration</text></g><g><rect x="0" y="118.88888888888911" height="77.77777777777771" width="5" fill="#000"></rect><text x="11" y="157.77777777777797" dy="0.35em" text-anchor="start">Privileged Account Management</text></g><g><rect x="0" y="484.4444444444444" height="15.555555555555486" width="5" fill="#000"></rect><text x="11" y="492.2222222222222" dy="0.35em" text-anchor="start">Restrict Web-Based Content</text></g><g><rect x="0" y="320.0000000000003" height="46.66666666666646" width="5" fill="#000"></rect><text x="11" y="343.3333333333335" dy="0.35em" text-anchor="start">User Account Management</text></g><g><rect x="421" y="387.2222222222222" height="31.1111111111112" width="5" fill="#000"></rect><text x="415" y="402.77777777777777" dy="0.35em" text-anchor="end">domain generation algorithms</text></g><g><rect x="421" y="469.44444444444446" height="15.55555555555543" width="5" fill="#000"></rect><text x="415" y="477.2222222222222" dy="0.35em" text-anchor="end">hidden window</text></g><g><rect x="421" y="211.66666666666652" height="93.33333333333339" width="5" fill="#000"></rect><text x="415" y="258.3333333333332" dy="0.35em" text-anchor="end">powershell</text></g><g><rect x="421" y="314.9999999999999" height="62.222222222222285" width="5" fill="#000"></rect><text x="415" y="346.11111111111103" dy="0.35em" text-anchor="end">remote file copy</text></g><g><rect x="421" y="15.000000000000114" height="186.6666666666664" width="5" fill="#000"></rect><text x="415" y="108.33333333333331" dy="0.35em" text-anchor="end">scheduled task</text></g><g><rect x="421" y="428.33333333333337" height="31.111111111111086" width="5" fill="#000"></rect><text x="415" y="443.8888888888889" dy="0.35em" text-anchor="end">standard application layer protocol</text></g></g></g></svg>