<svg width="847" height="520" xmlns="http://www.w3.org/2000/svg" version="1.1"><g transform="translate(0, 10)"><g class="links" fill="none" stroke-opacity="0.4"><path d="M5,97.5C213,97.5,213,360.00000000000034,421,360.00000000000034" stroke-width="165" style="stroke: rgb(191, 105, 105);"></path><path d="M5,351.25C213,351.25,213,143.7500000000002,421,143.7500000000002" stroke-width="82.5" style="stroke: rgb(191, 179, 105);"></path><path d="M5,231.25C213,231.25,213,61.2500000000002,421,61.2500000000002" stroke-width="82.5" style="stroke: rgb(130, 191, 105);"></path><path d="M5,286.25C213,286.25,213,466.24999999999983,421,466.24999999999983" stroke-width="27.5" style="stroke: rgb(130, 191, 105);"></path><path d="M5,443.75C213,443.75,213,226.2500000000002,421,226.2500000000002" stroke-width="82.5" style="stroke: rgb(105, 191, 154);"></path><path d="M426,291.25000000000034C634,291.25000000000034,634,298.75,842,298.75" stroke-width="27.5" style="stroke: rgb(105, 154, 191);"></path><path d="M426,318.75000000000034C634,318.75000000000034,634,336.25,842,336.25" stroke-width="27.5" style="stroke: rgb(105, 154, 191);"></path><path d="M426,346.25000000000034C634,346.25000000000034,634,373.75,842,373.75" stroke-width="27.5" style="stroke: rgb(105, 154, 191);"></path><path d="M426,373.75000000000034C634,373.75000000000034,634,411.25,842,411.25" stroke-width="27.5" style="stroke: rgb(105, 154, 191);"></path><path d="M426,401.25000000000034C634,401.25000000000034,634,448.75,842,448.75" stroke-width="27.5" style="stroke: rgb(105, 154, 191);"></path><path d="M426,428.75000000000034C634,428.75000000000034,634,486.25,842,486.25" stroke-width="27.5" style="stroke: rgb(105, 154, 191);"></path><path d="M426,143.7500000000002C634,143.7500000000002,634,123.75,842,123.75" stroke-width="247.5" style="stroke: rgb(130, 105, 191);"></path><path d="M426,466.24999999999983C634,466.24999999999983,634,261.25,842,261.25" stroke-width="27.5" style="stroke: rgb(191, 105, 179);"></path></g><g class="nodes" font-family="Arial, Helvetica" font-size="10"><g><rect x="842" y="285" height="27.5" width="5" fill="#000"></rect><text x="836" y="298.75" dy="0.35em" text-anchor="end">binary file metadata</text></g><g><rect x="842" y="0" height="275" width="5" fill="#000"></rect><text x="836" y="137.5" dy="0.35em" text-anchor="end">dll monitoring</text></g><g><rect x="842" y="322.5" height="27.5" width="5" fill="#000"></rect><text x="836" y="336.25" dy="0.35em" text-anchor="end">malware reverse engineering</text></g><g><rect x="842" y="360" height="27.5" width="5" fill="#000"></rect><text x="836" y="373.75" dy="0.35em" text-anchor="end">network intrusion detection system</text></g><g><rect x="842" y="397.5" height="27.5" width="5" fill="#000"></rect><text x="836" y="411.25" dy="0.35em" text-anchor="end">network protocol analysis</text></g><g><rect x="842" y="435" height="27.5" width="5" fill="#000"></rect><text x="836" y="448.75" dy="0.35em" text-anchor="end">ssl/tls inspection</text></g><g><rect x="842" y="472.5" height="27.5" width="5" fill="#000"></rect><text x="836" y="486.25" dy="0.35em" text-anchor="end">windows event logs</text></g><g><rect x="0" y="15" height="165" width="5" fill="#000"></rect><text x="11" y="97.5" dy="0.35em" text-anchor="start">Antivirus/Antimalware</text></g><g><rect x="0" y="310" height="82.5" width="5" fill="#000"></rect><text x="11" y="351.25" dy="0.35em" text-anchor="start">Audit</text></g><g><rect x="0" y="190" height="110" width="5" fill="#000"></rect><text x="11" y="245" dy="0.35em" text-anchor="start">Execution Prevention</text></g><g><rect x="0" y="402.5" height="82.5" width="5" fill="#000"></rect><text x="11" y="443.75" dy="0.35em" text-anchor="start">Restrict Library Loading</text></g><g><rect x="421" y="20.0000000000002" height="247.5000000000001" width="5" fill="#000"></rect><text x="415" y="143.75000000000026" dy="0.35em" text-anchor="end">dll search order hijacking</text></g><g><rect x="421" y="452.49999999999983" height="27.5" width="5" fill="#000"></rect><text x="415" y="466.24999999999983" dy="0.35em" text-anchor="end">execution through module load</text></g><g><rect x="421" y="277.50000000000034" height="164.9999999999995" width="5" fill="#000"></rect><text x="415" y="360.0000000000001" dy="0.35em" text-anchor="end">obfuscated files or information</text></g></g></g></svg>