<svg width="847" height="520" xmlns="http://www.w3.org/2000/svg" version="1.1"><g transform="translate(0, 10)"><g class="links" fill="none" stroke-opacity="0.4"><path d="M5,120.00000000000017C213,120.00000000000017,213,375,421,375" stroke-width="240" style="stroke: rgb(191, 105, 105);"></path><path d="M5,310.00000000000006C213,310.00000000000006,213,65.00000000000006,421,65.00000000000006" stroke-width="120" style="stroke: rgb(174, 191, 105);"></path><path d="M5,440.00000000000006C213,440.00000000000006,213,185.00000000000006,421,185.00000000000006" stroke-width="120" style="stroke: rgb(105, 191, 139);"></path><path d="M426,315C634,315,634,310,842,310" stroke-width="120" style="stroke: rgb(105, 139, 191);"></path><path d="M426,435C634,435,634,440,842,440" stroke-width="120" style="stroke: rgb(105, 139, 191);"></path><path d="M426,125.00000000000006C634,125.00000000000006,634,120,842,120" stroke-width="240" style="stroke: rgb(174, 105, 191);"></path></g><g class="nodes" font-family="Arial, Helvetica" font-size="10"><g><rect x="842" y="0" height="240" width="5" fill="#000"></rect><text x="836" y="120" dy="0.35em" text-anchor="end">anti-virus</text></g><g><rect x="842" y="250" height="120" width="5" fill="#000"></rect><text x="836" y="310" dy="0.35em" text-anchor="end">malware reverse engineering</text></g><g><rect x="842" y="380" height="120" width="5" fill="#000"></rect><text x="836" y="440" dy="0.35em" text-anchor="end">netflow/enclave netflow</text></g><g><rect x="0" y="1.7053025658242404e-13" height="239.9999999999999" width="5" fill="#000"></rect><text x="11" y="120.00000000000011" dy="0.35em" text-anchor="start">Network Intrusion Prevention</text></g><g><rect x="0" y="250.00000000000006" height="120" width="5" fill="#000"></rect><text x="11" y="310.00000000000006" dy="0.35em" text-anchor="start">Restrict File and Directory Permissions</text></g><g><rect x="0" y="380.00000000000006" height="119.99999999999977" width="5" fill="#000"></rect><text x="11" y="439.99999999999994" dy="0.35em" text-anchor="start">User Account Management</text></g><g><rect x="421" y="5.000000000000057" height="239.99999999999997" width="5" fill="#000"></rect><text x="415" y="125.00000000000004" dy="0.35em" text-anchor="end">disabling security tools</text></g><g><rect x="421" y="255.00000000000003" height="239.9999999999999" width="5" fill="#000"></rect><text x="415" y="375" dy="0.35em" text-anchor="end">standard application layer protocol</text></g></g></g></svg>