<svg width="847" height="520" xmlns="http://www.w3.org/2000/svg" version="1.1"><g transform="translate(0, 10)"><g class="links" fill="none" stroke-opacity="0.4"><path d="M5,292.0000000000002C213,292.0000000000002,213,453.00000000000034,421,453.00000000000034" stroke-width="94" style="stroke: rgb(191, 105, 105);"></path><path d="M5,211.50000000000023C213,211.50000000000023,213,325.5000000000001,421,325.5000000000001" stroke-width="47" style="stroke: rgb(191, 169, 105);"></path><path d="M5,94.00000000000023C213,94.00000000000023,213,93.99999999999966,421,93.99999999999966" stroke-width="188" style="stroke: rgb(191, 169, 105);"></path><path d="M5,476.49999999999994C213,476.49999999999994,213,372.5000000000001,421,372.5000000000001" stroke-width="47" style="stroke: rgb(148, 191, 105);"></path><path d="M5,396.0000000000002C213,396.0000000000002,213,244.99999999999963,421,244.99999999999963" stroke-width="94" style="stroke: rgb(105, 191, 126);"></path><path d="M426,453.00000000000034C634,453.00000000000034,634,349.0000000000001,842,349.0000000000001" stroke-width="94" style="stroke: rgb(105, 191, 191);"></path><path d="M426,349.0000000000001C634,349.0000000000001,634,140.9999999999999,842,140.9999999999999" stroke-width="94" style="stroke: rgb(105, 126, 191);"></path><path d="M426,46.99999999999966C634,46.99999999999966,634,46.999999999999886,842,46.999999999999886" stroke-width="94" style="stroke: rgb(148, 105, 191);"></path><path d="M426,140.99999999999966C634,140.99999999999966,634,244.99999999999986,842,244.99999999999986" stroke-width="94" style="stroke: rgb(148, 105, 191);"></path><path d="M426,244.99999999999963C634,244.99999999999963,634,453.0000000000001,842,453.0000000000001" stroke-width="94" style="stroke: rgb(191, 105, 169);"></path></g><g class="nodes" font-family="Arial, Helvetica" font-size="10"><g><rect x="842" y="302.0000000000001" height="94" width="5" fill="#000"></rect><text x="836" y="349.0000000000001" dy="0.35em" text-anchor="end">binary file metadata</text></g><g><rect x="842" y="-1.1368683772161603e-13" height="187.99999999999997" width="5" fill="#000"></rect><text x="836" y="93.99999999999987" dy="0.35em" text-anchor="end">netflow/enclave netflow</text></g><g><rect x="842" y="197.99999999999986" height="94.00000000000023" width="5" fill="#000"></rect><text x="836" y="244.99999999999997" dy="0.35em" text-anchor="end">network protocol analysis</text></g><g><rect x="842" y="406.0000000000001" height="94" width="5" fill="#000"></rect><text x="836" y="453.0000000000001" dy="0.35em" text-anchor="end">windows event logs</text></g><g><rect x="0" y="245.0000000000002" height="94" width="5" fill="#000"></rect><text x="11" y="292.0000000000002" dy="0.35em" text-anchor="start">Exploit Protection</text></g><g><rect x="0" y="2.2737367544323206e-13" height="234.99999999999997" width="5" fill="#000"></rect><text x="11" y="117.50000000000021" dy="0.35em" text-anchor="start">Network Intrusion Prevention</text></g><g><rect x="0" y="452.99999999999994" height="46.99999999999983" width="5" fill="#000"></rect><text x="11" y="476.4999999999999" dy="0.35em" text-anchor="start">Network Segmentation</text></g><g><rect x="0" y="349.0000000000002" height="93.99999999999972" width="5" fill="#000"></rect><text x="11" y="396.0000000000001" dy="0.35em" text-anchor="start">User Account Management</text></g><g><rect x="421" y="302.0000000000001" height="94.00000000000023" width="5" fill="#000"></rect><text x="415" y="349.0000000000002" dy="0.35em" text-anchor="end">commonly used port</text></g><g><rect x="421" y="197.99999999999963" height="94.00000000000045" width="5" fill="#000"></rect><text x="415" y="244.99999999999986" dy="0.35em" text-anchor="end">new service</text></g><g><rect x="421" y="-3.410605131648481e-13" height="187.99999999999997" width="5" fill="#000"></rect><text x="415" y="93.99999999999964" dy="0.35em" text-anchor="end">remote file copy</text></g><g><rect x="421" y="406.00000000000034" height="94" width="5" fill="#000"></rect><text x="415" y="453.00000000000034" dy="0.35em" text-anchor="end">rundll32</text></g></g></g></svg>