<svg width="847" height="520" xmlns="http://www.w3.org/2000/svg" version="1.1"><g transform="translate(0, 10)"><g class="links" fill="none" stroke-opacity="0.4"><path d="M5,430.909090909091C213,430.909090909091,213,330.4545454545457,421,330.4545454545457" stroke-width="128.1818181818182" style="stroke: rgb(191, 105, 105);"></path><path d="M5,175.90909090909093C213,175.90909090909093,213,447.27272727272714,421,447.27272727272714" stroke-width="85.45454545454545" style="stroke: rgb(174, 191, 105);"></path><path d="M5,69.09090909090912C213,69.09090909090912,213,74.09090909090935,421,74.09090909090935" stroke-width="128.1818181818182" style="stroke: rgb(174, 191, 105);"></path><path d="M5,292.7272727272727C213,292.7272727272727,213,202.27272727272754,421,202.27272727272754" stroke-width="128.1818181818182" style="stroke: rgb(105, 191, 139);"></path><path d="M426,74.09090909090935C634,74.09090909090935,634,64.09090909090924,842,64.09090909090924" stroke-width="128.1818181818182" style="stroke: rgb(105, 139, 191);"></path><path d="M426,202.27272727272754C634,202.27272727272754,634,245.0000000000001,842,245.0000000000001" stroke-width="128.1818181818182" style="stroke: rgb(105, 139, 191);"></path><path d="M426,330.4545454545457C634,330.4545454545457,634,383.18181818181824,842,383.18181818181824" stroke-width="128.1818181818182" style="stroke: rgb(105, 139, 191);"></path><path d="M426,468.6363636363635C634,468.6363636363635,634,478.63636363636357,842,478.63636363636357" stroke-width="42.72727272727273" style="stroke: rgb(174, 105, 191);"></path><path d="M426,425.90909090909076C634,425.90909090909076,634,149.5454545454547,842,149.5454545454547" stroke-width="42.72727272727273" style="stroke: rgb(174, 105, 191);"></path></g><g class="nodes" font-family="Arial, Helvetica" font-size="10"><g><rect x="842" y="457.2727272727272" height="42.72727272727268" width="5" fill="#000"></rect><text x="836" y="478.6363636363635" dy="0.35em" text-anchor="end">malware reverse engineering</text></g><g><rect x="842" y="1.4210854715202004e-13" height="170.90909090909088" width="5" fill="#000"></rect><text x="836" y="85.45454545454558" dy="0.35em" text-anchor="end">netflow/enclave netflow</text></g><g><rect x="842" y="180.90909090909102" height="128.18181818181807" width="5" fill="#000"></rect><text x="836" y="245.00000000000006" dy="0.35em" text-anchor="end">network intrusion detection system</text></g><g><rect x="842" y="319.0909090909091" height="128.18181818181807" width="5" fill="#000"></rect><text x="836" y="383.18181818181813" dy="0.35em" text-anchor="end">network protocol analysis</text></g><g><rect x="0" y="366.81818181818187" height="128.18181818181813" width="5" fill="#000"></rect><text x="11" y="430.90909090909093" dy="0.35em" text-anchor="start">Filter Network Traffic</text></g><g><rect x="0" y="5.000000000000028" height="213.63636363636357" width="5" fill="#000"></rect><text x="11" y="111.81818181818181" dy="0.35em" text-anchor="start">Network Intrusion Prevention</text></g><g><rect x="0" y="228.6363636363636" height="128.18181818181824" width="5" fill="#000"></rect><text x="11" y="292.72727272727275" dy="0.35em" text-anchor="start">Network Segmentation</text></g><g><rect x="421" y="404.5454545454544" height="85.4545454545454" width="5" fill="#000"></rect><text x="415" y="447.2727272727271" dy="0.35em" text-anchor="end">standard application layer protocol</text></g><g><rect x="421" y="10.000000000000256" height="384.5454545454541" width="5" fill="#000"></rect><text x="415" y="202.2727272727273" dy="0.35em" text-anchor="end">standard non-application layer protocol</text></g></g></g></svg>