<svg width="847" height="520" xmlns="http://www.w3.org/2000/svg" version="1.1"><g transform="translate(0, 10)"><g class="links" fill="none" stroke-opacity="0.4"><path d="M5,124.99999999999997C213,124.99999999999997,213,130,421,130" stroke-width="240" style="stroke: rgb(191, 105, 105);"></path><path d="M5,375.0000000000002C213,375.0000000000002,213,370,421,370" stroke-width="240" style="stroke: rgb(105, 191, 105);"></path><path d="M426,90C634,90,634,79.99999999999989,842,79.99999999999989" stroke-width="160" style="stroke: rgb(105, 105, 191);"></path><path d="M426,410C634,410,634,420.0000000000001,842,420.0000000000001" stroke-width="160" style="stroke: rgb(105, 105, 191);"></path><path d="M426,250C634,250,634,250.00000000000003,842,250.00000000000003" stroke-width="160" style="stroke: rgb(105, 105, 191);"></path></g><g class="nodes" font-family="Arial, Helvetica" font-size="10"><g><rect x="842" y="-1.1368683772161603e-13" height="160.00000000000014" width="5" fill="#000"></rect><text x="836" y="79.99999999999996" dy="0.35em" text-anchor="end">netflow/enclave netflow</text></g><g><rect x="842" y="340.0000000000001" height="160" width="5" fill="#000"></rect><text x="836" y="420.0000000000001" dy="0.35em" text-anchor="end">network protocol analysis</text></g><g><rect x="842" y="170.00000000000003" height="160.0000000000001" width="5" fill="#000"></rect><text x="836" y="250.00000000000009" dy="0.35em" text-anchor="end">ssl/tls inspection</text></g><g><rect x="0" y="4.999999999999972" height="240.00000000000023" width="5" fill="#000"></rect><text x="11" y="125.00000000000009" dy="0.35em" text-anchor="start">Network Intrusion Prevention</text></g><g><rect x="0" y="255.0000000000002" height="239.99999999999983" width="5" fill="#000"></rect><text x="11" y="375.0000000000001" dy="0.35em" text-anchor="start">Restrict Web-Based Content</text></g><g><rect x="421" y="10" height="480" width="5" fill="#000"></rect><text x="415" y="250" dy="0.35em" text-anchor="end">web service</text></g></g></g></svg>