<svg width="847" height="520" xmlns="http://www.w3.org/2000/svg" version="1.1"><g transform="translate(0, 10)"><g class="links" fill="none" stroke-opacity="0.4"><path d="M5,462.60869565217376C213,462.60869565217376,213,359.5652173913043,421,359.5652173913043" stroke-width="18.26086956521739" style="stroke: rgb(191, 105, 105);"></path><path d="M5,406.086956521739C213,406.086956521739,213,341.30434782608694,421,341.30434782608694" stroke-width="18.26086956521739" style="stroke: rgb(191, 137, 105);"></path><path d="M5,285.6521739130436C213,285.6521739130436,213,101.3043478260869,421,101.3043478260869" stroke-width="36.52173913043478" style="stroke: rgb(191, 169, 105);"></path><path d="M5,313.0434782608697C213,313.0434782608697,213,211.7391304347825,421,211.7391304347825" stroke-width="18.26086956521739" style="stroke: rgb(191, 169, 105);"></path><path d="M5,100.43478260869577C213,100.43478260869577,213,452.6086956521738,421,452.6086956521738" stroke-width="18.26086956521739" style="stroke: rgb(180, 191, 105);"></path><path d="M5,82.17391304347836C213,82.17391304347836,213,406.08695652173907,421,406.08695652173907" stroke-width="18.26086956521739" style="stroke: rgb(180, 191, 105);"></path><path d="M5,36.521739130434895C213,36.521739130434895,213,285.6521739130435,421,285.6521739130435" stroke-width="73.04347826086956" style="stroke: rgb(180, 191, 105);"></path><path d="M5,183.4782608695653C213,183.4782608695653,213,424.34782608695645,421,424.34782608695645" stroke-width="18.26086956521739" style="stroke: rgb(148, 191, 105);"></path><path d="M5,137.82608695652186C213,137.82608695652186,213,28.260869565217334,421,28.260869565217334" stroke-width="36.52173913043478" style="stroke: rgb(148, 191, 105);"></path><path d="M5,165.21739130434793C213,165.21739130434793,213,175.21739130434776,421,175.21739130434776" stroke-width="18.26086956521739" style="stroke: rgb(148, 191, 105);"></path><path d="M5,220.86956521739148C213,220.86956521739148,213,64.78260869565212,421,64.78260869565212" stroke-width="36.52173913043478" style="stroke: rgb(116, 191, 105);"></path><path d="M5,248.26086956521755C213,248.26086956521755,213,193.47826086956513,421,193.47826086956513" stroke-width="18.26086956521739" style="stroke: rgb(116, 191, 105);"></path><path d="M5,434.3478260869564C213,434.3478260869564,213,480.86956521739125,421,480.86956521739125" stroke-width="18.26086956521739" style="stroke: rgb(105, 191, 126);"></path><path d="M5,350.43478260869574C213,350.43478260869574,213,137.8260869565217,421,137.8260869565217" stroke-width="36.52173913043478" style="stroke: rgb(105, 191, 159);"></path><path d="M5,377.8260869565218C213,377.8260869565218,213,229.9999999999999,421,229.9999999999999" stroke-width="18.26086956521739" style="stroke: rgb(105, 191, 159);"></path><path d="M5,490.86956521739114C213,490.86956521739114,213,377.8260869565217,421,377.8260869565217" stroke-width="18.26086956521739" style="stroke: rgb(105, 191, 191);"></path><path d="M426,359.5652173913043C634,359.5652173913043,634,359.56521739130426,842,359.56521739130426" stroke-width="54.78260869565217" style="stroke: rgb(105, 159, 191);"></path><path d="M426,83.0434782608695C634,83.0434782608695,634,93.04347826086956,842,93.04347826086956" stroke-width="146.08695652173913" style="stroke: rgb(105, 126, 191);"></path><path d="M426,202.60869565217385C634,202.60869565217385,634,202.6086956521739,842,202.6086956521739" stroke-width="73.04347826086956" style="stroke: rgb(116, 105, 191);"></path><path d="M426,452.6086956521738C634,452.6086956521738,634,396.08695652173907,842,396.08695652173907" stroke-width="18.26086956521739" style="stroke: rgb(148, 105, 191);"></path><path d="M426,415.21739130434776C634,415.21739130434776,634,303.91304347826076,842,303.91304347826076" stroke-width="36.52173913043478" style="stroke: rgb(180, 105, 191);"></path><path d="M426,267.3913043478261C634,267.3913043478261,634,267.391304347826,842,267.391304347826" stroke-width="36.52173913043478" style="stroke: rgb(191, 105, 169);"></path><path d="M426,303.9130434782609C634,303.9130434782609,634,433.4782608695651,842,433.4782608695651" stroke-width="36.52173913043478" style="stroke: rgb(191, 105, 169);"></path><path d="M426,480.86956521739125C634,480.86956521739125,634,470.86956521739114,842,470.86956521739114" stroke-width="18.26086956521739" style="stroke: rgb(191, 105, 137);"></path></g><g class="nodes" font-family="Arial, Helvetica" font-size="10"><g><rect x="842" y="332.1739130434782" height="73.04347826086952" width="5" fill="#000"></rect><text x="836" y="368.69565217391295" dy="0.35em" text-anchor="end">binary file metadata</text></g><g><rect x="842" y="249.13043478260863" height="73.04347826086956" width="5" fill="#000"></rect><text x="836" y="285.6521739130434" dy="0.35em" text-anchor="end">netflow/enclave netflow</text></g><g><rect x="842" y="415.2173913043477" height="36.52173913043475" width="5" fill="#000"></rect><text x="836" y="433.4782608695651" dy="0.35em" text-anchor="end">network protocol analysis</text></g><g><rect x="842" y="461.73913043478245" height="18.26086956521752" width="5" fill="#000"></rect><text x="836" y="470.8695652173912" dy="0.35em" text-anchor="end">system calls</text></g><g><rect x="842" y="20" height="219.13043478260863" width="5" fill="#000"></rect><text x="836" y="129.56521739130432" dy="0.35em" text-anchor="end">windows event logs</text></g><g><rect x="0" y="453.4782608695651" height="18.26086956521737" width="5" fill="#000"></rect><text x="11" y="462.60869565217376" dy="0.35em" text-anchor="start">Code Signing</text></g><g><rect x="0" y="396.9565217391303" height="18.260869565217376" width="5" fill="#000"></rect><text x="11" y="406.086956521739" dy="0.35em" text-anchor="start">Execution Prevention</text></g><g><rect x="0" y="267.39130434782624" height="54.78260869565213" width="5" fill="#000"></rect><text x="11" y="294.7826086956523" dy="0.35em" text-anchor="start">Multi-factor Authentication</text></g><g><rect x="0" y="1.1368683772161603e-13" height="109.56521739130434" width="5" fill="#000"></rect><text x="11" y="54.782608695652286" dy="0.35em" text-anchor="start">Network Intrusion Prevention</text></g><g><rect x="0" y="119.56521739130446" height="73.04347826086962" width="5" fill="#000"></rect><text x="11" y="156.08695652173927" dy="0.35em" text-anchor="start">Network Segmentation</text></g><g><rect x="0" y="202.60869565217408" height="54.782608695652186" width="5" fill="#000"></rect><text x="11" y="230.00000000000017" dy="0.35em" text-anchor="start">Operating System Configuration</text></g><g><rect x="0" y="425.2173913043477" height="18.260869565217376" width="5" fill="#000"></rect><text x="11" y="434.3478260869564" dy="0.35em" text-anchor="start">Password Policies</text></g><g><rect x="0" y="332.17391304347836" height="54.78260869565196" width="5" fill="#000"></rect><text x="11" y="359.5652173913044" dy="0.35em" text-anchor="start">Privileged Account Management</text></g><g><rect x="0" y="481.73913043478245" height="18.260869565217348" width="5" fill="#000"></rect><text x="11" y="490.86956521739114" dy="0.35em" text-anchor="start">Restrict File and Directory Permissions</text></g><g><rect x="421" y="9.999999999999943" height="146.08695652173913" width="5" fill="#000"></rect><text x="415" y="83.0434782608695" dy="0.35em" text-anchor="end">account manipulation</text></g><g><rect x="421" y="396.9565217391304" height="36.52173913043475" width="5" fill="#000"></rect><text x="415" y="415.21739130434776" dy="0.35em" text-anchor="end">commonly used port</text></g><g><rect x="421" y="166.08695652173907" height="73.04347826086968" width="5" fill="#000"></rect><text x="415" y="202.6086956521739" dy="0.35em" text-anchor="end">create account</text></g><g><rect x="421" y="443.47826086956513" height="18.260869565217433" width="5" fill="#000"></rect><text x="415" y="452.6086956521739" dy="0.35em" text-anchor="end">data compressed</text></g><g><rect x="421" y="471.73913043478257" height="18.260869565217433" width="5" fill="#000"></rect><text x="415" y="480.86956521739125" dy="0.35em" text-anchor="end">keychain</text></g><g><rect x="421" y="332.17391304347825" height="54.78260869565216" width="5" fill="#000"></rect><text x="415" y="359.5652173913043" dy="0.35em" text-anchor="end">masquerading</text></g><g><rect x="421" y="249.13043478260875" height="73.0434782608695" width="5" fill="#000"></rect><text x="415" y="285.6521739130435" dy="0.35em" text-anchor="end">remote file copy</text></g></g></g></svg>