<svg width="847" height="520" xmlns="http://www.w3.org/2000/svg" version="1.1"><g transform="translate(0, 10)"><g class="links" fill="none" stroke-opacity="0.4"><path d="M5,304.99999999999983C213,304.99999999999983,213,309.9999999999998,421,309.9999999999998" stroke-width="120" style="stroke: rgb(191, 105, 105);"></path><path d="M5,124.99999999999983C213,124.99999999999983,213,119.99999999999963,421,119.99999999999963" stroke-width="240" style="stroke: rgb(191, 105, 105);"></path><path d="M5,394.99999999999983C213,394.99999999999983,213,410.0000000000002,421,410.0000000000002" stroke-width="60" style="stroke: rgb(191, 105, 105);"></path><path d="M5,464.99999999999994C213,464.99999999999994,213,470.0000000000002,421,470.0000000000002" stroke-width="60" style="stroke: rgb(174, 191, 105);"></path><path d="M426,339.9999999999998C634,339.9999999999998,634,469.99999999999994,842,469.99999999999994" stroke-width="60" style="stroke: rgb(105, 191, 139);"></path><path d="M426,279.9999999999998C634,279.9999999999998,634,150.00000000000006,842,150.00000000000006" stroke-width="60" style="stroke: rgb(105, 191, 139);"></path><path d="M426,59.99999999999963C634,59.99999999999963,634,60.00000000000006,842,60.00000000000006" stroke-width="120" style="stroke: rgb(105, 139, 191);"></path><path d="M426,179.99999999999963C634,179.99999999999963,634,370.00000000000006,842,370.00000000000006" stroke-width="120" style="stroke: rgb(105, 139, 191);"></path><path d="M426,440.0000000000002C634,440.0000000000002,634,240.00000000000006,842,240.00000000000006" stroke-width="120" style="stroke: rgb(174, 105, 191);"></path></g><g class="nodes" font-family="Arial, Helvetica" font-size="10"><g><rect x="842" y="439.99999999999994" height="60" width="5" fill="#000"></rect><text x="836" y="469.99999999999994" dy="0.35em" text-anchor="end">malware reverse engineering</text></g><g><rect x="842" y="5.684341886080802e-14" height="300" width="5" fill="#000"></rect><text x="836" y="150.00000000000006" dy="0.35em" text-anchor="end">netflow/enclave netflow</text></g><g><rect x="842" y="310.00000000000006" height="119.99999999999989" width="5" fill="#000"></rect><text x="836" y="370" dy="0.35em" text-anchor="end">network protocol analysis</text></g><g><rect x="0" y="4.9999999999998295" height="420.0000000000001" width="5" fill="#000"></rect><text x="11" y="214.9999999999999" dy="0.35em" text-anchor="start">Network Intrusion Prevention</text></g><g><rect x="0" y="434.99999999999994" height="60.00000000000023" width="5" fill="#000"></rect><text x="11" y="465.00000000000006" dy="0.35em" text-anchor="start">Network Segmentation</text></g><g><rect x="421" y="-3.694822225952521e-13" height="240.00000000000017" width="5" fill="#000"></rect><text x="415" y="119.99999999999972" dy="0.35em" text-anchor="end">remote file copy</text></g><g><rect x="421" y="249.9999999999998" height="120.00000000000045" width="5" fill="#000"></rect><text x="415" y="310" dy="0.35em" text-anchor="end">standard application layer protocol</text></g><g><rect x="421" y="380.0000000000002" height="120.00000000000011" width="5" fill="#000"></rect><text x="415" y="440.0000000000003" dy="0.35em" text-anchor="end">uncommonly used port</text></g></g></g></svg>