<svg width="847" height="520" xmlns="http://www.w3.org/2000/svg" version="1.1"><g transform="translate(0, 10)"><g class="links" fill="none" stroke-opacity="0.4"><path d="M5,190.2000000000001C213,190.2000000000001,213,291.80000000000024,421,291.80000000000024" stroke-width="44.400000000000006" style="stroke: rgb(191, 105, 105);"></path><path d="M5,461.49999999999994C213,461.49999999999994,213,132.29999999999995,421,132.29999999999995" stroke-width="7.4" style="stroke: rgb(191, 126, 105);"></path><path d="M5,398.19999999999993C213,398.19999999999993,213,385.8000000000002,421,385.8000000000002" stroke-width="14.8" style="stroke: rgb(191, 146, 105);"></path><path d="M5,444.0999999999999C213,444.0999999999999,213,124.89999999999996,421,124.89999999999996" stroke-width="7.4" style="stroke: rgb(191, 167, 105);"></path><path d="M5,422.99999999999994C213,422.99999999999994,213,252.20000000000022,421,252.20000000000022" stroke-width="14.8" style="stroke: rgb(191, 187, 105);"></path><path d="M5,233.49999999999994C213,233.49999999999994,213,70.49999999999991,421,70.49999999999991" stroke-width="22.200000000000003" style="stroke: rgb(174, 191, 105);"></path><path d="M5,251.99999999999997C213,251.99999999999997,213,237.4000000000002,421,237.4000000000002" stroke-width="14.8" style="stroke: rgb(174, 191, 105);"></path><path d="M5,478.8999999999999C213,478.8999999999999,213,139.69999999999996,421,139.69999999999996" stroke-width="7.4" style="stroke: rgb(153, 191, 105);"></path><path d="M5,369.69999999999993C213,369.69999999999993,213,117.49999999999996,421,117.49999999999996" stroke-width="7.4" style="stroke: rgb(132, 191, 105);"></path><path d="M5,377.0999999999999C213,377.0999999999999,213,349.9,421,349.9" stroke-width="7.4" style="stroke: rgb(132, 191, 105);"></path><path d="M5,88.80000000000015C213,88.80000000000015,213,460.20000000000016,421,460.20000000000016" stroke-width="14.8" style="stroke: rgb(112, 191, 105);"></path><path d="M5,74.00000000000016C213,74.00000000000016,213,435.4000000000002,421,435.4000000000002" stroke-width="14.8" style="stroke: rgb(112, 191, 105);"></path><path d="M5,33.300000000000146C213,33.300000000000146,213,171.89999999999998,421,171.89999999999998" stroke-width="22.200000000000003" style="stroke: rgb(112, 191, 105);"></path><path d="M5,62.90000000000015C213,62.90000000000015,213,406.9000000000002,421,406.9000000000002" stroke-width="7.4" style="stroke: rgb(112, 191, 105);"></path><path d="M5,11.100000000000144C213,11.100000000000144,213,26.099999999999916,421,26.099999999999916" stroke-width="22.200000000000003" style="stroke: rgb(112, 191, 105);"></path><path d="M5,99.90000000000015C213,99.90000000000015,213,481.30000000000007,421,481.30000000000007" stroke-width="7.4" style="stroke: rgb(112, 191, 105);"></path><path d="M5,51.800000000000146C213,51.800000000000146,213,222.6000000000002,421,222.6000000000002" stroke-width="14.8" style="stroke: rgb(112, 191, 105);"></path><path d="M5,154.30000000000013C213,154.30000000000013,213,414.3000000000002,421,414.3000000000002" stroke-width="7.4" style="stroke: rgb(105, 191, 119);"></path><path d="M5,124.7000000000001C213,124.7000000000001,213,48.29999999999992,421,48.29999999999992" stroke-width="22.200000000000003" style="stroke: rgb(105, 191, 119);"></path><path d="M5,139.5000000000001C213,139.5000000000001,213,95.29999999999994,421,95.29999999999994" stroke-width="7.4" style="stroke: rgb(105, 191, 119);"></path><path d="M5,146.90000000000012C213,146.90000000000012,213,327.70000000000005,421,327.70000000000005" stroke-width="7.4" style="stroke: rgb(105, 191, 119);"></path><path d="M5,344.89999999999986C213,344.89999999999986,213,110.09999999999995,421,110.09999999999995" stroke-width="7.4" style="stroke: rgb(105, 191, 139);"></path><path d="M5,352.29999999999984C213,352.29999999999984,213,342.5,421,342.5" stroke-width="7.4" style="stroke: rgb(105, 191, 139);"></path><path d="M5,291.5999999999999C213,291.5999999999999,213,371.00000000000017,421,371.00000000000017" stroke-width="14.8" style="stroke: rgb(105, 191, 160);"></path><path d="M5,273.09999999999997C213,273.09999999999997,213,102.69999999999995,421,102.69999999999995" stroke-width="7.4" style="stroke: rgb(105, 191, 160);"></path><path d="M5,280.49999999999994C213,280.49999999999994,213,335.1,421,335.1" stroke-width="7.4" style="stroke: rgb(105, 191, 160);"></path><path d="M5,320.1C213,320.1,213,194.1,421,194.1" stroke-width="22.200000000000003" style="stroke: rgb(105, 191, 180);"></path><path d="M5,496.2999999999999C213,496.2999999999999,213,147.09999999999997,421,147.09999999999997" stroke-width="7.4" style="stroke: rgb(105, 180, 191);"></path><path d="M426,310.3000000000001C634,310.3000000000001,634,466.29999999999995,842,466.29999999999995" stroke-width="7.4" style="stroke: rgb(105, 160, 191);"></path><path d="M426,288.1000000000002C634,288.1000000000002,634,315.3,842,315.3" stroke-width="7.4" style="stroke: rgb(105, 160, 191);"></path><path d="M426,280.7000000000002C634,280.7000000000002,634,283.1,842,283.1" stroke-width="7.4" style="stroke: rgb(105, 160, 191);"></path><path d="M426,273.30000000000024C634,273.30000000000024,634,221.2999999999999,842,221.2999999999999" stroke-width="7.4" style="stroke: rgb(105, 160, 191);"></path><path d="M426,302.90000000000015C634,302.90000000000015,634,448.9,842,448.9" stroke-width="7.4" style="stroke: rgb(105, 160, 191);"></path><path d="M426,295.50000000000017C634,295.50000000000017,634,347.5,842,347.5" stroke-width="7.4" style="stroke: rgb(105, 160, 191);"></path><path d="M426,121.19999999999993C634,121.19999999999993,634,81.80000000000001,842,81.80000000000001" stroke-width="59.2" style="stroke: rgb(105, 139, 191);"></path><path d="M426,378.4000000000002C634,378.4000000000002,634,405.6,842,405.6" stroke-width="29.6" style="stroke: rgb(105, 119, 191);"></path><path d="M426,248.5000000000002C634,248.5000000000002,634,268.30000000000007,842,268.30000000000007" stroke-width="22.200000000000003" style="stroke: rgb(112, 105, 191);"></path><path d="M426,226.30000000000018C634,226.30000000000018,634,206.49999999999991,842,206.49999999999991" stroke-width="22.200000000000003" style="stroke: rgb(112, 105, 191);"></path><path d="M426,26.099999999999916C634,26.099999999999916,634,41.1,842,41.1" stroke-width="22.200000000000003" style="stroke: rgb(132, 105, 191);"></path><path d="M426,70.49999999999991C634,70.49999999999991,634,246.10000000000005,842,246.10000000000005" stroke-width="22.200000000000003" style="stroke: rgb(132, 105, 191);"></path><path d="M426,48.29999999999992C634,48.29999999999992,634,184.29999999999993,842,184.29999999999993" stroke-width="22.200000000000003" style="stroke: rgb(132, 105, 191);"></path><path d="M426,338.80000000000007C634,338.80000000000007,634,366,842,366" stroke-width="29.6" style="stroke: rgb(153, 105, 191);"></path><path d="M426,463.90000000000015C634,463.90000000000015,634,330.09999999999997,842,330.09999999999997" stroke-width="7.4" style="stroke: rgb(174, 105, 191);"></path><path d="M426,456.50000000000017C634,456.50000000000017,634,152.1,842,152.1" stroke-width="7.4" style="stroke: rgb(174, 105, 191);"></path><path d="M426,439.1000000000002C634,439.1000000000002,634,322.7,842,322.7" stroke-width="7.4" style="stroke: rgb(191, 105, 187);"></path><path d="M426,431.7000000000002C634,431.7000000000002,634,144.7,842,144.7" stroke-width="7.4" style="stroke: rgb(191, 105, 187);"></path><path d="M426,183C634,183,634,304.2,842,304.2" stroke-width="14.8" style="stroke: rgb(191, 105, 167);"></path><path d="M426,168.2C634,168.2,634,118.80000000000001,842,118.80000000000001" stroke-width="14.8" style="stroke: rgb(191, 105, 167);"></path><path d="M426,197.8C634,197.8,634,437.79999999999995,842,437.79999999999995" stroke-width="14.8" style="stroke: rgb(191, 105, 167);"></path><path d="M426,410.6000000000002C634,410.6000000000002,634,133.6,842,133.6" stroke-width="14.8" style="stroke: rgb(191, 105, 146);"></path><path d="M426,481.30000000000007C634,481.30000000000007,634,159.5,842,159.5" stroke-width="7.4" style="stroke: rgb(191, 105, 126);"></path></g><g class="nodes" font-family="Arial, Helvetica" font-size="10"><g><rect x="842" y="462.59999999999997" height="7.399999999999977" width="5" fill="#000"></rect><text x="836" y="466.29999999999995" dy="0.35em" text-anchor="end">binary file metadata</text></g><g><rect x="842" y="390.8" height="29.599999999999998" width="5" fill="#000"></rect><text x="836" y="405.6" dy="0.35em" text-anchor="end">dll monitoring</text></g><g><rect x="842" y="296.8" height="37" width="5" fill="#000"></rect><text x="836" y="315.3" dy="0.35em" text-anchor="end">malware reverse engineering</text></g><g><rect x="842" y="30" height="133.19999999999993" width="5" fill="#000"></rect><text x="836" y="96.59999999999997" dy="0.35em" text-anchor="end">netflow/enclave netflow</text></g><g><rect x="842" y="235.00000000000006" height="51.799999999999955" width="5" fill="#000"></rect><text x="836" y="260.90000000000003" dy="0.35em" text-anchor="end">network intrusion detection system</text></g><g><rect x="842" y="173.19999999999993" height="51.800000000000125" width="5" fill="#000"></rect><text x="836" y="199.1" dy="0.35em" text-anchor="end">network protocol analysis</text></g><g><rect x="842" y="430.4" height="22.19999999999999" width="5" fill="#000"></rect><text x="836" y="441.5" dy="0.35em" text-anchor="end">ssl/tls inspection</text></g><g><rect x="842" y="343.8" height="37" width="5" fill="#000"></rect><text x="836" y="362.3" dy="0.35em" text-anchor="end">windows event logs</text></g><g><rect x="0" y="168.00000000000009" height="44.399999999999864" width="5" fill="#000"></rect><text x="11" y="190.20000000000002" dy="0.35em" text-anchor="start">Antivirus/Antimalware</text></g><g><rect x="0" y="457.79999999999995" height="7.3999999999999915" width="5" fill="#000"></rect><text x="11" y="461.49999999999994" dy="0.35em" text-anchor="start">Audit</text></g><g><rect x="0" y="390.79999999999995" height="14.800000000000002" width="5" fill="#000"></rect><text x="11" y="398.19999999999993" dy="0.35em" text-anchor="start">Behavior Prevention on Endpoint</text></g><g><rect x="0" y="440.3999999999999" height="7.400000000000034" width="5" fill="#000"></rect><text x="11" y="444.0999999999999" dy="0.35em" text-anchor="start">Disable or Remove Feature or Program</text></g><g><rect x="0" y="415.59999999999997" height="14.799999999999955" width="5" fill="#000"></rect><text x="11" y="422.99999999999994" dy="0.35em" text-anchor="start">Execution Prevention</text></g><g><rect x="0" y="222.39999999999995" height="37" width="5" fill="#000"></rect><text x="11" y="240.89999999999995" dy="0.35em" text-anchor="start">Filter Network Traffic</text></g><g><rect x="0" y="475.19999999999993" height="7.399999999999977" width="5" fill="#000"></rect><text x="11" y="478.8999999999999" dy="0.35em" text-anchor="start">Limit Access to Resource Over Network</text></g><g><rect x="0" y="365.99999999999994" height="14.800000000000011" width="5" fill="#000"></rect><text x="11" y="373.4" dy="0.35em" text-anchor="start">Multi-factor Authentication</text></g><g><rect x="0" y="1.4210854715202004e-13" height="103.59999999999997" width="5" fill="#000"></rect><text x="11" y="51.800000000000125" dy="0.35em" text-anchor="start">Network Intrusion Prevention</text></g><g><rect x="0" y="113.60000000000011" height="44.39999999999998" width="5" fill="#000"></rect><text x="11" y="135.8000000000001" dy="0.35em" text-anchor="start">Network Segmentation</text></g><g><rect x="0" y="341.1999999999999" height="14.800000000000068" width="5" fill="#000"></rect><text x="11" y="348.5999999999999" dy="0.35em" text-anchor="start">Operating System Configuration</text></g><g><rect x="0" y="269.4" height="29.599999999999994" width="5" fill="#000"></rect><text x="11" y="284.2" dy="0.35em" text-anchor="start">Privileged Account Management</text></g><g><rect x="0" y="309" height="22.199999999999875" width="5" fill="#000"></rect><text x="11" y="320.0999999999999" dy="0.35em" text-anchor="start">SSL/TLS Inspection</text></g><g><rect x="0" y="492.5999999999999" height="7.399999999999977" width="5" fill="#000"></rect><text x="11" y="496.2999999999999" dy="0.35em" text-anchor="start">User Account Management</text></g><g><rect x="421" y="403.2000000000002" height="14.800000000000011" width="5" fill="#000"></rect><text x="415" y="410.60000000000025" dy="0.35em" text-anchor="end">commonly used port</text></g><g><rect x="421" y="324.00000000000006" height="29.600000000000136" width="5" fill="#000"></rect><text x="415" y="338.8000000000001" dy="0.35em" text-anchor="end">create account</text></g><g><rect x="421" y="14.999999999999915" height="66.60000000000002" width="5" fill="#000"></rect><text x="415" y="48.299999999999926" dy="0.35em" text-anchor="end">custom command and control protocol</text></g><g><rect x="421" y="452.8000000000002" height="14.799999999999898" width="5" fill="#000"></rect><text x="415" y="460.20000000000016" dy="0.35em" text-anchor="end">custom cryptographic protocol</text></g><g><rect x="421" y="477.6000000000001" height="7.399999999999977" width="5" fill="#000"></rect><text x="415" y="481.30000000000007" dy="0.35em" text-anchor="end">data transfer size limits</text></g><g><rect x="421" y="269.60000000000025" height="44.39999999999981" width="5" fill="#000"></rect><text x="415" y="291.8000000000002" dy="0.35em" text-anchor="end">obfuscated files or information</text></g><g><rect x="421" y="363.6000000000002" height="29.600000000000023" width="5" fill="#000"></rect><text x="415" y="378.4000000000002" dy="0.35em" text-anchor="end">process injection</text></g><g><rect x="421" y="215.2000000000002" height="44.40000000000009" width="5" fill="#000"></rect><text x="415" y="237.40000000000023" dy="0.35em" text-anchor="end">remote access tools</text></g><g><rect x="421" y="91.59999999999994" height="59.200000000000045" width="5" fill="#000"></rect><text x="415" y="121.19999999999996" dy="0.35em" text-anchor="end">remote desktop protocol</text></g><g><rect x="421" y="428.0000000000002" height="14.799999999999955" width="5" fill="#000"></rect><text x="415" y="435.4000000000002" dy="0.35em" text-anchor="end">standard application layer protocol</text></g><g><rect x="421" y="160.79999999999998" height="44.400000000000205" width="5" fill="#000"></rect><text x="415" y="183.00000000000009" dy="0.35em" text-anchor="end">standard cryptographic protocol</text></g></g></g></svg>