<svg width="847" height="520" xmlns="http://www.w3.org/2000/svg" version="1.1"><g transform="translate(0, 10)"><g class="links" fill="none" stroke-opacity="0.4"><path d="M5,30.731707317073116C213,30.731707317073116,213,275.85365853658493,421,275.85365853658493" stroke-width="61.463414634146346" style="stroke: rgb(191, 105, 105);"></path><path d="M5,413.4146341463415C213,413.4146341463415,213,86.82926829268277,421,86.82926829268277" stroke-width="30.731707317073173" style="stroke: rgb(191, 137, 105);"></path><path d="M5,489.75609756097566C213,489.75609756097566,213,418.7804878048777,421,418.7804878048777" stroke-width="20.48780487804878" style="stroke: rgb(191, 169, 105);"></path><path d="M5,377.8048780487806C213,377.8048780487806,213,367.80487804878015,421,367.80487804878015" stroke-width="20.48780487804878" style="stroke: rgb(180, 191, 105);"></path><path d="M5,352.1951219512196C213,352.1951219512196,213,219.75609756097543,421,219.75609756097543" stroke-width="30.731707317073173" style="stroke: rgb(180, 191, 105);"></path><path d="M5,127.8048780487805C213,127.8048780487805,213,474.6341463414635,421,474.6341463414635" stroke-width="10.24390243902439" style="stroke: rgb(148, 191, 105);"></path><path d="M5,112.43902439024392C213,112.43902439024392,213,326.82926829268257,421,326.82926829268257" stroke-width="20.48780487804878" style="stroke: rgb(148, 191, 105);"></path><path d="M5,86.82926829268294C213,86.82926829268294,213,158.29268292682906,421,158.29268292682906" stroke-width="30.731707317073173" style="stroke: rgb(148, 191, 105);"></path><path d="M5,199.26829268292687C213,199.26829268292687,213,484.8780487804879,421,484.8780487804879" stroke-width="10.24390243902439" style="stroke: rgb(116, 191, 105);"></path><path d="M5,183.90243902439028C213,183.90243902439028,213,347.31707317073136,421,347.31707317073136" stroke-width="20.48780487804878" style="stroke: rgb(116, 191, 105);"></path><path d="M5,158.29268292682931C213,158.29268292682931,213,189.02439024390225,421,189.02439024390225" stroke-width="30.731707317073173" style="stroke: rgb(116, 191, 105);"></path><path d="M5,454.1463414634147C213,454.1463414634147,213,117.56097560975593,421,117.56097560975593" stroke-width="30.731707317073173" style="stroke: rgb(105, 191, 126);"></path><path d="M5,255.36585365853665C213,255.36585365853665,213,398.2926829268289,421,398.2926829268289" stroke-width="20.48780487804878" style="stroke: rgb(105, 191, 159);"></path><path d="M5,229.75609756097566C213,229.75609756097566,213,25.365853658536416,421,25.365853658536416" stroke-width="30.731707317073173" style="stroke: rgb(105, 191, 159);"></path><path d="M5,316.58536585365863C213,316.58536585365863,213,449.2682926829266,421,449.2682926829266" stroke-width="20.48780487804878" style="stroke: rgb(105, 191, 191);"></path><path d="M5,290.97560975609764C213,290.97560975609764,213,56.09756097560959,421,56.09756097560959" stroke-width="30.731707317073173" style="stroke: rgb(105, 191, 191);"></path><path d="M426,280.9756097560971C634,280.9756097560971,634,449.39024390243867,842,449.39024390243867" stroke-width="10.24390243902439" style="stroke: rgb(105, 159, 191);"></path><path d="M426,291.2195121951215C634,291.2195121951215,634,469.63414634146307,842,469.63414634146307" stroke-width="10.24390243902439" style="stroke: rgb(105, 159, 191);"></path><path d="M426,270.73170731707273C634,270.73170731707273,634,378.1707317073168,842,378.1707317073168" stroke-width="10.24390243902439" style="stroke: rgb(105, 159, 191);"></path><path d="M426,260.48780487804834C634,260.48780487804834,634,296.46341463414615,842,296.46341463414615" stroke-width="10.24390243902439" style="stroke: rgb(105, 159, 191);"></path><path d="M426,301.4634146341459C634,301.4634146341459,634,489.87804878048746,842,489.87804878048746" stroke-width="10.24390243902439" style="stroke: rgb(105, 159, 191);"></path><path d="M426,250.24390243902397C634,250.24390243902397,634,133.04878048780515,842,133.04878048780515" stroke-width="10.24390243902439" style="stroke: rgb(105, 159, 191);"></path><path d="M426,71.46341463414618C634,71.46341463414618,634,66.4634146341466,842,66.4634146341466" stroke-width="122.92682926829269" style="stroke: rgb(105, 126, 191);"></path><path d="M426,408.5365853658533C634,408.5365853658533,634,413.78048780487785,842,413.78048780487785" stroke-width="40.97560975609756" style="stroke: rgb(116, 105, 191);"></path><path d="M426,331.95121951219477C634,331.95121951219477,634,214.75609756097543,842,214.75609756097543" stroke-width="30.731707317073173" style="stroke: rgb(148, 105, 191);"></path><path d="M426,362.68292682926796C634,362.68292682926796,634,316.95121951219494,842,316.95121951219494" stroke-width="30.731707317073173" style="stroke: rgb(148, 105, 191);"></path><path d="M426,158.29268292682906C634,158.29268292682906,634,184.02439024390227,842,184.02439024390227" stroke-width="30.731707317073173" style="stroke: rgb(180, 105, 191);"></path><path d="M426,219.75609756097543C634,219.75609756097543,634,357.682926829268,842,357.682926829268" stroke-width="30.731707317073173" style="stroke: rgb(180, 105, 191);"></path><path d="M426,189.02439024390225C634,189.02439024390225,634,275.97560975609736,842,275.97560975609736" stroke-width="30.731707317073173" style="stroke: rgb(180, 105, 191);"></path><path d="M426,479.7560975609757C634,479.7560975609757,634,240.36585365853642,842,240.36585365853642" stroke-width="20.48780487804878" style="stroke: rgb(191, 105, 169);"></path><path d="M426,449.2682926829266C634,449.2682926829266,634,148.41463414634174,842,148.41463414634174" stroke-width="20.48780487804878" style="stroke: rgb(191, 105, 137);"></path></g><g class="nodes" font-family="Arial, Helvetica" font-size="10"><g><rect x="842" y="444.26829268292647" height="10.243902439024396" width="5" fill="#000"></rect><text x="836" y="449.39024390243867" dy="0.35em" text-anchor="end">binary file metadata</text></g><g><rect x="842" y="393.29268292682906" height="40.97560975609741" width="5" fill="#000"></rect><text x="836" y="413.7804878048778" dy="0.35em" text-anchor="end">dll monitoring</text></g><g><rect x="842" y="464.51219512195087" height="10.243902439024396" width="5" fill="#000"></rect><text x="836" y="469.63414634146307" dy="0.35em" text-anchor="end">malware reverse engineering</text></g><g><rect x="842" y="168.65853658536568" height="81.95121951219511" width="5" fill="#000"></rect><text x="836" y="209.63414634146324" dy="0.35em" text-anchor="end">netflow/enclave netflow</text></g><g><rect x="842" y="342.3170731707314" height="40.97560975609764" width="5" fill="#000"></rect><text x="836" y="362.8048780487802" dy="0.35em" text-anchor="end">network intrusion detection system</text></g><g><rect x="842" y="260.60975609756076" height="71.70731707317069" width="5" fill="#000"></rect><text x="836" y="296.4634146341461" dy="0.35em" text-anchor="end">network protocol analysis</text></g><g><rect x="842" y="484.75609756097526" height="10.243902439024396" width="5" fill="#000"></rect><text x="836" y="489.87804878048746" dy="0.35em" text-anchor="end">ssl/tls inspection</text></g><g><rect x="842" y="5.000000000000256" height="153.65853658536543" width="5" fill="#000"></rect><text x="836" y="81.82926829268297" dy="0.35em" text-anchor="end">windows event logs</text></g><g><rect x="0" y="-5.684341886080802e-14" height="61.4634146341464" width="5" fill="#000"></rect><text x="11" y="30.731707317073145" dy="0.35em" text-anchor="start">Antivirus/Antimalware</text></g><g><rect x="0" y="398.0487804878049" height="30.731707317073187" width="5" fill="#000"></rect><text x="11" y="413.4146341463415" dy="0.35em" text-anchor="start">Audit</text></g><g><rect x="0" y="479.51219512195127" height="20.48780487804879" width="5" fill="#000"></rect><text x="11" y="489.75609756097566" dy="0.35em" text-anchor="start">Behavior Prevention on Endpoint</text></g><g><rect x="0" y="336.829268292683" height="51.219512195121865" width="5" fill="#000"></rect><text x="11" y="362.43902439024396" dy="0.35em" text-anchor="start">Filter Network Traffic</text></g><g><rect x="0" y="71.46341463414635" height="61.46341463414638" width="5" fill="#000"></rect><text x="11" y="102.19512195121953" dy="0.35em" text-anchor="start">Network Intrusion Prevention</text></g><g><rect x="0" y="142.92682926829272" height="61.463414634146346" width="5" fill="#000"></rect><text x="11" y="173.65853658536588" dy="0.35em" text-anchor="start">Network Segmentation</text></g><g><rect x="0" y="438.7804878048781" height="30.731707317073187" width="5" fill="#000"></rect><text x="11" y="454.1463414634147" dy="0.35em" text-anchor="start">Operating System Configuration</text></g><g><rect x="0" y="214.39024390243907" height="51.21951219512198" width="5" fill="#000"></rect><text x="11" y="240.00000000000006" dy="0.35em" text-anchor="start">Privileged Account Management</text></g><g><rect x="0" y="275.60975609756105" height="51.21951219512198" width="5" fill="#000"></rect><text x="11" y="301.21951219512204" dy="0.35em" text-anchor="start">User Account Management</text></g><g><rect x="421" y="469.5121951219513" height="20.48780487804879" width="5" fill="#000"></rect><text x="415" y="479.7560975609757" dy="0.35em" text-anchor="end">commonly used port</text></g><g><rect x="421" y="316.5853658536582" height="61.463414634146346" width="5" fill="#000"></rect><text x="415" y="347.31707317073136" dy="0.35em" text-anchor="end">exfiltration over alternative protocol</text></g><g><rect x="421" y="439.0243902439022" height="20.487804878049133" width="5" fill="#000"></rect><text x="415" y="449.26829268292676" dy="0.35em" text-anchor="end">new service</text></g><g><rect x="421" y="245.12195121951177" height="61.4634146341464" width="5" fill="#000"></rect><text x="415" y="275.853658536585" dy="0.35em" text-anchor="end">obfuscated files or information</text></g><g><rect x="421" y="388.0487804878045" height="40.9756097560977" width="5" fill="#000"></rect><text x="415" y="408.53658536585334" dy="0.35em" text-anchor="end">process injection</text></g><g><rect x="421" y="9.99999999999983" height="122.92682926829264" width="5" fill="#000"></rect><text x="415" y="71.46341463414615" dy="0.35em" text-anchor="end">scheduled task</text></g><g><rect x="421" y="142.92682926829247" height="92.1951219512193" width="5" fill="#000"></rect><text x="415" y="189.02439024390213" dy="0.35em" text-anchor="end">standard non-application layer protocol</text></g></g></g></svg>