<svg width="847" height="520" xmlns="http://www.w3.org/2000/svg" version="1.1"><g transform="translate(0, 10)"><g class="links" fill="none" stroke-opacity="0.4"><path d="M5,260.00000000000006C213,260.00000000000006,213,39.999999999999886,421,39.999999999999886" stroke-width="80" style="stroke: rgb(191, 105, 105);"></path><path d="M5,323.33333333333337C213,323.33333333333337,213,230.00000000000014,421,230.00000000000014" stroke-width="26.666666666666668" style="stroke: rgb(191, 131, 105);"></path><path d="M5,413.3333333333334C213,413.3333333333334,213,173.33333333333348,421,173.33333333333348" stroke-width="13.333333333333334" style="stroke: rgb(191, 156, 105);"></path><path d="M5,70.00000000000017C213,70.00000000000017,213,160.00000000000014,421,160.00000000000014" stroke-width="13.333333333333334" style="stroke: rgb(191, 182, 105);"></path><path d="M5,203.33333333333348C213,203.33333333333348,213,470.00000000000006,421,470.00000000000006" stroke-width="13.333333333333334" style="stroke: rgb(191, 182, 105);"></path><path d="M5,90.00000000000017C213,90.00000000000017,213,293.33333333333337,421,293.33333333333337" stroke-width="26.666666666666668" style="stroke: rgb(191, 182, 105);"></path><path d="M5,156.66666666666686C213,156.66666666666686,213,403.3333333333334,421,403.3333333333334" stroke-width="26.666666666666668" style="stroke: rgb(191, 182, 105);"></path><path d="M5,183.3333333333335C213,183.3333333333335,213,440.00000000000006,421,440.00000000000006" stroke-width="26.666666666666668" style="stroke: rgb(191, 182, 105);"></path><path d="M5,136.66666666666683C213,136.66666666666683,213,360.00000000000017,421,360.00000000000017" stroke-width="13.333333333333334" style="stroke: rgb(191, 182, 105);"></path><path d="M5,116.66666666666684C213,116.66666666666684,213,330.0000000000001,421,330.0000000000001" stroke-width="26.666666666666668" style="stroke: rgb(191, 182, 105);"></path><path d="M5,36.66666666666684C213,36.66666666666684,213,116.66666666666679,421,116.66666666666679" stroke-width="53.333333333333336" style="stroke: rgb(191, 182, 105);"></path><path d="M5,390.00000000000006C213,390.00000000000006,213,373.3333333333335,421,373.3333333333335" stroke-width="13.333333333333334" style="stroke: rgb(174, 191, 105);"></path><path d="M5,360.00000000000006C213,360.00000000000006,213,256.6666666666668,421,256.6666666666668" stroke-width="26.666666666666668" style="stroke: rgb(148, 191, 105);"></path><path d="M5,483.33333333333337C213,483.33333333333337,213,493.3333333333334,421,493.3333333333334" stroke-width="13.333333333333334" style="stroke: rgb(122, 191, 105);"></path><path d="M5,460.00000000000006C213,460.00000000000006,213,200.00000000000017,421,200.00000000000017" stroke-width="13.333333333333334" style="stroke: rgb(105, 191, 114);"></path><path d="M5,436.66666666666674C213,436.66666666666674,213,186.66666666666683,421,186.66666666666683" stroke-width="13.333333333333334" style="stroke: rgb(105, 191, 139);"></path><path d="M426,46.66666666666655C634,46.66666666666655,634,423.3333333333334,842,423.3333333333334" stroke-width="13.333333333333334" style="stroke: rgb(105, 191, 165);"></path><path d="M426,6.666666666666553C634,6.666666666666553,634,146.66666666666674,842,146.66666666666674" stroke-width="13.333333333333334" style="stroke: rgb(105, 191, 165);"></path><path d="M426,73.33333333333323C634,73.33333333333323,634,483.3333333333335,842,483.3333333333335" stroke-width="13.333333333333334" style="stroke: rgb(105, 191, 165);"></path><path d="M426,19.999999999999886C634,19.999999999999886,634,336.6666666666667,842,336.6666666666667" stroke-width="13.333333333333334" style="stroke: rgb(105, 191, 165);"></path><path d="M426,59.999999999999886C634,59.999999999999886,634,460.0000000000001,842,460.0000000000001" stroke-width="13.333333333333334" style="stroke: rgb(105, 191, 165);"></path><path d="M426,33.33333333333322C634,33.33333333333322,634,386.6666666666667,842,386.6666666666667" stroke-width="13.333333333333334" style="stroke: rgb(105, 191, 165);"></path><path d="M426,243.33333333333346C634,243.33333333333346,634,293.3333333333334,842,293.3333333333334" stroke-width="53.333333333333336" style="stroke: rgb(105, 191, 191);"></path><path d="M426,180.00000000000014C634,180.00000000000014,634,230.0000000000001,842,230.0000000000001" stroke-width="53.333333333333336" style="stroke: rgb(105, 165, 191);"></path><path d="M426,470.00000000000006C634,470.00000000000006,634,436.66666666666674,842,436.66666666666674" stroke-width="13.333333333333334" style="stroke: rgb(105, 139, 191);"></path><path d="M426,300.00000000000006C634,300.00000000000006,634,160.00000000000009,842,160.00000000000009" stroke-width="13.333333333333334" style="stroke: rgb(105, 114, 191);"></path><path d="M426,286.66666666666674C634,286.66666666666674,634,43.33333333333325,842,43.33333333333325" stroke-width="13.333333333333334" style="stroke: rgb(105, 114, 191);"></path><path d="M426,410.0000000000001C634,410.0000000000001,634,173.33333333333343,842,173.33333333333343" stroke-width="13.333333333333334" style="stroke: rgb(122, 105, 191);"></path><path d="M426,396.6666666666668C634,396.6666666666668,634,109.99999999999993,842,109.99999999999993" stroke-width="13.333333333333334" style="stroke: rgb(122, 105, 191);"></path><path d="M426,446.66666666666674C634,446.66666666666674,634,186.66666666666677,842,186.66666666666677" stroke-width="13.333333333333334" style="stroke: rgb(148, 105, 191);"></path><path d="M426,433.3333333333334C634,433.3333333333334,634,123.33333333333326,842,123.33333333333326" stroke-width="13.333333333333334" style="stroke: rgb(148, 105, 191);"></path><path d="M426,366.6666666666668C634,366.6666666666668,634,89.99999999999991,842,89.99999999999991" stroke-width="26.666666666666668" style="stroke: rgb(174, 105, 191);"></path><path d="M426,330.0000000000001C634,330.0000000000001,634,63.33333333333326,842,63.33333333333326" stroke-width="26.666666666666668" style="stroke: rgb(191, 105, 182);"></path><path d="M426,103.33333333333344C634,103.33333333333344,634,23.33333333333325,842,23.33333333333325" stroke-width="26.666666666666668" style="stroke: rgb(191, 105, 156);"></path><path d="M426,130.0000000000001C634,130.0000000000001,634,356.66666666666663,842,356.66666666666663" stroke-width="26.666666666666668" style="stroke: rgb(191, 105, 156);"></path><path d="M426,493.3333333333334C634,493.3333333333334,634,400,842,400" stroke-width="13.333333333333334" style="stroke: rgb(191, 105, 131);"></path></g><g class="nodes" font-family="Arial, Helvetica" font-size="10"><g><rect x="842" y="203.33333333333346" height="53.333333333333314" width="5" fill="#000"></rect><text x="836" y="230.0000000000001" dy="0.35em" text-anchor="end">anti-virus</text></g><g><rect x="842" y="416.66666666666674" height="26.666666666666686" width="5" fill="#000"></rect><text x="836" y="430.0000000000001" dy="0.35em" text-anchor="end">binary file metadata</text></g><g><rect x="842" y="266.66666666666674" height="53.33333333333326" width="5" fill="#000"></rect><text x="836" y="293.33333333333337" dy="0.35em" text-anchor="end">dll monitoring</text></g><g><rect x="842" y="140.00000000000009" height="53.33333333333337" width="5" fill="#000"></rect><text x="836" y="166.66666666666677" dy="0.35em" text-anchor="end">malware reverse engineering</text></g><g><rect x="842" y="9.999999999999915" height="120.00000000000017" width="5" fill="#000"></rect><text x="836" y="70" dy="0.35em" text-anchor="end">netflow/enclave netflow</text></g><g><rect x="842" y="476.6666666666668" height="13.333333333333258" width="5" fill="#000"></rect><text x="836" y="483.3333333333334" dy="0.35em" text-anchor="end">network intrusion detection system</text></g><g><rect x="842" y="330" height="40" width="5" fill="#000"></rect><text x="836" y="350" dy="0.35em" text-anchor="end">network protocol analysis</text></g><g><rect x="842" y="453.3333333333334" height="13.333333333333371" width="5" fill="#000"></rect><text x="836" y="460.0000000000001" dy="0.35em" text-anchor="end">ssl/tls inspection</text></g><g><rect x="842" y="380" height="26.666666666666742" width="5" fill="#000"></rect><text x="836" y="393.33333333333337" dy="0.35em" text-anchor="end">windows event logs</text></g><g><rect x="0" y="220.00000000000006" height="80" width="5" fill="#000"></rect><text x="11" y="260.00000000000006" dy="0.35em" text-anchor="start">Antivirus/Antimalware</text></g><g><rect x="0" y="310.00000000000006" height="26.66666666666667" width="5" fill="#000"></rect><text x="11" y="323.33333333333337" dy="0.35em" text-anchor="start">Behavior Prevention on Endpoint</text></g><g><rect x="0" y="406.66666666666674" height="13.333333333333318" width="5" fill="#000"></rect><text x="11" y="413.3333333333334" dy="0.35em" text-anchor="start">Execution Prevention</text></g><g><rect x="0" y="10.00000000000017" height="199.9999999999999" width="5" fill="#000"></rect><text x="11" y="110.00000000000011" dy="0.35em" text-anchor="start">Network Intrusion Prevention</text></g><g><rect x="0" y="383.33333333333337" height="13.333333333333371" width="5" fill="#000"></rect><text x="11" y="390.00000000000006" dy="0.35em" text-anchor="start">Network Segmentation</text></g><g><rect x="0" y="346.66666666666674" height="26.666666666666657" width="5" fill="#000"></rect><text x="11" y="360.00000000000006" dy="0.35em" text-anchor="start">Privileged Account Management</text></g><g><rect x="0" y="476.6666666666667" height="13.333333333333144" width="5" fill="#000"></rect><text x="11" y="483.33333333333326" dy="0.35em" text-anchor="start">Restrict Registry Permissions</text></g><g><rect x="0" y="453.33333333333337" height="13.3333333333333" width="5" fill="#000"></rect><text x="11" y="460" dy="0.35em" text-anchor="start">Restrict Web-Based Content</text></g><g><rect x="0" y="430.00000000000006" height="13.333333333333314" width="5" fill="#000"></rect><text x="11" y="436.66666666666674" dy="0.35em" text-anchor="start">User Training</text></g><g><rect x="421" y="353.3333333333335" height="26.66666666666663" width="5" fill="#000"></rect><text x="415" y="366.6666666666668" dy="0.35em" text-anchor="end">commonly used port</text></g><g><rect x="421" y="316.6666666666668" height="26.666666666666686" width="5" fill="#000"></rect><text x="415" y="330.0000000000001" dy="0.35em" text-anchor="end">connection proxy</text></g><g><rect x="421" y="280.00000000000006" height="26.666666666666742" width="5" fill="#000"></rect><text x="415" y="293.3333333333334" dy="0.35em" text-anchor="end">custom cryptographic protocol</text></g><g><rect x="421" y="463.33333333333337" height="13.333333333333371" width="5" fill="#000"></rect><text x="415" y="470.00000000000006" dy="0.35em" text-anchor="end">data compressed</text></g><g><rect x="421" y="390.0000000000001" height="26.66666666666663" width="5" fill="#000"></rect><text x="415" y="403.3333333333334" dy="0.35em" text-anchor="end">fallback channels</text></g><g><rect x="421" y="486.66666666666674" height="13.333333333333371" width="5" fill="#000"></rect><text x="415" y="493.3333333333334" dy="0.35em" text-anchor="end">modify registry</text></g><g><rect x="421" y="-1.1368683772161603e-13" height="80.00000000000023" width="5" fill="#000"></rect><text x="415" y="40" dy="0.35em" text-anchor="end">obfuscated files or information</text></g><g><rect x="421" y="216.6666666666668" height="53.33333333333327" width="5" fill="#000"></rect><text x="415" y="243.33333333333343" dy="0.35em" text-anchor="end">process injection</text></g><g><rect x="421" y="90.00000000000011" height="53.33333333333337" width="5" fill="#000"></rect><text x="415" y="116.6666666666668" dy="0.35em" text-anchor="end">remote file copy</text></g><g><rect x="421" y="426.66666666666674" height="26.66666666666663" width="5" fill="#000"></rect><text x="415" y="440.00000000000006" dy="0.35em" text-anchor="end">standard application layer protocol</text></g><g><rect x="421" y="153.33333333333348" height="53.3333333333333" width="5" fill="#000"></rect><text x="415" y="180.00000000000014" dy="0.35em" text-anchor="end">user execution</text></g></g></g></svg>