<svg width="847" height="520" xmlns="http://www.w3.org/2000/svg" version="1.1"><g transform="translate(0, 10)"><g class="links" fill="none" stroke-opacity="0.4"><path d="M5,375.0000000000003C213,375.0000000000003,213,201.6666666666668,421,201.6666666666668" stroke-width="76.66666666666667" style="stroke: rgb(191, 105, 105);"></path><path d="M5,201.6666666666668C213,201.6666666666668,213,48.33333333333345,421,48.33333333333345" stroke-width="76.66666666666667" style="stroke: rgb(191, 169, 105);"></path><path d="M5,288.3333333333336C213,288.3333333333336,213,125.00000000000011,421,125.00000000000011" stroke-width="76.66666666666667" style="stroke: rgb(148, 191, 105);"></path><path d="M5,461.666666666667C213,461.666666666667,213,451.6666666666667,421,451.6666666666667" stroke-width="76.66666666666667" style="stroke: rgb(105, 191, 126);"></path><path d="M5,76.66666666666681C213,76.66666666666681,213,326.66666666666674,421,326.66666666666674" stroke-width="153.33333333333334" style="stroke: rgb(105, 191, 191);"></path><path d="M426,125.00000000000011C634,125.00000000000011,634,370,842,370" stroke-width="230" style="stroke: rgb(105, 126, 191);"></path><path d="M426,451.6666666666667C634,451.6666666666667,634,206.66666666666669,842,206.66666666666669" stroke-width="76.66666666666667" style="stroke: rgb(148, 105, 191);"></path><path d="M426,326.66666666666674C634,326.66666666666674,634,91.66666666666667,842,91.66666666666667" stroke-width="153.33333333333334" style="stroke: rgb(191, 105, 169);"></path></g><g class="nodes" font-family="Arial, Helvetica" font-size="10"><g><rect x="842" y="255" height="229.99999999999997" width="5" fill="#000"></rect><text x="836" y="370" dy="0.35em" text-anchor="end">binary file metadata</text></g><g><rect x="842" y="15" height="230" width="5" fill="#000"></rect><text x="836" y="130" dy="0.35em" text-anchor="end">windows event logs</text></g><g><rect x="0" y="336.66666666666697" height="76.66666666666671" width="5" fill="#000"></rect><text x="11" y="375.00000000000034" dy="0.35em" text-anchor="start">Code Signing</text></g><g><rect x="0" y="163.33333333333346" height="76.6666666666668" width="5" fill="#000"></rect><text x="11" y="201.66666666666686" dy="0.35em" text-anchor="start">Execution Prevention</text></g><g><rect x="0" y="250.00000000000026" height="76.66666666666674" width="5" fill="#000"></rect><text x="11" y="288.3333333333336" dy="0.35em" text-anchor="start">Restrict File and Directory Permissions</text></g><g><rect x="0" y="423.3333333333337" height="76.66666666666617" width="5" fill="#000"></rect><text x="11" y="461.6666666666668" dy="0.35em" text-anchor="start">Restrict Registry Permissions</text></g><g><rect x="0" y="1.4210854715202004e-13" height="153.33333333333331" width="5" fill="#000"></rect><text x="11" y="76.6666666666668" dy="0.35em" text-anchor="start">User Account Management</text></g><g><rect x="421" y="10.000000000000114" height="229.99999999999997" width="5" fill="#000"></rect><text x="415" y="125.0000000000001" dy="0.35em" text-anchor="end">masquerading</text></g><g><rect x="421" y="413.33333333333337" height="76.66666666666657" width="5" fill="#000"></rect><text x="415" y="451.66666666666663" dy="0.35em" text-anchor="end">modify registry</text></g><g><rect x="421" y="250.00000000000009" height="153.33333333333326" width="5" fill="#000"></rect><text x="415" y="326.66666666666674" dy="0.35em" text-anchor="end">new service</text></g></g></g></svg>