<svg width="847" height="520" xmlns="http://www.w3.org/2000/svg" version="1.1"><g transform="translate(0, 10)"><g class="links" fill="none" stroke-opacity="0.4"><path d="M5,233.49999999999994C213,233.49999999999994,213,108.49999999999957,421,108.49999999999957" stroke-width="69" style="stroke: rgb(191, 105, 105);"></path><path d="M5,302.49999999999994C213,302.49999999999994,213,404.50000000000034,421,404.50000000000034" stroke-width="69" style="stroke: rgb(191, 105, 105);"></path><path d="M5,108.5C213,108.5,213,256.4999999999998,421,256.4999999999998" stroke-width="69" style="stroke: rgb(191, 169, 105);"></path><path d="M5,39.5C213,39.5,213,39.499999999999574,421,39.499999999999574" stroke-width="69" style="stroke: rgb(191, 169, 105);"></path><path d="M5,166C213,166,213,472.00000000000034,421,472.00000000000034" stroke-width="46" style="stroke: rgb(191, 169, 105);"></path><path d="M5,381.49999999999983C213,381.49999999999983,213,177.49999999999957,421,177.49999999999957" stroke-width="69" style="stroke: rgb(148, 191, 105);"></path><path d="M5,460.49999999999994C213,460.49999999999994,213,325.4999999999998,421,325.4999999999998" stroke-width="69" style="stroke: rgb(105, 191, 126);"></path><path d="M426,39.499999999999574C634,39.499999999999574,634,34.5,842,34.5" stroke-width="69" style="stroke: rgb(105, 191, 191);"></path><path d="M426,177.49999999999957C634,177.49999999999957,634,353.49999999999994,842,353.49999999999994" stroke-width="69" style="stroke: rgb(105, 191, 191);"></path><path d="M426,108.49999999999957C634,108.49999999999957,634,251.49999999999994,842,251.49999999999994" stroke-width="69" style="stroke: rgb(105, 191, 191);"></path><path d="M426,404.50000000000034C634,404.50000000000034,634,149.5,842,149.5" stroke-width="69" style="stroke: rgb(105, 126, 191);"></path><path d="M426,290.9999999999998C634,290.9999999999998,634,420.9999999999999,842,420.9999999999999" stroke-width="46" style="stroke: rgb(148, 105, 191);"></path><path d="M426,244.99999999999974C634,244.99999999999974,634,92,842,92" stroke-width="46" style="stroke: rgb(148, 105, 191);"></path><path d="M426,336.9999999999998C634,336.9999999999998,634,477,842,477" stroke-width="46" style="stroke: rgb(148, 105, 191);"></path><path d="M426,460.50000000000034C634,460.50000000000034,634,195.5,842,195.5" stroke-width="23" style="stroke: rgb(191, 105, 169);"></path><path d="M426,483.50000000000034C634,483.50000000000034,634,297.49999999999994,842,297.49999999999994" stroke-width="23" style="stroke: rgb(191, 105, 169);"></path></g><g class="nodes" font-family="Arial, Helvetica" font-size="10"><g><rect x="842" y="397.9999999999999" height="46.000000000000114" width="5" fill="#000"></rect><text x="836" y="420.99999999999994" dy="0.35em" text-anchor="end">malware reverse engineering</text></g><g><rect x="842" y="0" height="206.99999999999994" width="5" fill="#000"></rect><text x="836" y="103.49999999999997" dy="0.35em" text-anchor="end">netflow/enclave netflow</text></g><g><rect x="842" y="318.99999999999994" height="68.99999999999994" width="5" fill="#000"></rect><text x="836" y="353.4999999999999" dy="0.35em" text-anchor="end">network intrusion detection system</text></g><g><rect x="842" y="216.99999999999994" height="92" width="5" fill="#000"></rect><text x="836" y="262.99999999999994" dy="0.35em" text-anchor="end">network protocol analysis</text></g><g><rect x="842" y="454" height="46" width="5" fill="#000"></rect><text x="836" y="477" dy="0.35em" text-anchor="end">ssl/tls inspection</text></g><g><rect x="0" y="198.99999999999994" height="137.9999999999999" width="5" fill="#000"></rect><text x="11" y="267.9999999999999" dy="0.35em" text-anchor="start">Filter Network Traffic</text></g><g><rect x="0" y="5" height="183.99999999999994" width="5" fill="#000"></rect><text x="11" y="96.99999999999997" dy="0.35em" text-anchor="start">Network Intrusion Prevention</text></g><g><rect x="0" y="346.99999999999983" height="69.00000000000011" width="5" fill="#000"></rect><text x="11" y="381.4999999999999" dy="0.35em" text-anchor="start">Network Segmentation</text></g><g><rect x="0" y="425.99999999999994" height="69.00000000000006" width="5" fill="#000"></rect><text x="11" y="460.5" dy="0.35em" text-anchor="start">SSL/TLS Inspection</text></g><g><rect x="421" y="4.999999999999574" height="207.00000000000017" width="5" fill="#000"></rect><text x="415" y="108.49999999999966" dy="0.35em" text-anchor="end">custom command and control protocol</text></g><g><rect x="421" y="449.00000000000034" height="46.000000000000114" width="5" fill="#000"></rect><text x="415" y="472.0000000000004" dy="0.35em" text-anchor="end">multi-stage channels</text></g><g><rect x="421" y="370.00000000000034" height="69" width="5" fill="#000"></rect><text x="415" y="404.50000000000034" dy="0.35em" text-anchor="end">port knocking</text></g><g><rect x="421" y="221.99999999999974" height="138.00000000000057" width="5" fill="#000"></rect><text x="415" y="291" dy="0.35em" text-anchor="end">standard cryptographic protocol</text></g></g></g></svg>