<svg width="847" height="520" xmlns="http://www.w3.org/2000/svg" version="1.1"><g transform="translate(0, 10)"><g class="links" fill="none" stroke-opacity="0.4"><path d="M5,488.15789473684214C213,488.15789473684214,213,316.0526315789473,421,316.0526315789473" stroke-width="23.68421052631579" style="stroke: rgb(191, 105, 105);"></path><path d="M5,420.7894736842105C213,420.7894736842105,213,292.3684210526315,421,292.3684210526315" stroke-width="23.68421052631579" style="stroke: rgb(191, 148, 105);"></path><path d="M5,189.47368421052636C213,189.47368421052636,213,361.57894736842087,421,361.57894736842087" stroke-width="47.36842105263158" style="stroke: rgb(191, 191, 105);"></path><path d="M5,236.84210526315795C213,236.84210526315795,213,476.31578947368416,421,476.31578947368416" stroke-width="47.36842105263158" style="stroke: rgb(191, 191, 105);"></path><path d="M5,35.52631578947371C213,35.52631578947371,213,35.52631578947377,421,35.52631578947377" stroke-width="71.05263157894737" style="stroke: rgb(191, 191, 105);"></path><path d="M5,118.42105263157899C213,118.42105263157899,213,199.4736842105263,421,199.4736842105263" stroke-width="94.73684210526316" style="stroke: rgb(191, 191, 105);"></path><path d="M5,387.10526315789474C213,387.10526315789474,213,407.1052631578947,421,407.1052631578947" stroke-width="23.68421052631579" style="stroke: rgb(148, 191, 105);"></path><path d="M5,363.42105263157896C213,363.42105263157896,213,268.6842105263157,421,268.6842105263157" stroke-width="23.68421052631579" style="stroke: rgb(148, 191, 105);"></path><path d="M5,306.05263157894734C213,306.05263157894734,213,106.57894736842114,421,106.57894736842114" stroke-width="71.05263157894737" style="stroke: rgb(105, 191, 105);"></path><path d="M5,454.47368421052636C213,454.47368421052636,213,430.78947368421046,421,430.78947368421046" stroke-width="23.68421052631579" style="stroke: rgb(105, 191, 148);"></path><path d="M426,292.3684210526315C634,292.3684210526315,634,292.3684210526316,842,292.3684210526316" stroke-width="71.05263157894737" style="stroke: rgb(105, 191, 191);"></path><path d="M426,373.4210526315788C634,373.4210526315788,634,211.3157894736844,842,211.3157894736844" stroke-width="23.68421052631579" style="stroke: rgb(105, 148, 191);"></path><path d="M426,349.736842105263C634,349.736842105263,634,106.57894736842125,842,106.57894736842125" stroke-width="23.68421052631579" style="stroke: rgb(105, 148, 191);"></path><path d="M426,488.1578947368421C634,488.1578947368421,634,235.00000000000017,842,235.00000000000017" stroke-width="23.68421052631579" style="stroke: rgb(105, 105, 191);"></path><path d="M426,464.4736842105263C634,464.4736842105263,634,130.26315789473705,842,130.26315789473705" stroke-width="23.68421052631579" style="stroke: rgb(105, 105, 191);"></path><path d="M426,71.05263157894746C634,71.05263157894746,634,175.7894736842107,842,175.7894736842107" stroke-width="47.36842105263158" style="stroke: rgb(148, 105, 191);"></path><path d="M426,23.684210526315876C634,23.684210526315876,634,23.68421052631599,842,23.68421052631599" stroke-width="47.36842105263158" style="stroke: rgb(148, 105, 191);"></path><path d="M426,118.42105263157904C634,118.42105263157904,634,476.315789473684,842,476.315789473684" stroke-width="47.36842105263158" style="stroke: rgb(148, 105, 191);"></path><path d="M426,175.7894736842105C634,175.7894736842105,634,71.05263157894757,842,71.05263157894757" stroke-width="47.36842105263158" style="stroke: rgb(191, 105, 191);"></path><path d="M426,223.15789473684208C634,223.15789473684208,634,361.5789473684208,842,361.5789473684208" stroke-width="47.36842105263158" style="stroke: rgb(191, 105, 191);"></path><path d="M426,418.94736842105254C634,418.94736842105254,634,418.94736842105243,842,418.94736842105243" stroke-width="47.36842105263158" style="stroke: rgb(191, 105, 148);"></path></g><g class="nodes" font-family="Arial, Helvetica" font-size="10"><g><rect x="842" y="395.26315789473665" height="47.368421052631575" width="5" fill="#000"></rect><text x="836" y="418.94736842105243" dy="0.35em" text-anchor="end">anti-virus</text></g><g><rect x="842" y="256.8421052631579" height="71.05263157894711" width="5" fill="#000"></rect><text x="836" y="292.36842105263145" dy="0.35em" text-anchor="end">binary file metadata</text></g><g><rect x="842" y="152.1052631578949" height="94.73684210526301" width="5" fill="#000"></rect><text x="836" y="199.47368421052641" dy="0.35em" text-anchor="end">malware reverse engineering</text></g><g><rect x="842" y="1.9895196601282805e-13" height="142.1052631578947" width="5" fill="#000"></rect><text x="836" y="71.05263157894755" dy="0.35em" text-anchor="end">netflow/enclave netflow</text></g><g><rect x="842" y="337.89473684210503" height="47.36842105263162" width="5" fill="#000"></rect><text x="836" y="361.5789473684208" dy="0.35em" text-anchor="end">network protocol analysis</text></g><g><rect x="842" y="452.6315789473682" height="47.36842105263156" width="5" fill="#000"></rect><text x="836" y="476.315789473684" dy="0.35em" text-anchor="end">ssl/tls inspection</text></g><g><rect x="0" y="476.3157894736842" height="23.68421052631578" width="5" fill="#000"></rect><text x="11" y="488.1578947368421" dy="0.35em" text-anchor="start">Code Signing</text></g><g><rect x="0" y="408.9473684210526" height="23.68421052631581" width="5" fill="#000"></rect><text x="11" y="420.7894736842105" dy="0.35em" text-anchor="start">Execution Prevention</text></g><g><rect x="0" y="2.842170943040401e-14" height="260.52631578947364" width="5" fill="#000"></rect><text x="11" y="130.26315789473685" dy="0.35em" text-anchor="start">Network Intrusion Prevention</text></g><g><rect x="0" y="351.57894736842104" height="47.36842105263153" width="5" fill="#000"></rect><text x="11" y="375.2631578947368" dy="0.35em" text-anchor="start">Restrict File and Directory Permissions</text></g><g><rect x="0" y="270.52631578947364" height="71.0526315789474" width="5" fill="#000"></rect><text x="11" y="306.05263157894734" dy="0.35em" text-anchor="start">SSL/TLS Inspection</text></g><g><rect x="0" y="442.63157894736844" height="23.684210526315784" width="5" fill="#000"></rect><text x="11" y="454.47368421052636" dy="0.35em" text-anchor="start">User Account Management</text></g><g><rect x="421" y="337.8947368421051" height="47.368421052631675" width="5" fill="#000"></rect><text x="415" y="361.5789473684209" dy="0.35em" text-anchor="end">custom cryptographic protocol</text></g><g><rect x="421" y="395.26315789473676" height="47.3684210526316" width="5" fill="#000"></rect><text x="415" y="418.94736842105254" dy="0.35em" text-anchor="end">disabling security tools</text></g><g><rect x="421" y="256.8421052631578" height="71.05263157894728" width="5" fill="#000"></rect><text x="415" y="292.36842105263145" dy="0.35em" text-anchor="end">masquerading</text></g><g><rect x="421" y="152.1052631578947" height="94.73684210526307" width="5" fill="#000"></rect><text x="415" y="199.47368421052624" dy="0.35em" text-anchor="end">remote file copy</text></g><g><rect x="421" y="452.6315789473684" height="47.36842105263156" width="5" fill="#000"></rect><text x="415" y="476.31578947368416" dy="0.35em" text-anchor="end">standard application layer protocol</text></g><g><rect x="421" y="8.526512829121202e-14" height="142.10526315789463" width="5" fill="#000"></rect><text x="415" y="71.0526315789474" dy="0.35em" text-anchor="end">standard cryptographic protocol</text></g></g></g></svg>