<svg width="847" height="520" xmlns="http://www.w3.org/2000/svg" version="1.1"><g transform="translate(0, 10)"><g class="links" fill="none" stroke-opacity="0.4"><path d="M5,352.0000000000003C213,352.0000000000003,213,438.99999999999994,421,438.99999999999994" stroke-width="92" style="stroke: rgb(191, 105, 105);"></path><path d="M5,148.00000000000017C213,148.00000000000017,213,153.00000000000017,421,153.00000000000017" stroke-width="92" style="stroke: rgb(191, 179, 105);"></path><path d="M5,454.0000000000003C213,454.0000000000003,213,245.00000000000017,421,245.00000000000017" stroke-width="92" style="stroke: rgb(130, 191, 105);"></path><path d="M5,45.999999999999716C213,45.999999999999716,213,61.00000000000017,421,61.00000000000017" stroke-width="92" style="stroke: rgb(105, 191, 154);"></path><path d="M5,250.00000000000026C213,250.00000000000026,213,346.99999999999994,421,346.99999999999994" stroke-width="92" style="stroke: rgb(105, 154, 191);"></path><path d="M426,392.99999999999994C634,392.99999999999994,634,102.00000000000011,842,102.00000000000011" stroke-width="184" style="stroke: rgb(130, 105, 191);"></path><path d="M426,84.00000000000017C634,84.00000000000017,634,273.0000000000001,842,273.0000000000001" stroke-width="138" style="stroke: rgb(191, 105, 179);"></path><path d="M426,222.00000000000017C634,222.00000000000017,634,421.0000000000001,842,421.0000000000001" stroke-width="138" style="stroke: rgb(191, 105, 179);"></path></g><g class="nodes" font-family="Arial, Helvetica" font-size="10"><g><rect x="842" y="10.000000000000114" height="184.00000000000003" width="5" fill="#000"></rect><text x="836" y="102.00000000000013" dy="0.35em" text-anchor="end">loaded dlls</text></g><g><rect x="842" y="204.00000000000014" height="138" width="5" fill="#000"></rect><text x="836" y="273.0000000000001" dy="0.35em" text-anchor="end">netflow/enclave netflow</text></g><g><rect x="842" y="352.0000000000001" height="137.99999999999977" width="5" fill="#000"></rect><text x="836" y="421" dy="0.35em" text-anchor="end">network protocol analysis</text></g><g><rect x="0" y="306.0000000000003" height="92" width="5" fill="#000"></rect><text x="11" y="352.0000000000003" dy="0.35em" text-anchor="start">Execution Prevention</text></g><g><rect x="0" y="102.00000000000017" height="92.00000000000009" width="5" fill="#000"></rect><text x="11" y="148.00000000000023" dy="0.35em" text-anchor="start">Filter Network Traffic</text></g><g><rect x="0" y="408.0000000000003" height="92" width="5" fill="#000"></rect><text x="11" y="454.0000000000003" dy="0.35em" text-anchor="start">Network Intrusion Prevention</text></g><g><rect x="0" y="-2.8421709430404007e-13" height="92.00000000000045" width="5" fill="#000"></rect><text x="11" y="45.99999999999994" dy="0.35em" text-anchor="start">Network Segmentation</text></g><g><rect x="0" y="204.00000000000026" height="92.00000000000003" width="5" fill="#000"></rect><text x="11" y="250.00000000000028" dy="0.35em" text-anchor="start">Update Software</text></g><g><rect x="421" y="300.99999999999994" height="183.99999999999991" width="5" fill="#000"></rect><text x="415" y="392.9999999999999" dy="0.35em" text-anchor="end">appinit dlls</text></g><g><rect x="421" y="15.00000000000017" height="275.9999999999998" width="5" fill="#000"></rect><text x="415" y="153.00000000000006" dy="0.35em" text-anchor="end">exfiltration over alternative protocol</text></g></g></g></svg>