<svg width="847" height="520" xmlns="http://www.w3.org/2000/svg" version="1.1"><g transform="translate(0, 10)"><g class="links" fill="none" stroke-opacity="0.4"><path d="M5,489.2857142857142C213,489.2857142857142,213,484.2857142857148,421,484.2857142857148" stroke-width="21.428571428571427" style="stroke: rgb(191, 105, 105);"></path><path d="M5,394.2857142857142C213,394.2857142857142,213,250.71428571428535,421,250.71428571428535" stroke-width="42.857142857142854" style="stroke: rgb(191, 152, 105);"></path><path d="M5,150C213,150,213,442.1428571428576,421,442.1428571428576" stroke-width="42.857142857142854" style="stroke: rgb(183, 191, 105);"></path><path d="M5,21.428571428571455C213,21.428571428571455,213,207.8571428571425,421,207.8571428571425" stroke-width="42.857142857142854" style="stroke: rgb(183, 191, 105);"></path><path d="M5,85.71428571428574C213,85.71428571428574,213,367.85714285714306,421,367.85714285714306" stroke-width="85.71428571428571" style="stroke: rgb(183, 191, 105);"></path><path d="M5,447.14285714285717C213,447.14285714285717,213,293.5714285714282,421,293.5714285714282" stroke-width="42.857142857142854" style="stroke: rgb(136, 191, 105);"></path><path d="M5,224.28571428571416C213,224.28571428571416,213,47.85714285714243,421,47.85714285714243" stroke-width="85.71428571428571" style="stroke: rgb(105, 191, 121);"></path><path d="M5,319.9999999999999C213,319.9999999999999,213,133.57142857142813,421,133.57142857142813" stroke-width="85.71428571428571" style="stroke: rgb(105, 191, 167);"></path><path d="M426,484.2857142857148C634,484.2857142857148,634,452.85714285714295,842,452.85714285714295" stroke-width="21.428571428571427" style="stroke: rgb(105, 167, 191);"></path><path d="M426,218.5714285714282C634,218.5714285714282,634,122.8571428571429,842,122.8571428571429" stroke-width="64.28571428571428" style="stroke: rgb(105, 121, 191);"></path><path d="M426,282.8571428571425C634,282.8571428571425,634,261.42857142857144,842,261.42857142857144" stroke-width="64.28571428571428" style="stroke: rgb(105, 121, 191);"></path><path d="M426,452.85714285714334C634,452.85714285714334,634,484.2857142857144,842,484.2857142857144" stroke-width="21.428571428571427" style="stroke: rgb(136, 105, 191);"></path><path d="M426,431.4285714285719C634,431.4285714285719,634,208.57142857142864,842,208.57142857142864" stroke-width="21.428571428571427" style="stroke: rgb(136, 105, 191);"></path><path d="M426,346.4285714285717C634,346.4285714285717,634,176.42857142857147,842,176.42857142857147" stroke-width="42.857142857142854" style="stroke: rgb(183, 105, 191);"></path><path d="M426,389.2857142857145C634,389.2857142857145,634,315,842,315" stroke-width="42.857142857142854" style="stroke: rgb(183, 105, 191);"></path><path d="M426,133.57142857142813C634,133.57142857142813,634,389.2857142857143,842,389.2857142857143" stroke-width="85.71428571428571" style="stroke: rgb(191, 105, 152);"></path><path d="M426,47.85714285714243C634,47.85714285714243,634,47.85714285714291,842,47.85714285714291" stroke-width="85.71428571428571" style="stroke: rgb(191, 105, 152);"></path></g><g class="nodes" font-family="Arial, Helvetica" font-size="10"><g><rect x="842" y="346.42857142857144" height="85.71428571428575" width="5" fill="#000"></rect><text x="836" y="389.28571428571433" dy="0.35em" text-anchor="end">anti-virus</text></g><g><rect x="842" y="442.1428571428572" height="21.42857142857143" width="5" fill="#000"></rect><text x="836" y="452.85714285714295" dy="0.35em" text-anchor="end">binary file metadata</text></g><g><rect x="842" y="473.57142857142867" height="21.42857142857133" width="5" fill="#000"></rect><text x="836" y="484.28571428571433" dy="0.35em" text-anchor="end">malware reverse engineering</text></g><g><rect x="842" y="5.000000000000057" height="214.28571428571425" width="5" fill="#000"></rect><text x="836" y="112.14285714285718" dy="0.35em" text-anchor="end">netflow/enclave netflow</text></g><g><rect x="842" y="229.2857142857143" height="107.14285714285711" width="5" fill="#000"></rect><text x="836" y="282.8571428571429" dy="0.35em" text-anchor="end">network protocol analysis</text></g><g><rect x="0" y="478.5714285714285" height="21.42857142857142" width="5" fill="#000"></rect><text x="11" y="489.2857142857142" dy="0.35em" text-anchor="start">Antivirus/Antimalware</text></g><g><rect x="0" y="372.8571428571428" height="42.85714285714295" width="5" fill="#000"></rect><text x="11" y="394.2857142857142" dy="0.35em" text-anchor="start">Disable or Remove Feature or Program</text></g><g><rect x="0" y="2.842170943040401e-14" height="171.42857142857127" width="5" fill="#000"></rect><text x="11" y="85.71428571428567" dy="0.35em" text-anchor="start">Network Intrusion Prevention</text></g><g><rect x="0" y="425.7142857142857" height="42.857142857142776" width="5" fill="#000"></rect><text x="11" y="447.1428571428571" dy="0.35em" text-anchor="start">Network Segmentation</text></g><g><rect x="0" y="181.4285714285713" height="85.71428571428577" width="5" fill="#000"></rect><text x="11" y="224.2857142857142" dy="0.35em" text-anchor="start">Privileged Account Management</text></g><g><rect x="0" y="277.14285714285705" height="85.71428571428572" width="5" fill="#000"></rect><text x="11" y="319.9999999999999" dy="0.35em" text-anchor="start">Update Software</text></g><g><rect x="421" y="186.42857142857108" height="128.57142857142912" width="5" fill="#000"></rect><text x="415" y="250.71428571428564" dy="0.35em" text-anchor="end">network service scanning</text></g><g><rect x="421" y="325.0000000000002" height="85.71428571428595" width="5" fill="#000"></rect><text x="415" y="367.85714285714323" dy="0.35em" text-anchor="end">remote file copy</text></g><g><rect x="421" y="473.57142857142907" height="21.428571428571416" width="5" fill="#000"></rect><text x="415" y="484.2857142857148" dy="0.35em" text-anchor="end">software packing</text></g><g><rect x="421" y="420.7142857142862" height="42.85714285714289" width="5" fill="#000"></rect><text x="415" y="442.1428571428576" dy="0.35em" text-anchor="end">standard application layer protocol</text></g><g><rect x="421" y="4.999999999999574" height="171.4285714285715" width="5" fill="#000"></rect><text x="415" y="90.71428571428532" dy="0.35em" text-anchor="end">web shell</text></g></g></g></svg>