<svg width="847" height="520" xmlns="http://www.w3.org/2000/svg" version="1.1"><g transform="translate(0, 10)"><g class="links" fill="none" stroke-opacity="0.4"><path d="M5,357.60000000000036C213,357.60000000000036,213,317.1999999999998,421,317.1999999999998" stroke-width="16.8" style="stroke: rgb(191, 105, 105);"></path><path d="M5,332.4000000000004C213,332.4000000000004,213,127.59999999999995,421,127.59999999999995" stroke-width="33.6" style="stroke: rgb(191, 105, 105);"></path><path d="M5,392.8000000000004C213,392.8000000000004,213,161.19999999999996,421,161.19999999999996" stroke-width="33.6" style="stroke: rgb(191, 137, 105);"></path><path d="M5,161.20000000000016C213,161.20000000000016,213,369.19999999999993,421,369.19999999999993" stroke-width="33.6" style="stroke: rgb(191, 169, 105);"></path><path d="M5,194.80000000000015C213,194.80000000000015,213,412.79999999999995,421,412.79999999999995" stroke-width="33.6" style="stroke: rgb(191, 169, 105);"></path><path d="M5,35.200000000000145C213,35.200000000000145,213,25.2000000000004,421,25.2000000000004" stroke-width="50.400000000000006" style="stroke: rgb(191, 169, 105);"></path><path d="M5,228.40000000000015C213,228.40000000000015,213,456.4,421,456.4" stroke-width="33.6" style="stroke: rgb(191, 169, 105);"></path><path d="M5,136.00000000000014C213,136.00000000000014,213,273.5999999999997,421,273.5999999999997" stroke-width="16.8" style="stroke: rgb(191, 169, 105);"></path><path d="M5,94.00000000000014C213,94.00000000000014,213,221.59999999999994,421,221.59999999999994" stroke-width="67.2" style="stroke: rgb(191, 169, 105);"></path><path d="M5,428.00000000000034C213,428.00000000000034,213,333.99999999999983,421,333.99999999999983" stroke-width="16.8" style="stroke: rgb(180, 191, 105);"></path><path d="M5,481.6000000000003C213,481.6000000000003,213,491.5999999999996,421,491.5999999999996" stroke-width="16.8" style="stroke: rgb(148, 191, 105);"></path><path d="M5,454.80000000000035C213,454.80000000000035,213,290.3999999999997,421,290.3999999999997" stroke-width="16.8" style="stroke: rgb(116, 191, 105);"></path><path d="M5,280.40000000000026C213,280.40000000000026,213,75.6000000000004,421,75.6000000000004" stroke-width="50.400000000000006" style="stroke: rgb(105, 191, 126);"></path><path d="M426,325.59999999999985C634,325.59999999999985,634,277.00000000000017,842,277.00000000000017" stroke-width="33.6" style="stroke: rgb(105, 191, 159);"></path><path d="M426,144.39999999999995C634,144.39999999999995,634,226.60000000000014,842,226.60000000000014" stroke-width="67.2" style="stroke: rgb(105, 191, 191);"></path><path d="M426,377.5999999999999C634,377.5999999999999,634,345.8000000000002,842,345.8000000000002" stroke-width="16.8" style="stroke: rgb(105, 159, 191);"></path><path d="M426,360.7999999999999C634,360.7999999999999,634,124.20000000000016,842,124.20000000000016" stroke-width="16.8" style="stroke: rgb(105, 159, 191);"></path><path d="M426,421.19999999999993C634,421.19999999999993,634,362.6000000000002,842,362.6000000000002" stroke-width="16.8" style="stroke: rgb(105, 126, 191);"></path><path d="M426,404.3999999999999C634,404.3999999999999,634,141.00000000000017,842,141.00000000000017" stroke-width="16.8" style="stroke: rgb(105, 126, 191);"></path><path d="M426,50.400000000000404C634,50.400000000000404,634,320.6000000000002,842,320.6000000000002" stroke-width="33.6" style="stroke: rgb(116, 105, 191);"></path><path d="M426,16.8000000000004C634,16.8000000000004,634,31.800000000000143,842,31.800000000000143" stroke-width="33.6" style="stroke: rgb(116, 105, 191);"></path><path d="M426,84.0000000000004C634,84.0000000000004,634,441.4000000000002,842,441.4000000000002" stroke-width="33.6" style="stroke: rgb(116, 105, 191);"></path><path d="M426,456.4C634,456.4,634,166.2000000000002,842,166.2000000000002" stroke-width="33.6" style="stroke: rgb(148, 105, 191);"></path><path d="M426,281.9999999999997C634,281.9999999999997,634,99.00000000000014,842,99.00000000000014" stroke-width="33.6" style="stroke: rgb(180, 105, 191);"></path><path d="M426,204.79999999999995C634,204.79999999999995,634,65.40000000000015,842,65.40000000000015" stroke-width="33.6" style="stroke: rgb(191, 105, 169);"></path><path d="M426,238.39999999999995C634,238.39999999999995,634,397.80000000000024,842,397.80000000000024" stroke-width="33.6" style="stroke: rgb(191, 105, 169);"></path><path d="M426,491.5999999999996C634,491.5999999999996,634,476.59999999999974,842,476.59999999999974" stroke-width="16.8" style="stroke: rgb(191, 105, 137);"></path></g><g class="nodes" font-family="Arial, Helvetica" font-size="10"><g><rect x="842" y="193.00000000000014" height="100.80000000000004" width="5" fill="#000"></rect><text x="836" y="243.40000000000015" dy="0.35em" text-anchor="end">data loss prevention</text></g><g><rect x="842" y="303.8000000000002" height="67.20000000000005" width="5" fill="#000"></rect><text x="836" y="337.4000000000002" dy="0.35em" text-anchor="end">malware reverse engineering</text></g><g><rect x="842" y="15.000000000000142" height="168" width="5" fill="#000"></rect><text x="836" y="99.00000000000014" dy="0.35em" text-anchor="end">netflow/enclave netflow</text></g><g><rect x="842" y="381.0000000000002" height="33.599999999999966" width="5" fill="#000"></rect><text x="836" y="397.8000000000002" dy="0.35em" text-anchor="end">network protocol analysis</text></g><g><rect x="842" y="424.6000000000002" height="33.59999999999957" width="5" fill="#000"></rect><text x="836" y="441.4" dy="0.35em" text-anchor="end">ssl/tls inspection</text></g><g><rect x="842" y="468.19999999999976" height="16.800000000000068" width="5" fill="#000"></rect><text x="836" y="476.5999999999998" dy="0.35em" text-anchor="end">windows event logs</text></g><g><rect x="0" y="315.60000000000036" height="50.40000000000001" width="5" fill="#000"></rect><text x="11" y="340.80000000000035" dy="0.35em" text-anchor="start">Disable or Remove Feature or Program</text></g><g><rect x="0" y="376.0000000000004" height="33.59999999999995" width="5" fill="#000"></rect><text x="11" y="392.80000000000035" dy="0.35em" text-anchor="start">Limit Hardware Installation</text></g><g><rect x="0" y="10.000000000000142" height="235.2000000000001" width="5" fill="#000"></rect><text x="11" y="127.6000000000002" dy="0.35em" text-anchor="start">Network Intrusion Prevention</text></g><g><rect x="0" y="419.60000000000036" height="16.80000000000001" width="5" fill="#000"></rect><text x="11" y="428.00000000000034" dy="0.35em" text-anchor="start">Operating System Configuration</text></g><g><rect x="0" y="473.20000000000033" height="16.799999999999613" width="5" fill="#000"></rect><text x="11" y="481.60000000000014" dy="0.35em" text-anchor="start">Restrict Registry Permissions</text></g><g><rect x="0" y="446.4000000000004" height="16.799999999999955" width="5" fill="#000"></rect><text x="11" y="454.80000000000035" dy="0.35em" text-anchor="start">Restrict Web-Based Content</text></g><g><rect x="0" y="255.20000000000024" height="50.40000000000009" width="5" fill="#000"></rect><text x="11" y="280.4000000000003" dy="0.35em" text-anchor="start">SSL/TLS Inspection</text></g><g><rect x="421" y="308.79999999999984" height="33.600000000000065" width="5" fill="#000"></rect><text x="415" y="325.59999999999985" dy="0.35em" text-anchor="end">communication through removable media</text></g><g><rect x="421" y="439.59999999999997" height="33.59999999999968" width="5" fill="#000"></rect><text x="415" y="456.3999999999998" dy="0.35em" text-anchor="end">connection proxy</text></g><g><rect x="421" y="265.1999999999997" height="33.600000000000136" width="5" fill="#000"></rect><text x="415" y="281.9999999999998" dy="0.35em" text-anchor="end">domain generation algorithms</text></g><g><rect x="421" y="352.3999999999999" height="33.60000000000002" width="5" fill="#000"></rect><text x="415" y="369.19999999999993" dy="0.35em" text-anchor="end">fallback channels</text></g><g><rect x="421" y="483.19999999999965" height="16.799999999999955" width="5" fill="#000"></rect><text x="415" y="491.5999999999996" dy="0.35em" text-anchor="end">modify registry</text></g><g><rect x="421" y="187.99999999999994" height="67.19999999999976" width="5" fill="#000"></rect><text x="415" y="221.59999999999982" dy="0.35em" text-anchor="end">remote file copy</text></g><g><rect x="421" y="110.79999999999995" height="67.2" width="5" fill="#000"></rect><text x="415" y="144.39999999999995" dy="0.35em" text-anchor="end">replication through removable media</text></g><g><rect x="421" y="395.99999999999994" height="33.60000000000002" width="5" fill="#000"></rect><text x="415" y="412.79999999999995" dy="0.35em" text-anchor="end">standard application layer protocol</text></g><g><rect x="421" y="3.979039320256561e-13" height="100.79999999999956" width="5" fill="#000"></rect><text x="415" y="50.400000000000176" dy="0.35em" text-anchor="end">standard cryptographic protocol</text></g></g></g></svg>