<svg width="847" height="520" xmlns="http://www.w3.org/2000/svg" version="1.1"><g transform="translate(0, 10)"><g class="links" fill="none" stroke-opacity="0.4"><path d="M5,297.22222222222206C213,297.22222222222206,213,468.88888888888886,421,468.88888888888886" stroke-width="52.22222222222222" style="stroke: rgb(191, 105, 105);"></path><path d="M5,218.88888888888874C213,218.88888888888874,213,380.5555555555555,421,380.5555555555555" stroke-width="104.44444444444444" style="stroke: rgb(191, 105, 105);"></path><path d="M5,88.33333333333319C213,88.33333333333319,213,83.33333333333336,421,83.33333333333336" stroke-width="156.66666666666666" style="stroke: rgb(191, 105, 105);"></path><path d="M5,411.66666666666646C213,411.66666666666646,213,240,421,240" stroke-width="156.66666666666666" style="stroke: rgb(174, 191, 105);"></path><path d="M426,481.9444444444444C634,481.9444444444444,634,486.94444444444457,842,486.94444444444457" stroke-width="26.11111111111111" style="stroke: rgb(105, 191, 139);"></path><path d="M426,455.8333333333333C634,455.8333333333333,634,169.722222222222,842,169.722222222222" stroke-width="26.11111111111111" style="stroke: rgb(105, 191, 139);"></path><path d="M426,354.44444444444434C634,354.44444444444434,634,130.55555555555534,842,130.55555555555534" stroke-width="52.22222222222222" style="stroke: rgb(105, 139, 191);"></path><path d="M426,406.6666666666666C634,406.6666666666666,634,323.3333333333332,842,323.3333333333332" stroke-width="52.22222222222222" style="stroke: rgb(105, 139, 191);"></path><path d="M426,57.22222222222225C634,57.22222222222225,634,52.22222222222202,842,52.22222222222202" stroke-width="104.44444444444444" style="stroke: rgb(174, 105, 191);"></path><path d="M426,161.66666666666669C634,161.66666666666669,634,244.99999999999991,842,244.99999999999991" stroke-width="104.44444444444444" style="stroke: rgb(174, 105, 191);"></path><path d="M426,266.11111111111114C634,266.11111111111114,634,411.6666666666668,842,411.6666666666668" stroke-width="104.44444444444444" style="stroke: rgb(174, 105, 191);"></path></g><g class="nodes" font-family="Arial, Helvetica" font-size="10"><g><rect x="842" y="473.888888888889" height="26.1111111111112" width="5" fill="#000"></rect><text x="836" y="486.9444444444446" dy="0.35em" text-anchor="end">malware reverse engineering</text></g><g><rect x="842" y="-1.9895196601282805e-13" height="182.77777777777789" width="5" fill="#000"></rect><text x="836" y="91.38888888888874" dy="0.35em" text-anchor="end">netflow/enclave netflow</text></g><g><rect x="842" y="192.7777777777777" height="156.66666666666686" width="5" fill="#000"></rect><text x="836" y="271.1111111111111" dy="0.35em" text-anchor="end">network protocol analysis</text></g><g><rect x="842" y="359.44444444444457" height="104.44444444444446" width="5" fill="#000"></rect><text x="836" y="411.6666666666668" dy="0.35em" text-anchor="end">ssl/tls inspection</text></g><g><rect x="0" y="9.999999999999858" height="313.3333333333333" width="5" fill="#000"></rect><text x="11" y="166.66666666666652" dy="0.35em" text-anchor="start">Network Intrusion Prevention</text></g><g><rect x="0" y="333.33333333333314" height="156.66666666666697" width="5" fill="#000"></rect><text x="11" y="411.66666666666663" dy="0.35em" text-anchor="start">Restrict Web-Based Content</text></g><g><rect x="421" y="328.33333333333326" height="104.44444444444451" width="5" fill="#000"></rect><text x="415" y="380.55555555555554" dy="0.35em" text-anchor="end">remote file copy</text></g><g><rect x="421" y="442.77777777777777" height="52.22222222222217" width="5" fill="#000"></rect><text x="415" y="468.88888888888886" dy="0.35em" text-anchor="end">standard application layer protocol</text></g><g><rect x="421" y="5.000000000000028" height="313.33333333333326" width="5" fill="#000"></rect><text x="415" y="161.66666666666666" dy="0.35em" text-anchor="end">web service</text></g></g></g></svg>