<svg width="847" height="520" xmlns="http://www.w3.org/2000/svg" version="1.1"><g transform="translate(0, 10)"><g class="links" fill="none" stroke-opacity="0.4"><path d="M5,170C213,170,213,164.9999999999997,421,164.9999999999997" stroke-width="320" style="stroke: rgb(191, 105, 105);"></path><path d="M5,410C213,410,213,414.9999999999999,421,414.9999999999999" stroke-width="160" style="stroke: rgb(191, 105, 105);"></path><path d="M426,244.9999999999997C634,244.9999999999997,634,250.00000000000026,842,250.00000000000026" stroke-width="160" style="stroke: rgb(105, 191, 105);"></path><path d="M426,84.99999999999969C634,84.99999999999969,634,80.00000000000014,842,80.00000000000014" stroke-width="160" style="stroke: rgb(105, 191, 105);"></path><path d="M426,414.9999999999999C634,414.9999999999999,634,420.0000000000001,842,420.0000000000001" stroke-width="160" style="stroke: rgb(105, 105, 191);"></path></g><g class="nodes" font-family="Arial, Helvetica" font-size="10"><g><rect x="842" y="170.00000000000026" height="159.9999999999999" width="5" fill="#000"></rect><text x="836" y="250.0000000000002" dy="0.35em" text-anchor="end">malware reverse engineering</text></g><g><rect x="842" y="1.4210854715202004e-13" height="160.0000000000001" width="5" fill="#000"></rect><text x="836" y="80.0000000000002" dy="0.35em" text-anchor="end">netflow/enclave netflow</text></g><g><rect x="842" y="340.0000000000001" height="159.99999999999972" width="5" fill="#000"></rect><text x="836" y="420" dy="0.35em" text-anchor="end">network protocol analysis</text></g><g><rect x="0" y="10" height="480" width="5" fill="#000"></rect><text x="11" y="250" dy="0.35em" text-anchor="start">Network Intrusion Prevention</text></g><g><rect x="421" y="334.9999999999999" height="160.0000000000004" width="5" fill="#000"></rect><text x="415" y="415.0000000000001" dy="0.35em" text-anchor="end">data obfuscation</text></g><g><rect x="421" y="4.999999999999687" height="320.0000000000002" width="5" fill="#000"></rect><text x="415" y="164.9999999999998" dy="0.35em" text-anchor="end">standard application layer protocol</text></g></g></g></svg>