<svg width="847" height="520" xmlns="http://www.w3.org/2000/svg" version="1.1"><g transform="translate(0, 10)"><g class="links" fill="none" stroke-opacity="0.4"><path d="M5,129.99999999999997C213,129.99999999999997,213,130.00000000000006,421,130.00000000000006" stroke-width="220" style="stroke: rgb(191, 105, 105);"></path><path d="M5,323.3333333333334C213,323.3333333333334,213,323.3333333333336,421,323.3333333333336" stroke-width="146.66666666666666" style="stroke: rgb(191, 191, 105);"></path><path d="M5,415.00000000000006C213,415.00000000000006,213,425.00000000000017,421,425.00000000000017" stroke-width="36.666666666666664" style="stroke: rgb(191, 191, 105);"></path><path d="M5,461.6666666666667C213,461.6666666666667,213,461.66666666666686,421,461.66666666666686" stroke-width="36.666666666666664" style="stroke: rgb(105, 191, 105);"></path><path d="M426,75.00000000000006C634,75.00000000000006,634,294.99999999999994,842,294.99999999999994" stroke-width="36.666666666666664" style="stroke: rgb(105, 191, 191);"></path><path d="M426,185.00000000000006C634,185.00000000000006,634,435.0000000000001,842,435.0000000000001" stroke-width="36.666666666666664" style="stroke: rgb(105, 191, 191);"></path><path d="M426,148.3333333333334C634,148.3333333333334,634,388.3333333333334,842,388.3333333333334" stroke-width="36.666666666666664" style="stroke: rgb(105, 191, 191);"></path><path d="M426,38.333333333333385C634,38.333333333333385,634,175.00000000000003,842,175.00000000000003" stroke-width="36.666666666666664" style="stroke: rgb(105, 191, 191);"></path><path d="M426,221.6666666666667C634,221.6666666666667,634,481.66666666666674,842,481.66666666666674" stroke-width="36.666666666666664" style="stroke: rgb(105, 191, 191);"></path><path d="M426,111.66666666666671C634,111.66666666666671,634,341.6666666666667,842,341.6666666666667" stroke-width="36.666666666666664" style="stroke: rgb(105, 191, 191);"></path><path d="M426,286.66666666666697C634,286.66666666666697,634,36.66666666666669,842,36.66666666666669" stroke-width="73.33333333333333" style="stroke: rgb(105, 105, 191);"></path><path d="M426,360.0000000000003C634,360.0000000000003,634,230,842,230" stroke-width="73.33333333333333" style="stroke: rgb(105, 105, 191);"></path><path d="M426,443.33333333333354C634,443.33333333333354,634,110.00000000000003,842,110.00000000000003" stroke-width="73.33333333333333" style="stroke: rgb(191, 105, 191);"></path></g><g class="nodes" font-family="Arial, Helvetica" font-size="10"><g><rect x="842" y="276.66666666666663" height="36.66666666666674" width="5" fill="#000"></rect><text x="836" y="295" dy="0.35em" text-anchor="end">binary file metadata</text></g><g><rect x="842" y="416.6666666666668" height="36.66666666666663" width="5" fill="#000"></rect><text x="836" y="435.0000000000001" dy="0.35em" text-anchor="end">malware reverse engineering</text></g><g><rect x="842" y="2.842170943040401e-14" height="146.66666666666666" width="5" fill="#000"></rect><text x="836" y="73.33333333333336" dy="0.35em" text-anchor="end">netflow/enclave netflow</text></g><g><rect x="842" y="370.0000000000001" height="36.666666666666686" width="5" fill="#000"></rect><text x="836" y="388.3333333333335" dy="0.35em" text-anchor="end">network intrusion detection system</text></g><g><rect x="842" y="156.66666666666669" height="109.99999999999994" width="5" fill="#000"></rect><text x="836" y="211.66666666666666" dy="0.35em" text-anchor="end">network protocol analysis</text></g><g><rect x="842" y="463.3333333333334" height="36.666666666666515" width="5" fill="#000"></rect><text x="836" y="481.6666666666667" dy="0.35em" text-anchor="end">ssl/tls inspection</text></g><g><rect x="842" y="323.33333333333337" height="36.66666666666674" width="5" fill="#000"></rect><text x="836" y="341.66666666666674" dy="0.35em" text-anchor="end">windows event logs</text></g><g><rect x="0" y="19.99999999999997" height="220.0000000000001" width="5" fill="#000"></rect><text x="11" y="130.00000000000003" dy="0.35em" text-anchor="start">Antivirus/Antimalware</text></g><g><rect x="0" y="250.00000000000009" height="183.33333333333331" width="5" fill="#000"></rect><text x="11" y="341.66666666666674" dy="0.35em" text-anchor="start">Network Intrusion Prevention</text></g><g><rect x="0" y="443.33333333333337" height="36.66666666666663" width="5" fill="#000"></rect><text x="11" y="461.6666666666667" dy="0.35em" text-anchor="start">Network Segmentation</text></g><g><rect x="421" y="20.000000000000057" height="220.00000000000023" width="5" fill="#000"></rect><text x="415" y="130.00000000000017" dy="0.35em" text-anchor="end">obfuscated files or information</text></g><g><rect x="421" y="250.00000000000028" height="146.66666666666657" width="5" fill="#000"></rect><text x="415" y="323.3333333333336" dy="0.35em" text-anchor="end">remote file copy</text></g><g><rect x="421" y="406.66666666666686" height="73.33333333333312" width="5" fill="#000"></rect><text x="415" y="443.3333333333334" dy="0.35em" text-anchor="end">uncommonly used port</text></g></g></g></svg>