<svg width="847" height="520" xmlns="http://www.w3.org/2000/svg" version="1.1"><g transform="translate(0, 10)"><g class="links" fill="none" stroke-opacity="0.4"><path d="M5,211.56249999999974C213,211.56249999999974,213,307.1875000000002,421,307.1875000000002" stroke-width="80.625" style="stroke: rgb(191, 105, 105);"></path><path d="M5,446.4062500000002C213,446.4062500000002,213,401.0937500000003,421,401.0937500000003" stroke-width="13.4375" style="stroke: rgb(191, 139, 105);"></path><path d="M5,416.2500000000002C213,416.2500000000002,213,481.5625000000003,421,481.5625000000003" stroke-width="26.875" style="stroke: rgb(191, 174, 105);"></path><path d="M5,134.3749999999998C213,134.3749999999998,213,370.9375000000001,421,370.9375000000001" stroke-width="26.875" style="stroke: rgb(174, 191, 105);"></path><path d="M5,100.7812499999998C213,100.7812499999998,213,196.40625000000026,421,196.40625000000026" stroke-width="40.3125" style="stroke: rgb(174, 191, 105);"></path><path d="M5,154.5312499999998C213,154.5312499999998,213,437.9687500000003,421,437.9687500000003" stroke-width="13.4375" style="stroke: rgb(174, 191, 105);"></path><path d="M5,40.3124999999998C213,40.3124999999998,213,45.31250000000023,421,45.31250000000023" stroke-width="80.625" style="stroke: rgb(174, 191, 105);"></path><path d="M5,469.8437500000002C213,469.8437500000002,213,451.4062500000003,421,451.4062500000003" stroke-width="13.4375" style="stroke: rgb(139, 191, 105);"></path><path d="M5,493.2812500000002C213,493.2812500000002,213,414.5312500000003,421,414.5312500000003" stroke-width="13.4375" style="stroke: rgb(105, 191, 105);"></path><path d="M5,302.1875C213,302.1875,213,125.93750000000023,421,125.93750000000023" stroke-width="80.625" style="stroke: rgb(105, 191, 139);"></path><path d="M5,372.6562500000001C213,372.6562500000001,213,236.71875000000026,421,236.71875000000026" stroke-width="40.3125" style="stroke: rgb(105, 191, 174);"></path><path d="M426,313.9062500000002C634,313.9062500000002,634,382.6562499999998,842,382.6562499999998" stroke-width="13.4375" style="stroke: rgb(105, 174, 191);"></path><path d="M426,300.4687500000002C634,300.4687500000002,634,345.78124999999966,842,345.78124999999966" stroke-width="13.4375" style="stroke: rgb(105, 174, 191);"></path><path d="M426,327.3437500000002C634,327.3437500000002,634,469.8437499999998,842,469.8437499999998" stroke-width="13.4375" style="stroke: rgb(105, 174, 191);"></path><path d="M426,287.0312500000002C634,287.0312500000002,634,295.46874999999966,842,295.46874999999966" stroke-width="13.4375" style="stroke: rgb(105, 174, 191);"></path><path d="M426,273.5937500000002C634,273.5937500000002,634,218.28125000000003,842,218.28125000000003" stroke-width="13.4375" style="stroke: rgb(105, 174, 191);"></path><path d="M426,340.7812500000002C634,340.7812500000002,634,493.2812499999999,842,493.2812499999999" stroke-width="13.4375" style="stroke: rgb(105, 174, 191);"></path><path d="M426,407.8125000000003C634,407.8125000000003,634,439.6874999999998,842,439.6874999999998" stroke-width="26.875" style="stroke: rgb(105, 139, 191);"></path><path d="M426,481.5625000000003C634,481.5625000000003,634,402.8124999999998,842,402.8124999999998" stroke-width="26.875" style="stroke: rgb(105, 105, 191);"></path><path d="M426,377.6562500000001C634,377.6562500000001,634,359.21874999999966,842,359.21874999999966" stroke-width="13.4375" style="stroke: rgb(139, 105, 191);"></path><path d="M426,364.2187500000001C634,364.2187500000001,634,87.34375000000011,842,87.34375000000011" stroke-width="13.4375" style="stroke: rgb(139, 105, 191);"></path><path d="M426,243.43750000000026C634,243.43750000000026,634,325.62499999999966,842,325.62499999999966" stroke-width="26.875" style="stroke: rgb(174, 105, 191);"></path><path d="M426,189.68750000000026C634,189.68750000000026,634,67.18750000000011,842,67.18750000000011" stroke-width="26.875" style="stroke: rgb(174, 105, 191);"></path><path d="M426,216.56250000000026C634,216.56250000000026,634,198.12500000000003,842,198.12500000000003" stroke-width="26.875" style="stroke: rgb(174, 105, 191);"></path><path d="M426,444.6875000000003C634,444.6875000000003,634,107.50000000000011,842,107.50000000000011" stroke-width="26.875" style="stroke: rgb(191, 105, 174);"></path><path d="M426,31.875000000000227C634,31.875000000000227,634,26.875000000000114,842,26.875000000000114" stroke-width="53.75" style="stroke: rgb(191, 105, 139);"></path><path d="M426,139.37500000000023C634,139.37500000000023,634,261.87499999999966,842,261.87499999999966" stroke-width="53.75" style="stroke: rgb(191, 105, 139);"></path><path d="M426,85.62500000000023C634,85.62500000000023,634,157.81250000000003,842,157.81250000000003" stroke-width="53.75" style="stroke: rgb(191, 105, 139);"></path></g><g class="nodes" font-family="Arial, Helvetica" font-size="10"><g><rect x="842" y="375.9374999999998" height="40.3125" width="5" fill="#000"></rect><text x="836" y="396.0937499999998" dy="0.35em" text-anchor="end">binary file metadata</text></g><g><rect x="842" y="426.2499999999998" height="26.875" width="5" fill="#000"></rect><text x="836" y="439.6874999999998" dy="0.35em" text-anchor="end">data loss prevention</text></g><g><rect x="842" y="312.18749999999966" height="53.750000000000114" width="5" fill="#000"></rect><text x="836" y="339.0624999999997" dy="0.35em" text-anchor="end">malware reverse engineering</text></g><g><rect x="842" y="1.1368683772161603e-13" height="120.93749999999991" width="5" fill="#000"></rect><text x="836" y="60.46875000000007" dy="0.35em" text-anchor="end">netflow/enclave netflow</text></g><g><rect x="842" y="463.1249999999998" height="13.437500000000114" width="5" fill="#000"></rect><text x="836" y="469.84374999999983" dy="0.35em" text-anchor="end">network intrusion detection system</text></g><g><rect x="842" y="234.9999999999997" height="67.1875" width="5" fill="#000"></rect><text x="836" y="268.59374999999966" dy="0.35em" text-anchor="end">network protocol analysis</text></g><g><rect x="842" y="130.93750000000003" height="94.06249999999966" width="5" fill="#000"></rect><text x="836" y="177.96874999999986" dy="0.35em" text-anchor="end">ssl/tls inspection</text></g><g><rect x="842" y="486.5624999999999" height="13.4375" width="5" fill="#000"></rect><text x="836" y="493.2812499999999" dy="0.35em" text-anchor="end">windows event logs</text></g><g><rect x="0" y="171.24999999999974" height="80.62500000000023" width="5" fill="#000"></rect><text x="11" y="211.56249999999986" dy="0.35em" text-anchor="start">Antivirus/Antimalware</text></g><g><rect x="0" y="439.6875000000002" height="13.437500000000004" width="5" fill="#000"></rect><text x="11" y="446.4062500000002" dy="0.35em" text-anchor="start">Encrypt Sensitive Information</text></g><g><rect x="0" y="402.8125000000002" height="26.875" width="5" fill="#000"></rect><text x="11" y="416.2500000000002" dy="0.35em" text-anchor="start">Exploit Protection</text></g><g><rect x="0" y="-1.9895196601282805e-13" height="161.24999999999994" width="5" fill="#000"></rect><text x="11" y="80.62499999999977" dy="0.35em" text-anchor="start">Network Intrusion Prevention</text></g><g><rect x="0" y="463.1250000000002" height="13.4375" width="5" fill="#000"></rect><text x="11" y="469.8437500000002" dy="0.35em" text-anchor="start">Network Segmentation</text></g><g><rect x="0" y="486.5625000000002" height="13.437499999999996" width="5" fill="#000"></rect><text x="11" y="493.2812500000002" dy="0.35em" text-anchor="start">Remote Data Storage</text></g><g><rect x="0" y="261.875" height="80.62500000000011" width="5" fill="#000"></rect><text x="11" y="302.18750000000006" dy="0.35em" text-anchor="start">Restrict Web-Based Content</text></g><g><rect x="0" y="352.5000000000001" height="40.312500000000114" width="5" fill="#000"></rect><text x="11" y="372.65625000000017" dy="0.35em" text-anchor="start">SSL/TLS Inspection</text></g><g><rect x="421" y="394.3750000000003" height="26.875" width="5" fill="#000"></rect><text x="415" y="407.8125000000003" dy="0.35em" text-anchor="end">automated collection</text></g><g><rect x="421" y="431.2500000000003" height="26.875" width="5" fill="#000"></rect><text x="415" y="444.6875000000003" dy="0.35em" text-anchor="end">commonly used port</text></g><g><rect x="421" y="266.8750000000002" height="80.62499999999989" width="5" fill="#000"></rect><text x="415" y="307.18750000000017" dy="0.35em" text-anchor="end">obfuscated files or information</text></g><g><rect x="421" y="468.1250000000003" height="26.87499999999943" width="5" fill="#000"></rect><text x="415" y="481.5625" dy="0.35em" text-anchor="end">rundll32</text></g><g><rect x="421" y="357.5000000000001" height="26.87500000000017" width="5" fill="#000"></rect><text x="415" y="370.9375000000002" dy="0.35em" text-anchor="end">standard application layer protocol</text></g><g><rect x="421" y="176.25000000000026" height="80.625" width="5" fill="#000"></rect><text x="415" y="216.56250000000026" dy="0.35em" text-anchor="end">standard cryptographic protocol</text></g><g><rect x="421" y="5.000000000000227" height="161.25000000000003" width="5" fill="#000"></rect><text x="415" y="85.62500000000024" dy="0.35em" text-anchor="end">web service</text></g></g></g></svg>