<svg width="847" height="520" xmlns="http://www.w3.org/2000/svg" version="1.1"><g transform="translate(0, 10)"><g class="links" fill="none" stroke-opacity="0.4"><path d="M5,410C213,410,213,415,421,415" stroke-width="160" style="stroke: rgb(191, 105, 105);"></path><path d="M5,170.00000000000003C213,170.00000000000003,213,164.99999999999986,421,164.99999999999986" stroke-width="320" style="stroke: rgb(191, 105, 105);"></path><path d="M426,415C634,415,634,250.00000000000009,842,250.00000000000009" stroke-width="160" style="stroke: rgb(105, 191, 105);"></path><path d="M426,244.99999999999986C634,244.99999999999986,634,420.0000000000001,842,420.0000000000001" stroke-width="160" style="stroke: rgb(105, 105, 191);"></path><path d="M426,84.99999999999986C634,84.99999999999986,634,79.9999999999998,842,79.9999999999998" stroke-width="160" style="stroke: rgb(105, 105, 191);"></path></g><g class="nodes" font-family="Arial, Helvetica" font-size="10"><g><rect x="842" y="170.00000000000009" height="160.00000000000006" width="5" fill="#000"></rect><text x="836" y="250.0000000000001" dy="0.35em" text-anchor="end">binary file metadata</text></g><g><rect x="842" y="340.0000000000001" height="160.00000000000006" width="5" fill="#000"></rect><text x="836" y="420.0000000000001" dy="0.35em" text-anchor="end">malware reverse engineering</text></g><g><rect x="842" y="-1.9895196601282805e-13" height="160.00000000000028" width="5" fill="#000"></rect><text x="836" y="79.99999999999994" dy="0.35em" text-anchor="end">netflow/enclave netflow</text></g><g><rect x="0" y="10.000000000000028" height="479.99999999999994" width="5" fill="#000"></rect><text x="11" y="250" dy="0.35em" text-anchor="start">Network Intrusion Prevention</text></g><g><rect x="421" y="335" height="160.00000000000017" width="5" fill="#000"></rect><text x="415" y="415.0000000000001" dy="0.35em" text-anchor="end">data compressed</text></g><g><rect x="421" y="4.999999999999858" height="320.0000000000001" width="5" fill="#000"></rect><text x="415" y="164.99999999999991" dy="0.35em" text-anchor="end">standard application layer protocol</text></g></g></g></svg>