<svg width="847" height="520" xmlns="http://www.w3.org/2000/svg" version="1.1"><g transform="translate(0, 10)"><g class="links" fill="none" stroke-opacity="0.4"><path d="M5,340.5882352941177C213,340.5882352941177,213,82.64705882352965,421,82.64705882352965" stroke-width="155.29411764705884" style="stroke: rgb(191, 105, 105);"></path><path d="M5,454.11764705882365C213,454.11764705882365,213,309.70588235294144,421,309.70588235294144" stroke-width="51.76470588235294" style="stroke: rgb(191, 162, 105);"></path><path d="M5,149.4117647058823C213,149.4117647058823,213,371.4705882352944,421,371.4705882352944" stroke-width="51.76470588235294" style="stroke: rgb(162, 191, 105);"></path><path d="M5,201.17647058823525C213,201.17647058823525,213,433.235294117647,421,433.235294117647" stroke-width="51.76470588235294" style="stroke: rgb(162, 191, 105);"></path><path d="M5,71.76470588235289C213,71.76470588235289,213,222.05882352941217,421,222.05882352941217" stroke-width="103.52941176470588" style="stroke: rgb(162, 191, 105);"></path><path d="M5,239.99999999999994C213,239.99999999999994,213,482.0588235294114,421,482.0588235294114" stroke-width="25.88235294117647" style="stroke: rgb(162, 191, 105);"></path><path d="M426,43.82352941176494C634,43.82352941176494,634,240.00000000000014,842,240.00000000000014" stroke-width="25.88235294117647" style="stroke: rgb(105, 191, 105);"></path><path d="M426,69.7058823529414C634,69.7058823529414,634,327.6470588235297,842,327.6470588235297" stroke-width="25.88235294117647" style="stroke: rgb(105, 191, 105);"></path><path d="M426,147.3529411764708C634,147.3529411764708,634,487.058823529412,842,487.058823529412" stroke-width="25.88235294117647" style="stroke: rgb(105, 191, 105);"></path><path d="M426,17.941176470588463C634,17.941176470588463,634,12.941176470588264,842,12.941176470588264" stroke-width="25.88235294117647" style="stroke: rgb(105, 191, 105);"></path><path d="M426,95.58823529411788C634,95.58823529411788,634,415.29411764705907,842,415.29411764705907" stroke-width="25.88235294117647" style="stroke: rgb(105, 191, 105);"></path><path d="M426,121.47058823529434C634,121.47058823529434,634,451.17647058823553,842,451.17647058823553" stroke-width="25.88235294117647" style="stroke: rgb(105, 191, 105);"></path><path d="M426,309.70588235294144C634,309.70588235294144,634,278.82352941176487,842,278.82352941176487" stroke-width="51.76470588235294" style="stroke: rgb(105, 191, 162);"></path><path d="M426,384.4117647058826C634,384.4117647058826,634,353.52941176470614,842,353.52941176470614" stroke-width="25.88235294117647" style="stroke: rgb(105, 162, 191);"></path><path d="M426,358.52941176470614C634,358.52941176470614,634,178.2352941176472,842,178.2352941176472" stroke-width="25.88235294117647" style="stroke: rgb(105, 162, 191);"></path><path d="M426,446.17647058823525C634,446.17647058823525,634,379.4117647058826,842,379.4117647058826" stroke-width="25.88235294117647" style="stroke: rgb(105, 105, 191);"></path><path d="M426,420.2941176470588C634,420.2941176470588,634,204.11764705882365,842,204.11764705882365" stroke-width="25.88235294117647" style="stroke: rgb(105, 105, 191);"></path><path d="M426,247.94117647058863C634,247.94117647058863,634,139.41176470588246,842,139.41176470588246" stroke-width="51.76470588235294" style="stroke: rgb(162, 105, 191);"></path><path d="M426,196.1764705882357C634,196.1764705882357,634,51.76470588235297,842,51.76470588235297" stroke-width="51.76470588235294" style="stroke: rgb(162, 105, 191);"></path><path d="M426,482.0588235294114C634,482.0588235294114,634,90.58823529411768,842,90.58823529411768" stroke-width="25.88235294117647" style="stroke: rgb(191, 105, 162);"></path></g><g class="nodes" font-family="Arial, Helvetica" font-size="10"><g><rect x="842" y="227.0588235294119" height="77.6470588235295" width="5" fill="#000"></rect><text x="836" y="265.8823529411767" dy="0.35em" text-anchor="end">binary file metadata</text></g><g><rect x="842" y="314.70588235294144" height="77.64705882352939" width="5" fill="#000"></rect><text x="836" y="353.52941176470614" dy="0.35em" text-anchor="end">malware reverse engineering</text></g><g><rect x="842" y="113.529411764706" height="103.52941176470591" width="5" fill="#000"></rect><text x="836" y="165.29411764705895" dy="0.35em" text-anchor="end">netflow/enclave netflow</text></g><g><rect x="842" y="474.11764705882376" height="25.882352941176237" width="5" fill="#000"></rect><text x="836" y="487.0588235294119" dy="0.35em" text-anchor="end">network intrusion detection system</text></g><g><rect x="842" y="2.842170943040401e-14" height="103.52941176470597" width="5" fill="#000"></rect><text x="836" y="51.76470588235301" dy="0.35em" text-anchor="end">network protocol analysis</text></g><g><rect x="842" y="402.35294117647084" height="25.882352941176464" width="5" fill="#000"></rect><text x="836" y="415.29411764705907" dy="0.35em" text-anchor="end">ssl/tls inspection</text></g><g><rect x="842" y="438.2352941176473" height="25.882352941176464" width="5" fill="#000"></rect><text x="836" y="451.17647058823553" dy="0.35em" text-anchor="end">windows event logs</text></g><g><rect x="0" y="262.9411764705883" height="155.2941176470589" width="5" fill="#000"></rect><text x="11" y="340.58823529411774" dy="0.35em" text-anchor="start">Antivirus/Antimalware</text></g><g><rect x="0" y="428.2352941176472" height="51.76470588235289" width="5" fill="#000"></rect><text x="11" y="454.11764705882365" dy="0.35em" text-anchor="start">Exploit Protection</text></g><g><rect x="0" y="19.999999999999943" height="232.94117647058835" width="5" fill="#000"></rect><text x="11" y="136.47058823529412" dy="0.35em" text-anchor="start">Network Intrusion Prevention</text></g><g><rect x="421" y="345.5882352941179" height="51.764705882352644" width="5" fill="#000"></rect><text x="415" y="371.47058823529426" dy="0.35em" text-anchor="end">custom cryptographic protocol</text></g><g><rect x="421" y="469.1176470588232" height="25.882352941176578" width="5" fill="#000"></rect><text x="415" y="482.0588235294115" dy="0.35em" text-anchor="end">data encoding</text></g><g><rect x="421" y="5.000000000000227" height="155.294117647059" width="5" fill="#000"></rect><text x="415" y="82.64705882352973" dy="0.35em" text-anchor="end">obfuscated files or information</text></g><g><rect x="421" y="170.29411764705924" height="103.52941176470574" width="5" fill="#000"></rect><text x="415" y="222.0588235294121" dy="0.35em" text-anchor="end">remote file copy</text></g><g><rect x="421" y="283.823529411765" height="51.76470588235293" width="5" fill="#000"></rect><text x="415" y="309.70588235294144" dy="0.35em" text-anchor="end">rundll32</text></g><g><rect x="421" y="407.35294117647055" height="51.764705882352644" width="5" fill="#000"></rect><text x="415" y="433.23529411764684" dy="0.35em" text-anchor="end">standard application layer protocol</text></g></g></g></svg>