<svg width="847" height="520" xmlns="http://www.w3.org/2000/svg" version="1.1"><g transform="translate(0, 10)"><g class="links" fill="none" stroke-opacity="0.4"><path d="M5,314.16666666666686C213,314.16666666666686,213,147.49999999999966,421,147.49999999999966" stroke-width="55" style="stroke: rgb(191, 105, 105);"></path><path d="M5,435.00000000000017C213,435.00000000000017,213,294.9999999999998,421,294.9999999999998" stroke-width="36.666666666666664" style="stroke: rgb(191, 148, 105);"></path><path d="M5,54.99999999999977C213,54.99999999999977,213,425.0000000000003,421,425.0000000000003" stroke-width="36.666666666666664" style="stroke: rgb(191, 191, 105);"></path><path d="M5,91.66666666666643C213,91.66666666666643,213,471.666666666667,421,471.666666666667" stroke-width="36.666666666666664" style="stroke: rgb(191, 191, 105);"></path><path d="M5,18.333333333333105C213,18.333333333333105,213,258.3333333333331,421,258.3333333333331" stroke-width="36.666666666666664" style="stroke: rgb(191, 191, 105);"></path><path d="M5,481.6666666666669C213,481.6666666666669,213,331.66666666666646,421,331.66666666666646" stroke-width="36.666666666666664" style="stroke: rgb(148, 191, 105);"></path><path d="M5,249.1666666666664C213,249.1666666666664,213,92.49999999999966,421,92.49999999999966" stroke-width="55" style="stroke: rgb(105, 191, 105);"></path><path d="M5,379.16666666666686C213,379.16666666666686,213,202.49999999999966,421,202.49999999999966" stroke-width="55" style="stroke: rgb(105, 191, 148);"></path><path d="M5,193.3333333333331C213,193.3333333333331,213,378.3333333333331,421,378.3333333333331" stroke-width="36.666666666666664" style="stroke: rgb(105, 191, 191);"></path><path d="M5,147.49999999999974C213,147.49999999999974,213,37.49999999999966,421,37.49999999999966" stroke-width="55" style="stroke: rgb(105, 191, 191);"></path><path d="M426,119.99999999999966C634,119.99999999999966,634,125,842,125" stroke-width="220" style="stroke: rgb(105, 148, 191);"></path><path d="M426,267.4999999999998C634,267.4999999999998,634,309.16666666666674,842,309.16666666666674" stroke-width="55" style="stroke: rgb(105, 105, 191);"></path><path d="M426,322.4999999999998C634,322.4999999999998,634,410.83333333333337,842,410.83333333333337" stroke-width="55" style="stroke: rgb(105, 105, 191);"></path><path d="M426,434.16666666666697C634,434.16666666666697,634,457.5,842,457.5" stroke-width="18.333333333333332" style="stroke: rgb(148, 105, 191);"></path><path d="M426,415.83333333333366C634,415.83333333333366,634,345.8333333333334,842,345.8333333333334" stroke-width="18.333333333333332" style="stroke: rgb(148, 105, 191);"></path><path d="M426,480.8333333333337C634,480.8333333333337,634,475.8333333333333,842,475.8333333333333" stroke-width="18.333333333333332" style="stroke: rgb(191, 105, 191);"></path><path d="M426,462.5000000000004C634,462.5000000000004,634,364.16666666666674,842,364.16666666666674" stroke-width="18.333333333333332" style="stroke: rgb(191, 105, 191);"></path><path d="M426,378.3333333333331C634,378.3333333333331,634,253.33333333333334,842,253.33333333333334" stroke-width="36.666666666666664" style="stroke: rgb(191, 105, 148);"></path></g><g class="nodes" font-family="Arial, Helvetica" font-size="10"><g><rect x="842" y="448.3333333333333" height="36.66666666666664" width="5" fill="#000"></rect><text x="836" y="466.66666666666663" dy="0.35em" text-anchor="end">malware reverse engineering</text></g><g><rect x="842" y="281.66666666666674" height="91.66666666666664" width="5" fill="#000"></rect><text x="836" y="327.50000000000006" dy="0.35em" text-anchor="end">netflow/enclave netflow</text></g><g><rect x="842" y="383.33333333333337" height="54.99999999999994" width="5" fill="#000"></rect><text x="836" y="410.83333333333337" dy="0.35em" text-anchor="end">network protocol analysis</text></g><g><rect x="842" y="15" height="256.66666666666674" width="5" fill="#000"></rect><text x="836" y="143.33333333333337" dy="0.35em" text-anchor="end">windows event logs</text></g><g><rect x="0" y="286.66666666666686" height="55" width="5" fill="#000"></rect><text x="11" y="314.16666666666686" dy="0.35em" text-anchor="start">Audit</text></g><g><rect x="0" y="416.66666666666686" height="36.66666666666674" width="5" fill="#000"></rect><text x="11" y="435.0000000000002" dy="0.35em" text-anchor="start">Filter Network Traffic</text></g><g><rect x="0" y="-2.2737367544323206e-13" height="109.99999999999997" width="5" fill="#000"></rect><text x="11" y="54.99999999999976" dy="0.35em" text-anchor="start">Network Intrusion Prevention</text></g><g><rect x="0" y="463.3333333333336" height="36.66666666666663" width="5" fill="#000"></rect><text x="11" y="481.6666666666669" dy="0.35em" text-anchor="start">Network Segmentation</text></g><g><rect x="0" y="221.6666666666664" height="55.000000000000455" width="5" fill="#000"></rect><text x="11" y="249.16666666666663" dy="0.35em" text-anchor="start">Operating System Configuration</text></g><g><rect x="0" y="351.66666666666686" height="55" width="5" fill="#000"></rect><text x="11" y="379.16666666666686" dy="0.35em" text-anchor="start">Privileged Account Management</text></g><g><rect x="0" y="119.99999999999974" height="91.66666666666666" width="5" fill="#000"></rect><text x="11" y="165.8333333333331" dy="0.35em" text-anchor="start">User Account Management</text></g><g><rect x="421" y="406.66666666666697" height="36.66666666666672" width="5" fill="#000"></rect><text x="415" y="425.00000000000034" dy="0.35em" text-anchor="end">custom cryptographic protocol</text></g><g><rect x="421" y="239.99999999999977" height="110" width="5" fill="#000"></rect><text x="415" y="294.9999999999998" dy="0.35em" text-anchor="end">exfiltration over alternative protocol</text></g><g><rect x="421" y="359.9999999999998" height="36.6666666666672" width="5" fill="#000"></rect><text x="415" y="378.33333333333337" dy="0.35em" text-anchor="end">new service</text></g><g><rect x="421" y="9.999999999999659" height="220.0000000000001" width="5" fill="#000"></rect><text x="415" y="119.99999999999972" dy="0.35em" text-anchor="end">scheduled task</text></g><g><rect x="421" y="453.3333333333337" height="36.66666666666666" width="5" fill="#000"></rect><text x="415" y="471.666666666667" dy="0.35em" text-anchor="end">standard application layer protocol</text></g></g></g></svg>