<svg width="847" height="520" xmlns="http://www.w3.org/2000/svg" version="1.1"><g transform="translate(0, 10)"><g class="links" fill="none" stroke-opacity="0.4"><path d="M5,122.82051282051287C213,122.82051282051287,213,316.9230769230772,421,316.9230769230772" stroke-width="61.53846153846155" style="stroke: rgb(191, 105, 105);"></path><path d="M5,352.56410256410265C213,352.56410256410265,213,230.00000000000023,421,230.00000000000023" stroke-width="30.769230769230774" style="stroke: rgb(191, 134, 105);"></path><path d="M5,474.6153846153846C213,474.6153846153846,213,373.07692307692344,421,373.07692307692344" stroke-width="10.256410256410257" style="stroke: rgb(191, 162, 105);"></path><path d="M5,494.87179487179486C213,494.87179487179486,213,383.3333333333337,421,383.3333333333337" stroke-width="10.256410256410257" style="stroke: rgb(191, 191, 105);"></path><path d="M5,428.9743589743589C213,428.9743589743589,213,408.71794871794907,421,408.71794871794907" stroke-width="20.512820512820515" style="stroke: rgb(162, 191, 105);"></path><path d="M5,71.79487179487187C213,71.79487179487187,213,439.2307692307696,421,439.2307692307696" stroke-width="20.512820512820515" style="stroke: rgb(134, 191, 105);"></path><path d="M5,30.76923076923083C213,30.76923076923083,213,50.769230769230916,421,50.769230769230916" stroke-width="61.53846153846155" style="stroke: rgb(134, 191, 105);"></path><path d="M5,393.3333333333335C213,393.3333333333335,213,260.769230769231,421,260.769230769231" stroke-width="30.769230769230774" style="stroke: rgb(105, 191, 105);"></path><path d="M5,311.7948717948718C213,311.7948717948718,213,199.23076923076945,421,199.23076923076945" stroke-width="30.769230769230774" style="stroke: rgb(105, 191, 134);"></path><path d="M5,454.3589743589743C213,454.3589743589743,213,362.82051282051316,421,362.82051282051316" stroke-width="10.256410256410257" style="stroke: rgb(105, 191, 162);"></path><path d="M5,194.35897435897442C213,194.35897435897442,213,112.30769230769246,421,112.30769230769246" stroke-width="61.53846153846155" style="stroke: rgb(105, 191, 191);"></path><path d="M5,276.15384615384625C213,276.15384615384625,213,469.74358974358995,421,469.74358974358995" stroke-width="20.512820512820515" style="stroke: rgb(105, 162, 191);"></path><path d="M5,250.51282051282058C213,250.51282051282058,213,168.46153846153868,421,168.46153846153868" stroke-width="30.769230769230774" style="stroke: rgb(105, 162, 191);"></path><path d="M426,301.53846153846183C634,301.53846153846183,634,188.97435897435895,842,188.97435897435895" stroke-width="10.256410256410257" style="stroke: rgb(105, 134, 191);"></path><path d="M426,332.30769230769266C634,332.30769230769266,634,444.35897435897425,842,444.35897435897425" stroke-width="10.256410256410257" style="stroke: rgb(105, 134, 191);"></path><path d="M426,342.56410256410294C634,342.56410256410294,634,474.87179487179475,842,474.87179487179475" stroke-width="10.256410256410257" style="stroke: rgb(105, 134, 191);"></path><path d="M426,311.7948717948721C634,311.7948717948721,634,362.8205128205128,842,362.8205128205128" stroke-width="10.256410256410257" style="stroke: rgb(105, 134, 191);"></path><path d="M426,322.0512820512824C634,322.0512820512824,634,424.1025641025641,842,424.1025641025641" stroke-width="10.256410256410257" style="stroke: rgb(105, 134, 191);"></path><path d="M426,291.28205128205155C634,291.28205128205155,634,148.20512820512835,842,148.20512820512835" stroke-width="10.256410256410257" style="stroke: rgb(105, 134, 191);"></path><path d="M426,214.61538461538484C634,214.61538461538484,634,81.53846153846166,842,81.53846153846166" stroke-width="123.0769230769231" style="stroke: rgb(105, 105, 191);"></path><path d="M426,373.07692307692344C634,373.07692307692344,634,209.48717948717945,842,209.48717948717945" stroke-width="30.769230769230774" style="stroke: rgb(134, 105, 191);"></path><path d="M426,408.71794871794907C634,408.71794871794907,634,235.12820512820508,842,235.12820512820508" stroke-width="20.512820512820515" style="stroke: rgb(162, 105, 191);"></path><path d="M426,444.35897435897476C634,444.35897435897476,634,454.6153846153845,842,454.6153846153845" stroke-width="10.256410256410257" style="stroke: rgb(191, 105, 191);"></path><path d="M426,434.1025641025645C634,434.1025641025645,634,301.53846153846155,842,301.53846153846155" stroke-width="10.256410256410257" style="stroke: rgb(191, 105, 191);"></path><path d="M426,40.51282051282065C634,40.51282051282065,634,275.8974358974359,842,275.8974358974359" stroke-width="41.02564102564103" style="stroke: rgb(191, 105, 162);"></path><path d="M426,81.53846153846169C634,81.53846153846169,634,337.1794871794871,842,337.1794871794871" stroke-width="41.02564102564103" style="stroke: rgb(191, 105, 162);"></path><path d="M426,122.56410256410271C634,122.56410256410271,634,398.4615384615384,842,398.4615384615384" stroke-width="41.02564102564103" style="stroke: rgb(191, 105, 162);"></path><path d="M426,469.74358974358995C634,469.74358974358995,634,163.5897435897437,842,163.5897435897437" stroke-width="20.512820512820515" style="stroke: rgb(191, 105, 134);"></path></g><g class="nodes" font-family="Arial, Helvetica" font-size="10"><g><rect x="842" y="183.8461538461538" height="61.538461538461576" width="5" fill="#000"></rect><text x="836" y="214.61538461538458" dy="0.35em" text-anchor="end">binary file metadata</text></g><g><rect x="842" y="439.2307692307691" height="20.512820512820497" width="5" fill="#000"></rect><text x="836" y="449.48717948717933" dy="0.35em" text-anchor="end">malware reverse engineering</text></g><g><rect x="842" y="255.3846153846154" height="51.28205128205127" width="5" fill="#000"></rect><text x="836" y="281.025641025641" dy="0.35em" text-anchor="end">netflow/enclave netflow</text></g><g><rect x="842" y="469.7435897435896" height="10.256410256410277" width="5" fill="#000"></rect><text x="836" y="474.87179487179475" dy="0.35em" text-anchor="end">network intrusion detection system</text></g><g><rect x="842" y="316.66666666666663" height="51.28205128205127" width="5" fill="#000"></rect><text x="836" y="342.30769230769226" dy="0.35em" text-anchor="end">network protocol analysis</text></g><g><rect x="842" y="377.9487179487179" height="51.28205128205121" width="5" fill="#000"></rect><text x="836" y="403.58974358974353" dy="0.35em" text-anchor="end">ssl/tls inspection</text></g><g><rect x="842" y="20.000000000000114" height="153.8461538461537" width="5" fill="#000"></rect><text x="836" y="96.92307692307696" dy="0.35em" text-anchor="end">windows event logs</text></g><g><rect x="0" y="92.0512820512821" height="61.53846153846155" width="5" fill="#000"></rect><text x="11" y="122.82051282051287" dy="0.35em" text-anchor="start">Antivirus/Antimalware</text></g><g><rect x="0" y="337.1794871794873" height="30.769230769230774" width="5" fill="#000"></rect><text x="11" y="352.56410256410265" dy="0.35em" text-anchor="start">Audit</text></g><g><rect x="0" y="469.48717948717945" height="10.256410256410263" width="5" fill="#000"></rect><text x="11" y="474.6153846153846" dy="0.35em" text-anchor="start">Code Signing</text></g><g><rect x="0" y="489.7435897435897" height="10.256410256410248" width="5" fill="#000"></rect><text x="11" y="494.87179487179486" dy="0.35em" text-anchor="start">Execution Prevention</text></g><g><rect x="0" y="418.7179487179486" height="20.512820512820532" width="5" fill="#000"></rect><text x="11" y="428.9743589743589" dy="0.35em" text-anchor="start">Exploit Protection</text></g><g><rect x="0" y="5.684341886080802e-14" height="82.05128205128204" width="5" fill="#000"></rect><text x="11" y="41.02564102564108" dy="0.35em" text-anchor="start">Network Intrusion Prevention</text></g><g><rect x="0" y="377.94871794871807" height="30.769230769230546" width="5" fill="#000"></rect><text x="11" y="393.33333333333337" dy="0.35em" text-anchor="start">Operating System Configuration</text></g><g><rect x="0" y="296.41025641025647" height="30.76923076923083" width="5" fill="#000"></rect><text x="11" y="311.7948717948719" dy="0.35em" text-anchor="start">Privileged Account Management</text></g><g><rect x="0" y="449.23076923076917" height="10.256410256410277" width="5" fill="#000"></rect><text x="11" y="454.3589743589743" dy="0.35em" text-anchor="start">Restrict File and Directory Permissions</text></g><g><rect x="0" y="163.58974358974365" height="61.53846153846155" width="5" fill="#000"></rect><text x="11" y="194.35897435897442" dy="0.35em" text-anchor="start">Restrict Web-Based Content</text></g><g><rect x="0" y="235.1282051282052" height="51.28205128205127" width="5" fill="#000"></rect><text x="11" y="260.76923076923083" dy="0.35em" text-anchor="start">User Account Management</text></g><g><rect x="421" y="357.692307692308" height="30.76923076923076" width="5" fill="#000"></rect><text x="415" y="373.0769230769234" dy="0.35em" text-anchor="end">masquerading</text></g><g><rect x="421" y="459.4871794871797" height="20.512820512820213" width="5" fill="#000"></rect><text x="415" y="469.7435897435898" dy="0.35em" text-anchor="end">new service</text></g><g><rect x="421" y="286.1538461538464" height="61.538461538461604" width="5" fill="#000"></rect><text x="415" y="316.92307692307725" dy="0.35em" text-anchor="end">obfuscated files or information</text></g><g><rect x="421" y="398.4615384615388" height="20.512820512820525" width="5" fill="#000"></rect><text x="415" y="408.71794871794907" dy="0.35em" text-anchor="end">rundll32</text></g><g><rect x="421" y="153.0769230769233" height="123.0769230769231" width="5" fill="#000"></rect><text x="415" y="214.61538461538484" dy="0.35em" text-anchor="end">scheduled task</text></g><g><rect x="421" y="428.97435897435935" height="20.512820512820298" width="5" fill="#000"></rect><text x="415" y="439.2307692307695" dy="0.35em" text-anchor="end">standard application layer protocol</text></g><g><rect x="421" y="20.000000000000142" height="123.07692307692315" width="5" fill="#000"></rect><text x="415" y="81.53846153846172" dy="0.35em" text-anchor="end">web service</text></g></g></g></svg>