<svg width="847" height="520" xmlns="http://www.w3.org/2000/svg" version="1.1"><g transform="translate(0, 10)"><g class="links" fill="none" stroke-opacity="0.4"><path d="M5,326.3636363636363C213,326.3636363636363,213,304.545454545455,421,304.545454545455" stroke-width="65.45454545454545" style="stroke: rgb(191, 105, 105);"></path><path d="M5,260.9090909090909C213,260.9090909090909,213,98.18181818181787,421,98.18181818181787" stroke-width="65.45454545454545" style="stroke: rgb(191, 105, 105);"></path><path d="M5,98.18181818181819C213,98.18181818181819,213,239.09090909090952,421,239.09090909090952" stroke-width="65.45454545454545" style="stroke: rgb(191, 191, 105);"></path><path d="M5,174.54545454545453C213,174.54545454545453,213,456.3636363636367,421,456.3636363636367" stroke-width="87.27272727272727" style="stroke: rgb(191, 191, 105);"></path><path d="M5,32.72727272727273C213,32.72727272727273,213,32.727272727272414,421,32.727272727272414" stroke-width="65.45454545454545" style="stroke: rgb(191, 191, 105);"></path><path d="M5,467.2727272727273C213,467.2727272727273,213,370.00000000000045,421,370.00000000000045" stroke-width="65.45454545454545" style="stroke: rgb(105, 191, 105);"></path><path d="M5,401.81818181818187C213,401.81818181818187,213,163.6363636363633,421,163.6363636363633" stroke-width="65.45454545454545" style="stroke: rgb(105, 191, 105);"></path><path d="M426,239.09090909090952C634,239.09090909090952,634,98.18181818181819,842,98.18181818181819" stroke-width="65.45454545454545" style="stroke: rgb(105, 191, 191);"></path><path d="M426,370.00000000000045C634,370.00000000000045,634,467.2727272727273,842,467.2727272727273" stroke-width="65.45454545454545" style="stroke: rgb(105, 191, 191);"></path><path d="M426,304.545454545455C634,304.545454545455,634,282.72727272727286,842,282.72727272727286" stroke-width="65.45454545454545" style="stroke: rgb(105, 191, 191);"></path><path d="M426,32.727272727272414C634,32.727272727272414,634,32.72727272727273,842,32.72727272727273" stroke-width="65.45454545454545" style="stroke: rgb(105, 105, 191);"></path><path d="M426,163.6363636363633C634,163.6363636363633,634,401.81818181818187,842,401.81818181818187" stroke-width="65.45454545454545" style="stroke: rgb(105, 105, 191);"></path><path d="M426,98.18181818181787C634,98.18181818181787,634,217.2727272727274,842,217.2727272727274" stroke-width="65.45454545454545" style="stroke: rgb(105, 105, 191);"></path><path d="M426,434.5454545454549C634,434.5454545454549,634,152.72727272727272,842,152.72727272727272" stroke-width="43.63636363636363" style="stroke: rgb(191, 105, 191);"></path><path d="M426,478.1818181818185C634,478.1818181818185,634,337.27272727272737,842,337.27272727272737" stroke-width="43.63636363636363" style="stroke: rgb(191, 105, 191);"></path></g><g class="nodes" font-family="Arial, Helvetica" font-size="10"><g><rect x="842" y="0" height="174.54545454545467" width="5" fill="#000"></rect><text x="836" y="87.27272727272734" dy="0.35em" text-anchor="end">netflow/enclave netflow</text></g><g><rect x="842" y="369.0909090909091" height="130.90909090909088" width="5" fill="#000"></rect><text x="836" y="434.54545454545456" dy="0.35em" text-anchor="end">network intrusion detection system</text></g><g><rect x="842" y="184.54545454545467" height="174.54545454545445" width="5" fill="#000"></rect><text x="836" y="271.81818181818187" dy="0.35em" text-anchor="end">network protocol analysis</text></g><g><rect x="0" y="228.18181818181813" height="130.909090909091" width="5" fill="#000"></rect><text x="11" y="293.6363636363636" dy="0.35em" text-anchor="start">Filter Network Traffic</text></g><g><rect x="0" y="0" height="218.18181818181813" width="5" fill="#000"></rect><text x="11" y="109.09090909090907" dy="0.35em" text-anchor="start">Network Intrusion Prevention</text></g><g><rect x="0" y="369.0909090909091" height="130.90909090909088" width="5" fill="#000"></rect><text x="11" y="434.54545454545456" dy="0.35em" text-anchor="start">Network Segmentation</text></g><g><rect x="421" y="206.3636363636368" height="196.36363636363626" width="5" fill="#000"></rect><text x="415" y="304.54545454545496" dy="0.35em" text-anchor="end">custom command and control protocol</text></g><g><rect x="421" y="412.7272727272731" height="87.27272727272722" width="5" fill="#000"></rect><text x="415" y="456.3636363636367" dy="0.35em" text-anchor="end">remote file copy</text></g><g><rect x="421" y="-3.126388037344441e-13" height="196.3636363636371" width="5" fill="#000"></rect><text x="415" y="98.18181818181824" dy="0.35em" text-anchor="end">standard non-application layer protocol</text></g></g></g></svg>