<svg width="847" height="520" xmlns="http://www.w3.org/2000/svg" version="1.1"><g transform="translate(0, 10)"><g class="links" fill="none" stroke-opacity="0.4"><path d="M5,297.85714285714306C213,297.85714285714306,213,456.19047619047603,421,456.19047619047603" stroke-width="17.61904761904762" style="stroke: rgb(191, 105, 105);"></path><path d="M5,380.71428571428595C213,380.71428571428595,213,96.66666666666693,421,96.66666666666693" stroke-width="17.61904761904762" style="stroke: rgb(191, 130, 105);"></path><path d="M5,325.4761904761907C213,325.4761904761907,213,292.8571428571427,421,292.8571428571427" stroke-width="17.61904761904762" style="stroke: rgb(191, 154, 105);"></path><path d="M5,215C213,215,213,61.428571428571686,421,61.428571428571686" stroke-width="17.61904761904762" style="stroke: rgb(191, 179, 105);"></path><path d="M5,353.09523809523836C213,353.09523809523836,213,310.4761904761903,421,310.4761904761903" stroke-width="17.61904761904762" style="stroke: rgb(179, 191, 105);"></path><path d="M5,408.33333333333354C213,408.33333333333354,213,114.28571428571455,421,114.28571428571455" stroke-width="17.61904761904762" style="stroke: rgb(154, 191, 105);"></path><path d="M5,270.2380952380954C213,270.2380952380954,213,79.0476190476193,421,79.0476190476193" stroke-width="17.61904761904762" style="stroke: rgb(130, 191, 105);"></path><path d="M5,88.09523809523807C213,88.09523809523807,213,346.9047619047618,421,346.9047619047618" stroke-width="35.23809523809524" style="stroke: rgb(105, 191, 105);"></path><path d="M5,35.23809523809521C213,35.23809523809521,213,221.19047619047623,421,221.19047619047623" stroke-width="70.47619047619048" style="stroke: rgb(105, 191, 105);"></path><path d="M5,491.1904761904763C213,491.1904761904763,213,167.1428571428574,421,167.1428571428574" stroke-width="17.61904761904762" style="stroke: rgb(105, 191, 130);"></path><path d="M5,435.95238095238113C213,435.95238095238113,213,131.90476190476215,421,131.90476190476215" stroke-width="17.61904761904762" style="stroke: rgb(105, 191, 154);"></path><path d="M5,463.5714285714287C213,463.5714285714287,213,149.5238095238098,421,149.5238095238098" stroke-width="17.61904761904762" style="stroke: rgb(105, 191, 179);"></path><path d="M5,142.1428571428571C213,142.1428571428571,213,383.3333333333332,421,383.3333333333332" stroke-width="17.61904761904762" style="stroke: rgb(105, 179, 191);"></path><path d="M5,124.5238095238095C213,124.5238095238095,213,275.23809523809507,421,275.23809523809507" stroke-width="17.61904761904762" style="stroke: rgb(105, 179, 191);"></path><path d="M5,242.6190476190477C213,242.6190476190477,213,428.5714285714283,421,428.5714285714283" stroke-width="17.61904761904762" style="stroke: rgb(105, 154, 191);"></path><path d="M5,187.3809523809524C213,187.3809523809524,213,400.9523809523808,421,400.9523809523808" stroke-width="17.61904761904762" style="stroke: rgb(105, 130, 191);"></path><path d="M5,169.76190476190476C213,169.76190476190476,213,43.809523809524066,421,43.809523809524066" stroke-width="17.61904761904762" style="stroke: rgb(105, 130, 191);"></path><path d="M426,456.19047619047603C634,456.19047619047603,634,305.47619047619037,842,305.47619047619037" stroke-width="17.61904761904762" style="stroke: rgb(105, 105, 191);"></path><path d="M426,105.47619047619074C634,105.47619047619074,634,110.47619047619034,842,110.47619047619034" stroke-width="140.95238095238096" style="stroke: rgb(130, 105, 191);"></path><path d="M426,292.8571428571427C634,292.8571428571427,634,270.2380952380951,842,270.2380952380951" stroke-width="52.85714285714286" style="stroke: rgb(154, 105, 191);"></path><path d="M426,355.7142857142856C634,355.7142857142856,634,423.57142857142856,842,423.57142857142856" stroke-width="17.61904761904762" style="stroke: rgb(179, 105, 191);"></path><path d="M426,338.09523809523796C634,338.09523809523796,634,224.9999999999999,842,224.9999999999999" stroke-width="17.61904761904762" style="stroke: rgb(179, 105, 191);"></path><path d="M426,203.5714285714286C634,203.5714285714286,634,198.57142857142844,842,198.57142857142844" stroke-width="35.23809523809524" style="stroke: rgb(191, 105, 179);"></path><path d="M426,238.80952380952385C634,238.80952380952385,634,387.1428571428571,842,387.1428571428571" stroke-width="35.23809523809524" style="stroke: rgb(191, 105, 179);"></path><path d="M426,392.142857142857C634,392.142857142857,634,341.9047619047618,842,341.9047619047618" stroke-width="35.23809523809524" style="stroke: rgb(191, 105, 154);"></path><path d="M426,428.5714285714283C634,428.5714285714283,634,451.19047619047643,842,451.19047619047643" stroke-width="17.61904761904762" style="stroke: rgb(191, 105, 130);"></path></g><g class="nodes" font-family="Arial, Helvetica" font-size="10"><g><rect x="842" y="324.2857142857142" height="35.23809523809527" width="5" fill="#000"></rect><text x="836" y="341.90476190476187" dy="0.35em" text-anchor="end">anti-virus</text></g><g><rect x="842" y="243.8095238095237" height="70.4761904761905" width="5" fill="#000"></rect><text x="836" y="279.047619047619" dy="0.35em" text-anchor="end">binary file metadata</text></g><g><rect x="842" y="414.76190476190476" height="17.619047619047848" width="5" fill="#000"></rect><text x="836" y="423.57142857142867" dy="0.35em" text-anchor="end">malware reverse engineering</text></g><g><rect x="842" y="39.99999999999986" height="193.80952380952385" width="5" fill="#000"></rect><text x="836" y="136.90476190476178" dy="0.35em" text-anchor="end">netflow/enclave netflow</text></g><g><rect x="842" y="369.5238095238095" height="35.23809523809524" width="5" fill="#000"></rect><text x="836" y="387.1428571428571" dy="0.35em" text-anchor="end">network protocol analysis</text></g><g><rect x="842" y="442.38095238095264" height="17.619047619047592" width="5" fill="#000"></rect><text x="836" y="451.19047619047643" dy="0.35em" text-anchor="end">windows event logs</text></g><g><rect x="0" y="289.04761904761926" height="17.619047619047628" width="5" fill="#000"></rect><text x="11" y="297.85714285714306" dy="0.35em" text-anchor="start">Antivirus/Antimalware</text></g><g><rect x="0" y="371.90476190476215" height="17.619047619047592" width="5" fill="#000"></rect><text x="11" y="380.71428571428595" dy="0.35em" text-anchor="start">Audit</text></g><g><rect x="0" y="316.6666666666669" height="17.619047619047628" width="5" fill="#000"></rect><text x="11" y="325.4761904761907" dy="0.35em" text-anchor="start">Code Signing</text></g><g><rect x="0" y="206.1904761904762" height="17.619047619047706" width="5" fill="#000"></rect><text x="11" y="215.00000000000006" dy="0.35em" text-anchor="start">Disable or Remove Feature or Program</text></g><g><rect x="0" y="344.28571428571456" height="17.619047619047606" width="5" fill="#000"></rect><text x="11" y="353.09523809523836" dy="0.35em" text-anchor="start">Execution Prevention</text></g><g><rect x="0" y="399.52380952380975" height="17.619047619047592" width="5" fill="#000"></rect><text x="11" y="408.33333333333354" dy="0.35em" text-anchor="start">Limit Access to Resource Over Network</text></g><g><rect x="0" y="261.4285714285716" height="17.61904761904765" width="5" fill="#000"></rect><text x="11" y="270.2380952380954" dy="0.35em" text-anchor="start">Multi-factor Authentication</text></g><g><rect x="0" y="-2.842170943040401e-14" height="105.71428571428572" width="5" fill="#000"></rect><text x="11" y="52.85714285714283" dy="0.35em" text-anchor="start">Network Intrusion Prevention</text></g><g><rect x="0" y="482.3809523809525" height="17.61904761904748" width="5" fill="#000"></rect><text x="11" y="491.19047619047626" dy="0.35em" text-anchor="start">Network Segmentation</text></g><g><rect x="0" y="427.14285714285734" height="17.619047619047592" width="5" fill="#000"></rect><text x="11" y="435.95238095238113" dy="0.35em" text-anchor="start">Operating System Configuration</text></g><g><rect x="0" y="454.76190476190493" height="17.619047619047592" width="5" fill="#000"></rect><text x="11" y="463.5714285714287" dy="0.35em" text-anchor="start">Privileged Account Management</text></g><g><rect x="0" y="115.7142857142857" height="35.23809523809528" width="5" fill="#000"></rect><text x="11" y="133.33333333333334" dy="0.35em" text-anchor="start">Restrict File and Directory Permissions</text></g><g><rect x="0" y="233.8095238095239" height="17.619047619047706" width="5" fill="#000"></rect><text x="11" y="242.61904761904776" dy="0.35em" text-anchor="start">Restrict Registry Permissions</text></g><g><rect x="0" y="160.95238095238096" height="35.23809523809524" width="5" fill="#000"></rect><text x="11" y="178.57142857142858" dy="0.35em" text-anchor="start">User Account Management</text></g><g><rect x="421" y="374.5238095238094" height="35.23809523809511" width="5" fill="#000"></rect><text x="415" y="392.14285714285694" dy="0.35em" text-anchor="end">disabling security tools</text></g><g><rect x="421" y="266.4285714285713" height="52.85714285714288" width="5" fill="#000"></rect><text x="415" y="292.8571428571427" dy="0.35em" text-anchor="end">masquerading</text></g><g><rect x="421" y="419.76190476190453" height="17.619047619047706" width="5" fill="#000"></rect><text x="415" y="428.5714285714284" dy="0.35em" text-anchor="end">modify registry</text></g><g><rect x="421" y="35.000000000000256" height="140.95238095238074" width="5" fill="#000"></rect><text x="415" y="105.47619047619062" dy="0.35em" text-anchor="end">remote desktop protocol</text></g><g><rect x="421" y="185.952380952381" height="70.47619047619028" width="5" fill="#000"></rect><text x="415" y="221.19047619047615" dy="0.35em" text-anchor="end">remote file copy</text></g><g><rect x="421" y="447.38095238095224" height="17.61904761904762" width="5" fill="#000"></rect><text x="415" y="456.19047619047603" dy="0.35em" text-anchor="end">software packing</text></g><g><rect x="421" y="329.28571428571416" height="35.23809523809524" width="5" fill="#000"></rect><text x="415" y="346.9047619047618" dy="0.35em" text-anchor="end">standard application layer protocol</text></g></g></g></svg>