<svg width="847" height="520" xmlns="http://www.w3.org/2000/svg" version="1.1"><g transform="translate(0, 10)"><g class="links" fill="none" stroke-opacity="0.4"><path d="M5,277C213,277,213,50.39999999999995,421,50.39999999999995" stroke-width="100.80000000000001" style="stroke: rgb(191, 105, 105);"></path><path d="M5,335.8C213,335.8,213,464.80000000000024,421,464.80000000000024" stroke-width="16.8" style="stroke: rgb(191, 105, 105);"></path><path d="M5,476.59999999999997C213,476.59999999999997,213,340.80000000000024,421,340.80000000000024" stroke-width="16.8" style="stroke: rgb(191, 139, 105);"></path><path d="M5,422.99999999999983C213,422.99999999999983,213,307.2000000000002,421,307.2000000000002" stroke-width="16.8" style="stroke: rgb(191, 174, 105);"></path><path d="M5,208.20000000000005C213,208.20000000000005,213,491.6000000000002,421,491.6000000000002" stroke-width="16.8" style="stroke: rgb(174, 191, 105);"></path><path d="M5,149.40000000000003C213,149.40000000000003,213,376.0000000000002,421,376.0000000000002" stroke-width="33.6" style="stroke: rgb(174, 191, 105);"></path><path d="M5,40.20000000000003C213,40.20000000000003,213,136.00000000000034,421,136.00000000000034" stroke-width="50.400000000000006" style="stroke: rgb(174, 191, 105);"></path><path d="M5,99.00000000000003C213,99.00000000000003,213,255.2000000000003,421,255.2000000000003" stroke-width="67.2" style="stroke: rgb(174, 191, 105);"></path><path d="M5,174.60000000000002C213,174.60000000000002,213,411.2000000000002,421,411.2000000000002" stroke-width="16.8" style="stroke: rgb(174, 191, 105);"></path><path d="M5,191.40000000000003C213,191.40000000000003,213,438.0000000000003,421,438.0000000000003" stroke-width="16.8" style="stroke: rgb(174, 191, 105);"></path><path d="M5,449.79999999999995C213,449.79999999999995,213,324.0000000000002,421,324.0000000000002" stroke-width="16.8" style="stroke: rgb(139, 191, 105);"></path><path d="M5,379.40000000000003C213,379.40000000000003,213,186.40000000000038,421,186.40000000000038" stroke-width="50.400000000000006" style="stroke: rgb(105, 191, 105);"></path><path d="M426,8.399999999999944C634,8.399999999999944,634,18.3999999999998,842,18.3999999999998" stroke-width="16.8" style="stroke: rgb(105, 191, 139);"></path><path d="M426,41.99999999999994C634,41.99999999999994,634,317.1999999999998,842,317.1999999999998" stroke-width="16.8" style="stroke: rgb(105, 191, 139);"></path><path d="M426,75.59999999999995C634,75.59999999999995,634,454.8000000000003,842,454.8000000000003" stroke-width="16.8" style="stroke: rgb(105, 191, 139);"></path><path d="M426,25.199999999999946C634,25.199999999999946,634,223.1999999999999,842,223.1999999999999" stroke-width="16.8" style="stroke: rgb(105, 191, 139);"></path><path d="M426,58.79999999999995C634,58.79999999999995,634,394.39999999999986,842,394.39999999999986" stroke-width="16.8" style="stroke: rgb(105, 191, 139);"></path><path d="M426,92.39999999999995C634,92.39999999999995,634,481.60000000000025,842,481.60000000000025" stroke-width="16.8" style="stroke: rgb(105, 191, 139);"></path><path d="M426,464.80000000000024C634,464.80000000000024,634,85.59999999999981,842,85.59999999999981" stroke-width="16.8" style="stroke: rgb(105, 191, 174);"></path><path d="M426,324.0000000000002C634,324.0000000000002,634,51.9999999999998,842,51.9999999999998" stroke-width="50.400000000000006" style="stroke: rgb(105, 174, 191);"></path><path d="M426,491.6000000000002C634,491.6000000000002,634,102.3999999999998,842,102.3999999999998" stroke-width="16.8" style="stroke: rgb(105, 139, 191);"></path><path d="M426,384.4000000000002C634,384.4000000000002,634,367.59999999999985,842,367.59999999999985" stroke-width="16.8" style="stroke: rgb(105, 105, 191);"></path><path d="M426,367.6000000000002C634,367.6000000000002,634,196.39999999999978,842,196.39999999999978" stroke-width="16.8" style="stroke: rgb(105, 105, 191);"></path><path d="M426,161.20000000000036C634,161.20000000000036,634,342.39999999999986,842,342.39999999999986" stroke-width="33.6" style="stroke: rgb(139, 105, 191);"></path><path d="M426,127.60000000000035C634,127.60000000000035,634,137.5999999999998,842,137.5999999999998" stroke-width="33.6" style="stroke: rgb(139, 105, 191);"></path><path d="M426,194.80000000000035C634,194.80000000000035,634,419.5999999999999,842,419.5999999999999" stroke-width="33.6" style="stroke: rgb(139, 105, 191);"></path><path d="M426,238.40000000000032C634,238.40000000000032,634,171.1999999999998,842,171.1999999999998" stroke-width="33.6" style="stroke: rgb(174, 105, 191);"></path><path d="M426,272.0000000000003C634,272.0000000000003,634,248.39999999999992,842,248.39999999999992" stroke-width="33.6" style="stroke: rgb(174, 105, 191);"></path><path d="M426,411.2000000000002C634,411.2000000000002,634,273.5999999999999,842,273.5999999999999" stroke-width="16.8" style="stroke: rgb(191, 105, 174);"></path><path d="M426,438.0000000000003C634,438.0000000000003,634,290.3999999999999,842,290.3999999999999" stroke-width="16.8" style="stroke: rgb(191, 105, 139);"></path></g><g class="nodes" font-family="Arial, Helvetica" font-size="10"><g><rect x="842" y="9.999999999999801" height="100.79999999999998" width="5" fill="#000"></rect><text x="836" y="60.39999999999979" dy="0.35em" text-anchor="end">binary file metadata</text></g><g><rect x="842" y="308.79999999999984" height="67.20000000000005" width="5" fill="#000"></rect><text x="836" y="342.39999999999986" dy="0.35em" text-anchor="end">malware reverse engineering</text></g><g><rect x="842" y="120.79999999999978" height="84.00000000000011" width="5" fill="#000"></rect><text x="836" y="162.79999999999984" dy="0.35em" text-anchor="end">netflow/enclave netflow</text></g><g><rect x="842" y="446.4000000000003" height="16.799999999999955" width="5" fill="#000"></rect><text x="836" y="454.8000000000003" dy="0.35em" text-anchor="end">network intrusion detection system</text></g><g><rect x="842" y="214.7999999999999" height="83.99999999999994" width="5" fill="#000"></rect><text x="836" y="256.79999999999984" dy="0.35em" text-anchor="end">network protocol analysis</text></g><g><rect x="842" y="385.9999999999999" height="50.40000000000043" width="5" fill="#000"></rect><text x="836" y="411.2000000000001" dy="0.35em" text-anchor="end">ssl/tls inspection</text></g><g><rect x="842" y="473.2000000000003" height="16.799999999999955" width="5" fill="#000"></rect><text x="836" y="481.60000000000025" dy="0.35em" text-anchor="end">windows event logs</text></g><g><rect x="0" y="226.60000000000002" height="117.60000000000002" width="5" fill="#000"></rect><text x="11" y="285.40000000000003" dy="0.35em" text-anchor="start">Antivirus/Antimalware</text></g><g><rect x="0" y="468.2" height="16.799999999999997" width="5" fill="#000"></rect><text x="11" y="476.59999999999997" dy="0.35em" text-anchor="start">Code Signing</text></g><g><rect x="0" y="414.59999999999985" height="16.800000000000097" width="5" fill="#000"></rect><text x="11" y="422.9999999999999" dy="0.35em" text-anchor="start">Execution Prevention</text></g><g><rect x="0" y="15.000000000000028" height="201.6" width="5" fill="#000"></rect><text x="11" y="115.80000000000003" dy="0.35em" text-anchor="start">Network Intrusion Prevention</text></g><g><rect x="0" y="441.4" height="16.80000000000001" width="5" fill="#000"></rect><text x="11" y="449.79999999999995" dy="0.35em" text-anchor="start">Restrict File and Directory Permissions</text></g><g><rect x="0" y="354.20000000000005" height="50.39999999999981" width="5" fill="#000"></rect><text x="11" y="379.4" dy="0.35em" text-anchor="start">SSL/TLS Inspection</text></g><g><rect x="421" y="483.2000000000002" height="16.79999999999984" width="5" fill="#000"></rect><text x="415" y="491.60000000000014" dy="0.35em" text-anchor="end">data compressed</text></g><g><rect x="421" y="402.80000000000024" height="16.800000000000068" width="5" fill="#000"></rect><text x="415" y="411.2000000000003" dy="0.35em" text-anchor="end">data encoding</text></g><g><rect x="421" y="429.6000000000003" height="16.799999999999955" width="5" fill="#000"></rect><text x="415" y="438.0000000000003" dy="0.35em" text-anchor="end">data obfuscation</text></g><g><rect x="421" y="298.80000000000024" height="50.4" width="5" fill="#000"></rect><text x="415" y="324.0000000000002" dy="0.35em" text-anchor="end">masquerading</text></g><g><rect x="421" y="-5.684341886080802e-14" height="100.80000000000041" width="5" fill="#000"></rect><text x="415" y="50.40000000000015" dy="0.35em" text-anchor="end">obfuscated files or information</text></g><g><rect x="421" y="221.6000000000003" height="67.19999999999993" width="5" fill="#000"></rect><text x="415" y="255.20000000000027" dy="0.35em" text-anchor="end">remote file copy</text></g><g><rect x="421" y="456.40000000000026" height="16.799999999999955" width="5" fill="#000"></rect><text x="415" y="464.80000000000024" dy="0.35em" text-anchor="end">software packing</text></g><g><rect x="421" y="359.2000000000002" height="33.60000000000002" width="5" fill="#000"></rect><text x="415" y="376.0000000000002" dy="0.35em" text-anchor="end">standard application layer protocol</text></g><g><rect x="421" y="110.80000000000035" height="100.79999999999995" width="5" fill="#000"></rect><text x="415" y="161.20000000000033" dy="0.35em" text-anchor="end">standard cryptographic protocol</text></g></g></g></svg>