<svg width="847" height="520" xmlns="http://www.w3.org/2000/svg" version="1.1"><g transform="translate(0, 10)"><g class="links" fill="none" stroke-opacity="0.4"><path d="M5,468.6666666666668C213,468.6666666666668,213,463.6666666666668,421,463.6666666666668" stroke-width="62.666666666666664" style="stroke: rgb(191, 105, 105);"></path><path d="M5,380.3333333333335C213,380.3333333333335,213,239.99999999999986,421,239.99999999999986" stroke-width="94" style="stroke: rgb(191, 179, 105);"></path><path d="M5,46.999999999999886C213,46.999999999999886,213,51.99999999999986,421,51.99999999999986" stroke-width="94" style="stroke: rgb(130, 191, 105);"></path><path d="M5,156.66666666666654C213,156.66666666666654,213,359.6666666666669,421,359.6666666666669" stroke-width="125.33333333333333" style="stroke: rgb(130, 191, 105);"></path><path d="M5,276.33333333333326C213,276.33333333333326,213,145.99999999999986,421,145.99999999999986" stroke-width="94" style="stroke: rgb(105, 191, 154);"></path><path d="M426,463.6666666666668C634,463.6666666666668,634,468.6666666666666,842,468.6666666666666" stroke-width="62.666666666666664" style="stroke: rgb(105, 154, 191);"></path><path d="M426,51.99999999999986C634,51.99999999999986,634,47.000000000000085,842,47.000000000000085" stroke-width="94" style="stroke: rgb(130, 105, 191);"></path><path d="M426,239.99999999999986C634,239.99999999999986,634,380.33333333333314,842,380.33333333333314" stroke-width="94" style="stroke: rgb(130, 105, 191);"></path><path d="M426,145.99999999999986C634,145.99999999999986,634,213.66666666666663,842,213.66666666666663" stroke-width="94" style="stroke: rgb(130, 105, 191);"></path><path d="M426,328.33333333333354C634,328.33333333333354,634,125.33333333333341,842,125.33333333333341" stroke-width="62.666666666666664" style="stroke: rgb(191, 105, 179);"></path><path d="M426,391.0000000000002C634,391.0000000000002,634,291.99999999999994,842,291.99999999999994" stroke-width="62.666666666666664" style="stroke: rgb(191, 105, 179);"></path></g><g class="nodes" font-family="Arial, Helvetica" font-size="10"><g><rect x="842" y="437.33333333333326" height="62.66666666666667" width="5" fill="#000"></rect><text x="836" y="468.6666666666666" dy="0.35em" text-anchor="end">binary file metadata</text></g><g><rect x="842" y="8.526512829121202e-14" height="156.66666666666654" width="5" fill="#000"></rect><text x="836" y="78.33333333333336" dy="0.35em" text-anchor="end">netflow/enclave netflow</text></g><g><rect x="842" y="333.33333333333314" height="94.00000000000011" width="5" fill="#000"></rect><text x="836" y="380.3333333333332" dy="0.35em" text-anchor="end">network intrusion detection system</text></g><g><rect x="842" y="166.66666666666663" height="156.66666666666652" width="5" fill="#000"></rect><text x="836" y="244.9999999999999" dy="0.35em" text-anchor="end">network protocol analysis</text></g><g><rect x="0" y="437.3333333333335" height="62.666666666666664" width="5" fill="#000"></rect><text x="11" y="468.6666666666668" dy="0.35em" text-anchor="start">Exploit Protection</text></g><g><rect x="0" y="333.3333333333335" height="94" width="5" fill="#000"></rect><text x="11" y="380.3333333333335" dy="0.35em" text-anchor="start">Filter Network Traffic</text></g><g><rect x="0" y="-1.1368683772161603e-13" height="219.33333333333334" width="5" fill="#000"></rect><text x="11" y="109.66666666666656" dy="0.35em" text-anchor="start">Network Intrusion Prevention</text></g><g><rect x="0" y="229.33333333333323" height="94.00000000000023" width="5" fill="#000"></rect><text x="11" y="276.33333333333337" dy="0.35em" text-anchor="start">Network Segmentation</text></g><g><rect x="421" y="4.999999999999858" height="282.00000000000034" width="5" fill="#000"></rect><text x="415" y="146.00000000000003" dy="0.35em" text-anchor="end">custom command and control protocol</text></g><g><rect x="421" y="297.0000000000002" height="125.33333333333326" width="5" fill="#000"></rect><text x="415" y="359.66666666666686" dy="0.35em" text-anchor="end">remote file copy</text></g><g><rect x="421" y="432.3333333333335" height="62.666666666666686" width="5" fill="#000"></rect><text x="415" y="463.66666666666686" dy="0.35em" text-anchor="end">rundll32</text></g></g></g></svg>