<svg width="847" height="520" xmlns="http://www.w3.org/2000/svg" version="1.1"><g transform="translate(0, 10)"><g class="links" fill="none" stroke-opacity="0.4"><path d="M5,250C213,250,213,88.33333333333333,421,88.33333333333333" stroke-width="156.66666666666666" style="stroke: rgb(191, 105, 105);"></path><path d="M5,416.6666666666667C213,416.6666666666667,213,245,421,245" stroke-width="156.66666666666666" style="stroke: rgb(174, 191, 105);"></path><path d="M5,83.33333333333327C213,83.33333333333327,213,411.6666666666667,421,411.6666666666667" stroke-width="156.66666666666666" style="stroke: rgb(105, 191, 139);"></path><path d="M426,245C634,245,634,245.00000000000006,842,245.00000000000006" stroke-width="156.66666666666666" style="stroke: rgb(105, 139, 191);"></path><path d="M426,88.33333333333333C634,88.33333333333333,634,78.33333333333336,842,78.33333333333336" stroke-width="156.66666666666666" style="stroke: rgb(105, 139, 191);"></path><path d="M426,372.50000000000006C634,372.50000000000006,634,372.50000000000006,842,372.50000000000006" stroke-width="78.33333333333333" style="stroke: rgb(174, 105, 191);"></path><path d="M426,450.83333333333337C634,450.83333333333337,634,460.8333333333334,842,460.8333333333334" stroke-width="78.33333333333333" style="stroke: rgb(174, 105, 191);"></path></g><g class="nodes" font-family="Arial, Helvetica" font-size="10"><g><rect x="842" y="166.6666666666667" height="156.66666666666666" width="5" fill="#000"></rect><text x="836" y="245.00000000000006" dy="0.35em" text-anchor="end">anti-virus</text></g><g><rect x="842" y="333.33333333333337" height="78.33333333333337" width="5" fill="#000"></rect><text x="836" y="372.50000000000006" dy="0.35em" text-anchor="end">malware reverse engineering</text></g><g><rect x="842" y="421.66666666666674" height="78.33333333333326" width="5" fill="#000"></rect><text x="836" y="460.83333333333337" dy="0.35em" text-anchor="end">netflow/enclave netflow</text></g><g><rect x="842" y="2.842170943040401e-14" height="156.66666666666669" width="5" fill="#000"></rect><text x="836" y="78.33333333333337" dy="0.35em" text-anchor="end">system calls</text></g><g><rect x="0" y="171.66666666666669" height="156.66666666666669" width="5" fill="#000"></rect><text x="11" y="250.00000000000003" dy="0.35em" text-anchor="start">Application Isolation and Sandboxing</text></g><g><rect x="0" y="338.33333333333337" height="156.66666666666666" width="5" fill="#000"></rect><text x="11" y="416.6666666666667" dy="0.35em" text-anchor="start">Exploit Protection</text></g><g><rect x="0" y="4.999999999999943" height="156.66666666666674" width="5" fill="#000"></rect><text x="11" y="83.33333333333331" dy="0.35em" text-anchor="start">Network Intrusion Prevention</text></g><g><rect x="421" y="10" height="313.33333333333337" width="5" fill="#000"></rect><text x="415" y="166.66666666666669" dy="0.35em" text-anchor="end">exploitation for client execution</text></g><g><rect x="421" y="333.33333333333337" height="156.66666666666663" width="5" fill="#000"></rect><text x="415" y="411.6666666666667" dy="0.35em" text-anchor="end">standard application layer protocol</text></g></g></g></svg>