<svg width="847" height="520" xmlns="http://www.w3.org/2000/svg" version="1.1"><g transform="translate(0, 10)"><g class="links" fill="none" stroke-opacity="0.4"><path d="M5,234.13043478260857C213,234.13043478260857,213,59.782608695652286,421,59.782608695652286" stroke-width="109.56521739130434" style="stroke: rgb(191, 105, 105);"></path><path d="M5,485.8695652173911C213,485.8695652173911,213,336.30434782608694,421,336.30434782608694" stroke-width="18.26086956521739" style="stroke: rgb(191, 137, 105);"></path><path d="M5,363.6956521739129C213,363.6956521739129,213,179.34782608695656,421,179.34782608695656" stroke-width="36.52173913043478" style="stroke: rgb(191, 169, 105);"></path><path d="M5,141.95652173913072C213,141.95652173913072,213,457.6086956521738,421,457.6086956521738" stroke-width="18.26086956521739" style="stroke: rgb(180, 191, 105);"></path><path d="M5,114.56521739130463C213,114.56521739130463,213,420.21739130434787,421,420.21739130434787" stroke-width="36.52173913043478" style="stroke: rgb(180, 191, 105);"></path><path d="M5,87.17391304347854C213,87.17391304347854,213,364.5652173913043,421,364.5652173913043" stroke-width="18.26086956521739" style="stroke: rgb(180, 191, 105);"></path><path d="M5,41.521739130435066C213,41.521739130435066,213,244.13043478260875,421,244.13043478260875" stroke-width="73.04347826086956" style="stroke: rgb(180, 191, 105);"></path><path d="M5,160.2173913043481C213,160.2173913043481,213,485.8695652173912,421,485.8695652173912" stroke-width="18.26086956521739" style="stroke: rgb(180, 191, 105);"></path><path d="M5,401.08695652173895C213,401.08695652173895,213,382.8260869565217,421,382.8260869565217" stroke-width="18.26086956521739" style="stroke: rgb(148, 191, 105);"></path><path d="M5,317.17391304347814C213,317.17391304347814,213,142.82608695652175,421,142.82608695652175" stroke-width="36.52173913043478" style="stroke: rgb(116, 191, 105);"></path><path d="M5,457.6086956521737C213,457.6086956521737,213,318.04347826086956,421,318.04347826086956" stroke-width="18.26086956521739" style="stroke: rgb(105, 191, 126);"></path><path d="M5,429.34782608695633C213,429.34782608695633,213,299.7826086956522,421,299.7826086956522" stroke-width="18.26086956521739" style="stroke: rgb(105, 191, 159);"></path><path d="M426,50.65217391304359C634,50.65217391304359,634,387.8260869565217,842,387.8260869565217" stroke-width="18.26086956521739" style="stroke: rgb(105, 191, 191);"></path><path d="M426,32.3913043478262C634,32.3913043478262,634,341.3043478260868,842,341.3043478260868" stroke-width="18.26086956521739" style="stroke: rgb(105, 191, 191);"></path><path d="M426,68.91304347826099C634,68.91304347826099,634,434.34782608695645,842,434.34782608695645" stroke-width="18.26086956521739" style="stroke: rgb(105, 191, 191);"></path><path d="M426,14.130434782608809C634,14.130434782608809,634,193.4782608695653,842,193.4782608695653" stroke-width="18.26086956521739" style="stroke: rgb(105, 191, 191);"></path><path d="M426,87.17391304347836C634,87.17391304347836,634,462.6086956521738,842,462.6086956521738" stroke-width="18.26086956521739" style="stroke: rgb(105, 191, 191);"></path><path d="M426,105.43478260869577C634,105.43478260869577,634,490.8695652173912,842,490.8695652173912" stroke-width="18.26086956521739" style="stroke: rgb(105, 191, 191);"></path><path d="M426,318.04347826086956C634,318.04347826086956,634,294.7826086956522,842,294.7826086956522" stroke-width="54.78260869565217" style="stroke: rgb(105, 159, 191);"></path><path d="M426,161.08695652173915C634,161.08695652173915,634,137.82608695652186,842,137.82608695652186" stroke-width="73.04347826086956" style="stroke: rgb(105, 126, 191);"></path><path d="M426,457.6086956521738C634,457.6086956521738,634,406.08695652173907,842,406.08695652173907" stroke-width="18.26086956521739" style="stroke: rgb(116, 105, 191);"></path><path d="M426,429.34782608695656C634,429.34782608695656,634,359.5652173913042,842,359.5652173913042" stroke-width="18.26086956521739" style="stroke: rgb(148, 105, 191);"></path><path d="M426,411.0869565217392C634,411.0869565217392,634,82.17391304347831,842,82.17391304347831" stroke-width="18.26086956521739" style="stroke: rgb(148, 105, 191);"></path><path d="M426,373.695652173913C634,373.695652173913,634,54.78260869565223,842,54.78260869565223" stroke-width="36.52173913043478" style="stroke: rgb(180, 105, 191);"></path><path d="M426,225.86956521739137C634,225.86956521739137,634,18.260869565217448,842,18.260869565217448" stroke-width="36.52173913043478" style="stroke: rgb(191, 105, 169);"></path><path d="M426,262.3913043478261C634,262.3913043478261,634,220.86956521739137,842,220.86956521739137" stroke-width="36.52173913043478" style="stroke: rgb(191, 105, 169);"></path><path d="M426,485.8695652173912C634,485.8695652173912,634,248.26086956521746,842,248.26086956521746" stroke-width="18.26086956521739" style="stroke: rgb(191, 105, 137);"></path></g><g class="nodes" font-family="Arial, Helvetica" font-size="10"><g><rect x="842" y="378.695652173913" height="36.52173913043475" width="5" fill="#000"></rect><text x="836" y="396.9565217391304" dy="0.35em" text-anchor="end">binary file metadata</text></g><g><rect x="842" y="101.30434782608708" height="73.04347826086953" width="5" fill="#000"></rect><text x="836" y="137.82608695652186" dy="0.35em" text-anchor="end">dll monitoring</text></g><g><rect x="842" y="267.3913043478261" height="54.782608695652044" width="5" fill="#000"></rect><text x="836" y="294.78260869565213" dy="0.35em" text-anchor="end">loaded dlls</text></g><g><rect x="842" y="332.17391304347814" height="36.52173913043487" width="5" fill="#000"></rect><text x="836" y="350.43478260869557" dy="0.35em" text-anchor="end">malware reverse engineering</text></g><g><rect x="842" y="5.684341886080802e-14" height="91.30434782608702" width="5" fill="#000"></rect><text x="836" y="45.65217391304357" dy="0.35em" text-anchor="end">netflow/enclave netflow</text></g><g><rect x="842" y="425.21739130434776" height="18.260869565217376" width="5" fill="#000"></rect><text x="836" y="434.34782608695645" dy="0.35em" text-anchor="end">network intrusion detection system</text></g><g><rect x="842" y="184.34782608695662" height="73.0434782608695" width="5" fill="#000"></rect><text x="836" y="220.86956521739137" dy="0.35em" text-anchor="end">network protocol analysis</text></g><g><rect x="842" y="453.47826086956513" height="18.260869565217376" width="5" fill="#000"></rect><text x="836" y="462.6086956521738" dy="0.35em" text-anchor="end">ssl/tls inspection</text></g><g><rect x="842" y="481.7391304347825" height="18.260869565217376" width="5" fill="#000"></rect><text x="836" y="490.8695652173912" dy="0.35em" text-anchor="end">windows event logs</text></g><g><rect x="0" y="179.34782608695642" height="109.56521739130437" width="5" fill="#000"></rect><text x="11" y="234.1304347826086" dy="0.35em" text-anchor="start">Antivirus/Antimalware</text></g><g><rect x="0" y="476.7391304347824" height="18.26086956521729" width="5" fill="#000"></rect><text x="11" y="485.869565217391" dy="0.35em" text-anchor="start">Audit</text></g><g><rect x="0" y="345.4347826086955" height="36.521739130434774" width="5" fill="#000"></rect><text x="11" y="363.6956521739129" dy="0.35em" text-anchor="start">Behavior Prevention on Endpoint</text></g><g><rect x="0" y="5.000000000000284" height="164.34782608695613" width="5" fill="#000"></rect><text x="11" y="87.17391304347835" dy="0.35em" text-anchor="start">Network Intrusion Prevention</text></g><g><rect x="0" y="391.95652173913027" height="18.260869565217376" width="5" fill="#000"></rect><text x="11" y="401.08695652173895" dy="0.35em" text-anchor="start">Network Segmentation</text></g><g><rect x="0" y="298.91304347826076" height="36.52173913043478" width="5" fill="#000"></rect><text x="11" y="317.17391304347814" dy="0.35em" text-anchor="start">Privileged Account Management</text></g><g><rect x="0" y="448.478260869565" height="18.260869565217348" width="5" fill="#000"></rect><text x="11" y="457.6086956521737" dy="0.35em" text-anchor="start">Restrict File and Directory Permissions</text></g><g><rect x="0" y="420.21739130434764" height="18.260869565217376" width="5" fill="#000"></rect><text x="11" y="429.34782608695633" dy="0.35em" text-anchor="start">Update Software</text></g><g><rect x="421" y="355.4347826086956" height="36.52173913043487" width="5" fill="#000"></rect><text x="415" y="373.69565217391306" dy="0.35em" text-anchor="end">commonly used port</text></g><g><rect x="421" y="448.47826086956513" height="18.260869565217376" width="5" fill="#000"></rect><text x="415" y="457.6086956521738" dy="0.35em" text-anchor="end">data compressed</text></g><g><rect x="421" y="476.7391304347825" height="18.260869565217376" width="5" fill="#000"></rect><text x="415" y="485.8695652173912" dy="0.35em" text-anchor="end">data encoding</text></g><g><rect x="421" y="290.6521739130435" height="54.78260869565216" width="5" fill="#000"></rect><text x="415" y="318.04347826086956" dy="0.35em" text-anchor="end">dll side-loading</text></g><g><rect x="421" y="5.000000000000114" height="109.56521739130426" width="5" fill="#000"></rect><text x="415" y="59.78260869565224" dy="0.35em" text-anchor="end">obfuscated files or information</text></g><g><rect x="421" y="124.56521739130437" height="73.04347826086959" width="5" fill="#000"></rect><text x="415" y="161.08695652173918" dy="0.35em" text-anchor="end">process injection</text></g><g><rect x="421" y="207.60869565217396" height="73.04347826086953" width="5" fill="#000"></rect><text x="415" y="244.13043478260875" dy="0.35em" text-anchor="end">remote file copy</text></g><g><rect x="421" y="401.9565217391305" height="36.52173913043464" width="5" fill="#000"></rect><text x="415" y="420.2173913043478" dy="0.35em" text-anchor="end">standard application layer protocol</text></g></g></g></svg>