<svg width="847" height="520" xmlns="http://www.w3.org/2000/svg" version="1.1"><g transform="translate(0, 10)"><g class="links" fill="none" stroke-opacity="0.4"><path d="M5,441.00000000000006C213,441.00000000000006,213,327.9999999999999,421,327.9999999999999" stroke-width="29.333333333333332" style="stroke: rgb(191, 105, 105);"></path><path d="M5,480.33333333333337C213,480.33333333333337,213,445.99999999999994,421,445.99999999999994" stroke-width="29.333333333333332" style="stroke: rgb(191, 145, 105);"></path><path d="M5,311C213,311,213,110.00000000000023,421,110.00000000000023" stroke-width="44" style="stroke: rgb(191, 184, 105);"></path><path d="M5,355C213,355,213,252.00000000000023,421,252.00000000000023" stroke-width="44" style="stroke: rgb(191, 184, 105);"></path><path d="M5,136.99999999999994C213,136.99999999999994,213,406.66666666666663,421,406.66666666666663" stroke-width="29.333333333333332" style="stroke: rgb(158, 191, 105);"></path><path d="M5,107.66666666666661C213,107.66666666666661,213,367.33333333333326,421,367.33333333333326" stroke-width="29.333333333333332" style="stroke: rgb(158, 191, 105);"></path><path d="M5,158.99999999999994C213,158.99999999999994,213,477.9999999999999,421,477.9999999999999" stroke-width="14.666666666666666" style="stroke: rgb(158, 191, 105);"></path><path d="M5,26.999999999999943C213,26.999999999999943,213,22.000000000000227,421,22.000000000000227" stroke-width="44" style="stroke: rgb(158, 191, 105);"></path><path d="M5,70.99999999999994C213,70.99999999999994,213,164.00000000000023,421,164.00000000000023" stroke-width="44" style="stroke: rgb(158, 191, 105);"></path><path d="M5,271.6666666666667C213,271.6666666666667,213,492.6666666666666,421,492.6666666666666" stroke-width="14.666666666666666" style="stroke: rgb(118, 191, 105);"></path><path d="M5,198.33333333333337C213,198.33333333333337,213,66.00000000000023,421,66.00000000000023" stroke-width="44" style="stroke: rgb(118, 191, 105);"></path><path d="M5,242.33333333333337C213,242.33333333333337,213,208.00000000000023,421,208.00000000000023" stroke-width="44" style="stroke: rgb(118, 191, 105);"></path><path d="M5,401.66666666666674C213,401.66666666666674,213,298.6666666666666,421,298.6666666666666" stroke-width="29.333333333333332" style="stroke: rgb(105, 191, 131);"></path><path d="M426,313.3333333333332C634,313.3333333333332,634,387.00000000000006,842,387.00000000000006" stroke-width="58.666666666666664" style="stroke: rgb(105, 191, 171);"></path><path d="M426,445.99999999999994C634,445.99999999999994,634,441.00000000000006,842,441.00000000000006" stroke-width="29.333333333333332" style="stroke: rgb(105, 171, 191);"></path><path d="M426,22.000000000000227C634,22.000000000000227,634,26.99999999999997,842,26.99999999999997" stroke-width="44" style="stroke: rgb(105, 131, 191);"></path><path d="M426,110.00000000000023C634,110.00000000000023,634,281.66666666666674,842,281.66666666666674" stroke-width="44" style="stroke: rgb(105, 131, 191);"></path><path d="M426,66.00000000000023C634,66.00000000000023,634,183.6666666666666,842,183.6666666666666" stroke-width="44" style="stroke: rgb(105, 131, 191);"></path><path d="M426,164.00000000000023C634,164.00000000000023,634,70.99999999999997,842,70.99999999999997" stroke-width="44" style="stroke: rgb(118, 105, 191);"></path><path d="M426,252.00000000000023C634,252.00000000000023,634,325.66666666666674,842,325.66666666666674" stroke-width="44" style="stroke: rgb(118, 105, 191);"></path><path d="M426,208.00000000000023C634,208.00000000000023,634,227.6666666666666,842,227.6666666666666" stroke-width="44" style="stroke: rgb(118, 105, 191);"></path><path d="M426,413.99999999999994C634,413.99999999999994,634,487.6666666666667,842,487.6666666666667" stroke-width="14.666666666666666" style="stroke: rgb(158, 105, 191);"></path><path d="M426,399.33333333333326C634,399.33333333333326,634,114.99999999999997,842,114.99999999999997" stroke-width="14.666666666666666" style="stroke: rgb(158, 105, 191);"></path><path d="M426,374.6666666666666C634,374.6666666666666,634,473,842,473" stroke-width="14.666666666666666" style="stroke: rgb(191, 105, 184);"></path><path d="M426,359.9999999999999C634,359.9999999999999,634,100.3333333333333,842,100.3333333333333" stroke-width="14.666666666666666" style="stroke: rgb(191, 105, 184);"></path><path d="M426,485.33333333333326C634,485.33333333333326,634,136.99999999999997,842,136.99999999999997" stroke-width="29.333333333333332" style="stroke: rgb(191, 105, 145);"></path></g><g class="nodes" font-family="Arial, Helvetica" font-size="10"><g><rect x="842" y="357.66666666666674" height="58.666666666666664" width="5" fill="#000"></rect><text x="836" y="387.00000000000006" dy="0.35em" text-anchor="end">dll monitoring</text></g><g><rect x="842" y="426.33333333333337" height="29.333333333333314" width="5" fill="#000"></rect><text x="836" y="441" dy="0.35em" text-anchor="end">loaded dlls</text></g><g><rect x="842" y="465.6666666666667" height="29.333333333333314" width="5" fill="#000"></rect><text x="836" y="480.33333333333337" dy="0.35em" text-anchor="end">malware reverse engineering</text></g><g><rect x="842" y="4.999999999999972" height="146.66666666666663" width="5" fill="#000"></rect><text x="836" y="78.33333333333329" dy="0.35em" text-anchor="end">netflow/enclave netflow</text></g><g><rect x="842" y="259.66666666666674" height="88" width="5" fill="#000"></rect><text x="836" y="303.66666666666674" dy="0.35em" text-anchor="end">network intrusion detection system</text></g><g><rect x="842" y="161.6666666666666" height="88.00000000000017" width="5" fill="#000"></rect><text x="836" y="205.66666666666669" dy="0.35em" text-anchor="end">network protocol analysis</text></g><g><rect x="0" y="426.33333333333337" height="29.333333333333314" width="5" fill="#000"></rect><text x="11" y="441" dy="0.35em" text-anchor="start">Behavior Prevention on Endpoint</text></g><g><rect x="0" y="465.6666666666667" height="29.333333333333286" width="5" fill="#000"></rect><text x="11" y="480.3333333333333" dy="0.35em" text-anchor="start">Exploit Protection</text></g><g><rect x="0" y="289" height="88.00000000000006" width="5" fill="#000"></rect><text x="11" y="333" dy="0.35em" text-anchor="start">Filter Network Traffic</text></g><g><rect x="0" y="4.999999999999943" height="161.33333333333343" width="5" fill="#000"></rect><text x="11" y="85.66666666666666" dy="0.35em" text-anchor="start">Network Intrusion Prevention</text></g><g><rect x="0" y="176.33333333333337" height="102.66666666666663" width="5" fill="#000"></rect><text x="11" y="227.66666666666669" dy="0.35em" text-anchor="start">Network Segmentation</text></g><g><rect x="0" y="387.00000000000006" height="29.333333333333343" width="5" fill="#000"></rect><text x="11" y="401.66666666666674" dy="0.35em" text-anchor="start">Privileged Account Management</text></g><g><rect x="421" y="470.6666666666666" height="29.33333333333323" width="5" fill="#000"></rect><text x="415" y="485.3333333333332" dy="0.35em" text-anchor="end">commonly used port</text></g><g><rect x="421" y="2.2737367544323206e-13" height="132" width="5" fill="#000"></rect><text x="415" y="66.00000000000023" dy="0.35em" text-anchor="end">custom command and control protocol</text></g><g><rect x="421" y="391.99999999999994" height="29.333333333333314" width="5" fill="#000"></rect><text x="415" y="406.66666666666663" dy="0.35em" text-anchor="end">custom cryptographic protocol</text></g><g><rect x="421" y="352.6666666666666" height="29.33333333333337" width="5" fill="#000"></rect><text x="415" y="367.33333333333326" dy="0.35em" text-anchor="end">fallback channels</text></g><g><rect x="421" y="283.9999999999999" height="58.6666666666667" width="5" fill="#000"></rect><text x="415" y="313.33333333333326" dy="0.35em" text-anchor="end">process injection</text></g><g><rect x="421" y="431.33333333333326" height="29.333333333333314" width="5" fill="#000"></rect><text x="415" y="445.9999999999999" dy="0.35em" text-anchor="end">regsvr32</text></g><g><rect x="421" y="142.00000000000023" height="131.99999999999966" width="5" fill="#000"></rect><text x="415" y="208.00000000000006" dy="0.35em" text-anchor="end">standard non-application layer protocol</text></g></g></g></svg>