<svg width="847" height="520" xmlns="http://www.w3.org/2000/svg" version="1.1"><g transform="translate(0, 10)"><g class="links" fill="none" stroke-opacity="0.4"><path d="M5,391.9565217391306C213,391.9565217391306,213,146.73913043478228,421,146.73913043478228" stroke-width="58.69565217391305" style="stroke: rgb(191, 105, 105);"></path><path d="M5,225.21739130434784C213,225.21739130434784,213,421.3043478260873,421,421.3043478260873" stroke-width="39.130434782608695" style="stroke: rgb(191, 156, 105);"></path><path d="M5,98.04347826086956C213,98.04347826086956,213,215.43478260869554,421,215.43478260869554" stroke-width="58.69565217391305" style="stroke: rgb(191, 156, 105);"></path><path d="M5,39.34782608695652C213,39.34782608695652,213,29.347826086956182,421,29.347826086956182" stroke-width="58.69565217391305" style="stroke: rgb(191, 156, 105);"></path><path d="M5,166.52173913043478C213,166.52173913043478,213,352.6086956521743,421,352.6086956521743" stroke-width="78.26086956521739" style="stroke: rgb(191, 156, 105);"></path><path d="M5,274.13043478260875C213,274.13043478260875,213,490.21739130434827,421,490.21739130434827" stroke-width="19.565217391304348" style="stroke: rgb(191, 156, 105);"></path><path d="M5,254.56521739130437C213,254.56521739130437,213,460.6521739130439,421,460.6521739130439" stroke-width="19.565217391304348" style="stroke: rgb(191, 156, 105);"></path><path d="M5,323.2608695652175C213,323.2608695652175,213,88.04347826086922,421,88.04347826086922" stroke-width="58.69565217391305" style="stroke: rgb(174, 191, 105);"></path><path d="M5,460.6521739130436C213,460.6521739130436,213,274.1304347826086,421,274.1304347826086" stroke-width="58.69565217391305" style="stroke: rgb(122, 191, 105);"></path><path d="M426,29.347826086956182C634,29.347826086956182,634,34.34782608695661,842,34.34782608695661" stroke-width="58.69565217391305" style="stroke: rgb(105, 191, 139);"></path><path d="M426,146.73913043478228C634,146.73913043478228,634,416.5217391304347,842,416.5217391304347" stroke-width="58.69565217391305" style="stroke: rgb(105, 191, 139);"></path><path d="M426,88.04347826086922C634,88.04347826086922,634,220.43478260869557,842,220.43478260869557" stroke-width="58.69565217391305" style="stroke: rgb(105, 191, 139);"></path><path d="M426,431.08695652173947C634,431.08695652173947,634,367.391304347826,842,367.391304347826" stroke-width="19.565217391304348" style="stroke: rgb(105, 191, 191);"></path><path d="M426,411.5217391304351C634,411.5217391304351,634,151.7391304347827,842,151.7391304347827" stroke-width="19.565217391304348" style="stroke: rgb(105, 191, 191);"></path><path d="M426,244.78260869565204C634,244.78260869565204,634,338.0434782608695,842,338.0434782608695" stroke-width="39.130434782608695" style="stroke: rgb(105, 139, 191);"></path><path d="M426,205.65217391304336C634,205.65217391304336,634,83.26086956521748,842,83.26086956521748" stroke-width="39.130434782608695" style="stroke: rgb(105, 139, 191);"></path><path d="M426,283.91304347826076C634,283.91304347826076,634,475.43478260869557,842,475.43478260869557" stroke-width="39.130434782608695" style="stroke: rgb(105, 139, 191);"></path><path d="M426,333.04347826086996C634,333.04347826086996,634,122.39130434782618,842,122.39130434782618" stroke-width="39.130434782608695" style="stroke: rgb(122, 105, 191);"></path><path d="M426,372.17391304347865C634,372.17391304347865,634,269.34782608695645,842,269.34782608695645" stroke-width="39.130434782608695" style="stroke: rgb(122, 105, 191);"></path><path d="M426,490.21739130434827C634,490.21739130434827,634,171.30434782608705,842,171.30434782608705" stroke-width="19.565217391304348" style="stroke: rgb(174, 105, 191);"></path><path d="M426,460.6521739130439C634,460.6521739130439,634,298.69565217391295,842,298.69565217391295" stroke-width="19.565217391304348" style="stroke: rgb(191, 105, 156);"></path></g><g class="nodes" font-family="Arial, Helvetica" font-size="10"><g><rect x="842" y="318.47826086956513" height="58.69565217391306" width="5" fill="#000"></rect><text x="836" y="347.82608695652164" dy="0.35em" text-anchor="end">malware reverse engineering</text></g><g><rect x="842" y="5.000000000000085" height="176.08695652173895" width="5" fill="#000"></rect><text x="836" y="93.04347826086956" dy="0.35em" text-anchor="end">netflow/enclave netflow</text></g><g><rect x="842" y="387.1739130434782" height="58.695652173913004" width="5" fill="#000"></rect><text x="836" y="416.5217391304347" dy="0.35em" text-anchor="end">network intrusion detection system</text></g><g><rect x="842" y="191.08695652173904" height="117.39130434782606" width="5" fill="#000"></rect><text x="836" y="249.78260869565207" dy="0.35em" text-anchor="end">network protocol analysis</text></g><g><rect x="842" y="455.8695652173912" height="39.130434782608745" width="5" fill="#000"></rect><text x="836" y="475.43478260869557" dy="0.35em" text-anchor="end">ssl/tls inspection</text></g><g><rect x="0" y="362.6086956521741" height="58.695652173913004" width="5" fill="#000"></rect><text x="11" y="391.9565217391306" dy="0.35em" text-anchor="start">Filter Network Traffic</text></g><g><rect x="0" y="10" height="273.913043478261" width="5" fill="#000"></rect><text x="11" y="146.9565217391305" dy="0.35em" text-anchor="start">Network Intrusion Prevention</text></g><g><rect x="0" y="293.913043478261" height="58.69565217391312" width="5" fill="#000"></rect><text x="11" y="323.26086956521755" dy="0.35em" text-anchor="start">Network Segmentation</text></g><g><rect x="0" y="431.3043478260871" height="58.69565217391289" width="5" fill="#000"></rect><text x="11" y="460.65217391304355" dy="0.35em" text-anchor="start">SSL/TLS Inspection</text></g><g><rect x="421" y="-3.410605131648481e-13" height="176.08695652173935" width="5" fill="#000"></rect><text x="415" y="88.04347826086934" dy="0.35em" text-anchor="end">custom command and control protocol</text></g><g><rect x="421" y="450.8695652173917" height="19.565217391304373" width="5" fill="#000"></rect><text x="415" y="460.6521739130439" dy="0.35em" text-anchor="end">data encoding</text></g><g><rect x="421" y="313.4782608695656" height="78.26086956521732" width="5" fill="#000"></rect><text x="415" y="352.6086956521742" dy="0.35em" text-anchor="end">remote file copy</text></g><g><rect x="421" y="480.4347826086961" height="19.56521739130426" width="5" fill="#000"></rect><text x="415" y="490.2173913043482" dy="0.35em" text-anchor="end">scheduled transfer</text></g><g><rect x="421" y="401.7391304347829" height="39.13043478260883" width="5" fill="#000"></rect><text x="415" y="421.30434782608734" dy="0.35em" text-anchor="end">standard application layer protocol</text></g><g><rect x="421" y="186.086956521739" height="117.39130434782658" width="5" fill="#000"></rect><text x="415" y="244.7826086956523" dy="0.35em" text-anchor="end">standard cryptographic protocol</text></g></g></g></svg>