<svg width="847" height="520" xmlns="http://www.w3.org/2000/svg" version="1.1"><g transform="translate(0, 10)"><g class="links" fill="none" stroke-opacity="0.4"><path d="M5,290.0000000000002C213,290.0000000000002,213,329.99999999999966,421,329.99999999999966" stroke-width="120" style="stroke: rgb(191, 105, 105);"></path><path d="M5,180.0000000000002C213,180.0000000000002,213,440.00000000000034,421,440.00000000000034" stroke-width="80" style="stroke: rgb(191, 191, 105);"></path><path d="M5,80.0000000000002C213,80.0000000000002,213,79.99999999999969,421,79.99999999999969" stroke-width="120" style="stroke: rgb(191, 191, 105);"></path><path d="M5,420C213,420,213,199.9999999999997,421,199.9999999999997" stroke-width="120" style="stroke: rgb(105, 191, 105);"></path><path d="M426,319.99999999999966C634,319.99999999999966,634,400,842,400" stroke-width="20" style="stroke: rgb(105, 191, 191);"></path><path d="M426,339.99999999999966C634,339.99999999999966,634,430.00000000000006,842,430.00000000000006" stroke-width="20" style="stroke: rgb(105, 191, 191);"></path><path d="M426,359.99999999999966C634,359.99999999999966,634,460.00000000000006,842,460.00000000000006" stroke-width="20" style="stroke: rgb(105, 191, 191);"></path><path d="M426,279.99999999999966C634,279.99999999999966,634,89.99999999999991,842,89.99999999999991" stroke-width="20" style="stroke: rgb(105, 191, 191);"></path><path d="M426,299.99999999999966C634,299.99999999999966,634,369.99999999999994,842,369.99999999999994" stroke-width="20" style="stroke: rgb(105, 191, 191);"></path><path d="M426,379.99999999999966C634,379.99999999999966,634,490.00000000000006,842,490.00000000000006" stroke-width="20" style="stroke: rgb(105, 191, 191);"></path><path d="M426,460.00000000000034C634,460.00000000000034,634,249.99999999999994,842,249.99999999999994" stroke-width="40" style="stroke: rgb(105, 105, 191);"></path><path d="M426,420.00000000000034C634,420.00000000000034,634,119.99999999999991,842,119.99999999999991" stroke-width="40" style="stroke: rgb(105, 105, 191);"></path><path d="M426,139.9999999999997C634,139.9999999999997,634,189.99999999999994,842,189.99999999999994" stroke-width="80" style="stroke: rgb(191, 105, 191);"></path><path d="M426,59.99999999999969C634,59.99999999999969,634,39.999999999999915,842,39.999999999999915" stroke-width="80" style="stroke: rgb(191, 105, 191);"></path><path d="M426,219.9999999999997C634,219.9999999999997,634,319.99999999999994,842,319.99999999999994" stroke-width="80" style="stroke: rgb(191, 105, 191);"></path></g><g class="nodes" font-family="Arial, Helvetica" font-size="10"><g><rect x="842" y="390" height="20.000000000000057" width="5" fill="#000"></rect><text x="836" y="400" dy="0.35em" text-anchor="end">binary file metadata</text></g><g><rect x="842" y="420.00000000000006" height="20" width="5" fill="#000"></rect><text x="836" y="430.00000000000006" dy="0.35em" text-anchor="end">malware reverse engineering</text></g><g><rect x="842" y="149.99999999999994" height="119.99999999999999" width="5" fill="#000"></rect><text x="836" y="209.99999999999994" dy="0.35em" text-anchor="end">netflow/enclave netflow</text></g><g><rect x="842" y="450.00000000000006" height="20" width="5" fill="#000"></rect><text x="836" y="460.00000000000006" dy="0.35em" text-anchor="end">network intrusion detection system</text></g><g><rect x="842" y="-8.526512829121202e-14" height="140.00000000000003" width="5" fill="#000"></rect><text x="836" y="69.99999999999993" dy="0.35em" text-anchor="end">network protocol analysis</text></g><g><rect x="842" y="279.99999999999994" height="100.00000000000006" width="5" fill="#000"></rect><text x="836" y="330" dy="0.35em" text-anchor="end">ssl/tls inspection</text></g><g><rect x="842" y="480.00000000000006" height="20" width="5" fill="#000"></rect><text x="836" y="490.00000000000006" dy="0.35em" text-anchor="end">windows event logs</text></g><g><rect x="0" y="230.0000000000002" height="119.99999999999983" width="5" fill="#000"></rect><text x="11" y="290.0000000000001" dy="0.35em" text-anchor="start">Antivirus/Antimalware</text></g><g><rect x="0" y="20.0000000000002" height="200" width="5" fill="#000"></rect><text x="11" y="120.0000000000002" dy="0.35em" text-anchor="start">Network Intrusion Prevention</text></g><g><rect x="0" y="360" height="119.99999999999977" width="5" fill="#000"></rect><text x="11" y="419.9999999999999" dy="0.35em" text-anchor="start">Restrict Web-Based Content</text></g><g><rect x="421" y="269.99999999999966" height="120.00000000000068" width="5" fill="#000"></rect><text x="415" y="330" dy="0.35em" text-anchor="end">obfuscated files or information</text></g><g><rect x="421" y="400.00000000000034" height="80" width="5" fill="#000"></rect><text x="415" y="440.00000000000034" dy="0.35em" text-anchor="end">remote file copy</text></g><g><rect x="421" y="19.999999999999687" height="239.99999999999994" width="5" fill="#000"></rect><text x="415" y="139.99999999999966" dy="0.35em" text-anchor="end">web service</text></g></g></g></svg>