<svg width="847" height="520" xmlns="http://www.w3.org/2000/svg" version="1.1"><g transform="translate(0, 10)"><g class="links" fill="none" stroke-opacity="0.4"><path d="M5,245.0000000000001C213,245.0000000000001,213,250.0000000000001,421,250.0000000000001" stroke-width="156.66666666666666" style="stroke: rgb(191, 105, 105);"></path><path d="M5,78.33333333333347C213,78.33333333333347,213,83.33333333333339,421,83.33333333333339" stroke-width="156.66666666666666" style="stroke: rgb(191, 179, 105);"></path><path d="M5,460.8333333333333C213,460.8333333333333,213,455.83333333333337,421,455.83333333333337" stroke-width="78.33333333333333" style="stroke: rgb(130, 191, 105);"></path><path d="M5,372.4999999999999C213,372.4999999999999,213,377.50000000000006,421,377.50000000000006" stroke-width="78.33333333333333" style="stroke: rgb(105, 191, 154);"></path><path d="M426,250.0000000000001C634,250.0000000000001,634,78.33333333333339,842,78.33333333333339" stroke-width="156.66666666666666" style="stroke: rgb(105, 154, 191);"></path><path d="M426,122.50000000000006C634,122.50000000000006,634,460.8333333333333,842,460.8333333333333" stroke-width="78.33333333333333" style="stroke: rgb(130, 105, 191);"></path><path d="M426,44.16666666666672C634,44.16666666666672,634,372.49999999999994,842,372.49999999999994" stroke-width="78.33333333333333" style="stroke: rgb(130, 105, 191);"></path><path d="M426,416.6666666666667C634,416.6666666666667,634,245.0000000000001,842,245.0000000000001" stroke-width="156.66666666666666" style="stroke: rgb(191, 105, 179);"></path></g><g class="nodes" font-family="Arial, Helvetica" font-size="10"><g><rect x="842" y="421.66666666666663" height="78.3333333333333" width="5" fill="#000"></rect><text x="836" y="460.83333333333326" dy="0.35em" text-anchor="end">netflow/enclave netflow</text></g><g><rect x="842" y="333.33333333333326" height="78.33333333333334" width="5" fill="#000"></rect><text x="836" y="372.49999999999994" dy="0.35em" text-anchor="end">network protocol analysis</text></g><g><rect x="842" y="166.6666666666668" height="156.6666666666665" width="5" fill="#000"></rect><text x="836" y="245.00000000000006" dy="0.35em" text-anchor="end">ssl/tls inspection</text></g><g><rect x="842" y="5.684341886080802e-14" height="156.66666666666674" width="5" fill="#000"></rect><text x="836" y="78.33333333333343" dy="0.35em" text-anchor="end">system calls</text></g><g><rect x="0" y="166.6666666666668" height="156.6666666666664" width="5" fill="#000"></rect><text x="11" y="245" dy="0.35em" text-anchor="start">Code Signing</text></g><g><rect x="0" y="1.4210854715202004e-13" height="156.66666666666666" width="5" fill="#000"></rect><text x="11" y="78.33333333333347" dy="0.35em" text-anchor="start">Filter Network Traffic</text></g><g><rect x="0" y="421.66666666666663" height="78.33333333333326" width="5" fill="#000"></rect><text x="11" y="460.83333333333326" dy="0.35em" text-anchor="start">Operating System Configuration</text></g><g><rect x="0" y="333.3333333333332" height="78.33333333333343" width="5" fill="#000"></rect><text x="11" y="372.4999999999999" dy="0.35em" text-anchor="start">Software Configuration</text></g><g><rect x="421" y="171.66666666666677" height="156.66666666666663" width="5" fill="#000"></rect><text x="415" y="250.00000000000009" dy="0.35em" text-anchor="end">applescript</text></g><g><rect x="421" y="338.33333333333337" height="156.66666666666657" width="5" fill="#000"></rect><text x="415" y="416.66666666666663" dy="0.35em" text-anchor="end">install root certificate</text></g><g><rect x="421" y="5.000000000000057" height="156.6666666666667" width="5" fill="#000"></rect><text x="415" y="83.33333333333341" dy="0.35em" text-anchor="end">multi-hop proxy</text></g></g></g></svg>