<svg width="847" height="520" xmlns="http://www.w3.org/2000/svg" version="1.1"><g transform="translate(0, 10)"><g class="links" fill="none" stroke-opacity="0.4"><path d="M5,186.25000000000023C213,186.25000000000023,213,186.24999999999997,421,186.24999999999997" stroke-width="117.5" style="stroke: rgb(191, 105, 105);"></path><path d="M5,58.75000000000017C213,58.75000000000017,213,68.74999999999997,421,68.74999999999997" stroke-width="117.5" style="stroke: rgb(191, 191, 105);"></path><path d="M5,441.2500000000001C213,441.2500000000001,213,431.25,421,431.25" stroke-width="117.5" style="stroke: rgb(105, 191, 105);"></path><path d="M5,313.7500000000002C213,313.7500000000002,213,303.75,421,303.75" stroke-width="117.5" style="stroke: rgb(105, 191, 191);"></path><path d="M426,98.12499999999997C634,98.12499999999997,634,88.12500000000009,842,88.12500000000009" stroke-width="176.25" style="stroke: rgb(105, 105, 191);"></path><path d="M426,274.375C634,274.375,634,274.375,842,274.375" stroke-width="176.25" style="stroke: rgb(105, 105, 191);"></path><path d="M426,460.625C634,460.625,634,470.62499999999994,842,470.62499999999994" stroke-width="58.75" style="stroke: rgb(191, 105, 191);"></path><path d="M426,401.875C634,401.875,634,401.8749999999999,842,401.8749999999999" stroke-width="58.75" style="stroke: rgb(191, 105, 191);"></path></g><g class="nodes" font-family="Arial, Helvetica" font-size="10"><g><rect x="842" y="8.526512829121202e-14" height="176.2499999999999" width="5" fill="#000"></rect><text x="836" y="88.12500000000003" dy="0.35em" text-anchor="end">dll monitoring</text></g><g><rect x="842" y="186.24999999999997" height="176.2499999999999" width="5" fill="#000"></rect><text x="836" y="274.3749999999999" dy="0.35em" text-anchor="end">loaded dlls</text></g><g><rect x="842" y="441.24999999999994" height="58.75" width="5" fill="#000"></rect><text x="836" y="470.62499999999994" dy="0.35em" text-anchor="end">malware reverse engineering</text></g><g><rect x="842" y="372.4999999999999" height="58.75000000000006" width="5" fill="#000"></rect><text x="836" y="401.8749999999999" dy="0.35em" text-anchor="end">netflow/enclave netflow</text></g><g><rect x="0" y="127.50000000000023" height="117.49999999999997" width="5" fill="#000"></rect><text x="11" y="186.25000000000023" dy="0.35em" text-anchor="start">Code Signing</text></g><g><rect x="0" y="1.7053025658242404e-13" height="117.50000000000006" width="5" fill="#000"></rect><text x="11" y="58.7500000000002" dy="0.35em" text-anchor="start">Disable or Remove Feature or Program</text></g><g><rect x="0" y="382.5000000000001" height="117.49999999999977" width="5" fill="#000"></rect><text x="11" y="441.25" dy="0.35em" text-anchor="start">Network Intrusion Prevention</text></g><g><rect x="0" y="255.0000000000002" height="117.49999999999989" width="5" fill="#000"></rect><text x="11" y="313.7500000000001" dy="0.35em" text-anchor="start">Privileged Account Management</text></g><g><rect x="421" y="9.999999999999972" height="352.50000000000006" width="5" fill="#000"></rect><text x="415" y="186.25" dy="0.35em" text-anchor="end">powershell</text></g><g><rect x="421" y="372.5" height="117.5" width="5" fill="#000"></rect><text x="415" y="431.25" dy="0.35em" text-anchor="end">standard application layer protocol</text></g></g></g></svg>