<svg width="847" height="520" xmlns="http://www.w3.org/2000/svg" version="1.1"><g transform="translate(0, 10)"><g class="links" fill="none" stroke-opacity="0.4"><path d="M5,170.7692307692307C213,170.7692307692307,213,35.38461538461536,421,35.38461538461536" stroke-width="50.769230769230774" style="stroke: rgb(191, 105, 105);"></path><path d="M5,213.076923076923C213,213.076923076923,213,189.23076923076928,421,189.23076923076928" stroke-width="33.84615384615385" style="stroke: rgb(191, 105, 105);"></path><path d="M5,326.1538461538461C213,326.1538461538461,213,86.15384615384613,421,86.15384615384613" stroke-width="50.769230769230774" style="stroke: rgb(191, 148, 105);"></path><path d="M5,25.38461538461536C213,25.38461538461536,213,309.23076923076917,421,309.23076923076917" stroke-width="50.769230769230774" style="stroke: rgb(191, 191, 105);"></path><path d="M5,84.61538461538458C213,84.61538461538458,213,429.23076923076894,421,429.23076923076894" stroke-width="67.6923076923077" style="stroke: rgb(191, 191, 105);"></path><path d="M5,126.9230769230769C213,126.9230769230769,213,481.5384615384615,421,481.5384615384615" stroke-width="16.923076923076923" style="stroke: rgb(191, 191, 105);"></path><path d="M5,439.23076923076917C213,439.23076923076917,213,223.07692307692312,421,223.07692307692312" stroke-width="33.84615384615385" style="stroke: rgb(148, 191, 105);"></path><path d="M5,386.9230769230769C213,386.9230769230769,213,136.9230769230769,421,136.9230769230769" stroke-width="50.769230769230774" style="stroke: rgb(105, 191, 105);"></path><path d="M5,265.38461538461524C213,265.38461538461524,213,360,421,360" stroke-width="50.769230769230774" style="stroke: rgb(105, 191, 148);"></path><path d="M5,483.0769230769231C213,483.0769230769231,213,256.92307692307696,421,256.92307692307696" stroke-width="33.84615384615385" style="stroke: rgb(105, 191, 191);"></path><path d="M426,86.15384615384613C634,86.15384615384613,634,81.15384615384588,842,81.15384615384588" stroke-width="152.30769230769232" style="stroke: rgb(105, 148, 191);"></path><path d="M426,223.07692307692312C634,223.07692307692312,634,218.07692307692287,842,218.07692307692287" stroke-width="101.53846153846155" style="stroke: rgb(105, 105, 191);"></path><path d="M426,334.6153846153846C634,334.6153846153846,634,434.2307692307692,842,434.2307692307692" stroke-width="33.84615384615385" style="stroke: rgb(148, 105, 191);"></path><path d="M426,300.7692307692307C634,300.7692307692307,634,295.7692307692307,842,295.7692307692307" stroke-width="33.84615384615385" style="stroke: rgb(148, 105, 191);"></path><path d="M426,368.46153846153845C634,368.46153846153845,634,478.0769230769234,842,478.0769230769234" stroke-width="33.84615384615385" style="stroke: rgb(148, 105, 191);"></path><path d="M426,412.307692307692C634,412.307692307692,634,329.6153846153846,842,329.6153846153846" stroke-width="33.84615384615385" style="stroke: rgb(191, 105, 191);"></path><path d="M426,446.15384615384585C634,446.15384615384585,634,373.46153846153845,842,373.46153846153845" stroke-width="33.84615384615385" style="stroke: rgb(191, 105, 191);"></path><path d="M426,481.5384615384615C634,481.5384615384615,634,398.84615384615387,842,398.84615384615387" stroke-width="16.923076923076923" style="stroke: rgb(191, 105, 148);"></path></g><g class="nodes" font-family="Arial, Helvetica" font-size="10"><g><rect x="842" y="4.999999999999716" height="152.30769230769238" width="5" fill="#000"></rect><text x="836" y="81.1538461538459" dy="0.35em" text-anchor="end">dll monitoring</text></g><g><rect x="842" y="417.3076923076923" height="33.84615384615415" width="5" fill="#000"></rect><text x="836" y="434.2307692307694" dy="0.35em" text-anchor="end">malware reverse engineering</text></g><g><rect x="842" y="278.8461538461538" height="67.69230769230774" width="5" fill="#000"></rect><text x="836" y="312.6923076923077" dy="0.35em" text-anchor="end">netflow/enclave netflow</text></g><g><rect x="842" y="356.53846153846155" height="50.769230769230774" width="5" fill="#000"></rect><text x="836" y="381.9230769230769" dy="0.35em" text-anchor="end">network protocol analysis</text></g><g><rect x="842" y="461.1538461538465" height="33.84615384615381" width="5" fill="#000"></rect><text x="836" y="478.0769230769234" dy="0.35em" text-anchor="end">ssl/tls inspection</text></g><g><rect x="842" y="167.3076923076921" height="101.53846153846172" width="5" fill="#000"></rect><text x="836" y="218.07692307692295" dy="0.35em" text-anchor="end">system calls</text></g><g><rect x="0" y="145.3846153846153" height="84.61538461538456" width="5" fill="#000"></rect><text x="11" y="187.69230769230757" dy="0.35em" text-anchor="start">Audit</text></g><g><rect x="0" y="300.7692307692307" height="50.7692307692308" width="5" fill="#000"></rect><text x="11" y="326.15384615384613" dy="0.35em" text-anchor="start">Execution Prevention</text></g><g><rect x="0" y="-2.842170943040401e-14" height="135.38461538461533" width="5" fill="#000"></rect><text x="11" y="67.69230769230764" dy="0.35em" text-anchor="start">Network Intrusion Prevention</text></g><g><rect x="0" y="422.30769230769226" height="33.846153846153925" width="5" fill="#000"></rect><text x="11" y="439.2307692307692" dy="0.35em" text-anchor="start">Privileged Account Management</text></g><g><rect x="0" y="361.53846153846155" height="50.769230769230745" width="5" fill="#000"></rect><text x="11" y="386.9230769230769" dy="0.35em" text-anchor="start">Restrict Library Loading</text></g><g><rect x="0" y="239.99999999999986" height="50.76923076923089" width="5" fill="#000"></rect><text x="11" y="265.3846153846153" dy="0.35em" text-anchor="start">SSL/TLS Inspection</text></g><g><rect x="0" y="466.1538461538462" height="33.84615384615381" width="5" fill="#000"></rect><text x="11" y="483.0769230769231" dy="0.35em" text-anchor="start">User Account Control</text></g><g><rect x="421" y="172.30769230769235" height="101.53846153846149" width="5" fill="#000"></rect><text x="415" y="223.0769230769231" dy="0.35em" text-anchor="end">bypass user account control</text></g><g><rect x="421" y="473.07692307692304" height="16.923076923076962" width="5" fill="#000"></rect><text x="415" y="481.53846153846155" dy="0.35em" text-anchor="end">data obfuscation</text></g><g><rect x="421" y="9.999999999999972" height="152.30769230769238" width="5" fill="#000"></rect><text x="415" y="86.15384615384616" dy="0.35em" text-anchor="end">dll search order hijacking</text></g><g><rect x="421" y="395.3846153846151" height="67.69230769230796" width="5" fill="#000"></rect><text x="415" y="429.23076923076906" dy="0.35em" text-anchor="end">remote file copy</text></g><g><rect x="421" y="283.8461538461538" height="101.53846153846126" width="5" fill="#000"></rect><text x="415" y="334.6153846153844" dy="0.35em" text-anchor="end">standard cryptographic protocol</text></g></g></g></svg>