<svg width="847" height="520" xmlns="http://www.w3.org/2000/svg" version="1.1"><g transform="translate(0, 10)"><g class="links" fill="none" stroke-opacity="0.4"><path d="M5,466.2500000000001C213,466.2500000000001,213,331.2500000000001,421,331.2500000000001" stroke-width="57.5" style="stroke: rgb(191, 105, 105);"></path><path d="M5,398.7499999999999C213,398.7499999999999,213,273.7500000000001,421,273.7500000000001" stroke-width="57.5" style="stroke: rgb(191, 169, 105);"></path><path d="M5,177.4999999999999C213,177.4999999999999,213,398.7500000000001,421,398.7500000000001" stroke-width="57.5" style="stroke: rgb(148, 191, 105);"></path><path d="M5,48.124999999999886C213,48.124999999999886,213,48.12499999999997,421,48.12499999999997" stroke-width="86.25" style="stroke: rgb(148, 191, 105);"></path><path d="M5,234.9999999999999C213,234.9999999999999,213,466.2500000000001,421,466.2500000000001" stroke-width="57.5" style="stroke: rgb(148, 191, 105);"></path><path d="M5,119.99999999999989C213,119.99999999999989,213,216.25000000000014,421,216.25000000000014" stroke-width="57.5" style="stroke: rgb(148, 191, 105);"></path><path d="M5,316.8749999999999C213,316.8749999999999,213,134.37499999999997,421,134.37499999999997" stroke-width="86.25" style="stroke: rgb(105, 191, 126);"></path><path d="M426,316.8750000000001C634,316.8750000000001,634,293.1250000000002,842,293.1250000000002" stroke-width="86.25" style="stroke: rgb(105, 191, 191);"></path><path d="M426,230.62500000000014C634,230.62500000000014,634,196.87500000000006,842,196.87500000000006" stroke-width="86.25" style="stroke: rgb(105, 191, 191);"></path><path d="M426,413.1250000000001C634,413.1250000000001,634,418.1250000000002,842,418.1250000000002" stroke-width="28.75" style="stroke: rgb(105, 126, 191);"></path><path d="M426,384.3750000000001C634,384.3750000000001,634,71.87500000000006,842,71.87500000000006" stroke-width="28.75" style="stroke: rgb(105, 126, 191);"></path><path d="M426,91.24999999999997C634,91.24999999999997,634,375.0000000000002,842,375.0000000000002" stroke-width="57.5" style="stroke: rgb(148, 105, 191);"></path><path d="M426,33.74999999999997C634,33.74999999999997,634,28.750000000000057,842,28.750000000000057" stroke-width="57.5" style="stroke: rgb(148, 105, 191);"></path><path d="M426,148.74999999999997C634,148.74999999999997,634,471.25000000000017,842,471.25000000000017" stroke-width="57.5" style="stroke: rgb(148, 105, 191);"></path><path d="M426,466.2500000000001C634,466.2500000000001,634,115.00000000000006,842,115.00000000000006" stroke-width="57.5" style="stroke: rgb(191, 105, 169);"></path></g><g class="nodes" font-family="Arial, Helvetica" font-size="10"><g><rect x="842" y="346.2500000000002" height="86.24999999999994" width="5" fill="#000"></rect><text x="836" y="389.3750000000002" dy="0.35em" text-anchor="end">malware reverse engineering</text></g><g><rect x="842" y="5.684341886080802e-14" height="143.75" width="5" fill="#000"></rect><text x="836" y="71.87500000000006" dy="0.35em" text-anchor="end">netflow/enclave netflow</text></g><g><rect x="842" y="250.00000000000023" height="86.25" width="5" fill="#000"></rect><text x="836" y="293.1250000000002" dy="0.35em" text-anchor="end">network intrusion detection system</text></g><g><rect x="842" y="153.75000000000006" height="86.25000000000017" width="5" fill="#000"></rect><text x="836" y="196.87500000000014" dy="0.35em" text-anchor="end">network protocol analysis</text></g><g><rect x="842" y="442.50000000000017" height="57.49999999999977" width="5" fill="#000"></rect><text x="836" y="471.25000000000006" dy="0.35em" text-anchor="end">ssl/tls inspection</text></g><g><rect x="0" y="437.5000000000001" height="57.5" width="5" fill="#000"></rect><text x="11" y="466.2500000000001" dy="0.35em" text-anchor="start">Execution Prevention</text></g><g><rect x="0" y="369.9999999999999" height="57.50000000000023" width="5" fill="#000"></rect><text x="11" y="398.75" dy="0.35em" text-anchor="start">Filter Network Traffic</text></g><g><rect x="0" y="4.999999999999886" height="258.75" width="5" fill="#000"></rect><text x="11" y="134.3749999999999" dy="0.35em" text-anchor="start">Network Intrusion Prevention</text></g><g><rect x="0" y="273.7499999999999" height="86.25" width="5" fill="#000"></rect><text x="11" y="316.8749999999999" dy="0.35em" text-anchor="start">SSL/TLS Inspection</text></g><g><rect x="421" y="437.5000000000001" height="57.49999999999986" width="5" fill="#000"></rect><text x="415" y="466.25000000000006" dy="0.35em" text-anchor="end">connection proxy</text></g><g><rect x="421" y="187.50000000000014" height="172.5" width="5" fill="#000"></rect><text x="415" y="273.7500000000001" dy="0.35em" text-anchor="end">remote access tools</text></g><g><rect x="421" y="370.0000000000001" height="57.50000000000003" width="5" fill="#000"></rect><text x="415" y="398.7500000000001" dy="0.35em" text-anchor="end">standard application layer protocol</text></g><g><rect x="421" y="4.999999999999972" height="172.50000000000017" width="5" fill="#000"></rect><text x="415" y="91.25000000000006" dy="0.35em" text-anchor="end">standard cryptographic protocol</text></g></g></g></svg>