<svg width="847" height="520" xmlns="http://www.w3.org/2000/svg" version="1.1"><g transform="translate(0, 10)"><g class="links" fill="none" stroke-opacity="0.4"><path d="M5,450C213,450,213,104.99999999999983,421,104.99999999999983" stroke-width="30" style="stroke: rgb(191, 105, 105);"></path><path d="M5,484.9999999999999C213,484.9999999999999,213,330,421,330" stroke-width="20" style="stroke: rgb(191, 132, 105);"></path><path d="M5,330C213,330,213,205.0000000000001,421,205.0000000000001" stroke-width="30" style="stroke: rgb(191, 159, 105);"></path><path d="M5,120.00000000000011C213,120.00000000000011,213,475.0000000000001,421,475.0000000000001" stroke-width="10" style="stroke: rgb(191, 186, 105);"></path><path d="M5,105.00000000000011C213,105.00000000000011,213,450.0000000000001,421,450.0000000000001" stroke-width="20" style="stroke: rgb(191, 186, 105);"></path><path d="M5,50.000000000000114C213,50.000000000000114,213,244.99999999999994,421,244.99999999999994" stroke-width="30" style="stroke: rgb(191, 186, 105);"></path><path d="M5,70.00000000000011C213,70.00000000000011,213,355,421,355" stroke-width="10" style="stroke: rgb(191, 186, 105);"></path><path d="M5,85.00000000000011C213,85.00000000000011,213,390.00000000000006,421,390.00000000000006" stroke-width="20" style="stroke: rgb(191, 186, 105);"></path><path d="M5,20.000000000000114C213,20.000000000000114,213,145.0000000000001,421,145.0000000000001" stroke-width="30" style="stroke: rgb(191, 186, 105);"></path><path d="M5,130.0000000000001C213,130.0000000000001,213,495.0000000000001,421,495.0000000000001" stroke-width="10" style="stroke: rgb(191, 186, 105);"></path><path d="M5,300.0000000000001C213,300.0000000000001,213,365,421,365" stroke-width="10" style="stroke: rgb(168, 191, 105);"></path><path d="M5,280.0000000000001C213,280.0000000000001,213,175.0000000000001,421,175.0000000000001" stroke-width="30" style="stroke: rgb(168, 191, 105);"></path><path d="M5,370C213,370,213,74.99999999999983,421,74.99999999999983" stroke-width="30" style="stroke: rgb(141, 191, 105);"></path><path d="M5,185.0000000000001C213,185.0000000000001,213,310,421,310" stroke-width="20" style="stroke: rgb(114, 191, 105);"></path><path d="M5,160.0000000000001C213,160.0000000000001,213,14.99999999999983,421,14.99999999999983" stroke-width="30" style="stroke: rgb(114, 191, 105);"></path><path d="M5,410C213,410,213,274.99999999999994,421,274.99999999999994" stroke-width="30" style="stroke: rgb(105, 191, 123);"></path><path d="M5,245.0000000000001C213,245.0000000000001,213,420.0000000000001,421,420.0000000000001" stroke-width="20" style="stroke: rgb(105, 191, 150);"></path><path d="M5,220.0000000000001C213,220.0000000000001,213,44.99999999999983,421,44.99999999999983" stroke-width="30" style="stroke: rgb(105, 191, 150);"></path><path d="M426,59.99999999999983C634,59.99999999999983,634,69.99999999999986,842,69.99999999999986" stroke-width="120" style="stroke: rgb(105, 191, 177);"></path><path d="M426,320C634,320,634,340.00000000000006,842,340.00000000000006" stroke-width="40" style="stroke: rgb(105, 177, 191);"></path><path d="M426,145.0000000000001C634,145.0000000000001,634,174.99999999999997,842,174.99999999999997" stroke-width="30" style="stroke: rgb(105, 150, 191);"></path><path d="M426,205.0000000000001C634,205.0000000000001,634,425.00000000000006,842,425.00000000000006" stroke-width="30" style="stroke: rgb(105, 150, 191);"></path><path d="M426,175.0000000000001C634,175.0000000000001,634,285,842,285" stroke-width="30" style="stroke: rgb(105, 150, 191);"></path><path d="M426,475.0000000000001C634,475.0000000000001,634,485.00000000000017,842,485.00000000000017" stroke-width="10" style="stroke: rgb(105, 123, 191);"></path><path d="M426,455.0000000000001C634,455.0000000000001,634,395.00000000000006,842,395.00000000000006" stroke-width="10" style="stroke: rgb(114, 105, 191);"></path><path d="M426,445.0000000000001C634,445.0000000000001,634,254.99999999999997,842,254.99999999999997" stroke-width="10" style="stroke: rgb(114, 105, 191);"></path><path d="M426,259.99999999999994C634,259.99999999999994,634,380.00000000000006,842,380.00000000000006" stroke-width="20" style="stroke: rgb(141, 105, 191);"></path><path d="M426,239.99999999999994C634,239.99999999999994,634,199.99999999999997,842,199.99999999999997" stroke-width="20" style="stroke: rgb(141, 105, 191);"></path><path d="M426,279.99999999999994C634,279.99999999999994,634,460.00000000000006,842,460.00000000000006" stroke-width="20" style="stroke: rgb(141, 105, 191);"></path><path d="M426,360C634,360,634,219.99999999999997,842,219.99999999999997" stroke-width="20" style="stroke: rgb(168, 105, 191);"></path><path d="M426,390.00000000000006C634,390.00000000000006,634,239.99999999999997,842,239.99999999999997" stroke-width="20" style="stroke: rgb(191, 105, 186);"></path><path d="M426,495.0000000000001C634,495.0000000000001,634,305,842,305" stroke-width="10" style="stroke: rgb(191, 105, 159);"></path><path d="M426,420.0000000000001C634,420.0000000000001,634,139.99999999999986,842,139.99999999999986" stroke-width="20" style="stroke: rgb(191, 105, 132);"></path></g><g class="nodes" font-family="Arial, Helvetica" font-size="10"><g><rect x="842" y="480.00000000000017" height="9.999999999999972" width="5" fill="#000"></rect><text x="836" y="485.00000000000017" dy="0.35em" text-anchor="end">binary file metadata</text></g><g><rect x="842" y="320.00000000000006" height="40" width="5" fill="#000"></rect><text x="836" y="340.00000000000006" dy="0.35em" text-anchor="end">dll monitoring</text></g><g><rect x="842" y="370.00000000000006" height="30" width="5" fill="#000"></rect><text x="836" y="385.00000000000006" dy="0.35em" text-anchor="end">malware reverse engineering</text></g><g><rect x="842" y="159.99999999999997" height="100.00000000000006" width="5" fill="#000"></rect><text x="836" y="210" dy="0.35em" text-anchor="end">netflow/enclave netflow</text></g><g><rect x="842" y="410.00000000000006" height="30" width="5" fill="#000"></rect><text x="836" y="425.00000000000006" dy="0.35em" text-anchor="end">network intrusion detection system</text></g><g><rect x="842" y="270" height="40.00000000000006" width="5" fill="#000"></rect><text x="836" y="290" dy="0.35em" text-anchor="end">network protocol analysis</text></g><g><rect x="842" y="450.00000000000006" height="20.000000000000114" width="5" fill="#000"></rect><text x="836" y="460.0000000000001" dy="0.35em" text-anchor="end">ssl/tls inspection</text></g><g><rect x="842" y="9.999999999999858" height="140.0000000000001" width="5" fill="#000"></rect><text x="836" y="79.99999999999991" dy="0.35em" text-anchor="end">windows event logs</text></g><g><rect x="0" y="435" height="29.999999999999886" width="5" fill="#000"></rect><text x="11" y="449.99999999999994" dy="0.35em" text-anchor="start">Audit</text></g><g><rect x="0" y="474.9999999999999" height="20" width="5" fill="#000"></rect><text x="11" y="484.9999999999999" dy="0.35em" text-anchor="start">Behavior Prevention on Endpoint</text></g><g><rect x="0" y="315" height="30" width="5" fill="#000"></rect><text x="11" y="330" dy="0.35em" text-anchor="start">Filter Network Traffic</text></g><g><rect x="0" y="5.000000000000114" height="130" width="5" fill="#000"></rect><text x="11" y="70.00000000000011" dy="0.35em" text-anchor="start">Network Intrusion Prevention</text></g><g><rect x="0" y="265.0000000000001" height="39.999999999999915" width="5" fill="#000"></rect><text x="11" y="285.00000000000006" dy="0.35em" text-anchor="start">Network Segmentation</text></g><g><rect x="0" y="355" height="30" width="5" fill="#000"></rect><text x="11" y="370" dy="0.35em" text-anchor="start">Operating System Configuration</text></g><g><rect x="0" y="145.0000000000001" height="50" width="5" fill="#000"></rect><text x="11" y="170.0000000000001" dy="0.35em" text-anchor="start">Privileged Account Management</text></g><g><rect x="0" y="395" height="30" width="5" fill="#000"></rect><text x="11" y="410" dy="0.35em" text-anchor="start">SSL/TLS Inspection</text></g><g><rect x="0" y="205.0000000000001" height="50" width="5" fill="#000"></rect><text x="11" y="230.0000000000001" dy="0.35em" text-anchor="start">User Account Management</text></g><g><rect x="421" y="350" height="20.000000000000057" width="5" fill="#000"></rect><text x="415" y="360" dy="0.35em" text-anchor="end">commonly used port</text></g><g><rect x="421" y="380.00000000000006" height="20.000000000000057" width="5" fill="#000"></rect><text x="415" y="390.0000000000001" dy="0.35em" text-anchor="end">connection proxy</text></g><g><rect x="421" y="130.0000000000001" height="89.99999999999983" width="5" fill="#000"></rect><text x="415" y="175.00000000000003" dy="0.35em" text-anchor="end">custom command and control protocol</text></g><g><rect x="421" y="470.0000000000001" height="10" width="5" fill="#000"></rect><text x="415" y="475.0000000000001" dy="0.35em" text-anchor="end">data compressed</text></g><g><rect x="421" y="490.0000000000001" height="10" width="5" fill="#000"></rect><text x="415" y="495.0000000000001" dy="0.35em" text-anchor="end">data obfuscation</text></g><g><rect x="421" y="410.0000000000001" height="20" width="5" fill="#000"></rect><text x="415" y="420.0000000000001" dy="0.35em" text-anchor="end">new service</text></g><g><rect x="421" y="300" height="40" width="5" fill="#000"></rect><text x="415" y="320" dy="0.35em" text-anchor="end">process injection</text></g><g><rect x="421" y="-1.7053025658242404e-13" height="120.00000000000028" width="5" fill="#000"></rect><text x="415" y="59.99999999999997" dy="0.35em" text-anchor="end">scheduled task</text></g><g><rect x="421" y="440.0000000000001" height="19.99999999999997" width="5" fill="#000"></rect><text x="415" y="450.0000000000001" dy="0.35em" text-anchor="end">standard application layer protocol</text></g><g><rect x="421" y="229.99999999999994" height="60.000000000000085" width="5" fill="#000"></rect><text x="415" y="260" dy="0.35em" text-anchor="end">standard cryptographic protocol</text></g></g></g></svg>