<svg width="847" height="520" xmlns="http://www.w3.org/2000/svg" version="1.1"><g transform="translate(0, 10)"><g class="links" fill="none" stroke-opacity="0.4"><path d="M5,256.4999999999998C213,256.4999999999998,213,74.5000000000002,421,74.5000000000002" stroke-width="129" style="stroke: rgb(191, 105, 105);"></path><path d="M5,352.5000000000001C213,352.5000000000001,213,170.50000000000009,421,170.50000000000009" stroke-width="43" style="stroke: rgb(191, 148, 105);"></path><path d="M5,405.5000000000001C213,405.5000000000001,213,213.50000000000009,421,213.50000000000009" stroke-width="43" style="stroke: rgb(191, 191, 105);"></path><path d="M5,117.49999999999977C213,117.49999999999977,213,415.50000000000006,421,415.50000000000006" stroke-width="43" style="stroke: rgb(148, 191, 105);"></path><path d="M5,160.49999999999977C213,160.49999999999977,213,468.5,421,468.5" stroke-width="43" style="stroke: rgb(148, 191, 105);"></path><path d="M5,52.99999999999977C213,52.99999999999977,213,288.0000000000001,421,288.0000000000001" stroke-width="86" style="stroke: rgb(148, 191, 105);"></path><path d="M5,447.7500000000001C213,447.7500000000001,213,351.75000000000006,421,351.75000000000006" stroke-width="21.5" style="stroke: rgb(105, 191, 105);"></path><path d="M5,479.2500000000001C213,479.2500000000001,213,373.25000000000006,421,373.25000000000006" stroke-width="21.5" style="stroke: rgb(105, 191, 148);"></path><path d="M426,63.7500000000002C634,63.7500000000002,634,394.7499999999999,842,394.7499999999999" stroke-width="21.5" style="stroke: rgb(105, 191, 191);"></path><path d="M426,42.2500000000002C634,42.2500000000002,634,320.25,842,320.25" stroke-width="21.5" style="stroke: rgb(105, 191, 191);"></path><path d="M426,85.2500000000002C634,85.2500000000002,634,426.2499999999999,842,426.2499999999999" stroke-width="21.5" style="stroke: rgb(105, 191, 191);"></path><path d="M426,20.7500000000002C634,20.7500000000002,634,245.74999999999994,842,245.74999999999994" stroke-width="21.5" style="stroke: rgb(105, 191, 191);"></path><path d="M426,128.2500000000002C634,128.2500000000002,634,489.2499999999999,842,489.2499999999999" stroke-width="21.5" style="stroke: rgb(105, 191, 191);"></path><path d="M426,106.7500000000002C634,106.7500000000002,634,457.7499999999999,842,457.7499999999999" stroke-width="21.5" style="stroke: rgb(105, 191, 191);"></path><path d="M426,192.00000000000009C634,192.00000000000009,634,181.99999999999994,842,181.99999999999994" stroke-width="86" style="stroke: rgb(105, 148, 191);"></path><path d="M426,426.25000000000006C634,426.25000000000006,634,341.75,842,341.75" stroke-width="21.5" style="stroke: rgb(105, 105, 191);"></path><path d="M426,404.75000000000006C634,404.75000000000006,634,96.75000000000023,842,96.75000000000023" stroke-width="21.5" style="stroke: rgb(105, 105, 191);"></path><path d="M426,479.25C634,479.25,634,363.25,842,363.25" stroke-width="21.5" style="stroke: rgb(148, 105, 191);"></path><path d="M426,457.75C634,457.75,634,118.25000000000023,842,118.25000000000023" stroke-width="21.5" style="stroke: rgb(148, 105, 191);"></path><path d="M426,266.5000000000001C634,266.5000000000001,634,21.500000000000227,842,21.500000000000227" stroke-width="43" style="stroke: rgb(191, 105, 191);"></path><path d="M426,309.5000000000001C634,309.5000000000001,634,277.99999999999994,842,277.99999999999994" stroke-width="43" style="stroke: rgb(191, 105, 191);"></path><path d="M426,362.50000000000006C634,362.50000000000006,634,64.50000000000023,842,64.50000000000023" stroke-width="43" style="stroke: rgb(191, 105, 148);"></path></g><g class="nodes" font-family="Arial, Helvetica" font-size="10"><g><rect x="842" y="383.9999999999999" height="21.5" width="5" fill="#000"></rect><text x="836" y="394.7499999999999" dy="0.35em" text-anchor="end">binary file metadata</text></g><g><rect x="842" y="138.99999999999994" height="86.00000000000001" width="5" fill="#000"></rect><text x="836" y="181.99999999999994" dy="0.35em" text-anchor="end">data loss prevention</text></g><g><rect x="842" y="309.5" height="64.49999999999989" width="5" fill="#000"></rect><text x="836" y="341.74999999999994" dy="0.35em" text-anchor="end">malware reverse engineering</text></g><g><rect x="842" y="2.2737367544323206e-13" height="128.99999999999972" width="5" fill="#000"></rect><text x="836" y="64.50000000000009" dy="0.35em" text-anchor="end">netflow/enclave netflow</text></g><g><rect x="842" y="415.4999999999999" height="21.5" width="5" fill="#000"></rect><text x="836" y="426.2499999999999" dy="0.35em" text-anchor="end">network intrusion detection system</text></g><g><rect x="842" y="234.99999999999994" height="64.50000000000006" width="5" fill="#000"></rect><text x="836" y="267.25" dy="0.35em" text-anchor="end">network protocol analysis</text></g><g><rect x="842" y="478.4999999999999" height="21.499999999999886" width="5" fill="#000"></rect><text x="836" y="489.24999999999983" dy="0.35em" text-anchor="end">ssl/tls inspection</text></g><g><rect x="842" y="446.9999999999999" height="21.5" width="5" fill="#000"></rect><text x="836" y="457.7499999999999" dy="0.35em" text-anchor="end">windows event logs</text></g><g><rect x="0" y="191.99999999999974" height="129.0000000000004" width="5" fill="#000"></rect><text x="11" y="256.49999999999994" dy="0.35em" text-anchor="start">Antivirus/Antimalware</text></g><g><rect x="0" y="331.0000000000001" height="43.00000000000002" width="5" fill="#000"></rect><text x="11" y="352.5000000000001" dy="0.35em" text-anchor="start">Disable or Remove Feature or Program</text></g><g><rect x="0" y="384.0000000000001" height="43.000000000000014" width="5" fill="#000"></rect><text x="11" y="405.5000000000001" dy="0.35em" text-anchor="start">Limit Hardware Installation</text></g><g><rect x="0" y="9.999999999999773" height="171.99999999999997" width="5" fill="#000"></rect><text x="11" y="95.99999999999976" dy="0.35em" text-anchor="start">Network Intrusion Prevention</text></g><g><rect x="0" y="437.0000000000001" height="21.5" width="5" fill="#000"></rect><text x="11" y="447.7500000000001" dy="0.35em" text-anchor="start">Privileged Account Management</text></g><g><rect x="0" y="468.5000000000001" height="21.5" width="5" fill="#000"></rect><text x="11" y="479.2500000000001" dy="0.35em" text-anchor="start">User Account Management</text></g><g><rect x="421" y="394.00000000000006" height="42.99999999999994" width="5" fill="#000"></rect><text x="415" y="415.5" dy="0.35em" text-anchor="end">fallback channels</text></g><g><rect x="421" y="10.000000000000199" height="128.9999999999999" width="5" fill="#000"></rect><text x="415" y="74.50000000000014" dy="0.35em" text-anchor="end">obfuscated files or information</text></g><g><rect x="421" y="245.0000000000001" height="85.99999999999994" width="5" fill="#000"></rect><text x="415" y="288.0000000000001" dy="0.35em" text-anchor="end">remote file copy</text></g><g><rect x="421" y="149.00000000000009" height="86.00000000000003" width="5" fill="#000"></rect><text x="415" y="192.0000000000001" dy="0.35em" text-anchor="end">replication through removable media</text></g><g><rect x="421" y="447" height="42.99999999999983" width="5" fill="#000"></rect><text x="415" y="468.4999999999999" dy="0.35em" text-anchor="end">standard application layer protocol</text></g><g><rect x="421" y="341.00000000000006" height="43" width="5" fill="#000"></rect><text x="415" y="362.50000000000006" dy="0.35em" text-anchor="end">windows management instrumentation</text></g></g></g></svg>