<svg width="847" height="520" xmlns="http://www.w3.org/2000/svg" version="1.1"><g transform="translate(0, 10)"><g class="links" fill="none" stroke-opacity="0.4"><path d="M5,370C213,370,213,283.3333333333335,421,283.3333333333335" stroke-width="76.66666666666667" style="stroke: rgb(191, 105, 105);"></path><path d="M5,196.66666666666674C213,196.66666666666674,213,456.6666666666668,421,456.6666666666668" stroke-width="76.66666666666667" style="stroke: rgb(191, 169, 105);"></path><path d="M5,81.66666666666673C213,81.66666666666673,213,81.66666666666656,421,81.66666666666656" stroke-width="153.33333333333334" style="stroke: rgb(191, 169, 105);"></path><path d="M5,283.3333333333332C213,283.3333333333332,213,206.66666666666683,421,206.66666666666683" stroke-width="76.66666666666667" style="stroke: rgb(148, 191, 105);"></path><path d="M5,456.6666666666667C213,456.6666666666667,213,370.00000000000006,421,370.00000000000006" stroke-width="76.66666666666667" style="stroke: rgb(105, 191, 126);"></path><path d="M426,245.00000000000017C634,245.00000000000017,634,76.66666666666647,842,76.66666666666647" stroke-width="153.33333333333334" style="stroke: rgb(105, 191, 191);"></path><path d="M426,475.8333333333335C634,475.8333333333335,634,480.8333333333335,842,480.8333333333335" stroke-width="38.333333333333336" style="stroke: rgb(105, 126, 191);"></path><path d="M426,437.50000000000017C634,437.50000000000017,634,259.1666666666665,842,259.1666666666665" stroke-width="38.333333333333336" style="stroke: rgb(105, 126, 191);"></path><path d="M426,43.33333333333322C634,43.33333333333322,634,201.66666666666652,842,201.66666666666652" stroke-width="76.66666666666667" style="stroke: rgb(148, 105, 191);"></path><path d="M426,119.99999999999989C634,119.99999999999989,634,413.33333333333337,842,413.33333333333337" stroke-width="76.66666666666667" style="stroke: rgb(148, 105, 191);"></path><path d="M426,370.00000000000006C634,370.00000000000006,634,326.6666666666666,842,326.6666666666666" stroke-width="76.66666666666667" style="stroke: rgb(191, 105, 169);"></path></g><g class="nodes" font-family="Arial, Helvetica" font-size="10"><g><rect x="842" y="-1.9895196601282805e-13" height="153.33333333333337" width="5" fill="#000"></rect><text x="836" y="76.66666666666649" dy="0.35em" text-anchor="end">dll monitoring</text></g><g><rect x="842" y="461.6666666666668" height="38.33333333333337" width="5" fill="#000"></rect><text x="836" y="480.8333333333335" dy="0.35em" text-anchor="end">malware reverse engineering</text></g><g><rect x="842" y="163.33333333333317" height="115.00000000000011" width="5" fill="#000"></rect><text x="836" y="220.83333333333323" dy="0.35em" text-anchor="end">netflow/enclave netflow</text></g><g><rect x="842" y="375.00000000000006" height="76.66666666666674" width="5" fill="#000"></rect><text x="836" y="413.3333333333334" dy="0.35em" text-anchor="end">network protocol analysis</text></g><g><rect x="842" y="288.33333333333326" height="76.6666666666668" width="5" fill="#000"></rect><text x="836" y="326.66666666666663" dy="0.35em" text-anchor="end">windows event logs</text></g><g><rect x="0" y="331.6666666666667" height="76.66666666666666" width="5" fill="#000"></rect><text x="11" y="370" dy="0.35em" text-anchor="start">Behavior Prevention on Endpoint</text></g><g><rect x="0" y="5.000000000000057" height="229.99999999999983" width="5" fill="#000"></rect><text x="11" y="119.99999999999997" dy="0.35em" text-anchor="start">Network Intrusion Prevention</text></g><g><rect x="0" y="244.9999999999999" height="76.6666666666668" width="5" fill="#000"></rect><text x="11" y="283.33333333333326" dy="0.35em" text-anchor="start">Privileged Account Management</text></g><g><rect x="0" y="418.33333333333337" height="76.66666666666657" width="5" fill="#000"></rect><text x="11" y="456.66666666666663" dy="0.35em" text-anchor="start">User Account Management</text></g><g><rect x="421" y="331.66666666666674" height="76.66666666666674" width="5" fill="#000"></rect><text x="415" y="370.0000000000001" dy="0.35em" text-anchor="end">new service</text></g><g><rect x="421" y="168.33333333333348" height="153.3333333333333" width="5" fill="#000"></rect><text x="415" y="245.0000000000001" dy="0.35em" text-anchor="end">process injection</text></g><g><rect x="421" y="4.999999999999886" height="153.3333333333336" width="5" fill="#000"></rect><text x="415" y="81.66666666666669" dy="0.35em" text-anchor="end">remote file copy</text></g><g><rect x="421" y="418.3333333333335" height="76.66666666666663" width="5" fill="#000"></rect><text x="415" y="456.6666666666668" dy="0.35em" text-anchor="end">standard application layer protocol</text></g></g></g></svg>