<svg width="847" height="520" xmlns="http://www.w3.org/2000/svg" version="1.1"><g transform="translate(0, 10)"><g class="links" fill="none" stroke-opacity="0.4"><path d="M5,272.9411764705884C213,272.9411764705884,213,80.88235294117663,421,80.88235294117663" stroke-width="151.76470588235293" style="stroke: rgb(191, 105, 105);"></path><path d="M5,136.47058823529423C213,136.47058823529423,213,434.4117647058824,421,434.4117647058824" stroke-width="50.588235294117645" style="stroke: rgb(191, 145, 105);"></path><path d="M5,60.588235294117766C213,60.588235294117766,213,252.64705882352925,421,252.64705882352925" stroke-width="50.588235294117645" style="stroke: rgb(191, 145, 105);"></path><path d="M5,98.52941176470598C213,98.52941176470598,213,361.1764705882353,421,361.1764705882353" stroke-width="25.294117647058822" style="stroke: rgb(191, 145, 105);"></path><path d="M5,22.647058823529527C213,22.647058823529527,213,179.41176470588195,421,179.41176470588195" stroke-width="25.294117647058822" style="stroke: rgb(191, 145, 105);"></path><path d="M5,174.41176470588246C213,174.41176470588246,213,482.35294117647044,421,482.35294117647044" stroke-width="25.294117647058822" style="stroke: rgb(191, 145, 105);"></path><path d="M5,371.470588235294C213,371.470588235294,213,386.47058823529414,421,386.47058823529414" stroke-width="25.294117647058822" style="stroke: rgb(191, 184, 105);"></path><path d="M5,406.76470588235287C213,406.76470588235287,213,300.5882352941176,421,300.5882352941176" stroke-width="25.294117647058822" style="stroke: rgb(158, 191, 105);"></path><path d="M5,477.3529411764705C213,477.3529411764705,213,204.70588235294076,421,204.70588235294076" stroke-width="25.294117647058822" style="stroke: rgb(118, 191, 105);"></path><path d="M5,442.0588235294117C213,442.0588235294117,213,325.88235294117646,421,325.88235294117646" stroke-width="25.294117647058822" style="stroke: rgb(105, 191, 131);"></path><path d="M426,93.52941176470604C634,93.52941176470604,634,416.76470588235327,842,416.76470588235327" stroke-width="25.294117647058822" style="stroke: rgb(105, 191, 171);"></path><path d="M426,17.647058823529584C634,17.647058823529584,634,174.41176470588243,842,174.41176470588243" stroke-width="25.294117647058822" style="stroke: rgb(105, 191, 171);"></path><path d="M426,118.82352941176487C634,118.82352941176487,634,452.05882352941205,842,452.05882352941205" stroke-width="25.294117647058822" style="stroke: rgb(105, 191, 171);"></path><path d="M426,42.9411764705884C634,42.9411764705884,634,260.294117647059,842,260.294117647059" stroke-width="25.294117647058822" style="stroke: rgb(105, 191, 171);"></path><path d="M426,144.1176470588237C634,144.1176470588237,634,487.35294117647084,842,487.35294117647084" stroke-width="25.294117647058822" style="stroke: rgb(105, 191, 171);"></path><path d="M426,68.23529411764723C634,68.23529411764723,634,381.4705882352944,842,381.4705882352944" stroke-width="25.294117647058822" style="stroke: rgb(105, 191, 171);"></path><path d="M426,447.05882352941177C634,447.05882352941177,634,225.00000000000006,842,225.00000000000006" stroke-width="25.294117647058822" style="stroke: rgb(105, 171, 191);"></path><path d="M426,421.7647058823529C634,421.7647058823529,634,139.11764705882365,842,139.11764705882365" stroke-width="25.294117647058822" style="stroke: rgb(105, 171, 191);"></path><path d="M426,265.29411764705867C634,265.29411764705867,634,199.70588235294125,842,199.70588235294125" stroke-width="25.294117647058822" style="stroke: rgb(105, 131, 191);"></path><path d="M426,239.99999999999986C634,239.99999999999986,634,63.23529411764717,842,63.23529411764717" stroke-width="25.294117647058822" style="stroke: rgb(105, 131, 191);"></path><path d="M426,373.82352941176475C634,373.82352941176475,634,101.1764705882354,842,101.1764705882354" stroke-width="50.588235294117645" style="stroke: rgb(118, 105, 191);"></path><path d="M426,192.05882352941134C634,192.05882352941134,634,25.294117647058936,842,25.294117647058936" stroke-width="50.588235294117645" style="stroke: rgb(158, 105, 191);"></path><path d="M426,482.35294117647044C634,482.35294117647044,634,285.5882352941178,842,285.5882352941178" stroke-width="25.294117647058822" style="stroke: rgb(191, 105, 184);"></path><path d="M426,313.2352941176471C634,313.2352941176471,634,333.52941176470614,842,333.52941176470614" stroke-width="50.588235294117645" style="stroke: rgb(191, 105, 145);"></path></g><g class="nodes" font-family="Arial, Helvetica" font-size="10"><g><rect x="842" y="308.2352941176473" height="50.58823529411765" width="5" fill="#000"></rect><text x="836" y="333.52941176470614" dy="0.35em" text-anchor="end">anti-virus</text></g><g><rect x="842" y="404.1176470588239" height="25.294117647058783" width="5" fill="#000"></rect><text x="836" y="416.76470588235327" dy="0.35em" text-anchor="end">binary file metadata</text></g><g><rect x="842" y="161.764705882353" height="75.88235294117658" width="5" fill="#000"></rect><text x="836" y="199.7058823529413" dy="0.35em" text-anchor="end">malware reverse engineering</text></g><g><rect x="842" y="1.1368683772161603e-13" height="151.7647058823529" width="5" fill="#000"></rect><text x="836" y="75.88235294117656" dy="0.35em" text-anchor="end">netflow/enclave netflow</text></g><g><rect x="842" y="439.41176470588266" height="25.294117647058783" width="5" fill="#000"></rect><text x="836" y="452.05882352941205" dy="0.35em" text-anchor="end">network intrusion detection system</text></g><g><rect x="842" y="247.6470588235296" height="50.58823529411768" width="5" fill="#000"></rect><text x="836" y="272.9411764705884" dy="0.35em" text-anchor="end">network protocol analysis</text></g><g><rect x="842" y="474.70588235294144" height="25.2941176470585" width="5" fill="#000"></rect><text x="836" y="487.3529411764707" dy="0.35em" text-anchor="end">ssl/tls inspection</text></g><g><rect x="842" y="368.823529411765" height="25.294117647058897" width="5" fill="#000"></rect><text x="836" y="381.47058823529443" dy="0.35em" text-anchor="end">windows event logs</text></g><g><rect x="0" y="197.05882352941194" height="151.76470588235264" width="5" fill="#000"></rect><text x="11" y="272.9411764705883" dy="0.35em" text-anchor="start">Antivirus/Antimalware</text></g><g><rect x="0" y="10.000000000000114" height="177.05882352941182" width="5" fill="#000"></rect><text x="11" y="98.52941176470603" dy="0.35em" text-anchor="start">Network Intrusion Prevention</text></g><g><rect x="0" y="358.8235294117646" height="25.294117647058897" width="5" fill="#000"></rect><text x="11" y="371.47058823529403" dy="0.35em" text-anchor="start">Network Segmentation</text></g><g><rect x="0" y="394.1176470588235" height="25.294117647058833" width="5" fill="#000"></rect><text x="11" y="406.76470588235287" dy="0.35em" text-anchor="start">Restrict File and Directory Permissions</text></g><g><rect x="0" y="464.7058823529411" height="25.294117647058783" width="5" fill="#000"></rect><text x="11" y="477.3529411764705" dy="0.35em" text-anchor="start">Restrict Web-Based Content</text></g><g><rect x="0" y="429.4117647058823" height="25.294117647058812" width="5" fill="#000"></rect><text x="11" y="442.0588235294117" dy="0.35em" text-anchor="start">User Account Management</text></g><g><rect x="421" y="348.5294117647059" height="50.58823529411765" width="5" fill="#000"></rect><text x="415" y="373.82352941176475" dy="0.35em" text-anchor="end">commonly used port</text></g><g><rect x="421" y="409.11764705882354" height="50.58823529411751" width="5" fill="#000"></rect><text x="415" y="434.4117647058823" dy="0.35em" text-anchor="end">custom cryptographic protocol</text></g><g><rect x="421" y="469.70588235294105" height="25.294117647058783" width="5" fill="#000"></rect><text x="415" y="482.35294117647044" dy="0.35em" text-anchor="end">data encoding</text></g><g><rect x="421" y="287.94117647058823" height="50.58823529411768" width="5" fill="#000"></rect><text x="415" y="313.2352941176471" dy="0.35em" text-anchor="end">disabling security tools</text></g><g><rect x="421" y="166.76470588235253" height="50.58823529411791" width="5" fill="#000"></rect><text x="415" y="192.05882352941148" dy="0.35em" text-anchor="end">domain generation algorithms</text></g><g><rect x="421" y="5.0000000000001705" height="151.76470588235236" width="5" fill="#000"></rect><text x="415" y="80.88235294117635" dy="0.35em" text-anchor="end">obfuscated files or information</text></g><g><rect x="421" y="227.35294117647044" height="50.588235294117794" width="5" fill="#000"></rect><text x="415" y="252.64705882352933" dy="0.35em" text-anchor="end">standard application layer protocol</text></g></g></g></svg>