<svg width="847" height="520" xmlns="http://www.w3.org/2000/svg" version="1.1"><g transform="translate(0, 10)"><g class="links" fill="none" stroke-opacity="0.4"><path d="M5,187.66666666666652C213,187.66666666666652,213,45.99999999999977,421,45.99999999999977" stroke-width="82" style="stroke: rgb(191, 105, 105);"></path><path d="M5,415.3333333333335C213,415.3333333333335,213,230.0000000000001,421,230.0000000000001" stroke-width="27.333333333333332" style="stroke: rgb(191, 132, 105);"></path><path d="M5,469.50000000000006C213,469.50000000000006,213,338.8333333333335,421,338.8333333333335" stroke-width="13.666666666666666" style="stroke: rgb(191, 159, 105);"></path><path d="M5,445.83333333333337C213,445.83333333333337,213,325.1666666666668,421,325.1666666666668" stroke-width="13.666666666666666" style="stroke: rgb(191, 186, 105);"></path><path d="M5,340.66666666666686C213,340.66666666666686,213,420.3333333333335,421,420.3333333333335" stroke-width="27.333333333333332" style="stroke: rgb(168, 191, 105);"></path><path d="M5,109.33333333333324C213,109.33333333333324,213,457.6666666666668,421,457.6666666666668" stroke-width="27.333333333333332" style="stroke: rgb(141, 191, 105);"></path><path d="M5,20.499999999999915C213,20.499999999999915,213,117.50000000000011,421,117.50000000000011" stroke-width="41" style="stroke: rgb(141, 191, 105);"></path><path d="M5,68.33333333333324C213,68.33333333333324,213,281.0000000000002,421,281.0000000000002" stroke-width="54.666666666666664" style="stroke: rgb(141, 191, 105);"></path><path d="M5,129.83333333333323C213,129.83333333333323,213,488.1666666666666,421,488.1666666666666" stroke-width="13.666666666666666" style="stroke: rgb(141, 191, 105);"></path><path d="M5,378.00000000000017C213,378.00000000000017,213,202.66666666666677,421,202.66666666666677" stroke-width="27.333333333333332" style="stroke: rgb(114, 191, 105);"></path><path d="M5,493.16666666666674C213,493.16666666666674,213,352.50000000000017,421,352.50000000000017" stroke-width="13.666666666666666" style="stroke: rgb(105, 191, 123);"></path><path d="M5,259.1666666666665C213,259.1666666666665,213,158.5000000000001,421,158.5000000000001" stroke-width="41" style="stroke: rgb(105, 191, 150);"></path><path d="M5,303.3333333333332C213,303.3333333333332,213,383.0000000000001,421,383.0000000000001" stroke-width="27.333333333333332" style="stroke: rgb(105, 191, 177);"></path><path d="M426,11.833333333333105C634,11.833333333333105,634,16.83333333333339,842,16.83333333333339" stroke-width="13.666666666666666" style="stroke: rgb(105, 177, 191);"></path><path d="M426,39.16666666666644C634,39.16666666666644,634,316.5,842,316.5" stroke-width="13.666666666666666" style="stroke: rgb(105, 177, 191);"></path><path d="M426,80.16666666666643C634,80.16666666666643,634,483.16666666666663,842,483.16666666666663" stroke-width="13.666666666666666" style="stroke: rgb(105, 177, 191);"></path><path d="M426,25.49999999999977C634,25.49999999999977,634,251.8333333333333,842,251.8333333333333" stroke-width="13.666666666666666" style="stroke: rgb(105, 177, 191);"></path><path d="M426,52.8333333333331C634,52.8333333333331,634,381.16666666666663,842,381.16666666666663" stroke-width="13.666666666666666" style="stroke: rgb(105, 177, 191);"></path><path d="M426,66.49999999999976C634,66.49999999999976,634,432.16666666666663,842,432.16666666666663" stroke-width="13.666666666666666" style="stroke: rgb(105, 177, 191);"></path><path d="M426,216.33333333333346C634,216.33333333333346,634,207.6666666666665,842,207.6666666666665" stroke-width="54.666666666666664" style="stroke: rgb(105, 150, 191);"></path><path d="M426,338.8333333333335C634,338.8333333333335,634,44.16666666666672,842,44.16666666666672" stroke-width="41" style="stroke: rgb(105, 123, 191);"></path><path d="M426,420.3333333333335C634,420.3333333333335,634,78.33333333333339,842,78.33333333333339" stroke-width="27.333333333333332" style="stroke: rgb(114, 105, 191);"></path><path d="M426,464.5000000000001C634,464.5000000000001,634,357.5,842,357.5" stroke-width="13.666666666666666" style="stroke: rgb(141, 105, 191);"></path><path d="M426,450.8333333333334C634,450.8333333333334,634,163.50000000000009,842,163.50000000000009" stroke-width="13.666666666666666" style="stroke: rgb(141, 105, 191);"></path><path d="M426,138.0000000000001C634,138.0000000000001,634,337.00000000000006,842,337.00000000000006" stroke-width="27.333333333333332" style="stroke: rgb(168, 105, 191);"></path><path d="M426,110.66666666666679C634,110.66666666666679,634,115.66666666666674,842,115.66666666666674" stroke-width="27.333333333333332" style="stroke: rgb(168, 105, 191);"></path><path d="M426,165.33333333333343C634,165.33333333333343,634,401.6666666666667,842,401.6666666666667" stroke-width="27.333333333333332" style="stroke: rgb(168, 105, 191);"></path><path d="M426,267.33333333333354C634,267.33333333333354,634,143.00000000000006,842,143.00000000000006" stroke-width="27.333333333333332" style="stroke: rgb(191, 105, 186);"></path><path d="M426,294.6666666666669C634,294.6666666666669,634,272.3333333333333,842,272.3333333333333" stroke-width="27.333333333333332" style="stroke: rgb(191, 105, 186);"></path><path d="M426,488.1666666666666C634,488.1666666666666,634,292.83333333333326,842,292.83333333333326" stroke-width="13.666666666666666" style="stroke: rgb(191, 105, 159);"></path><path d="M426,383.0000000000001C634,383.0000000000001,634,452.6666666666667,842,452.6666666666667" stroke-width="27.333333333333332" style="stroke: rgb(191, 105, 132);"></path></g><g class="nodes" font-family="Arial, Helvetica" font-size="10"><g><rect x="842" y="10.000000000000057" height="82.00000000000001" width="5" fill="#000"></rect><text x="836" y="51.000000000000064" dy="0.35em" text-anchor="end">binary file metadata</text></g><g><rect x="842" y="180.33333333333314" height="54.6666666666668" width="5" fill="#000"></rect><text x="836" y="207.66666666666654" dy="0.35em" text-anchor="end">dll monitoring</text></g><g><rect x="842" y="309.6666666666667" height="54.66666666666663" width="5" fill="#000"></rect><text x="836" y="337" dy="0.35em" text-anchor="end">malware reverse engineering</text></g><g><rect x="842" y="102.00000000000007" height="68.33333333333309" width="5" fill="#000"></rect><text x="836" y="136.16666666666663" dy="0.35em" text-anchor="end">netflow/enclave netflow</text></g><g><rect x="842" y="476.3333333333333" height="13.666666666666629" width="5" fill="#000"></rect><text x="836" y="483.16666666666663" dy="0.35em" text-anchor="end">network intrusion detection system</text></g><g><rect x="842" y="244.99999999999994" height="54.66666666666674" width="5" fill="#000"></rect><text x="836" y="272.3333333333333" dy="0.35em" text-anchor="end">network protocol analysis</text></g><g><rect x="842" y="374.3333333333333" height="41" width="5" fill="#000"></rect><text x="836" y="394.8333333333333" dy="0.35em" text-anchor="end">ssl/tls inspection</text></g><g><rect x="842" y="425.3333333333333" height="41" width="5" fill="#000"></rect><text x="836" y="445.8333333333333" dy="0.35em" text-anchor="end">windows event logs</text></g><g><rect x="0" y="146.66666666666652" height="82" width="5" fill="#000"></rect><text x="11" y="187.66666666666652" dy="0.35em" text-anchor="start">Antivirus/Antimalware</text></g><g><rect x="0" y="401.6666666666668" height="27.333333333333258" width="5" fill="#000"></rect><text x="11" y="415.3333333333334" dy="0.35em" text-anchor="start">Behavior Prevention on Endpoint</text></g><g><rect x="0" y="462.66666666666674" height="13.666666666666664" width="5" fill="#000"></rect><text x="11" y="469.50000000000006" dy="0.35em" text-anchor="start">Code Signing</text></g><g><rect x="0" y="439.00000000000006" height="13.666666666666693" width="5" fill="#000"></rect><text x="11" y="445.8333333333334" dy="0.35em" text-anchor="start">Execution Prevention</text></g><g><rect x="0" y="327.00000000000017" height="27.333333333333325" width="5" fill="#000"></rect><text x="11" y="340.66666666666686" dy="0.35em" text-anchor="start">Exploit Protection</text></g><g><rect x="0" y="-8.526512829121202e-14" height="136.6666666666666" width="5" fill="#000"></rect><text x="11" y="68.33333333333321" dy="0.35em" text-anchor="start">Network Intrusion Prevention</text></g><g><rect x="0" y="364.3333333333335" height="27.333333333333314" width="5" fill="#000"></rect><text x="11" y="378.0000000000001" dy="0.35em" text-anchor="start">Privileged Account Management</text></g><g><rect x="0" y="486.3333333333334" height="13.666666666666657" width="5" fill="#000"></rect><text x="11" y="493.16666666666674" dy="0.35em" text-anchor="start">Restrict File and Directory Permissions</text></g><g><rect x="0" y="238.66666666666652" height="41" width="5" fill="#000"></rect><text x="11" y="259.1666666666665" dy="0.35em" text-anchor="start">SSL/TLS Inspection</text></g><g><rect x="0" y="289.6666666666665" height="27.333333333333655" width="5" fill="#000"></rect><text x="11" y="303.33333333333337" dy="0.35em" text-anchor="start">User Account Management</text></g><g><rect x="421" y="481.33333333333326" height="13.666666666666856" width="5" fill="#000"></rect><text x="415" y="488.1666666666667" dy="0.35em" text-anchor="end">data encoding</text></g><g><rect x="421" y="318.3333333333335" height="40.99999999999995" width="5" fill="#000"></rect><text x="415" y="338.8333333333335" dy="0.35em" text-anchor="end">masquerading</text></g><g><rect x="421" y="369.3333333333334" height="27.33333333333337" width="5" fill="#000"></rect><text x="415" y="383.0000000000001" dy="0.35em" text-anchor="end">new service</text></g><g><rect x="421" y="4.999999999999773" height="82.00000000000034" width="5" fill="#000"></rect><text x="415" y="45.99999999999994" dy="0.35em" text-anchor="end">obfuscated files or information</text></g><g><rect x="421" y="189.0000000000001" height="54.66666666666677" width="5" fill="#000"></rect><text x="415" y="216.33333333333348" dy="0.35em" text-anchor="end">process injection</text></g><g><rect x="421" y="253.66666666666688" height="54.66666666666663" width="5" fill="#000"></rect><text x="415" y="281.0000000000002" dy="0.35em" text-anchor="end">remote file copy</text></g><g><rect x="421" y="406.6666666666668" height="27.333333333333343" width="5" fill="#000"></rect><text x="415" y="420.3333333333335" dy="0.35em" text-anchor="end">rundll32</text></g><g><rect x="421" y="444.0000000000001" height="27.333333333333144" width="5" fill="#000"></rect><text x="415" y="457.6666666666667" dy="0.35em" text-anchor="end">standard application layer protocol</text></g><g><rect x="421" y="97.00000000000011" height="82" width="5" fill="#000"></rect><text x="415" y="138.0000000000001" dy="0.35em" text-anchor="end">standard cryptographic protocol</text></g></g></g></svg>