<svg width="847" height="520" xmlns="http://www.w3.org/2000/svg" version="1.1"><g transform="translate(0, 10)"><g class="links" fill="none" stroke-opacity="0.4"><path d="M5,245.0000000000001C213,245.0000000000001,213,377.5000000000002,421,377.5000000000002" stroke-width="245" style="stroke: rgb(191, 105, 105);"></path><path d="M5,61.250000000000114C213,61.250000000000114,213,61.24999999999994,421,61.24999999999994" stroke-width="122.5" style="stroke: rgb(191, 105, 105);"></path><path d="M5,438.74999999999994C213,438.74999999999994,213,183.74999999999994,421,183.74999999999994" stroke-width="122.5" style="stroke: rgb(148, 191, 105);"></path><path d="M426,438.7500000000002C634,438.7500000000002,634,438.7500000000001,842,438.7500000000001" stroke-width="122.5" style="stroke: rgb(105, 191, 191);"></path><path d="M426,316.2500000000002C634,316.2500000000002,634,306.2500000000002,842,306.2500000000002" stroke-width="122.5" style="stroke: rgb(105, 191, 191);"></path><path d="M426,122.49999999999994C634,122.49999999999994,634,122.5000000000002,842,122.5000000000002" stroke-width="245" style="stroke: rgb(148, 105, 191);"></path></g><g class="nodes" font-family="Arial, Helvetica" font-size="10"><g><rect x="842" y="377.5000000000001" height="122.49999999999966" width="5" fill="#000"></rect><text x="836" y="438.74999999999994" dy="0.35em" text-anchor="end">malware reverse engineering</text></g><g><rect x="842" y="1.9895196601282805e-13" height="367.49999999999994" width="5" fill="#000"></rect><text x="836" y="183.75000000000017" dy="0.35em" text-anchor="end">netflow/enclave netflow</text></g><g><rect x="0" y="1.1368683772161603e-13" height="367.49999999999983" width="5" fill="#000"></rect><text x="11" y="183.75000000000003" dy="0.35em" text-anchor="start">Network Intrusion Prevention</text></g><g><rect x="0" y="377.49999999999994" height="122.49999999999994" width="5" fill="#000"></rect><text x="11" y="438.7499999999999" dy="0.35em" text-anchor="start">Network Segmentation</text></g><g><rect x="421" y="-5.684341886080802e-14" height="245.00000000000028" width="5" fill="#000"></rect><text x="415" y="122.50000000000009" dy="0.35em" text-anchor="end">commonly used port</text></g><g><rect x="421" y="255.00000000000023" height="244.99999999999983" width="5" fill="#000"></rect><text x="415" y="377.5000000000001" dy="0.35em" text-anchor="end">standard application layer protocol</text></g></g></g></svg>