<svg width="847" height="520" xmlns="http://www.w3.org/2000/svg" version="1.1"><g transform="translate(0, 10)"><g class="links" fill="none" stroke-opacity="0.4"><path d="M5,235C213,235,213,63.636363636363726,421,63.636363636363726" stroke-width="117.27272727272728" style="stroke: rgb(191, 105, 105);"></path><path d="M5,421.36363636363643C213,421.36363636363643,213,151.81818181818164,421,151.81818181818164" stroke-width="39.09090909090909" style="stroke: rgb(191, 145, 105);"></path><path d="M5,323.1818181818182C213,323.1818181818182,213,426.3636363636364,421,426.3636363636364" stroke-width="39.09090909090909" style="stroke: rgb(191, 184, 105);"></path><path d="M5,107.72727272727276C213,107.72727272727276,213,377.27272727272725,421,377.27272727272725" stroke-width="39.09090909090909" style="stroke: rgb(158, 191, 105);"></path><path d="M5,146.81818181818187C213,146.81818181818187,213,475.45454545454544,421,475.45454545454544" stroke-width="39.09090909090909" style="stroke: rgb(158, 191, 105);"></path><path d="M5,49.09090909090912C213,49.09090909090912,213,259.5454545454544,421,259.5454545454544" stroke-width="78.18181818181819" style="stroke: rgb(158, 191, 105);"></path><path d="M5,470.4545454545455C213,470.4545454545455,213,190.90909090909076,421,190.90909090909076" stroke-width="39.09090909090909" style="stroke: rgb(118, 191, 105);"></path><path d="M5,372.2727272727273C213,372.2727272727273,213,328.181818181818,421,328.181818181818" stroke-width="39.09090909090909" style="stroke: rgb(105, 191, 131);"></path><path d="M426,53.86363636363645C634,53.86363636363645,634,323.4090909090909,842,323.4090909090909" stroke-width="19.545454545454547" style="stroke: rgb(105, 191, 171);"></path><path d="M426,73.40909090909099C634,73.40909090909099,634,392.04545454545445,842,392.04545454545445" stroke-width="19.545454545454547" style="stroke: rgb(105, 191, 171);"></path><path d="M426,112.50000000000009C634,112.50000000000009,634,490.2272727272728,842,490.2272727272728" stroke-width="19.545454545454547" style="stroke: rgb(105, 191, 171);"></path><path d="M426,14.772727272727359C634,14.772727272727359,634,186.13636363636365,842,186.13636363636365" stroke-width="19.545454545454547" style="stroke: rgb(105, 191, 171);"></path><path d="M426,92.95454545454555C634,92.95454545454555,634,460.681818181818,842,460.681818181818" stroke-width="19.545454545454547" style="stroke: rgb(105, 191, 171);"></path><path d="M426,34.318181818181905C634,34.318181818181905,634,254.77272727272728,842,254.77272727272728" stroke-width="19.545454545454547" style="stroke: rgb(105, 191, 171);"></path><path d="M426,171.3636363636362C634,171.3636363636362,634,127.27272727272731,842,127.27272727272731" stroke-width="78.18181818181819" style="stroke: rgb(105, 171, 191);"></path><path d="M426,426.3636363636364C634,426.3636363636364,634,352.72727272727275,842,352.72727272727275" stroke-width="39.09090909090909" style="stroke: rgb(105, 131, 191);"></path><path d="M426,387.0454545454545C634,387.0454545454545,634,411.590909090909,842,411.590909090909" stroke-width="19.545454545454547" style="stroke: rgb(118, 105, 191);"></path><path d="M426,367.49999999999994C634,367.49999999999994,634,48.86363636363625,842,48.86363636363625" stroke-width="19.545454545454547" style="stroke: rgb(118, 105, 191);"></path><path d="M426,485.2272727272727C634,485.2272727272727,634,431.13636363636357,842,431.13636363636357" stroke-width="19.545454545454547" style="stroke: rgb(158, 105, 191);"></path><path d="M426,465.68181818181813C634,465.68181818181813,634,68.40909090909079,842,68.40909090909079" stroke-width="19.545454545454547" style="stroke: rgb(158, 105, 191);"></path><path d="M426,239.9999999999999C634,239.9999999999999,634,19.545454545454433,842,19.545454545454433" stroke-width="39.09090909090909" style="stroke: rgb(191, 105, 184);"></path><path d="M426,279.09090909090895C634,279.09090909090895,634,215.4545454545455,842,215.4545454545455" stroke-width="39.09090909090909" style="stroke: rgb(191, 105, 184);"></path><path d="M426,328.181818181818C634,328.181818181818,634,284.0909090909091,842,284.0909090909091" stroke-width="39.09090909090909" style="stroke: rgb(191, 105, 145);"></path></g><g class="nodes" font-family="Arial, Helvetica" font-size="10"><g><rect x="842" y="313.6363636363636" height="58.63636363636357" width="5" fill="#000"></rect><text x="836" y="342.9545454545454" dy="0.35em" text-anchor="end">binary file metadata</text></g><g><rect x="842" y="88.18181818181822" height="78.18181818181816" width="5" fill="#000"></rect><text x="836" y="127.2727272727273" dy="0.35em" text-anchor="end">dll monitoring</text></g><g><rect x="842" y="382.2727272727272" height="58.63636363636357" width="5" fill="#000"></rect><text x="836" y="411.590909090909" dy="0.35em" text-anchor="end">malware reverse engineering</text></g><g><rect x="842" y="-1.1368683772161603e-13" height="78.18181818181833" width="5" fill="#000"></rect><text x="836" y="39.09090909090905" dy="0.35em" text-anchor="end">netflow/enclave netflow</text></g><g><rect x="842" y="480.45454545454555" height="19.54545454545456" width="5" fill="#000"></rect><text x="836" y="490.22727272727286" dy="0.35em" text-anchor="end">network intrusion detection system</text></g><g><rect x="842" y="176.36363636363637" height="58.636363636363626" width="5" fill="#000"></rect><text x="836" y="205.6818181818182" dy="0.35em" text-anchor="end">network protocol analysis</text></g><g><rect x="842" y="450.90909090909076" height="19.54545454545479" width="5" fill="#000"></rect><text x="836" y="460.68181818181813" dy="0.35em" text-anchor="end">ssl/tls inspection</text></g><g><rect x="842" y="245" height="58.636363636363626" width="5" fill="#000"></rect><text x="836" y="274.3181818181818" dy="0.35em" text-anchor="end">windows event logs</text></g><g><rect x="0" y="176.36363636363635" height="117.27272727272725" width="5" fill="#000"></rect><text x="11" y="234.99999999999997" dy="0.35em" text-anchor="start">Antivirus/Antimalware</text></g><g><rect x="0" y="401.81818181818187" height="39.09090909090908" width="5" fill="#000"></rect><text x="11" y="421.36363636363643" dy="0.35em" text-anchor="start">Behavior Prevention on Endpoint</text></g><g><rect x="0" y="303.6363636363636" height="39.09090909090912" width="5" fill="#000"></rect><text x="11" y="323.1818181818182" dy="0.35em" text-anchor="start">Exploit Protection</text></g><g><rect x="0" y="10.000000000000028" height="156.36363636363632" width="5" fill="#000"></rect><text x="11" y="88.18181818181819" dy="0.35em" text-anchor="start">Network Intrusion Prevention</text></g><g><rect x="0" y="450.90909090909093" height="39.090909090909065" width="5" fill="#000"></rect><text x="11" y="470.4545454545455" dy="0.35em" text-anchor="start">Privileged Account Management</text></g><g><rect x="0" y="352.72727272727275" height="39.09090909090912" width="5" fill="#000"></rect><text x="11" y="372.2727272727273" dy="0.35em" text-anchor="start">User Account Management</text></g><g><rect x="421" y="357.7272727272727" height="39.09090909090912" width="5" fill="#000"></rect><text x="415" y="377.27272727272725" dy="0.35em" text-anchor="end">custom cryptographic protocol</text></g><g><rect x="421" y="308.63636363636346" height="39.090909090909236" width="5" fill="#000"></rect><text x="415" y="328.1818181818181" dy="0.35em" text-anchor="end">new service</text></g><g><rect x="421" y="5.000000000000085" height="117.27272727272702" width="5" fill="#000"></rect><text x="415" y="63.6363636363636" dy="0.35em" text-anchor="end">obfuscated files or information</text></g><g><rect x="421" y="132.2727272727271" height="78.18181818181823" width="5" fill="#000"></rect><text x="415" y="171.36363636363623" dy="0.35em" text-anchor="end">process injection</text></g><g><rect x="421" y="220.45454545454533" height="78.18181818181813" width="5" fill="#000"></rect><text x="415" y="259.5454545454544" dy="0.35em" text-anchor="end">remote file copy</text></g><g><rect x="421" y="406.8181818181818" height="39.090909090909065" width="5" fill="#000"></rect><text x="415" y="426.3636363636364" dy="0.35em" text-anchor="end">rundll32</text></g><g><rect x="421" y="455.9090909090909" height="39.09090909090901" width="5" fill="#000"></rect><text x="415" y="475.4545454545454" dy="0.35em" text-anchor="end">standard application layer protocol</text></g></g></g></svg>