<svg width="847" height="520" xmlns="http://www.w3.org/2000/svg" version="1.1"><g transform="translate(0, 10)"><g class="links" fill="none" stroke-opacity="0.4"><path d="M5,76.96969696969704C213,76.96969696969704,213,235.45454545454544,421,235.45454545454544" stroke-width="30.909090909090907" style="stroke: rgb(191, 105, 105);"></path><path d="M5,100.15151515151523C213,100.15151515151523,213,487.4242424242425,421,487.4242424242425" stroke-width="5.151515151515151" style="stroke: rgb(191, 105, 105);"></path><path d="M5,95.00000000000007C213,95.00000000000007,213,299.2424242424242,421,299.2424242424242" stroke-width="5.151515151515151" style="stroke: rgb(191, 105, 105);"></path><path d="M5,248.33333333333337C213,248.33333333333337,213,48.63636363636363,421,48.63636363636363" stroke-width="15.454545454545453" style="stroke: rgb(191, 121, 105);"></path><path d="M5,459.3939393939394C213,459.3939393939394,213,368.1818181818182,421,368.1818181818182" stroke-width="10.303030303030303" style="stroke: rgb(191, 137, 105);"></path><path d="M5,479.69696969696963C213,479.69696969696963,213,204.84848484848493,421,204.84848484848493" stroke-width="10.303030303030303" style="stroke: rgb(191, 153, 105);"></path><path d="M5,439.0909090909091C213,439.0909090909091,213,194.54545454545462,421,194.54545454545462" stroke-width="10.303030303030303" style="stroke: rgb(191, 169, 105);"></path><path d="M5,398.48484848484844C213,398.48484848484844,213,266.0606060606059,421,266.0606060606059" stroke-width="10.303030303030303" style="stroke: rgb(191, 185, 105);"></path><path d="M5,497.4242424242423C213,497.4242424242423,213,340.15151515151507,421,340.15151515151507" stroke-width="5.151515151515151" style="stroke: rgb(180, 191, 105);"></path><path d="M5,273.78787878787887C213,273.78787878787887,213,120.45454545454538,421,120.45454545454538" stroke-width="15.454545454545453" style="stroke: rgb(164, 191, 105);"></path><path d="M5,418.7878787878788C213,418.7878787878788,213,276.3636363636362,421,276.3636363636362" stroke-width="10.303030303030303" style="stroke: rgb(148, 191, 105);"></path><path d="M5,38.63636363636366C213,38.63636363636366,213,324.6969696969697,421,324.6969696969697" stroke-width="5.151515151515151" style="stroke: rgb(132, 191, 105);"></path><path d="M5,23.18181818181821C213,23.18181818181821,213,145.9090909090907,421,145.9090909090907" stroke-width="15.454545454545453" style="stroke: rgb(132, 191, 105);"></path><path d="M5,43.78787878787881C213,43.78787878787881,213,426.5151515151516,421,426.5151515151516" stroke-width="5.151515151515151" style="stroke: rgb(132, 191, 105);"></path><path d="M5,7.727272727272755C213,7.727272727272755,213,89.54545454545448,421,89.54545454545448" stroke-width="15.454545454545453" style="stroke: rgb(132, 191, 105);"></path><path d="M5,48.93939393939396C213,48.93939393939396,213,446.8181818181819,421,446.8181818181819" stroke-width="5.151515151515151" style="stroke: rgb(132, 191, 105);"></path><path d="M5,33.48484848484851C213,33.48484848484851,213,294.09090909090907,421,294.09090909090907" stroke-width="5.151515151515151" style="stroke: rgb(132, 191, 105);"></path><path d="M5,222.87878787878793C213,222.87878787878793,213,431.66666666666674,421,431.66666666666674" stroke-width="5.151515151515151" style="stroke: rgb(116, 191, 105);"></path><path d="M5,212.57575757575762C213,212.57575757575762,213,104.99999999999994,421,104.99999999999994" stroke-width="15.454545454545453" style="stroke: rgb(116, 191, 105);"></path><path d="M5,228.0303030303031C213,228.0303030303031,213,451.96969696969705,421,451.96969696969705" stroke-width="5.151515151515151" style="stroke: rgb(116, 191, 105);"></path><path d="M5,299.24242424242436C213,299.24242424242436,213,64.0909090909091,421,64.0909090909091" stroke-width="15.454545454545453" style="stroke: rgb(105, 191, 110);"></path><path d="M5,133.33333333333357C213,133.33333333333357,213,184.2424242424243,421,184.2424242424243" stroke-width="10.303030303030303" style="stroke: rgb(105, 191, 126);"></path><path d="M5,143.63636363636388C213,143.63636363636388,213,357.8787878787879,421,357.8787878787879" stroke-width="10.303030303030303" style="stroke: rgb(105, 191, 126);"></path><path d="M5,151.3636363636366C213,151.3636363636366,213,467.12121212121224,421,467.12121212121224" stroke-width="5.151515151515151" style="stroke: rgb(105, 191, 126);"></path><path d="M5,120.45454545454567C213,120.45454545454567,213,17.727272727272727,421,17.727272727272727" stroke-width="15.454545454545453" style="stroke: rgb(105, 191, 126);"></path><path d="M5,324.6969696969698C213,324.6969696969698,213,329.8484848484848,421,329.8484848484848" stroke-width="5.151515151515151" style="stroke: rgb(105, 191, 143);"></path><path d="M5,319.5454545454547C213,319.5454545454547,213,304.3939393939393,421,304.3939393939393" stroke-width="5.151515151515151" style="stroke: rgb(105, 191, 143);"></path><path d="M5,329.84848484848493C213,329.84848484848493,213,406.21212121212125,421,406.21212121212125" stroke-width="5.151515151515151" style="stroke: rgb(105, 191, 143);"></path><path d="M5,350.1515151515153C213,350.1515151515153,213,161.36363636363618,421,161.36363636363618" stroke-width="15.454545454545453" style="stroke: rgb(105, 191, 159);"></path><path d="M5,192.2727272727273C213,192.2727272727273,213,472.27272727272737,421,472.27272727272737" stroke-width="5.151515151515151" style="stroke: rgb(105, 191, 175);"></path><path d="M5,184.5454545454546C213,184.5454545454546,213,388.48484848484844,421,388.48484848484844" stroke-width="10.303030303030303" style="stroke: rgb(105, 191, 175);"></path><path d="M5,171.66666666666669C213,171.66666666666669,213,33.18181818181818,421,33.18181818181818" stroke-width="15.454545454545453" style="stroke: rgb(105, 191, 175);"></path><path d="M5,375.6060606060606C213,375.6060606060606,213,334.99999999999994,421,334.99999999999994" stroke-width="5.151515151515151" style="stroke: rgb(105, 191, 191);"></path><path d="M5,370.4545454545455C213,370.4545454545455,213,309.54545454545445,421,309.54545454545445" stroke-width="5.151515151515151" style="stroke: rgb(105, 191, 191);"></path><path d="M5,380.75757575757575C213,380.75757575757575,213,411.3636363636364,421,411.3636363636364" stroke-width="5.151515151515151" style="stroke: rgb(105, 191, 191);"></path><path d="M426,248.33333333333331C634,248.33333333333331,634,457.2727272727272,842,457.2727272727272" stroke-width="5.151515151515151" style="stroke: rgb(105, 175, 191);"></path><path d="M426,243.18181818181816C634,243.18181818181816,634,416.6666666666666,842,416.6666666666666" stroke-width="5.151515151515151" style="stroke: rgb(105, 175, 191);"></path><path d="M426,227.7272727272727C634,227.7272727272727,634,227.5757575757575,842,227.5757575757575" stroke-width="5.151515151515151" style="stroke: rgb(105, 175, 191);"></path><path d="M426,238.030303030303C634,238.030303030303,634,391.2121212121211,842,391.2121212121211" stroke-width="5.151515151515151" style="stroke: rgb(105, 175, 191);"></path><path d="M426,232.87878787878785C634,232.87878787878785,634,319.6969696969696,842,319.6969696969696" stroke-width="5.151515151515151" style="stroke: rgb(105, 175, 191);"></path><path d="M426,222.57575757575754C634,222.57575757575754,634,99.39393939393939,842,99.39393939393939" stroke-width="5.151515151515151" style="stroke: rgb(105, 175, 191);"></path><path d="M426,487.4242424242425C634,487.4242424242425,634,462.4242424242423,842,462.4242424242423" stroke-width="5.151515151515151" style="stroke: rgb(105, 159, 191);"></path><path d="M426,301.8181818181818C634,301.8181818181818,634,240.4545454545454,842,240.4545454545454" stroke-width="20.606060606060606" style="stroke: rgb(105, 143, 191);"></path><path d="M426,40.90909090909091C634,40.90909090909091,634,65.9090909090909,842,65.9090909090909" stroke-width="61.81818181818181" style="stroke: rgb(105, 126, 191);"></path><path d="M426,363.03030303030306C634,363.03030303030306,634,286.5151515151514,842,286.5151515151514" stroke-width="20.606060606060606" style="stroke: rgb(105, 110, 191);"></path><path d="M426,186.81818181818187C634,186.81818181818187,634,268.4848484848484,842,268.4848484848484" stroke-width="15.454545454545453" style="stroke: rgb(116, 105, 191);"></path><path d="M426,202.27272727272734C634,202.27272727272734,634,436.96969696969694,842,436.96969696969694" stroke-width="15.454545454545453" style="stroke: rgb(116, 105, 191);"></path><path d="M426,271.2121212121211C634,271.2121212121211,634,158.33333333333331,842,158.33333333333331" stroke-width="20.606060606060606" style="stroke: rgb(132, 105, 191);"></path><path d="M426,332.42424242424244C634,332.42424242424244,634,352.87878787878776,842,352.87878787878776" stroke-width="20.606060606060606" style="stroke: rgb(148, 105, 191);"></path><path d="M426,89.54545454545448C634,89.54545454545448,634,129.99999999999997,842,129.99999999999997" stroke-width="15.454545454545453" style="stroke: rgb(164, 105, 191);"></path><path d="M426,104.99999999999994C634,104.99999999999994,634,217.2727272727272,842,217.2727272727272" stroke-width="15.454545454545453" style="stroke: rgb(164, 105, 191);"></path><path d="M426,120.45454545454538C634,120.45454545454538,634,380.9090909090908,842,380.9090909090908" stroke-width="15.454545454545453" style="stroke: rgb(164, 105, 191);"></path><path d="M426,163.93939393939377C634,163.93939393939377,634,408.9393939393938,842,408.9393939393938" stroke-width="10.303030303030303" style="stroke: rgb(180, 105, 191);"></path><path d="M426,143.33333333333314C634,143.33333333333314,634,142.87878787878785,842,142.87878787878785" stroke-width="10.303030303030303" style="stroke: rgb(180, 105, 191);"></path><path d="M426,153.63636363636346C634,153.63636363636346,634,311.9696969696968,842,311.9696969696968" stroke-width="10.303030303030303" style="stroke: rgb(180, 105, 191);"></path><path d="M426,429.0909090909092C634,429.0909090909092,634,173.78787878787875,842,173.78787878787875" stroke-width="10.303030303030303" style="stroke: rgb(191, 105, 185);"></path><path d="M426,449.3939393939395C634,449.3939393939395,634,184.09090909090907,842,184.09090909090907" stroke-width="10.303030303030303" style="stroke: rgb(191, 105, 169);"></path><path d="M426,469.6969696969698C634,469.6969696969698,634,194.39393939393938,842,194.39393939393938" stroke-width="10.303030303030303" style="stroke: rgb(191, 105, 153);"></path><path d="M426,408.7878787878788C634,408.7878787878788,634,327.42424242424227,842,327.42424242424227" stroke-width="10.303030303030303" style="stroke: rgb(191, 105, 137);"></path><path d="M426,388.48484848484844C634,388.48484848484844,634,107.12121212121212,842,107.12121212121212" stroke-width="10.303030303030303" style="stroke: rgb(191, 105, 121);"></path></g><g class="nodes" font-family="Arial, Helvetica" font-size="10"><g><rect x="842" y="342.57575757575745" height="20.606060606060623" width="5" fill="#000"></rect><text x="836" y="352.87878787878776" dy="0.35em" text-anchor="end">anti-virus</text></g><g><rect x="842" y="454.69696969696963" height="10.303030303030368" width="5" fill="#000"></rect><text x="836" y="459.8484848484848" dy="0.35em" text-anchor="end">binary file metadata</text></g><g><rect x="842" y="260.75757575757564" height="36.06060606060607" width="5" fill="#000"></rect><text x="836" y="278.7878787878787" dy="0.35em" text-anchor="end">dll monitoring</text></g><g><rect x="842" y="429.2424242424242" height="15.454545454545439" width="5" fill="#000"></rect><text x="836" y="436.9696969696969" dy="0.35em" text-anchor="end">loaded dlls</text></g><g><rect x="842" y="403.7878787878787" height="15.454545454545496" width="5" fill="#000"></rect><text x="836" y="411.51515151515144" dy="0.35em" text-anchor="end">malware reverse engineering</text></g><g><rect x="842" y="122.27272727272725" height="77.27272727272722" width="5" fill="#000"></rect><text x="836" y="160.90909090909088" dy="0.35em" text-anchor="end">netflow/enclave netflow</text></g><g><rect x="842" y="209.54545454545448" height="41.21212121212113" width="5" fill="#000"></rect><text x="836" y="230.15151515151504" dy="0.35em" text-anchor="end">network intrusion detection system</text></g><g><rect x="842" y="373.1818181818181" height="20.606060606060623" width="5" fill="#000"></rect><text x="836" y="383.4848484848484" dy="0.35em" text-anchor="end">network protocol analysis</text></g><g><rect x="842" y="306.8181818181817" height="25.75757575757575" width="5" fill="#000"></rect><text x="836" y="319.6969696969696" dy="0.35em" text-anchor="end">ssl/tls inspection</text></g><g><rect x="842" y="35" height="77.27272727272725" width="5" fill="#000"></rect><text x="836" y="73.63636363636363" dy="0.35em" text-anchor="end">windows event logs</text></g><g><rect x="0" y="61.51515151515159" height="41.21212121212136" width="5" fill="#000"></rect><text x="11" y="82.12121212121227" dy="0.35em" text-anchor="start">Antivirus/Antimalware</text></g><g><rect x="0" y="240.60606060606065" height="15.454545454545496" width="5" fill="#000"></rect><text x="11" y="248.3333333333334" dy="0.35em" text-anchor="start">Audit</text></g><g><rect x="0" y="454.24242424242425" height="10.303030303030269" width="5" fill="#000"></rect><text x="11" y="459.3939393939394" dy="0.35em" text-anchor="start">Behavior Prevention on Endpoint</text></g><g><rect x="0" y="474.5454545454545" height="10.30303030303024" width="5" fill="#000"></rect><text x="11" y="479.69696969696963" dy="0.35em" text-anchor="start">Code Signing</text></g><g><rect x="0" y="433.939393939394" height="10.303030303030283" width="5" fill="#000"></rect><text x="11" y="439.0909090909091" dy="0.35em" text-anchor="start">Disable or Remove Feature or Program</text></g><g><rect x="0" y="393.3333333333333" height="10.303030303030383" width="5" fill="#000"></rect><text x="11" y="398.4848484848485" dy="0.35em" text-anchor="start">Encrypt Sensitive Information</text></g><g><rect x="0" y="494.84848484848476" height="5.151515151515127" width="5" fill="#000"></rect><text x="11" y="497.4242424242423" dy="0.35em" text-anchor="start">Execution Prevention</text></g><g><rect x="0" y="266.0606060606061" height="15.454545454545496" width="5" fill="#000"></rect><text x="11" y="273.78787878787887" dy="0.35em" text-anchor="start">Filter Network Traffic</text></g><g><rect x="0" y="413.6363636363637" height="10.303030303030312" width="5" fill="#000"></rect><text x="11" y="418.78787878787887" dy="0.35em" text-anchor="start">Multi-factor Authentication</text></g><g><rect x="0" y="2.842170943040401e-14" height="51.51515151515156" width="5" fill="#000"></rect><text x="11" y="25.757575757575808" dy="0.35em" text-anchor="start">Network Intrusion Prevention</text></g><g><rect x="0" y="204.8484848484849" height="25.75757575757575" width="5" fill="#000"></rect><text x="11" y="217.72727272727278" dy="0.35em" text-anchor="start">Network Segmentation</text></g><g><rect x="0" y="291.5151515151516" height="15.454545454545496" width="5" fill="#000"></rect><text x="11" y="299.24242424242436" dy="0.35em" text-anchor="start">Operating System Configuration</text></g><g><rect x="0" y="112.72727272727295" height="41.21212121212102" width="5" fill="#000"></rect><text x="11" y="133.33333333333346" dy="0.35em" text-anchor="start">Privileged Account Management</text></g><g><rect x="0" y="316.9696969696971" height="15.454545454545439" width="5" fill="#000"></rect><text x="11" y="324.69696969696986" dy="0.35em" text-anchor="start">Restrict Web-Based Content</text></g><g><rect x="0" y="342.42424242424255" height="15.454545454545382" width="5" fill="#000"></rect><text x="11" y="350.15151515151524" dy="0.35em" text-anchor="start">SSL/TLS Inspection</text></g><g><rect x="0" y="163.93939393939397" height="30.909090909090935" width="5" fill="#000"></rect><text x="11" y="179.39393939393943" dy="0.35em" text-anchor="start">User Account Management</text></g><g><rect x="0" y="367.87878787878793" height="15.454545454545382" width="5" fill="#000"></rect><text x="11" y="375.6060606060606" dy="0.35em" text-anchor="start">User Training</text></g><g><rect x="421" y="423.93939393939405" height="10.303030303030312" width="5" fill="#000"></rect><text x="415" y="429.09090909090924" dy="0.35em" text-anchor="end">commonly used port</text></g><g><rect x="421" y="81.81818181818176" height="46.36363636363623" width="5" fill="#000"></rect><text x="415" y="104.99999999999987" dy="0.35em" text-anchor="end">custom command and control protocol</text></g><g><rect x="421" y="260.90909090909076" height="20.60606060606071" width="5" fill="#000"></rect><text x="415" y="271.21212121212113" dy="0.35em" text-anchor="end">network sniffing</text></g><g><rect x="421" y="383.3333333333333" height="10.303030303030368" width="5" fill="#000"></rect><text x="415" y="388.4848484848485" dy="0.35em" text-anchor="end">new service</text></g><g><rect x="421" y="219.99999999999997" height="30.909090909090764" width="5" fill="#000"></rect><text x="415" y="235.45454545454535" dy="0.35em" text-anchor="end">obfuscated files or information</text></g><g><rect x="421" y="179.09090909090915" height="30.90909090909082" width="5" fill="#000"></rect><text x="415" y="194.54545454545456" dy="0.35em" text-anchor="end">powershell</text></g><g><rect x="421" y="352.72727272727275" height="20.60606060606058" width="5" fill="#000"></rect><text x="415" y="363.03030303030306" dy="0.35em" text-anchor="end">process injection</text></g><g><rect x="421" y="10" height="61.818181818181756" width="5" fill="#000"></rect><text x="415" y="40.90909090909088" dy="0.35em" text-anchor="end">scheduled task</text></g><g><rect x="421" y="484.84848484848493" height="5.151515151515127" width="5" fill="#000"></rect><text x="415" y="487.4242424242425" dy="0.35em" text-anchor="end">software packing</text></g><g><rect x="421" y="291.5151515151515" height="20.606060606060623" width="5" fill="#000"></rect><text x="415" y="301.8181818181818" dy="0.35em" text-anchor="end">spearphishing attachment</text></g><g><rect x="421" y="403.6363636363637" height="10.303030303030368" width="5" fill="#000"></rect><text x="415" y="408.78787878787887" dy="0.35em" text-anchor="end">spearphishing link</text></g><g><rect x="421" y="138.181818181818" height="30.909090909091162" width="5" fill="#000"></rect><text x="415" y="153.63636363636357" dy="0.35em" text-anchor="end">standard cryptographic protocol</text></g><g><rect x="421" y="444.24242424242436" height="10.303030303030312" width="5" fill="#000"></rect><text x="415" y="449.3939393939395" dy="0.35em" text-anchor="end">uncommonly used port</text></g><g><rect x="421" y="322.1212121212121" height="20.606060606060623" width="5" fill="#000"></rect><text x="415" y="332.42424242424244" dy="0.35em" text-anchor="end">user execution</text></g><g><rect x="421" y="464.5454545454547" height="10.303030303030255" width="5" fill="#000"></rect><text x="415" y="469.6969696969698" dy="0.35em" text-anchor="end">windows management instrumentation</text></g></g></g></svg>