<svg width="847" height="520" xmlns="http://www.w3.org/2000/svg" version="1.1"><g transform="translate(0, 10)"><g class="links" fill="none" stroke-opacity="0.4"><path d="M5,107.99999999999997C213,107.99999999999997,213,289.0000000000001,421,289.0000000000001" stroke-width="176" style="stroke: rgb(191, 105, 105);"></path><path d="M5,367.3333333333335C213,367.3333333333335,213,470.3333333333333,421,470.3333333333333" stroke-width="29.333333333333332" style="stroke: rgb(191, 179, 105);"></path><path d="M5,323.3333333333334C213,323.3333333333334,213,416.3333333333332,421,416.3333333333332" stroke-width="58.666666666666664" style="stroke: rgb(191, 179, 105);"></path><path d="M5,250.00000000000014C213,250.00000000000014,213,59.00000000000006,421,59.00000000000006" stroke-width="88" style="stroke: rgb(191, 179, 105);"></path><path d="M5,436.00000000000006C213,436.00000000000006,213,147.00000000000006,421,147.00000000000006" stroke-width="88" style="stroke: rgb(130, 191, 105);"></path><path d="M426,274.3333333333334C634,274.3333333333334,634,338.00000000000006,842,338.00000000000006" stroke-width="29.333333333333332" style="stroke: rgb(105, 191, 154);"></path><path d="M426,215.66666666666674C634,215.66666666666674,634,73.33333333333339,842,73.33333333333339" stroke-width="29.333333333333332" style="stroke: rgb(105, 191, 154);"></path><path d="M426,303.66666666666674C634,303.66666666666674,634,406.6666666666667,842,406.6666666666667" stroke-width="29.333333333333332" style="stroke: rgb(105, 191, 154);"></path><path d="M426,333.00000000000006C634,333.00000000000006,634,446.00000000000006,842,446.00000000000006" stroke-width="29.333333333333332" style="stroke: rgb(105, 191, 154);"></path><path d="M426,245.00000000000009C634,245.00000000000009,634,200.66666666666669,842,200.66666666666669" stroke-width="29.333333333333332" style="stroke: rgb(105, 191, 154);"></path><path d="M426,362.33333333333337C634,362.33333333333337,634,485.3333333333333,842,485.3333333333333" stroke-width="29.333333333333332" style="stroke: rgb(105, 191, 154);"></path><path d="M426,470.3333333333333C634,470.3333333333333,634,367.33333333333337,842,367.33333333333337" stroke-width="29.333333333333332" style="stroke: rgb(105, 154, 191);"></path><path d="M426,401.6666666666666C634,401.6666666666666,634,102.66666666666673,842,102.66666666666673" stroke-width="29.333333333333332" style="stroke: rgb(130, 105, 191);"></path><path d="M426,430.9999999999999C634,430.9999999999999,634,298.66666666666686,842,298.66666666666686" stroke-width="29.333333333333332" style="stroke: rgb(130, 105, 191);"></path><path d="M426,44.333333333333385C634,44.333333333333385,634,29.33333333333339,842,29.33333333333339" stroke-width="58.666666666666664" style="stroke: rgb(191, 105, 179);"></path><path d="M426,161.6666666666667C634,161.6666666666667,634,254.66666666666683,842,254.66666666666683" stroke-width="58.666666666666664" style="stroke: rgb(191, 105, 179);"></path><path d="M426,103.00000000000004C634,103.00000000000004,634,156.6666666666667,842,156.6666666666667" stroke-width="58.666666666666664" style="stroke: rgb(191, 105, 179);"></path></g><g class="nodes" font-family="Arial, Helvetica" font-size="10"><g><rect x="842" y="323.33333333333337" height="58.66666666666663" width="5" fill="#000"></rect><text x="836" y="352.6666666666667" dy="0.35em" text-anchor="end">binary file metadata</text></g><g><rect x="842" y="5.684341886080802e-14" height="117.33333333333331" width="5" fill="#000"></rect><text x="836" y="58.666666666666714" dy="0.35em" text-anchor="end">malware reverse engineering</text></g><g><rect x="842" y="225.33333333333348" height="87.99999999999991" width="5" fill="#000"></rect><text x="836" y="269.3333333333334" dy="0.35em" text-anchor="end">netflow/enclave netflow</text></g><g><rect x="842" y="392" height="29.33333333333337" width="5" fill="#000"></rect><text x="836" y="406.6666666666667" dy="0.35em" text-anchor="end">network intrusion detection system</text></g><g><rect x="842" y="431.33333333333337" height="29.333333333333258" width="5" fill="#000"></rect><text x="836" y="446" dy="0.35em" text-anchor="end">network protocol analysis</text></g><g><rect x="842" y="127.33333333333337" height="88.00000000000011" width="5" fill="#000"></rect><text x="836" y="171.33333333333343" dy="0.35em" text-anchor="end">ssl/tls inspection</text></g><g><rect x="842" y="470.66666666666663" height="29.333333333333258" width="5" fill="#000"></rect><text x="836" y="485.33333333333326" dy="0.35em" text-anchor="end">windows event logs</text></g><g><rect x="0" y="19.99999999999997" height="176.00000000000017" width="5" fill="#000"></rect><text x="11" y="108.00000000000006" dy="0.35em" text-anchor="start">Antivirus/Antimalware</text></g><g><rect x="0" y="206.00000000000014" height="175.99999999999991" width="5" fill="#000"></rect><text x="11" y="294.0000000000001" dy="0.35em" text-anchor="start">Network Intrusion Prevention</text></g><g><rect x="0" y="392.00000000000006" height="87.99999999999994" width="5" fill="#000"></rect><text x="11" y="436" dy="0.35em" text-anchor="start">SSL/TLS Inspection</text></g><g><rect x="421" y="455.66666666666663" height="29.333333333333314" width="5" fill="#000"></rect><text x="415" y="470.33333333333326" dy="0.35em" text-anchor="end">data compressed</text></g><g><rect x="421" y="201.00000000000009" height="175.99999999999983" width="5" fill="#000"></rect><text x="415" y="289" dy="0.35em" text-anchor="end">obfuscated files or information</text></g><g><rect x="421" y="386.9999999999999" height="58.666666666666714" width="5" fill="#000"></rect><text x="415" y="416.33333333333326" dy="0.35em" text-anchor="end">standard application layer protocol</text></g><g><rect x="421" y="15.000000000000057" height="176.00000000000003" width="5" fill="#000"></rect><text x="415" y="103.00000000000007" dy="0.35em" text-anchor="end">standard cryptographic protocol</text></g></g></g></svg>