<svg width="847" height="520" xmlns="http://www.w3.org/2000/svg" version="1.1"><g transform="translate(0, 10)"><g class="links" fill="none" stroke-opacity="0.4"><path d="M5,435.00000000000006C213,435.00000000000006,213,341.66666666666634,421,341.66666666666634" stroke-width="36.666666666666664" style="stroke: rgb(191, 105, 105);"></path><path d="M5,379.16666666666686C213,379.16666666666686,213,202.50000000000006,421,202.50000000000006" stroke-width="55" style="stroke: rgb(191, 148, 105);"></path><path d="M5,481.6666666666667C213,481.6666666666667,213,378.33333333333303,421,378.33333333333303" stroke-width="36.666666666666664" style="stroke: rgb(191, 191, 105);"></path><path d="M5,91.66666666666674C213,91.66666666666674,213,471.66666666666646,421,471.66666666666646" stroke-width="36.666666666666664" style="stroke: rgb(148, 191, 105);"></path><path d="M5,36.66666666666675C213,36.66666666666675,213,276.6666666666664,421,276.6666666666664" stroke-width="73.33333333333333" style="stroke: rgb(148, 191, 105);"></path><path d="M5,314.1666666666668C213,314.1666666666668,213,147.50000000000006,421,147.50000000000006" stroke-width="55" style="stroke: rgb(105, 191, 105);"></path><path d="M5,184.16666666666677C213,184.16666666666677,213,415.833333333333,421,415.833333333333" stroke-width="18.333333333333332" style="stroke: rgb(105, 191, 148);"></path><path d="M5,147.5000000000001C213,147.5000000000001,213,37.50000000000006,421,37.50000000000006" stroke-width="55" style="stroke: rgb(105, 191, 148);"></path><path d="M5,267.50000000000017C213,267.50000000000017,213,434.1666666666663,421,434.1666666666663" stroke-width="18.333333333333332" style="stroke: rgb(105, 191, 191);"></path><path d="M5,230.83333333333348C213,230.83333333333348,213,92.50000000000006,421,92.50000000000006" stroke-width="55" style="stroke: rgb(105, 191, 191);"></path><path d="M426,341.66666666666634C634,341.66666666666634,634,401.6666666666668,842,401.6666666666668" stroke-width="36.666666666666664" style="stroke: rgb(105, 148, 191);"></path><path d="M426,378.33333333333303C634,378.33333333333303,634,448.3333333333334,842,448.3333333333334" stroke-width="36.666666666666664" style="stroke: rgb(105, 148, 191);"></path><path d="M426,120.00000000000006C634,120.00000000000006,634,114.99999999999997,842,114.99999999999997" stroke-width="220" style="stroke: rgb(105, 105, 191);"></path><path d="M426,480.83333333333314C634,480.83333333333314,634,485.8333333333334,842,485.8333333333334" stroke-width="18.333333333333332" style="stroke: rgb(148, 105, 191);"></path><path d="M426,462.49999999999983C634,462.49999999999983,634,317.50000000000017,842,317.50000000000017" stroke-width="18.333333333333332" style="stroke: rgb(148, 105, 191);"></path><path d="M426,258.33333333333303C634,258.33333333333303,634,253.33333333333348,842,253.33333333333348" stroke-width="36.666666666666664" style="stroke: rgb(191, 105, 191);"></path><path d="M426,294.9999999999997C634,294.9999999999997,634,355.0000000000001,842,355.0000000000001" stroke-width="36.666666666666664" style="stroke: rgb(191, 105, 191);"></path><path d="M426,424.9999999999996C634,424.9999999999996,634,290.0000000000001,842,290.0000000000001" stroke-width="36.666666666666664" style="stroke: rgb(191, 105, 148);"></path></g><g class="nodes" font-family="Arial, Helvetica" font-size="10"><g><rect x="842" y="383.3333333333335" height="36.66666666666663" width="5" fill="#000"></rect><text x="836" y="401.6666666666668" dy="0.35em" text-anchor="end">anti-virus</text></g><g><rect x="842" y="476.66666666666674" height="18.333333333333357" width="5" fill="#000"></rect><text x="836" y="485.8333333333334" dy="0.35em" text-anchor="end">malware reverse engineering</text></g><g><rect x="842" y="235.00000000000014" height="91.66666666666666" width="5" fill="#000"></rect><text x="836" y="280.8333333333335" dy="0.35em" text-anchor="end">netflow/enclave netflow</text></g><g><rect x="842" y="336.6666666666668" height="36.66666666666666" width="5" fill="#000"></rect><text x="836" y="355.0000000000001" dy="0.35em" text-anchor="end">network protocol analysis</text></g><g><rect x="842" y="430.0000000000001" height="36.66666666666663" width="5" fill="#000"></rect><text x="836" y="448.3333333333334" dy="0.35em" text-anchor="end">system calls</text></g><g><rect x="842" y="4.999999999999972" height="220.00000000000017" width="5" fill="#000"></rect><text x="836" y="115.00000000000006" dy="0.35em" text-anchor="end">windows event logs</text></g><g><rect x="0" y="416.66666666666674" height="36.66666666666663" width="5" fill="#000"></rect><text x="11" y="435.00000000000006" dy="0.35em" text-anchor="start">Application Isolation and Sandboxing</text></g><g><rect x="0" y="351.66666666666686" height="54.999999999999886" width="5" fill="#000"></rect><text x="11" y="379.1666666666668" dy="0.35em" text-anchor="start">Audit</text></g><g><rect x="0" y="463.33333333333337" height="36.66666666666654" width="5" fill="#000"></rect><text x="11" y="481.66666666666663" dy="0.35em" text-anchor="start">Exploit Protection</text></g><g><rect x="0" y="8.526512829121202e-14" height="110.00000000000003" width="5" fill="#000"></rect><text x="11" y="55.0000000000001" dy="0.35em" text-anchor="start">Network Intrusion Prevention</text></g><g><rect x="0" y="286.6666666666668" height="55.00000000000006" width="5" fill="#000"></rect><text x="11" y="314.16666666666686" dy="0.35em" text-anchor="start">Operating System Configuration</text></g><g><rect x="0" y="120.00000000000011" height="73.33333333333337" width="5" fill="#000"></rect><text x="11" y="156.6666666666668" dy="0.35em" text-anchor="start">Privileged Account Management</text></g><g><rect x="0" y="203.33333333333348" height="73.33333333333331" width="5" fill="#000"></rect><text x="11" y="240.00000000000014" dy="0.35em" text-anchor="start">User Account Management</text></g><g><rect x="421" y="323.33333333333303" height="73.33333333333329" width="5" fill="#000"></rect><text x="415" y="359.99999999999966" dy="0.35em" text-anchor="end">exploitation for client execution</text></g><g><rect x="421" y="239.99999999999972" height="73.33333333333333" width="5" fill="#000"></rect><text x="415" y="276.6666666666664" dy="0.35em" text-anchor="end">remote file copy</text></g><g><rect x="421" y="10.000000000000057" height="219.99999999999966" width="5" fill="#000"></rect><text x="415" y="119.99999999999989" dy="0.35em" text-anchor="end">scheduled task</text></g><g><rect x="421" y="453.33333333333314" height="36.6666666666668" width="5" fill="#000"></rect><text x="415" y="471.6666666666665" dy="0.35em" text-anchor="end">standard application layer protocol</text></g><g><rect x="421" y="406.6666666666663" height="36.66666666666683" width="5" fill="#000"></rect><text x="415" y="424.9999999999997" dy="0.35em" text-anchor="end">windows management instrumentation</text></g></g></g></svg>