<svg width="847" height="520" xmlns="http://www.w3.org/2000/svg" version="1.1"><g transform="translate(0, 10)"><g class="links" fill="none" stroke-opacity="0.4"><path d="M5,134.99999999999991C213,134.99999999999991,213,129.99999999999972,421,129.99999999999972" stroke-width="220" style="stroke: rgb(191, 105, 105);"></path><path d="M5,438.33333333333337C213,438.33333333333337,213,443.33333333333354,421,443.33333333333354" stroke-width="73.33333333333333" style="stroke: rgb(174, 191, 105);"></path><path d="M5,328.33333333333337C213,328.33333333333337,213,323.3333333333335,421,323.3333333333335" stroke-width="146.66666666666666" style="stroke: rgb(174, 191, 105);"></path><path d="M426,184.99999999999972C634,184.99999999999972,634,435.0000000000001,842,435.0000000000001" stroke-width="36.666666666666664" style="stroke: rgb(105, 191, 139);"></path><path d="M426,74.99999999999972C634,74.99999999999972,634,258.33333333333337,842,258.33333333333337" stroke-width="36.666666666666664" style="stroke: rgb(105, 191, 139);"></path><path d="M426,221.66666666666637C634,221.66666666666637,634,481.66666666666674,842,481.66666666666674" stroke-width="36.666666666666664" style="stroke: rgb(105, 191, 139);"></path><path d="M426,38.333333333333044C634,38.333333333333044,634,18.333333333333247,842,18.333333333333247" stroke-width="36.666666666666664" style="stroke: rgb(105, 191, 139);"></path><path d="M426,111.66666666666637C634,111.66666666666637,634,341.66666666666663,842,341.66666666666663" stroke-width="36.666666666666664" style="stroke: rgb(105, 191, 139);"></path><path d="M426,148.33333333333306C634,148.33333333333306,634,388.33333333333337,842,388.33333333333337" stroke-width="36.666666666666664" style="stroke: rgb(105, 191, 139);"></path><path d="M426,461.66666666666686C634,461.66666666666686,634,295.00000000000006,842,295.00000000000006" stroke-width="36.666666666666664" style="stroke: rgb(105, 139, 191);"></path><path d="M426,425.00000000000017C634,425.00000000000017,634,211.66666666666677,842,211.66666666666677" stroke-width="36.666666666666664" style="stroke: rgb(105, 139, 191);"></path><path d="M426,360.00000000000017C634,360.00000000000017,634,156.66666666666674,842,156.66666666666674" stroke-width="73.33333333333333" style="stroke: rgb(174, 105, 191);"></path><path d="M426,286.66666666666686C634,286.66666666666686,634,73.33333333333324,842,73.33333333333324" stroke-width="73.33333333333333" style="stroke: rgb(174, 105, 191);"></path></g><g class="nodes" font-family="Arial, Helvetica" font-size="10"><g><rect x="842" y="416.6666666666668" height="36.66666666666663" width="5" fill="#000"></rect><text x="836" y="435.0000000000001" dy="0.35em" text-anchor="end">binary file metadata</text></g><g><rect x="842" y="240.00000000000006" height="73.33333333333326" width="5" fill="#000"></rect><text x="836" y="276.6666666666667" dy="0.35em" text-anchor="end">malware reverse engineering</text></g><g><rect x="842" y="120.00000000000009" height="109.99999999999997" width="5" fill="#000"></rect><text x="836" y="175.00000000000006" dy="0.35em" text-anchor="end">netflow/enclave netflow</text></g><g><rect x="842" y="463.3333333333334" height="36.66666666666663" width="5" fill="#000"></rect><text x="836" y="481.66666666666674" dy="0.35em" text-anchor="end">network intrusion detection system</text></g><g><rect x="842" y="-8.526512829121202e-14" height="110.00000000000017" width="5" fill="#000"></rect><text x="836" y="55" dy="0.35em" text-anchor="end">network protocol analysis</text></g><g><rect x="842" y="323.3333333333333" height="36.66666666666674" width="5" fill="#000"></rect><text x="836" y="341.6666666666667" dy="0.35em" text-anchor="end">ssl/tls inspection</text></g><g><rect x="842" y="370.00000000000006" height="36.66666666666674" width="5" fill="#000"></rect><text x="836" y="388.3333333333334" dy="0.35em" text-anchor="end">windows event logs</text></g><g><rect x="0" y="24.999999999999915" height="220.0000000000001" width="5" fill="#000"></rect><text x="11" y="134.99999999999997" dy="0.35em" text-anchor="start">Antivirus/Antimalware</text></g><g><rect x="0" y="255.00000000000003" height="220.00000000000006" width="5" fill="#000"></rect><text x="11" y="365.00000000000006" dy="0.35em" text-anchor="start">Network Intrusion Prevention</text></g><g><rect x="421" y="19.999999999999716" height="220.00000000000045" width="5" fill="#000"></rect><text x="415" y="129.99999999999994" dy="0.35em" text-anchor="end">obfuscated files or information</text></g><g><rect x="421" y="250.00000000000017" height="146.66666666666669" width="5" fill="#000"></rect><text x="415" y="323.3333333333335" dy="0.35em" text-anchor="end">remote file copy</text></g><g><rect x="421" y="406.66666666666686" height="73.33333333333343" width="5" fill="#000"></rect><text x="415" y="443.3333333333336" dy="0.35em" text-anchor="end">standard application layer protocol</text></g></g></g></svg>