<svg width="847" height="520" xmlns="http://www.w3.org/2000/svg" version="1.1"><g transform="translate(0, 10)"><g class="links" fill="none" stroke-opacity="0.4"><path d="M5,467.8571428571431C213,467.8571428571431,213,170.7142857142856,421,170.7142857142856" stroke-width="64.28571428571429" style="stroke: rgb(191, 105, 105);"></path><path d="M5,170.7142857142856C213,170.7142857142856,213,42.14285714285703,421,42.14285714285703" stroke-width="64.28571428571429" style="stroke: rgb(191, 156, 105);"></path><path d="M5,319.2857142857145C213,319.2857142857145,213,457.85714285714283,421,457.85714285714283" stroke-width="64.28571428571429" style="stroke: rgb(174, 191, 105);"></path><path d="M5,245.00000000000006C213,245.00000000000006,213,106.42857142857133,421,106.42857142857133" stroke-width="64.28571428571429" style="stroke: rgb(122, 191, 105);"></path><path d="M5,393.57142857142884C213,393.57142857142884,213,383.5714285714284,421,383.5714285714284" stroke-width="64.28571428571429" style="stroke: rgb(105, 191, 139);"></path><path d="M5,64.28571428571409C213,64.28571428571409,213,277.14285714285694,421,277.14285714285694" stroke-width="128.57142857142858" style="stroke: rgb(105, 191, 191);"></path><path d="M426,106.42857142857133C634,106.42857142857133,634,116.42857142857147,842,116.42857142857147" stroke-width="192.8571428571429" style="stroke: rgb(105, 139, 191);"></path><path d="M426,457.85714285714283C634,457.85714285714283,634,245.00000000000006,842,245.00000000000006" stroke-width="64.28571428571429" style="stroke: rgb(122, 105, 191);"></path><path d="M426,383.5714285714284C634,383.5714285714284,634,447.85714285714283,842,447.85714285714283" stroke-width="64.28571428571429" style="stroke: rgb(174, 105, 191);"></path><path d="M426,277.14285714285694C634,277.14285714285694,634,351.4285714285714,842,351.4285714285714" stroke-width="128.57142857142858" style="stroke: rgb(191, 105, 156);"></path></g><g class="nodes" font-family="Arial, Helvetica" font-size="10"><g><rect x="842" y="20.00000000000003" height="257.14285714285705" width="5" fill="#000"></rect><text x="836" y="148.57142857142856" dy="0.35em" text-anchor="end">binary file metadata</text></g><g><rect x="842" y="287.1428571428571" height="192.8571428571429" width="5" fill="#000"></rect><text x="836" y="383.57142857142856" dy="0.35em" text-anchor="end">windows event logs</text></g><g><rect x="0" y="435.71428571428595" height="64.28571428571425" width="5" fill="#000"></rect><text x="11" y="467.85714285714306" dy="0.35em" text-anchor="start">Code Signing</text></g><g><rect x="0" y="138.57142857142847" height="64.28571428571445" width="5" fill="#000"></rect><text x="11" y="170.7142857142857" dy="0.35em" text-anchor="start">Execution Prevention</text></g><g><rect x="0" y="287.14285714285734" height="64.28571428571436" width="5" fill="#000"></rect><text x="11" y="319.2857142857145" dy="0.35em" text-anchor="start">Network Intrusion Prevention</text></g><g><rect x="0" y="212.85714285714292" height="64.28571428571439" width="5" fill="#000"></rect><text x="11" y="245.0000000000001" dy="0.35em" text-anchor="start">Restrict File and Directory Permissions</text></g><g><rect x="0" y="361.4285714285717" height="64.28571428571428" width="5" fill="#000"></rect><text x="11" y="393.5714285714288" dy="0.35em" text-anchor="start">Restrict Registry Permissions</text></g><g><rect x="0" y="-1.9895196601282805e-13" height="128.57142857142867" width="5" fill="#000"></rect><text x="11" y="64.28571428571414" dy="0.35em" text-anchor="start">User Account Management</text></g><g><rect x="421" y="425.71428571428567" height="64.28571428571442" width="5" fill="#000"></rect><text x="415" y="457.8571428571429" dy="0.35em" text-anchor="end">data compressed</text></g><g><rect x="421" y="9.999999999999886" height="192.85714285714278" width="5" fill="#000"></rect><text x="415" y="106.42857142857127" dy="0.35em" text-anchor="end">masquerading</text></g><g><rect x="421" y="351.4285714285712" height="64.28571428571445" width="5" fill="#000"></rect><text x="415" y="383.57142857142844" dy="0.35em" text-anchor="end">modify registry</text></g><g><rect x="421" y="212.85714285714266" height="128.57142857142856" width="5" fill="#000"></rect><text x="415" y="277.14285714285694" dy="0.35em" text-anchor="end">new service</text></g></g></g></svg>