<svg width="847" height="520" xmlns="http://www.w3.org/2000/svg" version="1.1"><g transform="translate(0, 10)"><g class="links" fill="none" stroke-opacity="0.4"><path d="M5,266.36363636363666C213,266.36363636363666,213,404.5454545454546,421,404.5454545454546" stroke-width="85.45454545454545" style="stroke: rgb(191, 105, 105);"></path><path d="M5,180.90909090909116C213,180.90909090909116,213,309.0909090909091,421,309.0909090909091" stroke-width="85.45454545454545" style="stroke: rgb(191, 105, 105);"></path><path d="M5,74.09090909090935C213,74.09090909090935,213,64.09090909090901,421,64.09090909090901" stroke-width="128.1818181818182" style="stroke: rgb(191, 105, 105);"></path><path d="M5,330.4545454545457C213,330.4545454545457,213,478.6363636363637,421,478.6363636363637" stroke-width="42.72727272727273" style="stroke: rgb(191, 105, 105);"></path><path d="M5,425.9090909090912C213,425.9090909090912,213,192.2727272727272,421,192.2727272727272" stroke-width="128.1818181818182" style="stroke: rgb(191, 191, 105);"></path><path d="M426,425.909090909091C634,425.909090909091,634,330.45454545454544,842,330.45454545454544" stroke-width="42.72727272727273" style="stroke: rgb(105, 191, 105);"></path><path d="M426,383.18181818181824C634,383.18181818181824,634,149.54545454545445,842,149.54545454545445" stroke-width="42.72727272727273" style="stroke: rgb(105, 191, 105);"></path><path d="M426,330.4545454545455C634,330.4545454545455,634,287.7272727272727,842,287.7272727272727" stroke-width="42.72727272727273" style="stroke: rgb(105, 191, 191);"></path><path d="M426,287.72727272727275C634,287.72727272727275,634,106.8181818181817,842,106.8181818181817" stroke-width="42.72727272727273" style="stroke: rgb(105, 191, 191);"></path><path d="M426,128.1818181818181C634,128.1818181818181,634,223.6363636363636,842,223.6363636363636" stroke-width="85.45454545454545" style="stroke: rgb(105, 105, 191);"></path><path d="M426,42.72727272727264C634,42.72727272727264,634,42.72727272727261,842,42.72727272727261" stroke-width="85.45454545454545" style="stroke: rgb(105, 105, 191);"></path><path d="M426,213.63636363636354C634,213.63636363636354,634,404.5454545454546,842,404.5454545454546" stroke-width="85.45454545454545" style="stroke: rgb(105, 105, 191);"></path><path d="M426,478.6363636363637C634,478.6363636363637,634,478.63636363636374,842,478.63636363636374" stroke-width="42.72727272727273" style="stroke: rgb(191, 105, 191);"></path></g><g class="nodes" font-family="Arial, Helvetica" font-size="10"><g><rect x="842" y="180.90909090909088" height="170.90909090909096" width="5" fill="#000"></rect><text x="836" y="266.3636363636364" dy="0.35em" text-anchor="end">malware reverse engineering</text></g><g><rect x="842" y="-1.1368683772161603e-13" height="170.909090909091" width="5" fill="#000"></rect><text x="836" y="85.45454545454538" dy="0.35em" text-anchor="end">netflow/enclave netflow</text></g><g><rect x="842" y="457.27272727272737" height="42.72727272727275" width="5" fill="#000"></rect><text x="836" y="478.63636363636374" dy="0.35em" text-anchor="end">network protocol analysis</text></g><g><rect x="842" y="361.81818181818187" height="85.4545454545455" width="5" fill="#000"></rect><text x="836" y="404.5454545454546" dy="0.35em" text-anchor="end">ssl/tls inspection</text></g><g><rect x="0" y="10.000000000000256" height="341.81818181818187" width="5" fill="#000"></rect><text x="11" y="180.9090909090912" dy="0.35em" text-anchor="start">Network Intrusion Prevention</text></g><g><rect x="0" y="361.8181818181821" height="128.18181818181762" width="5" fill="#000"></rect><text x="11" y="425.9090909090909" dy="0.35em" text-anchor="start">SSL/TLS Inspection</text></g><g><rect x="421" y="361.81818181818187" height="85.45454545454544" width="5" fill="#000"></rect><text x="415" y="404.5454545454546" dy="0.35em" text-anchor="end">custom cryptographic protocol</text></g><g><rect x="421" y="457.2727272727273" height="42.72727272727275" width="5" fill="#000"></rect><text x="415" y="478.6363636363637" dy="0.35em" text-anchor="end">data obfuscation</text></g><g><rect x="421" y="266.3636363636364" height="85.4545454545455" width="5" fill="#000"></rect><text x="415" y="309.0909090909091" dy="0.35em" text-anchor="end">standard application layer protocol</text></g><g><rect x="421" y="-8.526512829121202e-14" height="256.3636363636365" width="5" fill="#000"></rect><text x="415" y="128.18181818181816" dy="0.35em" text-anchor="end">standard cryptographic protocol</text></g></g></g></svg>