<svg width="847" height="520" xmlns="http://www.w3.org/2000/svg" version="1.1"><g transform="translate(0, 10)"><g class="links" fill="none" stroke-opacity="0.4"><path d="M5,486.47058823529403C213,486.47058823529403,213,358.2352941176472,421,358.2352941176472" stroke-width="27.058823529411764" style="stroke: rgb(191, 105, 105);"></path><path d="M5,412.3529411764705C213,412.3529411764705,213,304.11764705882365,421,304.11764705882365" stroke-width="27.058823529411764" style="stroke: rgb(191, 156, 105);"></path><path d="M5,216.4705882352942C213,216.4705882352942,213,408.82352941176487,421,408.82352941176487" stroke-width="54.11764705882353" style="stroke: rgb(174, 191, 105);"></path><path d="M5,270.58823529411774C213,270.58823529411774,213,472.94117647058846,421,472.94117647058846" stroke-width="54.11764705882353" style="stroke: rgb(174, 191, 105);"></path><path d="M5,40.58823529411773C213,40.58823529411773,213,40.58823529411767,421,40.58823529411767" stroke-width="81.17647058823529" style="stroke: rgb(174, 191, 105);"></path><path d="M5,135.2941176470589C213,135.2941176470589,213,226.47058823529406,421,226.47058823529406" stroke-width="108.23529411764706" style="stroke: rgb(174, 191, 105);"></path><path d="M5,449.41176470588226C213,449.41176470588226,213,331.1764705882354,421,331.1764705882354" stroke-width="27.058823529411764" style="stroke: rgb(122, 191, 105);"></path><path d="M5,348.2352941176469C213,348.2352941176469,213,121.76470588235296,421,121.76470588235296" stroke-width="81.17647058823529" style="stroke: rgb(105, 191, 139);"></path><path d="M426,331.1764705882354C634,331.1764705882354,634,331.17647058823553,842,331.17647058823553" stroke-width="81.17647058823529" style="stroke: rgb(105, 191, 191);"></path><path d="M426,422.3529411764707C634,422.3529411764707,634,239.99999999999994,842,239.99999999999994" stroke-width="27.058823529411764" style="stroke: rgb(105, 139, 191);"></path><path d="M426,395.29411764705895C634,395.29411764705895,634,121.7647058823528,842,121.7647058823528" stroke-width="27.058823529411764" style="stroke: rgb(105, 139, 191);"></path><path d="M426,486.4705882352943C634,486.4705882352943,634,267.0588235294117,842,267.0588235294117" stroke-width="27.058823529411764" style="stroke: rgb(122, 105, 191);"></path><path d="M426,459.41176470588255C634,459.41176470588255,634,148.82352941176455,842,148.82352941176455" stroke-width="27.058823529411764" style="stroke: rgb(122, 105, 191);"></path><path d="M426,81.17647058823532C634,81.17647058823532,634,199.4117647058823,842,199.4117647058823" stroke-width="54.11764705882353" style="stroke: rgb(174, 105, 191);"></path><path d="M426,27.058823529411793C634,27.058823529411793,634,27.058823529411622,842,27.058823529411622" stroke-width="54.11764705882353" style="stroke: rgb(174, 105, 191);"></path><path d="M426,135.29411764705884C634,135.29411764705884,634,408.823529411765,842,408.823529411765" stroke-width="54.11764705882353" style="stroke: rgb(174, 105, 191);"></path><path d="M426,199.4117647058823C634,199.4117647058823,634,81.17647058823515,842,81.17647058823515" stroke-width="54.11764705882353" style="stroke: rgb(191, 105, 156);"></path><path d="M426,253.52941176470583C634,253.52941176470583,634,472.9411764705885,842,472.9411764705885" stroke-width="54.11764705882353" style="stroke: rgb(191, 105, 156);"></path></g><g class="nodes" font-family="Arial, Helvetica" font-size="10"><g><rect x="842" y="290.5882352941179" height="81.1764705882353" width="5" fill="#000"></rect><text x="836" y="331.1764705882356" dy="0.35em" text-anchor="end">binary file metadata</text></g><g><rect x="842" y="172.35294117647052" height="108.23529411764736" width="5" fill="#000"></rect><text x="836" y="226.4705882352942" dy="0.35em" text-anchor="end">malware reverse engineering</text></g><g><rect x="842" y="-1.4210854715202004e-13" height="162.35294117647067" width="5" fill="#000"></rect><text x="836" y="81.17647058823519" dy="0.35em" text-anchor="end">netflow/enclave netflow</text></g><g><rect x="842" y="445.88235294117675" height="54.11764705882342" width="5" fill="#000"></rect><text x="836" y="472.94117647058846" dy="0.35em" text-anchor="end">network protocol analysis</text></g><g><rect x="842" y="381.7647058823532" height="54.117647058823536" width="5" fill="#000"></rect><text x="836" y="408.823529411765" dy="0.35em" text-anchor="end">ssl/tls inspection</text></g><g><rect x="0" y="472.9411764705882" height="27.05882352941175" width="5" fill="#000"></rect><text x="11" y="486.47058823529403" dy="0.35em" text-anchor="start">Code Signing</text></g><g><rect x="0" y="398.82352941176464" height="27.058823529411768" width="5" fill="#000"></rect><text x="11" y="412.3529411764705" dy="0.35em" text-anchor="start">Execution Prevention</text></g><g><rect x="0" y="8.526512829121202e-14" height="297.64705882352916" width="5" fill="#000"></rect><text x="11" y="148.82352941176467" dy="0.35em" text-anchor="start">Network Intrusion Prevention</text></g><g><rect x="0" y="435.8823529411764" height="27.058823529411754" width="5" fill="#000"></rect><text x="11" y="449.41176470588226" dy="0.35em" text-anchor="start">Restrict File and Directory Permissions</text></g><g><rect x="0" y="307.6470588235293" height="81.17647058823536" width="5" fill="#000"></rect><text x="11" y="348.23529411764696" dy="0.35em" text-anchor="start">SSL/TLS Inspection</text></g><g><rect x="421" y="381.7647058823531" height="54.11764705882359" width="5" fill="#000"></rect><text x="415" y="408.82352941176487" dy="0.35em" text-anchor="end">custom cryptographic protocol</text></g><g><rect x="421" y="290.5882352941178" height="81.1764705882353" width="5" fill="#000"></rect><text x="415" y="331.1764705882355" dy="0.35em" text-anchor="end">masquerading</text></g><g><rect x="421" y="172.35294117647052" height="108.23529411764727" width="5" fill="#000"></rect><text x="415" y="226.47058823529414" dy="0.35em" text-anchor="end">remote file copy</text></g><g><rect x="421" y="445.8823529411767" height="54.11764705882325" width="5" fill="#000"></rect><text x="415" y="472.9411764705883" dy="0.35em" text-anchor="end">standard application layer protocol</text></g><g><rect x="421" y="2.842170943040401e-14" height="162.3529411764705" width="5" fill="#000"></rect><text x="415" y="81.17647058823528" dy="0.35em" text-anchor="end">standard cryptographic protocol</text></g></g></g></svg>