<svg width="847" height="520" xmlns="http://www.w3.org/2000/svg" version="1.1"><g transform="translate(0, 10)"><g class="links" fill="none" stroke-opacity="0.4"><path d="M5,241.57894736842127C213,241.57894736842127,213,69.4736842105262,421,69.4736842105262" stroke-width="138.94736842105263" style="stroke: rgb(191, 105, 105);"></path><path d="M5,344.2105263157895C213,344.2105263157895,213,331.0526315789475,421,331.0526315789475" stroke-width="46.31578947368421" style="stroke: rgb(191, 142, 105);"></path><path d="M5,115.78947368421056C213,115.78947368421056,213,274.7368421052632,421,274.7368421052632" stroke-width="46.31578947368421" style="stroke: rgb(191, 179, 105);"></path><path d="M5,150.5263157894737C213,150.5263157894737,213,375.7894736842107,421,375.7894736842107" stroke-width="23.157894736842106" style="stroke: rgb(191, 179, 105);"></path><path d="M5,46.31578947368424C213,46.31578947368424,213,195.26315789473682,421,195.26315789473682" stroke-width="92.63157894736842" style="stroke: rgb(191, 179, 105);"></path><path d="M5,388.94736842105266C213,388.94736842105266,213,398.9473684210528,421,398.9473684210528" stroke-width="23.157894736842106" style="stroke: rgb(166, 191, 105);"></path><path d="M5,422.10526315789474C213,422.10526315789474,213,432.10526315789485,421,432.10526315789485" stroke-width="23.157894736842106" style="stroke: rgb(130, 191, 105);"></path><path d="M5,455.2631578947368C213,455.2631578947368,213,488.421052631579,421,488.421052631579" stroke-width="23.157894736842106" style="stroke: rgb(105, 191, 117);"></path><path d="M5,488.4210526315789C213,488.4210526315789,213,455.26315789473693,421,455.26315789473693" stroke-width="23.157894736842106" style="stroke: rgb(105, 191, 154);"></path><path d="M426,34.736842105263044C634,34.736842105263044,634,263.1578947368424,842,263.1578947368424" stroke-width="23.157894736842106" style="stroke: rgb(105, 191, 191);"></path><path d="M426,57.894736842105154C634,57.894736842105154,634,342.6315789473687,842,342.6315789473687" stroke-width="23.157894736842106" style="stroke: rgb(105, 191, 191);"></path><path d="M426,127.36842105263148C634,127.36842105263148,634,488.4210526315791,842,488.4210526315791" stroke-width="23.157894736842106" style="stroke: rgb(105, 191, 191);"></path><path d="M426,11.57894736842094C634,11.57894736842094,634,183.68421052631606,842,183.68421052631606" stroke-width="23.157894736842106" style="stroke: rgb(105, 191, 191);"></path><path d="M426,104.21052631578937C634,104.21052631578937,634,455.26315789473705,842,455.26315789473705" stroke-width="23.157894736842106" style="stroke: rgb(105, 191, 191);"></path><path d="M426,81.05263157894726C634,81.05263157894726,634,398.9473684210529,842,398.9473684210529" stroke-width="23.157894736842106" style="stroke: rgb(105, 191, 191);"></path><path d="M426,331.0526315789475C634,331.0526315789475,634,297.89473684210554,842,297.89473684210554" stroke-width="46.31578947368421" style="stroke: rgb(105, 154, 191);"></path><path d="M426,286.3157894736842C634,286.3157894736842,634,365.7894736842108,842,365.7894736842108" stroke-width="23.157894736842106" style="stroke: rgb(105, 117, 191);"></path><path d="M426,263.15789473684214C634,263.15789473684214,634,57.894736842105324,842,57.894736842105324" stroke-width="23.157894736842106" style="stroke: rgb(105, 117, 191);"></path><path d="M426,387.36842105263173C634,387.36842105263173,634,92.63157894736848,842,92.63157894736848" stroke-width="46.31578947368421" style="stroke: rgb(130, 105, 191);"></path><path d="M426,172.1052631578947C634,172.1052631578947,634,23.157894736842163,842,23.157894736842163" stroke-width="46.31578947368421" style="stroke: rgb(166, 105, 191);"></path><path d="M426,218.42105263157893C634,218.42105263157893,634,218.42105263157924,842,218.42105263157924" stroke-width="46.31578947368421" style="stroke: rgb(166, 105, 191);"></path><path d="M426,443.6842105263159C634,443.6842105263159,634,138.9473684210527,842,138.9473684210527" stroke-width="46.31578947368421" style="stroke: rgb(191, 105, 179);"></path><path d="M426,488.421052631579C634,488.421052631579,634,422.10526315789497,842,422.10526315789497" stroke-width="23.157894736842106" style="stroke: rgb(191, 105, 142);"></path></g><g class="nodes" font-family="Arial, Helvetica" font-size="10"><g><rect x="842" y="251.57894736842138" height="69.4736842105263" width="5" fill="#000"></rect><text x="836" y="286.3157894736845" dy="0.35em" text-anchor="end">binary file metadata</text></g><g><rect x="842" y="331.0526315789477" height="46.31578947368416" width="5" fill="#000"></rect><text x="836" y="354.21052631578976" dy="0.35em" text-anchor="end">malware reverse engineering</text></g><g><rect x="842" y="5.684341886080802e-14" height="162.10526315789497" width="5" fill="#000"></rect><text x="836" y="81.05263157894754" dy="0.35em" text-anchor="end">netflow/enclave netflow</text></g><g><rect x="842" y="476.84210526315803" height="23.15789473684191" width="5" fill="#000"></rect><text x="836" y="488.42105263157896" dy="0.35em" text-anchor="end">network intrusion detection system</text></g><g><rect x="842" y="172.10526315789502" height="69.47368421052636" width="5" fill="#000"></rect><text x="836" y="206.8421052631582" dy="0.35em" text-anchor="end">network protocol analysis</text></g><g><rect x="842" y="443.684210526316" height="23.157894736842024" width="5" fill="#000"></rect><text x="836" y="455.263157894737" dy="0.35em" text-anchor="end">ssl/tls inspection</text></g><g><rect x="842" y="387.36842105263185" height="46.31578947368416" width="5" fill="#000"></rect><text x="836" y="410.5263157894739" dy="0.35em" text-anchor="end">windows event logs</text></g><g><rect x="0" y="172.10526315789494" height="138.9473684210525" width="5" fill="#000"></rect><text x="11" y="241.57894736842118" dy="0.35em" text-anchor="start">Antivirus/Antimalware</text></g><g><rect x="0" y="321.0526315789474" height="46.315789473684205" width="5" fill="#000"></rect><text x="11" y="344.2105263157895" dy="0.35em" text-anchor="start">Exploit Protection</text></g><g><rect x="0" y="2.842170943040401e-14" height="162.1052631578949" width="5" fill="#000"></rect><text x="11" y="81.05263157894748" dy="0.35em" text-anchor="start">Network Intrusion Prevention</text></g><g><rect x="0" y="377.3684210526316" height="23.15789473684208" width="5" fill="#000"></rect><text x="11" y="388.94736842105266" dy="0.35em" text-anchor="start">Network Segmentation</text></g><g><rect x="0" y="410.5263157894737" height="23.15789473684208" width="5" fill="#000"></rect><text x="11" y="422.10526315789474" dy="0.35em" text-anchor="start">Privileged Account Management</text></g><g><rect x="0" y="443.6842105263158" height="23.15789473684208" width="5" fill="#000"></rect><text x="11" y="455.2631578947368" dy="0.35em" text-anchor="start">Restrict Registry Permissions</text></g><g><rect x="0" y="476.84210526315786" height="23.15789473684208" width="5" fill="#000"></rect><text x="11" y="488.4210526315789" dy="0.35em" text-anchor="start">User Account Management</text></g><g><rect x="421" y="364.21052631578965" height="46.31578947368416" width="5" fill="#000"></rect><text x="415" y="387.36842105263173" dy="0.35em" text-anchor="end">commonly used port</text></g><g><rect x="421" y="476.842105263158" height="23.15789473684208" width="5" fill="#000"></rect><text x="415" y="488.421052631579" dy="0.35em" text-anchor="end">modify registry</text></g><g><rect x="421" y="-1.1368683772161603e-13" height="138.94736842105272" width="5" fill="#000"></rect><text x="415" y="69.47368421052624" dy="0.35em" text-anchor="end">obfuscated files or information</text></g><g><rect x="421" y="148.9473684210526" height="92.63157894736848" width="5" fill="#000"></rect><text x="415" y="195.26315789473685" dy="0.35em" text-anchor="end">remote file copy</text></g><g><rect x="421" y="307.89473684210543" height="46.31578947368421" width="5" fill="#000"></rect><text x="415" y="331.0526315789475" dy="0.35em" text-anchor="end">rundll32</text></g><g><rect x="421" y="251.5789473684211" height="46.31578947368436" width="5" fill="#000"></rect><text x="415" y="274.7368421052633" dy="0.35em" text-anchor="end">standard application layer protocol</text></g><g><rect x="421" y="420.5263157894738" height="46.31578947368416" width="5" fill="#000"></rect><text x="415" y="443.6842105263159" dy="0.35em" text-anchor="end">windows management instrumentation</text></g></g></g></svg>