<svg width="847" height="520" xmlns="http://www.w3.org/2000/svg" version="1.1"><g transform="translate(0, 10)"><g class="links" fill="none" stroke-opacity="0.4"><path d="M5,189.99999999999997C213,189.99999999999997,213,189.99999999999997,421,189.99999999999997" stroke-width="330" style="stroke: rgb(191, 105, 105);"></path><path d="M5,420C213,420,213,420,421,420" stroke-width="110" style="stroke: rgb(148, 191, 105);"></path><path d="M426,162.49999999999997C634,162.49999999999997,634,212.49999999999991,842,212.49999999999991" stroke-width="55" style="stroke: rgb(105, 191, 191);"></path><path d="M426,52.49999999999997C634,52.49999999999997,634,27.500000000000085,842,27.500000000000085" stroke-width="55" style="stroke: rgb(105, 191, 191);"></path><path d="M426,217.49999999999997C634,217.49999999999997,634,342.49999999999994,842,342.49999999999994" stroke-width="55" style="stroke: rgb(105, 191, 191);"></path><path d="M426,107.49999999999997C634,107.49999999999997,634,147.49999999999986,842,147.49999999999986" stroke-width="55" style="stroke: rgb(105, 191, 191);"></path><path d="M426,272.5C634,272.5,634,407.49999999999994,842,407.49999999999994" stroke-width="55" style="stroke: rgb(105, 191, 191);"></path><path d="M426,327.5C634,327.5,634,472.49999999999994,842,472.49999999999994" stroke-width="55" style="stroke: rgb(105, 191, 191);"></path><path d="M426,392.5C634,392.5,634,82.50000000000009,842,82.50000000000009" stroke-width="55" style="stroke: rgb(148, 105, 191);"></path><path d="M426,447.5C634,447.5,634,277.49999999999994,842,277.49999999999994" stroke-width="55" style="stroke: rgb(148, 105, 191);"></path></g><g class="nodes" font-family="Arial, Helvetica" font-size="10"><g><rect x="842" y="184.99999999999991" height="55.000000000000014" width="5" fill="#000"></rect><text x="836" y="212.49999999999991" dy="0.35em" text-anchor="end">binary file metadata</text></g><g><rect x="842" y="8.526512829121202e-14" height="109.99999999999977" width="5" fill="#000"></rect><text x="836" y="54.99999999999997" dy="0.35em" text-anchor="end">malware reverse engineering</text></g><g><rect x="842" y="249.99999999999994" height="55" width="5" fill="#000"></rect><text x="836" y="277.49999999999994" dy="0.35em" text-anchor="end">netflow/enclave netflow</text></g><g><rect x="842" y="314.99999999999994" height="55" width="5" fill="#000"></rect><text x="836" y="342.49999999999994" dy="0.35em" text-anchor="end">network intrusion detection system</text></g><g><rect x="842" y="119.99999999999986" height="55.00000000000006" width="5" fill="#000"></rect><text x="836" y="147.4999999999999" dy="0.35em" text-anchor="end">network protocol analysis</text></g><g><rect x="842" y="379.99999999999994" height="55" width="5" fill="#000"></rect><text x="836" y="407.49999999999994" dy="0.35em" text-anchor="end">ssl/tls inspection</text></g><g><rect x="842" y="444.99999999999994" height="55" width="5" fill="#000"></rect><text x="836" y="472.49999999999994" dy="0.35em" text-anchor="end">windows event logs</text></g><g><rect x="0" y="24.99999999999997" height="330.00000000000006" width="5" fill="#000"></rect><text x="11" y="190" dy="0.35em" text-anchor="start">Antivirus/Antimalware</text></g><g><rect x="0" y="365" height="110" width="5" fill="#000"></rect><text x="11" y="420" dy="0.35em" text-anchor="start">Network Intrusion Prevention</text></g><g><rect x="421" y="24.99999999999997" height="330.00000000000006" width="5" fill="#000"></rect><text x="415" y="190" dy="0.35em" text-anchor="end">obfuscated files or information</text></g><g><rect x="421" y="365" height="110" width="5" fill="#000"></rect><text x="415" y="420" dy="0.35em" text-anchor="end">standard application layer protocol</text></g></g></g></svg>