<svg width="847" height="520" xmlns="http://www.w3.org/2000/svg" version="1.1"><g transform="translate(0, 10)"><g class="links" fill="none" stroke-opacity="0.4"><path d="M5,30.81081081081101C213,30.81081081081101,213,153.2432432432432,421,153.2432432432432" stroke-width="61.62162162162162" style="stroke: rgb(191, 105, 105);"></path><path d="M5,66.75675675675696C213,66.75675675675696,213,474.86486486486484,421,474.86486486486484" stroke-width="10.27027027027027" style="stroke: rgb(191, 105, 105);"></path><path d="M5,97.29729729729748C213,97.29729729729748,213,35.4054054054054,421,35.4054054054054" stroke-width="30.81081081081081" style="stroke: rgb(191, 128, 105);"></path><path d="M5,138.37837837837856C213,138.37837837837856,213,321.89189189189193,421,321.89189189189193" stroke-width="10.27027027027027" style="stroke: rgb(191, 128, 105);"></path><path d="M5,122.97297297297315C213,122.97297297297315,213,204.32432432432432,421,204.32432432432432" stroke-width="20.54054054054054" style="stroke: rgb(191, 128, 105);"></path><path d="M5,378.1081081081081C213,378.1081081081081,213,296.48648648648646,421,296.48648648648646" stroke-width="20.54054054054054" style="stroke: rgb(191, 152, 105);"></path><path d="M5,474.5945945945945C213,474.5945945945945,213,424.0540540540541,421,424.0540540540541" stroke-width="10.27027027027027" style="stroke: rgb(191, 175, 105);"></path><path d="M5,434.0540540540539C213,434.0540540540539,213,372.972972972973,421,372.972972972973" stroke-width="10.27027027027027" style="stroke: rgb(183, 191, 105);"></path><path d="M5,189.4594594594594C213,189.4594594594594,213,403.5135135135136,421,403.5135135135136" stroke-width="10.27027027027027" style="stroke: rgb(160, 191, 105);"></path><path d="M5,168.91891891891888C213,168.91891891891888,213,66.21621621621621,421,66.21621621621621" stroke-width="30.81081081081081" style="stroke: rgb(160, 191, 105);"></path><path d="M5,235.40540540540545C213,235.40540540540545,213,275.94594594594594,421,275.94594594594594" stroke-width="20.54054054054054" style="stroke: rgb(136, 191, 105);"></path><path d="M5,214.8648648648649C213,214.8648648648649,213,224.86486486486487,421,224.86486486486487" stroke-width="20.54054054054054" style="stroke: rgb(136, 191, 105);"></path><path d="M5,454.3243243243242C213,454.3243243243242,213,383.2432432432433,421,383.2432432432433" stroke-width="10.27027027027027" style="stroke: rgb(113, 191, 105);"></path><path d="M5,322.16216216216225C213,322.16216216216225,213,413.78378378378386,421,413.78378378378386" stroke-width="10.27027027027027" style="stroke: rgb(105, 191, 121);"></path><path d="M5,301.6216216216217C213,301.6216216216217,213,332.1621621621622,421,332.1621621621622" stroke-width="10.27027027027027" style="stroke: rgb(105, 191, 121);"></path><path d="M5,311.891891891892C213,311.891891891892,213,362.70270270270277,421,362.70270270270277" stroke-width="10.27027027027027" style="stroke: rgb(105, 191, 121);"></path><path d="M5,271.08108108108115C213,271.08108108108115,213,97.02702702702702,421,97.02702702702702" stroke-width="30.81081081081081" style="stroke: rgb(105, 191, 144);"></path><path d="M5,494.8648648648648C213,494.8648648648648,213,342.43243243243245,421,342.43243243243245" stroke-width="10.27027027027027" style="stroke: rgb(105, 191, 167);"></path><path d="M5,408.6486486486486C213,408.6486486486486,213,245.40540540540542,421,245.40540540540542" stroke-width="20.54054054054054" style="stroke: rgb(105, 191, 191);"></path><path d="M5,347.56756756756766C213,347.56756756756766,213,449.45945945945954,421,449.45945945945954" stroke-width="20.54054054054054" style="stroke: rgb(105, 167, 191);"></path><path d="M426,137.83783783783778C634,137.83783783783778,634,311.8918918918919,842,311.8918918918919" stroke-width="10.27027027027027" style="stroke: rgb(105, 144, 191);"></path><path d="M426,148.10810810810804C634,148.10810810810804,634,414.0540540540541,842,414.0540540540541" stroke-width="10.27027027027027" style="stroke: rgb(105, 144, 191);"></path><path d="M426,178.91891891891882C634,178.91891891891882,634,474.86486486486507,842,474.86486486486507" stroke-width="10.27027027027027" style="stroke: rgb(105, 144, 191);"></path><path d="M426,158.3783783783783C634,158.3783783783783,634,434.32432432432444,842,434.32432432432444" stroke-width="10.27027027027027" style="stroke: rgb(105, 144, 191);"></path><path d="M426,168.64864864864856C634,168.64864864864856,634,454.59459459459475,842,454.59459459459475" stroke-width="10.27027027027027" style="stroke: rgb(105, 144, 191);"></path><path d="M426,127.56756756756752C634,127.56756756756752,634,168.6486486486485,842,168.6486486486485" stroke-width="10.27027027027027" style="stroke: rgb(105, 144, 191);"></path><path d="M426,474.86486486486484C634,474.86486486486484,634,352.97297297297297,842,352.97297297297297" stroke-width="10.27027027027027" style="stroke: rgb(105, 121, 191);"></path><path d="M426,66.21621621621622C634,66.21621621621622,634,66.21621621621611,842,66.21621621621611" stroke-width="92.43243243243244" style="stroke: rgb(113, 105, 191);"></path><path d="M426,332.1621621621622C634,332.1621621621622,634,383.51351351351354,842,383.51351351351354" stroke-width="30.81081081081081" style="stroke: rgb(136, 105, 191);"></path><path d="M426,224.86486486486487C634,224.86486486486487,634,265.94594594594594,842,265.94594594594594" stroke-width="61.62162162162162" style="stroke: rgb(160, 105, 191);"></path><path d="M426,286.2162162162162C634,286.2162162162162,634,132.97297297297285,842,132.97297297297285" stroke-width="41.08108108108108" style="stroke: rgb(183, 105, 191);"></path><path d="M426,413.78378378378386C634,413.78378378378386,634,332.4324324324324,842,332.4324324324324" stroke-width="30.81081081081081" style="stroke: rgb(191, 105, 175);"></path><path d="M426,372.972972972973C634,372.972972972973,634,189.18918918918905,842,189.18918918918905" stroke-width="30.81081081081081" style="stroke: rgb(191, 105, 152);"></path><path d="M426,449.45945945945954C634,449.45945945945954,634,214.8648648648647,842,214.8648648648647" stroke-width="20.54054054054054" style="stroke: rgb(191, 105, 128);"></path></g><g class="nodes" font-family="Arial, Helvetica" font-size="10"><g><rect x="842" y="306.7567567567567" height="51.35135135135141" width="5" fill="#000"></rect><text x="836" y="332.4324324324324" dy="0.35em" text-anchor="end">binary file metadata</text></g><g><rect x="842" y="19.999999999999886" height="133.5135135135135" width="5" fill="#000"></rect><text x="836" y="86.75675675675663" dy="0.35em" text-anchor="end">dll monitoring</text></g><g><rect x="842" y="368.1081081081081" height="30.810810810810835" width="5" fill="#000"></rect><text x="836" y="383.51351351351354" dy="0.35em" text-anchor="end">loaded dlls</text></g><g><rect x="842" y="408.91891891891896" height="10.270270270270316" width="5" fill="#000"></rect><text x="836" y="414.0540540540541" dy="0.35em" text-anchor="end">malware reverse engineering</text></g><g><rect x="842" y="469.7297297297299" height="10.270270270270203" width="5" fill="#000"></rect><text x="836" y="474.864864864865" dy="0.35em" text-anchor="end">network intrusion detection system</text></g><g><rect x="842" y="429.1891891891893" height="10.270270270270316" width="5" fill="#000"></rect><text x="836" y="434.32432432432444" dy="0.35em" text-anchor="end">network protocol analysis</text></g><g><rect x="842" y="449.4594594594596" height="10.270270270270316" width="5" fill="#000"></rect><text x="836" y="454.59459459459475" dy="0.35em" text-anchor="end">ssl/tls inspection</text></g><g><rect x="842" y="235.1351351351351" height="61.621621621621614" width="5" fill="#000"></rect><text x="836" y="265.94594594594594" dy="0.35em" text-anchor="end">system calls</text></g><g><rect x="842" y="163.51351351351337" height="61.62162162162173" width="5" fill="#000"></rect><text x="836" y="194.32432432432424" dy="0.35em" text-anchor="end">windows event logs</text></g><g><rect x="0" y="1.9895196601282805e-13" height="71.89189189189187" width="5" fill="#000"></rect><text x="11" y="35.945945945946136" dy="0.35em" text-anchor="start">Antivirus/Antimalware</text></g><g><rect x="0" y="81.89189189189207" height="61.62162162162139" width="5" fill="#000"></rect><text x="11" y="112.70270270270277" dy="0.35em" text-anchor="start">Audit</text></g><g><rect x="0" y="367.83783783783787" height="20.540540540540434" width="5" fill="#000"></rect><text x="11" y="378.10810810810807" dy="0.35em" text-anchor="start">Behavior Prevention on Endpoint</text></g><g><rect x="0" y="469.45945945945937" height="10.27027027027026" width="5" fill="#000"></rect><text x="11" y="474.59459459459447" dy="0.35em" text-anchor="start">Code Signing</text></g><g><rect x="0" y="428.91891891891873" height="10.270270270270316" width="5" fill="#000"></rect><text x="11" y="434.0540540540539" dy="0.35em" text-anchor="start">Encrypt Sensitive Information</text></g><g><rect x="0" y="153.51351351351346" height="41.08108108108118" width="5" fill="#000"></rect><text x="11" y="174.05405405405406" dy="0.35em" text-anchor="start">Execution Prevention</text></g><g><rect x="0" y="204.59459459459464" height="41.081081081081095" width="5" fill="#000"></rect><text x="11" y="225.1351351351352" dy="0.35em" text-anchor="start">Privileged Account Management</text></g><g><rect x="0" y="449.18918918918905" height="10.270270270270316" width="5" fill="#000"></rect><text x="11" y="454.3243243243242" dy="0.35em" text-anchor="start">Remote Data Storage</text></g><g><rect x="0" y="296.48648648648657" height="30.810810810810835" width="5" fill="#000"></rect><text x="11" y="311.891891891892" dy="0.35em" text-anchor="start">Restrict File and Directory Permissions</text></g><g><rect x="0" y="255.67567567567573" height="30.810810810810842" width="5" fill="#000"></rect><text x="11" y="271.08108108108115" dy="0.35em" text-anchor="start">Restrict Library Loading</text></g><g><rect x="0" y="489.7297297297296" height="10.270270270270203" width="5" fill="#000"></rect><text x="11" y="494.8648648648647" dy="0.35em" text-anchor="start">Update Software</text></g><g><rect x="0" y="398.37837837837833" height="20.540540540540405" width="5" fill="#000"></rect><text x="11" y="408.64864864864853" dy="0.35em" text-anchor="start">User Account Control</text></g><g><rect x="0" y="337.2972972972974" height="20.540540540540462" width="5" fill="#000"></rect><text x="11" y="347.5675675675676" dy="0.35em" text-anchor="start">User Account Management</text></g><g><rect x="421" y="194.05405405405406" height="61.621621621621614" width="5" fill="#000"></rect><text x="415" y="224.86486486486487" dy="0.35em" text-anchor="end">bypass user account control</text></g><g><rect x="421" y="20" height="92.43243243243239" width="5" fill="#000"></rect><text x="415" y="66.2162162162162" dy="0.35em" text-anchor="end">dll search order hijacking</text></g><g><rect x="421" y="316.7567567567568" height="30.810810810810835" width="5" fill="#000"></rect><text x="415" y="332.1621621621622" dy="0.35em" text-anchor="end">dll side-loading</text></g><g><rect x="421" y="357.5675675675676" height="30.810810810810835" width="5" fill="#000"></rect><text x="415" y="372.972972972973" dy="0.35em" text-anchor="end">indicator removal on host</text></g><g><rect x="421" y="398.37837837837844" height="30.810810810810835" width="5" fill="#000"></rect><text x="415" y="413.78378378378386" dy="0.35em" text-anchor="end">masquerading</text></g><g><rect x="421" y="439.1891891891893" height="20.540540540540405" width="5" fill="#000"></rect><text x="415" y="449.4594594594595" dy="0.35em" text-anchor="end">new service</text></g><g><rect x="421" y="122.43243243243239" height="61.62162162162167" width="5" fill="#000"></rect><text x="415" y="153.24324324324323" dy="0.35em" text-anchor="end">obfuscated files or information</text></g><g><rect x="421" y="265.6756756756757" height="41.08108108108112" width="5" fill="#000"></rect><text x="415" y="286.21621621621625" dy="0.35em" text-anchor="end">process injection</text></g><g><rect x="421" y="469.7297297297297" height="10.270270270270316" width="5" fill="#000"></rect><text x="415" y="474.86486486486484" dy="0.35em" text-anchor="end">software packing</text></g></g></g></svg>