<svg width="847" height="520" xmlns="http://www.w3.org/2000/svg" version="1.1"><g transform="translate(0, 10)"><g class="links" fill="none" stroke-opacity="0.4"><path d="M5,280.8333333333336C213,280.8333333333336,213,127.50000000000011,421,127.50000000000011" stroke-width="71.66666666666667" style="stroke: rgb(191, 105, 105);"></path><path d="M5,117.50000000000023C213,117.50000000000023,213,362.5000000000001,421,362.5000000000001" stroke-width="71.66666666666667" style="stroke: rgb(191, 148, 105);"></path><path d="M5,35.833333333333506C213,35.833333333333506,213,55.83333333333345,421,55.83333333333345" stroke-width="71.66666666666667" style="stroke: rgb(191, 191, 105);"></path><path d="M5,390.41666666666674C213,390.41666666666674,213,227.08333333333348,421,227.08333333333348" stroke-width="35.833333333333336" style="stroke: rgb(148, 191, 105);"></path><path d="M5,436.25C213,436.25,213,262.91666666666686,421,262.91666666666686" stroke-width="35.833333333333336" style="stroke: rgb(105, 191, 105);"></path><path d="M5,344.5833333333334C213,344.5833333333334,213,191.25000000000014,421,191.25000000000014" stroke-width="35.833333333333336" style="stroke: rgb(105, 191, 148);"></path><path d="M5,482.08333333333326C213,482.08333333333326,213,298.75000000000017,421,298.75000000000017" stroke-width="35.833333333333336" style="stroke: rgb(105, 191, 191);"></path><path d="M5,199.1666666666669C213,199.1666666666669,213,444.1666666666668,421,444.1666666666668" stroke-width="71.66666666666667" style="stroke: rgb(105, 148, 191);"></path><path d="M426,91.66666666666679C634,91.66666666666679,634,240.0000000000001,842,240.0000000000001" stroke-width="143.33333333333334" style="stroke: rgb(105, 105, 191);"></path><path d="M426,362.5000000000001C634,362.5000000000001,634,357.49999999999994,842,357.49999999999994" stroke-width="71.66666666666667" style="stroke: rgb(148, 105, 191);"></path><path d="M426,245.00000000000017C634,245.00000000000017,634,86.66666666666673,842,86.66666666666673" stroke-width="143.33333333333334" style="stroke: rgb(191, 105, 191);"></path><path d="M426,462.0833333333335C634,462.0833333333335,634,467.0833333333333,842,467.0833333333333" stroke-width="35.833333333333336" style="stroke: rgb(191, 105, 148);"></path><path d="M426,426.25000000000017C634,426.25000000000017,634,421.24999999999994,842,421.24999999999994" stroke-width="35.833333333333336" style="stroke: rgb(191, 105, 148);"></path></g><g class="nodes" font-family="Arial, Helvetica" font-size="10"><g><rect x="842" y="321.66666666666663" height="71.66666666666666" width="5" fill="#000"></rect><text x="836" y="357.49999999999994" dy="0.35em" text-anchor="end">binary file metadata</text></g><g><rect x="842" y="168.33333333333343" height="143.3333333333332" width="5" fill="#000"></rect><text x="836" y="240.00000000000003" dy="0.35em" text-anchor="end">data loss prevention</text></g><g><rect x="842" y="449.16666666666663" height="35.833333333333314" width="5" fill="#000"></rect><text x="836" y="467.08333333333326" dy="0.35em" text-anchor="end">dll monitoring</text></g><g><rect x="842" y="403.33333333333326" height="35.83333333333337" width="5" fill="#000"></rect><text x="836" y="421.24999999999994" dy="0.35em" text-anchor="end">loaded dlls</text></g><g><rect x="842" y="15.000000000000057" height="143.33333333333337" width="5" fill="#000"></rect><text x="836" y="86.66666666666674" dy="0.35em" text-anchor="end">windows event logs</text></g><g><rect x="0" y="245.00000000000026" height="71.66666666666649" width="5" fill="#000"></rect><text x="11" y="280.8333333333335" dy="0.35em" text-anchor="start">Disable or Remove Feature or Program</text></g><g><rect x="0" y="81.66666666666688" height="71.66666666666669" width="5" fill="#000"></rect><text x="11" y="117.50000000000023" dy="0.35em" text-anchor="start">Exploit Protection</text></g><g><rect x="0" y="1.7053025658242404e-13" height="71.66666666666671" width="5" fill="#000"></rect><text x="11" y="35.83333333333353" dy="0.35em" text-anchor="start">Limit Hardware Installation</text></g><g><rect x="0" y="372.50000000000006" height="35.83333333333326" width="5" fill="#000"></rect><text x="11" y="390.4166666666667" dy="0.35em" text-anchor="start">Multi-factor Authentication</text></g><g><rect x="0" y="418.3333333333333" height="35.83333333333326" width="5" fill="#000"></rect><text x="11" y="436.24999999999994" dy="0.35em" text-anchor="start">Network Segmentation</text></g><g><rect x="0" y="326.66666666666674" height="35.833333333333314" width="5" fill="#000"></rect><text x="11" y="344.58333333333337" dy="0.35em" text-anchor="start">Operating System Configuration</text></g><g><rect x="0" y="464.1666666666666" height="35.83333333333326" width="5" fill="#000"></rect><text x="11" y="482.0833333333332" dy="0.35em" text-anchor="start">Privileged Account Management</text></g><g><rect x="0" y="163.33333333333357" height="71.66666666666669" width="5" fill="#000"></rect><text x="11" y="199.1666666666669" dy="0.35em" text-anchor="start">Privileged Process Integrity</text></g><g><rect x="421" y="408.3333333333335" height="71.66666666666643" width="5" fill="#000"></rect><text x="415" y="444.1666666666667" dy="0.35em" text-anchor="end">authentication package</text></g><g><rect x="421" y="173.33333333333348" height="143.33333333333331" width="5" fill="#000"></rect><text x="415" y="245.00000000000014" dy="0.35em" text-anchor="end">create account</text></g><g><rect x="421" y="20.000000000000114" height="143.33333333333337" width="5" fill="#000"></rect><text x="415" y="91.6666666666668" dy="0.35em" text-anchor="end">replication through removable media</text></g><g><rect x="421" y="326.6666666666668" height="71.66666666666666" width="5" fill="#000"></rect><text x="415" y="362.5000000000001" dy="0.35em" text-anchor="end">rundll32</text></g></g></g></svg>