<svg width="847" height="520" xmlns="http://www.w3.org/2000/svg" version="1.1"><g transform="translate(0, 10)"><g class="links" fill="none" stroke-opacity="0.4"><path d="M5,141.53846153846146C213,141.53846153846146,213,338.46153846153857,421,338.46153846153857" stroke-width="70.76923076923077" style="stroke: rgb(191, 105, 105);"></path><path d="M5,53.076923076922995C213,53.076923076922995,213,53.07692307692308,421,53.07692307692308" stroke-width="106.15384615384616" style="stroke: rgb(191, 105, 105);"></path><path d="M5,194.61538461538453C213,194.61538461538453,213,401.5384615384617,421,401.5384615384617" stroke-width="35.38461538461539" style="stroke: rgb(191, 105, 105);"></path><path d="M5,229.99999999999994C213,229.99999999999994,213,482.3076923076922,421,482.3076923076922" stroke-width="35.38461538461539" style="stroke: rgb(191, 105, 105);"></path><path d="M5,436.9230769230771C213,436.9230769230771,213,436.9230769230771,421,436.9230769230771" stroke-width="35.38461538461539" style="stroke: rgb(191, 156, 105);"></path><path d="M5,391.5384615384616C213,391.5384615384616,213,239.9999999999999,421,239.9999999999999" stroke-width="35.38461538461539" style="stroke: rgb(174, 191, 105);"></path><path d="M5,310.7692307692307C213,310.7692307692307,213,159.23076923076923,421,159.23076923076923" stroke-width="106.15384615384616" style="stroke: rgb(122, 191, 105);"></path><path d="M5,482.30769230769243C213,482.30769230769243,213,275.38461538461524,421,275.38461538461524" stroke-width="35.38461538461539" style="stroke: rgb(105, 191, 139);"></path><path d="M426,356.15384615384625C634,356.15384615384625,634,351.1538461538461,842,351.1538461538461" stroke-width="35.38461538461539" style="stroke: rgb(105, 191, 191);"></path><path d="M426,320.7692307692309C634,320.7692307692309,634,164.23076923076945,842,164.23076923076945" stroke-width="35.38461538461539" style="stroke: rgb(105, 191, 191);"></path><path d="M426,106.15384615384616C634,106.15384615384616,634,298.076923076923,842,298.076923076923" stroke-width="70.76923076923077" style="stroke: rgb(105, 139, 191);"></path><path d="M426,35.38461538461539C634,35.38461538461539,634,40.384615384615614,842,40.384615384615614" stroke-width="70.76923076923077" style="stroke: rgb(105, 139, 191);"></path><path d="M426,176.92307692307693C634,176.92307692307693,634,414.23076923076906,842,414.23076923076906" stroke-width="70.76923076923077" style="stroke: rgb(105, 139, 191);"></path><path d="M426,419.2307692307694C634,419.2307692307694,634,217.30769230769255,842,217.30769230769255" stroke-width="70.76923076923077" style="stroke: rgb(122, 105, 191);"></path><path d="M426,482.3076923076922C634,482.3076923076922,634,477.3076923076921,842,477.3076923076921" stroke-width="35.38461538461539" style="stroke: rgb(174, 105, 191);"></path><path d="M426,257.69230769230757C634,257.69230769230757,634,111.15384615384639,842,111.15384615384639" stroke-width="70.76923076923077" style="stroke: rgb(191, 105, 156);"></path></g><g class="nodes" font-family="Arial, Helvetica" font-size="10"><g><rect x="842" y="262.6923076923076" height="106.15384615384605" width="5" fill="#000"></rect><text x="836" y="315.76923076923066" dy="0.35em" text-anchor="end">malware reverse engineering</text></g><g><rect x="842" y="5.000000000000227" height="247.6923076923074" width="5" fill="#000"></rect><text x="836" y="128.84615384615392" dy="0.35em" text-anchor="end">netflow/enclave netflow</text></g><g><rect x="842" y="459.6153846153844" height="35.384615384615344" width="5" fill="#000"></rect><text x="836" y="477.3076923076921" dy="0.35em" text-anchor="end">network protocol analysis</text></g><g><rect x="842" y="378.8461538461537" height="70.76923076923072" width="5" fill="#000"></rect><text x="836" y="414.23076923076906" dy="0.35em" text-anchor="end">ssl/tls inspection</text></g><g><rect x="0" y="-8.526512829121202e-14" height="247.69230769230768" width="5" fill="#000"></rect><text x="11" y="123.84615384615375" dy="0.35em" text-anchor="start">Network Intrusion Prevention</text></g><g><rect x="0" y="419.2307692307694" height="35.38461538461536" width="5" fill="#000"></rect><text x="11" y="436.9230769230771" dy="0.35em" text-anchor="start">Network Segmentation</text></g><g><rect x="0" y="373.8461538461539" height="35.38461538461547" width="5" fill="#000"></rect><text x="11" y="391.53846153846166" dy="0.35em" text-anchor="start">Privileged Account Management</text></g><g><rect x="0" y="257.6923076923076" height="106.1538461538463" width="5" fill="#000"></rect><text x="11" y="310.7692307692308" dy="0.35em" text-anchor="start">SSL/TLS Inspection</text></g><g><rect x="0" y="464.61538461538476" height="35.38461538461536" width="5" fill="#000"></rect><text x="11" y="482.30769230769243" dy="0.35em" text-anchor="start">User Account Management</text></g><g><rect x="421" y="383.84615384615404" height="70.76923076923049" width="5" fill="#000"></rect><text x="415" y="419.2307692307693" dy="0.35em" text-anchor="end">commonly used port</text></g><g><rect x="421" y="464.6153846153845" height="35.384615384615415" width="5" fill="#000"></rect><text x="415" y="482.30769230769226" dy="0.35em" text-anchor="end">data obfuscation</text></g><g><rect x="421" y="303.0769230769232" height="70.76923076923086" width="5" fill="#000"></rect><text x="415" y="338.4615384615386" dy="0.35em" text-anchor="end">standard application layer protocol</text></g><g><rect x="421" y="0" height="212.30769230769218" width="5" fill="#000"></rect><text x="415" y="106.15384615384609" dy="0.35em" text-anchor="end">standard cryptographic protocol</text></g><g><rect x="421" y="222.30769230769218" height="70.76923076923106" width="5" fill="#000"></rect><text x="415" y="257.69230769230774" dy="0.35em" text-anchor="end">windows management instrumentation</text></g></g></g></svg>