<svg width="847" height="520" xmlns="http://www.w3.org/2000/svg" version="1.1"><g transform="translate(0, 10)"><g class="links" fill="none" stroke-opacity="0.4"><path d="M5,92.64705882352919C213,92.64705882352919,213,340.5882352941177,421,340.5882352941177" stroke-width="155.29411764705884" style="stroke: rgb(191, 105, 105);"></path><path d="M5,446.1764705882354C213,446.1764705882354,213,214.11764705882342,421,214.11764705882342" stroke-width="77.64705882352942" style="stroke: rgb(191, 179, 105);"></path><path d="M5,384.4117647058824C213,384.4117647058824,213,467.0588235294119,421,467.0588235294119" stroke-width="25.88235294117647" style="stroke: rgb(130, 191, 105);"></path><path d="M5,332.64705882352945C213,332.64705882352945,213,136.47058823529397,421,136.47058823529397" stroke-width="77.64705882352942" style="stroke: rgb(130, 191, 105);"></path><path d="M5,270.8823529411764C213,270.8823529411764,213,441.1764705882354,421,441.1764705882354" stroke-width="25.88235294117647" style="stroke: rgb(105, 191, 154);"></path><path d="M5,219.11764705882348C213,219.11764705882348,213,58.82352941176457,421,58.82352941176457" stroke-width="77.64705882352942" style="stroke: rgb(105, 191, 154);"></path><path d="M426,327.64705882352945C634,327.64705882352945,634,379.4117647058824,842,379.4117647058824" stroke-width="25.88235294117647" style="stroke: rgb(105, 154, 191);"></path><path d="M426,405.29411764705884C634,405.29411764705884,634,487.05882352941177,842,487.05882352941177" stroke-width="25.88235294117647" style="stroke: rgb(105, 154, 191);"></path><path d="M426,275.8823529411765C634,275.8823529411765,634,230.0000000000002,842,230.0000000000002" stroke-width="25.88235294117647" style="stroke: rgb(105, 154, 191);"></path><path d="M426,301.764705882353C634,301.764705882353,634,343.5294117647061,842,343.5294117647061" stroke-width="25.88235294117647" style="stroke: rgb(105, 154, 191);"></path><path d="M426,353.5294117647059C634,353.5294117647059,634,415.29411764705884,842,415.29411764705884" stroke-width="25.88235294117647" style="stroke: rgb(105, 154, 191);"></path><path d="M426,379.4117647058824C634,379.4117647058824,634,451.1764705882353,842,451.1764705882353" stroke-width="25.88235294117647" style="stroke: rgb(105, 154, 191);"></path><path d="M426,58.82352941176457C634,58.82352941176457,634,38.82352941176488,842,38.82352941176488" stroke-width="77.64705882352942" style="stroke: rgb(130, 105, 191);"></path><path d="M426,136.47058823529397C634,136.47058823529397,634,178.23529411764724,842,178.23529411764724" stroke-width="77.64705882352942" style="stroke: rgb(130, 105, 191);"></path><path d="M426,214.11764705882342C634,214.11764705882342,634,291.76470588235316,842,291.76470588235316" stroke-width="77.64705882352942" style="stroke: rgb(130, 105, 191);"></path><path d="M426,454.11764705882365C634,454.11764705882365,634,103.52941176470605,842,103.52941176470605" stroke-width="51.76470588235294" style="stroke: rgb(191, 105, 179);"></path></g><g class="nodes" font-family="Arial, Helvetica" font-size="10"><g><rect x="842" y="366.47058823529414" height="25.882352941176464" width="5" fill="#000"></rect><text x="836" y="379.4117647058824" dy="0.35em" text-anchor="end">binary file metadata</text></g><g><rect x="842" y="474.11764705882354" height="25.882352941176237" width="5" fill="#000"></rect><text x="836" y="487.05882352941165" dy="0.35em" text-anchor="end">malware reverse engineering</text></g><g><rect x="842" y="1.7053025658242404e-13" height="129.41176470588238" width="5" fill="#000"></rect><text x="836" y="64.70588235294136" dy="0.35em" text-anchor="end">netflow/enclave netflow</text></g><g><rect x="842" y="139.41176470588255" height="103.52941176470588" width="5" fill="#000"></rect><text x="836" y="191.17647058823547" dy="0.35em" text-anchor="end">network intrusion detection system</text></g><g><rect x="842" y="252.94117647058843" height="103.52941176470574" width="5" fill="#000"></rect><text x="836" y="304.70588235294133" dy="0.35em" text-anchor="end">network protocol analysis</text></g><g><rect x="842" y="402.3529411764706" height="25.882352941176464" width="5" fill="#000"></rect><text x="836" y="415.29411764705884" dy="0.35em" text-anchor="end">ssl/tls inspection</text></g><g><rect x="842" y="438.2352941176471" height="25.882352941176464" width="5" fill="#000"></rect><text x="836" y="451.1764705882353" dy="0.35em" text-anchor="end">windows event logs</text></g><g><rect x="0" y="14.999999999999773" height="155.294117647059" width="5" fill="#000"></rect><text x="11" y="92.64705882352928" dy="0.35em" text-anchor="start">Antivirus/Antimalware</text></g><g><rect x="0" y="407.3529411764707" height="77.6470588235295" width="5" fill="#000"></rect><text x="11" y="446.1764705882355" dy="0.35em" text-anchor="start">Filter Network Traffic</text></g><g><rect x="0" y="293.82352941176475" height="103.52941176470594" width="5" fill="#000"></rect><text x="11" y="345.58823529411774" dy="0.35em" text-anchor="start">Network Intrusion Prevention</text></g><g><rect x="0" y="180.29411764705878" height="103.52941176470597" width="5" fill="#000"></rect><text x="11" y="232.05882352941177" dy="0.35em" text-anchor="start">Network Segmentation</text></g><g><rect x="421" y="428.2352941176472" height="51.764705882352985" width="5" fill="#000"></rect><text x="415" y="454.11764705882365" dy="0.35em" text-anchor="end">commonly used port</text></g><g><rect x="421" y="19.999999999999858" height="232.9411764705884" width="5" fill="#000"></rect><text x="415" y="136.47058823529406" dy="0.35em" text-anchor="end">custom command and control protocol</text></g><g><rect x="421" y="262.9411764705883" height="155.2941176470589" width="5" fill="#000"></rect><text x="415" y="340.58823529411774" dy="0.35em" text-anchor="end">obfuscated files or information</text></g></g></g></svg>