<svg width="847" height="520" xmlns="http://www.w3.org/2000/svg" version="1.1"><g transform="translate(0, 10)"><g class="links" fill="none" stroke-opacity="0.4"><path d="M5,249.99999999999997C213,249.99999999999997,213,250.00000000000003,421,250.00000000000003" stroke-width="450" style="stroke: rgb(191, 105, 105);"></path><path d="M426,287.5C634,287.5,634,292.5000000000002,842,292.5000000000002" stroke-width="75" style="stroke: rgb(105, 191, 191);"></path><path d="M426,437.5C634,437.5,634,462.5000000000001,842,462.5000000000001" stroke-width="75" style="stroke: rgb(105, 191, 191);"></path><path d="M426,137.50000000000003C634,137.50000000000003,634,122.50000000000023,842,122.50000000000023" stroke-width="75" style="stroke: rgb(105, 191, 191);"></path><path d="M426,362.5C634,362.5,634,377.5000000000002,842,377.5000000000002" stroke-width="75" style="stroke: rgb(105, 191, 191);"></path><path d="M426,62.50000000000003C634,62.50000000000003,634,37.500000000000114,842,37.500000000000114" stroke-width="75" style="stroke: rgb(105, 191, 191);"></path><path d="M426,212.50000000000003C634,212.50000000000003,634,207.50000000000023,842,207.50000000000023" stroke-width="75" style="stroke: rgb(105, 191, 191);"></path></g><g class="nodes" font-family="Arial, Helvetica" font-size="10"><g><rect x="842" y="255.00000000000023" height="74.99999999999997" width="5" fill="#000"></rect><text x="836" y="292.5000000000002" dy="0.35em" text-anchor="end">binary file metadata</text></g><g><rect x="842" y="425.0000000000001" height="74.9999999999998" width="5" fill="#000"></rect><text x="836" y="462.5" dy="0.35em" text-anchor="end">malware reverse engineering</text></g><g><rect x="842" y="85.00000000000023" height="75" width="5" fill="#000"></rect><text x="836" y="122.50000000000023" dy="0.35em" text-anchor="end">network intrusion detection system</text></g><g><rect x="842" y="340.0000000000002" height="74.99999999999989" width="5" fill="#000"></rect><text x="836" y="377.50000000000017" dy="0.35em" text-anchor="end">network protocol analysis</text></g><g><rect x="842" y="1.1368683772161603e-13" height="75.00000000000011" width="5" fill="#000"></rect><text x="836" y="37.50000000000017" dy="0.35em" text-anchor="end">ssl/tls inspection</text></g><g><rect x="842" y="170.00000000000023" height="75" width="5" fill="#000"></rect><text x="836" y="207.50000000000023" dy="0.35em" text-anchor="end">windows event logs</text></g><g><rect x="0" y="24.99999999999997" height="450.00000000000006" width="5" fill="#000"></rect><text x="11" y="250" dy="0.35em" text-anchor="start">Antivirus/Antimalware</text></g><g><rect x="421" y="25.00000000000003" height="449.99999999999994" width="5" fill="#000"></rect><text x="415" y="250" dy="0.35em" text-anchor="end">obfuscated files or information</text></g></g></g></svg>