<svg width="847" height="520" xmlns="http://www.w3.org/2000/svg" version="1.1"><g transform="translate(0, 10)"><g class="links" fill="none" stroke-opacity="0.4"><path d="M5,114.99999999999986C213,114.99999999999986,213,124.99999999999997,421,124.99999999999997" stroke-width="220" style="stroke: rgb(191, 105, 105);"></path><path d="M5,430.00000000000006C213,430.00000000000006,213,299.99999999999994,421,299.99999999999994" stroke-width="36.666666666666664" style="stroke: rgb(191, 156, 105);"></path><path d="M5,383.3333333333333C213,383.3333333333333,213,263.3333333333333,421,263.3333333333333" stroke-width="36.666666666666664" style="stroke: rgb(174, 191, 105);"></path><path d="M5,253.33333333333314C213,253.33333333333314,213,383.3333333333334,421,383.3333333333334" stroke-width="36.666666666666664" style="stroke: rgb(122, 191, 105);"></path><path d="M5,289.9999999999998C213,289.9999999999998,213,466.66666666666686,421,466.66666666666686" stroke-width="36.666666666666664" style="stroke: rgb(122, 191, 105);"></path><path d="M5,336.66666666666646C213,336.66666666666646,213,420.0000000000001,421,420.0000000000001" stroke-width="36.666666666666664" style="stroke: rgb(105, 191, 139);"></path><path d="M5,476.66666666666674C213,476.66666666666674,213,336.66666666666663,421,336.66666666666663" stroke-width="36.666666666666664" style="stroke: rgb(105, 191, 191);"></path><path d="M426,33.3333333333333C634,33.3333333333333,634,18.333333333333332,842,18.333333333333332" stroke-width="36.666666666666664" style="stroke: rgb(105, 139, 191);"></path><path d="M426,143.33333333333331C634,143.33333333333331,634,388.3333333333334,842,388.3333333333334" stroke-width="36.666666666666664" style="stroke: rgb(105, 139, 191);"></path><path d="M426,106.66666666666663C634,106.66666666666663,634,341.6666666666666,842,341.6666666666666" stroke-width="36.666666666666664" style="stroke: rgb(105, 139, 191);"></path><path d="M426,69.99999999999997C634,69.99999999999997,634,175,842,175" stroke-width="36.666666666666664" style="stroke: rgb(105, 139, 191);"></path><path d="M426,179.99999999999997C634,179.99999999999997,634,435.00000000000006,842,435.00000000000006" stroke-width="36.666666666666664" style="stroke: rgb(105, 139, 191);"></path><path d="M426,216.66666666666663C634,216.66666666666663,634,481.6666666666667,842,481.6666666666667" stroke-width="36.666666666666664" style="stroke: rgb(105, 139, 191);"></path><path d="M426,300C634,300,634,91.66666666666666,842,91.66666666666666" stroke-width="110" style="stroke: rgb(122, 105, 191);"></path><path d="M426,401.6666666666668C634,401.6666666666668,634,276.6666666666667,842,276.6666666666667" stroke-width="73.33333333333333" style="stroke: rgb(174, 105, 191);"></path><path d="M426,466.66666666666686C634,466.66666666666686,634,211.66666666666666,842,211.66666666666666" stroke-width="36.666666666666664" style="stroke: rgb(191, 105, 156);"></path></g><g class="nodes" font-family="Arial, Helvetica" font-size="10"><g><rect x="842" y="0" height="146.66666666666666" width="5" fill="#000"></rect><text x="836" y="73.33333333333333" dy="0.35em" text-anchor="end">binary file metadata</text></g><g><rect x="842" y="370.0000000000001" height="36.66666666666663" width="5" fill="#000"></rect><text x="836" y="388.3333333333334" dy="0.35em" text-anchor="end">malware reverse engineering</text></g><g><rect x="842" y="240.00000000000003" height="73.33333333333326" width="5" fill="#000"></rect><text x="836" y="276.66666666666663" dy="0.35em" text-anchor="end">netflow/enclave netflow</text></g><g><rect x="842" y="323.33333333333326" height="36.666666666666856" width="5" fill="#000"></rect><text x="836" y="341.6666666666667" dy="0.35em" text-anchor="end">network intrusion detection system</text></g><g><rect x="842" y="156.66666666666666" height="73.33333333333337" width="5" fill="#000"></rect><text x="836" y="193.33333333333334" dy="0.35em" text-anchor="end">network protocol analysis</text></g><g><rect x="842" y="416.66666666666674" height="36.66666666666663" width="5" fill="#000"></rect><text x="836" y="435.00000000000006" dy="0.35em" text-anchor="end">ssl/tls inspection</text></g><g><rect x="842" y="463.33333333333337" height="36.66666666666663" width="5" fill="#000"></rect><text x="836" y="481.6666666666667" dy="0.35em" text-anchor="end">windows event logs</text></g><g><rect x="0" y="4.999999999999858" height="219.99999999999994" width="5" fill="#000"></rect><text x="11" y="114.99999999999983" dy="0.35em" text-anchor="start">Antivirus/Antimalware</text></g><g><rect x="0" y="411.66666666666674" height="36.66666666666671" width="5" fill="#000"></rect><text x="11" y="430.0000000000001" dy="0.35em" text-anchor="start">Code Signing</text></g><g><rect x="0" y="365" height="36.666666666666714" width="5" fill="#000"></rect><text x="11" y="383.33333333333337" dy="0.35em" text-anchor="start">Execution Prevention</text></g><g><rect x="0" y="234.9999999999998" height="73.33333333333337" width="5" fill="#000"></rect><text x="11" y="271.6666666666665" dy="0.35em" text-anchor="start">Network Intrusion Prevention</text></g><g><rect x="0" y="318.33333333333314" height="36.666666666666856" width="5" fill="#000"></rect><text x="11" y="336.6666666666666" dy="0.35em" text-anchor="start">Network Segmentation</text></g><g><rect x="0" y="458.3333333333334" height="36.666666666666686" width="5" fill="#000"></rect><text x="11" y="476.66666666666674" dy="0.35em" text-anchor="start">Restrict File and Directory Permissions</text></g><g><rect x="421" y="365.0000000000001" height="73.33333333333343" width="5" fill="#000"></rect><text x="415" y="401.66666666666686" dy="0.35em" text-anchor="end">commonly used port</text></g><g><rect x="421" y="448.33333333333354" height="36.666666666666515" width="5" fill="#000"></rect><text x="415" y="466.6666666666668" dy="0.35em" text-anchor="end">data encoding</text></g><g><rect x="421" y="244.99999999999997" height="110.00000000000011" width="5" fill="#000"></rect><text x="415" y="300" dy="0.35em" text-anchor="end">masquerading</text></g><g><rect x="421" y="14.999999999999972" height="220" width="5" fill="#000"></rect><text x="415" y="124.99999999999997" dy="0.35em" text-anchor="end">obfuscated files or information</text></g></g></g></svg>