<svg width="847" height="520" xmlns="http://www.w3.org/2000/svg" version="1.1"><g transform="translate(0, 10)"><g class="links" fill="none" stroke-opacity="0.4"><path d="M5,189.68749999999994C213,189.68749999999994,213,216.56250000000017,421,216.56250000000017" stroke-width="80.625" style="stroke: rgb(191, 105, 105);"></path><path d="M5,387.6562500000003C213,387.6562500000003,213,105.78124999999983,421,105.78124999999983" stroke-width="40.3125" style="stroke: rgb(191, 142, 105);"></path><path d="M5,481.5625000000001C213,481.5625000000001,213,307.18750000000017,421,307.18750000000017" stroke-width="26.875" style="stroke: rgb(191, 179, 105);"></path><path d="M5,99.06249999999989C213,99.06249999999989,213,444.68750000000017,421,444.68750000000017" stroke-width="26.875" style="stroke: rgb(166, 191, 105);"></path><path d="M5,125.93749999999989C213,125.93749999999989,213,481.56250000000017,421,481.56250000000017" stroke-width="26.875" style="stroke: rgb(166, 191, 105);"></path><path d="M5,72.18749999999989C213,72.18749999999989,213,407.8125,421,407.8125" stroke-width="26.875" style="stroke: rgb(166, 191, 105);"></path><path d="M5,31.874999999999886C213,31.874999999999886,213,357.5000000000001,421,357.5000000000001" stroke-width="53.75" style="stroke: rgb(166, 191, 105);"></path><path d="M5,337.34375000000017C213,337.34375000000017,213,65.46874999999983,421,65.46874999999983" stroke-width="40.3125" style="stroke: rgb(130, 191, 105);"></path><path d="M5,293.75000000000017C213,293.75000000000017,213,280.31250000000017,421,280.31250000000017" stroke-width="26.875" style="stroke: rgb(105, 191, 117);"></path><path d="M5,260.15625000000017C213,260.15625000000017,213,25.15624999999983,421,25.15624999999983" stroke-width="40.3125" style="stroke: rgb(105, 191, 117);"></path><path d="M5,437.9687500000003C213,437.9687500000003,213,146.09374999999983,421,146.09374999999983" stroke-width="40.3125" style="stroke: rgb(105, 191, 154);"></path><path d="M426,223.28125000000017C634,223.28125000000017,634,446.40625000000017,842,446.40625000000017" stroke-width="13.4375" style="stroke: rgb(105, 191, 191);"></path><path d="M426,196.40625000000017C634,196.40625000000017,634,345.78125000000006,842,345.78125000000006" stroke-width="13.4375" style="stroke: rgb(105, 191, 191);"></path><path d="M426,250.15625000000017C634,250.15625000000017,634,493.28125000000017,842,493.28125000000017" stroke-width="13.4375" style="stroke: rgb(105, 191, 191);"></path><path d="M426,209.84375000000017C634,209.84375000000017,634,396.09375000000017,842,396.09375000000017" stroke-width="13.4375" style="stroke: rgb(105, 191, 191);"></path><path d="M426,236.71875000000017C634,236.71875000000017,634,469.84375000000017,842,469.84375000000017" stroke-width="13.4375" style="stroke: rgb(105, 191, 191);"></path><path d="M426,182.96875000000017C634,182.96875000000017,634,167.96875,842,167.96875" stroke-width="13.4375" style="stroke: rgb(105, 191, 191);"></path><path d="M426,85.62499999999983C634,85.62499999999983,634,80.625,842,80.625" stroke-width="161.25" style="stroke: rgb(105, 154, 191);"></path><path d="M426,293.75000000000017C634,293.75000000000017,634,302.1875000000004,842,302.1875000000004" stroke-width="53.75" style="stroke: rgb(105, 117, 191);"></path><path d="M426,451.40625000000017C634,451.40625000000017,634,359.21875000000006,842,359.21875000000006" stroke-width="13.4375" style="stroke: rgb(130, 105, 191);"></path><path d="M426,437.96875000000017C634,437.96875000000017,634,245.1562500000004,842,245.1562500000004" stroke-width="13.4375" style="stroke: rgb(130, 105, 191);"></path><path d="M426,488.28125000000017C634,488.28125000000017,634,372.65625000000006,842,372.65625000000006" stroke-width="13.4375" style="stroke: rgb(166, 105, 191);"></path><path d="M426,474.84375000000017C634,474.84375000000017,634,258.5937500000004,842,258.5937500000004" stroke-width="13.4375" style="stroke: rgb(166, 105, 191);"></path><path d="M426,407.8125C634,407.8125,634,225.0000000000004,842,225.0000000000004" stroke-width="26.875" style="stroke: rgb(191, 105, 179);"></path><path d="M426,344.0625000000001C634,344.0625000000001,634,198.1250000000004,842,198.1250000000004" stroke-width="26.875" style="stroke: rgb(191, 105, 142);"></path><path d="M426,370.9375000000001C634,370.9375000000001,634,416.25000000000017,842,416.25000000000017" stroke-width="26.875" style="stroke: rgb(191, 105, 142);"></path></g><g class="nodes" font-family="Arial, Helvetica" font-size="10"><g><rect x="842" y="439.68750000000017" height="13.4375" width="5" fill="#000"></rect><text x="836" y="446.40625000000017" dy="0.35em" text-anchor="end">binary file metadata</text></g><g><rect x="842" y="275.3125000000004" height="53.74999999999966" width="5" fill="#000"></rect><text x="836" y="302.1875000000002" dy="0.35em" text-anchor="end">dll monitoring</text></g><g><rect x="842" y="339.06250000000006" height="40.312500000000114" width="5" fill="#000"></rect><text x="836" y="359.2187500000001" dy="0.35em" text-anchor="end">malware reverse engineering</text></g><g><rect x="842" y="184.6875000000004" height="80.625" width="5" fill="#000"></rect><text x="836" y="225.0000000000004" dy="0.35em" text-anchor="end">netflow/enclave netflow</text></g><g><rect x="842" y="486.56250000000017" height="13.43749999999983" width="5" fill="#000"></rect><text x="836" y="493.2812500000001" dy="0.35em" text-anchor="end">network intrusion detection system</text></g><g><rect x="842" y="389.37500000000017" height="40.3125" width="5" fill="#000"></rect><text x="836" y="409.53125000000017" dy="0.35em" text-anchor="end">network protocol analysis</text></g><g><rect x="842" y="463.12500000000017" height="13.4375" width="5" fill="#000"></rect><text x="836" y="469.84375000000017" dy="0.35em" text-anchor="end">ssl/tls inspection</text></g><g><rect x="842" y="0" height="174.6875000000004" width="5" fill="#000"></rect><text x="836" y="87.3437500000002" dy="0.35em" text-anchor="end">windows event logs</text></g><g><rect x="0" y="149.37499999999994" height="80.62500000000023" width="5" fill="#000"></rect><text x="11" y="189.68750000000006" dy="0.35em" text-anchor="start">Antivirus/Antimalware</text></g><g><rect x="0" y="367.5000000000003" height="40.3125" width="5" fill="#000"></rect><text x="11" y="387.6562500000003" dy="0.35em" text-anchor="start">Audit</text></g><g><rect x="0" y="468.1250000000001" height="26.875" width="5" fill="#000"></rect><text x="11" y="481.5625000000001" dy="0.35em" text-anchor="start">Behavior Prevention on Endpoint</text></g><g><rect x="0" y="4.999999999999886" height="134.37500000000006" width="5" fill="#000"></rect><text x="11" y="72.18749999999991" dy="0.35em" text-anchor="start">Network Intrusion Prevention</text></g><g><rect x="0" y="317.18750000000017" height="40.312500000000114" width="5" fill="#000"></rect><text x="11" y="337.3437500000002" dy="0.35em" text-anchor="start">Operating System Configuration</text></g><g><rect x="0" y="240.00000000000017" height="67.1875" width="5" fill="#000"></rect><text x="11" y="273.59375000000017" dy="0.35em" text-anchor="start">Privileged Account Management</text></g><g><rect x="0" y="417.8125000000003" height="40.31249999999983" width="5" fill="#000"></rect><text x="11" y="437.9687500000002" dy="0.35em" text-anchor="start">User Account Management</text></g><g><rect x="421" y="394.375" height="26.87500000000015" width="5" fill="#000"></rect><text x="415" y="407.81250000000006" dy="0.35em" text-anchor="end">connection proxy</text></g><g><rect x="421" y="431.25000000000017" height="26.875" width="5" fill="#000"></rect><text x="415" y="444.68750000000017" dy="0.35em" text-anchor="end">custom cryptographic protocol</text></g><g><rect x="421" y="176.25000000000017" height="80.625" width="5" fill="#000"></rect><text x="415" y="216.56250000000017" dy="0.35em" text-anchor="end">obfuscated files or information</text></g><g><rect x="421" y="266.87500000000017" height="53.74999999999994" width="5" fill="#000"></rect><text x="415" y="293.7500000000001" dy="0.35em" text-anchor="end">process injection</text></g><g><rect x="421" y="330.6250000000001" height="53.749999999999915" width="5" fill="#000"></rect><text x="415" y="357.50000000000006" dy="0.35em" text-anchor="end">remote file copy</text></g><g><rect x="421" y="4.9999999999998295" height="161.25000000000034" width="5" fill="#000"></rect><text x="415" y="85.625" dy="0.35em" text-anchor="end">scheduled task</text></g><g><rect x="421" y="468.12500000000017" height="26.875" width="5" fill="#000"></rect><text x="415" y="481.56250000000017" dy="0.35em" text-anchor="end">standard application layer protocol</text></g></g></g></svg>