<svg width="847" height="520" xmlns="http://www.w3.org/2000/svg" version="1.1"><g transform="translate(0, 10)"><g class="links" fill="none" stroke-opacity="0.4"><path d="M5,433.40909090909105C213,433.40909090909105,213,249.31818181818142,421,249.31818181818142" stroke-width="18.636363636363637" style="stroke: rgb(191, 105, 105);"></path><path d="M5,376.13636363636357C213,376.13636363636357,213,315.2272727272723,421,315.2272727272723" stroke-width="18.636363636363637" style="stroke: rgb(191, 135, 105);"></path><path d="M5,243.63636363636363C213,243.63636363636363,213,466.3636363636366,421,466.3636363636366" stroke-width="37.27272727272727" style="stroke: rgb(191, 166, 105);"></path><path d="M5,27.95454545454531C213,27.95454545454531,213,42.954545454545226,421,42.954545454545226" stroke-width="55.90909090909091" style="stroke: rgb(186, 191, 105);"></path><path d="M5,139.77272727272714C213,139.77272727272714,213,409.7727272727272,421,409.7727272727272" stroke-width="18.636363636363637" style="stroke: rgb(186, 191, 105);"></path><path d="M5,93.18181818181804C213,93.18181818181804,213,174.0909090909088,421,174.0909090909088" stroke-width="74.54545454545455" style="stroke: rgb(186, 191, 105);"></path><path d="M5,404.77272727272737C213,404.77272727272737,213,428.4090909090908,421,428.4090909090908" stroke-width="18.636363636363637" style="stroke: rgb(155, 191, 105);"></path><path d="M5,462.0454545454547C213,462.0454545454547,213,333.8636363636359,421,333.8636363636359" stroke-width="18.636363636363637" style="stroke: rgb(125, 191, 105);"></path><path d="M5,281.59090909090907C213,281.59090909090907,213,230.6818181818178,421,230.6818181818178" stroke-width="18.636363636363637" style="stroke: rgb(105, 191, 115);"></path><path d="M5,300.2272727272727C213,300.2272727272727,213,296.59090909090867,421,296.59090909090867" stroke-width="18.636363636363637" style="stroke: rgb(105, 191, 115);"></path><path d="M5,187.04545454545456C213,187.04545454545456,213,98.86363636363613,421,98.86363636363613" stroke-width="55.90909090909091" style="stroke: rgb(105, 191, 145);"></path><path d="M5,490.6818181818183C213,490.6818181818183,213,267.95454545454504,421,267.95454545454504" stroke-width="18.636363636363637" style="stroke: rgb(105, 191, 176);"></path><path d="M5,338.18181818181813C213,338.18181818181813,213,371.81818181818136,421,371.81818181818136" stroke-width="37.27272727272727" style="stroke: rgb(105, 176, 191);"></path><path d="M426,249.31818181818142C634,249.31818181818142,634,267.9545454545455,842,267.9545454545455" stroke-width="55.90909090909091" style="stroke: rgb(105, 145, 191);"></path><path d="M426,315.2272727272723C634,315.2272727272723,634,164.77272727272737,842,164.77272727272737" stroke-width="55.90909090909091" style="stroke: rgb(105, 115, 191);"></path><path d="M426,466.3636363636366C634,466.3636363636366,634,324.5454545454545,842,324.5454545454545" stroke-width="37.27272727272727" style="stroke: rgb(125, 105, 191);"></path><path d="M426,70.90909090909068C634,70.90909090909068,634,371.8181818181818,842,371.8181818181818" stroke-width="37.27272727272727" style="stroke: rgb(155, 105, 191);"></path><path d="M426,33.63636363636341C634,33.63636363636341,634,33.6363636363637,842,33.6363636363637" stroke-width="37.27272727272727" style="stroke: rgb(155, 105, 191);"></path><path d="M426,108.18181818181796C634,108.18181818181796,634,466.3636363636363,842,466.3636363636363" stroke-width="37.27272727272727" style="stroke: rgb(155, 105, 191);"></path><path d="M426,419.090909090909C634,419.090909090909,634,108.18181818181824,842,108.18181818181824" stroke-width="37.27272727272727" style="stroke: rgb(186, 105, 191);"></path><path d="M426,155.45454545454515C634,155.45454545454515,634,70.90909090909096,842,70.90909090909096" stroke-width="37.27272727272727" style="stroke: rgb(191, 105, 166);"></path><path d="M426,192.72727272727244C634,192.72727272727244,634,419.09090909090907,842,419.09090909090907" stroke-width="37.27272727272727" style="stroke: rgb(191, 105, 166);"></path><path d="M426,371.81818181818136C634,371.81818181818136,634,211.36363636363643,842,211.36363636363643" stroke-width="37.27272727272727" style="stroke: rgb(191, 105, 135);"></path></g><g class="nodes" font-family="Arial, Helvetica" font-size="10"><g><rect x="842" y="305.9090909090909" height="37.272727272727295" width="5" fill="#000"></rect><text x="836" y="324.5454545454545" dy="0.35em" text-anchor="end">binary file metadata</text></g><g><rect x="842" y="240.00000000000003" height="55.90909090909085" width="5" fill="#000"></rect><text x="836" y="267.95454545454544" dy="0.35em" text-anchor="end">loaded dlls</text></g><g><rect x="842" y="353.1818181818182" height="37.27272727272725" width="5" fill="#000"></rect><text x="836" y="371.8181818181818" dy="0.35em" text-anchor="end">malware reverse engineering</text></g><g><rect x="842" y="15.000000000000057" height="111.81818181818184" width="5" fill="#000"></rect><text x="836" y="70.90909090909098" dy="0.35em" text-anchor="end">netflow/enclave netflow</text></g><g><rect x="842" y="400.45454545454544" height="37.27272727272725" width="5" fill="#000"></rect><text x="836" y="419.09090909090907" dy="0.35em" text-anchor="end">network protocol analysis</text></g><g><rect x="842" y="447.7272727272727" height="37.27272727272725" width="5" fill="#000"></rect><text x="836" y="466.3636363636363" dy="0.35em" text-anchor="end">ssl/tls inspection</text></g><g><rect x="842" y="136.8181818181819" height="93.18181818181813" width="5" fill="#000"></rect><text x="836" y="183.40909090909096" dy="0.35em" text-anchor="end">windows event logs</text></g><g><rect x="0" y="424.09090909090924" height="18.636363636363633" width="5" fill="#000"></rect><text x="11" y="433.40909090909105" dy="0.35em" text-anchor="start">Audit</text></g><g><rect x="0" y="366.81818181818176" height="18.636363636363797" width="5" fill="#000"></rect><text x="11" y="376.1363636363636" dy="0.35em" text-anchor="start">Encrypt Sensitive Information</text></g><g><rect x="0" y="225" height="37.27272727272727" width="5" fill="#000"></rect><text x="11" y="243.63636363636363" dy="0.35em" text-anchor="start">Exploit Protection</text></g><g><rect x="0" y="-1.4210854715202004e-13" height="149.09090909090926" width="5" fill="#000"></rect><text x="11" y="74.54545454545449" dy="0.35em" text-anchor="start">Network Intrusion Prevention</text></g><g><rect x="0" y="395.45454545454555" height="18.636363636363683" width="5" fill="#000"></rect><text x="11" y="404.77272727272737" dy="0.35em" text-anchor="start">Network Segmentation</text></g><g><rect x="0" y="452.72727272727286" height="18.636363636363626" width="5" fill="#000"></rect><text x="11" y="462.0454545454547" dy="0.35em" text-anchor="start">Remote Data Storage</text></g><g><rect x="0" y="272.27272727272725" height="37.27272727272725" width="5" fill="#000"></rect><text x="11" y="290.9090909090909" dy="0.35em" text-anchor="start">Restrict File and Directory Permissions</text></g><g><rect x="0" y="159.09090909090912" height="55.90909090909088" width="5" fill="#000"></rect><text x="11" y="187.04545454545456" dy="0.35em" text-anchor="start">SSL/TLS Inspection</text></g><g><rect x="0" y="481.3636363636365" height="18.636363636363626" width="5" fill="#000"></rect><text x="11" y="490.6818181818183" dy="0.35em" text-anchor="start">Update Software</text></g><g><rect x="0" y="319.5454545454545" height="37.27272727272725" width="5" fill="#000"></rect><text x="11" y="338.18181818181813" dy="0.35em" text-anchor="start">User Account Management</text></g><g><rect x="421" y="400.4545454545454" height="37.27272727272759" width="5" fill="#000"></rect><text x="415" y="419.0909090909092" dy="0.35em" text-anchor="end">commonly used port</text></g><g><rect x="421" y="221.36363636363598" height="55.90909090909088" width="5" fill="#000"></rect><text x="415" y="249.31818181818142" dy="0.35em" text-anchor="end">dll side-loading</text></g><g><rect x="421" y="287.27272727272685" height="55.90909090909088" width="5" fill="#000"></rect><text x="415" y="315.2272727272723" dy="0.35em" text-anchor="end">indicator removal on host</text></g><g><rect x="421" y="353.18181818181773" height="37.27272727272765" width="5" fill="#000"></rect><text x="415" y="371.81818181818153" dy="0.35em" text-anchor="end">new service</text></g><g><rect x="421" y="136.81818181818153" height="74.54545454545445" width="5" fill="#000"></rect><text x="415" y="174.09090909090875" dy="0.35em" text-anchor="end">remote file copy</text></g><g><rect x="421" y="447.727272727273" height="37.272727272727266" width="5" fill="#000"></rect><text x="415" y="466.3636363636366" dy="0.35em" text-anchor="end">rundll32</text></g><g><rect x="421" y="14.999999999999773" height="111.81818181818176" width="5" fill="#000"></rect><text x="415" y="70.90909090909065" dy="0.35em" text-anchor="end">standard cryptographic protocol</text></g></g></g></svg>