<svg width="847" height="520" xmlns="http://www.w3.org/2000/svg" version="1.1"><g transform="translate(0, 10)"><g class="links" fill="none" stroke-opacity="0.4"><path d="M5,298.7500000000001C213,298.7500000000001,213,308.7499999999999,421,308.7499999999999" stroke-width="117.5" style="stroke: rgb(191, 105, 105);"></path><path d="M5,122.50000000000009C213,122.50000000000009,213,122.49999999999991,421,122.49999999999991" stroke-width="235" style="stroke: rgb(191, 105, 105);"></path><path d="M5,396.875C213,396.875,213,406.8750000000001,421,406.8750000000001" stroke-width="58.75" style="stroke: rgb(191, 191, 105);"></path><path d="M5,465.625C213,465.625,213,465.6250000000001,421,465.6250000000001" stroke-width="58.75" style="stroke: rgb(105, 191, 105);"></path><path d="M426,338.1249999999999C634,338.1249999999999,634,470.625,842,470.625" stroke-width="58.75" style="stroke: rgb(105, 191, 191);"></path><path d="M426,279.3749999999999C634,279.3749999999999,634,146.87500000000006,842,146.87500000000006" stroke-width="58.75" style="stroke: rgb(105, 191, 191);"></path><path d="M426,63.749999999999915C634,63.749999999999915,634,58.75000000000006,842,58.75000000000006" stroke-width="117.5" style="stroke: rgb(105, 105, 191);"></path><path d="M426,181.24999999999991C634,181.24999999999991,634,244.99999999999983,842,244.99999999999983" stroke-width="117.5" style="stroke: rgb(105, 105, 191);"></path><path d="M426,436.2500000000001C634,436.2500000000001,634,372.49999999999994,842,372.49999999999994" stroke-width="117.5" style="stroke: rgb(191, 105, 191);"></path></g><g class="nodes" font-family="Arial, Helvetica" font-size="10"><g><rect x="842" y="313.74999999999994" height="117.50000000000003" width="5" fill="#000"></rect><text x="836" y="372.49999999999994" dy="0.35em" text-anchor="end">anti-virus</text></g><g><rect x="842" y="441.25" height="58.75" width="5" fill="#000"></rect><text x="836" y="470.625" dy="0.35em" text-anchor="end">malware reverse engineering</text></g><g><rect x="842" y="5.684341886080802e-14" height="176.24999999999977" width="5" fill="#000"></rect><text x="836" y="88.12499999999994" dy="0.35em" text-anchor="end">netflow/enclave netflow</text></g><g><rect x="842" y="186.24999999999983" height="117.50000000000011" width="5" fill="#000"></rect><text x="836" y="244.9999999999999" dy="0.35em" text-anchor="end">network protocol analysis</text></g><g><rect x="0" y="5.000000000000085" height="352.4999999999999" width="5" fill="#000"></rect><text x="11" y="181.25000000000003" dy="0.35em" text-anchor="start">Network Intrusion Prevention</text></g><g><rect x="0" y="367.5" height="58.74999999999997" width="5" fill="#000"></rect><text x="11" y="396.875" dy="0.35em" text-anchor="start">Restrict File and Directory Permissions</text></g><g><rect x="0" y="436.25" height="58.74999999999994" width="5" fill="#000"></rect><text x="11" y="465.625" dy="0.35em" text-anchor="start">User Account Management</text></g><g><rect x="421" y="377.5000000000001" height="117.49999999999997" width="5" fill="#000"></rect><text x="415" y="436.2500000000001" dy="0.35em" text-anchor="end">disabling security tools</text></g><g><rect x="421" y="4.999999999999915" height="234.99999999999994" width="5" fill="#000"></rect><text x="415" y="122.49999999999989" dy="0.35em" text-anchor="end">remote file copy</text></g><g><rect x="421" y="249.99999999999986" height="117.50000000000028" width="5" fill="#000"></rect><text x="415" y="308.75" dy="0.35em" text-anchor="end">standard application layer protocol</text></g></g></g></svg>