<svg width="847" height="520" xmlns="http://www.w3.org/2000/svg" version="1.1"><g transform="translate(0, 10)"><g class="links" fill="none" stroke-opacity="0.4"><path d="M5,37.50000000000006C213,37.50000000000006,213,332.49999999999983,421,332.49999999999983" stroke-width="75" style="stroke: rgb(191, 105, 105);"></path><path d="M5,360C213,360,213,197.4999999999998,421,197.4999999999998" stroke-width="25" style="stroke: rgb(191, 135, 105);"></path><path d="M5,271.25C213,271.25,213,118.74999999999974,421,118.74999999999974" stroke-width="37.5" style="stroke: rgb(191, 166, 105);"></path><path d="M5,395C213,395,213,222.4999999999998,421,222.4999999999998" stroke-width="25" style="stroke: rgb(186, 191, 105);"></path><path d="M5,430C213,430,213,247.4999999999998,421,247.4999999999998" stroke-width="25" style="stroke: rgb(155, 191, 105);"></path><path d="M5,229.99999999999994C213,229.99999999999994,213,462.5000000000002,421,462.5000000000002" stroke-width="25" style="stroke: rgb(125, 191, 105);"></path><path d="M5,211.24999999999994C213,211.24999999999994,213,421.25000000000017,421,421.25000000000017" stroke-width="12.5" style="stroke: rgb(125, 191, 105);"></path><path d="M5,493.75C213,493.75,213,433.75000000000017,421,433.75000000000017" stroke-width="12.5" style="stroke: rgb(105, 191, 115);"></path><path d="M5,318.75C213,318.75,213,156.24999999999974,421,156.24999999999974" stroke-width="37.5" style="stroke: rgb(105, 191, 145);"></path><path d="M5,128.75000000000017C213,128.75000000000017,213,386.24999999999994,421,386.24999999999994" stroke-width="12.5" style="stroke: rgb(105, 191, 176);"></path><path d="M5,103.75000000000016C213,103.75000000000016,213,43.749999999999744,421,43.749999999999744" stroke-width="37.5" style="stroke: rgb(105, 191, 176);"></path><path d="M5,465C213,465,213,272.4999999999998,421,272.4999999999998" stroke-width="25" style="stroke: rgb(105, 176, 191);"></path><path d="M5,188.75000000000017C213,188.75000000000017,213,398.74999999999994,421,398.74999999999994" stroke-width="12.5" style="stroke: rgb(105, 145, 191);"></path><path d="M5,163.75000000000017C213,163.75000000000017,213,81.24999999999974,421,81.24999999999974" stroke-width="37.5" style="stroke: rgb(105, 145, 191);"></path><path d="M426,338.74999999999983C634,338.74999999999983,634,433.7499999999999,842,433.7499999999999" stroke-width="12.5" style="stroke: rgb(105, 115, 191);"></path><path d="M426,313.74999999999983C634,313.74999999999983,634,376.2499999999999,842,376.2499999999999" stroke-width="12.5" style="stroke: rgb(105, 115, 191);"></path><path d="M426,326.24999999999983C634,326.24999999999983,634,411.2499999999999,842,411.2499999999999" stroke-width="12.5" style="stroke: rgb(105, 115, 191);"></path><path d="M426,351.24999999999983C634,351.24999999999983,634,456.2499999999999,842,456.2499999999999" stroke-width="12.5" style="stroke: rgb(105, 115, 191);"></path><path d="M426,363.74999999999983C634,363.74999999999983,634,478.7499999999999,842,478.7499999999999" stroke-width="12.5" style="stroke: rgb(105, 115, 191);"></path><path d="M426,301.24999999999983C634,301.24999999999983,634,221.25000000000014,842,221.25000000000014" stroke-width="12.5" style="stroke: rgb(105, 115, 191);"></path><path d="M426,259.9999999999998C634,259.9999999999998,634,335.0000000000001,842,335.0000000000001" stroke-width="50" style="stroke: rgb(125, 105, 191);"></path><path d="M426,209.9999999999998C634,209.9999999999998,634,190.00000000000014,842,190.00000000000014" stroke-width="50" style="stroke: rgb(125, 105, 191);"></path><path d="M426,99.99999999999974C634,99.99999999999974,634,90.00000000000014,842,90.00000000000014" stroke-width="150" style="stroke: rgb(155, 105, 191);"></path><path d="M426,468.7500000000002C634,468.7500000000002,634,388.7499999999999,842,388.7499999999999" stroke-width="12.5" style="stroke: rgb(186, 105, 191);"></path><path d="M426,456.2500000000002C634,456.2500000000002,634,293.7500000000001,842,293.7500000000001" stroke-width="12.5" style="stroke: rgb(186, 105, 191);"></path><path d="M426,427.50000000000017C634,427.50000000000017,634,275.0000000000001,842,275.0000000000001" stroke-width="25" style="stroke: rgb(191, 105, 166);"></path><path d="M426,392.49999999999994C634,392.49999999999994,634,250.00000000000009,842,250.00000000000009" stroke-width="25" style="stroke: rgb(191, 105, 135);"></path></g><g class="nodes" font-family="Arial, Helvetica" font-size="10"><g><rect x="842" y="427.4999999999999" height="12.5" width="5" fill="#000"></rect><text x="836" y="433.7499999999999" dy="0.35em" text-anchor="end">binary file metadata</text></g><g><rect x="842" y="310.0000000000001" height="49.9999999999998" width="5" fill="#000"></rect><text x="836" y="335" dy="0.35em" text-anchor="end">dll monitoring</text></g><g><rect x="842" y="369.9999999999999" height="24.99999999999997" width="5" fill="#000"></rect><text x="836" y="382.4999999999999" dy="0.35em" text-anchor="end">malware reverse engineering</text></g><g><rect x="842" y="237.50000000000009" height="62.5" width="5" fill="#000"></rect><text x="836" y="268.7500000000001" dy="0.35em" text-anchor="end">netflow/enclave netflow</text></g><g><rect x="842" y="404.9999999999999" height="12.500000000000028" width="5" fill="#000"></rect><text x="836" y="411.2499999999999" dy="0.35em" text-anchor="end">network intrusion detection system</text></g><g><rect x="842" y="449.9999999999999" height="12.5" width="5" fill="#000"></rect><text x="836" y="456.2499999999999" dy="0.35em" text-anchor="end">network protocol analysis</text></g><g><rect x="842" y="472.4999999999999" height="12.499999999999957" width="5" fill="#000"></rect><text x="836" y="478.7499999999999" dy="0.35em" text-anchor="end">ssl/tls inspection</text></g><g><rect x="842" y="15.000000000000142" height="212.49999999999994" width="5" fill="#000"></rect><text x="836" y="121.25000000000011" dy="0.35em" text-anchor="end">windows event logs</text></g><g><rect x="0" y="5.684341886080802e-14" height="75.0000000000001" width="5" fill="#000"></rect><text x="11" y="37.50000000000011" dy="0.35em" text-anchor="start">Antivirus/Antimalware</text></g><g><rect x="0" y="347.5" height="25" width="5" fill="#000"></rect><text x="11" y="360" dy="0.35em" text-anchor="start">Application Isolation and Sandboxing</text></g><g><rect x="0" y="252.49999999999997" height="37.5" width="5" fill="#000"></rect><text x="11" y="271.25" dy="0.35em" text-anchor="start">Audit</text></g><g><rect x="0" y="382.5" height="25" width="5" fill="#000"></rect><text x="11" y="395" dy="0.35em" text-anchor="start">Behavior Prevention on Endpoint</text></g><g><rect x="0" y="417.5" height="25" width="5" fill="#000"></rect><text x="11" y="430" dy="0.35em" text-anchor="start">Disable or Remove Feature or Program</text></g><g><rect x="0" y="204.99999999999994" height="37.50000000000003" width="5" fill="#000"></rect><text x="11" y="223.74999999999994" dy="0.35em" text-anchor="start">Network Intrusion Prevention</text></g><g><rect x="0" y="487.5" height="12.5" width="5" fill="#000"></rect><text x="11" y="493.75" dy="0.35em" text-anchor="start">Network Segmentation</text></g><g><rect x="0" y="300" height="37.5" width="5" fill="#000"></rect><text x="11" y="318.75" dy="0.35em" text-anchor="start">Operating System Configuration</text></g><g><rect x="0" y="85.00000000000016" height="50" width="5" fill="#000"></rect><text x="11" y="110.00000000000016" dy="0.35em" text-anchor="start">Privileged Account Management</text></g><g><rect x="0" y="452.5" height="25" width="5" fill="#000"></rect><text x="11" y="465" dy="0.35em" text-anchor="start">Software Configuration</text></g><g><rect x="0" y="145.00000000000017" height="49.99999999999977" width="5" fill="#000"></rect><text x="11" y="170.00000000000006" dy="0.35em" text-anchor="start">User Account Management</text></g><g><rect x="421" y="184.9999999999998" height="100.00000000000003" width="5" fill="#000"></rect><text x="415" y="234.99999999999983" dy="0.35em" text-anchor="end">dynamic data exchange</text></g><g><rect x="421" y="294.99999999999983" height="75.00000000000011" width="5" fill="#000"></rect><text x="415" y="332.4999999999999" dy="0.35em" text-anchor="end">obfuscated files or information</text></g><g><rect x="421" y="24.999999999999744" height="150.00000000000006" width="5" fill="#000"></rect><text x="415" y="99.99999999999977" dy="0.35em" text-anchor="end">scheduled task</text></g><g><rect x="421" y="450.0000000000002" height="24.999999999999986" width="5" fill="#000"></rect><text x="415" y="462.5000000000002" dy="0.35em" text-anchor="end">standard application layer protocol</text></g><g><rect x="421" y="415.00000000000017" height="25.000000000000057" width="5" fill="#000"></rect><text x="415" y="427.5000000000002" dy="0.35em" text-anchor="end">uncommonly used port</text></g><g><rect x="421" y="379.99999999999994" height="25.000000000000227" width="5" fill="#000"></rect><text x="415" y="392.50000000000006" dy="0.35em" text-anchor="end">windows management instrumentation</text></g></g></g></svg>