<svg width="847" height="520" xmlns="http://www.w3.org/2000/svg" version="1.1"><g transform="translate(0, 10)"><g class="links" fill="none" stroke-opacity="0.4"><path d="M5,194.99999999999997C213,194.99999999999997,213,144.99999999999997,421,144.99999999999997" stroke-width="90" style="stroke: rgb(191, 105, 105);"></path><path d="M5,247.49999999999997C213,247.49999999999997,213,467.5,421,467.5" stroke-width="15" style="stroke: rgb(191, 105, 105);"></path><path d="M5,375.0000000000001C213,375.0000000000001,213,285,421,285" stroke-width="30" style="stroke: rgb(191, 135, 105);"></path><path d="M5,455.0000000000001C213,455.0000000000001,213,395,421,395" stroke-width="30" style="stroke: rgb(191, 166, 105);"></path><path d="M5,335.0000000000001C213,335.0000000000001,213,355,421,355" stroke-width="30" style="stroke: rgb(186, 191, 105);"></path><path d="M5,124.99999999999997C213,124.99999999999997,213,435,421,435" stroke-width="30" style="stroke: rgb(155, 191, 105);"></path><path d="M5,27.49999999999997C213,27.49999999999997,213,22.49999999999997,421,22.49999999999997" stroke-width="45" style="stroke: rgb(155, 191, 105);"></path><path d="M5,79.99999999999997C213,79.99999999999997,213,229.99999999999991,421,229.99999999999991" stroke-width="60" style="stroke: rgb(155, 191, 105);"></path><path d="M5,415.0000000000001C213,415.0000000000001,213,315,421,315" stroke-width="30" style="stroke: rgb(125, 191, 105);"></path><path d="M5,487.50000000000006C213,487.50000000000006,213,492.50000000000006,421,492.50000000000006" stroke-width="15" style="stroke: rgb(105, 191, 115);"></path><path d="M5,287.5000000000001C213,287.5000000000001,213,67.49999999999997,421,67.49999999999997" stroke-width="45" style="stroke: rgb(105, 191, 145);"></path><path d="M426,137.49999999999997C634,137.49999999999997,634,322.4999999999999,842,322.4999999999999" stroke-width="15" style="stroke: rgb(105, 191, 176);"></path><path d="M426,122.49999999999997C634,122.49999999999997,634,282.49999999999994,842,282.49999999999994" stroke-width="15" style="stroke: rgb(105, 191, 176);"></path><path d="M426,182.49999999999997C634,182.49999999999997,634,487.49999999999983,842,487.49999999999983" stroke-width="15" style="stroke: rgb(105, 191, 176);"></path><path d="M426,107.49999999999997C634,107.49999999999997,634,182.49999999999994,842,182.49999999999994" stroke-width="15" style="stroke: rgb(105, 191, 176);"></path><path d="M426,152.49999999999997C634,152.49999999999997,634,422.49999999999983,842,422.49999999999983" stroke-width="15" style="stroke: rgb(105, 191, 176);"></path><path d="M426,167.49999999999997C634,167.49999999999997,634,447.49999999999983,842,447.49999999999983" stroke-width="15" style="stroke: rgb(105, 191, 176);"></path><path d="M426,467.5C634,467.5,634,367.4999999999999,842,367.4999999999999" stroke-width="15" style="stroke: rgb(105, 176, 191);"></path><path d="M426,300C634,300,634,134.99999999999994,842,134.99999999999994" stroke-width="60" style="stroke: rgb(105, 145, 191);"></path><path d="M426,395C634,395,634,344.9999999999999,842,344.9999999999999" stroke-width="30" style="stroke: rgb(105, 115, 191);"></path><path d="M426,347.5C634,347.5,634,72.50000000000017,842,72.50000000000017" stroke-width="15" style="stroke: rgb(125, 105, 191);"></path><path d="M426,362.5C634,362.5,634,227.49999999999994,842,227.49999999999994" stroke-width="15" style="stroke: rgb(125, 105, 191);"></path><path d="M426,442.5C634,442.5,634,297.49999999999994,842,297.49999999999994" stroke-width="15" style="stroke: rgb(155, 105, 191);"></path><path d="M426,427.5C634,427.5,634,87.50000000000017,842,87.50000000000017" stroke-width="15" style="stroke: rgb(155, 105, 191);"></path><path d="M426,44.99999999999997C634,44.99999999999997,634,259.99999999999994,842,259.99999999999994" stroke-width="30" style="stroke: rgb(186, 105, 191);"></path><path d="M426,14.999999999999972C634,14.999999999999972,634,20.00000000000017,842,20.00000000000017" stroke-width="30" style="stroke: rgb(186, 105, 191);"></path><path d="M426,74.99999999999997C634,74.99999999999997,634,399.99999999999983,842,399.99999999999983" stroke-width="30" style="stroke: rgb(186, 105, 191);"></path><path d="M426,214.99999999999991C634,214.99999999999991,634,50.00000000000017,842,50.00000000000017" stroke-width="30" style="stroke: rgb(191, 105, 166);"></path><path d="M426,244.99999999999991C634,244.99999999999991,634,204.99999999999994,842,204.99999999999994" stroke-width="30" style="stroke: rgb(191, 105, 166);"></path><path d="M426,492.50000000000006C634,492.50000000000006,634,462.49999999999983,842,462.49999999999983" stroke-width="15" style="stroke: rgb(191, 105, 135);"></path></g><g class="nodes" font-family="Arial, Helvetica" font-size="10"><g><rect x="842" y="314.9999999999999" height="59.99999999999994" width="5" fill="#000"></rect><text x="836" y="344.9999999999999" dy="0.35em" text-anchor="end">binary file metadata</text></g><g><rect x="842" y="104.99999999999994" height="60.00000000000001" width="5" fill="#000"></rect><text x="836" y="134.99999999999994" dy="0.35em" text-anchor="end">dll monitoring</text></g><g><rect x="842" y="244.99999999999994" height="59.99999999999997" width="5" fill="#000"></rect><text x="836" y="274.99999999999994" dy="0.35em" text-anchor="end">malware reverse engineering</text></g><g><rect x="842" y="5.0000000000001705" height="89.99999999999977" width="5" fill="#000"></rect><text x="836" y="50.00000000000006" dy="0.35em" text-anchor="end">netflow/enclave netflow</text></g><g><rect x="842" y="479.99999999999983" height="15" width="5" fill="#000"></rect><text x="836" y="487.49999999999983" dy="0.35em" text-anchor="end">network intrusion detection system</text></g><g><rect x="842" y="174.99999999999994" height="60" width="5" fill="#000"></rect><text x="836" y="204.99999999999994" dy="0.35em" text-anchor="end">network protocol analysis</text></g><g><rect x="842" y="384.99999999999983" height="45" width="5" fill="#000"></rect><text x="836" y="407.49999999999983" dy="0.35em" text-anchor="end">ssl/tls inspection</text></g><g><rect x="842" y="439.99999999999983" height="30" width="5" fill="#000"></rect><text x="836" y="454.99999999999983" dy="0.35em" text-anchor="end">windows event logs</text></g><g><rect x="0" y="149.99999999999997" height="105.00000000000017" width="5" fill="#000"></rect><text x="11" y="202.50000000000006" dy="0.35em" text-anchor="start">Antivirus/Antimalware</text></g><g><rect x="0" y="360.0000000000001" height="29.999999999999996" width="5" fill="#000"></rect><text x="11" y="375.0000000000001" dy="0.35em" text-anchor="start">Behavior Prevention on Endpoint</text></g><g><rect x="0" y="440.0000000000001" height="29.999999999999957" width="5" fill="#000"></rect><text x="11" y="455.0000000000001" dy="0.35em" text-anchor="start">Exploit Protection</text></g><g><rect x="0" y="320.0000000000001" height="30" width="5" fill="#000"></rect><text x="11" y="335.0000000000001" dy="0.35em" text-anchor="start">Filter Network Traffic</text></g><g><rect x="0" y="4.999999999999972" height="135" width="5" fill="#000"></rect><text x="11" y="72.49999999999997" dy="0.35em" text-anchor="start">Network Intrusion Prevention</text></g><g><rect x="0" y="400.0000000000001" height="29.99999999999997" width="5" fill="#000"></rect><text x="11" y="415.0000000000001" dy="0.35em" text-anchor="start">Privileged Account Management</text></g><g><rect x="0" y="480.00000000000006" height="14.999999999999943" width="5" fill="#000"></rect><text x="11" y="487.5" dy="0.35em" text-anchor="start">Restrict Registry Permissions</text></g><g><rect x="0" y="265.0000000000001" height="45" width="5" fill="#000"></rect><text x="11" y="287.5000000000001" dy="0.35em" text-anchor="start">SSL/TLS Inspection</text></g><g><rect x="421" y="485.00000000000006" height="15" width="5" fill="#000"></rect><text x="415" y="492.50000000000006" dy="0.35em" text-anchor="end">modify registry</text></g><g><rect x="421" y="340" height="30" width="5" fill="#000"></rect><text x="415" y="355" dy="0.35em" text-anchor="end">multi-hop proxy</text></g><g><rect x="421" y="99.99999999999997" height="89.99999999999994" width="5" fill="#000"></rect><text x="415" y="144.99999999999994" dy="0.35em" text-anchor="end">obfuscated files or information</text></g><g><rect x="421" y="270" height="59.99999999999997" width="5" fill="#000"></rect><text x="415" y="300" dy="0.35em" text-anchor="end">process injection</text></g><g><rect x="421" y="199.99999999999991" height="60.000000000000114" width="5" fill="#000"></rect><text x="415" y="229.99999999999997" dy="0.35em" text-anchor="end">remote file copy</text></g><g><rect x="421" y="380" height="30" width="5" fill="#000"></rect><text x="415" y="395" dy="0.35em" text-anchor="end">rundll32</text></g><g><rect x="421" y="460" height="15.000000000000057" width="5" fill="#000"></rect><text x="415" y="467.5" dy="0.35em" text-anchor="end">software packing</text></g><g><rect x="421" y="420" height="30" width="5" fill="#000"></rect><text x="415" y="435" dy="0.35em" text-anchor="end">standard application layer protocol</text></g><g><rect x="421" y="-2.842170943040401e-14" height="90" width="5" fill="#000"></rect><text x="415" y="44.99999999999997" dy="0.35em" text-anchor="end">standard cryptographic protocol</text></g></g></g></svg>