<svg width="847" height="520" xmlns="http://www.w3.org/2000/svg" version="1.1"><g transform="translate(0, 10)"><g class="links" fill="none" stroke-opacity="0.4"><path d="M5,342.50000000000034C213,342.50000000000034,213,282.4999999999998,421,282.4999999999998" stroke-width="75" style="stroke: rgb(191, 105, 105);"></path><path d="M5,415.0000000000002C213,415.0000000000002,213,405.00000000000017,421,405.00000000000017" stroke-width="50" style="stroke: rgb(191, 169, 105);"></path><path d="M5,475.0000000000002C213,475.0000000000002,213,455.00000000000017,421,455.00000000000017" stroke-width="50" style="stroke: rgb(148, 191, 105);"></path><path d="M5,257.50000000000034C213,257.50000000000034,213,207.49999999999977,421,207.49999999999977" stroke-width="75" style="stroke: rgb(105, 191, 126);"></path><path d="M5,99.99999999999991C213,99.99999999999991,213,355.00000000000017,421,355.00000000000017" stroke-width="50" style="stroke: rgb(105, 191, 191);"></path><path d="M5,37.499999999999915C213,37.499999999999915,213,57.49999999999977,421,57.49999999999977" stroke-width="75" style="stroke: rgb(105, 191, 191);"></path><path d="M5,172.49999999999991C213,172.49999999999991,213,132.49999999999977,421,132.49999999999977" stroke-width="75" style="stroke: rgb(105, 126, 191);"></path><path d="M426,169.99999999999977C634,169.99999999999977,634,164.99999999999983,842,164.99999999999983" stroke-width="300" style="stroke: rgb(148, 105, 191);"></path><path d="M426,442.50000000000017C634,442.50000000000017,634,447.5000000000002,842,447.5000000000002" stroke-width="75" style="stroke: rgb(191, 105, 169);"></path><path d="M426,367.50000000000017C634,367.50000000000017,634,362.50000000000017,842,362.50000000000017" stroke-width="75" style="stroke: rgb(191, 105, 169);"></path></g><g class="nodes" font-family="Arial, Helvetica" font-size="10"><g><rect x="842" y="410.0000000000002" height="74.99999999999997" width="5" fill="#000"></rect><text x="836" y="447.5000000000002" dy="0.35em" text-anchor="end">dll monitoring</text></g><g><rect x="842" y="325.00000000000017" height="75.00000000000003" width="5" fill="#000"></rect><text x="836" y="362.50000000000017" dy="0.35em" text-anchor="end">loaded dlls</text></g><g><rect x="842" y="14.99999999999983" height="300.00000000000034" width="5" fill="#000"></rect><text x="836" y="165" dy="0.35em" text-anchor="end">windows event logs</text></g><g><rect x="0" y="305.00000000000034" height="74.99999999999986" width="5" fill="#000"></rect><text x="11" y="342.5000000000003" dy="0.35em" text-anchor="start">Audit</text></g><g><rect x="0" y="390.0000000000002" height="49.99999999999998" width="5" fill="#000"></rect><text x="11" y="415.0000000000002" dy="0.35em" text-anchor="start">Code Signing</text></g><g><rect x="0" y="450.0000000000002" height="49.999999999999936" width="5" fill="#000"></rect><text x="11" y="475.00000000000017" dy="0.35em" text-anchor="start">Disable or Remove Feature or Program</text></g><g><rect x="0" y="220.0000000000003" height="75" width="5" fill="#000"></rect><text x="11" y="257.50000000000034" dy="0.35em" text-anchor="start">Operating System Configuration</text></g><g><rect x="0" y="-8.526512829121202e-14" height="125" width="5" fill="#000"></rect><text x="11" y="62.499999999999915" dy="0.35em" text-anchor="start">Privileged Account Management</text></g><g><rect x="0" y="134.99999999999991" height="75.0000000000004" width="5" fill="#000"></rect><text x="11" y="172.5000000000001" dy="0.35em" text-anchor="start">User Account Management</text></g><g><rect x="421" y="330.00000000000017" height="150.00000000000006" width="5" fill="#000"></rect><text x="415" y="405.0000000000002" dy="0.35em" text-anchor="end">powershell</text></g><g><rect x="421" y="19.999999999999773" height="300.0000000000004" width="5" fill="#000"></rect><text x="415" y="169.99999999999997" dy="0.35em" text-anchor="end">scheduled task</text></g></g></g></svg>