<svg width="847" height="520" xmlns="http://www.w3.org/2000/svg" version="1.1"><g transform="translate(0, 10)"><g class="links" fill="none" stroke-opacity="0.4"><path d="M5,144.0625C213,144.0625,213,134.68750000000023,421,134.68750000000023" stroke-width="73.125" style="stroke: rgb(191, 105, 105);"></path><path d="M5,186.71875C213,186.71875,213,456.7187499999999,421,456.7187499999999" stroke-width="12.1875" style="stroke: rgb(191, 105, 105);"></path><path d="M5,330.31250000000006C213,330.31250000000006,213,51.56249999999994,421,51.56249999999994" stroke-width="24.375" style="stroke: rgb(191, 130, 105);"></path><path d="M5,427.34374999999994C213,427.34374999999994,213,387.9687499999999,421,387.9687499999999" stroke-width="12.1875" style="stroke: rgb(191, 154, 105);"></path><path d="M5,295.93750000000006C213,295.93750000000006,213,276.5625000000003,421,276.5625000000003" stroke-width="24.375" style="stroke: rgb(191, 179, 105);"></path><path d="M5,364.68750000000006C213,364.68750000000006,213,300.9375000000003,421,300.9375000000003" stroke-width="24.375" style="stroke: rgb(179, 191, 105);"></path><path d="M5,18.28125000000003C213,18.28125000000003,213,199.53125000000028,421,199.53125000000028" stroke-width="36.5625" style="stroke: rgb(154, 191, 105);"></path><path d="M5,60.93750000000003C213,60.93750000000003,213,347.5000000000002,421,347.5000000000002" stroke-width="48.75" style="stroke: rgb(154, 191, 105);"></path><path d="M5,91.40625000000003C213,91.40625000000003,213,478.90625,421,478.90625" stroke-width="12.1875" style="stroke: rgb(154, 191, 105);"></path><path d="M5,449.53124999999994C213,449.53124999999994,213,400.1562499999999,421,400.1562499999999" stroke-width="12.1875" style="stroke: rgb(130, 191, 105);"></path><path d="M5,261.5625C213,261.5625,213,27.187499999999943,421,27.187499999999943" stroke-width="24.375" style="stroke: rgb(105, 191, 105);"></path><path d="M5,471.71874999999994C213,471.71874999999994,213,422.3437499999999,421,422.3437499999999" stroke-width="12.1875" style="stroke: rgb(105, 191, 130);"></path><path d="M5,221.09375C213,221.09375,213,236.09375000000028,421,236.09375000000028" stroke-width="36.5625" style="stroke: rgb(105, 191, 154);"></path><path d="M5,399.0625C213,399.0625,213,75.93749999999994,421,75.93749999999994" stroke-width="24.375" style="stroke: rgb(105, 191, 179);"></path><path d="M5,493.90624999999994C213,493.90624999999994,213,434.5312499999999,421,434.5312499999999" stroke-width="12.1875" style="stroke: rgb(105, 179, 191);"></path><path d="M426,152.96875000000023C634,152.96875000000023,634,449.5312500000001,842,449.5312500000001" stroke-width="12.1875" style="stroke: rgb(105, 154, 191);"></path><path d="M426,140.78125000000023C634,140.78125000000023,634,368.5937500000002,842,368.5937500000002" stroke-width="12.1875" style="stroke: rgb(105, 154, 191);"></path><path d="M426,165.15625000000023C634,165.15625000000023,634,483.9062500000001,842,483.9062500000001" stroke-width="12.1875" style="stroke: rgb(105, 154, 191);"></path><path d="M426,104.21875000000023C634,104.21875000000023,634,216.71874999999986,842,216.71874999999986" stroke-width="12.1875" style="stroke: rgb(105, 154, 191);"></path><path d="M426,116.40625000000023C634,116.40625000000023,634,275.4687499999999,842,275.4687499999999" stroke-width="12.1875" style="stroke: rgb(105, 154, 191);"></path><path d="M426,128.59375000000023C634,128.59375000000023,634,322.0312500000002,842,322.0312500000002" stroke-width="12.1875" style="stroke: rgb(105, 154, 191);"></path><path d="M426,456.7187499999999C634,456.7187499999999,634,461.7187500000001,842,461.7187500000001" stroke-width="12.1875" style="stroke: rgb(105, 130, 191);"></path><path d="M426,51.56249999999994C634,51.56249999999994,634,46.56249999999994,842,46.56249999999994" stroke-width="73.125" style="stroke: rgb(105, 105, 191);"></path><path d="M426,394.0624999999999C634,394.0624999999999,634,340.3125000000002,842,340.3125000000002" stroke-width="24.375" style="stroke: rgb(130, 105, 191);"></path><path d="M426,288.7500000000003C634,288.7500000000003,634,117.49999999999983,842,117.49999999999983" stroke-width="48.75" style="stroke: rgb(154, 105, 191);"></path><path d="M426,242.18750000000028C634,242.18750000000028,634,386.8750000000002,842,386.8750000000002" stroke-width="24.375" style="stroke: rgb(179, 105, 191);"></path><path d="M426,193.43750000000028C634,193.43750000000028,634,164.06249999999986,842,164.06249999999986" stroke-width="24.375" style="stroke: rgb(179, 105, 191);"></path><path d="M426,217.81250000000028C634,217.81250000000028,634,293.7499999999999,842,293.7499999999999" stroke-width="24.375" style="stroke: rgb(179, 105, 191);"></path><path d="M426,335.3125000000002C634,335.3125000000002,634,188.43749999999986,842,188.43749999999986" stroke-width="24.375" style="stroke: rgb(191, 105, 179);"></path><path d="M426,359.6875000000002C634,359.6875000000002,634,234.99999999999986,842,234.99999999999986" stroke-width="24.375" style="stroke: rgb(191, 105, 179);"></path><path d="M426,478.90625C634,478.90625,634,253.28124999999986,842,253.28124999999986" stroke-width="12.1875" style="stroke: rgb(191, 105, 154);"></path><path d="M426,428.4374999999999C634,428.4374999999999,634,421.2500000000001,842,421.2500000000001" stroke-width="24.375" style="stroke: rgb(191, 105, 130);"></path></g><g class="nodes" font-family="Arial, Helvetica" font-size="10"><g><rect x="842" y="409.0625000000001" height="24.375" width="5" fill="#000"></rect><text x="836" y="421.2500000000001" dy="0.35em" text-anchor="end">anti-virus</text></g><g><rect x="842" y="443.4375000000001" height="24.375" width="5" fill="#000"></rect><text x="836" y="455.6250000000001" dy="0.35em" text-anchor="end">binary file metadata</text></g><g><rect x="842" y="93.12499999999983" height="48.75000000000002" width="5" fill="#000"></rect><text x="836" y="117.49999999999984" dy="0.35em" text-anchor="end">data loss prevention</text></g><g><rect x="842" y="362.5000000000002" height="36.562499999999886" width="5" fill="#000"></rect><text x="836" y="380.78125000000017" dy="0.35em" text-anchor="end">malware reverse engineering</text></g><g><rect x="842" y="151.87499999999986" height="48.75" width="5" fill="#000"></rect><text x="836" y="176.24999999999986" dy="0.35em" text-anchor="end">netflow/enclave netflow</text></g><g><rect x="842" y="477.8125000000001" height="12.1875" width="5" fill="#000"></rect><text x="836" y="483.9062500000001" dy="0.35em" text-anchor="end">network intrusion detection system</text></g><g><rect x="842" y="210.62499999999986" height="48.75" width="5" fill="#000"></rect><text x="836" y="234.99999999999986" dy="0.35em" text-anchor="end">network protocol analysis</text></g><g><rect x="842" y="269.3749999999999" height="36.56250000000034" width="5" fill="#000"></rect><text x="836" y="287.65625000000006" dy="0.35em" text-anchor="end">ssl/tls inspection</text></g><g><rect x="842" y="9.999999999999943" height="73.12499999999989" width="5" fill="#000"></rect><text x="836" y="46.562499999999886" dy="0.35em" text-anchor="end">system calls</text></g><g><rect x="842" y="315.9375000000002" height="36.5625" width="5" fill="#000"></rect><text x="836" y="334.2187500000002" dy="0.35em" text-anchor="end">windows event logs</text></g><g><rect x="0" y="107.5" height="85.3125" width="5" fill="#000"></rect><text x="11" y="150.15625" dy="0.35em" text-anchor="start">Antivirus/Antimalware</text></g><g><rect x="0" y="318.12500000000006" height="24.375" width="5" fill="#000"></rect><text x="11" y="330.31250000000006" dy="0.35em" text-anchor="start">Audit</text></g><g><rect x="0" y="421.24999999999994" height="12.1875" width="5" fill="#000"></rect><text x="11" y="427.34374999999994" dy="0.35em" text-anchor="start">Data Backup</text></g><g><rect x="0" y="283.75000000000006" height="24.375000000000014" width="5" fill="#000"></rect><text x="11" y="295.93750000000006" dy="0.35em" text-anchor="start">Disable or Remove Feature or Program</text></g><g><rect x="0" y="352.50000000000006" height="24.37499999999997" width="5" fill="#000"></rect><text x="11" y="364.68750000000006" dy="0.35em" text-anchor="start">Limit Hardware Installation</text></g><g><rect x="0" y="2.842170943040401e-14" height="97.49999999999997" width="5" fill="#000"></rect><text x="11" y="48.750000000000014" dy="0.35em" text-anchor="start">Network Intrusion Prevention</text></g><g><rect x="0" y="443.43749999999994" height="12.1875" width="5" fill="#000"></rect><text x="11" y="449.53124999999994" dy="0.35em" text-anchor="start">Operating System Configuration</text></g><g><rect x="0" y="249.375" height="24.375000000000057" width="5" fill="#000"></rect><text x="11" y="261.5625" dy="0.35em" text-anchor="start">Privileged Account Management</text></g><g><rect x="0" y="465.62499999999994" height="12.1875" width="5" fill="#000"></rect><text x="11" y="471.71874999999994" dy="0.35em" text-anchor="start">Restrict File and Directory Permissions</text></g><g><rect x="0" y="202.8125" height="36.5625" width="5" fill="#000"></rect><text x="11" y="221.09375" dy="0.35em" text-anchor="start">SSL/TLS Inspection</text></g><g><rect x="0" y="386.875" height="24.374999999999943" width="5" fill="#000"></rect><text x="11" y="399.0625" dy="0.35em" text-anchor="start">User Account Control</text></g><g><rect x="0" y="487.81249999999994" height="12.187499999999979" width="5" fill="#000"></rect><text x="11" y="493.90624999999994" dy="0.35em" text-anchor="start">User Account Management</text></g><g><rect x="421" y="14.999999999999943" height="73.12500000000028" width="5" fill="#000"></rect><text x="415" y="51.562500000000085" dy="0.35em" text-anchor="end">bypass user account control</text></g><g><rect x="421" y="472.8125" height="12.1875" width="5" fill="#000"></rect><text x="415" y="478.90625" dy="0.35em" text-anchor="end">data obfuscation</text></g><g><rect x="421" y="416.2499999999999" height="24.374999999999993" width="5" fill="#000"></rect><text x="415" y="428.4374999999999" dy="0.35em" text-anchor="end">disabling security tools</text></g><g><rect x="421" y="381.8749999999999" height="24.375" width="5" fill="#000"></rect><text x="415" y="394.0624999999999" dy="0.35em" text-anchor="end">inhibit system recovery</text></g><g><rect x="421" y="98.12500000000023" height="73.12500000000007" width="5" fill="#000"></rect><text x="415" y="134.68750000000026" dy="0.35em" text-anchor="end">obfuscated files or information</text></g><g><rect x="421" y="323.1250000000002" height="48.74999999999969" width="5" fill="#000"></rect><text x="415" y="347.50000000000006" dy="0.35em" text-anchor="end">remote file copy</text></g><g><rect x="421" y="264.3750000000003" height="48.74999999999997" width="5" fill="#000"></rect><text x="415" y="288.7500000000003" dy="0.35em" text-anchor="end">replication through removable media</text></g><g><rect x="421" y="450.6249999999999" height="12.187500000000114" width="5" fill="#000"></rect><text x="415" y="456.71874999999994" dy="0.35em" text-anchor="end">software packing</text></g><g><rect x="421" y="181.25000000000028" height="73.125" width="5" fill="#000"></rect><text x="415" y="217.81250000000028" dy="0.35em" text-anchor="end">standard cryptographic protocol</text></g></g></g></svg>