<svg width="847" height="520" xmlns="http://www.w3.org/2000/svg" version="1.1"><g transform="translate(0, 10)"><g class="links" fill="none" stroke-opacity="0.4"><path d="M5,372.50000000000006C213,372.50000000000006,213,303.7500000000001,421,303.7500000000001" stroke-width="117.5" style="stroke: rgb(191, 105, 105);"></path><path d="M5,245.00000000000009C213,245.00000000000009,213,186.25000000000009,421,186.25000000000009" stroke-width="117.5" style="stroke: rgb(191, 191, 105);"></path><path d="M5,58.74999999999997C213,58.74999999999997,213,68.75000000000009,421,68.75000000000009" stroke-width="117.5" style="stroke: rgb(105, 191, 105);"></path><path d="M5,146.87499999999997C213,146.87499999999997,213,401.8749999999999,421,401.8749999999999" stroke-width="58.75" style="stroke: rgb(105, 191, 105);"></path><path d="M5,470.625C213,470.625,213,460.6249999999999,421,460.6249999999999" stroke-width="58.75" style="stroke: rgb(105, 191, 191);"></path><path d="M426,98.12500000000009C634,98.12500000000009,634,93.12500000000028,842,93.12500000000028" stroke-width="176.25" style="stroke: rgb(105, 105, 191);"></path><path d="M426,274.3750000000001C634,274.3750000000001,634,279.3750000000002,842,279.3750000000002" stroke-width="176.25" style="stroke: rgb(105, 105, 191);"></path><path d="M426,431.2499999999999C634,431.2499999999999,634,436.2500000000001,842,436.2500000000001" stroke-width="117.5" style="stroke: rgb(191, 105, 191);"></path></g><g class="nodes" font-family="Arial, Helvetica" font-size="10"><g><rect x="842" y="5.000000000000284" height="176.24999999999994" width="5" fill="#000"></rect><text x="836" y="93.12500000000026" dy="0.35em" text-anchor="end">dll monitoring</text></g><g><rect x="842" y="191.25000000000023" height="176.2499999999999" width="5" fill="#000"></rect><text x="836" y="279.37500000000017" dy="0.35em" text-anchor="end">loaded dlls</text></g><g><rect x="842" y="377.5000000000001" height="117.4999999999996" width="5" fill="#000"></rect><text x="836" y="436.2499999999999" dy="0.35em" text-anchor="end">netflow/enclave netflow</text></g><g><rect x="0" y="313.75000000000006" height="117.49999999999996" width="5" fill="#000"></rect><text x="11" y="372.50000000000006" dy="0.35em" text-anchor="start">Code Signing</text></g><g><rect x="0" y="186.25000000000009" height="117.49999999999999" width="5" fill="#000"></rect><text x="11" y="245.00000000000009" dy="0.35em" text-anchor="start">Disable or Remove Feature or Program</text></g><g><rect x="0" y="-2.842170943040401e-14" height="176.2500000000001" width="5" fill="#000"></rect><text x="11" y="88.12500000000003" dy="0.35em" text-anchor="start">Privileged Account Management</text></g><g><rect x="0" y="441.25" height="58.75" width="5" fill="#000"></rect><text x="11" y="470.625" dy="0.35em" text-anchor="start">User Account Management</text></g><g><rect x="421" y="10.000000000000085" height="352.49999999999983" width="5" fill="#000"></rect><text x="415" y="186.25" dy="0.35em" text-anchor="end">powershell</text></g><g><rect x="421" y="372.4999999999999" height="117.5" width="5" fill="#000"></rect><text x="415" y="431.2499999999999" dy="0.35em" text-anchor="end">windows management instrumentation</text></g></g></g></svg>