<svg width="847" height="520" xmlns="http://www.w3.org/2000/svg" version="1.1"><g transform="translate(0, 10)"><g class="links" fill="none" stroke-opacity="0.4"><path d="M5,422.6666666666669C213,422.6666666666669,213,326,421,326" stroke-width="28.666666666666668" style="stroke: rgb(191, 105, 105);"></path><path d="M5,461.3333333333336C213,461.3333333333336,213,354.6666666666667,421,354.6666666666667" stroke-width="28.666666666666668" style="stroke: rgb(191, 139, 105);"></path><path d="M5,492.83333333333366C213,492.83333333333366,213,463.50000000000006,421,463.50000000000006" stroke-width="14.333333333333334" style="stroke: rgb(191, 174, 105);"></path><path d="M5,345.3333333333335C213,345.3333333333335,213,258.66666666666623,421,258.66666666666623" stroke-width="28.666666666666668" style="stroke: rgb(174, 191, 105);"></path><path d="M5,128.9999999999996C213,128.9999999999996,213,393.33333333333337,421,393.33333333333337" stroke-width="28.666666666666668" style="stroke: rgb(139, 191, 105);"></path><path d="M5,157.6666666666663C213,157.6666666666663,213,432.00000000000006,421,432.00000000000006" stroke-width="28.666666666666668" style="stroke: rgb(139, 191, 105);"></path><path d="M5,100.33333333333293C213,100.33333333333293,213,201.33333333333292,421,201.33333333333292" stroke-width="28.666666666666668" style="stroke: rgb(139, 191, 105);"></path><path d="M5,42.9999999999996C213,42.9999999999996,213,48.00000000000003,421,48.00000000000003" stroke-width="86" style="stroke: rgb(139, 191, 105);"></path><path d="M5,179.16666666666626C213,179.16666666666626,213,487.8333333333334,421,487.8333333333334" stroke-width="14.333333333333334" style="stroke: rgb(139, 191, 105);"></path><path d="M5,306.6666666666661C213,306.6666666666661,213,229.99999999999957,421,229.99999999999957" stroke-width="28.666666666666668" style="stroke: rgb(105, 191, 105);"></path><path d="M5,384.0000000000002C213,384.0000000000002,213,297.3333333333333,421,297.3333333333333" stroke-width="28.666666666666668" style="stroke: rgb(105, 191, 139);"></path><path d="M5,239.33333333333292C213,239.33333333333292,213,134.00000000000003,421,134.00000000000003" stroke-width="86" style="stroke: rgb(105, 191, 174);"></path><path d="M426,347.5C634,347.5,634,410.5,842,410.5" stroke-width="43" style="stroke: rgb(105, 174, 191);"></path><path d="M426,304.5C634,304.5,634,357.5,842,357.5" stroke-width="43" style="stroke: rgb(105, 174, 191);"></path><path d="M426,463.50000000000006C634,463.50000000000006,634,487.8333333333333,842,487.8333333333333" stroke-width="14.333333333333334" style="stroke: rgb(105, 139, 191);"></path><path d="M426,208.49999999999957C634,208.49999999999957,634,83.83333333333334,842,83.83333333333334" stroke-width="43" style="stroke: rgb(105, 105, 191);"></path><path d="M426,251.49999999999957C634,251.49999999999957,634,222.83333333333331,842,222.83333333333331" stroke-width="43" style="stroke: rgb(105, 105, 191);"></path><path d="M426,400.50000000000006C634,400.50000000000006,634,449.1666666666667,842,449.1666666666667" stroke-width="14.333333333333334" style="stroke: rgb(139, 105, 191);"></path><path d="M426,386.16666666666674C634,386.16666666666674,634,112.50000000000001,842,112.50000000000001" stroke-width="14.333333333333334" style="stroke: rgb(139, 105, 191);"></path><path d="M426,439.16666666666674C634,439.16666666666674,634,463.5,842,463.5" stroke-width="14.333333333333334" style="stroke: rgb(174, 105, 191);"></path><path d="M426,424.8333333333334C634,424.8333333333334,634,126.83333333333334,842,126.83333333333334" stroke-width="14.333333333333334" style="stroke: rgb(174, 105, 191);"></path><path d="M426,33.6666666666667C634,33.6666666666667,634,33.66666666666667,842,33.66666666666667" stroke-width="57.333333333333336" style="stroke: rgb(191, 105, 174);"></path><path d="M426,91.00000000000003C634,91.00000000000003,634,172.66666666666663,842,172.66666666666663" stroke-width="57.333333333333336" style="stroke: rgb(191, 105, 174);"></path><path d="M426,148.33333333333337C634,148.33333333333337,634,297.3333333333334,842,297.3333333333334" stroke-width="57.333333333333336" style="stroke: rgb(191, 105, 174);"></path><path d="M426,487.8333333333334C634,487.8333333333334,634,251.49999999999997,842,251.49999999999997" stroke-width="14.333333333333334" style="stroke: rgb(191, 105, 139);"></path></g><g class="nodes" font-family="Arial, Helvetica" font-size="10"><g><rect x="842" y="389" height="42.99999999999999" width="5" fill="#000"></rect><text x="836" y="410.5" dy="0.35em" text-anchor="end">dll monitoring</text></g><g><rect x="842" y="336" height="43.000000000000014" width="5" fill="#000"></rect><text x="836" y="357.5" dy="0.35em" text-anchor="end">loaded dlls</text></g><g><rect x="842" y="442" height="28.666666666666657" width="5" fill="#000"></rect><text x="836" y="456.3333333333333" dy="0.35em" text-anchor="end">malware reverse engineering</text></g><g><rect x="842" y="5" height="128.99999999999997" width="5" fill="#000"></rect><text x="836" y="69.49999999999999" dy="0.35em" text-anchor="end">netflow/enclave netflow</text></g><g><rect x="842" y="143.99999999999997" height="114.66666666666674" width="5" fill="#000"></rect><text x="836" y="201.33333333333334" dy="0.35em" text-anchor="end">network protocol analysis</text></g><g><rect x="842" y="268.66666666666674" height="57.33333333333326" width="5" fill="#000"></rect><text x="836" y="297.33333333333337" dy="0.35em" text-anchor="end">ssl/tls inspection</text></g><g><rect x="842" y="480.66666666666663" height="14.333333333333371" width="5" fill="#000"></rect><text x="836" y="487.8333333333333" dy="0.35em" text-anchor="end">windows event logs</text></g><g><rect x="0" y="408.3333333333336" height="28.666666666666686" width="5" fill="#000"></rect><text x="11" y="422.66666666666697" dy="0.35em" text-anchor="start">Code Signing</text></g><g><rect x="0" y="447.0000000000003" height="28.66666666666667" width="5" fill="#000"></rect><text x="11" y="461.3333333333336" dy="0.35em" text-anchor="start">Disable or Remove Feature or Program</text></g><g><rect x="0" y="485.66666666666697" height="14.333333333333371" width="5" fill="#000"></rect><text x="11" y="492.83333333333366" dy="0.35em" text-anchor="start">Execution Prevention</text></g><g><rect x="0" y="331.00000000000017" height="28.666666666666742" width="5" fill="#000"></rect><text x="11" y="345.33333333333354" dy="0.35em" text-anchor="start">Filter Network Traffic</text></g><g><rect x="0" y="-3.979039320256561e-13" height="186.33333333333331" width="5" fill="#000"></rect><text x="11" y="93.16666666666626" dy="0.35em" text-anchor="start">Network Intrusion Prevention</text></g><g><rect x="0" y="292.3333333333328" height="28.666666666667368" width="5" fill="#000"></rect><text x="11" y="306.6666666666665" dy="0.35em" text-anchor="start">Network Segmentation</text></g><g><rect x="0" y="369.6666666666669" height="28.666666666666714" width="5" fill="#000"></rect><text x="11" y="384.0000000000003" dy="0.35em" text-anchor="start">Privileged Account Management</text></g><g><rect x="0" y="196.33333333333292" height="85.99999999999989" width="5" fill="#000"></rect><text x="11" y="239.33333333333286" dy="0.35em" text-anchor="start">Restrict Web-Based Content</text></g><g><rect x="421" y="379.00000000000006" height="28.666666666666686" width="5" fill="#000"></rect><text x="415" y="393.33333333333337" dy="0.35em" text-anchor="end">custom cryptographic protocol</text></g><g><rect x="421" y="480.66666666666674" height="14.333333333333258" width="5" fill="#000"></rect><text x="415" y="487.83333333333337" dy="0.35em" text-anchor="end">data obfuscation</text></g><g><rect x="421" y="186.99999999999957" height="86.0000000000004" width="5" fill="#000"></rect><text x="415" y="229.99999999999977" dy="0.35em" text-anchor="end">exfiltration over alternative protocol</text></g><g><rect x="421" y="456.33333333333337" height="14.333333333333371" width="5" fill="#000"></rect><text x="415" y="463.50000000000006" dy="0.35em" text-anchor="end">hidden window</text></g><g><rect x="421" y="283" height="86.00000000000006" width="5" fill="#000"></rect><text x="415" y="326" dy="0.35em" text-anchor="end">powershell</text></g><g><rect x="421" y="417.66666666666674" height="28.66666666666663" width="5" fill="#000"></rect><text x="415" y="432.00000000000006" dy="0.35em" text-anchor="end">standard application layer protocol</text></g><g><rect x="421" y="5.000000000000028" height="171.99999999999955" width="5" fill="#000"></rect><text x="415" y="90.9999999999998" dy="0.35em" text-anchor="end">web service</text></g></g></g></svg>