<svg width="847" height="520" xmlns="http://www.w3.org/2000/svg" version="1.1"><g transform="translate(0, 10)"><g class="links" fill="none" stroke-opacity="0.4"><path d="M5,58.74999999999997C213,58.74999999999997,213,58.749999999999886,421,58.749999999999886" stroke-width="117.5" style="stroke: rgb(191, 105, 105);"></path><path d="M5,146.87499999999997C213,146.87499999999997,213,156.8750000000001,421,156.8750000000001" stroke-width="58.75" style="stroke: rgb(191, 105, 105);"></path><path d="M5,234.99999999999997C213,234.99999999999997,213,313.75000000000017,421,313.75000000000017" stroke-width="117.5" style="stroke: rgb(191, 105, 105);"></path><path d="M5,333.125C213,333.125,213,215.6250000000001,421,215.6250000000001" stroke-width="58.75" style="stroke: rgb(191, 169, 105);"></path><path d="M5,401.87500000000006C213,401.87500000000006,213,411.87500000000017,421,411.87500000000017" stroke-width="58.75" style="stroke: rgb(148, 191, 105);"></path><path d="M5,470.62500000000006C213,470.62500000000006,213,470.62500000000017,421,470.62500000000017" stroke-width="58.75" style="stroke: rgb(105, 191, 126);"></path><path d="M426,88.12499999999989C634,88.12499999999989,634,465.6249999999999,842,465.6249999999999" stroke-width="58.75" style="stroke: rgb(105, 191, 191);"></path><path d="M426,29.374999999999886C634,29.374999999999886,634,34.374999999999886,842,34.374999999999886" stroke-width="58.75" style="stroke: rgb(105, 191, 191);"></path><path d="M426,186.2500000000001C634,186.2500000000001,634,122.49999999999989,842,122.49999999999989" stroke-width="117.5" style="stroke: rgb(105, 126, 191);"></path><path d="M426,313.75000000000017C634,313.75000000000017,634,239.9999999999999,842,239.9999999999999" stroke-width="117.5" style="stroke: rgb(148, 105, 191);"></path><path d="M426,441.25000000000017C634,441.25000000000017,634,367.4999999999999,842,367.4999999999999" stroke-width="117.5" style="stroke: rgb(191, 105, 169);"></path></g><g class="nodes" font-family="Arial, Helvetica" font-size="10"><g><rect x="842" y="308.7499999999999" height="117.5" width="5" fill="#000"></rect><text x="836" y="367.4999999999999" dy="0.35em" text-anchor="end">anti-virus</text></g><g><rect x="842" y="436.2499999999999" height="58.75000000000023" width="5" fill="#000"></rect><text x="836" y="465.625" dy="0.35em" text-anchor="end">malware reverse engineering</text></g><g><rect x="842" y="4.999999999999886" height="293.75" width="5" fill="#000"></rect><text x="836" y="151.8749999999999" dy="0.35em" text-anchor="end">netflow/enclave netflow</text></g><g><rect x="0" y="-2.842170943040401e-14" height="293.75" width="5" fill="#000"></rect><text x="11" y="146.87499999999997" dy="0.35em" text-anchor="start">Network Intrusion Prevention</text></g><g><rect x="0" y="303.75" height="58.75000000000006" width="5" fill="#000"></rect><text x="11" y="333.125" dy="0.35em" text-anchor="start">Network Segmentation</text></g><g><rect x="0" y="372.50000000000006" height="58.750000000000014" width="5" fill="#000"></rect><text x="11" y="401.87500000000006" dy="0.35em" text-anchor="start">Restrict File and Directory Permissions</text></g><g><rect x="0" y="441.25000000000006" height="58.750000000000014" width="5" fill="#000"></rect><text x="11" y="470.62500000000006" dy="0.35em" text-anchor="start">User Account Management</text></g><g><rect x="421" y="127.50000000000011" height="117.50000000000006" width="5" fill="#000"></rect><text x="415" y="186.25000000000014" dy="0.35em" text-anchor="end">commonly used port</text></g><g><rect x="421" y="255.00000000000017" height="117.5" width="5" fill="#000"></rect><text x="415" y="313.75000000000017" dy="0.35em" text-anchor="end">connection proxy</text></g><g><rect x="421" y="-1.1368683772161603e-13" height="117.50000000000023" width="5" fill="#000"></rect><text x="415" y="58.75" dy="0.35em" text-anchor="end">custom cryptographic protocol</text></g><g><rect x="421" y="382.50000000000017" height="117.49999999999997" width="5" fill="#000"></rect><text x="415" y="441.25000000000017" dy="0.35em" text-anchor="end">disabling security tools</text></g></g></g></svg>