<svg width="847" height="520" xmlns="http://www.w3.org/2000/svg" version="1.1"><g transform="translate(0, 10)"><g class="links" fill="none" stroke-opacity="0.4"><path d="M5,177.69230769230774C213,177.69230769230774,213,203.46153846153834,421,203.46153846153834" stroke-width="94.61538461538461" style="stroke: rgb(191, 105, 105);"></path><path d="M5,282.3076923076924C213,282.3076923076924,213,349.61538461538464,421,349.61538461538464" stroke-width="31.53846153846154" style="stroke: rgb(191, 142, 105);"></path><path d="M5,250.76923076923086C213,250.76923076923086,213,35.76923076923049,421,35.76923076923049" stroke-width="31.53846153846154" style="stroke: rgb(191, 142, 105);"></path><path d="M5,323.846153846154C213,323.846153846154,213,67.30769230769202,421,67.30769230769202" stroke-width="31.53846153846154" style="stroke: rgb(191, 179, 105);"></path><path d="M5,365.38461538461553C213,365.38461538461553,213,98.84615384615357,421,98.84615384615357" stroke-width="31.53846153846154" style="stroke: rgb(166, 191, 105);"></path><path d="M5,406.9230769230771C213,406.9230769230771,213,381.1538461538462,421,381.1538461538462" stroke-width="31.53846153846154" style="stroke: rgb(130, 191, 105);"></path><path d="M5,104.61538461538463C213,104.61538461538463,213,464.23076923076945,421,464.23076923076945" stroke-width="31.53846153846154" style="stroke: rgb(105, 191, 117);"></path><path d="M5,80.96153846153847C213,80.96153846153847,213,414.8076923076923,421,414.8076923076923" stroke-width="15.76923076923077" style="stroke: rgb(105, 191, 117);"></path><path d="M5,41.53846153846154C213,41.53846153846154,213,292.30769230769226,421,292.30769230769226" stroke-width="63.07692307692308" style="stroke: rgb(105, 191, 117);"></path><path d="M5,482.11538461538464C213,482.11538461538464,213,430.5769230769231,421,430.5769230769231" stroke-width="15.76923076923077" style="stroke: rgb(105, 191, 154);"></path><path d="M5,448.4615384615386C213,448.4615384615386,213,130.3846153846151,421,130.3846153846151" stroke-width="31.53846153846154" style="stroke: rgb(105, 191, 191);"></path><path d="M426,211.34615384615373C634,211.34615384615373,634,440.57692307692287,842,440.57692307692287" stroke-width="15.76923076923077" style="stroke: rgb(105, 154, 191);"></path><path d="M426,195.57692307692295C634,195.57692307692295,634,315.9615384615384,842,315.9615384615384" stroke-width="15.76923076923077" style="stroke: rgb(105, 154, 191);"></path><path d="M426,227.1153846153845C634,227.1153846153845,634,466.3461538461537,842,466.3461538461537" stroke-width="15.76923076923077" style="stroke: rgb(105, 154, 191);"></path><path d="M426,179.80769230769218C634,179.80769230769218,634,258.6538461538461,842,258.6538461538461" stroke-width="15.76923076923077" style="stroke: rgb(105, 154, 191);"></path><path d="M426,242.88461538461527C634,242.88461538461527,634,492.1153846153845,842,492.1153846153845" stroke-width="15.76923076923077" style="stroke: rgb(105, 154, 191);"></path><path d="M426,164.0384615384614C634,164.0384615384614,634,70.96153846153861,842,70.96153846153861" stroke-width="15.76923076923077" style="stroke: rgb(105, 154, 191);"></path><path d="M426,381.1538461538462C634,381.1538461538462,634,406.92307692307685,842,406.92307692307685" stroke-width="31.53846153846154" style="stroke: rgb(105, 117, 191);"></path><path d="M426,349.61538461538464C634,349.61538461538464,634,365.38461538461536,842,365.38461538461536" stroke-width="31.53846153846154" style="stroke: rgb(105, 117, 191);"></path><path d="M426,114.61538461538433C634,114.61538461538433,634,209.2307692307694,842,209.2307692307694" stroke-width="63.07692307692308" style="stroke: rgb(130, 105, 191);"></path><path d="M426,51.538461538461256C634,51.538461538461256,634,31.538461538461682,842,31.538461538461682" stroke-width="63.07692307692308" style="stroke: rgb(130, 105, 191);"></path><path d="M426,472.1153846153848C634,472.1153846153848,634,331.73076923076917,842,331.73076923076917" stroke-width="15.76923076923077" style="stroke: rgb(166, 105, 191);"></path><path d="M426,456.34615384615404C634,456.34615384615404,634,159.8076923076925,842,159.8076923076925" stroke-width="15.76923076923077" style="stroke: rgb(166, 105, 191);"></path><path d="M426,422.69230769230774C634,422.69230769230774,634,136.15384615384633,842,136.15384615384633" stroke-width="31.53846153846154" style="stroke: rgb(191, 105, 179);"></path><path d="M426,276.5384615384615C634,276.5384615384615,634,104.61538461538478,842,104.61538461538478" stroke-width="31.53846153846154" style="stroke: rgb(191, 105, 142);"></path><path d="M426,308.07692307692304C634,308.07692307692304,634,282.30769230769226,842,282.30769230769226" stroke-width="31.53846153846154" style="stroke: rgb(191, 105, 142);"></path></g><g class="nodes" font-family="Arial, Helvetica" font-size="10"><g><rect x="842" y="391.1538461538461" height="31.538461538461434" width="5" fill="#000"></rect><text x="836" y="406.9230769230768" dy="0.35em" text-anchor="end">anti-virus</text></g><g><rect x="842" y="432.6923076923075" height="15.76923076923083" width="5" fill="#000"></rect><text x="836" y="440.5769230769229" dy="0.35em" text-anchor="end">binary file metadata</text></g><g><rect x="842" y="177.69230769230785" height="63.07692307692287" width="5" fill="#000"></rect><text x="836" y="209.23076923076928" dy="0.35em" text-anchor="end">dll monitoring</text></g><g><rect x="842" y="308.07692307692304" height="31.538461538461547" width="5" fill="#000"></rect><text x="836" y="323.8461538461538" dy="0.35em" text-anchor="end">malware reverse engineering</text></g><g><rect x="842" y="88.84615384615401" height="78.84615384615384" width="5" fill="#000"></rect><text x="836" y="128.26923076923094" dy="0.35em" text-anchor="end">netflow/enclave netflow</text></g><g><rect x="842" y="458.46153846153834" height="15.76923076923083" width="5" fill="#000"></rect><text x="836" y="466.34615384615375" dy="0.35em" text-anchor="end">network intrusion detection system</text></g><g><rect x="842" y="250.76923076923072" height="47.30769230769232" width="5" fill="#000"></rect><text x="836" y="274.4230769230769" dy="0.35em" text-anchor="end">network protocol analysis</text></g><g><rect x="842" y="484.23076923076917" height="15.769230769230717" width="5" fill="#000"></rect><text x="836" y="492.1153846153845" dy="0.35em" text-anchor="end">ssl/tls inspection</text></g><g><rect x="842" y="349.6153846153846" height="31.53846153846149" width="5" fill="#000"></rect><text x="836" y="365.38461538461536" dy="0.35em" text-anchor="end">system calls</text></g><g><rect x="842" y="1.4210854715202004e-13" height="78.84615384615387" width="5" fill="#000"></rect><text x="836" y="39.423076923077076" dy="0.35em" text-anchor="end">windows event logs</text></g><g><rect x="0" y="130.38461538461542" height="94.61538461538467" width="5" fill="#000"></rect><text x="11" y="177.69230769230774" dy="0.35em" text-anchor="start">Antivirus/Antimalware</text></g><g><rect x="0" y="235.00000000000009" height="63.076923076923094" width="5" fill="#000"></rect><text x="11" y="266.53846153846166" dy="0.35em" text-anchor="start">Application Isolation and Sandboxing</text></g><g><rect x="0" y="308.0769230769232" height="31.538461538461547" width="5" fill="#000"></rect><text x="11" y="323.846153846154" dy="0.35em" text-anchor="start">Behavior Prevention on Endpoint</text></g><g><rect x="0" y="349.61538461538476" height="31.538461538461547" width="5" fill="#000"></rect><text x="11" y="365.38461538461553" dy="0.35em" text-anchor="start">Disable or Remove Feature or Program</text></g><g><rect x="0" y="391.1538461538463" height="31.538461538461547" width="5" fill="#000"></rect><text x="11" y="406.9230769230771" dy="0.35em" text-anchor="start">Exploit Protection</text></g><g><rect x="0" y="10" height="110.3846153846154" width="5" fill="#000"></rect><text x="11" y="65.19230769230771" dy="0.35em" text-anchor="start">Network Intrusion Prevention</text></g><g><rect x="0" y="474.2307692307693" height="15.769230769230774" width="5" fill="#000"></rect><text x="11" y="482.11538461538464" dy="0.35em" text-anchor="start">Network Segmentation</text></g><g><rect x="0" y="432.69230769230785" height="31.538461538461434" width="5" fill="#000"></rect><text x="11" y="448.46153846153857" dy="0.35em" text-anchor="start">Software Configuration</text></g><g><rect x="421" y="406.92307692307696" height="31.53846153846169" width="5" fill="#000"></rect><text x="415" y="422.6923076923078" dy="0.35em" text-anchor="end">commonly used port</text></g><g><rect x="421" y="19.999999999999716" height="126.1538461538463" width="5" fill="#000"></rect><text x="415" y="83.07692307692287" dy="0.35em" text-anchor="end">dynamic data exchange</text></g><g><rect x="421" y="333.84615384615387" height="63.076923076923094" width="5" fill="#000"></rect><text x="415" y="365.3846153846154" dy="0.35em" text-anchor="end">exploitation for client execution</text></g><g><rect x="421" y="156.15384615384602" height="94.6153846153847" width="5" fill="#000"></rect><text x="415" y="203.46153846153837" dy="0.35em" text-anchor="end">obfuscated files or information</text></g><g><rect x="421" y="260.7692307692307" height="63.076923076923144" width="5" fill="#000"></rect><text x="415" y="292.30769230769226" dy="0.35em" text-anchor="end">remote file copy</text></g><g><rect x="421" y="448.4615384615387" height="31.538461538461576" width="5" fill="#000"></rect><text x="415" y="464.23076923076945" dy="0.35em" text-anchor="end">standard application layer protocol</text></g></g></g></svg>