<svg width="847" height="520" xmlns="http://www.w3.org/2000/svg" version="1.1"><g transform="translate(0, 10)"><g class="links" fill="none" stroke-opacity="0.4"><path d="M5,307.5000000000002C213,307.5000000000002,213,302.5,421,302.5" stroke-width="115" style="stroke: rgb(191, 105, 105);"></path><path d="M5,182.5000000000002C213,182.5000000000002,213,187.50000000000003,421,187.50000000000003" stroke-width="115" style="stroke: rgb(191, 179, 105);"></path><path d="M5,57.49999999999986C213,57.49999999999986,213,72.50000000000003,421,72.50000000000003" stroke-width="115" style="stroke: rgb(130, 191, 105);"></path><path d="M5,471.2500000000001C213,471.2500000000001,213,456.25,421,456.25" stroke-width="57.5" style="stroke: rgb(105, 191, 154);"></path><path d="M5,403.7500000000001C213,403.7500000000001,213,398.75,421,398.75" stroke-width="57.5" style="stroke: rgb(105, 154, 191);"></path><path d="M426,273.75C634,273.75,634,278.75000000000006,842,278.75000000000006" stroke-width="172.5" style="stroke: rgb(130, 105, 191);"></path><path d="M426,101.25000000000003C634,101.25000000000003,634,96.24999999999994,842,96.24999999999994" stroke-width="172.5" style="stroke: rgb(130, 105, 191);"></path><path d="M426,427.5C634,427.5,634,432.5,842,432.5" stroke-width="115" style="stroke: rgb(191, 105, 179);"></path></g><g class="nodes" font-family="Arial, Helvetica" font-size="10"><g><rect x="842" y="375" height="115.00000000000004" width="5" fill="#000"></rect><text x="836" y="432.5" dy="0.35em" text-anchor="end">anti-virus</text></g><g><rect x="842" y="192.50000000000006" height="172.49999999999997" width="5" fill="#000"></rect><text x="836" y="278.75000000000006" dy="0.35em" text-anchor="end">netflow/enclave netflow</text></g><g><rect x="842" y="9.999999999999943" height="172.5000000000001" width="5" fill="#000"></rect><text x="836" y="96.25" dy="0.35em" text-anchor="end">network protocol analysis</text></g><g><rect x="0" y="250.0000000000002" height="114.99999999999994" width="5" fill="#000"></rect><text x="11" y="307.50000000000017" dy="0.35em" text-anchor="start">Disable or Remove Feature or Program</text></g><g><rect x="0" y="125.0000000000002" height="115" width="5" fill="#000"></rect><text x="11" y="182.5000000000002" dy="0.35em" text-anchor="start">Network Intrusion Prevention</text></g><g><rect x="0" y="-1.4210854715202004e-13" height="115.00000000000034" width="5" fill="#000"></rect><text x="11" y="57.50000000000003" dy="0.35em" text-anchor="start">Network Segmentation</text></g><g><rect x="0" y="442.5000000000001" height="57.499999999999986" width="5" fill="#000"></rect><text x="11" y="471.2500000000001" dy="0.35em" text-anchor="start">Restrict File and Directory Permissions</text></g><g><rect x="0" y="375.0000000000001" height="57.5" width="5" fill="#000"></rect><text x="11" y="403.7500000000001" dy="0.35em" text-anchor="start">User Account Management</text></g><g><rect x="421" y="370" height="114.99999999999994" width="5" fill="#000"></rect><text x="415" y="427.5" dy="0.35em" text-anchor="end">disabling security tools</text></g><g><rect x="421" y="15.000000000000028" height="345" width="5" fill="#000"></rect><text x="415" y="187.50000000000003" dy="0.35em" text-anchor="end">network service scanning</text></g></g></g></svg>