<svg width="847" height="520" xmlns="http://www.w3.org/2000/svg" version="1.1"><g transform="translate(0, 10)"><g class="links" fill="none" stroke-opacity="0.4"><path d="M5,149.99999999999983C213,149.99999999999983,213,170.0000000000002,421,170.0000000000002" stroke-width="60" style="stroke: rgb(191, 105, 105);"></path><path d="M5,305.0000000000001C213,305.0000000000001,213,54.9999999999998,421,54.9999999999998" stroke-width="30" style="stroke: rgb(191, 131, 105);"></path><path d="M5,420.00000000000006C213,420.00000000000006,213,310.0000000000001,421,310.0000000000001" stroke-width="20" style="stroke: rgb(191, 156, 105);"></path><path d="M5,450.00000000000006C213,450.00000000000006,213,330.0000000000001,421,330.0000000000001" stroke-width="20" style="stroke: rgb(191, 182, 105);"></path><path d="M5,495.00000000000006C213,495.00000000000006,213,415,421,415" stroke-width="10" style="stroke: rgb(174, 191, 105);"></path><path d="M5,79.99999999999986C213,79.99999999999986,213,440,421,440" stroke-width="20" style="stroke: rgb(148, 191, 105);"></path><path d="M5,14.999999999999858C213,14.999999999999858,213,225.0000000000002,421,225.0000000000002" stroke-width="30" style="stroke: rgb(148, 191, 105);"></path><path d="M5,104.99999999999986C213,104.99999999999986,213,485.00000000000017,421,485.00000000000017" stroke-width="10" style="stroke: rgb(148, 191, 105);"></path><path d="M5,49.99999999999986C213,49.99999999999986,213,370,421,370" stroke-width="40" style="stroke: rgb(148, 191, 105);"></path><path d="M5,94.99999999999986C213,94.99999999999986,213,464.99999999999994,421,464.99999999999994" stroke-width="10" style="stroke: rgb(148, 191, 105);"></path><path d="M5,345.0000000000001C213,345.0000000000001,213,84.9999999999998,421,84.9999999999998" stroke-width="30" style="stroke: rgb(122, 191, 105);"></path><path d="M5,229.99999999999972C213,229.99999999999972,213,290.0000000000001,421,290.0000000000001" stroke-width="20" style="stroke: rgb(105, 191, 114);"></path><path d="M5,204.99999999999972C213,204.99999999999972,213,24.9999999999998,421,24.9999999999998" stroke-width="30" style="stroke: rgb(105, 191, 114);"></path><path d="M5,475.00000000000006C213,475.00000000000006,213,405,421,405" stroke-width="10" style="stroke: rgb(105, 191, 139);"></path><path d="M5,265C213,265,213,255.0000000000002,421,255.0000000000002" stroke-width="30" style="stroke: rgb(105, 191, 165);"></path><path d="M5,385.0000000000001C213,385.0000000000001,213,114.9999999999998,421,114.9999999999998" stroke-width="30" style="stroke: rgb(105, 191, 191);"></path><path d="M426,185.0000000000002C634,185.0000000000002,634,469.9999999999999,842,469.9999999999999" stroke-width="10" style="stroke: rgb(105, 165, 191);"></path><path d="M426,165.0000000000002C634,165.0000000000002,634,270.0000000000001,842,270.0000000000001" stroke-width="10" style="stroke: rgb(105, 165, 191);"></path><path d="M426,195.0000000000002C634,195.0000000000002,634,489.9999999999999,842,489.9999999999999" stroke-width="10" style="stroke: rgb(105, 165, 191);"></path><path d="M426,155.0000000000002C634,155.0000000000002,634,220.0000000000001,842,220.0000000000001" stroke-width="10" style="stroke: rgb(105, 165, 191);"></path><path d="M426,175.0000000000002C634,175.0000000000002,634,360.00000000000006,842,360.00000000000006" stroke-width="10" style="stroke: rgb(105, 165, 191);"></path><path d="M426,145.0000000000002C634,145.0000000000002,634,130.00000000000006,842,130.00000000000006" stroke-width="10" style="stroke: rgb(105, 165, 191);"></path><path d="M426,69.9999999999998C634,69.9999999999998,634,65.00000000000006,842,65.00000000000006" stroke-width="120" style="stroke: rgb(105, 139, 191);"></path><path d="M426,295.0000000000001C634,295.0000000000001,634,330,842,330" stroke-width="30" style="stroke: rgb(105, 114, 191);"></path><path d="M426,325.0000000000001C634,325.0000000000001,634,410,842,410" stroke-width="30" style="stroke: rgb(105, 114, 191);"></path><path d="M426,410C634,410,634,444.9999999999999,842,444.9999999999999" stroke-width="20" style="stroke: rgb(122, 105, 191);"></path><path d="M426,445C634,445,634,300.0000000000001,842,300.0000000000001" stroke-width="10" style="stroke: rgb(148, 105, 191);"></path><path d="M426,435C634,435,634,190.0000000000001,842,190.0000000000001" stroke-width="10" style="stroke: rgb(148, 105, 191);"></path><path d="M426,240.0000000000002C634,240.0000000000002,634,285.0000000000001,842,285.0000000000001" stroke-width="20" style="stroke: rgb(174, 105, 191);"></path><path d="M426,220.0000000000002C634,220.0000000000002,634,155.0000000000001,842,155.0000000000001" stroke-width="20" style="stroke: rgb(174, 105, 191);"></path><path d="M426,260.0000000000002C634,260.0000000000002,634,375.00000000000006,842,375.00000000000006" stroke-width="20" style="stroke: rgb(174, 105, 191);"></path><path d="M426,485.00000000000017C634,485.00000000000017,634,200.0000000000001,842,200.0000000000001" stroke-width="10" style="stroke: rgb(191, 105, 182);"></path><path d="M426,360C634,360,634,175.0000000000001,842,175.0000000000001" stroke-width="20" style="stroke: rgb(191, 105, 156);"></path><path d="M426,380C634,380,634,235.0000000000001,842,235.0000000000001" stroke-width="20" style="stroke: rgb(191, 105, 156);"></path><path d="M426,464.99999999999994C634,464.99999999999994,634,250.0000000000001,842,250.0000000000001" stroke-width="10" style="stroke: rgb(191, 105, 131);"></path></g><g class="nodes" font-family="Arial, Helvetica" font-size="10"><g><rect x="842" y="464.9999999999999" height="10" width="5" fill="#000"></rect><text x="836" y="469.9999999999999" dy="0.35em" text-anchor="end">binary file metadata</text></g><g><rect x="842" y="434.9999999999999" height="19.999999999999996" width="5" fill="#000"></rect><text x="836" y="444.9999999999999" dy="0.35em" text-anchor="end">data loss prevention</text></g><g><rect x="842" y="315" height="30.000000000000057" width="5" fill="#000"></rect><text x="836" y="330" dy="0.35em" text-anchor="end">dll monitoring</text></g><g><rect x="842" y="395" height="29.999999999999886" width="5" fill="#000"></rect><text x="836" y="409.99999999999994" dy="0.35em" text-anchor="end">loaded dlls</text></g><g><rect x="842" y="265.0000000000001" height="39.999999999999886" width="5" fill="#000"></rect><text x="836" y="285.00000000000006" dy="0.35em" text-anchor="end">malware reverse engineering</text></g><g><rect x="842" y="145.0000000000001" height="60" width="5" fill="#000"></rect><text x="836" y="175.0000000000001" dy="0.35em" text-anchor="end">netflow/enclave netflow</text></g><g><rect x="842" y="484.9999999999999" height="10" width="5" fill="#000"></rect><text x="836" y="489.9999999999999" dy="0.35em" text-anchor="end">network intrusion detection system</text></g><g><rect x="842" y="215.0000000000001" height="40.00000000000003" width="5" fill="#000"></rect><text x="836" y="235.0000000000001" dy="0.35em" text-anchor="end">network protocol analysis</text></g><g><rect x="842" y="355.00000000000006" height="29.999999999999943" width="5" fill="#000"></rect><text x="836" y="370" dy="0.35em" text-anchor="end">ssl/tls inspection</text></g><g><rect x="842" y="5.000000000000057" height="130.00000000000006" width="5" fill="#000"></rect><text x="836" y="70.00000000000009" dy="0.35em" text-anchor="end">windows event logs</text></g><g><rect x="0" y="119.99999999999984" height="59.999999999999886" width="5" fill="#000"></rect><text x="11" y="149.99999999999977" dy="0.35em" text-anchor="start">Antivirus/Antimalware</text></g><g><rect x="0" y="290.0000000000001" height="30" width="5" fill="#000"></rect><text x="11" y="305.0000000000001" dy="0.35em" text-anchor="start">Audit</text></g><g><rect x="0" y="410.00000000000006" height="20" width="5" fill="#000"></rect><text x="11" y="420.00000000000006" dy="0.35em" text-anchor="start">Code Signing</text></g><g><rect x="0" y="440.00000000000006" height="20" width="5" fill="#000"></rect><text x="11" y="450.00000000000006" dy="0.35em" text-anchor="start">Disable or Remove Feature or Program</text></g><g><rect x="0" y="490.00000000000006" height="10.000000000000004" width="5" fill="#000"></rect><text x="11" y="495.00000000000006" dy="0.35em" text-anchor="start">Encrypt Sensitive Information</text></g><g><rect x="0" y="-1.4210854715202004e-13" height="109.99999999999999" width="5" fill="#000"></rect><text x="11" y="54.99999999999985" dy="0.35em" text-anchor="start">Network Intrusion Prevention</text></g><g><rect x="0" y="330.0000000000001" height="30" width="5" fill="#000"></rect><text x="11" y="345.0000000000001" dy="0.35em" text-anchor="start">Operating System Configuration</text></g><g><rect x="0" y="189.99999999999972" height="50.000000000000284" width="5" fill="#000"></rect><text x="11" y="214.99999999999986" dy="0.35em" text-anchor="start">Privileged Account Management</text></g><g><rect x="0" y="470.00000000000006" height="10.000000000000007" width="5" fill="#000"></rect><text x="11" y="475.00000000000006" dy="0.35em" text-anchor="start">Remote Data Storage</text></g><g><rect x="0" y="250" height="30.000000000000142" width="5" fill="#000"></rect><text x="11" y="265.00000000000006" dy="0.35em" text-anchor="start">SSL/TLS Inspection</text></g><g><rect x="0" y="370.0000000000001" height="29.999999999999943" width="5" fill="#000"></rect><text x="11" y="385.0000000000001" dy="0.35em" text-anchor="start">User Account Management</text></g><g><rect x="421" y="400" height="20.000000000000007" width="5" fill="#000"></rect><text x="415" y="410" dy="0.35em" text-anchor="end">automated collection</text></g><g><rect x="421" y="459.99999999999994" height="10.000000000000227" width="5" fill="#000"></rect><text x="415" y="465.00000000000006" dy="0.35em" text-anchor="end">data encoding</text></g><g><rect x="421" y="480.00000000000017" height="10" width="5" fill="#000"></rect><text x="415" y="485.00000000000017" dy="0.35em" text-anchor="end">data transfer size limits</text></g><g><rect x="421" y="140.0000000000002" height="60" width="5" fill="#000"></rect><text x="415" y="170.0000000000002" dy="0.35em" text-anchor="end">obfuscated files or information</text></g><g><rect x="421" y="280.0000000000001" height="59.999999999999886" width="5" fill="#000"></rect><text x="415" y="310.00000000000006" dy="0.35em" text-anchor="end">powershell</text></g><g><rect x="421" y="350" height="40" width="5" fill="#000"></rect><text x="415" y="370" dy="0.35em" text-anchor="end">remote file copy</text></g><g><rect x="421" y="9.999999999999801" height="120.0000000000004" width="5" fill="#000"></rect><text x="415" y="70" dy="0.35em" text-anchor="end">scheduled task</text></g><g><rect x="421" y="430" height="19.999999999999943" width="5" fill="#000"></rect><text x="415" y="440" dy="0.35em" text-anchor="end">standard application layer protocol</text></g><g><rect x="421" y="210.0000000000002" height="59.99999999999994" width="5" fill="#000"></rect><text x="415" y="240.00000000000017" dy="0.35em" text-anchor="end">standard cryptographic protocol</text></g></g></g></svg>