<svg width="847" height="520" xmlns="http://www.w3.org/2000/svg" version="1.1"><g transform="translate(0, 10)"><g class="links" fill="none" stroke-opacity="0.4"><path d="M5,308.2352941176471C213,308.2352941176471,213,85.88235294117646,421,85.88235294117646" stroke-width="151.76470588235293" style="stroke: rgb(191, 105, 105);"></path><path d="M5,419.4117647058824C213,419.4117647058824,213,429.4117647058824,421,429.4117647058824" stroke-width="50.588235294117645" style="stroke: rgb(191, 156, 105);"></path><path d="M5,209.70588235294113C213,209.70588235294113,213,477.35294117647055,421,477.35294117647055" stroke-width="25.294117647058822" style="stroke: rgb(174, 191, 105);"></path><path d="M5,171.76470588235287C213,171.76470588235287,213,368.82352941176475,421,368.82352941176475" stroke-width="50.588235294117645" style="stroke: rgb(174, 191, 105);"></path><path d="M5,133.82352941176464C213,133.82352941176464,213,295.5882352941176,421,295.5882352941176" stroke-width="25.294117647058822" style="stroke: rgb(174, 191, 105);"></path><path d="M5,70.5882352941176C213,70.5882352941176,213,222.35294117647064,421,222.35294117647064" stroke-width="101.17647058823529" style="stroke: rgb(174, 191, 105);"></path><path d="M5,467.3529411764706C213,467.3529411764706,213,320.88235294117646,421,320.88235294117646" stroke-width="25.294117647058822" style="stroke: rgb(122, 191, 105);"></path><path d="M426,98.52941176470588C634,98.52941176470588,634,416.764705882353,842,416.764705882353" stroke-width="25.294117647058822" style="stroke: rgb(105, 191, 139);"></path><path d="M426,22.647058823529413C634,22.647058823529413,634,149.11764705882365,842,149.11764705882365" stroke-width="25.294117647058822" style="stroke: rgb(105, 191, 139);"></path><path d="M426,73.23529411764706C634,73.23529411764706,634,381.4705882352941,842,381.4705882352941" stroke-width="25.294117647058822" style="stroke: rgb(105, 191, 139);"></path><path d="M426,47.94117647058824C634,47.94117647058824,634,235.0000000000001,842,235.0000000000001" stroke-width="25.294117647058822" style="stroke: rgb(105, 191, 139);"></path><path d="M426,123.82352941176471C634,123.82352941176471,634,452.05882352941177,842,452.05882352941177" stroke-width="25.294117647058822" style="stroke: rgb(105, 191, 139);"></path><path d="M426,149.11764705882354C634,149.11764705882354,634,487.35294117647055,842,487.35294117647055" stroke-width="25.294117647058822" style="stroke: rgb(105, 191, 139);"></path><path d="M426,429.4117647058824C634,429.4117647058824,634,333.5294117647059,842,333.5294117647059" stroke-width="50.588235294117645" style="stroke: rgb(105, 191, 191);"></path><path d="M426,477.35294117647055C634,477.35294117647055,634,199.70588235294127,842,199.70588235294127" stroke-width="25.294117647058822" style="stroke: rgb(105, 139, 191);"></path><path d="M426,381.47058823529414C634,381.47058823529414,634,174.41176470588246,842,174.41176470588246" stroke-width="25.294117647058822" style="stroke: rgb(122, 105, 191);"></path><path d="M426,356.1764705882353C634,356.1764705882353,634,113.82352941176475,842,113.82352941176475" stroke-width="25.294117647058822" style="stroke: rgb(122, 105, 191);"></path><path d="M426,308.2352941176471C634,308.2352941176471,634,75.88235294117652,842,75.88235294117652" stroke-width="50.588235294117645" style="stroke: rgb(174, 105, 191);"></path><path d="M426,197.0588235294118C634,197.0588235294118,634,25.29411764705888,842,25.29411764705888" stroke-width="50.588235294117645" style="stroke: rgb(191, 105, 156);"></path><path d="M426,247.64705882352945C634,247.64705882352945,634,272.94117647058835,842,272.94117647058835" stroke-width="50.588235294117645" style="stroke: rgb(191, 105, 156);"></path></g><g class="nodes" font-family="Arial, Helvetica" font-size="10"><g><rect x="842" y="404.1176470588236" height="25.294117647058783" width="5" fill="#000"></rect><text x="836" y="416.764705882353" dy="0.35em" text-anchor="end">binary file metadata</text></g><g><rect x="842" y="308.2352941176471" height="50.58823529411763" width="5" fill="#000"></rect><text x="836" y="333.5294117647059" dy="0.35em" text-anchor="end">loaded dlls</text></g><g><rect x="842" y="136.47058823529423" height="75.88235294117646" width="5" fill="#000"></rect><text x="836" y="174.41176470588246" dy="0.35em" text-anchor="end">malware reverse engineering</text></g><g><rect x="842" y="5.684341886080802e-14" height="126.47058823529417" width="5" fill="#000"></rect><text x="836" y="63.23529411764714" dy="0.35em" text-anchor="end">netflow/enclave netflow</text></g><g><rect x="842" y="368.8235294117647" height="25.294117647058897" width="5" fill="#000"></rect><text x="836" y="381.47058823529414" dy="0.35em" text-anchor="end">network intrusion detection system</text></g><g><rect x="842" y="222.3529411764707" height="75.88235294117635" width="5" fill="#000"></rect><text x="836" y="260.2941176470589" dy="0.35em" text-anchor="end">network protocol analysis</text></g><g><rect x="842" y="439.4117647058824" height="25.294117647058783" width="5" fill="#000"></rect><text x="836" y="452.05882352941177" dy="0.35em" text-anchor="end">ssl/tls inspection</text></g><g><rect x="842" y="474.70588235294116" height="25.294117647058783" width="5" fill="#000"></rect><text x="836" y="487.35294117647055" dy="0.35em" text-anchor="end">windows event logs</text></g><g><rect x="0" y="232.3529411764706" height="151.76470588235293" width="5" fill="#000"></rect><text x="11" y="308.2352941176471" dy="0.35em" text-anchor="start">Antivirus/Antimalware</text></g><g><rect x="0" y="394.11764705882354" height="50.58823529411766" width="5" fill="#000"></rect><text x="11" y="419.4117647058824" dy="0.35em" text-anchor="start">Exploit Protection</text></g><g><rect x="0" y="19.999999999999943" height="202.35294117647067" width="5" fill="#000"></rect><text x="11" y="121.17647058823528" dy="0.35em" text-anchor="start">Network Intrusion Prevention</text></g><g><rect x="0" y="454.7058823529412" height="25.294117647058897" width="5" fill="#000"></rect><text x="11" y="467.35294117647067" dy="0.35em" text-anchor="start">Network Segmentation</text></g><g><rect x="421" y="282.94117647058823" height="50.58823529411768" width="5" fill="#000"></rect><text x="415" y="308.2352941176471" dy="0.35em" text-anchor="end">commonly used port</text></g><g><rect x="421" y="464.70588235294116" height="25.29411764705884" width="5" fill="#000"></rect><text x="415" y="477.3529411764706" dy="0.35em" text-anchor="end">multilayer encryption</text></g><g><rect x="421" y="10" height="151.76470588235298" width="5" fill="#000"></rect><text x="415" y="85.88235294117649" dy="0.35em" text-anchor="end">obfuscated files or information</text></g><g><rect x="421" y="404.11764705882354" height="50.58823529411762" width="5" fill="#000"></rect><text x="415" y="429.4117647058823" dy="0.35em" text-anchor="end">regsvr32</text></g><g><rect x="421" y="171.76470588235298" height="101.17647058823525" width="5" fill="#000"></rect><text x="415" y="222.3529411764706" dy="0.35em" text-anchor="end">remote file copy</text></g><g><rect x="421" y="343.5294117647059" height="50.588235294117624" width="5" fill="#000"></rect><text x="415" y="368.82352941176475" dy="0.35em" text-anchor="end">standard application layer protocol</text></g></g></g></svg>