<svg width="847" height="520" xmlns="http://www.w3.org/2000/svg" version="1.1"><g transform="translate(0, 10)"><g class="links" fill="none" stroke-opacity="0.4"><path d="M5,190.32258064516122C213,190.32258064516122,213,181.45161290322568,421,181.45161290322568" stroke-width="83.2258064516129" style="stroke: rgb(191, 105, 105);"></path><path d="M5,438.38709677419354C213,438.38709677419354,213,340.1612903225807,421,340.1612903225807" stroke-width="27.741935483870968" style="stroke: rgb(191, 139, 105);"></path><path d="M5,342.09677419354847C213,342.09677419354847,213,109.03225806451596,421,109.03225806451596" stroke-width="41.61290322580645" style="stroke: rgb(191, 174, 105);"></path><path d="M5,469.19354838709677C213,469.19354838709677,213,267.74193548387075,421,267.74193548387075" stroke-width="13.870967741935484" style="stroke: rgb(174, 191, 105);"></path><path d="M5,110.96774193548387C213,110.96774193548387,213,443.3870967741937,421,443.3870967741937" stroke-width="27.741935483870968" style="stroke: rgb(139, 191, 105);"></path><path d="M5,69.35483870967741C213,69.35483870967741,213,391.77419354838725,421,391.77419354838725" stroke-width="55.483870967741936" style="stroke: rgb(139, 191, 105);"></path><path d="M5,20.806451612903224C213,20.806451612903224,213,25.806451612903054,421,25.806451612903054" stroke-width="41.61290322580645" style="stroke: rgb(139, 191, 105);"></path><path d="M5,131.7741935483871C213,131.7741935483871,213,474.19354838709694,421,474.19354838709694" stroke-width="13.870967741935484" style="stroke: rgb(139, 191, 105);"></path><path d="M5,262.74193548387103C213,262.74193548387103,213,67.4193548387095,421,67.4193548387095" stroke-width="41.61290322580645" style="stroke: rgb(105, 191, 105);"></path><path d="M5,304.3548387096775C213,304.3548387096775,213,488.0645161290324,421,488.0645161290324" stroke-width="13.870967741935484" style="stroke: rgb(105, 191, 105);"></path><path d="M5,290.483870967742C213,290.483870967742,213,239.9999999999998,421,239.9999999999998" stroke-width="13.870967741935484" style="stroke: rgb(105, 191, 105);"></path><path d="M5,493.06451612903226C213,493.06451612903226,213,281.61290322580624,421,281.61290322580624" stroke-width="13.870967741935484" style="stroke: rgb(105, 191, 139);"></path><path d="M5,400.6451612903227C213,400.6451612903227,213,312.41935483870975,421,312.41935483870975" stroke-width="27.741935483870968" style="stroke: rgb(105, 191, 174);"></path><path d="M5,379.83870967741944C213,379.83870967741944,213,253.8709677419353,421,253.8709677419353" stroke-width="13.870967741935484" style="stroke: rgb(105, 191, 174);"></path><path d="M426,202.25806451612894C634,202.25806451612894,634,469.19354838709677,842,469.19354838709677" stroke-width="13.870967741935484" style="stroke: rgb(105, 174, 191);"></path><path d="M426,188.38709677419345C634,188.38709677419345,634,431.4516129032258,842,431.4516129032258" stroke-width="13.870967741935484" style="stroke: rgb(105, 174, 191);"></path><path d="M426,174.51612903225796C634,174.51612903225796,634,407.5806451612903,842,407.5806451612903" stroke-width="13.870967741935484" style="stroke: rgb(105, 174, 191);"></path><path d="M426,146.774193548387C634,146.774193548387,634,169.5161290322581,842,169.5161290322581" stroke-width="13.870967741935484" style="stroke: rgb(105, 174, 191);"></path><path d="M426,216.12903225806443C634,216.12903225806443,634,493.06451612903214,842,493.06451612903214" stroke-width="13.870967741935484" style="stroke: rgb(105, 174, 191);"></path><path d="M426,160.64516129032248C634,160.64516129032248,634,221.12903225806457,842,221.12903225806457" stroke-width="13.870967741935484" style="stroke: rgb(105, 174, 191);"></path><path d="M426,326.29032258064524C634,326.29032258064524,634,321.2903225806451,842,321.2903225806451" stroke-width="55.483870967741936" style="stroke: rgb(105, 139, 191);"></path><path d="M426,25.806451612903054C634,25.806451612903054,634,20.806451612903395,842,20.806451612903395" stroke-width="41.61290322580645" style="stroke: rgb(105, 105, 191);"></path><path d="M426,109.03225806451596C634,109.03225806451596,634,379.83870967741933,842,379.83870967741933" stroke-width="41.61290322580645" style="stroke: rgb(105, 105, 191);"></path><path d="M426,67.4193548387095C634,67.4193548387095,634,141.77419354838716,842,141.77419354838716" stroke-width="41.61290322580645" style="stroke: rgb(105, 105, 191);"></path><path d="M426,260.806451612903C634,260.806451612903,634,255.8064516129033,842,255.8064516129033" stroke-width="55.483870967741936" style="stroke: rgb(139, 105, 191);"></path><path d="M426,450.32258064516145C634,450.32258064516145,634,445.3225806451613,842,445.3225806451613" stroke-width="13.870967741935484" style="stroke: rgb(174, 105, 191);"></path><path d="M426,436.45161290322596C634,436.45161290322596,634,76.29032258064532,842,76.29032258064532" stroke-width="13.870967741935484" style="stroke: rgb(174, 105, 191);"></path><path d="M426,377.90322580645176C634,377.90322580645176,634,55.48387096774211,842,55.48387096774211" stroke-width="27.741935483870968" style="stroke: rgb(191, 105, 174);"></path><path d="M426,405.64516129032273C634,405.64516129032273,634,190.32258064516134,842,190.32258064516134" stroke-width="27.741935483870968" style="stroke: rgb(191, 105, 174);"></path><path d="M426,481.1290322580647C634,481.1290322580647,634,97.09677419354855,842,97.09677419354855" stroke-width="27.741935483870968" style="stroke: rgb(191, 105, 139);"></path></g><g class="nodes" font-family="Arial, Helvetica" font-size="10"><g><rect x="842" y="462.258064516129" height="13.870967741935374" width="5" fill="#000"></rect><text x="836" y="469.1935483870967" dy="0.35em" text-anchor="end">binary file metadata</text></g><g><rect x="842" y="293.54838709677415" height="55.483870967741964" width="5" fill="#000"></rect><text x="836" y="321.2903225806451" dy="0.35em" text-anchor="end">dll monitoring</text></g><g><rect x="842" y="424.51612903225805" height="27.741935483870975" width="5" fill="#000"></rect><text x="836" y="438.38709677419354" dy="0.35em" text-anchor="end">malware reverse engineering</text></g><g><rect x="842" y="1.7053025658242404e-13" height="110.96774193548376" width="5" fill="#000"></rect><text x="836" y="55.48387096774205" dy="0.35em" text-anchor="end">netflow/enclave netflow</text></g><g><rect x="842" y="359.0322580645161" height="55.48387096774195" width="5" fill="#000"></rect><text x="836" y="386.7741935483871" dy="0.35em" text-anchor="end">network intrusion detection system</text></g><g><rect x="842" y="120.96774193548393" height="83.2258064516129" width="5" fill="#000"></rect><text x="836" y="162.58064516129036" dy="0.35em" text-anchor="end">network protocol analysis</text></g><g><rect x="842" y="486.1290322580644" height="13.870967741935374" width="5" fill="#000"></rect><text x="836" y="493.0645161290321" dy="0.35em" text-anchor="end">ssl/tls inspection</text></g><g><rect x="842" y="214.19354838709683" height="69.35483870967732" width="5" fill="#000"></rect><text x="836" y="248.8709677419355" dy="0.35em" text-anchor="end">windows event logs</text></g><g><rect x="0" y="148.70967741935476" height="83.22580645161304" width="5" fill="#000"></rect><text x="11" y="190.32258064516128" dy="0.35em" text-anchor="start">Antivirus/Antimalware</text></g><g><rect x="0" y="424.51612903225805" height="27.74193548387097" width="5" fill="#000"></rect><text x="11" y="438.38709677419354" dy="0.35em" text-anchor="start">Behavior Prevention on Endpoint</text></g><g><rect x="0" y="321.29032258064524" height="41.612903225806434" width="5" fill="#000"></rect><text x="11" y="342.09677419354847" dy="0.35em" text-anchor="start">Filter Network Traffic</text></g><g><rect x="0" y="462.258064516129" height="13.870967741935488" width="5" fill="#000"></rect><text x="11" y="469.19354838709677" dy="0.35em" text-anchor="start">Multi-factor Authentication</text></g><g><rect x="0" y="0" height="138.70967741935476" width="5" fill="#000"></rect><text x="11" y="69.35483870967738" dy="0.35em" text-anchor="start">Network Intrusion Prevention</text></g><g><rect x="0" y="241.9354838709678" height="69.35483870967744" width="5" fill="#000"></rect><text x="11" y="276.6129032258065" dy="0.35em" text-anchor="start">Network Segmentation</text></g><g><rect x="0" y="486.1290322580645" height="13.870967741935488" width="5" fill="#000"></rect><text x="11" y="493.06451612903226" dy="0.35em" text-anchor="start">Operating System Configuration</text></g><g><rect x="0" y="372.9032258064517" height="41.61290322580638" width="5" fill="#000"></rect><text x="11" y="393.7096774193549" dy="0.35em" text-anchor="start">Privileged Account Management</text></g><g><rect x="421" y="233.06451612903206" height="55.48387096774218" width="5" fill="#000"></rect><text x="415" y="260.8064516129032" dy="0.35em" text-anchor="end">create account</text></g><g><rect x="421" y="429.5161290322582" height="27.741935483870975" width="5" fill="#000"></rect><text x="415" y="443.3870967741937" dy="0.35em" text-anchor="end">custom cryptographic protocol</text></g><g><rect x="421" y="139.83870967741925" height="83.22580645161281" width="5" fill="#000"></rect><text x="415" y="181.45161290322565" dy="0.35em" text-anchor="end">obfuscated files or information</text></g><g><rect x="421" y="298.54838709677426" height="55.48387096774201" width="5" fill="#000"></rect><text x="415" y="326.29032258064524" dy="0.35em" text-anchor="end">process injection</text></g><g><rect x="421" y="364.03225806451627" height="55.483870967741936" width="5" fill="#000"></rect><text x="415" y="391.77419354838725" dy="0.35em" text-anchor="end">remote file copy</text></g><g><rect x="421" y="4.9999999999998295" height="124.83870967741942" width="5" fill="#000"></rect><text x="415" y="67.41935483870954" dy="0.35em" text-anchor="end">standard non-application layer protocol</text></g><g><rect x="421" y="467.2580645161292" height="27.741935483870975" width="5" fill="#000"></rect><text x="415" y="481.1290322580647" dy="0.35em" text-anchor="end">uncommonly used port</text></g></g></g></svg>