<svg width="847" height="520" xmlns="http://www.w3.org/2000/svg" version="1.1"><g transform="translate(0, 10)"><g class="links" fill="none" stroke-opacity="0.4"><path d="M5,127.50000000000009C213,127.50000000000009,213,122.50000000000011,421,122.50000000000011" stroke-width="245" style="stroke: rgb(191, 105, 105);"></path><path d="M5,372.5000000000001C213,372.5000000000001,213,377.5,421,377.5" stroke-width="245" style="stroke: rgb(191, 105, 105);"></path><path d="M426,183.7500000000001C634,183.7500000000001,634,438.74999999999994,842,438.74999999999994" stroke-width="122.5" style="stroke: rgb(105, 191, 105);"></path><path d="M426,61.250000000000114C634,61.250000000000114,634,61.24999999999994,842,61.24999999999994" stroke-width="122.5" style="stroke: rgb(105, 191, 105);"></path><path d="M426,377.5C634,377.5,634,244.99999999999994,842,244.99999999999994" stroke-width="245" style="stroke: rgb(105, 105, 191);"></path></g><g class="nodes" font-family="Arial, Helvetica" font-size="10"><g><rect x="842" y="377.49999999999994" height="122.50000000000011" width="5" fill="#000"></rect><text x="836" y="438.75" dy="0.35em" text-anchor="end">malware reverse engineering</text></g><g><rect x="842" y="-5.684341886080802e-14" height="367.5" width="5" fill="#000"></rect><text x="836" y="183.74999999999994" dy="0.35em" text-anchor="end">netflow/enclave netflow</text></g><g><rect x="0" y="5.000000000000085" height="489.99999999999983" width="5" fill="#000"></rect><text x="11" y="250" dy="0.35em" text-anchor="start">Network Intrusion Prevention</text></g><g><rect x="421" y="255" height="244.99999999999986" width="5" fill="#000"></rect><text x="415" y="377.49999999999994" dy="0.35em" text-anchor="end">connection proxy</text></g><g><rect x="421" y="1.1368683772161603e-13" height="244.9999999999999" width="5" fill="#000"></rect><text x="415" y="122.50000000000006" dy="0.35em" text-anchor="end">custom cryptographic protocol</text></g></g></g></svg>