<svg width="847" height="520" xmlns="http://www.w3.org/2000/svg" version="1.1"><g transform="translate(0, 10)"><g class="links" fill="none" stroke-opacity="0.4"><path d="M5,314.54545454545473C213,314.54545454545473,213,55.90909090909079,421,55.90909090909079" stroke-width="37.27272727272727" style="stroke: rgb(191, 105, 105);"></path><path d="M5,164.09090909090912C213,164.09090909090912,213,376.8181818181819,421,376.8181818181819" stroke-width="37.27272727272727" style="stroke: rgb(191, 135, 105);"></path><path d="M5,98.86363636363639C213,98.86363636363639,213,225.68181818181813,421,225.68181818181813" stroke-width="18.636363636363637" style="stroke: rgb(191, 135, 105);"></path><path d="M5,126.81818181818186C213,126.81818181818186,213,329.5454545454546,421,329.5454545454546" stroke-width="37.27272727272727" style="stroke: rgb(191, 135, 105);"></path><path d="M5,52.2727272727273C213,52.2727272727273,213,121.8181818181817,421,121.8181818181817" stroke-width="74.54545454545455" style="stroke: rgb(191, 135, 105);"></path><path d="M5,192.0454545454546C213,192.0454545454546,213,414.77272727272737,421,414.77272727272737" stroke-width="18.636363636363637" style="stroke: rgb(191, 135, 105);"></path><path d="M5,210.68181818181822C213,210.68181818181822,213,462.0454545454546,421,462.0454545454546" stroke-width="18.636363636363637" style="stroke: rgb(191, 135, 105);"></path><path d="M5,352.50000000000017C213,352.50000000000017,213,244.31818181818176,421,244.31818181818176" stroke-width="18.636363636363637" style="stroke: rgb(191, 166, 105);"></path><path d="M5,371.1363636363638C213,371.1363636363638,213,433.409090909091,421,433.409090909091" stroke-width="18.636363636363637" style="stroke: rgb(191, 166, 105);"></path><path d="M5,248.63636363636377C213,248.63636363636377,213,18.636363636363523,421,18.636363636363523" stroke-width="37.27272727272727" style="stroke: rgb(186, 191, 105);"></path><path d="M5,276.59090909090924C213,276.59090909090924,213,178.40909090909074,421,178.40909090909074" stroke-width="18.636363636363637" style="stroke: rgb(186, 191, 105);"></path><path d="M5,447.0454545454547C213,447.0454545454547,213,291.5909090909091,421,291.5909090909091" stroke-width="18.636363636363637" style="stroke: rgb(155, 191, 105);"></path><path d="M5,475.6818181818183C213,475.6818181818183,213,490.6818181818183,421,490.6818181818183" stroke-width="18.636363636363637" style="stroke: rgb(125, 191, 105);"></path><path d="M5,418.40909090909105C213,418.40909090909105,213,272.9545454545455,421,272.9545454545455" stroke-width="18.636363636363637" style="stroke: rgb(105, 191, 115);"></path><path d="M5,399.7727272727274C213,399.7727272727274,213,197.04545454545436,421,197.04545454545436" stroke-width="18.636363636363637" style="stroke: rgb(105, 191, 115);"></path><path d="M426,37.27272727272716C634,37.27272727272716,634,272.2727272727271,842,272.2727272727271" stroke-width="74.54545454545455" style="stroke: rgb(105, 191, 145);"></path><path d="M426,386.13636363636374C634,386.13636363636374,634,470.6818181818184,842,470.6818181818184" stroke-width="18.636363636363637" style="stroke: rgb(105, 191, 176);"></path><path d="M426,367.5000000000001C634,367.5000000000001,634,178.40909090909068,842,178.40909090909068" stroke-width="18.636363636363637" style="stroke: rgb(105, 191, 176);"></path><path d="M426,234.99999999999994C634,234.99999999999994,634,113.18181818181796,842,113.18181818181796" stroke-width="37.27272727272727" style="stroke: rgb(105, 176, 191);"></path><path d="M426,329.5454545454546C634,329.5454545454546,634,150.4545454545452,842,150.4545454545452" stroke-width="37.27272727272727" style="stroke: rgb(105, 145, 191);"></path><path d="M426,103.18181818181806C634,103.18181818181806,634,38.63636363636341,842,38.63636363636341" stroke-width="37.27272727272727" style="stroke: rgb(105, 115, 191);"></path><path d="M426,140.45454545454533C634,140.45454545454533,634,338.181818181818,842,338.181818181818" stroke-width="37.27272727272727" style="stroke: rgb(105, 115, 191);"></path><path d="M426,424.0909090909092C634,424.0909090909092,634,206.36363636363612,842,206.36363636363612" stroke-width="37.27272727272727" style="stroke: rgb(125, 105, 191);"></path><path d="M426,462.0454545454546C634,462.0454545454546,634,366.13636363636346,842,366.13636363636346" stroke-width="18.636363636363637" style="stroke: rgb(155, 105, 191);"></path><path d="M426,187.72727272727255C634,187.72727272727255,634,75.90909090909068,842,75.90909090909068" stroke-width="37.27272727272727" style="stroke: rgb(186, 105, 191);"></path><path d="M426,282.2727272727273C634,282.2727272727273,634,404.090909090909,842,404.090909090909" stroke-width="37.27272727272727" style="stroke: rgb(191, 105, 166);"></path><path d="M426,490.6818181818183C634,490.6818181818183,634,442.04545454545445,842,442.04545454545445" stroke-width="18.636363636363637" style="stroke: rgb(191, 105, 135);"></path></g><g class="nodes" font-family="Arial, Helvetica" font-size="10"><g><rect x="842" y="385.4545454545454" height="37.27272727272725" width="5" fill="#000"></rect><text x="836" y="404.090909090909" dy="0.35em" text-anchor="end">anti-virus</text></g><g><rect x="842" y="234.99999999999983" height="74.54545454545456" width="5" fill="#000"></rect><text x="836" y="272.27272727272714" dy="0.35em" text-anchor="end">dll monitoring</text></g><g><rect x="842" y="461.3636363636366" height="18.636363636363626" width="5" fill="#000"></rect><text x="836" y="470.6818181818184" dy="0.35em" text-anchor="end">malware reverse engineering</text></g><g><rect x="842" y="19.999999999999773" height="205.00000000000006" width="5" fill="#000"></rect><text x="836" y="122.4999999999998" dy="0.35em" text-anchor="end">netflow/enclave netflow</text></g><g><rect x="842" y="319.5454545454544" height="55.90909090909099" width="5" fill="#000"></rect><text x="836" y="347.4999999999999" dy="0.35em" text-anchor="end">network protocol analysis</text></g><g><rect x="842" y="432.72727272727263" height="18.636363636363967" width="5" fill="#000"></rect><text x="836" y="442.0454545454546" dy="0.35em" text-anchor="end">windows event logs</text></g><g><rect x="0" y="295.9090909090911" height="37.27272727272725" width="5" fill="#000"></rect><text x="11" y="314.54545454545473" dy="0.35em" text-anchor="start">Behavior Prevention on Endpoint</text></g><g><rect x="0" y="15.000000000000028" height="205.0000000000001" width="5" fill="#000"></rect><text x="11" y="117.50000000000009" dy="0.35em" text-anchor="start">Network Intrusion Prevention</text></g><g><rect x="0" y="343.18181818181836" height="37.27272727272725" width="5" fill="#000"></rect><text x="11" y="361.818181818182" dy="0.35em" text-anchor="start">Network Segmentation</text></g><g><rect x="0" y="230.00000000000014" height="55.909090909090935" width="5" fill="#000"></rect><text x="11" y="257.9545454545456" dy="0.35em" text-anchor="start">Privileged Account Management</text></g><g><rect x="0" y="437.72727272727286" height="18.636363636363626" width="5" fill="#000"></rect><text x="11" y="447.0454545454547" dy="0.35em" text-anchor="start">Restrict File and Directory Permissions</text></g><g><rect x="0" y="466.3636363636365" height="18.636363636363512" width="5" fill="#000"></rect><text x="11" y="475.68181818181824" dy="0.35em" text-anchor="start">Restrict Registry Permissions</text></g><g><rect x="0" y="390.4545454545456" height="37.27272727272725" width="5" fill="#000"></rect><text x="11" y="409.09090909090924" dy="0.35em" text-anchor="start">User Account Management</text></g><g><rect x="421" y="216.36363636363632" height="37.272727272727366" width="5" fill="#000"></rect><text x="415" y="235" dy="0.35em" text-anchor="end">commonly used port</text></g><g><rect x="421" y="310.909090909091" height="37.27272727272731" width="5" fill="#000"></rect><text x="415" y="329.5454545454546" dy="0.35em" text-anchor="end">connection proxy</text></g><g><rect x="421" y="452.7272727272728" height="18.636363636363683" width="5" fill="#000"></rect><text x="415" y="462.0454545454546" dy="0.35em" text-anchor="end">data obfuscation</text></g><g><rect x="421" y="263.6363636363637" height="37.27272727272734" width="5" fill="#000"></rect><text x="415" y="282.27272727272737" dy="0.35em" text-anchor="end">disabling security tools</text></g><g><rect x="421" y="358.1818181818183" height="37.27272727272725" width="5" fill="#000"></rect><text x="415" y="376.8181818181819" dy="0.35em" text-anchor="end">fallback channels</text></g><g><rect x="421" y="481.3636363636365" height="18.636363636363626" width="5" fill="#000"></rect><text x="415" y="490.6818181818183" dy="0.35em" text-anchor="end">modify registry</text></g><g><rect x="421" y="-1.1368683772161603e-13" height="74.54545454545453" width="5" fill="#000"></rect><text x="415" y="37.27272727272715" dy="0.35em" text-anchor="end">process injection</text></g><g><rect x="421" y="84.54545454545442" height="74.5454545454545" width="5" fill="#000"></rect><text x="415" y="121.81818181818167" dy="0.35em" text-anchor="end">remote file copy</text></g><g><rect x="421" y="405.45454545454555" height="37.27272727272725" width="5" fill="#000"></rect><text x="415" y="424.0909090909092" dy="0.35em" text-anchor="end">uncommonly used port</text></g><g><rect x="421" y="169.09090909090892" height="37.272727272727394" width="5" fill="#000"></rect><text x="415" y="187.72727272727263" dy="0.35em" text-anchor="end">windows management instrumentation</text></g></g></g></svg>