<svg width="847" height="520" xmlns="http://www.w3.org/2000/svg" version="1.1"><g transform="translate(0, 10)"><g class="links" fill="none" stroke-opacity="0.4"><path d="M5,154.82758620689657C213,154.82758620689657,213,193.7931034482757,421,193.7931034482757" stroke-width="86.89655172413794" style="stroke: rgb(191, 105, 105);"></path><path d="M5,230C213,230,213,31.724137931034313,421,31.724137931034313" stroke-width="43.44827586206897" style="stroke: rgb(191, 137, 105);"></path><path d="M5,258.9655172413793C213,258.9655172413793,213,322.413793103448,421,322.413793103448" stroke-width="14.482758620689655" style="stroke: rgb(191, 137, 105);"></path><path d="M5,443.7931034482759C213,443.7931034482759,213,404.8275862068963,421,404.8275862068963" stroke-width="14.482758620689655" style="stroke: rgb(191, 169, 105);"></path><path d="M5,326.89655172413796C213,326.89655172413796,213,375.862068965517,421,375.862068965517" stroke-width="14.482758620689655" style="stroke: rgb(180, 191, 105);"></path><path d="M5,297.93103448275866C213,297.93103448275866,213,75.17241379310329,421,75.17241379310329" stroke-width="43.44827586206897" style="stroke: rgb(180, 191, 105);"></path><path d="M5,86.89655172413804C213,86.89655172413804,213,475.5172413793106,421,475.5172413793106" stroke-width="28.96551724137931" style="stroke: rgb(148, 191, 105);"></path><path d="M5,65.17241379310356C213,65.17241379310356,213,429.31034482758594,421,429.31034482758594" stroke-width="14.482758620689655" style="stroke: rgb(148, 191, 105);"></path><path d="M5,28.965517241379423C213,28.965517241379423,213,276.20689655172396,421,276.20689655172396" stroke-width="57.93103448275862" style="stroke: rgb(148, 191, 105);"></path><path d="M5,468.2758620689655C213,468.2758620689655,213,443.7931034482756,421,443.7931034482756" stroke-width="14.482758620689655" style="stroke: rgb(116, 191, 105);"></path><path d="M5,419.3103448275862C213,419.3103448275862,213,390.34482758620663,421,390.34482758620663" stroke-width="14.482758620689655" style="stroke: rgb(105, 191, 126);"></path><path d="M5,404.82758620689657C213,404.82758620689657,213,336.8965517241376,421,336.8965517241376" stroke-width="14.482758620689655" style="stroke: rgb(105, 191, 126);"></path><path d="M5,365.86206896551727C213,365.86206896551727,213,118.62068965517224,421,118.62068965517224" stroke-width="43.44827586206897" style="stroke: rgb(105, 191, 159);"></path><path d="M5,492.7586206896552C213,492.7586206896552,213,351.3793103448273,421,351.3793103448273" stroke-width="14.482758620689655" style="stroke: rgb(105, 191, 191);"></path><path d="M426,157.58620689655154C634,157.58620689655154,634,229.99999999999997,842,229.99999999999997" stroke-width="14.482758620689655" style="stroke: rgb(105, 159, 191);"></path><path d="M426,186.55172413793085C634,186.55172413793085,634,404.82758620689657,842,404.82758620689657" stroke-width="14.482758620689655" style="stroke: rgb(105, 159, 191);"></path><path d="M426,201.0344827586205C634,201.0344827586205,634,443.7931034482759,842,443.7931034482759" stroke-width="14.482758620689655" style="stroke: rgb(105, 159, 191);"></path><path d="M426,172.0689655172412C634,172.0689655172412,634,351.3793103448276,842,351.3793103448276" stroke-width="14.482758620689655" style="stroke: rgb(105, 159, 191);"></path><path d="M426,215.51724137931015C634,215.51724137931015,634,468.2758620689655,842,468.2758620689655" stroke-width="14.482758620689655" style="stroke: rgb(105, 159, 191);"></path><path d="M426,229.9999999999998C634,229.9999999999998,634,492.7586206896552,842,492.7586206896552" stroke-width="14.482758620689655" style="stroke: rgb(105, 159, 191);"></path><path d="M426,75.17241379310327C634,75.17241379310327,634,65.17241379310347,842,65.17241379310347" stroke-width="130.3448275862069" style="stroke: rgb(105, 126, 191);"></path><path d="M426,336.8965517241376C634,336.8965517241376,634,312.4137931034483,842,312.4137931034483" stroke-width="43.44827586206897" style="stroke: rgb(116, 105, 191);"></path><path d="M426,390.34482758620663C634,390.34482758620663,634,258.9655172413793,842,258.9655172413793" stroke-width="43.44827586206897" style="stroke: rgb(148, 105, 191);"></path><path d="M426,482.7586206896554C634,482.7586206896554,634,419.3103448275862,842,419.3103448275862" stroke-width="14.482758620689655" style="stroke: rgb(180, 105, 191);"></path><path d="M426,468.27586206896575C634,468.27586206896575,634,205.51724137931038,842,205.51724137931038" stroke-width="14.482758620689655" style="stroke: rgb(180, 105, 191);"></path><path d="M426,436.55172413793076C634,436.55172413793076,634,183.7931034482759,842,183.7931034482759" stroke-width="28.96551724137931" style="stroke: rgb(191, 105, 169);"></path><path d="M426,261.7241379310343C634,261.7241379310343,634,154.8275862068966,842,154.8275862068966" stroke-width="28.96551724137931" style="stroke: rgb(191, 105, 137);"></path><path d="M426,290.6896551724136C634,290.6896551724136,634,373.1034482758621,842,373.1034482758621" stroke-width="28.96551724137931" style="stroke: rgb(191, 105, 137);"></path></g><g class="nodes" font-family="Arial, Helvetica" font-size="10"><g><rect x="842" y="222.75862068965515" height="57.93103448275866" width="5" fill="#000"></rect><text x="836" y="251.72413793103448" dy="0.35em" text-anchor="end">binary file metadata</text></g><g><rect x="842" y="2.842170943040401e-14" height="130.34482758620692" width="5" fill="#000"></rect><text x="836" y="65.17241379310349" dy="0.35em" text-anchor="end">dll monitoring</text></g><g><rect x="842" y="290.68965517241384" height="43.448275862068954" width="5" fill="#000"></rect><text x="836" y="312.4137931034483" dy="0.35em" text-anchor="end">loaded dlls</text></g><g><rect x="842" y="397.58620689655174" height="28.965517241379303" width="5" fill="#000"></rect><text x="836" y="412.0689655172414" dy="0.35em" text-anchor="end">malware reverse engineering</text></g><g><rect x="842" y="140.34482758620695" height="72.4137931034482" width="5" fill="#000"></rect><text x="836" y="176.55172413793105" dy="0.35em" text-anchor="end">netflow/enclave netflow</text></g><g><rect x="842" y="436.55172413793105" height="14.482758620689651" width="5" fill="#000"></rect><text x="836" y="443.7931034482759" dy="0.35em" text-anchor="end">network intrusion detection system</text></g><g><rect x="842" y="344.1379310344828" height="43.448275862068954" width="5" fill="#000"></rect><text x="836" y="365.86206896551727" dy="0.35em" text-anchor="end">network protocol analysis</text></g><g><rect x="842" y="461.0344827586207" height="14.482758620689651" width="5" fill="#000"></rect><text x="836" y="468.2758620689655" dy="0.35em" text-anchor="end">ssl/tls inspection</text></g><g><rect x="842" y="485.51724137931035" height="14.482758620689651" width="5" fill="#000"></rect><text x="836" y="492.7586206896552" dy="0.35em" text-anchor="end">windows event logs</text></g><g><rect x="0" y="111.37931034482762" height="86.89655172413791" width="5" fill="#000"></rect><text x="11" y="154.82758620689657" dy="0.35em" text-anchor="start">Antivirus/Antimalware</text></g><g><rect x="0" y="208.27586206896552" height="57.93103448275863" width="5" fill="#000"></rect><text x="11" y="237.24137931034483" dy="0.35em" text-anchor="start">Audit</text></g><g><rect x="0" y="436.55172413793105" height="14.482758620689651" width="5" fill="#000"></rect><text x="11" y="443.7931034482759" dy="0.35em" text-anchor="start">Code Signing</text></g><g><rect x="0" y="276.2068965517242" height="57.931034482758605" width="5" fill="#000"></rect><text x="11" y="305.1724137931035" dy="0.35em" text-anchor="start">Execution Prevention</text></g><g><rect x="0" y="1.1368683772161603e-13" height="101.3793103448275" width="5" fill="#000"></rect><text x="11" y="50.689655172413865" dy="0.35em" text-anchor="start">Network Intrusion Prevention</text></g><g><rect x="0" y="461.0344827586207" height="14.482758620689651" width="5" fill="#000"></rect><text x="11" y="468.2758620689655" dy="0.35em" text-anchor="start">Network Segmentation</text></g><g><rect x="0" y="397.58620689655174" height="28.965517241379274" width="5" fill="#000"></rect><text x="11" y="412.0689655172414" dy="0.35em" text-anchor="start">Restrict File and Directory Permissions</text></g><g><rect x="0" y="344.1379310344828" height="43.44827586206897" width="5" fill="#000"></rect><text x="11" y="365.86206896551727" dy="0.35em" text-anchor="start">Restrict Library Loading</text></g><g><rect x="0" y="485.51724137931035" height="14.482758620689651" width="5" fill="#000"></rect><text x="11" y="492.7586206896552" dy="0.35em" text-anchor="start">Update Software</text></g><g><rect x="421" y="422.0689655172411" height="28.965517241379814" width="5" fill="#000"></rect><text x="415" y="436.55172413793105" dy="0.35em" text-anchor="end">commonly used port</text></g><g><rect x="421" y="9.99999999999983" height="130.3448275862069" width="5" fill="#000"></rect><text x="415" y="75.17241379310327" dy="0.35em" text-anchor="end">dll search order hijacking</text></g><g><rect x="421" y="315.17241379310315" height="43.44827586206901" width="5" fill="#000"></rect><text x="415" y="336.8965517241377" dy="0.35em" text-anchor="end">dll side-loading</text></g><g><rect x="421" y="368.62068965517216" height="43.448275862068954" width="5" fill="#000"></rect><text x="415" y="390.34482758620663" dy="0.35em" text-anchor="end">masquerading</text></g><g><rect x="421" y="150.34482758620672" height="86.89655172413791" width="5" fill="#000"></rect><text x="415" y="193.79310344827567" dy="0.35em" text-anchor="end">obfuscated files or information</text></g><g><rect x="421" y="247.24137931034463" height="57.93103448275849" width="5" fill="#000"></rect><text x="415" y="276.20689655172384" dy="0.35em" text-anchor="end">remote file copy</text></g><g><rect x="421" y="461.0344827586209" height="28.965517241379303" width="5" fill="#000"></rect><text x="415" y="475.5172413793106" dy="0.35em" text-anchor="end">standard application layer protocol</text></g></g></g></svg>