<svg width="847" height="520" xmlns="http://www.w3.org/2000/svg" version="1.1"><g transform="translate(0, 10)"><g class="links" fill="none" stroke-opacity="0.4"><path d="M5,190.40000000000018C213,190.40000000000018,213,167.6,421,167.6" stroke-width="98.39999999999999" style="stroke: rgb(191, 105, 105);"></path><path d="M5,412.60000000000014C213,412.60000000000014,213,310.5999999999999,421,310.5999999999999" stroke-width="16.4" style="stroke: rgb(191, 134, 105);"></path><path d="M5,386.20000000000016C213,386.20000000000016,213,455.4000000000002,421,455.4000000000002" stroke-width="16.4" style="stroke: rgb(191, 162, 105);"></path><path d="M5,351.60000000000025C213,351.60000000000025,213,91.99999999999994,421,91.99999999999994" stroke-width="32.8" style="stroke: rgb(191, 191, 105);"></path><path d="M5,114.80000000000007C213,114.80000000000007,213,420.8000000000001,421,420.8000000000001" stroke-width="32.8" style="stroke: rgb(162, 191, 105);"></path><path d="M5,16.400000000000084C213,16.400000000000084,213,26.39999999999994,421,26.39999999999994" stroke-width="32.8" style="stroke: rgb(162, 191, 105);"></path><path d="M5,65.60000000000008C213,65.60000000000008,213,259.59999999999997,421,259.59999999999997" stroke-width="65.6" style="stroke: rgb(162, 191, 105);"></path><path d="M5,266.00000000000017C213,266.00000000000017,213,59.19999999999994,421,59.19999999999994" stroke-width="32.8" style="stroke: rgb(134, 191, 105);"></path><path d="M5,439.0000000000001C213,439.0000000000001,213,326.9999999999999,421,326.9999999999999" stroke-width="16.4" style="stroke: rgb(105, 191, 105);"></path><path d="M5,491.80000000000007C213,491.80000000000007,213,343.39999999999986,421,343.39999999999986" stroke-width="16.4" style="stroke: rgb(105, 191, 134);"></path><path d="M5,465.4000000000001C213,465.4000000000001,213,481.8000000000002,421,481.8000000000002" stroke-width="16.4" style="stroke: rgb(105, 191, 162);"></path><path d="M5,308.8000000000002C213,308.8000000000002,213,377.9999999999997,421,377.9999999999997" stroke-width="32.8" style="stroke: rgb(105, 191, 191);"></path><path d="M426,175.8C634,175.8,634,429.00000000000006,842,429.00000000000006" stroke-width="16.4" style="stroke: rgb(105, 162, 191);"></path><path d="M426,159.4C634,159.4,634,359.8000000000001,842,359.8000000000001" stroke-width="16.4" style="stroke: rgb(105, 162, 191);"></path><path d="M426,192.20000000000002C634,192.20000000000002,634,455.40000000000003,842,455.40000000000003" stroke-width="16.4" style="stroke: rgb(105, 162, 191);"></path><path d="M426,143C634,143,634,192.20000000000002,842,192.20000000000002" stroke-width="16.4" style="stroke: rgb(105, 162, 191);"></path><path d="M426,208.60000000000002C634,208.60000000000002,634,481.8,842,481.8" stroke-width="16.4" style="stroke: rgb(105, 162, 191);"></path><path d="M426,126.60000000000001C634,126.60000000000001,634,18.19999999999997,842,18.19999999999997" stroke-width="16.4" style="stroke: rgb(105, 162, 191);"></path><path d="M426,326.99999999999994C634,326.99999999999994,634,50.99999999999997,842,50.99999999999997" stroke-width="49.199999999999996" style="stroke: rgb(105, 134, 191);"></path><path d="M426,455.4000000000002C634,455.4000000000002,634,402.6000000000001,842,402.6000000000001" stroke-width="16.4" style="stroke: rgb(105, 105, 191);"></path><path d="M426,83.79999999999994C634,83.79999999999994,634,267.8000000000002,842,267.8000000000002" stroke-width="49.199999999999996" style="stroke: rgb(134, 105, 191);"></path><path d="M426,34.59999999999994C634,34.59999999999994,634,159.40000000000003,842,159.40000000000003" stroke-width="49.199999999999996" style="stroke: rgb(134, 105, 191);"></path><path d="M426,429.0000000000001C634,429.0000000000001,634,376.2000000000001,842,376.2000000000001" stroke-width="16.4" style="stroke: rgb(162, 105, 191);"></path><path d="M426,412.60000000000014C634,412.60000000000014,634,333.40000000000015,842,333.40000000000015" stroke-width="16.4" style="stroke: rgb(162, 105, 191);"></path><path d="M426,275.99999999999994C634,275.99999999999994,634,308.8000000000001,842,308.8000000000001" stroke-width="32.8" style="stroke: rgb(191, 105, 191);"></path><path d="M426,243.2C634,243.2,634,216.80000000000004,842,216.80000000000004" stroke-width="32.8" style="stroke: rgb(191, 105, 191);"></path><path d="M426,481.8000000000002C634,481.8000000000002,634,116.59999999999997,842,116.59999999999997" stroke-width="16.4" style="stroke: rgb(191, 105, 162);"></path><path d="M426,377.9999999999997C634,377.9999999999997,634,91.99999999999997,842,91.99999999999997" stroke-width="32.8" style="stroke: rgb(191, 105, 134);"></path></g><g class="nodes" font-family="Arial, Helvetica" font-size="10"><g><rect x="842" y="420.80000000000007" height="16.399999999999977" width="5" fill="#000"></rect><text x="836" y="429.00000000000006" dy="0.35em" text-anchor="end">binary file metadata</text></g><g><rect x="842" y="394.4000000000001" height="16.399999999999995" width="5" fill="#000"></rect><text x="836" y="402.6000000000001" dy="0.35em" text-anchor="end">dll monitoring</text></g><g><rect x="842" y="351.60000000000014" height="32.799999999999955" width="5" fill="#000"></rect><text x="836" y="368.0000000000001" dy="0.35em" text-anchor="end">malware reverse engineering</text></g><g><rect x="842" y="243.20000000000016" height="98.39999999999999" width="5" fill="#000"></rect><text x="836" y="292.40000000000015" dy="0.35em" text-anchor="end">netflow/enclave netflow</text></g><g><rect x="842" y="447.20000000000005" height="16.399999999999977" width="5" fill="#000"></rect><text x="836" y="455.40000000000003" dy="0.35em" text-anchor="end">network intrusion detection system</text></g><g><rect x="842" y="134.80000000000004" height="98.40000000000012" width="5" fill="#000"></rect><text x="836" y="184.0000000000001" dy="0.35em" text-anchor="end">network protocol analysis</text></g><g><rect x="842" y="473.6" height="16.399999999999977" width="5" fill="#000"></rect><text x="836" y="481.8" dy="0.35em" text-anchor="end">ssl/tls inspection</text></g><g><rect x="842" y="9.999999999999972" height="114.80000000000007" width="5" fill="#000"></rect><text x="836" y="67.4" dy="0.35em" text-anchor="end">windows event logs</text></g><g><rect x="0" y="141.2000000000002" height="98.39999999999998" width="5" fill="#000"></rect><text x="11" y="190.40000000000018" dy="0.35em" text-anchor="start">Antivirus/Antimalware</text></g><g><rect x="0" y="404.40000000000015" height="16.399999999999977" width="5" fill="#000"></rect><text x="11" y="412.60000000000014" dy="0.35em" text-anchor="start">Encrypt Sensitive Information</text></g><g><rect x="0" y="378.00000000000017" height="16.400000000000002" width="5" fill="#000"></rect><text x="11" y="386.20000000000016" dy="0.35em" text-anchor="start">Execution Prevention</text></g><g><rect x="0" y="335.2000000000003" height="32.7999999999999" width="5" fill="#000"></rect><text x="11" y="351.60000000000025" dy="0.35em" text-anchor="start">Filter Network Traffic</text></g><g><rect x="0" y="8.526512829121202e-14" height="131.2000000000001" width="5" fill="#000"></rect><text x="11" y="65.60000000000014" dy="0.35em" text-anchor="start">Network Intrusion Prevention</text></g><g><rect x="0" y="249.60000000000016" height="32.80000000000007" width="5" fill="#000"></rect><text x="11" y="266.0000000000002" dy="0.35em" text-anchor="start">Network Segmentation</text></g><g><rect x="0" y="430.8000000000001" height="16.399999999999977" width="5" fill="#000"></rect><text x="11" y="439.0000000000001" dy="0.35em" text-anchor="start">Remote Data Storage</text></g><g><rect x="0" y="483.6000000000001" height="16.399999999999807" width="5" fill="#000"></rect><text x="11" y="491.79999999999995" dy="0.35em" text-anchor="start">Restrict File and Directory Permissions</text></g><g><rect x="0" y="457.2000000000001" height="16.399999999999977" width="5" fill="#000"></rect><text x="11" y="465.4000000000001" dy="0.35em" text-anchor="start">Restrict Registry Permissions</text></g><g><rect x="0" y="292.4000000000002" height="32.80000000000007" width="5" fill="#000"></rect><text x="11" y="308.80000000000024" dy="0.35em" text-anchor="start">User Account Management</text></g><g><rect x="421" y="404.40000000000015" height="32.80000000000007" width="5" fill="#000"></rect><text x="415" y="420.8000000000002" dy="0.35em" text-anchor="end">custom cryptographic protocol</text></g><g><rect x="421" y="447.2000000000002" height="16.400000000000002" width="5" fill="#000"></rect><text x="415" y="455.4000000000002" dy="0.35em" text-anchor="end">execution through module load</text></g><g><rect x="421" y="9.999999999999943" height="98.40000000000006" width="5" fill="#000"></rect><text x="415" y="59.199999999999974" dy="0.35em" text-anchor="end">exfiltration over alternative protocol</text></g><g><rect x="421" y="302.3999999999999" height="49.19999999999982" width="5" fill="#000"></rect><text x="415" y="326.99999999999983" dy="0.35em" text-anchor="end">indicator removal on host</text></g><g><rect x="421" y="473.6000000000002" height="16.399999999999864" width="5" fill="#000"></rect><text x="415" y="481.8000000000001" dy="0.35em" text-anchor="end">modify registry</text></g><g><rect x="421" y="361.59999999999974" height="32.80000000000041" width="5" fill="#000"></rect><text x="415" y="377.99999999999994" dy="0.35em" text-anchor="end">new service</text></g><g><rect x="421" y="118.4" height="98.39999999999998" width="5" fill="#000"></rect><text x="415" y="167.6" dy="0.35em" text-anchor="end">obfuscated files or information</text></g><g><rect x="421" y="226.79999999999998" height="65.59999999999994" width="5" fill="#000"></rect><text x="415" y="259.59999999999997" dy="0.35em" text-anchor="end">remote file copy</text></g></g></g></svg>