<svg width="847" height="520" xmlns="http://www.w3.org/2000/svg" version="1.1"><g transform="translate(0, 10)"><g class="links" fill="none" stroke-opacity="0.4"><path d="M5,393.4615384615386C213,393.4615384615386,213,324.23076923076894,421,324.23076923076894" stroke-width="34.61538461538461" style="stroke: rgb(191, 105, 105);"></path><path d="M5,252.30769230769252C213,252.30769230769252,213,193.07692307692287,421,193.07692307692287" stroke-width="69.23076923076923" style="stroke: rgb(191, 156, 105);"></path><path d="M5,173.076923076923C213,173.076923076923,213,455.38461538461536,421,455.38461538461536" stroke-width="69.23076923076923" style="stroke: rgb(174, 191, 105);"></path><path d="M5,69.23076923076917C213,69.23076923076917,213,79.23076923076903,421,79.23076923076903" stroke-width="138.46153846153845" style="stroke: rgb(174, 191, 105);"></path><path d="M5,331.5384615384618C213,331.5384615384618,213,262.3076923076921,421,262.3076923076921" stroke-width="69.23076923076923" style="stroke: rgb(122, 191, 105);"></path><path d="M5,482.6923076923079C213,482.6923076923079,213,393.46153846153817,421,393.46153846153817" stroke-width="34.61538461538461" style="stroke: rgb(105, 191, 139);"></path><path d="M5,438.07692307692326C213,438.07692307692326,213,358.8461538461535,421,358.8461538461535" stroke-width="34.61538461538461" style="stroke: rgb(105, 191, 191);"></path><path d="M426,358.8461538461535C634,358.8461538461535,634,319.2307692307693,842,319.2307692307693" stroke-width="103.84615384615384" style="stroke: rgb(105, 139, 191);"></path><path d="M426,227.69230769230748C634,227.69230769230748,634,74.23076923076931,842,74.23076923076931" stroke-width="138.46153846153845" style="stroke: rgb(122, 105, 191);"></path><path d="M426,472.6923076923077C634,472.6923076923077,634,477.69230769230757,842,477.69230769230757" stroke-width="34.61538461538461" style="stroke: rgb(174, 105, 191);"></path><path d="M426,438.07692307692304C634,438.07692307692304,634,240.0000000000001,842,240.0000000000001" stroke-width="34.61538461538461" style="stroke: rgb(174, 105, 191);"></path><path d="M426,44.615384615384414C634,44.615384615384414,634,188.0769230769232,842,188.0769230769232" stroke-width="69.23076923076923" style="stroke: rgb(191, 105, 156);"></path><path d="M426,113.84615384615364C634,113.84615384615364,634,415.7692307692306,842,415.7692307692306" stroke-width="69.23076923076923" style="stroke: rgb(191, 105, 156);"></path></g><g class="nodes" font-family="Arial, Helvetica" font-size="10"><g><rect x="842" y="5.000000000000085" height="138.4615384615385" width="5" fill="#000"></rect><text x="836" y="74.23076923076934" dy="0.35em" text-anchor="end">dll monitoring</text></g><g><rect x="842" y="267.3076923076924" height="103.84615384615364" width="5" fill="#000"></rect><text x="836" y="319.23076923076917" dy="0.35em" text-anchor="end">loaded dlls</text></g><g><rect x="842" y="460.38461538461524" height="34.61538461538464" width="5" fill="#000"></rect><text x="836" y="477.69230769230757" dy="0.35em" text-anchor="end">malware reverse engineering</text></g><g><rect x="842" y="153.4615384615386" height="103.84615384615381" width="5" fill="#000"></rect><text x="836" y="205.3846153846155" dy="0.35em" text-anchor="end">netflow/enclave netflow</text></g><g><rect x="842" y="381.153846153846" height="69.23076923076923" width="5" fill="#000"></rect><text x="836" y="415.7692307692306" dy="0.35em" text-anchor="end">network protocol analysis</text></g><g><rect x="0" y="376.1538461538463" height="34.61538461538464" width="5" fill="#000"></rect><text x="11" y="393.4615384615386" dy="0.35em" text-anchor="start">Audit</text></g><g><rect x="0" y="217.6923076923079" height="69.2307692307692" width="5" fill="#000"></rect><text x="11" y="252.3076923076925" dy="0.35em" text-anchor="start">Behavior Prevention on Endpoint</text></g><g><rect x="0" y="-5.684341886080802e-14" height="207.69230769230796" width="5" fill="#000"></rect><text x="11" y="103.84615384615392" dy="0.35em" text-anchor="start">Network Intrusion Prevention</text></g><g><rect x="0" y="296.92307692307713" height="69.2307692307692" width="5" fill="#000"></rect><text x="11" y="331.5384615384617" dy="0.35em" text-anchor="start">Privileged Account Management</text></g><g><rect x="0" y="465.3846153846156" height="34.6153846153845" width="5" fill="#000"></rect><text x="11" y="482.69230769230785" dy="0.35em" text-anchor="start">Restrict File and Directory Permissions</text></g><g><rect x="0" y="420.76923076923094" height="34.61538461538461" width="5" fill="#000"></rect><text x="11" y="438.07692307692326" dy="0.35em" text-anchor="start">Update Software</text></g><g><rect x="421" y="306.9230769230766" height="103.84615384615407" width="5" fill="#000"></rect><text x="415" y="358.84615384615364" dy="0.35em" text-anchor="end">dll side-loading</text></g><g><rect x="421" y="158.46153846153825" height="138.46153846153837" width="5" fill="#000"></rect><text x="415" y="227.69230769230745" dy="0.35em" text-anchor="end">process injection</text></g><g><rect x="421" y="9.999999999999801" height="138.46153846153845" width="5" fill="#000"></rect><text x="415" y="79.23076923076903" dy="0.35em" text-anchor="end">remote file copy</text></g><g><rect x="421" y="420.7692307692307" height="69.23076923076951" width="5" fill="#000"></rect><text x="415" y="455.3846153846155" dy="0.35em" text-anchor="end">standard application layer protocol</text></g></g></g></svg>