<svg width="847" height="520" xmlns="http://www.w3.org/2000/svg" version="1.1"><g transform="translate(0, 10)"><g class="links" fill="none" stroke-opacity="0.4"><path d="M5,122.5C213,122.5,213,122.5,421,122.5" stroke-width="245" style="stroke: rgb(191, 105, 105);"></path><path d="M5,377.5C213,377.5,213,377.5,421,377.5" stroke-width="245" style="stroke: rgb(148, 191, 105);"></path><path d="M426,122.5C634,122.5,634,122.5,842,122.5" stroke-width="245" style="stroke: rgb(105, 191, 191);"></path><path d="M426,377.5C634,377.5,634,377.5,842,377.5" stroke-width="245" style="stroke: rgb(148, 105, 191);"></path></g><g class="nodes" font-family="Arial, Helvetica" font-size="10"><g><rect x="842" y="0" height="245" width="5" fill="#000"></rect><text x="836" y="122.5" dy="0.35em" text-anchor="end">binary file metadata</text></g><g><rect x="842" y="255" height="245" width="5" fill="#000"></rect><text x="836" y="377.5" dy="0.35em" text-anchor="end">system calls</text></g><g><rect x="0" y="0" height="245" width="5" fill="#000"></rect><text x="11" y="122.5" dy="0.35em" text-anchor="start">Network Intrusion Prevention</text></g><g><rect x="0" y="255" height="245" width="5" fill="#000"></rect><text x="11" y="377.5" dy="0.35em" text-anchor="start">Password Policies</text></g><g><rect x="421" y="0" height="245" width="5" fill="#000"></rect><text x="415" y="122.5" dy="0.35em" text-anchor="end">data compressed</text></g><g><rect x="421" y="255" height="245" width="5" fill="#000"></rect><text x="415" y="377.5" dy="0.35em" text-anchor="end">keychain</text></g></g></g></svg>