<svg width="847" height="520" xmlns="http://www.w3.org/2000/svg" version="1.1"><g transform="translate(0, 10)"><g class="links" fill="none" stroke-opacity="0.4"><path d="M5,101.53846153846135C213,101.53846153846135,213,116.53846153846146,421,116.53846153846146" stroke-width="203.0769230769231" style="stroke: rgb(191, 105, 105);"></path><path d="M5,483.07692307692326C213,483.07692307692326,213,312.69230769230785,421,312.69230769230785" stroke-width="33.84615384615385" style="stroke: rgb(191, 152, 105);"></path><path d="M5,307.69230769230774C213,307.69230769230774,213,245.00000000000014,421,245.00000000000014" stroke-width="33.84615384615385" style="stroke: rgb(183, 191, 105);"></path><path d="M5,351.53846153846166C213,351.53846153846166,213,356.53846153846166,421,356.53846153846166" stroke-width="33.84615384615385" style="stroke: rgb(136, 191, 105);"></path><path d="M5,395.38461538461553C213,395.38461538461553,213,390.38461538461553,421,390.38461538461553" stroke-width="33.84615384615385" style="stroke: rgb(105, 191, 121);"></path><path d="M5,439.2307692307694C213,439.2307692307694,213,278.846153846154,421,278.846153846154" stroke-width="33.84615384615385" style="stroke: rgb(105, 191, 167);"></path><path d="M5,246.92307692307685C213,246.92307692307685,213,451.1538461538463,421,451.1538461538463" stroke-width="67.6923076923077" style="stroke: rgb(105, 167, 191);"></path><path d="M426,31.923076923076838C634,31.923076923076838,634,16.923076923076923,842,16.923076923076923" stroke-width="33.84615384615385" style="stroke: rgb(105, 121, 191);"></path><path d="M426,133.4615384615384C634,133.4615384615384,634,395.38461538461536,842,395.38461538461536" stroke-width="33.84615384615385" style="stroke: rgb(105, 121, 191);"></path><path d="M426,167.30769230769224C634,167.30769230769224,634,439.2307692307692,842,439.2307692307692" stroke-width="33.84615384615385" style="stroke: rgb(105, 121, 191);"></path><path d="M426,99.61538461538453C634,99.61538461538453,634,351.53846153846143,842,351.53846153846143" stroke-width="33.84615384615385" style="stroke: rgb(105, 121, 191);"></path><path d="M426,201.15384615384608C634,201.15384615384608,634,483.0769230769231,842,483.0769230769231" stroke-width="33.84615384615385" style="stroke: rgb(105, 121, 191);"></path><path d="M426,65.76923076923069C634,65.76923076923069,634,162.3076923076923,842,162.3076923076923" stroke-width="33.84615384615385" style="stroke: rgb(105, 121, 191);"></path><path d="M426,278.846153846154C634,278.846153846154,634,84.61538461538461,842,84.61538461538461" stroke-width="101.53846153846155" style="stroke: rgb(136, 105, 191);"></path><path d="M426,373.4615384615386C634,373.4615384615386,634,290.7692307692308,842,290.7692307692308" stroke-width="67.6923076923077" style="stroke: rgb(183, 105, 191);"></path><path d="M426,451.1538461538463C634,451.1538461538463,634,213.07692307692304,842,213.07692307692304" stroke-width="67.6923076923077" style="stroke: rgb(191, 105, 152);"></path></g><g class="nodes" font-family="Arial, Helvetica" font-size="10"><g><rect x="842" y="0" height="135.38461538461536" width="5" fill="#000"></rect><text x="836" y="67.69230769230768" dy="0.35em" text-anchor="end">binary file metadata</text></g><g><rect x="842" y="378.46153846153845" height="33.84615384615387" width="5" fill="#000"></rect><text x="836" y="395.38461538461536" dy="0.35em" text-anchor="end">malware reverse engineering</text></g><g><rect x="842" y="256.9230769230769" height="67.69230769230762" width="5" fill="#000"></rect><text x="836" y="290.7692307692307" dy="0.35em" text-anchor="end">netflow/enclave netflow</text></g><g><rect x="842" y="422.3076923076923" height="33.84615384615387" width="5" fill="#000"></rect><text x="836" y="439.2307692307693" dy="0.35em" text-anchor="end">network intrusion detection system</text></g><g><rect x="842" y="334.6153846153845" height="33.846153846153925" width="5" fill="#000"></rect><text x="836" y="351.5384615384615" dy="0.35em" text-anchor="end">network protocol analysis</text></g><g><rect x="842" y="466.1538461538462" height="33.84615384615381" width="5" fill="#000"></rect><text x="836" y="483.0769230769231" dy="0.35em" text-anchor="end">ssl/tls inspection</text></g><g><rect x="842" y="145.38461538461536" height="101.53846153846155" width="5" fill="#000"></rect><text x="836" y="196.15384615384613" dy="0.35em" text-anchor="end">windows event logs</text></g><g><rect x="0" y="-1.9895196601282805e-13" height="203.0769230769232" width="5" fill="#000"></rect><text x="11" y="101.5384615384614" dy="0.35em" text-anchor="start">Antivirus/Antimalware</text></g><g><rect x="0" y="466.15384615384636" height="33.84615384615386" width="5" fill="#000"></rect><text x="11" y="483.07692307692326" dy="0.35em" text-anchor="start">Code Signing</text></g><g><rect x="0" y="290.76923076923083" height="33.84615384615393" width="5" fill="#000"></rect><text x="11" y="307.6923076923078" dy="0.35em" text-anchor="start">Execution Prevention</text></g><g><rect x="0" y="334.61538461538476" height="33.84615384615387" width="5" fill="#000"></rect><text x="11" y="351.53846153846166" dy="0.35em" text-anchor="start">Network Intrusion Prevention</text></g><g><rect x="0" y="378.4615384615386" height="33.84615384615387" width="5" fill="#000"></rect><text x="11" y="395.3846153846156" dy="0.35em" text-anchor="start">Network Segmentation</text></g><g><rect x="0" y="422.3076923076925" height="33.84615384615387" width="5" fill="#000"></rect><text x="11" y="439.2307692307694" dy="0.35em" text-anchor="start">Restrict File and Directory Permissions</text></g><g><rect x="0" y="213.076923076923" height="67.69230769230779" width="5" fill="#000"></rect><text x="11" y="246.9230769230769" dy="0.35em" text-anchor="start">User Account Management</text></g><g><rect x="421" y="228.0769230769232" height="101.53846153846153" width="5" fill="#000"></rect><text x="415" y="278.846153846154" dy="0.35em" text-anchor="end">masquerading</text></g><g><rect x="421" y="417.30769230769243" height="67.69230769230762" width="5" fill="#000"></rect><text x="415" y="451.15384615384625" dy="0.35em" text-anchor="end">new service</text></g><g><rect x="421" y="14.999999999999915" height="203.0769230769233" width="5" fill="#000"></rect><text x="415" y="116.53846153846156" dy="0.35em" text-anchor="end">obfuscated files or information</text></g><g><rect x="421" y="339.61538461538476" height="67.69230769230768" width="5" fill="#000"></rect><text x="415" y="373.46153846153857" dy="0.35em" text-anchor="end">uncommonly used port</text></g></g></g></svg>