<svg width="847" height="520" xmlns="http://www.w3.org/2000/svg" version="1.1"><g transform="translate(0, 10)"><g class="links" fill="none" stroke-opacity="0.4"><path d="M5,137.05882352941146C213,137.05882352941146,213,225.58823529411785,421,225.58823529411785" stroke-width="42.35294117647059" style="stroke: rgb(191, 105, 105);"></path><path d="M5,178.8235294117644C213,178.8235294117644,213,15.588235294117732,421,15.588235294117732" stroke-width="21.176470588235293" style="stroke: rgb(191, 123, 105);"></path><path d="M5,196.47058823529383C213,196.47058823529383,213,159.1176470588236,421,159.1176470588236" stroke-width="14.117647058823529" style="stroke: rgb(191, 123, 105);"></path><path d="M5,428.235294117647C213,428.235294117647,213,312.6470588235293,421,312.6470588235293" stroke-width="7.0588235294117645" style="stroke: rgb(191, 141, 105);"></path><path d="M5,445.2941176470588C213,445.2941176470588,213,450.2941176470588,421,450.2941176470588" stroke-width="7.0588235294117645" style="stroke: rgb(191, 158, 105);"></path><path d="M5,238.23529411764684C213,238.23529411764684,213,298.52941176470574,421,298.52941176470574" stroke-width="7.0588235294117645" style="stroke: rgb(191, 176, 105);"></path><path d="M5,224.1176470588233C213,224.1176470588233,213,36.76470588235303,421,36.76470588235303" stroke-width="21.176470588235293" style="stroke: rgb(191, 176, 105);"></path><path d="M5,300.5882352941175C213,300.5882352941175,213,131.4705882352942,421,131.4705882352942" stroke-width="21.176470588235293" style="stroke: rgb(188, 191, 105);"></path><path d="M5,102.35294117647067C213,102.35294117647067,213,474.4117647058823,421,474.4117647058823" stroke-width="7.0588235294117645" style="stroke: rgb(170, 191, 105);"></path><path d="M5,56.4705882352942C213,56.4705882352942,213,333.23529411764696,421,333.23529411764696" stroke-width="14.117647058823529" style="stroke: rgb(170, 191, 105);"></path><path d="M5,91.76470588235301C213,91.76470588235301,213,405.5882352941176,421,405.5882352941176" stroke-width="14.117647058823529" style="stroke: rgb(170, 191, 105);"></path><path d="M5,67.05882352941184C213,67.05882352941184,213,353.82352941176464,421,353.82352941176464" stroke-width="7.0588235294117645" style="stroke: rgb(170, 191, 105);"></path><path d="M5,77.64705882352949C213,77.64705882352949,213,381.4705882352941,421,381.4705882352941" stroke-width="14.117647058823529" style="stroke: rgb(170, 191, 105);"></path><path d="M5,10.588235294117732C213,10.588235294117732,213,89.11764705882362,421,89.11764705882362" stroke-width="21.176470588235293" style="stroke: rgb(170, 191, 105);"></path><path d="M5,35.29411764705891C213,35.29411764705891,213,270.88235294117646,421,270.88235294117646" stroke-width="28.235294117647058" style="stroke: rgb(170, 191, 105);"></path><path d="M5,276.470588235294C213,276.470588235294,213,360.8823529411764,421,360.8823529411764" stroke-width="7.0588235294117645" style="stroke: rgb(152, 191, 105);"></path><path d="M5,262.35294117647044C213,262.35294117647044,213,110.29411764705891,421,110.29411764705891" stroke-width="21.176470588235293" style="stroke: rgb(152, 191, 105);"></path><path d="M5,407.64705882352945C213,407.64705882352945,213,187.35294117647067,421,187.35294117647067" stroke-width="14.117647058823529" style="stroke: rgb(135, 191, 105);"></path><path d="M5,479.4117647058823C213,479.4117647058823,213,457.35294117647055,421,457.35294117647055" stroke-width="7.0588235294117645" style="stroke: rgb(117, 191, 105);"></path><path d="M5,387.05882352941177C213,387.05882352941177,213,426.17647058823525,421,426.17647058823525" stroke-width="7.0588235294117645" style="stroke: rgb(105, 191, 111);"></path><path d="M5,380C213,380,213,305.5882352941175,421,305.5882352941175" stroke-width="7.0588235294117645" style="stroke: rgb(105, 191, 111);"></path><path d="M5,331.76470588235287C213,331.76470588235287,213,57.94117647058832,421,57.94117647058832" stroke-width="21.176470588235293" style="stroke: rgb(105, 191, 129);"></path><path d="M5,496.4705882352941C213,496.4705882352941,213,491.4705882352941,421,491.4705882352941" stroke-width="7.0588235294117645" style="stroke: rgb(105, 191, 146);"></path><path d="M5,359.4117647058823C213,359.4117647058823,213,173.23529411764713,421,173.23529411764713" stroke-width="14.117647058823529" style="stroke: rgb(105, 191, 164);"></path><path d="M5,462.35294117647055C213,462.35294117647055,213,433.235294117647,421,433.235294117647" stroke-width="7.0588235294117645" style="stroke: rgb(105, 191, 182);"></path><path d="M426,215.0000000000002C634,215.0000000000002,634,289.41176470588243,842,289.41176470588243" stroke-width="7.0588235294117645" style="stroke: rgb(105, 182, 191);"></path><path d="M426,229.11764705882374C634,229.11764705882374,634,372.9411764705883,842,372.9411764705883" stroke-width="7.0588235294117645" style="stroke: rgb(105, 182, 191);"></path><path d="M426,222.05882352941197C634,222.05882352941197,634,355.8823529411765,842,355.8823529411765" stroke-width="7.0588235294117645" style="stroke: rgb(105, 182, 191);"></path><path d="M426,207.94117647058843C634,207.94117647058843,634,205.88235294117655,842,205.88235294117655" stroke-width="7.0588235294117645" style="stroke: rgb(105, 182, 191);"></path><path d="M426,243.23529411764727C634,243.23529411764727,634,476.47058823529403,842,476.47058823529403" stroke-width="7.0588235294117645" style="stroke: rgb(105, 182, 191);"></path><path d="M426,236.1764705882355C634,236.1764705882355,634,452.3529411764706,842,452.3529411764706" stroke-width="7.0588235294117645" style="stroke: rgb(105, 182, 191);"></path><path d="M426,36.76470588235303C634,36.76470588235303,634,139.41176470588243,842,139.41176470588243" stroke-width="63.529411764705884" style="stroke: rgb(105, 164, 191);"></path><path d="M426,173.23529411764713C634,173.23529411764713,634,254.70588235294127,842,254.70588235294127" stroke-width="42.35294117647059" style="stroke: rgb(105, 146, 191);"></path><path d="M426,305.5882352941175C634,305.5882352941175,634,303.52941176470597,842,303.52941176470597" stroke-width="21.176470588235293" style="stroke: rgb(105, 129, 191);"></path><path d="M426,453.8235294117647C634,453.8235294117647,634,407.64705882352945,842,407.64705882352945" stroke-width="14.117647058823529" style="stroke: rgb(105, 111, 191);"></path><path d="M426,89.11764705882362C634,89.11764705882362,634,30.58823529411776,842,30.58823529411776" stroke-width="21.176470588235293" style="stroke: rgb(117, 105, 191);"></path><path d="M426,131.4705882352942C634,131.4705882352942,634,341.764705882353,842,341.764705882353" stroke-width="21.176470588235293" style="stroke: rgb(117, 105, 191);"></path><path d="M426,110.29411764705891C634,110.29411764705891,634,191.764705882353,842,191.764705882353" stroke-width="21.176470588235293" style="stroke: rgb(117, 105, 191);"></path><path d="M426,474.4117647058823C634,474.4117647058823,634,317.6470588235295,842,317.6470588235295" stroke-width="7.0588235294117645" style="stroke: rgb(135, 105, 191);"></path><path d="M426,336.7647058823528C634,336.7647058823528,634,380.00000000000006,842,380.00000000000006" stroke-width="7.0588235294117645" style="stroke: rgb(152, 105, 191);"></path><path d="M426,329.70588235294105C634,329.70588235294105,634,58.82352941176482,842,58.82352941176482" stroke-width="7.0588235294117645" style="stroke: rgb(152, 105, 191);"></path><path d="M426,409.1176470588235C634,409.1176470588235,634,387.0588235294118,842,387.0588235294118" stroke-width="7.0588235294117645" style="stroke: rgb(170, 105, 191);"></path><path d="M426,402.0588235294117C634,402.0588235294117,634,94.11764705882365,842,94.11764705882365" stroke-width="7.0588235294117645" style="stroke: rgb(170, 105, 191);"></path><path d="M426,357.35294117647055C634,357.35294117647055,634,69.41176470588246,842,69.41176470588246" stroke-width="14.117647058823529" style="stroke: rgb(188, 105, 191);"></path><path d="M426,381.4705882352941C634,381.4705882352941,634,83.529411764706,842,83.529411764706" stroke-width="14.117647058823529" style="stroke: rgb(191, 105, 176);"></path><path d="M426,263.8235294117647C634,263.8235294117647,634,48.23529411764717,842,48.23529411764717" stroke-width="14.117647058823529" style="stroke: rgb(191, 105, 158);"></path><path d="M426,277.94117647058823C634,277.94117647058823,634,216.4705882352942,842,216.4705882352942" stroke-width="14.117647058823529" style="stroke: rgb(191, 105, 158);"></path><path d="M426,429.70588235294116C634,429.70588235294116,634,431.764705882353,842,431.764705882353" stroke-width="14.117647058823529" style="stroke: rgb(191, 105, 141);"></path><path d="M426,491.4705882352941C634,491.4705882352941,634,459.4117647058824,842,459.4117647058824" stroke-width="7.0588235294117645" style="stroke: rgb(191, 105, 123);"></path></g><g class="nodes" font-family="Arial, Helvetica" font-size="10"><g><rect x="842" y="424.7058823529412" height="14.117647058823522" width="5" fill="#000"></rect><text x="836" y="431.764705882353" dy="0.35em" text-anchor="end">anti-virus</text></g><g><rect x="842" y="285.8823529411766" height="35.29411764705878" width="5" fill="#000"></rect><text x="836" y="303.52941176470597" dy="0.35em" text-anchor="end">binary file metadata</text></g><g><rect x="842" y="400.5882352941177" height="14.11764705882355" width="5" fill="#000"></rect><text x="836" y="407.64705882352945" dy="0.35em" text-anchor="end">data loss prevention</text></g><g><rect x="842" y="107.64705882352948" height="63.529411764705884" width="5" fill="#000"></rect><text x="836" y="139.41176470588243" dy="0.35em" text-anchor="end">dll monitoring</text></g><g><rect x="842" y="369.41176470588243" height="21.176470588235247" width="5" fill="#000"></rect><text x="836" y="380.00000000000006" dy="0.35em" text-anchor="end">malware reverse engineering</text></g><g><rect x="842" y="20.000000000000114" height="77.64705882352936" width="5" fill="#000"></rect><text x="836" y="58.823529411764795" dy="0.35em" text-anchor="end">netflow/enclave netflow</text></g><g><rect x="842" y="331.17647058823536" height="28.235294117647072" width="5" fill="#000"></rect><text x="836" y="345.2941176470589" dy="0.35em" text-anchor="end">network intrusion detection system</text></g><g><rect x="842" y="181.17647058823536" height="42.35294117647061" width="5" fill="#000"></rect><text x="836" y="202.35294117647067" dy="0.35em" text-anchor="end">network protocol analysis</text></g><g><rect x="842" y="472.9411764705882" height="7.058823529411711" width="5" fill="#000"></rect><text x="836" y="476.47058823529403" dy="0.35em" text-anchor="end">ssl/tls inspection</text></g><g><rect x="842" y="233.52941176470597" height="42.35294117647061" width="5" fill="#000"></rect><text x="836" y="254.70588235294127" dy="0.35em" text-anchor="end">system calls</text></g><g><rect x="842" y="448.82352941176475" height="14.117647058823422" width="5" fill="#000"></rect><text x="836" y="455.88235294117646" dy="0.35em" text-anchor="end">windows event logs</text></g><g><rect x="0" y="115.88235294117615" height="42.35294117647061" width="5" fill="#000"></rect><text x="11" y="137.05882352941146" dy="0.35em" text-anchor="start">Antivirus/Antimalware</text></g><g><rect x="0" y="168.23529411764676" height="35.2941176470589" width="5" fill="#000"></rect><text x="11" y="185.8823529411762" dy="0.35em" text-anchor="start">Audit</text></g><g><rect x="0" y="424.70588235294116" height="7.058823529411768" width="5" fill="#000"></rect><text x="11" y="428.2352941176471" dy="0.35em" text-anchor="start">Code Signing</text></g><g><rect x="0" y="441.7647058823529" height="7.058823529411768" width="5" fill="#000"></rect><text x="11" y="445.2941176470588" dy="0.35em" text-anchor="start">Encrypt Sensitive Information</text></g><g><rect x="0" y="213.52941176470566" height="28.235294117647157" width="5" fill="#000"></rect><text x="11" y="227.64705882352922" dy="0.35em" text-anchor="start">Execution Prevention</text></g><g><rect x="0" y="289.9999999999999" height="21.17647058823536" width="5" fill="#000"></rect><text x="11" y="300.58823529411757" dy="0.35em" text-anchor="start">Filter Network Traffic</text></g><g><rect x="0" y="8.526512829121202e-14" height="105.88235294117607" width="5" fill="#000"></rect><text x="11" y="52.94117647058812" dy="0.35em" text-anchor="start">Network Intrusion Prevention</text></g><g><rect x="0" y="251.7647058823528" height="28.235294117647072" width="5" fill="#000"></rect><text x="11" y="265.88235294117635" dy="0.35em" text-anchor="start">Network Segmentation</text></g><g><rect x="0" y="400.5882352941177" height="14.11764705882348" width="5" fill="#000"></rect><text x="11" y="407.6470588235294" dy="0.35em" text-anchor="start">Privileged Account Management</text></g><g><rect x="0" y="475.88235294117646" height="7.058823529411754" width="5" fill="#000"></rect><text x="11" y="479.4117647058823" dy="0.35em" text-anchor="start">Remote Data Storage</text></g><g><rect x="0" y="376.47058823529414" height="14.117647058823508" width="5" fill="#000"></rect><text x="11" y="383.5294117647059" dy="0.35em" text-anchor="start">Restrict File and Directory Permissions</text></g><g><rect x="0" y="321.17647058823525" height="21.176470588235304" width="5" fill="#000"></rect><text x="11" y="331.7647058823529" dy="0.35em" text-anchor="start">Restrict Library Loading</text></g><g><rect x="0" y="492.94117647058823" height="7.058823529411711" width="5" fill="#000"></rect><text x="11" y="496.4705882352941" dy="0.35em" text-anchor="start">Restrict Registry Permissions</text></g><g><rect x="0" y="352.35294117647055" height="14.117647058823593" width="5" fill="#000"></rect><text x="11" y="359.4117647058823" dy="0.35em" text-anchor="start">User Account Control</text></g><g><rect x="0" y="458.8235294117647" height="7.0588235294117645" width="5" fill="#000"></rect><text x="11" y="462.35294117647055" dy="0.35em" text-anchor="start">User Account Management</text></g><g><rect x="421" y="446.7647058823529" height="14.117647058823508" width="5" fill="#000"></rect><text x="415" y="453.8235294117647" dy="0.35em" text-anchor="end">automated collection</text></g><g><rect x="421" y="152.05882352941182" height="42.35294117647072" width="5" fill="#000"></rect><text x="415" y="173.2352941176472" dy="0.35em" text-anchor="end">bypass user account control</text></g><g><rect x="421" y="350.2941176470588" height="14.117647058823536" width="5" fill="#000"></rect><text x="415" y="357.35294117647055" dy="0.35em" text-anchor="end">commonly used port</text></g><g><rect x="421" y="374.4117647058823" height="14.117647058823536" width="5" fill="#000"></rect><text x="415" y="381.4705882352941" dy="0.35em" text-anchor="end">connection proxy</text></g><g><rect x="421" y="78.52941176470597" height="63.529411764705856" width="5" fill="#000"></rect><text x="415" y="110.2941176470589" dy="0.35em" text-anchor="end">custom command and control protocol</text></g><g><rect x="421" y="326.1764705882352" height="14.117647058823621" width="5" fill="#000"></rect><text x="415" y="333.235294117647" dy="0.35em" text-anchor="end">custom cryptographic protocol</text></g><g><rect x="421" y="470.88235294117646" height="7.058823529411768" width="5" fill="#000"></rect><text x="415" y="474.4117647058823" dy="0.35em" text-anchor="end">data compressed</text></g><g><rect x="421" y="422.6470588235294" height="14.117647058823529" width="5" fill="#000"></rect><text x="415" y="429.70588235294116" dy="0.35em" text-anchor="end">disabling security tools</text></g><g><rect x="421" y="5.000000000000085" height="63.529411764705884" width="5" fill="#000"></rect><text x="415" y="36.76470588235303" dy="0.35em" text-anchor="end">dll search order hijacking</text></g><g><rect x="421" y="294.9999999999999" height="21.17647058823529" width="5" fill="#000"></rect><text x="415" y="305.5882352941175" dy="0.35em" text-anchor="end">masquerading</text></g><g><rect x="421" y="487.94117647058823" height="7.058823529411711" width="5" fill="#000"></rect><text x="415" y="491.4705882352941" dy="0.35em" text-anchor="end">modify registry</text></g><g><rect x="421" y="204.41176470588255" height="42.35294117647038" width="5" fill="#000"></rect><text x="415" y="225.58823529411774" dy="0.35em" text-anchor="end">obfuscated files or information</text></g><g><rect x="421" y="256.7647058823529" height="28.23529411764696" width="5" fill="#000"></rect><text x="415" y="270.8823529411764" dy="0.35em" text-anchor="end">remote file copy</text></g><g><rect x="421" y="398.52941176470586" height="14.117647058823536" width="5" fill="#000"></rect><text x="415" y="405.5882352941176" dy="0.35em" text-anchor="end">standard application layer protocol</text></g></g></g></svg>