<svg width="847" height="520" xmlns="http://www.w3.org/2000/svg" version="1.1"><g transform="translate(0, 10)"><g class="links" fill="none" stroke-opacity="0.4"><path d="M5,80C213,80,213,405.0000000000002,421,405.0000000000002" stroke-width="150" style="stroke: rgb(191, 105, 105);"></path><path d="M5,287.5C213,287.5,213,132.49999999999972,421,132.49999999999972" stroke-width="75" style="stroke: rgb(191, 179, 105);"></path><path d="M5,372.5C213,372.5,213,207.49999999999972,421,207.49999999999972" stroke-width="75" style="stroke: rgb(130, 191, 105);"></path><path d="M5,202.4999999999999C213,202.4999999999999,213,57.499999999999716,421,57.499999999999716" stroke-width="75" style="stroke: rgb(105, 191, 154);"></path><path d="M5,457.5C213,457.5,213,282.4999999999997,421,282.4999999999997" stroke-width="75" style="stroke: rgb(105, 154, 191);"></path><path d="M426,367.5000000000002C634,367.5000000000002,634,347.5,842,347.5" stroke-width="25" style="stroke: rgb(130, 105, 191);"></path><path d="M426,467.5000000000002C634,467.5000000000002,634,487.5,842,487.5" stroke-width="25" style="stroke: rgb(130, 105, 191);"></path><path d="M426,392.5000000000002C634,392.5000000000002,634,382.5,842,382.5" stroke-width="25" style="stroke: rgb(130, 105, 191);"></path><path d="M426,417.5000000000002C634,417.5000000000002,634,417.5,842,417.5" stroke-width="25" style="stroke: rgb(130, 105, 191);"></path><path d="M426,442.5000000000002C634,442.5000000000002,634,452.5,842,452.5" stroke-width="25" style="stroke: rgb(130, 105, 191);"></path><path d="M426,342.5000000000002C634,342.5000000000002,634,312.5000000000001,842,312.5000000000001" stroke-width="25" style="stroke: rgb(130, 105, 191);"></path><path d="M426,169.99999999999972C634,169.99999999999972,634,150.00000000000009,842,150.00000000000009" stroke-width="300" style="stroke: rgb(191, 105, 179);"></path></g><g class="nodes" font-family="Arial, Helvetica" font-size="10"><g><rect x="842" y="335" height="25.000000000000007" width="5" fill="#000"></rect><text x="836" y="347.5" dy="0.35em" text-anchor="end">binary file metadata</text></g><g><rect x="842" y="475" height="24.999999999999943" width="5" fill="#000"></rect><text x="836" y="487.5" dy="0.35em" text-anchor="end">malware reverse engineering</text></g><g><rect x="842" y="370" height="25" width="5" fill="#000"></rect><text x="836" y="382.5" dy="0.35em" text-anchor="end">network intrusion detection system</text></g><g><rect x="842" y="405" height="25" width="5" fill="#000"></rect><text x="836" y="417.5" dy="0.35em" text-anchor="end">network protocol analysis</text></g><g><rect x="842" y="440" height="25" width="5" fill="#000"></rect><text x="836" y="452.5" dy="0.35em" text-anchor="end">ssl/tls inspection</text></g><g><rect x="842" y="8.526512829121202e-14" height="324.9999999999999" width="5" fill="#000"></rect><text x="836" y="162.50000000000003" dy="0.35em" text-anchor="end">windows event logs</text></g><g><rect x="0" y="5" height="149.9999999999999" width="5" fill="#000"></rect><text x="11" y="79.99999999999994" dy="0.35em" text-anchor="start">Antivirus/Antimalware</text></g><g><rect x="0" y="250" height="75" width="5" fill="#000"></rect><text x="11" y="287.5" dy="0.35em" text-anchor="start">Audit</text></g><g><rect x="0" y="335" height="75" width="5" fill="#000"></rect><text x="11" y="372.5" dy="0.35em" text-anchor="start">Operating System Configuration</text></g><g><rect x="0" y="164.9999999999999" height="75.00000000000011" width="5" fill="#000"></rect><text x="11" y="202.49999999999994" dy="0.35em" text-anchor="start">Privileged Account Management</text></g><g><rect x="0" y="420" height="75" width="5" fill="#000"></rect><text x="11" y="457.5" dy="0.35em" text-anchor="start">User Account Management</text></g><g><rect x="421" y="330.0000000000002" height="150.00000000000003" width="5" fill="#000"></rect><text x="415" y="405.0000000000002" dy="0.35em" text-anchor="end">obfuscated files or information</text></g><g><rect x="421" y="19.999999999999716" height="300.0000000000005" width="5" fill="#000"></rect><text x="415" y="169.99999999999997" dy="0.35em" text-anchor="end">scheduled task</text></g></g></g></svg>