<svg width="847" height="520" xmlns="http://www.w3.org/2000/svg" version="1.1"><g transform="translate(0, 10)"><g class="links" fill="none" stroke-opacity="0.4"><path d="M5,335.8333333333334C213,335.8333333333334,213,182.49999999999994,421,182.49999999999994" stroke-width="38.333333333333336" style="stroke: rgb(191, 105, 105);"></path><path d="M5,384.1666666666668C213,384.1666666666668,213,220.8333333333333,421,220.8333333333333" stroke-width="38.333333333333336" style="stroke: rgb(191, 156, 105);"></path><path d="M5,191.66666666666657C213,191.66666666666657,213,326.66666666666663,421,326.66666666666663" stroke-width="76.66666666666667" style="stroke: rgb(174, 191, 105);"></path><path d="M5,249.16666666666654C213,249.16666666666654,213,394.16666666666686,421,394.16666666666686" stroke-width="38.333333333333336" style="stroke: rgb(174, 191, 105);"></path><path d="M5,76.66666666666656C213,76.66666666666656,213,76.66666666666664,421,76.66666666666664" stroke-width="153.33333333333334" style="stroke: rgb(174, 191, 105);"></path><path d="M5,287.4999999999999C213,287.4999999999999,213,480.8333333333333,421,480.8333333333333" stroke-width="38.333333333333336" style="stroke: rgb(174, 191, 105);"></path><path d="M5,480.83333333333354C213,480.83333333333354,213,432.50000000000017,421,432.50000000000017" stroke-width="38.333333333333336" style="stroke: rgb(122, 191, 105);"></path><path d="M5,432.50000000000017C213,432.50000000000017,213,259.16666666666663,421,259.16666666666663" stroke-width="38.333333333333336" style="stroke: rgb(105, 191, 139);"></path><path d="M426,220.8333333333333C634,220.8333333333333,634,264.1666666666668,842,264.1666666666668" stroke-width="115" style="stroke: rgb(105, 191, 191);"></path><path d="M426,345.8333333333333C634,345.8333333333333,634,475.8333333333332,842,475.8333333333332" stroke-width="38.333333333333336" style="stroke: rgb(105, 139, 191);"></path><path d="M426,307.5C634,307.5,634,100.83333333333346,842,100.83333333333346" stroke-width="38.333333333333336" style="stroke: rgb(105, 139, 191);"></path><path d="M426,413.3333333333335C634,413.3333333333335,634,158.33333333333346,842,158.33333333333346" stroke-width="76.66666666666667" style="stroke: rgb(122, 105, 191);"></path><path d="M426,38.33333333333331C634,38.33333333333331,634,43.33333333333345,842,43.33333333333345" stroke-width="76.66666666666667" style="stroke: rgb(174, 105, 191);"></path><path d="M426,114.99999999999997C634,114.99999999999997,634,370.0000000000001,842,370.0000000000001" stroke-width="76.66666666666667" style="stroke: rgb(174, 105, 191);"></path><path d="M426,480.8333333333333C634,480.8333333333333,634,427.50000000000017,842,427.50000000000017" stroke-width="38.333333333333336" style="stroke: rgb(191, 105, 156);"></path></g><g class="nodes" font-family="Arial, Helvetica" font-size="10"><g><rect x="842" y="206.6666666666668" height="115" width="5" fill="#000"></rect><text x="836" y="264.1666666666668" dy="0.35em" text-anchor="end">binary file metadata</text></g><g><rect x="842" y="456.6666666666665" height="38.33333333333337" width="5" fill="#000"></rect><text x="836" y="475.8333333333332" dy="0.35em" text-anchor="end">malware reverse engineering</text></g><g><rect x="842" y="5.000000000000114" height="191.66666666666669" width="5" fill="#000"></rect><text x="836" y="100.83333333333346" dy="0.35em" text-anchor="end">netflow/enclave netflow</text></g><g><rect x="842" y="331.6666666666668" height="114.99999999999972" width="5" fill="#000"></rect><text x="836" y="389.16666666666663" dy="0.35em" text-anchor="end">network protocol analysis</text></g><g><rect x="0" y="316.66666666666674" height="38.33333333333338" width="5" fill="#000"></rect><text x="11" y="335.8333333333334" dy="0.35em" text-anchor="start">Code Signing</text></g><g><rect x="0" y="365.0000000000001" height="38.333333333333364" width="5" fill="#000"></rect><text x="11" y="384.1666666666668" dy="0.35em" text-anchor="start">Execution Prevention</text></g><g><rect x="0" y="-1.1368683772161603e-13" height="306.66666666666686" width="5" fill="#000"></rect><text x="11" y="153.33333333333331" dy="0.35em" text-anchor="start">Network Intrusion Prevention</text></g><g><rect x="0" y="461.66666666666686" height="38.33333333333326" width="5" fill="#000"></rect><text x="11" y="480.8333333333335" dy="0.35em" text-anchor="start">Network Segmentation</text></g><g><rect x="0" y="413.3333333333335" height="38.33333333333334" width="5" fill="#000"></rect><text x="11" y="432.50000000000017" dy="0.35em" text-anchor="start">Restrict File and Directory Permissions</text></g><g><rect x="421" y="375.00000000000017" height="76.66666666666646" width="5" fill="#000"></rect><text x="415" y="413.33333333333337" dy="0.35em" text-anchor="end">commonly used port</text></g><g><rect x="421" y="461.66666666666663" height="38.33333333333337" width="5" fill="#000"></rect><text x="415" y="480.8333333333333" dy="0.35em" text-anchor="end">data obfuscation</text></g><g><rect x="421" y="163.3333333333333" height="115.00000000000003" width="5" fill="#000"></rect><text x="415" y="220.83333333333331" dy="0.35em" text-anchor="end">masquerading</text></g><g><rect x="421" y="-2.842170943040401e-14" height="153.33333333333331" width="5" fill="#000"></rect><text x="415" y="76.66666666666663" dy="0.35em" text-anchor="end">remote file copy</text></g><g><rect x="421" y="288.3333333333333" height="76.66666666666686" width="5" fill="#000"></rect><text x="415" y="326.66666666666674" dy="0.35em" text-anchor="end">standard application layer protocol</text></g></g></g></svg>