<svg width="847" height="520" xmlns="http://www.w3.org/2000/svg" version="1.1"><g transform="translate(0, 10)"><g class="links" fill="none" stroke-opacity="0.4"><path d="M5,35.00000000000003C213,35.00000000000003,213,64.99999999999986,421,64.99999999999986" stroke-width="70" style="stroke: rgb(191, 105, 105);"></path><path d="M5,482.5000000000001C213,482.5000000000001,213,452.5000000000001,421,452.5000000000001" stroke-width="35" style="stroke: rgb(191, 148, 105);"></path><path d="M5,115.00000000000009C213,115.00000000000009,213,134.99999999999986,421,134.99999999999986" stroke-width="70" style="stroke: rgb(191, 191, 105);"></path><path d="M5,302.5000000000001C213,302.5000000000001,213,302.5000000000001,421,302.5000000000001" stroke-width="35" style="stroke: rgb(148, 191, 105);"></path><path d="M5,257.5000000000001C213,257.5000000000001,213,267.5000000000001,421,267.5000000000001" stroke-width="35" style="stroke: rgb(105, 191, 105);"></path><path d="M5,347.5000000000001C213,347.5000000000001,213,417.5000000000001,421,417.5000000000001" stroke-width="35" style="stroke: rgb(105, 191, 148);"></path><path d="M5,195.00000000000009C213,195.00000000000009,213,204.99999999999986,421,204.99999999999986" stroke-width="70" style="stroke: rgb(105, 191, 191);"></path><path d="M5,392.5000000000001C213,392.5000000000001,213,337.5000000000001,421,337.5000000000001" stroke-width="35" style="stroke: rgb(105, 148, 191);"></path><path d="M5,437.5000000000001C213,437.5000000000001,213,372.5000000000001,421,372.5000000000001" stroke-width="35" style="stroke: rgb(105, 105, 191);"></path><path d="M426,187.49999999999986C634,187.49999999999986,634,342.5000000000001,842,342.5000000000001" stroke-width="105" style="stroke: rgb(148, 105, 191);"></path><path d="M426,82.49999999999986C634,82.49999999999986,634,227.49999999999997,842,227.49999999999997" stroke-width="105" style="stroke: rgb(148, 105, 191);"></path><path d="M426,435.0000000000001C634,435.0000000000001,634,440.0000000000001,842,440.0000000000001" stroke-width="70" style="stroke: rgb(191, 105, 191);"></path><path d="M426,320.0000000000001C634,320.0000000000001,634,95,842,95" stroke-width="140" style="stroke: rgb(191, 105, 148);"></path></g><g class="nodes" font-family="Arial, Helvetica" font-size="10"><g><rect x="842" y="25" height="139.99999999999997" width="5" fill="#000"></rect><text x="836" y="94.99999999999999" dy="0.35em" text-anchor="end">anti-virus</text></g><g><rect x="842" y="290.0000000000001" height="105" width="5" fill="#000"></rect><text x="836" y="342.5000000000001" dy="0.35em" text-anchor="end">dll monitoring</text></g><g><rect x="842" y="174.99999999999997" height="105.00000000000011" width="5" fill="#000"></rect><text x="836" y="227.50000000000003" dy="0.35em" text-anchor="end">loaded dlls</text></g><g><rect x="842" y="405.0000000000001" height="69.99999999999989" width="5" fill="#000"></rect><text x="836" y="440.00000000000006" dy="0.35em" text-anchor="end">windows event logs</text></g><g><rect x="0" y="2.842170943040401e-14" height="70.00000000000006" width="5" fill="#000"></rect><text x="11" y="35.00000000000006" dy="0.35em" text-anchor="start">Code Signing</text></g><g><rect x="0" y="465.0000000000001" height="34.99999999999983" width="5" fill="#000"></rect><text x="11" y="482.5" dy="0.35em" text-anchor="start">Data Backup</text></g><g><rect x="0" y="80.00000000000009" height="70" width="5" fill="#000"></rect><text x="11" y="115.00000000000009" dy="0.35em" text-anchor="start">Disable or Remove Feature or Program</text></g><g><rect x="0" y="285.0000000000001" height="35.00000000000002" width="5" fill="#000"></rect><text x="11" y="302.5000000000001" dy="0.35em" text-anchor="start">Execution Prevention</text></g><g><rect x="0" y="240.00000000000009" height="35.00000000000003" width="5" fill="#000"></rect><text x="11" y="257.5000000000001" dy="0.35em" text-anchor="start">Network Intrusion Prevention</text></g><g><rect x="0" y="330.0000000000001" height="35" width="5" fill="#000"></rect><text x="11" y="347.5000000000001" dy="0.35em" text-anchor="start">Operating System Configuration</text></g><g><rect x="0" y="160.00000000000009" height="70" width="5" fill="#000"></rect><text x="11" y="195.00000000000009" dy="0.35em" text-anchor="start">Privileged Account Management</text></g><g><rect x="0" y="375.0000000000001" height="35" width="5" fill="#000"></rect><text x="11" y="392.5000000000001" dy="0.35em" text-anchor="start">Restrict Web-Based Content</text></g><g><rect x="0" y="420.0000000000001" height="35" width="5" fill="#000"></rect><text x="11" y="437.5000000000001" dy="0.35em" text-anchor="start">User Training</text></g><g><rect x="421" y="400.0000000000001" height="70" width="5" fill="#000"></rect><text x="415" y="435.0000000000001" dy="0.35em" text-anchor="end">inhibit system recovery</text></g><g><rect x="421" y="29.999999999999858" height="210.00000000000028" width="5" fill="#000"></rect><text x="415" y="135" dy="0.35em" text-anchor="end">powershell</text></g><g><rect x="421" y="250.00000000000014" height="140" width="5" fill="#000"></rect><text x="415" y="320.0000000000001" dy="0.35em" text-anchor="end">user execution</text></g></g></g></svg>