<svg width="847" height="520" xmlns="http://www.w3.org/2000/svg" version="1.1"><g transform="translate(0, 10)"><g class="links" fill="none" stroke-opacity="0.4"><path d="M5,159.00000000000006C213,159.00000000000006,213,189.99999999999983,421,189.99999999999983" stroke-width="72" style="stroke: rgb(191, 105, 105);"></path><path d="M5,363.0000000000001C213,363.0000000000001,213,89.99999999999994,421,89.99999999999994" stroke-width="36" style="stroke: rgb(191, 135, 105);"></path><path d="M5,483C213,483,213,329.9999999999999,421,329.9999999999999" stroke-width="24" style="stroke: rgb(191, 166, 105);"></path><path d="M5,449C213,449,213,432.0000000000001,421,432.0000000000001" stroke-width="24" style="stroke: rgb(186, 191, 105);"></path><path d="M5,65.00000000000006C213,65.00000000000006,213,398,421,398" stroke-width="24" style="stroke: rgb(155, 191, 105);"></path><path d="M5,89.00000000000006C213,89.00000000000006,213,466.0000000000001,421,466.0000000000001" stroke-width="24" style="stroke: rgb(155, 191, 105);"></path><path d="M5,29.000000000000057C213,29.000000000000057,213,259.9999999999999,421,259.9999999999999" stroke-width="48" style="stroke: rgb(155, 191, 105);"></path><path d="M5,107.00000000000006C213,107.00000000000006,213,494.0000000000001,421,494.0000000000001" stroke-width="12" style="stroke: rgb(155, 191, 105);"></path><path d="M5,409.0000000000001C213,409.0000000000001,213,125.99999999999994,421,125.99999999999994" stroke-width="36" style="stroke: rgb(125, 191, 105);"></path><path d="M5,253.0000000000001C213,253.0000000000001,213,305.9999999999999,421,305.9999999999999" stroke-width="24" style="stroke: rgb(105, 191, 115);"></path><path d="M5,223.0000000000001C213,223.0000000000001,213,17.999999999999943,421,17.999999999999943" stroke-width="36" style="stroke: rgb(105, 191, 115);"></path><path d="M5,323.0000000000001C213,323.0000000000001,213,363.9999999999999,421,363.9999999999999" stroke-width="24" style="stroke: rgb(105, 191, 145);"></path><path d="M5,293.0000000000001C213,293.0000000000001,213,53.99999999999994,421,53.99999999999994" stroke-width="36" style="stroke: rgb(105, 191, 145);"></path><path d="M426,183.99999999999983C634,183.99999999999983,634,374.9999999999999,842,374.9999999999999" stroke-width="12" style="stroke: rgb(105, 191, 176);"></path><path d="M426,195.99999999999983C634,195.99999999999983,634,420.9999999999999,842,420.9999999999999" stroke-width="12" style="stroke: rgb(105, 191, 176);"></path><path d="M426,207.99999999999983C634,207.99999999999983,634,466.9999999999999,842,466.9999999999999" stroke-width="12" style="stroke: rgb(105, 191, 176);"></path><path d="M426,171.99999999999983C634,171.99999999999983,634,258.9999999999999,842,258.9999999999999" stroke-width="12" style="stroke: rgb(105, 191, 176);"></path><path d="M426,219.99999999999983C634,219.99999999999983,634,488.9999999999999,842,488.9999999999999" stroke-width="12" style="stroke: rgb(105, 191, 176);"></path><path d="M426,159.99999999999983C634,159.99999999999983,634,155.00000000000006,842,155.00000000000006" stroke-width="12" style="stroke: rgb(105, 191, 176);"></path><path d="M426,71.99999999999994C634,71.99999999999994,634,77.00000000000006,842,77.00000000000006" stroke-width="144" style="stroke: rgb(105, 176, 191);"></path><path d="M426,317.9999999999999C634,317.9999999999999,634,334.9999999999999,842,334.9999999999999" stroke-width="48" style="stroke: rgb(105, 145, 191);"></path><path d="M426,432.0000000000001C634,432.0000000000001,634,392.9999999999999,842,392.9999999999999" stroke-width="24" style="stroke: rgb(105, 115, 191);"></path><path d="M426,404C634,404,634,432.9999999999999,842,432.9999999999999" stroke-width="12" style="stroke: rgb(125, 105, 191);"></path><path d="M426,392C634,392,634,224.99999999999983,842,224.99999999999983" stroke-width="12" style="stroke: rgb(125, 105, 191);"></path><path d="M426,472.0000000000001C634,472.0000000000001,634,444.9999999999999,842,444.9999999999999" stroke-width="12" style="stroke: rgb(155, 105, 191);"></path><path d="M426,460.0000000000001C634,460.0000000000001,634,236.99999999999983,842,236.99999999999983" stroke-width="12" style="stroke: rgb(155, 105, 191);"></path><path d="M426,247.99999999999986C634,247.99999999999986,634,206.99999999999983,842,206.99999999999983" stroke-width="24" style="stroke: rgb(186, 105, 191);"></path><path d="M426,271.9999999999999C634,271.9999999999999,634,276.9999999999999,842,276.9999999999999" stroke-width="24" style="stroke: rgb(186, 105, 191);"></path><path d="M426,494.0000000000001C634,494.0000000000001,634,294.9999999999999,842,294.9999999999999" stroke-width="12" style="stroke: rgb(191, 105, 166);"></path><path d="M426,363.9999999999999C634,363.9999999999999,634,173.00000000000006,842,173.00000000000006" stroke-width="24" style="stroke: rgb(191, 105, 135);"></path></g><g class="nodes" font-family="Arial, Helvetica" font-size="10"><g><rect x="842" y="368.9999999999999" height="36" width="5" fill="#000"></rect><text x="836" y="386.9999999999999" dy="0.35em" text-anchor="end">binary file metadata</text></g><g><rect x="842" y="310.9999999999999" height="48" width="5" fill="#000"></rect><text x="836" y="334.9999999999999" dy="0.35em" text-anchor="end">dll monitoring</text></g><g><rect x="842" y="414.9999999999999" height="36" width="5" fill="#000"></rect><text x="836" y="432.9999999999999" dy="0.35em" text-anchor="end">malware reverse engineering</text></g><g><rect x="842" y="194.99999999999983" height="48.00000000000006" width="5" fill="#000"></rect><text x="836" y="218.99999999999986" dy="0.35em" text-anchor="end">netflow/enclave netflow</text></g><g><rect x="842" y="460.9999999999999" height="12" width="5" fill="#000"></rect><text x="836" y="466.9999999999999" dy="0.35em" text-anchor="end">network intrusion detection system</text></g><g><rect x="842" y="252.9999999999999" height="48.00000000000003" width="5" fill="#000"></rect><text x="836" y="276.9999999999999" dy="0.35em" text-anchor="end">network protocol analysis</text></g><g><rect x="842" y="482.9999999999999" height="12" width="5" fill="#000"></rect><text x="836" y="488.9999999999999" dy="0.35em" text-anchor="end">ssl/tls inspection</text></g><g><rect x="842" y="5.000000000000057" height="179.99999999999977" width="5" fill="#000"></rect><text x="836" y="94.99999999999994" dy="0.35em" text-anchor="end">windows event logs</text></g><g><rect x="0" y="123.00000000000006" height="72.00000000000006" width="5" fill="#000"></rect><text x="11" y="159.00000000000009" dy="0.35em" text-anchor="start">Antivirus/Antimalware</text></g><g><rect x="0" y="345.0000000000001" height="36" width="5" fill="#000"></rect><text x="11" y="363.0000000000001" dy="0.35em" text-anchor="start">Audit</text></g><g><rect x="0" y="471" height="23.999999999999915" width="5" fill="#000"></rect><text x="11" y="482.99999999999994" dy="0.35em" text-anchor="start">Behavior Prevention on Endpoint</text></g><g><rect x="0" y="437" height="24" width="5" fill="#000"></rect><text x="11" y="449" dy="0.35em" text-anchor="start">Exploit Protection</text></g><g><rect x="0" y="5.000000000000057" height="108" width="5" fill="#000"></rect><text x="11" y="59.00000000000006" dy="0.35em" text-anchor="start">Network Intrusion Prevention</text></g><g><rect x="0" y="391.0000000000001" height="35.999999999999886" width="5" fill="#000"></rect><text x="11" y="409.00000000000006" dy="0.35em" text-anchor="start">Operating System Configuration</text></g><g><rect x="0" y="205.0000000000001" height="60" width="5" fill="#000"></rect><text x="11" y="235.0000000000001" dy="0.35em" text-anchor="start">Privileged Account Management</text></g><g><rect x="0" y="275.0000000000001" height="60" width="5" fill="#000"></rect><text x="11" y="305.0000000000001" dy="0.35em" text-anchor="start">User Account Management</text></g><g><rect x="421" y="488.0000000000001" height="12" width="5" fill="#000"></rect><text x="415" y="494.0000000000001" dy="0.35em" text-anchor="end">data encoding</text></g><g><rect x="421" y="386" height="24.000000000000085" width="5" fill="#000"></rect><text x="415" y="398.00000000000006" dy="0.35em" text-anchor="end">fallback channels</text></g><g><rect x="421" y="351.9999999999999" height="24.000000000000114" width="5" fill="#000"></rect><text x="415" y="363.99999999999994" dy="0.35em" text-anchor="end">new service</text></g><g><rect x="421" y="153.99999999999983" height="72.00000000000003" width="5" fill="#000"></rect><text x="415" y="189.99999999999983" dy="0.35em" text-anchor="end">obfuscated files or information</text></g><g><rect x="421" y="293.9999999999999" height="48" width="5" fill="#000"></rect><text x="415" y="317.9999999999999" dy="0.35em" text-anchor="end">process injection</text></g><g><rect x="421" y="235.99999999999986" height="48.00000000000003" width="5" fill="#000"></rect><text x="415" y="259.9999999999999" dy="0.35em" text-anchor="end">remote file copy</text></g><g><rect x="421" y="420.0000000000001" height="23.999999999999993" width="5" fill="#000"></rect><text x="415" y="432.0000000000001" dy="0.35em" text-anchor="end">rundll32</text></g><g><rect x="421" y="-5.684341886080802e-14" height="143.9999999999999" width="5" fill="#000"></rect><text x="415" y="71.99999999999989" dy="0.35em" text-anchor="end">scheduled task</text></g><g><rect x="421" y="454.0000000000001" height="23.99999999999997" width="5" fill="#000"></rect><text x="415" y="466.0000000000001" dy="0.35em" text-anchor="end">standard application layer protocol</text></g></g></g></svg>