<svg width="847" height="520" xmlns="http://www.w3.org/2000/svg" version="1.1"><g transform="translate(0, 10)"><g class="links" fill="none" stroke-opacity="0.4"><path d="M5,57.49999999999986C213,57.49999999999986,213,182.50000000000017,421,182.50000000000017" stroke-width="105" style="stroke: rgb(191, 105, 105);"></path><path d="M5,450.00000000000017C213,450.00000000000017,213,297.49999999999994,421,297.49999999999994" stroke-width="35" style="stroke: rgb(191, 142, 105);"></path><path d="M5,405.00000000000017C213,405.00000000000017,213,102.50000000000017,421,102.50000000000017" stroke-width="35" style="stroke: rgb(191, 179, 105);"></path><path d="M5,207.5C213,207.5,213,467.49999999999983,421,467.49999999999983" stroke-width="35" style="stroke: rgb(166, 191, 105);"></path><path d="M5,155C213,155,213,359.99999999999994,421,359.99999999999994" stroke-width="70" style="stroke: rgb(166, 191, 105);"></path><path d="M5,315C213,315,213,67.50000000000017,421,67.50000000000017" stroke-width="35" style="stroke: rgb(130, 191, 105);"></path><path d="M5,360.0000000000001C213,360.0000000000001,213,262.49999999999994,421,262.49999999999994" stroke-width="35" style="stroke: rgb(105, 191, 117);"></path><path d="M5,486.25000000000017C213,486.25000000000017,213,431.24999999999983,421,431.24999999999983" stroke-width="17.5" style="stroke: rgb(105, 191, 154);"></path><path d="M5,278.75C213,278.75,213,413.74999999999983,421,413.74999999999983" stroke-width="17.5" style="stroke: rgb(105, 191, 191);"></path><path d="M5,252.5C213,252.5,213,32.50000000000017,421,32.50000000000017" stroke-width="35" style="stroke: rgb(105, 191, 191);"></path><path d="M426,191.25000000000017C634,191.25000000000017,634,436.2499999999999,842,436.2499999999999" stroke-width="17.5" style="stroke: rgb(105, 154, 191);"></path><path d="M426,173.75000000000017C634,173.75000000000017,634,346.2499999999999,842,346.2499999999999" stroke-width="17.5" style="stroke: rgb(105, 154, 191);"></path><path d="M426,208.75000000000017C634,208.75000000000017,634,463.7499999999999,842,463.7499999999999" stroke-width="17.5" style="stroke: rgb(105, 154, 191);"></path><path d="M426,156.25000000000017C634,156.25000000000017,634,221.2499999999999,842,221.2499999999999" stroke-width="17.5" style="stroke: rgb(105, 154, 191);"></path><path d="M426,226.25000000000017C634,226.25000000000017,634,491.2499999999999,842,491.2499999999999" stroke-width="17.5" style="stroke: rgb(105, 154, 191);"></path><path d="M426,138.75000000000017C634,138.75000000000017,634,113.75000000000014,842,113.75000000000014" stroke-width="17.5" style="stroke: rgb(105, 154, 191);"></path><path d="M426,279.99999999999994C634,279.99999999999994,634,167.49999999999991,842,167.49999999999991" stroke-width="70" style="stroke: rgb(105, 117, 191);"></path><path d="M426,67.50000000000017C634,67.50000000000017,634,52.50000000000014,842,52.50000000000014" stroke-width="105" style="stroke: rgb(130, 105, 191);"></path><path d="M426,476.24999999999983C634,476.24999999999983,634,363.7499999999999,842,363.7499999999999" stroke-width="17.5" style="stroke: rgb(166, 105, 191);"></path><path d="M426,458.74999999999983C634,458.74999999999983,634,318.7499999999999,842,318.7499999999999" stroke-width="17.5" style="stroke: rgb(166, 105, 191);"></path><path d="M426,377.49999999999994C634,377.49999999999994,634,292.4999999999999,842,292.4999999999999" stroke-width="35" style="stroke: rgb(191, 105, 179);"></path><path d="M426,342.49999999999994C634,342.49999999999994,634,247.4999999999999,842,247.4999999999999" stroke-width="35" style="stroke: rgb(191, 105, 179);"></path><path d="M426,422.49999999999983C634,422.49999999999983,634,399.9999999999999,842,399.9999999999999" stroke-width="35" style="stroke: rgb(191, 105, 142);"></path></g><g class="nodes" font-family="Arial, Helvetica" font-size="10"><g><rect x="842" y="382.4999999999999" height="35" width="5" fill="#000"></rect><text x="836" y="399.9999999999999" dy="0.35em" text-anchor="end">anti-virus</text></g><g><rect x="842" y="427.4999999999999" height="17.5" width="5" fill="#000"></rect><text x="836" y="436.2499999999999" dy="0.35em" text-anchor="end">binary file metadata</text></g><g><rect x="842" y="132.49999999999991" height="69.99999999999996" width="5" fill="#000"></rect><text x="836" y="167.4999999999999" dy="0.35em" text-anchor="end">dll monitoring</text></g><g><rect x="842" y="337.4999999999999" height="35.00000000000003" width="5" fill="#000"></rect><text x="836" y="354.9999999999999" dy="0.35em" text-anchor="end">malware reverse engineering</text></g><g><rect x="842" y="274.9999999999999" height="52.49999999999997" width="5" fill="#000"></rect><text x="836" y="301.2499999999999" dy="0.35em" text-anchor="end">netflow/enclave netflow</text></g><g><rect x="842" y="454.9999999999999" height="17.5" width="5" fill="#000"></rect><text x="836" y="463.7499999999999" dy="0.35em" text-anchor="end">network intrusion detection system</text></g><g><rect x="842" y="212.4999999999999" height="52.5" width="5" fill="#000"></rect><text x="836" y="238.7499999999999" dy="0.35em" text-anchor="end">network protocol analysis</text></g><g><rect x="842" y="482.4999999999999" height="17.5" width="5" fill="#000"></rect><text x="836" y="491.2499999999999" dy="0.35em" text-anchor="end">ssl/tls inspection</text></g><g><rect x="842" y="1.4210854715202004e-13" height="122.49999999999977" width="5" fill="#000"></rect><text x="836" y="61.25000000000003" dy="0.35em" text-anchor="end">windows event logs</text></g><g><rect x="0" y="4.999999999999858" height="105.00000000000014" width="5" fill="#000"></rect><text x="11" y="57.49999999999993" dy="0.35em" text-anchor="start">Antivirus/Antimalware</text></g><g><rect x="0" y="432.50000000000017" height="34.999999999999986" width="5" fill="#000"></rect><text x="11" y="450.00000000000017" dy="0.35em" text-anchor="start">Behavior Prevention on Endpoint</text></g><g><rect x="0" y="387.50000000000017" height="35" width="5" fill="#000"></rect><text x="11" y="405.00000000000017" dy="0.35em" text-anchor="start">Filter Network Traffic</text></g><g><rect x="0" y="120" height="105" width="5" fill="#000"></rect><text x="11" y="172.5" dy="0.35em" text-anchor="start">Network Intrusion Prevention</text></g><g><rect x="0" y="297.5" height="35.000000000000114" width="5" fill="#000"></rect><text x="11" y="315.00000000000006" dy="0.35em" text-anchor="start">Operating System Configuration</text></g><g><rect x="0" y="342.5000000000001" height="35.00000000000006" width="5" fill="#000"></rect><text x="11" y="360.0000000000001" dy="0.35em" text-anchor="start">Privileged Account Management</text></g><g><rect x="0" y="477.50000000000017" height="17.5" width="5" fill="#000"></rect><text x="11" y="486.25000000000017" dy="0.35em" text-anchor="start">Restrict File and Directory Permissions</text></g><g><rect x="0" y="235" height="52.5" width="5" fill="#000"></rect><text x="11" y="261.25" dy="0.35em" text-anchor="start">User Account Management</text></g><g><rect x="421" y="15.00000000000017" height="105" width="5" fill="#000"></rect><text x="415" y="67.50000000000017" dy="0.35em" text-anchor="end">bits jobs</text></g><g><rect x="421" y="404.99999999999983" height="35" width="5" fill="#000"></rect><text x="415" y="422.49999999999983" dy="0.35em" text-anchor="end">disabling security tools</text></g><g><rect x="421" y="130.00000000000017" height="104.99999999999977" width="5" fill="#000"></rect><text x="415" y="182.50000000000006" dy="0.35em" text-anchor="end">obfuscated files or information</text></g><g><rect x="421" y="244.99999999999994" height="70" width="5" fill="#000"></rect><text x="415" y="279.99999999999994" dy="0.35em" text-anchor="end">process injection</text></g><g><rect x="421" y="324.99999999999994" height="69.99999999999987" width="5" fill="#000"></rect><text x="415" y="359.9999999999999" dy="0.35em" text-anchor="end">remote file copy</text></g><g><rect x="421" y="449.99999999999983" height="35" width="5" fill="#000"></rect><text x="415" y="467.49999999999983" dy="0.35em" text-anchor="end">standard application layer protocol</text></g></g></g></svg>