<svg width="847" height="520" xmlns="http://www.w3.org/2000/svg" version="1.1"><g transform="translate(0, 10)"><g class="links" fill="none" stroke-opacity="0.4"><path d="M5,180.83333333333334C213,180.83333333333334,213,212.91666666666657,421,212.91666666666657" stroke-width="102.5" style="stroke: rgb(191, 105, 105);"></path><path d="M5,240.625C213,240.625,213,476.4583333333335,421,476.4583333333335" stroke-width="17.083333333333332" style="stroke: rgb(191, 105, 105);"></path><path d="M5,383.12500000000034C213,383.12500000000034,213,74.79166666666654,421,74.79166666666654" stroke-width="17.083333333333332" style="stroke: rgb(191, 135, 105);"></path><path d="M5,410.2083333333337C213,410.2083333333337,213,91.87499999999987,421,91.87499999999987" stroke-width="17.083333333333332" style="stroke: rgb(191, 166, 105);"></path><path d="M5,356.0416666666669C213,356.0416666666669,213,57.70833333333321,421,57.70833333333321" stroke-width="17.083333333333332" style="stroke: rgb(186, 191, 105);"></path><path d="M5,437.291666666667C213,437.291666666667,213,108.9583333333332,421,108.9583333333332" stroke-width="17.083333333333332" style="stroke: rgb(155, 191, 105);"></path><path d="M5,85.41666666666652C213,85.41666666666652,213,369.5833333333335,421,369.5833333333335" stroke-width="34.166666666666664" style="stroke: rgb(125, 191, 105);"></path><path d="M5,34.16666666666652C213,34.16666666666652,213,308.33333333333326,421,308.33333333333326" stroke-width="68.33333333333333" style="stroke: rgb(125, 191, 105);"></path><path d="M5,111.04166666666653C213,111.04166666666653,213,449.3750000000001,421,449.3750000000001" stroke-width="17.083333333333332" style="stroke: rgb(125, 191, 105);"></path><path d="M5,464.3750000000003C213,464.3750000000003,213,126.04166666666653,421,126.04166666666653" stroke-width="17.083333333333332" style="stroke: rgb(105, 191, 115);"></path><path d="M5,491.45833333333354C213,491.45833333333354,213,143.12499999999986,421,143.12499999999986" stroke-width="17.083333333333332" style="stroke: rgb(105, 191, 145);"></path><path d="M5,267.7083333333334C213,267.7083333333334,213,23.54166666666655,421,23.54166666666655" stroke-width="17.083333333333332" style="stroke: rgb(105, 191, 176);"></path><path d="M5,284.79166666666674C213,284.79166666666674,213,405.2083333333335,421,405.2083333333335" stroke-width="17.083333333333332" style="stroke: rgb(105, 191, 176);"></path><path d="M5,311.87500000000017C213,311.87500000000017,213,40.62499999999988,421,40.62499999999988" stroke-width="17.083333333333332" style="stroke: rgb(105, 176, 191);"></path><path d="M5,328.9583333333335C213,328.9583333333335,213,422.2916666666668,421,422.2916666666668" stroke-width="17.083333333333332" style="stroke: rgb(105, 176, 191);"></path><path d="M426,187.29166666666657C634,187.29166666666657,634,351.0416666666666,842,351.0416666666666" stroke-width="17.083333333333332" style="stroke: rgb(105, 145, 191);"></path><path d="M426,204.37499999999991C634,204.37499999999991,634,395.2083333333332,842,395.2083333333332" stroke-width="17.083333333333332" style="stroke: rgb(105, 145, 191);"></path><path d="M426,255.62499999999994C634,255.62499999999994,634,476.45833333333314,842,476.45833333333314" stroke-width="17.083333333333332" style="stroke: rgb(105, 145, 191);"></path><path d="M426,170.20833333333323C634,170.20833333333323,634,289.7916666666668,842,289.7916666666668" stroke-width="17.083333333333332" style="stroke: rgb(105, 145, 191);"></path><path d="M426,221.45833333333326C634,221.45833333333326,634,422.2916666666665,842,422.2916666666665" stroke-width="17.083333333333332" style="stroke: rgb(105, 145, 191);"></path><path d="M426,238.5416666666666C634,238.5416666666666,634,449.37499999999983,842,449.37499999999983" stroke-width="17.083333333333332" style="stroke: rgb(105, 145, 191);"></path><path d="M426,476.4583333333335C634,476.4583333333335,634,368.1249999999999,842,368.1249999999999" stroke-width="17.083333333333332" style="stroke: rgb(105, 115, 191);"></path><path d="M426,83.33333333333321C634,83.33333333333321,634,83.33333333333347,842,83.33333333333347" stroke-width="136.66666666666666" style="stroke: rgb(125, 105, 191);"></path><path d="M426,369.5833333333335C634,369.5833333333335,634,202.9166666666668,842,202.9166666666668" stroke-width="34.166666666666664" style="stroke: rgb(155, 105, 191);"></path><path d="M426,291.2499999999999C634,291.2499999999999,634,168.75000000000014,842,168.75000000000014" stroke-width="34.166666666666664" style="stroke: rgb(186, 105, 191);"></path><path d="M426,325.4166666666666C634,325.4166666666666,634,315.41666666666674,842,315.41666666666674" stroke-width="34.166666666666664" style="stroke: rgb(186, 105, 191);"></path><path d="M426,449.3750000000001C634,449.3750000000001,634,262.7083333333334,842,262.7083333333334" stroke-width="17.083333333333332" style="stroke: rgb(191, 105, 166);"></path><path d="M426,413.7500000000001C634,413.7500000000001,634,237.08333333333346,842,237.08333333333346" stroke-width="34.166666666666664" style="stroke: rgb(191, 105, 135);"></path></g><g class="nodes" font-family="Arial, Helvetica" font-size="10"><g><rect x="842" y="342.4999999999999" height="34.16666666666666" width="5" fill="#000"></rect><text x="836" y="359.5833333333332" dy="0.35em" text-anchor="end">binary file metadata</text></g><g><rect x="842" y="386.6666666666665" height="17.08333333333333" width="5" fill="#000"></rect><text x="836" y="395.2083333333332" dy="0.35em" text-anchor="end">malware reverse engineering</text></g><g><rect x="842" y="15.000000000000142" height="256.25" width="5" fill="#000"></rect><text x="836" y="143.12500000000014" dy="0.35em" text-anchor="end">netflow/enclave netflow</text></g><g><rect x="842" y="467.91666666666646" height="17.0833333333333" width="5" fill="#000"></rect><text x="836" y="476.4583333333331" dy="0.35em" text-anchor="end">network intrusion detection system</text></g><g><rect x="842" y="281.2500000000001" height="51.24999999999977" width="5" fill="#000"></rect><text x="836" y="306.875" dy="0.35em" text-anchor="end">network protocol analysis</text></g><g><rect x="842" y="413.74999999999983" height="17.083333333333314" width="5" fill="#000"></rect><text x="836" y="422.2916666666665" dy="0.35em" text-anchor="end">ssl/tls inspection</text></g><g><rect x="842" y="440.83333333333314" height="17.083333333333314" width="5" fill="#000"></rect><text x="836" y="449.3749999999998" dy="0.35em" text-anchor="end">windows event logs</text></g><g><rect x="0" y="129.58333333333334" height="119.5833333333334" width="5" fill="#000"></rect><text x="11" y="189.37500000000006" dy="0.35em" text-anchor="start">Antivirus/Antimalware</text></g><g><rect x="0" y="374.58333333333366" height="17.08333333333337" width="5" fill="#000"></rect><text x="11" y="383.12500000000034" dy="0.35em" text-anchor="start">Audit</text></g><g><rect x="0" y="401.666666666667" height="17.083333333333343" width="5" fill="#000"></rect><text x="11" y="410.2083333333337" dy="0.35em" text-anchor="start">Disable or Remove Feature or Program</text></g><g><rect x="0" y="347.5000000000002" height="17.083333333333428" width="5" fill="#000"></rect><text x="11" y="356.04166666666697" dy="0.35em" text-anchor="start">Limit Access to Resource Over Network</text></g><g><rect x="0" y="428.75000000000034" height="17.083333333333258" width="5" fill="#000"></rect><text x="11" y="437.29166666666697" dy="0.35em" text-anchor="start">Multi-factor Authentication</text></g><g><rect x="0" y="-1.4210854715202004e-13" height="119.58333333333348" width="5" fill="#000"></rect><text x="11" y="59.7916666666666" dy="0.35em" text-anchor="start">Network Intrusion Prevention</text></g><g><rect x="0" y="455.8333333333336" height="17.083333333333258" width="5" fill="#000"></rect><text x="11" y="464.3750000000002" dy="0.35em" text-anchor="start">Network Segmentation</text></g><g><rect x="0" y="482.91666666666686" height="17.083333333333258" width="5" fill="#000"></rect><text x="11" y="491.4583333333335" dy="0.35em" text-anchor="start">Operating System Configuration</text></g><g><rect x="0" y="259.16666666666674" height="34.16666666666674" width="5" fill="#000"></rect><text x="11" y="276.2500000000001" dy="0.35em" text-anchor="start">Privileged Account Management</text></g><g><rect x="0" y="303.3333333333335" height="34.16666666666674" width="5" fill="#000"></rect><text x="11" y="320.41666666666686" dy="0.35em" text-anchor="start">User Account Management</text></g><g><rect x="421" y="352.50000000000017" height="34.16666666666663" width="5" fill="#000"></rect><text x="415" y="369.5833333333335" dy="0.35em" text-anchor="end">connection proxy</text></g><g><rect x="421" y="161.66666666666657" height="102.49999999999999" width="5" fill="#000"></rect><text x="415" y="212.91666666666657" dy="0.35em" text-anchor="end">obfuscated files or information</text></g><g><rect x="421" y="14.999999999999886" height="136.66666666666669" width="5" fill="#000"></rect><text x="415" y="83.33333333333323" dy="0.35em" text-anchor="end">remote desktop protocol</text></g><g><rect x="421" y="274.1666666666666" height="68.3333333333336" width="5" fill="#000"></rect><text x="415" y="308.33333333333337" dy="0.35em" text-anchor="end">remote file copy</text></g><g><rect x="421" y="440.8333333333334" height="17.08333333333337" width="5" fill="#000"></rect><text x="415" y="449.3750000000001" dy="0.35em" text-anchor="end">scheduled transfer</text></g><g><rect x="421" y="467.9166666666668" height="17.083333333333314" width="5" fill="#000"></rect><text x="415" y="476.4583333333335" dy="0.35em" text-anchor="end">software packing</text></g><g><rect x="421" y="396.6666666666668" height="34.16666666666663" width="5" fill="#000"></rect><text x="415" y="413.7500000000001" dy="0.35em" text-anchor="end">windows management instrumentation</text></g></g></g></svg>