<svg width="847" height="520" xmlns="http://www.w3.org/2000/svg" version="1.1"><g transform="translate(0, 10)"><g class="links" fill="none" stroke-opacity="0.4"><path d="M5,432.5000000000003C213,432.5000000000003,213,345.8333333333335,421,345.8333333333335" stroke-width="38.333333333333336" style="stroke: rgb(191, 105, 105);"></path><path d="M5,384.1666666666668C213,384.1666666666668,213,307.50000000000017,421,307.50000000000017" stroke-width="38.333333333333336" style="stroke: rgb(191, 169, 105);"></path><path d="M5,153.333333333333C213,153.333333333333,213,451.66666666666646,421,451.66666666666646" stroke-width="76.66666666666667" style="stroke: rgb(148, 191, 105);"></path><path d="M5,57.49999999999966C213,57.49999999999966,213,67.50000000000011,421,67.50000000000011" stroke-width="115" style="stroke: rgb(148, 191, 105);"></path><path d="M5,259.1666666666665C213,259.1666666666665,213,182.5000000000001,421,182.5000000000001" stroke-width="115" style="stroke: rgb(105, 191, 126);"></path><path d="M5,335.8333333333332C213,335.8333333333332,213,269.1666666666668,421,269.1666666666668" stroke-width="38.333333333333336" style="stroke: rgb(105, 191, 126);"></path><path d="M5,480.83333333333366C213,480.83333333333366,213,384.1666666666668,421,384.1666666666668" stroke-width="38.333333333333336" style="stroke: rgb(105, 191, 191);"></path><path d="M426,365.0000000000001C634,365.0000000000001,634,456.6666666666667,842,456.6666666666667" stroke-width="76.66666666666667" style="stroke: rgb(105, 126, 191);"></path><path d="M426,288.3333333333335C634,288.3333333333335,634,120.00000000000003,842,120.00000000000003" stroke-width="76.66666666666667" style="stroke: rgb(105, 126, 191);"></path><path d="M426,432.49999999999983C634,432.49999999999983,634,264.1666666666668,842,264.1666666666668" stroke-width="38.333333333333336" style="stroke: rgb(148, 105, 191);"></path><path d="M426,470.83333333333314C634,470.83333333333314,634,389.16666666666686,842,389.16666666666686" stroke-width="38.333333333333336" style="stroke: rgb(148, 105, 191);"></path><path d="M426,125.00000000000011C634,125.00000000000011,634,206.6666666666668,842,206.6666666666668" stroke-width="76.66666666666667" style="stroke: rgb(191, 105, 169);"></path><path d="M426,201.6666666666668C634,201.6666666666668,634,331.6666666666668,842,331.6666666666668" stroke-width="76.66666666666667" style="stroke: rgb(191, 105, 169);"></path><path d="M426,48.33333333333345C634,48.33333333333345,634,43.333333333333364,842,43.333333333333364" stroke-width="76.66666666666667" style="stroke: rgb(191, 105, 169);"></path></g><g class="nodes" font-family="Arial, Helvetica" font-size="10"><g><rect x="842" y="168.33333333333346" height="115.00000000000006" width="5" fill="#000"></rect><text x="836" y="225.83333333333348" dy="0.35em" text-anchor="end">netflow/enclave netflow</text></g><g><rect x="842" y="418.33333333333337" height="76.66666666666657" width="5" fill="#000"></rect><text x="836" y="456.66666666666663" dy="0.35em" text-anchor="end">network intrusion detection system</text></g><g><rect x="842" y="293.3333333333335" height="114.99999999999989" width="5" fill="#000"></rect><text x="836" y="350.8333333333334" dy="0.35em" text-anchor="end">network protocol analysis</text></g><g><rect x="842" y="5.000000000000028" height="153.33333333333343" width="5" fill="#000"></rect><text x="836" y="81.66666666666674" dy="0.35em" text-anchor="end">ssl/tls inspection</text></g><g><rect x="0" y="413.3333333333336" height="38.33333333333337" width="5" fill="#000"></rect><text x="11" y="432.5000000000003" dy="0.35em" text-anchor="start">Application Isolation and Sandboxing</text></g><g><rect x="0" y="365.0000000000001" height="38.333333333333485" width="5" fill="#000"></rect><text x="11" y="384.16666666666686" dy="0.35em" text-anchor="start">Exploit Protection</text></g><g><rect x="0" y="-3.410605131648481e-13" height="191.66666666666686" width="5" fill="#000"></rect><text x="11" y="95.83333333333309" dy="0.35em" text-anchor="start">Network Intrusion Prevention</text></g><g><rect x="0" y="201.66666666666652" height="153.3333333333336" width="5" fill="#000"></rect><text x="11" y="278.3333333333333" dy="0.35em" text-anchor="start">Restrict Web-Based Content</text></g><g><rect x="0" y="461.66666666666697" height="38.33333333333337" width="5" fill="#000"></rect><text x="11" y="480.83333333333366" dy="0.35em" text-anchor="start">Update Software</text></g><g><rect x="421" y="250.00000000000014" height="153.33333333333303" width="5" fill="#000"></rect><text x="415" y="326.66666666666663" dy="0.35em" text-anchor="end">drive-by compromise</text></g><g><rect x="421" y="413.33333333333314" height="76.66666666666669" width="5" fill="#000"></rect><text x="415" y="451.6666666666665" dy="0.35em" text-anchor="end">remote file copy</text></g><g><rect x="421" y="10.000000000000114" height="230.00000000000003" width="5" fill="#000"></rect><text x="415" y="125.00000000000013" dy="0.35em" text-anchor="end">web service</text></g></g></g></svg>