<svg width="847" height="520" xmlns="http://www.w3.org/2000/svg" version="1.1"><g transform="translate(0, 10)"><g class="links" fill="none" stroke-opacity="0.4"><path d="M5,246.3888888888888C213,246.3888888888888,213,180.8333333333332,421,180.8333333333332" stroke-width="68.33333333333334" style="stroke: rgb(191, 105, 105);"></path><path d="M5,468.6111111111113C213,468.6111111111113,213,314.7222222222219,421,314.7222222222219" stroke-width="22.77777777777778" style="stroke: rgb(191, 137, 105);"></path><path d="M5,145.27777777777763C213,145.27777777777763,213,347.49999999999966,421,347.49999999999966" stroke-width="22.77777777777778" style="stroke: rgb(191, 169, 105);"></path><path d="M5,168.0555555555554C213,168.0555555555554,213,445.83333333333314,421,445.83333333333314" stroke-width="22.77777777777778" style="stroke: rgb(191, 169, 105);"></path><path d="M5,111.11111111111097C213,111.11111111111097,213,247.77777777777735,421,247.77777777777735" stroke-width="45.55555555555556" style="stroke: rgb(191, 169, 105);"></path><path d="M5,196.52777777777763C213,196.52777777777763,213,494.3055555555555,421,494.3055555555555" stroke-width="11.38888888888889" style="stroke: rgb(191, 169, 105);"></path><path d="M5,54.16666666666653C213,54.16666666666653,213,34.16666666666673,421,34.16666666666673" stroke-width="68.33333333333334" style="stroke: rgb(191, 169, 105);"></path><path d="M5,185.13888888888874C213,185.13888888888874,213,472.91666666666646,421,472.91666666666646" stroke-width="11.38888888888889" style="stroke: rgb(191, 169, 105);"></path><path d="M5,424.4444444444446C213,424.4444444444446,213,291.9444444444441,421,291.9444444444441" stroke-width="22.77777777777778" style="stroke: rgb(180, 191, 105);"></path><path d="M5,441.52777777777794C213,441.52777777777794,213,418.7499999999998,421,418.7499999999998" stroke-width="11.38888888888889" style="stroke: rgb(180, 191, 105);"></path><path d="M5,324.72222222222223C213,324.72222222222223,213,102.50000000000007,421,102.50000000000007" stroke-width="68.33333333333334" style="stroke: rgb(148, 191, 105);"></path><path d="M5,397.36111111111103C213,397.36111111111103,213,407.36111111111086,421,407.36111111111086" stroke-width="11.38888888888889" style="stroke: rgb(116, 191, 105);"></path><path d="M5,380.2777777777777C213,380.2777777777777,213,380.2777777777775,421,380.2777777777775" stroke-width="22.77777777777778" style="stroke: rgb(116, 191, 105);"></path><path d="M426,197.91666666666654C634,197.91666666666654,634,462.9166666666667,842,462.9166666666667" stroke-width="11.38888888888889" style="stroke: rgb(105, 191, 126);"></path><path d="M426,175.13888888888877C634,175.13888888888877,634,374.5833333333332,842,374.5833333333332" stroke-width="11.38888888888889" style="stroke: rgb(105, 191, 126);"></path><path d="M426,209.30555555555543C634,209.30555555555543,634,484.3055555555557,842,484.3055555555557" stroke-width="11.38888888888889" style="stroke: rgb(105, 191, 126);"></path><path d="M426,152.361111111111C634,152.361111111111,634,196.52777777777789,842,196.52777777777789" stroke-width="11.38888888888889" style="stroke: rgb(105, 191, 126);"></path><path d="M426,163.7499999999999C634,163.7499999999999,634,297.63888888888874,842,297.63888888888874" stroke-width="11.38888888888889" style="stroke: rgb(105, 191, 126);"></path><path d="M426,186.52777777777766C634,186.52777777777766,634,418.74999999999994,842,418.74999999999994" stroke-width="11.38888888888889" style="stroke: rgb(105, 191, 126);"></path><path d="M426,303.333333333333C634,303.333333333333,634,336.111111111111,842,336.111111111111" stroke-width="45.55555555555556" style="stroke: rgb(105, 191, 159);"></path><path d="M426,353.1944444444441C634,353.1944444444441,634,385.9722222222221,842,385.9722222222221" stroke-width="11.38888888888889" style="stroke: rgb(105, 191, 191);"></path><path d="M426,341.8055555555552C634,341.8055555555552,634,84.02777777777762,842,84.02777777777762" stroke-width="11.38888888888889" style="stroke: rgb(105, 191, 191);"></path><path d="M426,451.5277777777776C634,451.5277777777776,634,397.36111111111103,842,397.36111111111103" stroke-width="11.38888888888889" style="stroke: rgb(105, 159, 191);"></path><path d="M426,440.1388888888887C634,440.1388888888887,634,118.19444444444427,842,118.19444444444427" stroke-width="11.38888888888889" style="stroke: rgb(105, 159, 191);"></path><path d="M426,236.38888888888846C634,236.38888888888846,634,66.94444444444427,842,66.94444444444427" stroke-width="22.77777777777778" style="stroke: rgb(105, 126, 191);"></path><path d="M426,259.16666666666623C634,259.16666666666623,634,213.6111111111112,842,213.6111111111112" stroke-width="22.77777777777778" style="stroke: rgb(105, 126, 191);"></path><path d="M426,494.3055555555555C634,494.3055555555555,634,129.58333333333317,842,129.58333333333317" stroke-width="11.38888888888889" style="stroke: rgb(116, 105, 191);"></path><path d="M426,22.777777777777835C634,22.777777777777835,634,32.77777777777761,842,32.77777777777761" stroke-width="45.55555555555556" style="stroke: rgb(148, 105, 191);"></path><path d="M426,68.3333333333334C634,68.3333333333334,634,168.05555555555566,842,168.05555555555566" stroke-width="45.55555555555556" style="stroke: rgb(148, 105, 191);"></path><path d="M426,113.88888888888894C634,113.88888888888894,634,269.1666666666665,842,269.1666666666665" stroke-width="45.55555555555556" style="stroke: rgb(148, 105, 191);"></path><path d="M426,472.91666666666646C634,472.91666666666646,634,230.69444444444454,842,230.69444444444454" stroke-width="11.38888888888889" style="stroke: rgb(180, 105, 191);"></path><path d="M426,413.0555555555553C634,413.0555555555553,634,101.11111111111094,842,101.11111111111094" stroke-width="22.77777777777778" style="stroke: rgb(191, 105, 169);"></path><path d="M426,380.2777777777775C634,380.2777777777775,634,435.8333333333333,842,435.8333333333333" stroke-width="22.77777777777778" style="stroke: rgb(191, 105, 137);"></path></g><g class="nodes" font-family="Arial, Helvetica" font-size="10"><g><rect x="842" y="457.22222222222223" height="11.388888888889028" width="5" fill="#000"></rect><text x="836" y="462.91666666666674" dy="0.35em" text-anchor="end">binary file metadata</text></g><g><rect x="842" y="313.3333333333332" height="45.55555555555552" width="5" fill="#000"></rect><text x="836" y="336.111111111111" dy="0.35em" text-anchor="end">dll monitoring</text></g><g><rect x="842" y="368.88888888888874" height="34.16666666666674" width="5" fill="#000"></rect><text x="836" y="385.9722222222221" dy="0.35em" text-anchor="end">malware reverse engineering</text></g><g><rect x="842" y="9.99999999999983" height="125.27777777777806" width="5" fill="#000"></rect><text x="836" y="72.63888888888886" dy="0.35em" text-anchor="end">netflow/enclave netflow</text></g><g><rect x="842" y="478.61111111111126" height="11.388888888888914" width="5" fill="#000"></rect><text x="836" y="484.3055555555557" dy="0.35em" text-anchor="end">network intrusion detection system</text></g><g><rect x="842" y="145.27777777777789" height="91.11111111111086" width="5" fill="#000"></rect><text x="836" y="190.83333333333331" dy="0.35em" text-anchor="end">network protocol analysis</text></g><g><rect x="842" y="246.38888888888874" height="56.94444444444446" width="5" fill="#000"></rect><text x="836" y="274.861111111111" dy="0.35em" text-anchor="end">ssl/tls inspection</text></g><g><rect x="842" y="413.0555555555555" height="34.16666666666674" width="5" fill="#000"></rect><text x="836" y="430.13888888888886" dy="0.35em" text-anchor="end">windows event logs</text></g><g><rect x="0" y="212.22222222222214" height="68.33333333333337" width="5" fill="#000"></rect><text x="11" y="246.38888888888883" dy="0.35em" text-anchor="start">Antivirus/Antimalware</text></g><g><rect x="0" y="457.2222222222224" height="22.77777777777778" width="5" fill="#000"></rect><text x="11" y="468.6111111111113" dy="0.35em" text-anchor="start">Behavior Prevention on Endpoint</text></g><g><rect x="0" y="19.999999999999858" height="182.22222222222229" width="5" fill="#000"></rect><text x="11" y="111.111111111111" dy="0.35em" text-anchor="start">Network Intrusion Prevention</text></g><g><rect x="0" y="413.0555555555557" height="34.166666666666686" width="5" fill="#000"></rect><text x="11" y="430.138888888889" dy="0.35em" text-anchor="start">Privileged Account Management</text></g><g><rect x="0" y="290.55555555555554" height="68.33333333333326" width="5" fill="#000"></rect><text x="11" y="324.7222222222222" dy="0.35em" text-anchor="start">Restrict Web-Based Content</text></g><g><rect x="0" y="368.8888888888888" height="34.16666666666691" width="5" fill="#000"></rect><text x="11" y="385.9722222222223" dy="0.35em" text-anchor="start">User Account Management</text></g><g><rect x="421" y="467.222222222222" height="11.388888888889028" width="5" fill="#000"></rect><text x="415" y="472.9166666666665" dy="0.35em" text-anchor="end">data encoding</text></g><g><rect x="421" y="336.11111111111074" height="22.77777777777783" width="5" fill="#000"></rect><text x="415" y="347.49999999999966" dy="0.35em" text-anchor="end">fallback channels</text></g><g><rect x="421" y="368.8888888888886" height="22.77777777777783" width="5" fill="#000"></rect><text x="415" y="380.2777777777775" dy="0.35em" text-anchor="end">new service</text></g><g><rect x="421" y="146.66666666666654" height="68.33333333333303" width="5" fill="#000"></rect><text x="415" y="180.83333333333306" dy="0.35em" text-anchor="end">obfuscated files or information</text></g><g><rect x="421" y="280.5555555555552" height="45.55555555555557" width="5" fill="#000"></rect><text x="415" y="303.333333333333" dy="0.35em" text-anchor="end">process injection</text></g><g><rect x="421" y="224.99999999999957" height="45.55555555555566" width="5" fill="#000"></rect><text x="415" y="247.7777777777774" dy="0.35em" text-anchor="end">remote file copy</text></g><g><rect x="421" y="488.61111111111103" height="11.388888888888857" width="5" fill="#000"></rect><text x="415" y="494.30555555555543" dy="0.35em" text-anchor="end">scheduled transfer</text></g><g><rect x="421" y="434.44444444444423" height="22.77777777777777" width="5" fill="#000"></rect><text x="415" y="445.83333333333314" dy="0.35em" text-anchor="end">standard application layer protocol</text></g><g><rect x="421" y="5.684341886080802e-14" height="136.6666666666665" width="5" fill="#000"></rect><text x="415" y="68.3333333333333" dy="0.35em" text-anchor="end">web service</text></g><g><rect x="421" y="401.6666666666664" height="22.77777777777783" width="5" fill="#000"></rect><text x="415" y="413.0555555555553" dy="0.35em" text-anchor="end">windows management instrumentation</text></g></g></g></svg>