<svg width="847" height="520" xmlns="http://www.w3.org/2000/svg" version="1.1"><g transform="translate(0, 10)"><g class="links" fill="none" stroke-opacity="0.4"><path d="M5,121.42857142857149C213,121.42857142857149,213,147.57142857142864,421,147.57142857142864" stroke-width="66.85714285714286" style="stroke: rgb(191, 105, 105);"></path><path d="M5,198.28571428571414C213,198.28571428571414,213,333.5714285714288,421,333.5714285714288" stroke-width="22.285714285714285" style="stroke: rgb(191, 130, 105);"></path><path d="M5,175.99999999999986C213,175.99999999999986,213,26.142857142857114,421,26.142857142857114" stroke-width="22.285714285714285" style="stroke: rgb(191, 130, 105);"></path><path d="M5,317.4285714285713C213,317.4285714285713,213,92.99999999999997,421,92.99999999999997" stroke-width="22.285714285714285" style="stroke: rgb(191, 154, 105);"></path><path d="M5,381.99999999999983C213,381.99999999999983,213,246.71428571428586,421,246.71428571428586" stroke-width="22.285714285714285" style="stroke: rgb(191, 179, 105);"></path><path d="M5,230.5714285714284C213,230.5714285714284,213,48.4285714285714,421,48.4285714285714" stroke-width="22.285714285714285" style="stroke: rgb(179, 191, 105);"></path><path d="M5,252.8571428571427C213,252.8571428571427,213,202.1428571428573,421,202.1428571428573" stroke-width="22.285714285714285" style="stroke: rgb(179, 191, 105);"></path><path d="M5,473.28571428571394C213,473.28571428571394,213,479.4285714285717,421,479.4285714285717" stroke-width="11.142857142857142" style="stroke: rgb(154, 191, 105);"></path><path d="M5,414.2857142857141C213,414.2857142857141,213,355.85714285714306,421,355.85714285714306" stroke-width="22.285714285714285" style="stroke: rgb(130, 191, 105);"></path><path d="M5,66.8571428571429C213,66.8571428571429,213,452.71428571428606,421,452.71428571428606" stroke-width="22.285714285714285" style="stroke: rgb(105, 191, 105);"></path><path d="M5,50.142857142857196C213,50.142857142857196,213,414.8571428571431,421,414.8571428571431" stroke-width="11.142857142857142" style="stroke: rgb(105, 191, 105);"></path><path d="M5,22.28571428571434C213,22.28571428571434,213,290.14285714285734,421,290.14285714285734" stroke-width="44.57142857142857" style="stroke: rgb(105, 191, 105);"></path><path d="M5,494.42857142857116C213,494.42857142857116,213,426.0000000000003,421,426.0000000000003" stroke-width="11.142857142857142" style="stroke: rgb(105, 191, 130);"></path><path d="M5,349.71428571428555C213,349.71428571428555,213,224.4285714285716,421,224.4285714285716" stroke-width="22.285714285714285" style="stroke: rgb(105, 191, 154);"></path><path d="M5,285.14285714285694C213,285.14285714285694,213,70.71428571428568,421,70.71428571428568" stroke-width="22.285714285714285" style="stroke: rgb(105, 191, 179);"></path><path d="M5,446.5714285714283C213,446.5714285714283,213,388.1428571428573,421,388.1428571428573" stroke-width="22.285714285714285" style="stroke: rgb(105, 179, 191);"></path><path d="M426,164.28571428571436C634,164.28571428571436,634,468.28571428571445,842,468.28571428571445" stroke-width="11.142857142857142" style="stroke: rgb(105, 154, 191);"></path><path d="M426,142.00000000000009C634,142.00000000000009,634,414.857142857143,842,414.857142857143" stroke-width="11.142857142857142" style="stroke: rgb(105, 154, 191);"></path><path d="M426,175.4285714285715C634,175.4285714285715,634,489.42857142857156,842,489.42857142857156" stroke-width="11.142857142857142" style="stroke: rgb(105, 154, 191);"></path><path d="M426,130.85714285714292C634,130.85714285714292,634,263.42857142857156,842,263.42857142857156" stroke-width="11.142857142857142" style="stroke: rgb(105, 154, 191);"></path><path d="M426,153.14285714285722C634,153.14285714285722,634,447.1428571428572,842,447.1428571428572" stroke-width="11.142857142857142" style="stroke: rgb(105, 154, 191);"></path><path d="M426,119.71428571428578C634,119.71428571428578,634,55.14285714285705,842,55.14285714285705" stroke-width="11.142857142857142" style="stroke: rgb(105, 154, 191);"></path><path d="M426,333.5714285714288C634,333.5714285714288,634,355.85714285714306,842,355.85714285714306" stroke-width="22.285714285714285" style="stroke: rgb(105, 130, 191);"></path><path d="M426,355.85714285714306C634,355.85714285714306,634,388.14285714285734,842,388.14285714285734" stroke-width="22.285714285714285" style="stroke: rgb(105, 130, 191);"></path><path d="M426,81.85714285714283C634,81.85714285714283,634,126.42857142857147,842,126.42857142857147" stroke-width="44.57142857142857" style="stroke: rgb(105, 105, 191);"></path><path d="M426,37.285714285714256C634,37.285714285714256,634,27.2857142857142,842,27.2857142857142" stroke-width="44.57142857142857" style="stroke: rgb(105, 105, 191);"></path><path d="M426,207.7142857142859C634,207.7142857142859,634,165.4285714285715,842,165.4285714285715" stroke-width="33.42857142857143" style="stroke: rgb(130, 105, 191);"></path><path d="M426,241.14285714285734C634,241.14285714285734,634,318.00000000000017,842,318.00000000000017" stroke-width="33.42857142857143" style="stroke: rgb(130, 105, 191);"></path><path d="M426,479.4285714285717C634,479.4285714285717,634,88.57142857142848,842,88.57142857142848" stroke-width="11.142857142857142" style="stroke: rgb(154, 105, 191);"></path><path d="M426,458.2857142857146C634,458.2857142857146,634,426.00000000000017,842,426.00000000000017" stroke-width="11.142857142857142" style="stroke: rgb(179, 105, 191);"></path><path d="M426,447.14285714285745C634,447.14285714285745,634,242.28571428571448,842,242.28571428571448" stroke-width="11.142857142857142" style="stroke: rgb(179, 105, 191);"></path><path d="M426,420.42857142857173C634,420.42857142857173,634,225.57142857142875,842,225.57142857142875" stroke-width="22.285714285714285" style="stroke: rgb(191, 105, 179);"></path><path d="M426,279.0000000000002C634,279.0000000000002,634,203.28571428571448,842,203.28571428571448" stroke-width="22.285714285714285" style="stroke: rgb(191, 105, 154);"></path><path d="M426,301.2857142857145C634,301.2857142857145,634,280.14285714285734,842,280.14285714285734" stroke-width="22.285714285714285" style="stroke: rgb(191, 105, 154);"></path><path d="M426,388.1428571428573C634,388.1428571428573,634,71.85714285714276,842,71.85714285714276" stroke-width="22.285714285714285" style="stroke: rgb(191, 105, 130);"></path></g><g class="nodes" font-family="Arial, Helvetica" font-size="10"><g><rect x="842" y="344.7142857142859" height="22.285714285714278" width="5" fill="#000"></rect><text x="836" y="355.857142857143" dy="0.35em" text-anchor="end">anti-virus</text></g><g><rect x="842" y="462.7142857142859" height="11.14285714285711" width="5" fill="#000"></rect><text x="836" y="468.28571428571445" dy="0.35em" text-anchor="end">binary file metadata</text></g><g><rect x="842" y="104.1428571428572" height="78.00000000000013" width="5" fill="#000"></rect><text x="836" y="143.14285714285725" dy="0.35em" text-anchor="end">dll monitoring</text></g><g><rect x="842" y="301.28571428571445" height="33.42857142857143" width="5" fill="#000"></rect><text x="836" y="318.00000000000017" dy="0.35em" text-anchor="end">loaded dlls</text></g><g><rect x="842" y="409.28571428571445" height="22.28571428571422" width="5" fill="#000"></rect><text x="836" y="420.42857142857156" dy="0.35em" text-anchor="end">malware reverse engineering</text></g><g><rect x="842" y="192.14285714285734" height="55.714285714285666" width="5" fill="#000"></rect><text x="836" y="220.00000000000017" dy="0.35em" text-anchor="end">netflow/enclave netflow</text></g><g><rect x="842" y="483.857142857143" height="11.14285714285711" width="5" fill="#000"></rect><text x="836" y="489.42857142857156" dy="0.35em" text-anchor="end">network intrusion detection system</text></g><g><rect x="842" y="257.857142857143" height="33.428571428571445" width="5" fill="#000"></rect><text x="836" y="274.5714285714287" dy="0.35em" text-anchor="end">network protocol analysis</text></g><g><rect x="842" y="441.57142857142867" height="11.142857142857224" width="5" fill="#000"></rect><text x="836" y="447.1428571428573" dy="0.35em" text-anchor="end">ssl/tls inspection</text></g><g><rect x="842" y="377.00000000000017" height="22.285714285714278" width="5" fill="#000"></rect><text x="836" y="388.14285714285734" dy="0.35em" text-anchor="end">system calls</text></g><g><rect x="842" y="4.999999999999915" height="89.14285714285728" width="5" fill="#000"></rect><text x="836" y="49.571428571428555" dy="0.35em" text-anchor="end">windows event logs</text></g><g><rect x="0" y="88.00000000000006" height="66.85714285714266" width="5" fill="#000"></rect><text x="11" y="121.42857142857139" dy="0.35em" text-anchor="start">Antivirus/Antimalware</text></g><g><rect x="0" y="164.85714285714272" height="44.571428571428555" width="5" fill="#000"></rect><text x="11" y="187.142857142857" dy="0.35em" text-anchor="start">Application Isolation and Sandboxing</text></g><g><rect x="0" y="306.2857142857141" height="22.285714285714278" width="5" fill="#000"></rect><text x="11" y="317.4285714285712" dy="0.35em" text-anchor="start">Behavior Prevention on Endpoint</text></g><g><rect x="0" y="370.85714285714266" height="22.285714285714263" width="5" fill="#000"></rect><text x="11" y="381.9999999999998" dy="0.35em" text-anchor="start">Code Signing</text></g><g><rect x="0" y="219.42857142857127" height="44.57142857142853" width="5" fill="#000"></rect><text x="11" y="241.71428571428555" dy="0.35em" text-anchor="start">Disable or Remove Feature or Program</text></g><g><rect x="0" y="467.7142857142854" height="11.142857142857224" width="5" fill="#000"></rect><text x="11" y="473.285714285714" dy="0.35em" text-anchor="start">Execution Prevention</text></g><g><rect x="0" y="403.14285714285694" height="22.28571428571422" width="5" fill="#000"></rect><text x="11" y="414.28571428571405" dy="0.35em" text-anchor="start">Exploit Protection</text></g><g><rect x="0" y="5.684341886080802e-14" height="78" width="5" fill="#000"></rect><text x="11" y="39.00000000000006" dy="0.35em" text-anchor="start">Network Intrusion Prevention</text></g><g><rect x="0" y="488.8571428571426" height="11.142857142857224" width="5" fill="#000"></rect><text x="11" y="494.4285714285712" dy="0.35em" text-anchor="start">Network Segmentation</text></g><g><rect x="0" y="338.5714285714284" height="22.285714285714278" width="5" fill="#000"></rect><text x="11" y="349.71428571428555" dy="0.35em" text-anchor="start">Privileged Account Management</text></g><g><rect x="0" y="273.9999999999998" height="22.285714285714363" width="5" fill="#000"></rect><text x="11" y="285.14285714285694" dy="0.35em" text-anchor="start">Software Configuration</text></g><g><rect x="0" y="435.42857142857116" height="22.28571428571422" width="5" fill="#000"></rect><text x="11" y="446.57142857142827" dy="0.35em" text-anchor="start">User Account Management</text></g><g><rect x="421" y="409.28571428571456" height="22.285714285714334" width="5" fill="#000"></rect><text x="415" y="420.42857142857173" dy="0.35em" text-anchor="end">commonly used port</text></g><g><rect x="421" y="441.5714285714289" height="22.28571428571422" width="5" fill="#000"></rect><text x="415" y="452.714285714286" dy="0.35em" text-anchor="end">custom cryptographic protocol</text></g><g><rect x="421" y="14.999999999999972" height="89.14285714285724" width="5" fill="#000"></rect><text x="415" y="59.57142857142859" dy="0.35em" text-anchor="end">dynamic data exchange</text></g><g><rect x="421" y="322.4285714285716" height="44.5714285714285" width="5" fill="#000"></rect><text x="415" y="344.7142857142859" dy="0.35em" text-anchor="end">exploitation for client execution</text></g><g><rect x="421" y="473.8571428571431" height="11.14285714285694" width="5" fill="#000"></rect><text x="415" y="479.42857142857156" dy="0.35em" text-anchor="end">hidden window</text></g><g><rect x="421" y="377.0000000000001" height="22.285714285714448" width="5" fill="#000"></rect><text x="415" y="388.14285714285734" dy="0.35em" text-anchor="end">new service</text></g><g><rect x="421" y="114.14285714285721" height="66.85714285714295" width="5" fill="#000"></rect><text x="415" y="147.57142857142867" dy="0.35em" text-anchor="end">obfuscated files or information</text></g><g><rect x="421" y="191.00000000000017" height="66.85714285714289" width="5" fill="#000"></rect><text x="415" y="224.42857142857162" dy="0.35em" text-anchor="end">powershell</text></g><g><rect x="421" y="267.85714285714306" height="44.571428571428555" width="5" fill="#000"></rect><text x="415" y="290.14285714285734" dy="0.35em" text-anchor="end">remote file copy</text></g></g></g></svg>