<svg width="847" height="520" xmlns="http://www.w3.org/2000/svg" version="1.1"><g transform="translate(0, 10)"><g class="links" fill="none" stroke-opacity="0.4"><path d="M5,266.111111111111C213,266.111111111111,213,271.11111111111114,421,271.11111111111114" stroke-width="104.44444444444444" style="stroke: rgb(191, 105, 105);"></path><path d="M5,344.4444444444443C213,344.4444444444443,213,359.44444444444434,421,359.44444444444434" stroke-width="52.22222222222222" style="stroke: rgb(191, 105, 105);"></path><path d="M5,109.44444444444433C213,109.44444444444433,213,104.44444444444467,421,104.44444444444467" stroke-width="208.88888888888889" style="stroke: rgb(191, 105, 105);"></path><path d="M5,468.88888888888926C213,468.88888888888926,213,411.6666666666666,421,411.6666666666666" stroke-width="52.22222222222222" style="stroke: rgb(191, 179, 105);"></path><path d="M5,406.6666666666665C213,406.6666666666665,213,473.8888888888886,421,473.8888888888886" stroke-width="52.22222222222222" style="stroke: rgb(130, 191, 105);"></path><path d="M426,297.22222222222223C634,297.22222222222223,634,411.6666666666667,842,411.6666666666667" stroke-width="52.22222222222222" style="stroke: rgb(105, 191, 154);"></path><path d="M426,245.00000000000006C634,245.00000000000006,634,130.55555555555563,842,130.55555555555563" stroke-width="52.22222222222222" style="stroke: rgb(105, 191, 154);"></path><path d="M426,385.5555555555555C634,385.5555555555555,634,208.88888888888897,842,208.88888888888897" stroke-width="104.44444444444444" style="stroke: rgb(105, 154, 191);"></path><path d="M426,52.22222222222245C634,52.22222222222245,634,52.22222222222231,842,52.22222222222231" stroke-width="104.44444444444444" style="stroke: rgb(130, 105, 191);"></path><path d="M426,156.66666666666688C634,156.66666666666688,634,323.3333333333334,842,323.3333333333334" stroke-width="104.44444444444444" style="stroke: rgb(130, 105, 191);"></path><path d="M426,473.8888888888886C634,473.8888888888886,634,473.88888888888886,842,473.88888888888886" stroke-width="52.22222222222222" style="stroke: rgb(191, 105, 179);"></path></g><g class="nodes" font-family="Arial, Helvetica" font-size="10"><g><rect x="842" y="385.5555555555556" height="52.22222222222217" width="5" fill="#000"></rect><text x="836" y="411.6666666666667" dy="0.35em" text-anchor="end">malware reverse engineering</text></g><g><rect x="842" y="8.526512829121202e-14" height="261.1111111111111" width="5" fill="#000"></rect><text x="836" y="130.55555555555563" dy="0.35em" text-anchor="end">netflow/enclave netflow</text></g><g><rect x="842" y="271.1111111111112" height="104.4444444444444" width="5" fill="#000"></rect><text x="836" y="323.33333333333337" dy="0.35em" text-anchor="end">network protocol analysis</text></g><g><rect x="842" y="447.77777777777777" height="52.22222222222217" width="5" fill="#000"></rect><text x="836" y="473.88888888888886" dy="0.35em" text-anchor="end">windows event logs</text></g><g><rect x="0" y="4.999999999999886" height="365.55555555555554" width="5" fill="#000"></rect><text x="11" y="187.77777777777766" dy="0.35em" text-anchor="start">Network Intrusion Prevention</text></g><g><rect x="0" y="442.77777777777817" height="52.222222222221944" width="5" fill="#000"></rect><text x="11" y="468.88888888888914" dy="0.35em" text-anchor="start">Network Segmentation</text></g><g><rect x="0" y="380.55555555555543" height="52.22222222222274" width="5" fill="#000"></rect><text x="11" y="406.6666666666668" dy="0.35em" text-anchor="start">Restrict Registry Permissions</text></g><g><rect x="421" y="333.33333333333326" height="104.44444444444423" width="5" fill="#000"></rect><text x="415" y="385.5555555555554" dy="0.35em" text-anchor="end">commonly used port</text></g><g><rect x="421" y="218.88888888888894" height="104.44444444444429" width="5" fill="#000"></rect><text x="415" y="271.1111111111111" dy="0.35em" text-anchor="end">custom cryptographic protocol</text></g><g><rect x="421" y="447.7777777777775" height="52.22222222222234" width="5" fill="#000"></rect><text x="415" y="473.8888888888887" dy="0.35em" text-anchor="end">modify registry</text></g><g><rect x="421" y="2.2737367544323206e-13" height="208.88888888888872" width="5" fill="#000"></rect><text x="415" y="104.44444444444458" dy="0.35em" text-anchor="end">remote file copy</text></g></g></g></svg>