<svg width="847" height="520" xmlns="http://www.w3.org/2000/svg" version="1.1"><g transform="translate(0, 10)"><g class="links" fill="none" stroke-opacity="0.4"><path d="M5,127.50000000000006C213,127.50000000000006,213,122.49999999999994,421,122.49999999999994" stroke-width="245" style="stroke: rgb(191, 105, 105);"></path><path d="M5,372.50000000000006C213,372.50000000000006,213,377.5000000000001,421,377.5000000000001" stroke-width="245" style="stroke: rgb(191, 105, 105);"></path><path d="M426,61.24999999999994C634,61.24999999999994,634,61.25,842,61.25" stroke-width="122.5" style="stroke: rgb(105, 191, 105);"></path><path d="M426,183.74999999999994C634,183.74999999999994,634,316.25,842,316.25" stroke-width="122.5" style="stroke: rgb(105, 191, 105);"></path><path d="M426,316.2500000000001C634,316.2500000000001,634,183.75,842,183.75" stroke-width="122.5" style="stroke: rgb(105, 105, 191);"></path><path d="M426,438.7500000000001C634,438.7500000000001,634,438.75,842,438.75" stroke-width="122.5" style="stroke: rgb(105, 105, 191);"></path></g><g class="nodes" font-family="Arial, Helvetica" font-size="10"><g><rect x="842" y="0" height="245" width="5" fill="#000"></rect><text x="836" y="122.5" dy="0.35em" text-anchor="end">malware reverse engineering</text></g><g><rect x="842" y="255" height="245" width="5" fill="#000"></rect><text x="836" y="377.5" dy="0.35em" text-anchor="end">netflow/enclave netflow</text></g><g><rect x="0" y="5.000000000000057" height="489.9999999999999" width="5" fill="#000"></rect><text x="11" y="250" dy="0.35em" text-anchor="start">Network Intrusion Prevention</text></g><g><rect x="421" y="-5.684341886080802e-14" height="245.00000000000014" width="5" fill="#000"></rect><text x="415" y="122.50000000000001" dy="0.35em" text-anchor="end">custom cryptographic protocol</text></g><g><rect x="421" y="255.00000000000009" height="244.99999999999994" width="5" fill="#000"></rect><text x="415" y="377.50000000000006" dy="0.35em" text-anchor="end">standard application layer protocol</text></g></g></g></svg>