<svg width="847" height="520" xmlns="http://www.w3.org/2000/svg" version="1.1"><g transform="translate(0, 10)"><g class="links" fill="none" stroke-opacity="0.4"><path d="M5,265C213,265,213,345.00000000000006,421,345.00000000000006" stroke-width="30" style="stroke: rgb(191, 105, 105);"></path><path d="M5,220.00000000000003C213,220.00000000000003,213,40.00000000000023,421,40.00000000000023" stroke-width="60" style="stroke: rgb(191, 105, 105);"></path><path d="M5,390.00000000000006C213,390.00000000000006,213,160.00000000000023,421,160.00000000000023" stroke-width="60" style="stroke: rgb(191, 156, 105);"></path><path d="M5,444.99999999999994C213,444.99999999999994,213,375.00000000000006,421,375.00000000000006" stroke-width="30" style="stroke: rgb(174, 191, 105);"></path><path d="M5,150.00000000000014C213,150.00000000000014,213,460.00000000000006,421,460.00000000000006" stroke-width="60" style="stroke: rgb(122, 191, 105);"></path><path d="M5,60.00000000000014C213,60.00000000000014,213,260.00000000000006,421,260.00000000000006" stroke-width="120" style="stroke: rgb(122, 191, 105);"></path><path d="M5,320.00000000000006C213,320.00000000000006,213,100.00000000000023,421,100.00000000000023" stroke-width="60" style="stroke: rgb(105, 191, 139);"></path><path d="M5,484.99999999999994C213,484.99999999999994,213,405.00000000000006,421,405.00000000000006" stroke-width="30" style="stroke: rgb(105, 191, 191);"></path><path d="M426,375.00000000000006C634,375.00000000000006,634,145.00000000000006,842,145.00000000000006" stroke-width="90" style="stroke: rgb(105, 139, 191);"></path><path d="M426,145.00000000000023C634,145.00000000000023,634,245.00000000000006,842,245.00000000000006" stroke-width="90" style="stroke: rgb(122, 105, 191);"></path><path d="M426,55.00000000000023C634,55.00000000000023,634,44.99999999999994,842,44.99999999999994" stroke-width="90" style="stroke: rgb(122, 105, 191);"></path><path d="M426,475.00000000000006C634,475.00000000000006,634,485.00000000000006,842,485.00000000000006" stroke-width="30" style="stroke: rgb(174, 105, 191);"></path><path d="M426,445.00000000000006C634,445.00000000000006,634,375.00000000000006,842,375.00000000000006" stroke-width="30" style="stroke: rgb(174, 105, 191);"></path><path d="M426,230.00000000000006C634,230.00000000000006,634,330.00000000000006,842,330.00000000000006" stroke-width="60" style="stroke: rgb(191, 105, 156);"></path><path d="M426,290.00000000000006C634,290.00000000000006,634,430.00000000000006,842,430.00000000000006" stroke-width="60" style="stroke: rgb(191, 105, 156);"></path></g><g class="nodes" font-family="Arial, Helvetica" font-size="10"><g><rect x="842" y="100.00000000000006" height="90" width="5" fill="#000"></rect><text x="836" y="145.00000000000006" dy="0.35em" text-anchor="end">binary file metadata</text></g><g><rect x="842" y="200.00000000000006" height="90" width="5" fill="#000"></rect><text x="836" y="245.00000000000006" dy="0.35em" text-anchor="end">dll monitoring</text></g><g><rect x="842" y="-5.684341886080802e-14" height="90.00000000000011" width="5" fill="#000"></rect><text x="836" y="45" dy="0.35em" text-anchor="end">loaded dlls</text></g><g><rect x="842" y="470.00000000000006" height="30" width="5" fill="#000"></rect><text x="836" y="485.00000000000006" dy="0.35em" text-anchor="end">malware reverse engineering</text></g><g><rect x="842" y="300.00000000000006" height="90" width="5" fill="#000"></rect><text x="836" y="345.00000000000006" dy="0.35em" text-anchor="end">netflow/enclave netflow</text></g><g><rect x="842" y="400.00000000000006" height="60" width="5" fill="#000"></rect><text x="836" y="430.00000000000006" dy="0.35em" text-anchor="end">network protocol analysis</text></g><g><rect x="0" y="190.00000000000003" height="90.00000000000001" width="5" fill="#000"></rect><text x="11" y="235.00000000000003" dy="0.35em" text-anchor="start">Code Signing</text></g><g><rect x="0" y="360.00000000000006" height="59.999999999999886" width="5" fill="#000"></rect><text x="11" y="390" dy="0.35em" text-anchor="start">Disable or Remove Feature or Program</text></g><g><rect x="0" y="429.99999999999994" height="30.000000000000014" width="5" fill="#000"></rect><text x="11" y="444.99999999999994" dy="0.35em" text-anchor="start">Execution Prevention</text></g><g><rect x="0" y="1.4210854715202004e-13" height="179.9999999999999" width="5" fill="#000"></rect><text x="11" y="90.00000000000009" dy="0.35em" text-anchor="start">Network Intrusion Prevention</text></g><g><rect x="0" y="290.00000000000006" height="60" width="5" fill="#000"></rect><text x="11" y="320.00000000000006" dy="0.35em" text-anchor="start">Privileged Account Management</text></g><g><rect x="0" y="469.99999999999994" height="29.99999999999993" width="5" fill="#000"></rect><text x="11" y="484.9999999999999" dy="0.35em" text-anchor="start">Restrict File and Directory Permissions</text></g><g><rect x="421" y="330.00000000000006" height="89.99999999999999" width="5" fill="#000"></rect><text x="415" y="375.00000000000006" dy="0.35em" text-anchor="end">masquerading</text></g><g><rect x="421" y="10.000000000000227" height="179.99999999999983" width="5" fill="#000"></rect><text x="415" y="100.00000000000014" dy="0.35em" text-anchor="end">powershell</text></g><g><rect x="421" y="200.00000000000006" height="120" width="5" fill="#000"></rect><text x="415" y="260.00000000000006" dy="0.35em" text-anchor="end">remote file copy</text></g><g><rect x="421" y="430.00000000000006" height="59.999999999999716" width="5" fill="#000"></rect><text x="415" y="459.9999999999999" dy="0.35em" text-anchor="end">standard application layer protocol</text></g></g></g></svg>