<svg width="847" height="520" xmlns="http://www.w3.org/2000/svg" version="1.1"><g transform="translate(0, 10)"><g class="links" fill="none" stroke-opacity="0.4"><path d="M5,69.47368421052634C213,69.47368421052634,213,74.47368421052646,421,74.47368421052646" stroke-width="138.94736842105263" style="stroke: rgb(191, 105, 105);"></path><path d="M5,422.10526315789485C213,422.10526315789485,213,268.1578947368421,421,268.1578947368421" stroke-width="23.157894736842106" style="stroke: rgb(191, 145, 105);"></path><path d="M5,455.26315789473693C213,455.26315789473693,213,291.31578947368416,421,291.31578947368416" stroke-width="23.157894736842106" style="stroke: rgb(191, 184, 105);"></path><path d="M5,377.3684210526317C213,377.3684210526317,213,415.5263157894736,421,415.5263157894736" stroke-width="46.31578947368421" style="stroke: rgb(158, 191, 105);"></path><path d="M5,264.73684210526324C213,264.73684210526324,213,359.2105263157893,421,359.2105263157893" stroke-width="46.31578947368421" style="stroke: rgb(118, 191, 105);"></path><path d="M5,195.26315789473696C213,195.26315789473696,213,200.26315789473708,421,200.26315789473708" stroke-width="92.63157894736842" style="stroke: rgb(118, 191, 105);"></path><path d="M5,488.421052631579C213,488.421052631579,213,314.47368421052624,421,314.47368421052624" stroke-width="23.157894736842106" style="stroke: rgb(105, 191, 131);"></path><path d="M5,321.0526315789473C213,321.0526315789473,213,471.84210526315786,421,471.84210526315786" stroke-width="46.31578947368421" style="stroke: rgb(105, 191, 171);"></path><path d="M426,16.578947368421197C634,16.578947368421197,634,11.578947368421252,842,11.578947368421252" stroke-width="23.157894736842106" style="stroke: rgb(105, 171, 191);"></path><path d="M426,86.05263157894751C634,86.05263157894751,634,398.94736842105254,842,398.94736842105254" stroke-width="23.157894736842106" style="stroke: rgb(105, 171, 191);"></path><path d="M426,109.21052631578962C634,109.21052631578962,634,455.2631578947367,842,455.2631578947367" stroke-width="23.157894736842106" style="stroke: rgb(105, 171, 191);"></path><path d="M426,39.7368421052633C634,39.7368421052633,634,240.00000000000037,842,240.00000000000037" stroke-width="23.157894736842106" style="stroke: rgb(105, 171, 191);"></path><path d="M426,132.36842105263173C634,132.36842105263173,634,488.4210526315788,842,488.4210526315788" stroke-width="23.157894736842106" style="stroke: rgb(105, 171, 191);"></path><path d="M426,62.89473684210541C634,62.89473684210541,634,319.4736842105266,842,319.4736842105266" stroke-width="23.157894736842106" style="stroke: rgb(105, 171, 191);"></path><path d="M426,291.3157894736842C634,291.3157894736842,634,57.89473684210546,842,57.89473684210546" stroke-width="69.47368421052632" style="stroke: rgb(105, 131, 191);"></path><path d="M426,415.5263157894736C634,415.5263157894736,634,115.78947368421073,842,115.78947368421073" stroke-width="46.31578947368421" style="stroke: rgb(118, 105, 191);"></path><path d="M426,370.78947368421035C634,370.78947368421035,634,422.1052631578946,842,422.1052631578946" stroke-width="23.157894736842106" style="stroke: rgb(158, 105, 191);"></path><path d="M426,347.63157894736827C634,347.63157894736827,634,206.84210526315806,842,206.84210526315806" stroke-width="23.157894736842106" style="stroke: rgb(158, 105, 191);"></path><path d="M426,177.10526315789497C634,177.10526315789497,634,172.1052631578949,842,172.1052631578949" stroke-width="46.31578947368421" style="stroke: rgb(191, 105, 184);"></path><path d="M426,223.4210526315792C634,223.4210526315792,634,274.7368421052635,842,274.7368421052635" stroke-width="46.31578947368421" style="stroke: rgb(191, 105, 184);"></path><path d="M426,471.84210526315786C634,471.84210526315786,634,354.2105263157897,842,354.2105263157897" stroke-width="46.31578947368421" style="stroke: rgb(191, 105, 145);"></path></g><g class="nodes" font-family="Arial, Helvetica" font-size="10"><g><rect x="842" y="1.9895196601282805e-13" height="138.9473684210526" width="5" fill="#000"></rect><text x="836" y="69.4736842105265" dy="0.35em" text-anchor="end">binary file metadata</text></g><g><rect x="842" y="387.3684210526315" height="46.31578947368416" width="5" fill="#000"></rect><text x="836" y="410.5263157894736" dy="0.35em" text-anchor="end">malware reverse engineering</text></g><g><rect x="842" y="148.9473684210528" height="69.47368421052653" width="5" fill="#000"></rect><text x="836" y="183.68421052631606" dy="0.35em" text-anchor="end">netflow/enclave netflow</text></g><g><rect x="842" y="443.68421052631567" height="23.15789473684208" width="5" fill="#000"></rect><text x="836" y="455.2631578947367" dy="0.35em" text-anchor="end">network intrusion detection system</text></g><g><rect x="842" y="228.42105263157933" height="69.47368421052619" width="5" fill="#000"></rect><text x="836" y="263.1578947368424" dy="0.35em" text-anchor="end">network protocol analysis</text></g><g><rect x="842" y="476.84210526315775" height="23.15789473684208" width="5" fill="#000"></rect><text x="836" y="488.4210526315788" dy="0.35em" text-anchor="end">ssl/tls inspection</text></g><g><rect x="842" y="307.89473684210554" height="69.47368421052596" width="5" fill="#000"></rect><text x="836" y="342.63157894736855" dy="0.35em" text-anchor="end">windows event logs</text></g><g><rect x="0" y="2.842170943040401e-14" height="138.94736842105272" width="5" fill="#000"></rect><text x="11" y="69.47368421052639" dy="0.35em" text-anchor="start">Antivirus/Antimalware</text></g><g><rect x="0" y="410.5263157894738" height="23.15789473684208" width="5" fill="#000"></rect><text x="11" y="422.10526315789485" dy="0.35em" text-anchor="start">Code Signing</text></g><g><rect x="0" y="443.6842105263159" height="23.15789473684208" width="5" fill="#000"></rect><text x="11" y="455.26315789473693" dy="0.35em" text-anchor="start">Execution Prevention</text></g><g><rect x="0" y="354.2105263157896" height="46.31578947368421" width="5" fill="#000"></rect><text x="11" y="377.3684210526317" dy="0.35em" text-anchor="start">Exploit Protection</text></g><g><rect x="0" y="148.94736842105274" height="138.94736842105243" width="5" fill="#000"></rect><text x="11" y="218.42105263157896" dy="0.35em" text-anchor="start">Network Intrusion Prevention</text></g><g><rect x="0" y="476.842105263158" height="23.157894736842024" width="5" fill="#000"></rect><text x="11" y="488.42105263157896" dy="0.35em" text-anchor="start">Restrict File and Directory Permissions</text></g><g><rect x="0" y="297.8947368421052" height="46.31578947368439" width="5" fill="#000"></rect><text x="11" y="321.0526315789474" dy="0.35em" text-anchor="start">User Account Management</text></g><g><rect x="421" y="336.0526315789472" height="46.315789473684276" width="5" fill="#000"></rect><text x="415" y="359.21052631578937" dy="0.35em" text-anchor="end">fallback channels</text></g><g><rect x="421" y="256.57894736842104" height="69.4736842105262" width="5" fill="#000"></rect><text x="415" y="291.31578947368416" dy="0.35em" text-anchor="end">masquerading</text></g><g><rect x="421" y="448.6842105263158" height="46.31578947368405" width="5" fill="#000"></rect><text x="415" y="471.8421052631578" dy="0.35em" text-anchor="end">new service</text></g><g><rect x="421" y="5.000000000000142" height="138.94736842105272" width="5" fill="#000"></rect><text x="415" y="74.4736842105265" dy="0.35em" text-anchor="end">obfuscated files or information</text></g><g><rect x="421" y="153.94736842105286" height="92.63157894736821" width="5" fill="#000"></rect><text x="415" y="200.26315789473696" dy="0.35em" text-anchor="end">remote file copy</text></g><g><rect x="421" y="392.3684210526315" height="46.31578947368426" width="5" fill="#000"></rect><text x="415" y="415.52631578947364" dy="0.35em" text-anchor="end">rundll32</text></g></g></g></svg>