<svg width="847" height="520" xmlns="http://www.w3.org/2000/svg" version="1.1"><g transform="translate(0, 10)"><g class="links" fill="none" stroke-opacity="0.4"><path d="M5,241.15384615384625C213,241.15384615384625,213,155.38461538461536,421,155.38461538461536" stroke-width="96.92307692307692" style="stroke: rgb(191, 105, 105);"></path><path d="M5,408.4615384615383C213,408.4615384615383,213,296.53846153846143,421,296.53846153846143" stroke-width="16.153846153846153" style="stroke: rgb(191, 135, 105);"></path><path d="M5,366.15384615384596C213,366.15384615384596,213,354.9999999999999,421,354.9999999999999" stroke-width="16.153846153846153" style="stroke: rgb(191, 166, 105);"></path><path d="M5,382.3076923076921C213,382.3076923076921,213,465.76923076923083,421,465.76923076923083" stroke-width="16.153846153846153" style="stroke: rgb(191, 166, 105);"></path><path d="M5,434.6153846153844C213,434.6153846153844,213,312.69230769230757,421,312.69230769230757" stroke-width="16.153846153846153" style="stroke: rgb(186, 191, 105);"></path><path d="M5,134.23076923076948C213,134.23076923076948,213,405.3846153846153,421,405.3846153846153" stroke-width="32.30769230769231" style="stroke: rgb(155, 191, 105);"></path><path d="M5,29.230769230769486C213,29.230769230769486,213,24.230769230769173,421,24.230769230769173" stroke-width="48.46153846153846" style="stroke: rgb(155, 191, 105);"></path><path d="M5,85.76923076923103C213,85.76923076923103,213,246.15384615384613,421,246.15384615384613" stroke-width="64.61538461538461" style="stroke: rgb(155, 191, 105);"></path><path d="M5,174.61538461538487C213,174.61538461538487,213,491.923076923077,421,491.923076923077" stroke-width="16.153846153846153" style="stroke: rgb(155, 191, 105);"></path><path d="M5,158.4615384615387C213,158.4615384615387,213,439.61538461538464,421,439.61538461538464" stroke-width="16.153846153846153" style="stroke: rgb(155, 191, 105);"></path><path d="M5,460.76923076923055C213,460.76923076923055,213,371.153846153846,421,371.153846153846" stroke-width="16.153846153846153" style="stroke: rgb(125, 191, 105);"></path><path d="M5,486.9230769230767C213,486.9230769230767,213,328.8461538461537,421,328.8461538461537" stroke-width="16.153846153846153" style="stroke: rgb(105, 191, 115);"></path><path d="M5,323.8461538461539C213,323.8461538461539,213,72.69230769230764,421,72.69230769230764" stroke-width="48.46153846153846" style="stroke: rgb(105, 191, 145);"></path><path d="M426,147.3076923076923C634,147.3076923076923,634,285.3846153846153,842,285.3846153846153" stroke-width="16.153846153846153" style="stroke: rgb(105, 191, 176);"></path><path d="M426,131.15384615384613C634,131.15384615384613,634,243.07692307692295,842,243.07692307692295" stroke-width="16.153846153846153" style="stroke: rgb(105, 191, 176);"></path><path d="M426,195.76923076923077C634,195.76923076923077,634,486.9230769230768,842,486.9230769230768" stroke-width="16.153846153846153" style="stroke: rgb(105, 191, 176);"></path><path d="M426,114.99999999999999C634,114.99999999999999,634,119.99999999999993,842,119.99999999999993" stroke-width="16.153846153846153" style="stroke: rgb(105, 191, 176);"></path><path d="M426,163.46153846153845C634,163.46153846153845,634,392.30769230769226,842,392.30769230769226" stroke-width="16.153846153846153" style="stroke: rgb(105, 191, 176);"></path><path d="M426,179.6153846153846C634,179.6153846153846,634,460.7692307692306,842,460.7692307692306" stroke-width="16.153846153846153" style="stroke: rgb(105, 191, 176);"></path><path d="M426,312.69230769230757C634,312.69230769230757,634,317.69230769230757,842,317.69230769230757" stroke-width="48.46153846153846" style="stroke: rgb(105, 176, 191);"></path><path d="M426,363.0769230769229C634,363.0769230769229,634,426.5384615384613,842,426.5384615384613" stroke-width="32.30769230769231" style="stroke: rgb(105, 145, 191);"></path><path d="M426,465.76923076923083C634,465.76923076923083,634,184.61538461538453,842,184.61538461538453" stroke-width="16.153846153846153" style="stroke: rgb(105, 115, 191);"></path><path d="M426,413.4615384615384C634,413.4615384615384,634,259.2307692307691,842,259.2307692307691" stroke-width="16.153846153846153" style="stroke: rgb(125, 105, 191);"></path><path d="M426,397.30769230769226C634,397.30769230769226,634,77.69230769230792,842,77.69230769230792" stroke-width="16.153846153846153" style="stroke: rgb(125, 105, 191);"></path><path d="M426,48.4615384615384C634,48.4615384615384,634,218.84615384615373,842,218.84615384615373" stroke-width="32.30769230769231" style="stroke: rgb(155, 105, 191);"></path><path d="M426,16.153846153846096C634,16.153846153846096,634,21.15384615384638,842,21.15384615384638" stroke-width="32.30769230769231" style="stroke: rgb(155, 105, 191);"></path><path d="M426,80.76923076923072C634,80.76923076923072,634,368.076923076923,842,368.076923076923" stroke-width="32.30769230769231" style="stroke: rgb(155, 105, 191);"></path><path d="M426,229.99999999999997C634,229.99999999999997,634,53.46153846153869,842,53.46153846153869" stroke-width="32.30769230769231" style="stroke: rgb(186, 105, 191);"></path><path d="M426,262.30769230769226C634,262.30769230769226,634,144.23076923076917,842,144.23076923076917" stroke-width="32.30769230769231" style="stroke: rgb(186, 105, 191);"></path><path d="M426,491.923076923077C634,491.923076923077,634,93.84615384615408,842,93.84615384615408" stroke-width="16.153846153846153" style="stroke: rgb(191, 105, 166);"></path><path d="M426,439.61538461538464C634,439.61538461538464,634,168.46153846153837,842,168.46153846153837" stroke-width="16.153846153846153" style="stroke: rgb(191, 105, 135);"></path></g><g class="nodes" font-family="Arial, Helvetica" font-size="10"><g><rect x="842" y="277.3076923076922" height="64.61538461538463" width="5" fill="#000"></rect><text x="836" y="309.6153846153845" dy="0.35em" text-anchor="end">binary file metadata</text></g><g><rect x="842" y="410.3846153846152" height="32.30769230769232" width="5" fill="#000"></rect><text x="836" y="426.5384615384613" dy="0.35em" text-anchor="end">data loss prevention</text></g><g><rect x="842" y="202.69230769230757" height="64.61538461538464" width="5" fill="#000"></rect><text x="836" y="234.9999999999999" dy="0.35em" text-anchor="end">malware reverse engineering</text></g><g><rect x="842" y="5.000000000000227" height="96.92307692307662" width="5" fill="#000"></rect><text x="836" y="53.46153846153854" dy="0.35em" text-anchor="end">netflow/enclave netflow</text></g><g><rect x="842" y="478.8461538461537" height="16.153846153846075" width="5" fill="#000"></rect><text x="836" y="486.92307692307674" dy="0.35em" text-anchor="end">network intrusion detection system</text></g><g><rect x="842" y="111.92307692307685" height="80.76923076923072" width="5" fill="#000"></rect><text x="836" y="152.3076923076922" dy="0.35em" text-anchor="end">network protocol analysis</text></g><g><rect x="842" y="351.92307692307685" height="48.46153846153834" width="5" fill="#000"></rect><text x="836" y="376.153846153846" dy="0.35em" text-anchor="end">ssl/tls inspection</text></g><g><rect x="842" y="452.6923076923075" height="16.15384615384619" width="5" fill="#000"></rect><text x="836" y="460.7692307692306" dy="0.35em" text-anchor="end">windows event logs</text></g><g><rect x="0" y="192.6923076923078" height="96.9230769230769" width="5" fill="#000"></rect><text x="11" y="241.15384615384625" dy="0.35em" text-anchor="start">Antivirus/Antimalware</text></g><g><rect x="0" y="400.3846153846152" height="16.15384615384616" width="5" fill="#000"></rect><text x="11" y="408.4615384615383" dy="0.35em" text-anchor="start">Code Signing</text></g><g><rect x="0" y="358.07692307692287" height="32.30769230769232" width="5" fill="#000"></rect><text x="11" y="374.23076923076906" dy="0.35em" text-anchor="start">Encrypt Sensitive Information</text></g><g><rect x="0" y="426.5384615384613" height="16.15384615384614" width="5" fill="#000"></rect><text x="11" y="434.6153846153844" dy="0.35em" text-anchor="start">Execution Prevention</text></g><g><rect x="0" y="5.000000000000256" height="177.69230769230754" width="5" fill="#000"></rect><text x="11" y="93.84615384615402" dy="0.35em" text-anchor="start">Network Intrusion Prevention</text></g><g><rect x="0" y="452.69230769230745" height="16.153846153846132" width="5" fill="#000"></rect><text x="11" y="460.7692307692305" dy="0.35em" text-anchor="start">Remote Data Storage</text></g><g><rect x="0" y="478.8461538461536" height="16.153846153846132" width="5" fill="#000"></rect><text x="11" y="486.9230769230767" dy="0.35em" text-anchor="start">Restrict File and Directory Permissions</text></g><g><rect x="0" y="299.6153846153847" height="48.46153846153817" width="5" fill="#000"></rect><text x="11" y="323.8461538461538" dy="0.35em" text-anchor="start">SSL/TLS Inspection</text></g><g><rect x="421" y="346.9230769230768" height="32.30769230769238" width="5" fill="#000"></rect><text x="415" y="363.076923076923" dy="0.35em" text-anchor="end">automated collection</text></g><g><rect x="421" y="431.53846153846155" height="16.15384615384619" width="5" fill="#000"></rect><text x="415" y="439.61538461538464" dy="0.35em" text-anchor="end">data obfuscation</text></g><g><rect x="421" y="288.46153846153834" height="48.46153846153848" width="5" fill="#000"></rect><text x="415" y="312.69230769230757" dy="0.35em" text-anchor="end">masquerading</text></g><g><rect x="421" y="106.9230769230769" height="96.9230769230769" width="5" fill="#000"></rect><text x="415" y="155.38461538461536" dy="0.35em" text-anchor="end">obfuscated files or information</text></g><g><rect x="421" y="213.8461538461538" height="64.61538461538453" width="5" fill="#000"></rect><text x="415" y="246.15384615384608" dy="0.35em" text-anchor="end">remote file copy</text></g><g><rect x="421" y="483.8461538461539" height="16.153846153846132" width="5" fill="#000"></rect><text x="415" y="491.923076923077" dy="0.35em" text-anchor="end">scheduled transfer</text></g><g><rect x="421" y="389.23076923076917" height="32.30769230769238" width="5" fill="#000"></rect><text x="415" y="405.38461538461536" dy="0.35em" text-anchor="end">standard application layer protocol</text></g><g><rect x="421" y="-5.684341886080802e-14" height="96.92307692307696" width="5" fill="#000"></rect><text x="415" y="48.461538461538424" dy="0.35em" text-anchor="end">standard cryptographic protocol</text></g><g><rect x="421" y="457.69230769230774" height="16.15384615384619" width="5" fill="#000"></rect><text x="415" y="465.76923076923083" dy="0.35em" text-anchor="end">transmitted data manipulation</text></g></g></g></svg>