<svg width="847" height="520" xmlns="http://www.w3.org/2000/svg" version="1.1"><g transform="translate(0, 10)"><g class="links" fill="none" stroke-opacity="0.4"><path d="M5,352.8571428571428C213,352.8571428571428,213,352.85714285714266,421,352.85714285714266" stroke-width="137.14285714285714" style="stroke: rgb(191, 105, 105);"></path><path d="M5,147.14285714285708C213,147.14285714285708,213,137.1428571428569,421,137.1428571428569" stroke-width="274.2857142857143" style="stroke: rgb(191, 105, 105);"></path><path d="M5,455.7142857142856C213,455.7142857142856,213,465.71428571428584,421,465.71428571428584" stroke-width="68.57142857142857" style="stroke: rgb(191, 105, 105);"></path><path d="M426,387.14285714285694C634,387.14285714285694,634,465.71428571428567,842,465.71428571428567" stroke-width="68.57142857142857" style="stroke: rgb(148, 191, 105);"></path><path d="M426,318.5714285714284C634,318.5714285714284,634,171.42857142857144,842,171.42857142857144" stroke-width="68.57142857142857" style="stroke: rgb(148, 191, 105);"></path><path d="M426,68.57142857142834C634,68.57142857142834,634,68.5714285714286,842,68.5714285714286" stroke-width="137.14285714285714" style="stroke: rgb(105, 191, 191);"></path><path d="M426,205.7142857142855C634,205.7142857142855,634,352.85714285714255,842,352.85714285714255" stroke-width="137.14285714285714" style="stroke: rgb(105, 191, 191);"></path><path d="M426,465.71428571428584C634,465.71428571428584,634,240,842,240" stroke-width="68.57142857142857" style="stroke: rgb(148, 105, 191);"></path></g><g class="nodes" font-family="Arial, Helvetica" font-size="10"><g><rect x="842" y="431.4285714285714" height="68.57142857142856" width="5" fill="#000"></rect><text x="836" y="465.71428571428567" dy="0.35em" text-anchor="end">malware reverse engineering</text></g><g><rect x="842" y="2.842170943040401e-14" height="274.285714285714" width="5" fill="#000"></rect><text x="836" y="137.14285714285703" dy="0.35em" text-anchor="end">netflow/enclave netflow</text></g><g><rect x="842" y="284.285714285714" height="137.1428571428574" width="5" fill="#000"></rect><text x="836" y="352.85714285714266" dy="0.35em" text-anchor="end">network protocol analysis</text></g><g><rect x="0" y="9.999999999999943" height="480.0000000000001" width="5" fill="#000"></rect><text x="11" y="250" dy="0.35em" text-anchor="start">Network Intrusion Prevention</text></g><g><rect x="421" y="284.2857142857141" height="137.14285714285745" width="5" fill="#000"></rect><text x="415" y="352.85714285714283" dy="0.35em" text-anchor="end">fallback channels</text></g><g><rect x="421" y="-2.2737367544323206e-13" height="274.28571428571433" width="5" fill="#000"></rect><text x="415" y="137.14285714285694" dy="0.35em" text-anchor="end">remote file copy</text></g><g><rect x="421" y="431.42857142857156" height="68.57142857142867" width="5" fill="#000"></rect><text x="415" y="465.7142857142859" dy="0.35em" text-anchor="end">scheduled transfer</text></g></g></g></svg>