<svg width="847" height="520" xmlns="http://www.w3.org/2000/svg" version="1.1"><g transform="translate(0, 10)"><g class="links" fill="none" stroke-opacity="0.4"><path d="M5,81.66666666666673C213,81.66666666666673,213,81.66666666666647,421,81.66666666666647" stroke-width="163.33333333333334" style="stroke: rgb(191, 105, 105);"></path><path d="M5,245.00000000000006C213,245.00000000000006,213,418.3333333333334,421,418.3333333333334" stroke-width="163.33333333333334" style="stroke: rgb(191, 105, 105);"></path><path d="M5,418.33333333333337C213,418.33333333333337,213,244.99999999999983,421,244.99999999999983" stroke-width="163.33333333333334" style="stroke: rgb(148, 191, 105);"></path><path d="M426,163.33333333333314C634,163.33333333333314,634,163.33333333333343,842,163.33333333333343" stroke-width="326.6666666666667" style="stroke: rgb(105, 191, 191);"></path><path d="M426,418.3333333333334C634,418.3333333333334,634,418.3333333333334,842,418.3333333333334" stroke-width="163.33333333333334" style="stroke: rgb(148, 105, 191);"></path></g><g class="nodes" font-family="Arial, Helvetica" font-size="10"><g><rect x="842" y="8.526512829121202e-14" height="326.66666666666663" width="5" fill="#000"></rect><text x="836" y="163.3333333333334" dy="0.35em" text-anchor="end">netflow/enclave netflow</text></g><g><rect x="842" y="336.66666666666674" height="163.3333333333332" width="5" fill="#000"></rect><text x="836" y="418.33333333333337" dy="0.35em" text-anchor="end">network protocol analysis</text></g><g><rect x="0" y="5.684341886080802e-14" height="326.66666666666663" width="5" fill="#000"></rect><text x="11" y="163.33333333333337" dy="0.35em" text-anchor="start">Network Intrusion Prevention</text></g><g><rect x="0" y="336.6666666666667" height="163.3333333333333" width="5" fill="#000"></rect><text x="11" y="418.3333333333333" dy="0.35em" text-anchor="start">Network Segmentation</text></g><g><rect x="421" y="-1.9895196601282805e-13" height="326.6666666666669" width="5" fill="#000"></rect><text x="415" y="163.33333333333326" dy="0.35em" text-anchor="end">commonly used port</text></g><g><rect x="421" y="336.66666666666674" height="163.33333333333348" width="5" fill="#000"></rect><text x="415" y="418.3333333333335" dy="0.35em" text-anchor="end">data encoding</text></g></g></g></svg>