<svg width="847" height="520" xmlns="http://www.w3.org/2000/svg" version="1.1"><g transform="translate(0, 10)"><g class="links" fill="none" stroke-opacity="0.4"><path d="M5,159.9999999999999C213,159.9999999999999,213,165.0000000000001,421,165.0000000000001" stroke-width="320" style="stroke: rgb(191, 105, 105);"></path><path d="M5,370.0000000000001C213,370.0000000000001,213,374.99999999999994,421,374.99999999999994" stroke-width="80" style="stroke: rgb(174, 191, 105);"></path><path d="M5,460.0000000000001C213,460.0000000000001,213,454.99999999999994,421,454.99999999999994" stroke-width="80" style="stroke: rgb(105, 191, 139);"></path><path d="M426,245.0000000000001C634,245.0000000000001,634,420.0000000000001,842,420.0000000000001" stroke-width="160" style="stroke: rgb(105, 139, 191);"></path><path d="M426,85.00000000000011C634,85.00000000000011,634,79.99999999999986,842,79.99999999999986" stroke-width="160" style="stroke: rgb(105, 139, 191);"></path><path d="M426,414.99999999999994C634,414.99999999999994,634,250.00000000000014,842,250.00000000000014" stroke-width="160" style="stroke: rgb(174, 105, 191);"></path></g><g class="nodes" font-family="Arial, Helvetica" font-size="10"><g><rect x="842" y="170.00000000000014" height="160" width="5" fill="#000"></rect><text x="836" y="250.00000000000014" dy="0.35em" text-anchor="end">anti-virus</text></g><g><rect x="842" y="340.0000000000001" height="160" width="5" fill="#000"></rect><text x="836" y="420.0000000000001" dy="0.35em" text-anchor="end">netflow/enclave netflow</text></g><g><rect x="842" y="-1.4210854715202004e-13" height="160.00000000000028" width="5" fill="#000"></rect><text x="836" y="80" dy="0.35em" text-anchor="end">network protocol analysis</text></g><g><rect x="0" y="-1.1368683772161603e-13" height="320.0000000000002" width="5" fill="#000"></rect><text x="11" y="160" dy="0.35em" text-anchor="start">Network Intrusion Prevention</text></g><g><rect x="0" y="330.0000000000001" height="80" width="5" fill="#000"></rect><text x="11" y="370.0000000000001" dy="0.35em" text-anchor="start">Restrict File and Directory Permissions</text></g><g><rect x="0" y="420.0000000000001" height="80" width="5" fill="#000"></rect><text x="11" y="460.0000000000001" dy="0.35em" text-anchor="start">User Account Management</text></g><g><rect x="421" y="334.99999999999994" height="159.99999999999997" width="5" fill="#000"></rect><text x="415" y="414.99999999999994" dy="0.35em" text-anchor="end">disabling security tools</text></g><g><rect x="421" y="5.000000000000114" height="319.99999999999983" width="5" fill="#000"></rect><text x="415" y="165.00000000000003" dy="0.35em" text-anchor="end">remote file copy</text></g></g></g></svg>