<svg width="847" height="520" xmlns="http://www.w3.org/2000/svg" version="1.1"><g transform="translate(0, 10)"><g class="links" fill="none" stroke-opacity="0.4"><path d="M5,263.5000000000001C213,263.5000000000001,213,419.49999999999994,421,419.49999999999994" stroke-width="47" style="stroke: rgb(191, 105, 105);"></path><path d="M5,298.7500000000001C213,298.7500000000001,213,464.7499999999999,421,464.7499999999999" stroke-width="23.5" style="stroke: rgb(191, 105, 105);"></path><path d="M5,193.00000000000009C213,193.00000000000009,213,339.0000000000003,421,339.0000000000003" stroke-width="94" style="stroke: rgb(191, 105, 105);"></path><path d="M5,75.50000000000009C213,75.50000000000009,213,70.50000000000017,421,70.50000000000017" stroke-width="141" style="stroke: rgb(191, 105, 105);"></path><path d="M5,483.2499999999999C213,483.2499999999999,213,488.2499999999999,421,488.2499999999999" stroke-width="23.5" style="stroke: rgb(191, 179, 105);"></path><path d="M5,391C213,391,213,211.50000000000017,421,211.50000000000017" stroke-width="141" style="stroke: rgb(130, 191, 105);"></path><path d="M426,431.24999999999994C634,431.24999999999994,634,488.25,842,488.25" stroke-width="23.5" style="stroke: rgb(105, 191, 154);"></path><path d="M426,407.74999999999994C634,407.74999999999994,634,152.75000000000006,842,152.75000000000006" stroke-width="23.5" style="stroke: rgb(105, 191, 154);"></path><path d="M426,476.4999999999999C634,476.4999999999999,634,188.00000000000006,842,188.00000000000006" stroke-width="47" style="stroke: rgb(105, 154, 191);"></path><path d="M426,315.5000000000003C634,315.5000000000003,634,117.50000000000006,842,117.50000000000006" stroke-width="47" style="stroke: rgb(130, 105, 191);"></path><path d="M426,362.5000000000003C634,362.5000000000003,634,339.0000000000001,842,339.0000000000001" stroke-width="47" style="stroke: rgb(130, 105, 191);"></path><path d="M426,47.00000000000017C634,47.00000000000017,634,47.00000000000006,842,47.00000000000006" stroke-width="94" style="stroke: rgb(191, 105, 179);"></path><path d="M426,141.00000000000017C634,141.00000000000017,634,268.5000000000001,842,268.5000000000001" stroke-width="94" style="stroke: rgb(191, 105, 179);"></path><path d="M426,235.00000000000017C634,235.00000000000017,634,419.5,842,419.5" stroke-width="94" style="stroke: rgb(191, 105, 179);"></path></g><g class="nodes" font-family="Arial, Helvetica" font-size="10"><g><rect x="842" y="476.5" height="23.5" width="5" fill="#000"></rect><text x="836" y="488.25" dy="0.35em" text-anchor="end">malware reverse engineering</text></g><g><rect x="842" y="5.684341886080802e-14" height="211.50000000000003" width="5" fill="#000"></rect><text x="836" y="105.75000000000007" dy="0.35em" text-anchor="end">netflow/enclave netflow</text></g><g><rect x="842" y="221.50000000000009" height="140.9999999999999" width="5" fill="#000"></rect><text x="836" y="292" dy="0.35em" text-anchor="end">network protocol analysis</text></g><g><rect x="842" y="372.5" height="94" width="5" fill="#000"></rect><text x="836" y="419.5" dy="0.35em" text-anchor="end">ssl/tls inspection</text></g><g><rect x="0" y="5.000000000000085" height="305.49999999999994" width="5" fill="#000"></rect><text x="11" y="157.75000000000006" dy="0.35em" text-anchor="start">Network Intrusion Prevention</text></g><g><rect x="0" y="471.4999999999999" height="23.5" width="5" fill="#000"></rect><text x="11" y="483.2499999999999" dy="0.35em" text-anchor="start">Network Segmentation</text></g><g><rect x="0" y="320.5" height="140.9999999999999" width="5" fill="#000"></rect><text x="11" y="390.99999999999994" dy="0.35em" text-anchor="start">Restrict Web-Based Content</text></g><g><rect x="421" y="452.9999999999999" height="46.999999999999886" width="5" fill="#000"></rect><text x="415" y="476.49999999999983" dy="0.35em" text-anchor="end">commonly used port</text></g><g><rect x="421" y="292.0000000000003" height="93.99999999999966" width="5" fill="#000"></rect><text x="415" y="339.0000000000001" dy="0.35em" text-anchor="end">remote file copy</text></g><g><rect x="421" y="395.99999999999994" height="46.99999999999997" width="5" fill="#000"></rect><text x="415" y="419.49999999999994" dy="0.35em" text-anchor="end">standard application layer protocol</text></g><g><rect x="421" y="1.7053025658242404e-13" height="282.0000000000001" width="5" fill="#000"></rect><text x="415" y="141.00000000000023" dy="0.35em" text-anchor="end">web service</text></g></g></g></svg>