<svg width="847" height="520" xmlns="http://www.w3.org/2000/svg" version="1.1"><g transform="translate(0, 10)"><g class="links" fill="none" stroke-opacity="0.4"><path d="M5,410C213,410,213,414.9999999999997,421,414.9999999999997" stroke-width="160" style="stroke: rgb(191, 105, 105);"></path><path d="M5,170C213,170,213,165.00000000000006,421,165.00000000000006" stroke-width="320" style="stroke: rgb(191, 105, 105);"></path><path d="M426,414.9999999999997C634,414.9999999999997,634,420.00000000000006,842,420.00000000000006" stroke-width="160" style="stroke: rgb(105, 191, 105);"></path><path d="M426,245.00000000000006C634,245.00000000000006,634,250.0000000000001,842,250.0000000000001" stroke-width="160" style="stroke: rgb(105, 105, 191);"></path><path d="M426,85.00000000000006C634,85.00000000000006,634,80.00000000000011,842,80.00000000000011" stroke-width="160" style="stroke: rgb(105, 105, 191);"></path></g><g class="nodes" font-family="Arial, Helvetica" font-size="10"><g><rect x="842" y="340.00000000000006" height="159.99999999999983" width="5" fill="#000"></rect><text x="836" y="420" dy="0.35em" text-anchor="end">binary file metadata</text></g><g><rect x="842" y="170.0000000000001" height="159.99999999999994" width="5" fill="#000"></rect><text x="836" y="250.00000000000009" dy="0.35em" text-anchor="end">malware reverse engineering</text></g><g><rect x="842" y="1.1368683772161603e-13" height="160" width="5" fill="#000"></rect><text x="836" y="80.00000000000011" dy="0.35em" text-anchor="end">netflow/enclave netflow</text></g><g><rect x="0" y="10" height="480" width="5" fill="#000"></rect><text x="11" y="250" dy="0.35em" text-anchor="start">Network Intrusion Prevention</text></g><g><rect x="421" y="5.000000000000057" height="319.99999999999966" width="5" fill="#000"></rect><text x="415" y="164.9999999999999" dy="0.35em" text-anchor="end">custom cryptographic protocol</text></g><g><rect x="421" y="334.9999999999997" height="160.00000000000023" width="5" fill="#000"></rect><text x="415" y="414.99999999999983" dy="0.35em" text-anchor="end">data compressed</text></g></g></g></svg>