<svg width="847" height="520" xmlns="http://www.w3.org/2000/svg" version="1.1"><g transform="translate(0, 10)"><g class="links" fill="none" stroke-opacity="0.4"><path d="M5,171.51515151515184C213,171.51515151515184,213,196.3636363636362,421,196.3636363636362" stroke-width="74.54545454545455" style="stroke: rgb(191, 105, 105);"></path><path d="M5,215.0000000000003C213,215.0000000000003,213,426.51515151515144,421,426.51515151515144" stroke-width="12.424242424242424" style="stroke: rgb(191, 105, 105);"></path><path d="M5,249.84848484848507C213,249.84848484848507,213,18.636363636363665,421,18.636363636363665" stroke-width="37.27272727272727" style="stroke: rgb(191, 131, 105);"></path><path d="M5,493.7878787878784C213,493.7878787878784,213,334.3939393939393,421,334.3939393939393" stroke-width="12.424242424242424" style="stroke: rgb(191, 156, 105);"></path><path d="M5,471.363636363636C213,471.363636363636,213,448.93939393939394,421,448.93939393939394" stroke-width="12.424242424242424" style="stroke: rgb(191, 182, 105);"></path><path d="M5,426.5151515151511C213,426.5151515151511,213,309.54545454545445,421,309.54545454545445" stroke-width="12.424242424242424" style="stroke: rgb(174, 191, 105);"></path><path d="M5,118.0303030303034C213,118.0303030303034,213,493.7878787878788,421,493.7878787878788" stroke-width="12.424242424242424" style="stroke: rgb(148, 191, 105);"></path><path d="M5,86.96969696969734C213,86.96969696969734,213,397.8787878787878,421,397.8787878787878" stroke-width="24.848484848484848" style="stroke: rgb(148, 191, 105);"></path><path d="M5,62.12121212121249C213,62.12121212121249,213,363.03030303030295,421,363.03030303030295" stroke-width="24.848484848484848" style="stroke: rgb(148, 191, 105);"></path><path d="M5,24.848484848485217C213,24.848484848485217,213,268.4848484848484,421,268.4848484848484" stroke-width="49.696969696969695" style="stroke: rgb(148, 191, 105);"></path><path d="M5,105.60606060606098C213,105.60606060606098,213,471.3636363636364,421,471.3636363636364" stroke-width="12.424242424242424" style="stroke: rgb(148, 191, 105);"></path><path d="M5,297.12121212121235C213,297.12121212121235,213,55.909090909090935,421,55.909090909090935" stroke-width="37.27272727272727" style="stroke: rgb(122, 191, 105);"></path><path d="M5,391.66666666666686C213,391.66666666666686,213,130.45454545454547,421,130.45454545454547" stroke-width="37.27272727272727" style="stroke: rgb(105, 191, 114);"></path><path d="M5,448.93939393939354C213,448.93939393939354,213,321.9696969696969,421,321.9696969696969" stroke-width="12.424242424242424" style="stroke: rgb(105, 191, 139);"></path><path d="M5,344.3939393939396C213,344.3939393939396,213,93.18181818181822,421,93.18181818181822" stroke-width="37.27272727272727" style="stroke: rgb(105, 191, 165);"></path><path d="M426,177.72727272727258C634,177.72727272727258,634,187.72727272727286,842,187.72727272727286" stroke-width="12.424242424242424" style="stroke: rgb(105, 191, 191);"></path><path d="M426,190.151515151515C634,190.151515151515,634,344.3939393939395,842,344.3939393939395" stroke-width="12.424242424242424" style="stroke: rgb(105, 191, 191);"></path><path d="M426,214.9999999999999C634,214.9999999999999,634,438.9393939393941,842,438.9393939393941" stroke-width="12.424242424242424" style="stroke: rgb(105, 191, 191);"></path><path d="M426,202.57575757575745C634,202.57575757575745,634,391.66666666666686,842,391.66666666666686" stroke-width="12.424242424242424" style="stroke: rgb(105, 191, 191);"></path><path d="M426,227.42424242424232C634,227.42424242424232,634,483.78787878787904,842,483.78787878787904" stroke-width="12.424242424242424" style="stroke: rgb(105, 191, 191);"></path><path d="M426,165.30303030303014C634,165.30303030303014,634,165.3030303030301,842,165.3030303030301" stroke-width="12.424242424242424" style="stroke: rgb(105, 191, 191);"></path><path d="M426,426.51515151515144C634,426.51515151515144,634,237.42424242424258,842,237.42424242424258" stroke-width="12.424242424242424" style="stroke: rgb(105, 165, 191);"></path><path d="M426,74.54545454545458C634,74.54545454545458,634,84.54545454545435,842,84.54545454545435" stroke-width="149.0909090909091" style="stroke: rgb(105, 139, 191);"></path><path d="M426,321.9696969696969C634,321.9696969696969,634,212.5757575757577,842,212.5757575757577" stroke-width="37.27272727272727" style="stroke: rgb(105, 114, 191);"></path><path d="M426,448.93939393939394C634,448.93939393939394,634,461.3636363636366,842,461.3636363636366" stroke-width="12.424242424242424" style="stroke: rgb(122, 105, 191);"></path><path d="M426,493.7878787878788C634,493.7878787878788,634,249.84848484848501,842,249.84848484848501" stroke-width="12.424242424242424" style="stroke: rgb(148, 105, 191);"></path><path d="M426,404.090909090909C634,404.090909090909,634,369.24242424242436,842,369.24242424242436" stroke-width="12.424242424242424" style="stroke: rgb(174, 105, 191);"></path><path d="M426,391.6666666666666C634,391.6666666666666,634,309.54545454545473,842,309.54545454545473" stroke-width="12.424242424242424" style="stroke: rgb(174, 105, 191);"></path><path d="M426,369.24242424242414C634,369.24242424242414,634,356.8181818181819,842,356.8181818181819" stroke-width="12.424242424242424" style="stroke: rgb(191, 105, 182);"></path><path d="M426,356.8181818181817C634,356.8181818181817,634,297.1212121212123,842,297.1212121212123" stroke-width="12.424242424242424" style="stroke: rgb(191, 105, 182);"></path><path d="M426,256.06060606060595C634,256.06060606060595,634,278.48484848484867,842,278.48484848484867" stroke-width="24.848484848484848" style="stroke: rgb(191, 105, 156);"></path><path d="M426,280.9090909090908C634,280.9090909090908,634,410.30303030303054,842,410.30303030303054" stroke-width="24.848484848484848" style="stroke: rgb(191, 105, 156);"></path><path d="M426,471.3636363636364C634,471.3636363636364,634,321.96969696969717,842,321.96969696969717" stroke-width="12.424242424242424" style="stroke: rgb(191, 105, 131);"></path></g><g class="nodes" font-family="Arial, Helvetica" font-size="10"><g><rect x="842" y="181.51515151515164" height="74.54545454545456" width="5" fill="#000"></rect><text x="836" y="218.78787878787892" dy="0.35em" text-anchor="end">binary file metadata</text></g><g><rect x="842" y="455.1515151515154" height="12.424242424242436" width="5" fill="#000"></rect><text x="836" y="461.3636363636366" dy="0.35em" text-anchor="end">data loss prevention</text></g><g><rect x="842" y="338.1818181818183" height="37.272727272727366" width="5" fill="#000"></rect><text x="836" y="356.818181818182" dy="0.35em" text-anchor="end">malware reverse engineering</text></g><g><rect x="842" y="266.06060606060623" height="62.12121212121207" width="5" fill="#000"></rect><text x="836" y="297.12121212121224" dy="0.35em" text-anchor="end">netflow/enclave netflow</text></g><g><rect x="842" y="432.7272727272729" height="12.424242424242493" width="5" fill="#000"></rect><text x="836" y="438.93939393939417" dy="0.35em" text-anchor="end">network intrusion detection system</text></g><g><rect x="842" y="385.45454545454567" height="37.27272727272725" width="5" fill="#000"></rect><text x="836" y="404.0909090909093" dy="0.35em" text-anchor="end">network protocol analysis</text></g><g><rect x="842" y="477.57575757575785" height="12.42424242424238" width="5" fill="#000"></rect><text x="836" y="483.78787878787904" dy="0.35em" text-anchor="end">ssl/tls inspection</text></g><g><rect x="842" y="9.999999999999801" height="161.51515151515184" width="5" fill="#000"></rect><text x="836" y="90.75757575757572" dy="0.35em" text-anchor="end">windows event logs</text></g><g><rect x="0" y="134.24242424242456" height="86.96969696969688" width="5" fill="#000"></rect><text x="11" y="177.727272727273" dy="0.35em" text-anchor="start">Antivirus/Antimalware</text></g><g><rect x="0" y="231.21212121212145" height="37.27272727272725" width="5" fill="#000"></rect><text x="11" y="249.84848484848507" dy="0.35em" text-anchor="start">Audit</text></g><g><rect x="0" y="487.5757575757572" height="12.424242424242422" width="5" fill="#000"></rect><text x="11" y="493.7878787878784" dy="0.35em" text-anchor="start">Code Signing</text></g><g><rect x="0" y="465.1515151515148" height="12.424242424242435" width="5" fill="#000"></rect><text x="11" y="471.363636363636" dy="0.35em" text-anchor="start">Disable or Remove Feature or Program</text></g><g><rect x="0" y="420.3030303030299" height="12.424242424242436" width="5" fill="#000"></rect><text x="11" y="426.51515151515116" dy="0.35em" text-anchor="start">Execution Prevention</text></g><g><rect x="0" y="3.694822225952521e-13" height="124.2424242424242" width="5" fill="#000"></rect><text x="11" y="62.12121212121247" dy="0.35em" text-anchor="start">Network Intrusion Prevention</text></g><g><rect x="0" y="278.4848484848487" height="37.27272727272725" width="5" fill="#000"></rect><text x="11" y="297.12121212121235" dy="0.35em" text-anchor="start">Operating System Configuration</text></g><g><rect x="0" y="373.03030303030323" height="37.272727272726684" width="5" fill="#000"></rect><text x="11" y="391.6666666666666" dy="0.35em" text-anchor="start">Privileged Account Management</text></g><g><rect x="0" y="442.72727272727235" height="12.424242424242436" width="5" fill="#000"></rect><text x="11" y="448.93939393939354" dy="0.35em" text-anchor="start">Restrict File and Directory Permissions</text></g><g><rect x="0" y="325.757575757576" height="37.27272727272725" width="5" fill="#000"></rect><text x="11" y="344.3939393939396" dy="0.35em" text-anchor="start">User Account Management</text></g><g><rect x="421" y="487.5757575757576" height="12.424242424242351" width="5" fill="#000"></rect><text x="415" y="493.7878787878788" dy="0.35em" text-anchor="end">data compressed</text></g><g><rect x="421" y="442.72727272727275" height="12.42424242424244" width="5" fill="#000"></rect><text x="415" y="448.939393939394" dy="0.35em" text-anchor="end">exfiltration over physical medium</text></g><g><rect x="421" y="385.4545454545454" height="24.848484848484844" width="5" fill="#000"></rect><text x="415" y="397.8787878787878" dy="0.35em" text-anchor="end">fallback channels</text></g><g><rect x="421" y="303.33333333333326" height="37.27272727272726" width="5" fill="#000"></rect><text x="415" y="321.9696969696969" dy="0.35em" text-anchor="end">masquerading</text></g><g><rect x="421" y="159.09090909090892" height="74.54545454545462" width="5" fill="#000"></rect><text x="415" y="196.36363636363623" dy="0.35em" text-anchor="end">obfuscated files or information</text></g><g><rect x="421" y="243.63636363636354" height="49.696969696969745" width="5" fill="#000"></rect><text x="415" y="268.4848484848484" dy="0.35em" text-anchor="end">remote file copy</text></g><g><rect x="421" y="2.842170943040401e-14" height="149.0909090909089" width="5" fill="#000"></rect><text x="415" y="74.54545454545448" dy="0.35em" text-anchor="end">scheduled task</text></g><g><rect x="421" y="465.1515151515152" height="12.424242424242436" width="5" fill="#000"></rect><text x="415" y="471.3636363636364" dy="0.35em" text-anchor="end">scheduled transfer</text></g><g><rect x="421" y="420.30303030303025" height="12.424242424242493" width="5" fill="#000"></rect><text x="415" y="426.5151515151515" dy="0.35em" text-anchor="end">software packing</text></g><g><rect x="421" y="350.6060606060605" height="24.848484848484873" width="5" fill="#000"></rect><text x="415" y="363.03030303030295" dy="0.35em" text-anchor="end">standard application layer protocol</text></g></g></g></svg>