<svg width="847" height="520" xmlns="http://www.w3.org/2000/svg" version="1.1"><g transform="translate(0, 10)"><g class="links" fill="none" stroke-opacity="0.4"><path d="M5,124.99999999999977C213,124.99999999999977,213,125,421,125" stroke-width="240" style="stroke: rgb(191, 105, 105);"></path><path d="M5,375.00000000000017C213,375.00000000000017,213,375.00000000000006,421,375.00000000000006" stroke-width="240" style="stroke: rgb(148, 191, 105);"></path><path d="M426,65C634,65,634,59.999999999999915,842,59.999999999999915" stroke-width="120" style="stroke: rgb(105, 191, 191);"></path><path d="M426,185C634,185,634,440.0000000000002,842,440.0000000000002" stroke-width="120" style="stroke: rgb(105, 191, 191);"></path><path d="M426,435.00000000000006C634,435.00000000000006,634,310.0000000000001,842,310.0000000000001" stroke-width="120" style="stroke: rgb(148, 105, 191);"></path><path d="M426,315.00000000000006C634,315.00000000000006,634,179.99999999999991,842,179.99999999999991" stroke-width="120" style="stroke: rgb(148, 105, 191);"></path></g><g class="nodes" font-family="Arial, Helvetica" font-size="10"><g><rect x="842" y="250.0000000000001" height="120.00000000000009" width="5" fill="#000"></rect><text x="836" y="310.00000000000017" dy="0.35em" text-anchor="end">malware reverse engineering</text></g><g><rect x="842" y="-8.526512829121202e-14" height="240.0000000000002" width="5" fill="#000"></rect><text x="836" y="120.00000000000001" dy="0.35em" text-anchor="end">netflow/enclave netflow</text></g><g><rect x="842" y="380.0000000000002" height="119.99999999999989" width="5" fill="#000"></rect><text x="836" y="440.00000000000017" dy="0.35em" text-anchor="end">network protocol analysis</text></g><g><rect x="0" y="4.999999999999773" height="240.0000000000004" width="5" fill="#000"></rect><text x="11" y="124.99999999999997" dy="0.35em" text-anchor="start">Filter Network Traffic</text></g><g><rect x="0" y="255.00000000000017" height="240.00000000000003" width="5" fill="#000"></rect><text x="11" y="375.00000000000017" dy="0.35em" text-anchor="start">Network Intrusion Prevention</text></g><g><rect x="421" y="5" height="240.00000000000006" width="5" fill="#000"></rect><text x="415" y="125.00000000000003" dy="0.35em" text-anchor="end">multi-hop proxy</text></g><g><rect x="421" y="255.00000000000006" height="239.99999999999997" width="5" fill="#000"></rect><text x="415" y="375.00000000000006" dy="0.35em" text-anchor="end">standard application layer protocol</text></g></g></g></svg>