<svg width="847" height="520" xmlns="http://www.w3.org/2000/svg" version="1.1"><g transform="translate(0, 10)"><g class="links" fill="none" stroke-opacity="0.4"><path d="M5,49.61538461538451C213,49.61538461538451,213,273.07692307692304,421,273.07692307692304" stroke-width="99.23076923076924" style="stroke: rgb(191, 105, 105);"></path><path d="M5,286.34615384615387C213,286.34615384615387,213,139.03846153846138,421,139.03846153846138" stroke-width="49.61538461538462" style="stroke: rgb(191, 145, 105);"></path><path d="M5,397.3076923076924C213,397.3076923076924,213,382.3076923076923,421,382.3076923076923" stroke-width="33.07692307692308" style="stroke: rgb(191, 184, 105);"></path><path d="M5,440.3846153846155C213,440.3846153846155,213,468.4615384615386,421,468.4615384615386" stroke-width="33.07692307692308" style="stroke: rgb(158, 191, 105);"></path><path d="M5,483.46153846153857C213,483.46153846153857,213,425.38461538461553,421,425.38461538461553" stroke-width="33.07692307692308" style="stroke: rgb(118, 191, 105);"></path><path d="M5,345.9615384615385C213,345.9615384615385,213,188.653846153846,421,188.653846153846" stroke-width="49.61538461538462" style="stroke: rgb(105, 191, 131);"></path><path d="M5,175.38461538461527C213,175.38461538461527,213,349.2307692307692,421,349.2307692307692" stroke-width="33.07692307692308" style="stroke: rgb(105, 191, 171);"></path><path d="M5,134.03846153846143C213,134.03846153846143,213,39.807692307692136,421,39.807692307692136" stroke-width="49.61538461538462" style="stroke: rgb(105, 191, 171);"></path><path d="M5,226.73076923076917C213,226.73076923076917,213,89.42307692307675,421,89.42307692307675" stroke-width="49.61538461538462" style="stroke: rgb(105, 171, 191);"></path><path d="M426,248.26923076923072C634,248.26923076923072,634,309.42307692307685,842,309.42307692307685" stroke-width="16.53846153846154" style="stroke: rgb(105, 131, 191);"></path><path d="M426,264.80769230769226C634,264.80769230769226,634,369.0384615384615,842,369.0384615384615" stroke-width="16.53846153846154" style="stroke: rgb(105, 131, 191);"></path><path d="M426,281.3461538461538C634,281.3461538461538,634,412.1153846153845,842,412.1153846153845" stroke-width="16.53846153846154" style="stroke: rgb(105, 131, 191);"></path><path d="M426,297.88461538461536C634,297.88461538461536,634,438.6538461538461,842,438.6538461538461" stroke-width="16.53846153846154" style="stroke: rgb(105, 131, 191);"></path><path d="M426,314.4230769230769C634,314.4230769230769,634,465.1923076923076,842,465.1923076923076" stroke-width="16.53846153846154" style="stroke: rgb(105, 131, 191);"></path><path d="M426,231.73076923076917C634,231.73076923076917,634,206.7307692307693,842,206.7307692307693" stroke-width="16.53846153846154" style="stroke: rgb(105, 131, 191);"></path><path d="M426,114.23076923076907C634,114.23076923076907,634,99.2307692307693,842,99.2307692307693" stroke-width="198.46153846153848" style="stroke: rgb(118, 105, 191);"></path><path d="M426,365.7692307692308C634,365.7692307692308,634,258.07692307692304,842,258.07692307692304" stroke-width="66.15384615384616" style="stroke: rgb(158, 105, 191);"></path><path d="M426,468.4615384615386C634,468.4615384615386,634,334.23076923076917,842,334.23076923076917" stroke-width="33.07692307692308" style="stroke: rgb(191, 105, 184);"></path><path d="M426,417.11538461538476C634,417.11538461538476,634,385.57692307692304,842,385.57692307692304" stroke-width="16.53846153846154" style="stroke: rgb(191, 105, 145);"></path><path d="M426,433.6538461538463C634,433.6538461538463,634,491.73076923076917,842,491.73076923076917" stroke-width="16.53846153846154" style="stroke: rgb(191, 105, 145);"></path></g><g class="nodes" font-family="Arial, Helvetica" font-size="10"><g><rect x="842" y="301.1538461538461" height="49.615384615384656" width="5" fill="#000"></rect><text x="836" y="325.9615384615384" dy="0.35em" text-anchor="end">binary file metadata</text></g><g><rect x="842" y="224.99999999999994" height="66.15384615384613" width="5" fill="#000"></rect><text x="836" y="258.076923076923" dy="0.35em" text-anchor="end">dll monitoring</text></g><g><rect x="842" y="360.7692307692307" height="33.07692307692304" width="5" fill="#000"></rect><text x="836" y="377.30769230769226" dy="0.35em" text-anchor="end">malware reverse engineering</text></g><g><rect x="842" y="483.4615384615384" height="16.538461538461533" width="5" fill="#000"></rect><text x="836" y="491.73076923076917" dy="0.35em" text-anchor="end">netflow/enclave netflow</text></g><g><rect x="842" y="403.84615384615375" height="16.538461538461547" width="5" fill="#000"></rect><text x="836" y="412.1153846153845" dy="0.35em" text-anchor="end">network intrusion detection system</text></g><g><rect x="842" y="430.3846153846153" height="16.538461538461547" width="5" fill="#000"></rect><text x="836" y="438.6538461538461" dy="0.35em" text-anchor="end">network protocol analysis</text></g><g><rect x="842" y="456.92307692307685" height="16.538461538461547" width="5" fill="#000"></rect><text x="836" y="465.1923076923076" dy="0.35em" text-anchor="end">ssl/tls inspection</text></g><g><rect x="842" y="5.684341886080802e-14" height="214.9999999999999" width="5" fill="#000"></rect><text x="836" y="107.5" dy="0.35em" text-anchor="end">windows event logs</text></g><g><rect x="0" y="-1.1368683772161603e-13" height="99.23076923076923" width="5" fill="#000"></rect><text x="11" y="49.6153846153845" dy="0.35em" text-anchor="start">Antivirus/Antimalware</text></g><g><rect x="0" y="261.53846153846155" height="49.61538461538464" width="5" fill="#000"></rect><text x="11" y="286.34615384615387" dy="0.35em" text-anchor="start">Audit</text></g><g><rect x="0" y="380.76923076923083" height="33.076923076923094" width="5" fill="#000"></rect><text x="11" y="397.3076923076924" dy="0.35em" text-anchor="start">Behavior Prevention on Endpoint</text></g><g><rect x="0" y="423.8461538461539" height="33.076923076923094" width="5" fill="#000"></rect><text x="11" y="440.3846153846155" dy="0.35em" text-anchor="start">Exploit Protection</text></g><g><rect x="0" y="466.923076923077" height="33.076923076923094" width="5" fill="#000"></rect><text x="11" y="483.46153846153857" dy="0.35em" text-anchor="start">Network Intrusion Prevention</text></g><g><rect x="0" y="321.1538461538462" height="49.61538461538464" width="5" fill="#000"></rect><text x="11" y="345.9615384615385" dy="0.35em" text-anchor="start">Operating System Configuration</text></g><g><rect x="0" y="109.23076923076911" height="82.69230769230774" width="5" fill="#000"></rect><text x="11" y="150.57692307692298" dy="0.35em" text-anchor="start">Privileged Account Management</text></g><g><rect x="0" y="201.92307692307685" height="49.6153846153847" width="5" fill="#000"></rect><text x="11" y="226.7307692307692" dy="0.35em" text-anchor="start">User Account Management</text></g><g><rect x="421" y="223.4615384615384" height="99.23076923076927" width="5" fill="#000"></rect><text x="415" y="273.07692307692304" dy="0.35em" text-anchor="end">obfuscated files or information</text></g><g><rect x="421" y="332.6923076923077" height="66.1538461538463" width="5" fill="#000"></rect><text x="415" y="365.76923076923083" dy="0.35em" text-anchor="end">process injection</text></g><g><rect x="421" y="451.9230769230771" height="33.07692307692309" width="5" fill="#000"></rect><text x="415" y="468.4615384615386" dy="0.35em" text-anchor="end">rundll32</text></g><g><rect x="421" y="14.99999999999983" height="198.46153846153857" width="5" fill="#000"></rect><text x="415" y="114.23076923076911" dy="0.35em" text-anchor="end">scheduled task</text></g><g><rect x="421" y="408.846153846154" height="33.076923076923094" width="5" fill="#000"></rect><text x="415" y="425.38461538461553" dy="0.35em" text-anchor="end">standard application layer protocol</text></g></g></g></svg>