<svg width="847" height="520" xmlns="http://www.w3.org/2000/svg" version="1.1"><g transform="translate(0, 10)"><g class="links" fill="none" stroke-opacity="0.4"><path d="M5,272.9411764705884C213,272.9411764705884,213,85.88235294117635,421,85.88235294117635" stroke-width="151.76470588235293" style="stroke: rgb(191, 105, 105);"></path><path d="M5,442.0588235294117C213,442.0588235294117,213,320.8823529411763,421,320.8823529411763" stroke-width="25.294117647058822" style="stroke: rgb(191, 148, 105);"></path><path d="M5,174.41176470588246C213,174.41176470588246,213,477.35294117647015,421,477.35294117647015" stroke-width="25.294117647058822" style="stroke: rgb(191, 191, 105);"></path><path d="M5,136.47058823529423C213,136.47058823529423,213,368.8235294117646,421,368.8235294117646" stroke-width="50.588235294117645" style="stroke: rgb(191, 191, 105);"></path><path d="M5,60.58823529411776C213,60.58823529411776,213,222.35294117647058,421,222.35294117647058" stroke-width="101.17647058823529" style="stroke: rgb(191, 191, 105);"></path><path d="M5,477.3529411764705C213,477.3529411764705,213,442.0588235294116,421,442.0588235294116" stroke-width="25.294117647058822" style="stroke: rgb(148, 191, 105);"></path><path d="M5,406.7647058823528C213,406.7647058823528,213,295.58823529411745,421,295.58823529411745" stroke-width="25.294117647058822" style="stroke: rgb(105, 191, 105);"></path><path d="M5,371.4705882352939C213,371.4705882352939,213,416.76470588235276,421,416.76470588235276" stroke-width="25.294117647058822" style="stroke: rgb(105, 191, 148);"></path><path d="M426,47.941176470588125C634,47.941176470588125,634,235.00000000000014,842,235.00000000000014" stroke-width="25.294117647058822" style="stroke: rgb(105, 191, 191);"></path><path d="M426,73.23529411764694C634,73.23529411764694,634,356.1764705882354,842,356.1764705882354" stroke-width="25.294117647058822" style="stroke: rgb(105, 191, 191);"></path><path d="M426,98.52941176470577C634,98.52941176470577,634,416.764705882353,842,416.764705882353" stroke-width="25.294117647058822" style="stroke: rgb(105, 191, 191);"></path><path d="M426,22.6470588235293C634,22.6470588235293,634,149.11764705882368,842,149.11764705882368" stroke-width="25.294117647058822" style="stroke: rgb(105, 191, 191);"></path><path d="M426,123.8235294117646C634,123.8235294117646,634,452.05882352941177,842,452.05882352941177" stroke-width="25.294117647058822" style="stroke: rgb(105, 191, 191);"></path><path d="M426,149.11764705882342C634,149.11764705882342,634,487.35294117647055,842,487.35294117647055" stroke-width="25.294117647058822" style="stroke: rgb(105, 191, 191);"></path><path d="M426,308.2352941176469C634,308.2352941176469,634,308.23529411764724,842,308.23529411764724" stroke-width="50.588235294117645" style="stroke: rgb(105, 148, 191);"></path><path d="M426,477.35294117647015C634,477.35294117647015,634,260.29411764705895,842,260.29411764705895" stroke-width="25.294117647058822" style="stroke: rgb(105, 105, 191);"></path><path d="M426,381.470588235294C634,381.470588235294,634,381.47058823529426,842,381.47058823529426" stroke-width="25.294117647058822" style="stroke: rgb(148, 105, 191);"></path><path d="M426,356.17647058823513C634,356.17647058823513,634,63.235294117647115,842,63.235294117647115" stroke-width="25.294117647058822" style="stroke: rgb(148, 105, 191);"></path><path d="M426,197.05882352941174C634,197.05882352941174,634,25.29411764705888,842,25.29411764705888" stroke-width="50.588235294117645" style="stroke: rgb(191, 105, 191);"></path><path d="M426,247.6470588235294C634,247.6470588235294,634,187.05882352941188,842,187.05882352941188" stroke-width="50.588235294117645" style="stroke: rgb(191, 105, 191);"></path><path d="M426,429.4117647058822C634,429.4117647058822,634,101.17647058823535,842,101.17647058823535" stroke-width="50.588235294117645" style="stroke: rgb(191, 105, 148);"></path></g><g class="nodes" font-family="Arial, Helvetica" font-size="10"><g><rect x="842" y="222.35294117647072" height="50.58823529411768" width="5" fill="#000"></rect><text x="836" y="247.64705882352956" dy="0.35em" text-anchor="end">binary file metadata</text></g><g><rect x="842" y="282.9411764705884" height="50.58823529411762" width="5" fill="#000"></rect><text x="836" y="308.2352941176472" dy="0.35em" text-anchor="end">data loss prevention</text></g><g><rect x="842" y="343.529411764706" height="50.58823529411757" width="5" fill="#000"></rect><text x="836" y="368.8235294117648" dy="0.35em" text-anchor="end">malware reverse engineering</text></g><g><rect x="842" y="5.684341886080802e-14" height="126.4705882352942" width="5" fill="#000"></rect><text x="836" y="63.23529411764716" dy="0.35em" text-anchor="end">netflow/enclave netflow</text></g><g><rect x="842" y="404.1176470588236" height="25.294117647058783" width="5" fill="#000"></rect><text x="836" y="416.764705882353" dy="0.35em" text-anchor="end">network intrusion detection system</text></g><g><rect x="842" y="136.47058823529426" height="75.88235294117646" width="5" fill="#000"></rect><text x="836" y="174.4117647058825" dy="0.35em" text-anchor="end">network protocol analysis</text></g><g><rect x="842" y="439.4117647058824" height="25.294117647058783" width="5" fill="#000"></rect><text x="836" y="452.05882352941177" dy="0.35em" text-anchor="end">ssl/tls inspection</text></g><g><rect x="842" y="474.70588235294116" height="25.294117647058783" width="5" fill="#000"></rect><text x="836" y="487.35294117647055" dy="0.35em" text-anchor="end">windows event logs</text></g><g><rect x="0" y="197.05882352941197" height="151.7647058823526" width="5" fill="#000"></rect><text x="11" y="272.9411764705883" dy="0.35em" text-anchor="start">Antivirus/Antimalware</text></g><g><rect x="0" y="429.4117647058823" height="25.29411764705881" width="5" fill="#000"></rect><text x="11" y="442.0588235294117" dy="0.35em" text-anchor="start">Encrypt Sensitive Information</text></g><g><rect x="0" y="10.000000000000114" height="177.05882352941185" width="5" fill="#000"></rect><text x="11" y="98.52941176470604" dy="0.35em" text-anchor="start">Network Intrusion Prevention</text></g><g><rect x="0" y="464.7058823529411" height="25.294117647058783" width="5" fill="#000"></rect><text x="11" y="477.3529411764705" dy="0.35em" text-anchor="start">Privileged Account Management</text></g><g><rect x="0" y="394.1176470588234" height="25.29411764705887" width="5" fill="#000"></rect><text x="11" y="406.76470588235287" dy="0.35em" text-anchor="start">Remote Data Storage</text></g><g><rect x="0" y="358.8235294117645" height="25.294117647058926" width="5" fill="#000"></rect><text x="11" y="371.470588235294" dy="0.35em" text-anchor="start">User Account Management</text></g><g><rect x="421" y="282.94117647058806" height="50.588235294117666" width="5" fill="#000"></rect><text x="415" y="308.2352941176469" dy="0.35em" text-anchor="end">automated collection</text></g><g><rect x="421" y="464.70588235294076" height="25.294117647059352" width="5" fill="#000"></rect><text x="415" y="477.35294117647044" dy="0.35em" text-anchor="end">data compressed</text></g><g><rect x="421" y="9.999999999999886" height="151.76470588235304" width="5" fill="#000"></rect><text x="415" y="85.8823529411764" dy="0.35em" text-anchor="end">obfuscated files or information</text></g><g><rect x="421" y="171.76470588235293" height="101.17647058823516" width="5" fill="#000"></rect><text x="415" y="222.3529411764705" dy="0.35em" text-anchor="end">remote file copy</text></g><g><rect x="421" y="343.52941176470574" height="50.588235294117624" width="5" fill="#000"></rect><text x="415" y="368.8235294117645" dy="0.35em" text-anchor="end">standard application layer protocol</text></g><g><rect x="421" y="404.11764705882337" height="50.588235294117425" width="5" fill="#000"></rect><text x="415" y="429.4117647058821" dy="0.35em" text-anchor="end">windows management instrumentation</text></g></g></g></svg>