<svg width="847" height="520" xmlns="http://www.w3.org/2000/svg" version="1.1"><g transform="translate(0, 10)"><g class="links" fill="none" stroke-opacity="0.4"><path d="M5,315.4999999999999C213,315.4999999999999,213,476.50000000000006,421,476.50000000000006" stroke-width="47" style="stroke: rgb(191, 105, 105);"></path><path d="M5,268.4999999999999C213,268.4999999999999,213,419.50000000000006,421,419.50000000000006" stroke-width="47" style="stroke: rgb(191, 105, 105);"></path><path d="M5,197.9999999999999C213,197.9999999999999,213,339,421,339" stroke-width="94" style="stroke: rgb(191, 105, 105);"></path><path d="M5,80.49999999999989C213,80.49999999999989,213,70.50000000000009,421,70.50000000000009" stroke-width="141" style="stroke: rgb(191, 105, 105);"></path><path d="M5,419.49999999999994C213,419.49999999999994,213,211.50000000000009,421,211.50000000000009" stroke-width="141" style="stroke: rgb(191, 191, 105);"></path><path d="M426,488.25000000000006C634,488.25000000000006,634,488.2500000000001,842,488.2500000000001" stroke-width="23.5" style="stroke: rgb(105, 191, 105);"></path><path d="M426,464.75000000000006C634,464.75000000000006,634,176.24999999999991,842,176.24999999999991" stroke-width="23.5" style="stroke: rgb(105, 191, 105);"></path><path d="M426,431.25000000000006C634,431.25000000000006,634,464.7500000000001,842,464.7500000000001" stroke-width="23.5" style="stroke: rgb(105, 191, 191);"></path><path d="M426,407.75000000000006C634,407.75000000000006,634,152.74999999999991,842,152.74999999999991" stroke-width="23.5" style="stroke: rgb(105, 191, 191);"></path><path d="M426,315.5C634,315.5,634,117.49999999999991,842,117.49999999999991" stroke-width="47" style="stroke: rgb(105, 105, 191);"></path><path d="M426,362.5C634,362.5,634,315.4999999999999,842,315.4999999999999" stroke-width="47" style="stroke: rgb(105, 105, 191);"></path><path d="M426,47.000000000000085C634,47.000000000000085,634,46.999999999999915,842,46.999999999999915" stroke-width="94" style="stroke: rgb(191, 105, 191);"></path><path d="M426,141.00000000000009C634,141.00000000000009,634,244.99999999999986,842,244.99999999999986" stroke-width="94" style="stroke: rgb(191, 105, 191);"></path><path d="M426,235.00000000000009C634,235.00000000000009,634,396.0000000000001,842,396.0000000000001" stroke-width="94" style="stroke: rgb(191, 105, 191);"></path></g><g class="nodes" font-family="Arial, Helvetica" font-size="10"><g><rect x="842" y="453.0000000000001" height="47" width="5" fill="#000"></rect><text x="836" y="476.5000000000001" dy="0.35em" text-anchor="end">malware reverse engineering</text></g><g><rect x="842" y="-8.526512829121202e-14" height="187.99999999999994" width="5" fill="#000"></rect><text x="836" y="93.99999999999989" dy="0.35em" text-anchor="end">netflow/enclave netflow</text></g><g><rect x="842" y="197.99999999999986" height="141.00000000000023" width="5" fill="#000"></rect><text x="836" y="268.5" dy="0.35em" text-anchor="end">network protocol analysis</text></g><g><rect x="842" y="349.0000000000001" height="94" width="5" fill="#000"></rect><text x="836" y="396.0000000000001" dy="0.35em" text-anchor="end">ssl/tls inspection</text></g><g><rect x="0" y="9.999999999999886" height="329.00000000000006" width="5" fill="#000"></rect><text x="11" y="174.49999999999991" dy="0.35em" text-anchor="start">Network Intrusion Prevention</text></g><g><rect x="0" y="348.99999999999994" height="141.00000000000017" width="5" fill="#000"></rect><text x="11" y="419.5" dy="0.35em" text-anchor="start">Restrict Web-Based Content</text></g><g><rect x="421" y="453.00000000000006" height="46.999999999999886" width="5" fill="#000"></rect><text x="415" y="476.5" dy="0.35em" text-anchor="end">fallback channels</text></g><g><rect x="421" y="292" height="94.00000000000006" width="5" fill="#000"></rect><text x="415" y="339" dy="0.35em" text-anchor="end">remote file copy</text></g><g><rect x="421" y="396.00000000000006" height="47" width="5" fill="#000"></rect><text x="415" y="419.50000000000006" dy="0.35em" text-anchor="end">standard application layer protocol</text></g><g><rect x="421" y="8.526512829121202e-14" height="281.9999999999999" width="5" fill="#000"></rect><text x="415" y="141.00000000000003" dy="0.35em" text-anchor="end">web service</text></g></g></g></svg>