<svg width="847" height="520" xmlns="http://www.w3.org/2000/svg" version="1.1"><g transform="translate(0, 10)"><g class="links" fill="none" stroke-opacity="0.4"><path d="M5,198.1818181818182C213,198.1818181818182,213,203.1818181818183,421,203.1818181818183" stroke-width="125.45454545454547" style="stroke: rgb(191, 105, 105);"></path><path d="M5,333.63636363636374C213,333.63636363636374,213,328.63636363636374,421,328.63636363636374" stroke-width="125.45454545454547" style="stroke: rgb(191, 179, 105);"></path><path d="M5,427.2727272727275C213,427.2727272727275,213,422.2727272727272,421,422.2727272727272" stroke-width="41.81818181818182" style="stroke: rgb(130, 191, 105);"></path><path d="M5,479.0909090909093C213,479.0909090909093,213,464.090909090909,421,464.090909090909" stroke-width="41.81818181818182" style="stroke: rgb(105, 191, 154);"></path><path d="M5,62.72727272727259C213,62.72727272727259,213,77.72727272727282,421,77.72727272727282" stroke-width="125.45454545454547" style="stroke: rgb(105, 154, 191);"></path><path d="M426,203.18181818181827C634,203.18181818181827,634,203.1818181818182,842,203.1818181818182" stroke-width="376.3636363636364" style="stroke: rgb(130, 105, 191);"></path><path d="M426,443.1818181818181C634,443.1818181818181,634,443.1818181818182,842,443.1818181818182" stroke-width="83.63636363636364" style="stroke: rgb(191, 105, 179);"></path></g><g class="nodes" font-family="Arial, Helvetica" font-size="10"><g><rect x="842" y="15" height="376.3636363636364" width="5" fill="#000"></rect><text x="836" y="203.1818181818182" dy="0.35em" text-anchor="end">dll monitoring</text></g><g><rect x="842" y="401.3636363636364" height="83.63636363636363" width="5" fill="#000"></rect><text x="836" y="443.1818181818182" dy="0.35em" text-anchor="end">netflow/enclave netflow</text></g><g><rect x="0" y="135.45454545454547" height="125.45454545454555" width="5" fill="#000"></rect><text x="11" y="198.18181818181824" dy="0.35em" text-anchor="start">Audit</text></g><g><rect x="0" y="270.909090909091" height="125.45454545454555" width="5" fill="#000"></rect><text x="11" y="333.63636363636374" dy="0.35em" text-anchor="start">Execution Prevention</text></g><g><rect x="0" y="406.36363636363654" height="41.81818181818181" width="5" fill="#000"></rect><text x="11" y="427.2727272727275" dy="0.35em" text-anchor="start">Network Intrusion Prevention</text></g><g><rect x="0" y="458.18181818181836" height="41.818181818181756" width="5" fill="#000"></rect><text x="11" y="479.09090909090924" dy="0.35em" text-anchor="start">Network Segmentation</text></g><g><rect x="0" y="-1.4210854715202004e-13" height="125.45454545454561" width="5" fill="#000"></rect><text x="11" y="62.72727272727266" dy="0.35em" text-anchor="start">Restrict Library Loading</text></g><g><rect x="421" y="401.36363636363626" height="83.63636363636363" width="5" fill="#000"></rect><text x="415" y="443.1818181818181" dy="0.35em" text-anchor="end">commonly used port</text></g><g><rect x="421" y="15.000000000000085" height="376.3636363636362" width="5" fill="#000"></rect><text x="415" y="203.1818181818182" dy="0.35em" text-anchor="end">dll search order hijacking</text></g></g></g></svg>