<svg width="847" height="520" xmlns="http://www.w3.org/2000/svg" version="1.1"><g transform="translate(0, 10)"><g class="links" fill="none" stroke-opacity="0.4"><path d="M5,493.43750000000006C213,493.43750000000006,213,356.5624999999998,421,356.5624999999998" stroke-width="13.125" style="stroke: rgb(191, 105, 105);"></path><path d="M5,447.18750000000006C213,447.18750000000006,213,330.3124999999998,421,330.3124999999998" stroke-width="13.125" style="stroke: rgb(191, 135, 105);"></path><path d="M5,302.18750000000006C213,302.18750000000006,213,103.43750000000023,421,103.43750000000023" stroke-width="39.375" style="stroke: rgb(191, 166, 105);"></path><path d="M5,341.56250000000006C213,341.56250000000006,213,231.56250000000026,421,231.56250000000026" stroke-width="39.375" style="stroke: rgb(191, 166, 105);"></path><path d="M5,377.81250000000006C213,377.81250000000006,213,280.9375,421,280.9375" stroke-width="13.125" style="stroke: rgb(186, 191, 105);"></path><path d="M5,104.99999999999994C213,104.99999999999994,213,422.49999999999983,421,422.49999999999983" stroke-width="26.25" style="stroke: rgb(155, 191, 105);"></path><path d="M5,131.24999999999994C213,131.24999999999994,213,458.74999999999983,421,458.74999999999983" stroke-width="26.25" style="stroke: rgb(155, 191, 105);"></path><path d="M5,85.31249999999994C213,85.31249999999994,213,379.6874999999998,421,379.6874999999998" stroke-width="13.125" style="stroke: rgb(155, 191, 105);"></path><path d="M5,19.687499999999943C213,19.687499999999943,213,24.687500000000227,421,24.687500000000227" stroke-width="39.375" style="stroke: rgb(155, 191, 105);"></path><path d="M5,59.06249999999994C213,59.06249999999994,213,152.81250000000026,421,152.81250000000026" stroke-width="39.375" style="stroke: rgb(155, 191, 105);"></path><path d="M5,150.93749999999994C213,150.93749999999994,213,488.4374999999998,421,488.4374999999998" stroke-width="13.125" style="stroke: rgb(155, 191, 105);"></path><path d="M5,265.93749999999994C213,265.93749999999994,213,392.8124999999998,421,392.8124999999998" stroke-width="13.125" style="stroke: rgb(125, 191, 105);"></path><path d="M5,187.18749999999994C213,187.18749999999994,213,64.06250000000023,421,64.06250000000023" stroke-width="39.375" style="stroke: rgb(125, 191, 105);"></path><path d="M5,226.56249999999994C213,226.56249999999994,213,192.18750000000026,421,192.18750000000026" stroke-width="39.375" style="stroke: rgb(125, 191, 105);"></path><path d="M5,252.81249999999994C213,252.81249999999994,213,267.8125,421,267.8125" stroke-width="13.125" style="stroke: rgb(125, 191, 105);"></path><path d="M5,400.93750000000006C213,400.93750000000006,213,294.0625,421,294.0625" stroke-width="13.125" style="stroke: rgb(105, 191, 115);"></path><path d="M5,424.06250000000006C213,424.06250000000006,213,307.1875,421,307.1875" stroke-width="13.125" style="stroke: rgb(105, 191, 145);"></path><path d="M5,470.31250000000006C213,470.31250000000006,213,343.4374999999998,421,343.4374999999998" stroke-width="13.125" style="stroke: rgb(105, 191, 176);"></path><path d="M426,343.4374999999998C634,343.4374999999998,634,429.0624999999998,842,429.0624999999998" stroke-width="39.375" style="stroke: rgb(105, 176, 191);"></path><path d="M426,24.687500000000227C634,24.687500000000227,634,34.68750000000023,842,34.68750000000023" stroke-width="39.375" style="stroke: rgb(105, 145, 191);"></path><path d="M426,103.43750000000023C634,103.43750000000023,634,277.8124999999999,842,277.8124999999999" stroke-width="39.375" style="stroke: rgb(105, 145, 191);"></path><path d="M426,64.06250000000023C634,64.06250000000023,634,175.9375000000001,842,175.9375000000001" stroke-width="39.375" style="stroke: rgb(105, 145, 191);"></path><path d="M426,152.81250000000026C634,152.81250000000026,634,74.06250000000023,842,74.06250000000023" stroke-width="39.375" style="stroke: rgb(105, 115, 191);"></path><path d="M426,231.56250000000026C634,231.56250000000026,634,317.1874999999999,842,317.1874999999999" stroke-width="39.375" style="stroke: rgb(105, 115, 191);"></path><path d="M426,192.18750000000026C634,192.18750000000026,634,215.3125000000001,842,215.3125000000001" stroke-width="39.375" style="stroke: rgb(105, 115, 191);"></path><path d="M426,287.5C634,287.5,634,373.125,842,373.125" stroke-width="52.5" style="stroke: rgb(125, 105, 191);"></path><path d="M426,429.06249999999983C634,429.06249999999983,634,465.3124999999998,842,465.3124999999998" stroke-width="13.125" style="stroke: rgb(155, 105, 191);"></path><path d="M426,415.93749999999983C634,415.93749999999983,634,126.56250000000023,842,126.56250000000023" stroke-width="13.125" style="stroke: rgb(155, 105, 191);"></path><path d="M426,465.31249999999983C634,465.31249999999983,634,478.4374999999998,842,478.4374999999998" stroke-width="13.125" style="stroke: rgb(186, 105, 191);"></path><path d="M426,452.18749999999983C634,452.18749999999983,634,139.68750000000023,842,139.68750000000023" stroke-width="13.125" style="stroke: rgb(186, 105, 191);"></path><path d="M426,386.2499999999998C634,386.2499999999998,634,106.87500000000023,842,106.87500000000023" stroke-width="26.25" style="stroke: rgb(191, 105, 166);"></path><path d="M426,488.4374999999998C634,488.4374999999998,634,241.5625000000001,842,241.5625000000001" stroke-width="13.125" style="stroke: rgb(191, 105, 135);"></path></g><g class="nodes" font-family="Arial, Helvetica" font-size="10"><g><rect x="842" y="409.3749999999998" height="39.37500000000001" width="5" fill="#000"></rect><text x="836" y="429.0624999999998" dy="0.35em" text-anchor="end">binary file metadata</text></g><g><rect x="842" y="458.7499999999998" height="26.25" width="5" fill="#000"></rect><text x="836" y="471.8749999999998" dy="0.35em" text-anchor="end">malware reverse engineering</text></g><g><rect x="842" y="15.000000000000227" height="131.2499999999999" width="5" fill="#000"></rect><text x="836" y="80.62500000000017" dy="0.35em" text-anchor="end">netflow/enclave netflow</text></g><g><rect x="842" y="258.1249999999999" height="78.75000000000011" width="5" fill="#000"></rect><text x="836" y="297.49999999999994" dy="0.35em" text-anchor="end">network intrusion detection system</text></g><g><rect x="842" y="156.2500000000001" height="91.87499999999977" width="5" fill="#000"></rect><text x="836" y="202.1875" dy="0.35em" text-anchor="end">network protocol analysis</text></g><g><rect x="842" y="346.875" height="52.49999999999977" width="5" fill="#000"></rect><text x="836" y="373.1249999999999" dy="0.35em" text-anchor="end">windows event logs</text></g><g><rect x="0" y="486.87500000000006" height="13.124999999999975" width="5" fill="#000"></rect><text x="11" y="493.43750000000006" dy="0.35em" text-anchor="start">Code Signing</text></g><g><rect x="0" y="440.62500000000006" height="13.124999999999996" width="5" fill="#000"></rect><text x="11" y="447.18750000000006" dy="0.35em" text-anchor="start">Execution Prevention</text></g><g><rect x="0" y="282.50000000000006" height="78.75" width="5" fill="#000"></rect><text x="11" y="321.87500000000006" dy="0.35em" text-anchor="start">Filter Network Traffic</text></g><g><rect x="0" y="371.25000000000006" height="13.125" width="5" fill="#000"></rect><text x="11" y="377.81250000000006" dy="0.35em" text-anchor="start">Multi-factor Authentication</text></g><g><rect x="0" y="-5.684341886080802e-14" height="157.5" width="5" fill="#000"></rect><text x="11" y="78.74999999999994" dy="0.35em" text-anchor="start">Network Intrusion Prevention</text></g><g><rect x="0" y="167.49999999999994" height="105.00000000000011" width="5" fill="#000"></rect><text x="11" y="220" dy="0.35em" text-anchor="start">Network Segmentation</text></g><g><rect x="0" y="394.37500000000006" height="13.125" width="5" fill="#000"></rect><text x="11" y="400.93750000000006" dy="0.35em" text-anchor="start">Operating System Configuration</text></g><g><rect x="0" y="417.50000000000006" height="13.125" width="5" fill="#000"></rect><text x="11" y="424.06250000000006" dy="0.35em" text-anchor="start">Privileged Account Management</text></g><g><rect x="0" y="463.75000000000006" height="13.124999999999986" width="5" fill="#000"></rect><text x="11" y="470.31250000000006" dy="0.35em" text-anchor="start">Restrict File and Directory Permissions</text></g><g><rect x="421" y="373.1249999999998" height="26.250000000000057" width="5" fill="#000"></rect><text x="415" y="386.2499999999998" dy="0.35em" text-anchor="end">commonly used port</text></g><g><rect x="421" y="261.25" height="52.49999999999977" width="5" fill="#000"></rect><text x="415" y="287.4999999999999" dy="0.35em" text-anchor="end">create account</text></g><g><rect x="421" y="5.000000000000227" height="118.12500000000003" width="5" fill="#000"></rect><text x="415" y="64.06250000000024" dy="0.35em" text-anchor="end">custom command and control protocol</text></g><g><rect x="421" y="481.8749999999998" height="13.125" width="5" fill="#000"></rect><text x="415" y="488.4374999999998" dy="0.35em" text-anchor="end">data encoding</text></g><g><rect x="421" y="409.37499999999983" height="26.249999999999986" width="5" fill="#000"></rect><text x="415" y="422.49999999999983" dy="0.35em" text-anchor="end">fallback channels</text></g><g><rect x="421" y="323.7499999999998" height="39.375000000000014" width="5" fill="#000"></rect><text x="415" y="343.4374999999998" dy="0.35em" text-anchor="end">masquerading</text></g><g><rect x="421" y="445.62499999999983" height="26.249999999999943" width="5" fill="#000"></rect><text x="415" y="458.7499999999998" dy="0.35em" text-anchor="end">standard application layer protocol</text></g><g><rect x="421" y="133.12500000000026" height="118.12499999999977" width="5" fill="#000"></rect><text x="415" y="192.18750000000014" dy="0.35em" text-anchor="end">standard non-application layer protocol</text></g></g></g></svg>