<svg width="847" height="520" xmlns="http://www.w3.org/2000/svg" version="1.1"><g transform="translate(0, 10)"><g class="links" fill="none" stroke-opacity="0.4"><path d="M5,469.1935483870966C213,469.1935483870966,213,360.9677419354841,421,360.9677419354841" stroke-width="13.870967741935484" style="stroke: rgb(191, 105, 105);"></path><path d="M5,421.4516129032256C213,421.4516129032256,213,412.5806451612906,421,412.5806451612906" stroke-width="13.870967741935484" style="stroke: rgb(191, 139, 105);"></path><path d="M5,493.0645161290321C213,493.0645161290321,213,374.8387096774196,421,374.8387096774196" stroke-width="13.870967741935484" style="stroke: rgb(191, 174, 105);"></path><path d="M5,304.3548387096773C213,304.3548387096773,213,109.03225806451613,421,109.03225806451613" stroke-width="41.61290322580645" style="stroke: rgb(174, 191, 105);"></path><path d="M5,345.9677419354838C213,345.9677419354838,213,243.87096774193571,421,243.87096774193571" stroke-width="41.61290322580645" style="stroke: rgb(174, 191, 105);"></path><path d="M5,145.6451612903228C213,145.6451612903228,213,450.32258064516145,421,450.32258064516145" stroke-width="13.870967741935484" style="stroke: rgb(139, 191, 105);"></path><path d="M5,20.80645161290345C213,20.80645161290345,213,25.806451612903224,421,25.806451612903224" stroke-width="41.61290322580645" style="stroke: rgb(139, 191, 105);"></path><path d="M5,110.9677419354841C213,110.9677419354841,213,302.41935483870975,421,302.41935483870975" stroke-width="55.483870967741936" style="stroke: rgb(139, 191, 105);"></path><path d="M5,62.4193548387099C213,62.4193548387099,213,160.6451612903228,421,160.6451612903228" stroke-width="41.61290322580645" style="stroke: rgb(139, 191, 105);"></path><path d="M5,159.51612903225828C213,159.51612903225828,213,488.0645161290324,421,488.0645161290324" stroke-width="13.870967741935484" style="stroke: rgb(139, 191, 105);"></path><path d="M5,266.6129032258067C213,266.6129032258067,213,464.19354838709694,421,464.19354838709694" stroke-width="13.870967741935484" style="stroke: rgb(105, 191, 105);"></path><path d="M5,197.25806451612925C213,197.25806451612925,213,67.41935483870967,421,67.41935483870967" stroke-width="41.61290322580645" style="stroke: rgb(105, 191, 105);"></path><path d="M5,238.87096774193571C213,238.87096774193571,213,202.25806451612925,421,202.25806451612925" stroke-width="41.61290322580645" style="stroke: rgb(105, 191, 105);"></path><path d="M5,445.3225806451611C213,445.3225806451611,213,426.4516129032261,421,426.4516129032261" stroke-width="13.870967741935484" style="stroke: rgb(105, 191, 139);"></path><path d="M5,383.70967741935465C213,383.70967741935465,213,347.09677419354864,421,347.09677419354864" stroke-width="13.870967741935484" style="stroke: rgb(105, 191, 174);"></path><path d="M5,397.58064516129014C213,397.58064516129014,213,398.7096774193551,421,398.7096774193551" stroke-width="13.870967741935484" style="stroke: rgb(105, 191, 174);"></path><path d="M426,360.9677419354841C634,360.9677419354841,634,464.19354838709694,842,464.19354838709694" stroke-width="41.61290322580645" style="stroke: rgb(105, 174, 191);"></path><path d="M426,412.5806451612906C634,412.5806451612906,634,412.5806451612904,842,412.5806451612904" stroke-width="41.61290322580645" style="stroke: rgb(105, 139, 191);"></path><path d="M426,25.806451612903224C634,25.806451612903224,634,35.80645161290308,842,35.80645161290308" stroke-width="41.61290322580645" style="stroke: rgb(105, 105, 191);"></path><path d="M426,109.03225806451613C634,109.03225806451613,634,319.3548387096775,842,319.3548387096775" stroke-width="41.61290322580645" style="stroke: rgb(105, 105, 191);"></path><path d="M426,67.41935483870967C634,67.41935483870967,634,184.51612903225796,842,184.51612903225796" stroke-width="41.61290322580645" style="stroke: rgb(105, 105, 191);"></path><path d="M426,160.6451612903228C634,160.6451612903228,634,77.41935483870952,842,77.41935483870952" stroke-width="41.61290322580645" style="stroke: rgb(139, 105, 191);"></path><path d="M426,243.87096774193571C634,243.87096774193571,634,360.96774193548396,842,360.96774193548396" stroke-width="41.61290322580645" style="stroke: rgb(139, 105, 191);"></path><path d="M426,202.25806451612925C634,202.25806451612925,634,226.1290322580644,842,226.1290322580644" stroke-width="41.61290322580645" style="stroke: rgb(139, 105, 191);"></path><path d="M426,457.2580645161292C634,457.2580645161292,634,139.83870967741922,842,139.83870967741922" stroke-width="27.741935483870968" style="stroke: rgb(174, 105, 191);"></path><path d="M426,288.54838709677426C634,288.54838709677426,634,112.09677419354824,842,112.09677419354824" stroke-width="27.741935483870968" style="stroke: rgb(191, 105, 174);"></path><path d="M426,316.29032258064524C634,316.29032258064524,634,260.8064516129031,842,260.8064516129031" stroke-width="27.741935483870968" style="stroke: rgb(191, 105, 174);"></path><path d="M426,488.0645161290324C634,488.0645161290324,634,281.61290322580635,842,281.61290322580635" stroke-width="13.870967741935484" style="stroke: rgb(191, 105, 139);"></path></g><g class="nodes" font-family="Arial, Helvetica" font-size="10"><g><rect x="842" y="443.3870967741937" height="41.61290322580649" width="5" fill="#000"></rect><text x="836" y="464.19354838709694" dy="0.35em" text-anchor="end">binary file metadata</text></g><g><rect x="842" y="14.999999999999858" height="138.70967741935488" width="5" fill="#000"></rect><text x="836" y="84.3548387096773" dy="0.35em" text-anchor="end">netflow/enclave netflow</text></g><g><rect x="842" y="298.54838709677426" height="83.22580645161293" width="5" fill="#000"></rect><text x="836" y="340.1612903225807" dy="0.35em" text-anchor="end">network intrusion detection system</text></g><g><rect x="842" y="163.70967741935473" height="124.8387096774195" width="5" fill="#000"></rect><text x="836" y="226.12903225806448" dy="0.35em" text-anchor="end">network protocol analysis</text></g><g><rect x="842" y="391.7741935483872" height="41.61290322580652" width="5" fill="#000"></rect><text x="836" y="412.5806451612905" dy="0.35em" text-anchor="end">windows event logs</text></g><g><rect x="0" y="462.25806451612885" height="13.87096774193548" width="5" fill="#000"></rect><text x="11" y="469.1935483870966" dy="0.35em" text-anchor="start">Code Signing</text></g><g><rect x="0" y="414.5161290322579" height="13.870967741935488" width="5" fill="#000"></rect><text x="11" y="421.4516129032256" dy="0.35em" text-anchor="start">Encrypt Sensitive Information</text></g><g><rect x="0" y="486.12903225806434" height="13.870967741935473" width="5" fill="#000"></rect><text x="11" y="493.0645161290321" dy="0.35em" text-anchor="start">Execution Prevention</text></g><g><rect x="0" y="283.5483870967741" height="83.22580645161281" width="5" fill="#000"></rect><text x="11" y="325.1612903225805" dy="0.35em" text-anchor="start">Filter Network Traffic</text></g><g><rect x="0" y="2.2737367544323206e-13" height="166.4516129032258" width="5" fill="#000"></rect><text x="11" y="83.22580645161312" dy="0.35em" text-anchor="start">Network Intrusion Prevention</text></g><g><rect x="0" y="176.45161290322602" height="97.09677419354807" width="5" fill="#000"></rect><text x="11" y="225.00000000000006" dy="0.35em" text-anchor="start">Network Segmentation</text></g><g><rect x="0" y="438.38709677419337" height="13.870967741935488" width="5" fill="#000"></rect><text x="11" y="445.3225806451611" dy="0.35em" text-anchor="start">Remote Data Storage</text></g><g><rect x="0" y="376.7741935483869" height="27.741935483870975" width="5" fill="#000"></rect><text x="11" y="390.6451612903224" dy="0.35em" text-anchor="start">Restrict File and Directory Permissions</text></g><g><rect x="421" y="443.3870967741937" height="27.741935483870975" width="5" fill="#000"></rect><text x="415" y="457.2580645161292" dy="0.35em" text-anchor="end">commonly used port</text></g><g><rect x="421" y="5" height="124.83870967741956" width="5" fill="#000"></rect><text x="415" y="67.41935483870978" dy="0.35em" text-anchor="end">custom command and control protocol</text></g><g><rect x="421" y="481.1290322580647" height="13.870967741935317" width="5" fill="#000"></rect><text x="415" y="488.0645161290323" dy="0.35em" text-anchor="end">data encoding</text></g><g><rect x="421" y="391.77419354838736" height="41.61290322580635" width="5" fill="#000"></rect><text x="415" y="412.58064516129053" dy="0.35em" text-anchor="end">indicator removal on host</text></g><g><rect x="421" y="340.1612903225809" height="41.61290322580646" width="5" fill="#000"></rect><text x="415" y="360.9677419354841" dy="0.35em" text-anchor="end">masquerading</text></g><g><rect x="421" y="274.6774193548388" height="55.48387096774211" width="5" fill="#000"></rect><text x="415" y="302.4193548387098" dy="0.35em" text-anchor="end">remote file copy</text></g><g><rect x="421" y="139.83870967741956" height="124.83870967741922" width="5" fill="#000"></rect><text x="415" y="202.25806451612917" dy="0.35em" text-anchor="end">standard non-application layer protocol</text></g></g></g></svg>