<svg width="847" height="520" xmlns="http://www.w3.org/2000/svg" version="1.1"><g transform="translate(0, 10)"><g class="links" fill="none" stroke-opacity="0.4"><path d="M5,367.49999999999983C213,367.49999999999983,213,377.49999999999983,421,377.49999999999983" stroke-width="81.66666666666667" style="stroke: rgb(191, 105, 105);"></path><path d="M5,163.33333333333317C213,163.33333333333317,213,163.33333333333337,421,163.33333333333337" stroke-width="326.6666666666667" style="stroke: rgb(191, 105, 105);"></path><path d="M5,459.1666666666665C213,459.1666666666665,213,459.1666666666665,421,459.1666666666665" stroke-width="81.66666666666667" style="stroke: rgb(148, 191, 105);"></path><path d="M426,418.3333333333332C634,418.3333333333332,634,245.00000000000006,842,245.00000000000006" stroke-width="163.33333333333334" style="stroke: rgb(105, 191, 191);"></path><path d="M426,81.6666666666667C634,81.6666666666667,634,81.6666666666667,842,81.6666666666667" stroke-width="163.33333333333334" style="stroke: rgb(148, 105, 191);"></path><path d="M426,245.00000000000006C634,245.00000000000006,634,418.3333333333333,842,418.3333333333333" stroke-width="163.33333333333334" style="stroke: rgb(148, 105, 191);"></path></g><g class="nodes" font-family="Arial, Helvetica" font-size="10"><g><rect x="842" y="2.842170943040401e-14" height="326.6666666666666" width="5" fill="#000"></rect><text x="836" y="163.33333333333331" dy="0.35em" text-anchor="end">netflow/enclave netflow</text></g><g><rect x="842" y="336.66666666666663" height="163.33333333333337" width="5" fill="#000"></rect><text x="836" y="418.3333333333333" dy="0.35em" text-anchor="end">network protocol analysis</text></g><g><rect x="0" y="-1.7053025658242404e-13" height="408.33333333333337" width="5" fill="#000"></rect><text x="11" y="204.16666666666652" dy="0.35em" text-anchor="start">Network Intrusion Prevention</text></g><g><rect x="0" y="418.3333333333332" height="81.66666666666697" width="5" fill="#000"></rect><text x="11" y="459.1666666666667" dy="0.35em" text-anchor="start">Network Segmentation</text></g><g><rect x="421" y="336.6666666666665" height="163.33333333333348" width="5" fill="#000"></rect><text x="415" y="418.33333333333326" dy="0.35em" text-anchor="end">commonly used port</text></g><g><rect x="421" y="2.842170943040401e-14" height="326.66666666666646" width="5" fill="#000"></rect><text x="415" y="163.33333333333326" dy="0.35em" text-anchor="end">remote file copy</text></g></g></g></svg>