<svg width="847" height="520" xmlns="http://www.w3.org/2000/svg" version="1.1"><g transform="translate(0, 10)"><g class="links" fill="none" stroke-opacity="0.4"><path d="M5,63.74999999999997C213,63.74999999999997,213,63.749999999999915,421,63.749999999999915" stroke-width="117.5" style="stroke: rgb(191, 105, 105);"></path><path d="M5,200.83333333333331C213,200.83333333333331,213,328.3333333333336,421,328.3333333333336" stroke-width="156.66666666666666" style="stroke: rgb(191, 105, 105);"></path><path d="M5,298.74999999999994C213,298.74999999999994,213,436.2500000000002,421,436.2500000000002" stroke-width="39.166666666666664" style="stroke: rgb(191, 105, 105);"></path><path d="M5,475.4166666666667C213,475.4166666666667,213,475.4166666666669,421,475.4166666666669" stroke-width="39.166666666666664" style="stroke: rgb(191, 191, 105);"></path><path d="M5,387.08333333333337C213,387.08333333333337,213,181.24999999999991,421,181.24999999999991" stroke-width="117.5" style="stroke: rgb(105, 191, 105);"></path><path d="M426,122.49999999999991C634,122.49999999999991,634,284.1666666666667,842,284.1666666666667" stroke-width="78.33333333333333" style="stroke: rgb(105, 191, 191);"></path><path d="M426,44.16666666666658C634,44.16666666666658,634,39.166666666666636,842,39.166666666666636" stroke-width="78.33333333333333" style="stroke: rgb(105, 191, 191);"></path><path d="M426,200.83333333333323C634,200.83333333333323,634,460.8333333333335,842,460.8333333333335" stroke-width="78.33333333333333" style="stroke: rgb(105, 191, 191);"></path><path d="M426,289.16666666666697C634,289.16666666666697,634,117.49999999999997,842,117.49999999999997" stroke-width="78.33333333333333" style="stroke: rgb(105, 105, 191);"></path><path d="M426,367.5000000000003C634,367.5000000000003,634,372.50000000000017,842,372.50000000000017" stroke-width="78.33333333333333" style="stroke: rgb(105, 105, 191);"></path><path d="M426,455.8333333333336C634,455.8333333333336,634,195.8333333333333,842,195.8333333333333" stroke-width="78.33333333333333" style="stroke: rgb(191, 105, 191);"></path></g><g class="nodes" font-family="Arial, Helvetica" font-size="10"><g><rect x="842" y="245.00000000000003" height="78.33333333333348" width="5" fill="#000"></rect><text x="836" y="284.16666666666674" dy="0.35em" text-anchor="end">malware reverse engineering</text></g><g><rect x="842" y="-2.842170943040401e-14" height="235.00000000000006" width="5" fill="#000"></rect><text x="836" y="117.5" dy="0.35em" text-anchor="end">netflow/enclave netflow</text></g><g><rect x="842" y="333.3333333333335" height="78.33333333333331" width="5" fill="#000"></rect><text x="836" y="372.5000000000001" dy="0.35em" text-anchor="end">network protocol analysis</text></g><g><rect x="842" y="421.6666666666668" height="78.3333333333332" width="5" fill="#000"></rect><text x="836" y="460.83333333333337" dy="0.35em" text-anchor="end">ssl/tls inspection</text></g><g><rect x="0" y="4.999999999999972" height="313.3333333333334" width="5" fill="#000"></rect><text x="11" y="161.66666666666669" dy="0.35em" text-anchor="start">Network Intrusion Prevention</text></g><g><rect x="0" y="455.83333333333337" height="39.16666666666663" width="5" fill="#000"></rect><text x="11" y="475.4166666666667" dy="0.35em" text-anchor="start">Network Segmentation</text></g><g><rect x="0" y="328.33333333333337" height="117.5" width="5" fill="#000"></rect><text x="11" y="387.08333333333337" dy="0.35em" text-anchor="start">SSL/TLS Inspection</text></g><g><rect x="421" y="250.00000000000028" height="156.66666666666663" width="5" fill="#000"></rect><text x="415" y="328.3333333333336" dy="0.35em" text-anchor="end">remote file copy</text></g><g><rect x="421" y="4.999999999999915" height="235.00000000000037" width="5" fill="#000"></rect><text x="415" y="122.5000000000001" dy="0.35em" text-anchor="end">standard cryptographic protocol</text></g><g><rect x="421" y="416.6666666666669" height="78.3333333333332" width="5" fill="#000"></rect><text x="415" y="455.8333333333335" dy="0.35em" text-anchor="end">uncommonly used port</text></g></g></g></svg>