<svg width="847" height="520" xmlns="http://www.w3.org/2000/svg" version="1.1"><g transform="translate(0, 10)"><g class="links" fill="none" stroke-opacity="0.4"><path d="M5,370.5357142857142C213,370.5357142857142,213,280.17857142857156,421,280.17857142857156" stroke-width="48.21428571428572" style="stroke: rgb(191, 105, 105);"></path><path d="M5,322.32142857142856C213,322.32142857142856,213,125.53571428571388,421,125.53571428571388" stroke-width="48.21428571428572" style="stroke: rgb(191, 105, 105);"></path><path d="M5,125.53571428571425C213,125.53571428571425,213,338.39285714285757,421,338.39285714285757" stroke-width="48.21428571428572" style="stroke: rgb(191, 156, 105);"></path><path d="M5,157.6785714285714C213,157.6785714285714,213,428.7500000000004,421,428.7500000000004" stroke-width="16.071428571428573" style="stroke: rgb(191, 156, 105);"></path><path d="M5,77.32142857142853C213,77.32142857142853,213,183.75000000000006,421,183.75000000000006" stroke-width="48.21428571428572" style="stroke: rgb(191, 156, 105);"></path><path d="M5,29.107142857142804C213,29.107142857142804,213,29.107142857142435,421,29.107142857142435" stroke-width="48.21428571428572" style="stroke: rgb(191, 156, 105);"></path><path d="M5,280.1785714285715C213,280.1785714285715,213,444.82142857142895,421,444.82142857142895" stroke-width="16.071428571428573" style="stroke: rgb(174, 191, 105);"></path><path d="M5,248.03571428571433C213,248.03571428571433,213,231.96428571428578,421,231.96428571428578" stroke-width="48.21428571428572" style="stroke: rgb(174, 191, 105);"></path><path d="M5,199.8214285714286C213,199.8214285714286,213,77.32142857142816,421,77.32142857142816" stroke-width="48.21428571428572" style="stroke: rgb(174, 191, 105);"></path><path d="M5,428.7500000000001C213,428.7500000000001,213,386.60714285714323,421,386.60714285714323" stroke-width="48.21428571428572" style="stroke: rgb(122, 191, 105);"></path><path d="M5,478.92857142857156C213,478.92857142857156,213,478.92857142857184,421,478.92857142857184" stroke-width="32.142857142857146" style="stroke: rgb(105, 191, 139);"></path><path d="M426,183.75000000000006C634,183.75000000000006,634,72.32142857142861,842,72.32142857142861" stroke-width="48.21428571428572" style="stroke: rgb(105, 191, 191);"></path><path d="M426,231.96428571428578C634,231.96428571428578,634,243.03571428571414,842,243.03571428571414" stroke-width="48.21428571428572" style="stroke: rgb(105, 191, 191);"></path><path d="M426,280.17857142857156C634,280.17857142857156,634,349.46428571428567,842,349.46428571428567" stroke-width="48.21428571428572" style="stroke: rgb(105, 191, 191);"></path><path d="M426,29.107142857142435C634,29.107142857142435,634,24.10714285714289,842,24.10714285714289" stroke-width="48.21428571428572" style="stroke: rgb(105, 139, 191);"></path><path d="M426,77.32142857142816C634,77.32142857142816,634,194.8214285714284,842,194.8214285714284" stroke-width="48.21428571428572" style="stroke: rgb(105, 139, 191);"></path><path d="M426,125.53571428571388C634,125.53571428571388,634,301.25,842,301.25" stroke-width="48.21428571428572" style="stroke: rgb(105, 139, 191);"></path><path d="M426,394.64285714285757C634,394.64285714285757,634,441.7857142857143,842,441.7857142857143" stroke-width="32.142857142857146" style="stroke: rgb(122, 105, 191);"></path><path d="M426,330.35714285714323C634,330.35714285714323,634,112.50000000000004,842,112.50000000000004" stroke-width="32.142857142857146" style="stroke: rgb(122, 105, 191);"></path><path d="M426,362.5000000000004C634,362.5000000000004,634,399.6428571428571,842,399.6428571428571" stroke-width="32.142857142857146" style="stroke: rgb(122, 105, 191);"></path><path d="M426,436.7857142857147C634,436.7857142857147,634,144.6428571428572,842,144.6428571428572" stroke-width="32.142857142857146" style="stroke: rgb(174, 105, 191);"></path><path d="M426,478.92857142857184C634,478.92857142857184,634,483.92857142857144,842,483.92857142857144" stroke-width="32.142857142857146" style="stroke: rgb(191, 105, 156);"></path></g><g class="nodes" font-family="Arial, Helvetica" font-size="10"><g><rect x="842" y="425.7142857142857" height="32.14285714285714" width="5" fill="#000"></rect><text x="836" y="441.7857142857143" dy="0.35em" text-anchor="end">malware reverse engineering</text></g><g><rect x="842" y="2.842170943040401e-14" height="160.71428571428552" width="5" fill="#000"></rect><text x="836" y="80.35714285714279" dy="0.35em" text-anchor="end">netflow/enclave netflow</text></g><g><rect x="842" y="170.71428571428555" height="96.42857142857156" width="5" fill="#000"></rect><text x="836" y="218.92857142857133" dy="0.35em" text-anchor="end">network intrusion detection system</text></g><g><rect x="842" y="277.1428571428571" height="96.42857142857144" width="5" fill="#000"></rect><text x="836" y="325.35714285714283" dy="0.35em" text-anchor="end">network protocol analysis</text></g><g><rect x="842" y="383.57142857142856" height="32.14285714285717" width="5" fill="#000"></rect><text x="836" y="399.6428571428571" dy="0.35em" text-anchor="end">ssl/tls inspection</text></g><g><rect x="842" y="467.8571428571429" height="32.14285714285711" width="5" fill="#000"></rect><text x="836" y="483.92857142857144" dy="0.35em" text-anchor="end">windows event logs</text></g><g><rect x="0" y="298.21428571428567" height="96.42857142857156" width="5" fill="#000"></rect><text x="11" y="346.42857142857144" dy="0.35em" text-anchor="start">Filter Network Traffic</text></g><g><rect x="0" y="4.999999999999943" height="160.7142857142858" width="5" fill="#000"></rect><text x="11" y="85.35714285714285" dy="0.35em" text-anchor="start">Network Intrusion Prevention</text></g><g><rect x="0" y="175.71428571428575" height="112.49999999999989" width="5" fill="#000"></rect><text x="11" y="231.9642857142857" dy="0.35em" text-anchor="start">Network Segmentation</text></g><g><rect x="0" y="404.6428571428572" height="48.214285714285765" width="5" fill="#000"></rect><text x="11" y="428.7500000000001" dy="0.35em" text-anchor="start">SSL/TLS Inspection</text></g><g><rect x="0" y="462.857142857143" height="32.14285714285711" width="5" fill="#000"></rect><text x="11" y="478.92857142857156" dy="0.35em" text-anchor="start">User Account Management</text></g><g><rect x="421" y="420.7142857142861" height="32.14285714285717" width="5" fill="#000"></rect><text x="415" y="436.7857142857147" dy="0.35em" text-anchor="end">commonly used port</text></g><g><rect x="421" y="159.6428571428572" height="144.6428571428575" width="5" fill="#000"></rect><text x="415" y="231.96428571428595" dy="0.35em" text-anchor="end">custom command and control protocol</text></g><g><rect x="421" y="462.8571428571433" height="32.14285714285711" width="5" fill="#000"></rect><text x="415" y="478.92857142857184" dy="0.35em" text-anchor="end">new service</text></g><g><rect x="421" y="314.2857142857147" height="96.42857142857142" width="5" fill="#000"></rect><text x="415" y="362.5000000000004" dy="0.35em" text-anchor="end">standard cryptographic protocol</text></g><g><rect x="421" y="4.999999999999574" height="144.64285714285762" width="5" fill="#000"></rect><text x="415" y="77.32142857142838" dy="0.35em" text-anchor="end">standard non-application layer protocol</text></g></g></g></svg>