<svg width="847" height="520" xmlns="http://www.w3.org/2000/svg" version="1.1"><g transform="translate(0, 10)"><g class="links" fill="none" stroke-opacity="0.4"><path d="M5,437.7777777777777C213,437.7777777777777,213,271.111111111111,421,271.111111111111" stroke-width="104.44444444444444" style="stroke: rgb(191, 105, 105);"></path><path d="M5,271.11111111111114C213,271.11111111111114,213,385.55555555555543,421,385.55555555555543" stroke-width="104.44444444444444" style="stroke: rgb(191, 191, 105);"></path><path d="M5,114.4444444444445C213,114.4444444444445,213,104.44444444444458,421,104.44444444444458" stroke-width="208.88888888888889" style="stroke: rgb(191, 191, 105);"></path><path d="M5,349.44444444444446C213,349.44444444444446,213,473.88888888888863,421,473.88888888888863" stroke-width="52.22222222222222" style="stroke: rgb(191, 191, 105);"></path><path d="M426,271.111111111111C634,271.111111111111,634,385.5555555555557,842,385.5555555555557" stroke-width="104.44444444444444" style="stroke: rgb(105, 191, 105);"></path><path d="M426,411.6666666666665C634,411.6666666666665,634,473.888888888889,842,473.888888888889" stroke-width="52.22222222222222" style="stroke: rgb(105, 191, 191);"></path><path d="M426,359.4444444444443C634,359.4444444444443,634,297.2222222222222,842,297.2222222222222" stroke-width="52.22222222222222" style="stroke: rgb(105, 191, 191);"></path><path d="M426,156.6666666666668C634,156.6666666666668,634,218.88888888888889,842,218.88888888888889" stroke-width="104.44444444444444" style="stroke: rgb(105, 105, 191);"></path><path d="M426,52.22222222222236C634,52.22222222222236,634,52.22222222222202,842,52.22222222222202" stroke-width="104.44444444444444" style="stroke: rgb(105, 105, 191);"></path><path d="M426,473.88888888888863C634,473.88888888888863,634,130.55555555555534,842,130.55555555555534" stroke-width="52.22222222222222" style="stroke: rgb(191, 105, 191);"></path></g><g class="nodes" font-family="Arial, Helvetica" font-size="10"><g><rect x="842" y="333.3333333333335" height="104.44444444444444" width="5" fill="#000"></rect><text x="836" y="385.5555555555557" dy="0.35em" text-anchor="end">loaded dlls</text></g><g><rect x="842" y="447.77777777777794" height="52.222222222222285" width="5" fill="#000"></rect><text x="836" y="473.8888888888891" dy="0.35em" text-anchor="end">malware reverse engineering</text></g><g><rect x="842" y="166.66666666666666" height="156.6666666666668" width="5" fill="#000"></rect><text x="836" y="245.00000000000006" dy="0.35em" text-anchor="end">netflow/enclave netflow</text></g><g><rect x="842" y="-1.9895196601282805e-13" height="156.66666666666686" width="5" fill="#000"></rect><text x="836" y="78.33333333333323" dy="0.35em" text-anchor="end">network protocol analysis</text></g><g><rect x="0" y="385.5555555555555" height="104.44444444444444" width="5" fill="#000"></rect><text x="11" y="437.7777777777777" dy="0.35em" text-anchor="start">Exploit Protection</text></g><g><rect x="0" y="10.000000000000057" height="365.55555555555543" width="5" fill="#000"></rect><text x="11" y="192.77777777777777" dy="0.35em" text-anchor="start">Network Intrusion Prevention</text></g><g><rect x="421" y="447.77777777777754" height="52.222222222222285" width="5" fill="#000"></rect><text x="415" y="473.8888888888887" dy="0.35em" text-anchor="end">data encoding</text></g><g><rect x="421" y="218.88888888888877" height="104.44444444444444" width="5" fill="#000"></rect><text x="415" y="271.111111111111" dy="0.35em" text-anchor="end">regsvr32</text></g><g><rect x="421" y="1.4210854715202004e-13" height="208.88888888888863" width="5" fill="#000"></rect><text x="415" y="104.44444444444446" dy="0.35em" text-anchor="end">remote file copy</text></g><g><rect x="421" y="333.3333333333332" height="104.44444444444434" width="5" fill="#000"></rect><text x="415" y="385.5555555555554" dy="0.35em" text-anchor="end">standard application layer protocol</text></g></g></g></svg>