<svg width="847" height="520" xmlns="http://www.w3.org/2000/svg" version="1.1"><g transform="translate(0, 10)"><g class="links" fill="none" stroke-opacity="0.4"><path d="M5,179.3478260869565C213,179.3478260869565,213,184.34782608695662,421,184.34782608695662" stroke-width="109.56521739130434" style="stroke: rgb(191, 105, 105);"></path><path d="M5,373.6956521739131C213,373.6956521739131,213,64.78260869565217,421,64.78260869565217" stroke-width="36.52173913043478" style="stroke: rgb(191, 139, 105);"></path><path d="M5,420.21739130434787C213,420.21739130434787,213,101.30434782608695,421,101.30434782608695" stroke-width="36.52173913043478" style="stroke: rgb(191, 174, 105);"></path><path d="M5,327.17391304347825C213,327.17391304347825,213,350.4347826086955,421,350.4347826086955" stroke-width="36.52173913043478" style="stroke: rgb(174, 191, 105);"></path><path d="M5,96.30434782608684C213,96.30434782608684,213,443.47826086956513,421,443.47826086956513" stroke-width="36.52173913043478" style="stroke: rgb(139, 191, 105);"></path><path d="M5,41.52173913043467C213,41.52173913043467,213,285.6521739130434,421,285.6521739130434" stroke-width="73.04347826086956" style="stroke: rgb(139, 191, 105);"></path><path d="M5,262.39130434782606C213,262.39130434782606,213,28.26086956521739,421,28.26086956521739" stroke-width="36.52173913043478" style="stroke: rgb(105, 191, 105);"></path><path d="M5,289.7826086956522C213,289.7826086956522,213,387.8260869565217,421,387.8260869565217" stroke-width="18.26086956521739" style="stroke: rgb(105, 191, 105);"></path><path d="M5,485.86956521739137C213,485.86956521739137,213,480.86956521739114,421,480.86956521739114" stroke-width="18.26086956521739" style="stroke: rgb(105, 191, 139);"></path><path d="M5,457.60869565217394C213,457.60869565217394,213,406.08695652173907,421,406.08695652173907" stroke-width="18.26086956521739" style="stroke: rgb(105, 191, 174);"></path><path d="M426,138.69565217391312C634,138.69565217391312,634,110.43478260869583,842,110.43478260869583" stroke-width="18.26086956521739" style="stroke: rgb(105, 174, 191);"></path><path d="M426,193.47826086956525C634,193.47826086956525,634,416.08695652173924,842,416.08695652173924" stroke-width="18.26086956521739" style="stroke: rgb(105, 174, 191);"></path><path d="M426,211.73913043478262C634,211.73913043478262,634,462.608695652174,842,462.608695652174" stroke-width="18.26086956521739" style="stroke: rgb(105, 174, 191);"></path><path d="M426,156.9565217391305C634,156.9565217391305,634,304.7826086956523,842,304.7826086956523" stroke-width="18.26086956521739" style="stroke: rgb(105, 174, 191);"></path><path d="M426,230C634,230,634,490.86956521739137,842,490.86956521739137" stroke-width="18.26086956521739" style="stroke: rgb(105, 174, 191);"></path><path d="M426,175.21739130434787C634,175.21739130434787,634,369.5652173913044,842,369.5652173913044" stroke-width="18.26086956521739" style="stroke: rgb(105, 174, 191);"></path><path d="M426,92.17391304347825C634,92.17391304347825,634,258.26086956521755,842,258.26086956521755" stroke-width="54.78260869565217" style="stroke: rgb(105, 139, 191);"></path><path d="M426,37.391304347826086C634,37.391304347826086,634,193.47826086956542,842,193.47826086956542" stroke-width="54.78260869565217" style="stroke: rgb(105, 139, 191);"></path><path d="M426,350.4347826086955C634,350.4347826086955,634,137.82608695652192,842,137.82608695652192" stroke-width="36.52173913043478" style="stroke: rgb(105, 105, 191);"></path><path d="M426,452.6086956521738C634,452.6086956521738,634,434.3478260869566,842,434.3478260869566" stroke-width="18.26086956521739" style="stroke: rgb(139, 105, 191);"></path><path d="M426,434.34782608695645C634,434.34782608695645,634,82.17391304347822,842,82.17391304347822" stroke-width="18.26086956521739" style="stroke: rgb(139, 105, 191);"></path><path d="M426,267.391304347826C634,267.391304347826,634,18.260869565217362,842,18.260869565217362" stroke-width="36.52173913043478" style="stroke: rgb(174, 105, 191);"></path><path d="M426,303.91304347826076C634,303.91304347826076,634,332.17391304347836,842,332.17391304347836" stroke-width="36.52173913043478" style="stroke: rgb(174, 105, 191);"></path><path d="M426,396.9565217391304C634,396.9565217391304,634,54.782608695652144,842,54.782608695652144" stroke-width="36.52173913043478" style="stroke: rgb(191, 105, 174);"></path><path d="M426,480.86956521739114C634,480.86956521739114,634,387.82608695652175,842,387.82608695652175" stroke-width="18.26086956521739" style="stroke: rgb(191, 105, 139);"></path></g><g class="nodes" font-family="Arial, Helvetica" font-size="10"><g><rect x="842" y="101.30434782608714" height="54.782608695652186" width="5" fill="#000"></rect><text x="836" y="128.69565217391323" dy="0.35em" text-anchor="end">binary file metadata</text></g><g><rect x="842" y="230.86956521739148" height="54.782608695652144" width="5" fill="#000"></rect><text x="836" y="258.26086956521755" dy="0.35em" text-anchor="end">dll monitoring</text></g><g><rect x="842" y="166.08695652173932" height="54.78260869565216" width="5" fill="#000"></rect><text x="836" y="193.47826086956542" dy="0.35em" text-anchor="end">loaded dlls</text></g><g><rect x="842" y="406.95652173913055" height="36.52173913043475" width="5" fill="#000"></rect><text x="836" y="425.2173913043479" dy="0.35em" text-anchor="end">malware reverse engineering</text></g><g><rect x="842" y="-2.842170943040401e-14" height="91.30434782608717" width="5" fill="#000"></rect><text x="836" y="45.652173913043555" dy="0.35em" text-anchor="end">netflow/enclave netflow</text></g><g><rect x="842" y="453.4782608695653" height="18.260869565217376" width="5" fill="#000"></rect><text x="836" y="462.608695652174" dy="0.35em" text-anchor="end">network intrusion detection system</text></g><g><rect x="842" y="295.6521739130436" height="54.78260869565207" width="5" fill="#000"></rect><text x="836" y="323.0434782608696" dy="0.35em" text-anchor="end">network protocol analysis</text></g><g><rect x="842" y="481.7391304347827" height="18.260869565217376" width="5" fill="#000"></rect><text x="836" y="490.86956521739137" dy="0.35em" text-anchor="end">ssl/tls inspection</text></g><g><rect x="842" y="360.4347826086957" height="36.52173913043487" width="5" fill="#000"></rect><text x="836" y="378.6956521739131" dy="0.35em" text-anchor="end">windows event logs</text></g><g><rect x="0" y="124.56521739130432" height="109.56521739130437" width="5" fill="#000"></rect><text x="11" y="179.3478260869565" dy="0.35em" text-anchor="start">Antivirus/Antimalware</text></g><g><rect x="0" y="355.43478260869574" height="36.52173913043478" width="5" fill="#000"></rect><text x="11" y="373.6956521739131" dy="0.35em" text-anchor="start">Code Signing</text></g><g><rect x="0" y="401.9565217391305" height="36.52173913043478" width="5" fill="#000"></rect><text x="11" y="420.21739130434787" dy="0.35em" text-anchor="start">Disable or Remove Feature or Program</text></g><g><rect x="0" y="308.9130434782609" height="36.52173913043487" width="5" fill="#000"></rect><text x="11" y="327.1739130434783" dy="0.35em" text-anchor="start">Exploit Protection</text></g><g><rect x="0" y="4.999999999999886" height="109.56521739130443" width="5" fill="#000"></rect><text x="11" y="59.7826086956521" dy="0.35em" text-anchor="start">Network Intrusion Prevention</text></g><g><rect x="0" y="244.1304347826087" height="54.78260869565217" width="5" fill="#000"></rect><text x="11" y="271.52173913043475" dy="0.35em" text-anchor="start">Privileged Account Management</text></g><g><rect x="0" y="476.7391304347827" height="18.260869565217376" width="5" fill="#000"></rect><text x="11" y="485.86956521739137" dy="0.35em" text-anchor="start">Restrict Registry Permissions</text></g><g><rect x="0" y="448.47826086956525" height="18.260869565217433" width="5" fill="#000"></rect><text x="11" y="457.608695652174" dy="0.35em" text-anchor="start">User Account Management</text></g><g><rect x="421" y="425.21739130434776" height="36.521739130434696" width="5" fill="#000"></rect><text x="415" y="443.47826086956513" dy="0.35em" text-anchor="end">custom cryptographic protocol</text></g><g><rect x="421" y="471.73913043478245" height="18.260869565217547" width="5" fill="#000"></rect><text x="415" y="480.86956521739125" dy="0.35em" text-anchor="end">modify registry</text></g><g><rect x="421" y="129.56521739130443" height="109.5652173913042" width="5" fill="#000"></rect><text x="415" y="184.34782608695653" dy="0.35em" text-anchor="end">obfuscated files or information</text></g><g><rect x="421" y="10" height="109.56521739130442" width="5" fill="#000"></rect><text x="415" y="64.78260869565221" dy="0.35em" text-anchor="end">powershell</text></g><g><rect x="421" y="249.13043478260863" height="73.04347826086948" width="5" fill="#000"></rect><text x="415" y="285.6521739130434" dy="0.35em" text-anchor="end">remote file copy</text></g><g><rect x="421" y="332.17391304347814" height="36.52173913043487" width="5" fill="#000"></rect><text x="415" y="350.43478260869557" dy="0.35em" text-anchor="end">rundll32</text></g><g><rect x="421" y="378.695652173913" height="36.52173913043475" width="5" fill="#000"></rect><text x="415" y="396.9565217391304" dy="0.35em" text-anchor="end">windows management instrumentation</text></g></g></g></svg>