<svg width="847" height="520" xmlns="http://www.w3.org/2000/svg" version="1.1"><g transform="translate(0, 10)"><g class="links" fill="none" stroke-opacity="0.4"><path d="M5,203.33333333333346C213,203.33333333333346,213,208.3333333333332,421,208.3333333333332" stroke-width="73.33333333333333" style="stroke: rgb(191, 105, 105);"></path><path d="M5,357.77777777777777C213,357.77777777777777,213,352.77777777777777,421,352.77777777777777" stroke-width="48.888888888888886" style="stroke: rgb(191, 162, 105);"></path><path d="M5,416.6666666666667C213,416.6666666666667,213,401.66666666666663,421,401.66666666666663" stroke-width="48.888888888888886" style="stroke: rgb(162, 191, 105);"></path><path d="M5,475.55555555555554C213,475.55555555555554,213,450.55555555555554,421,450.55555555555554" stroke-width="48.888888888888886" style="stroke: rgb(105, 191, 105);"></path><path d="M5,286.66666666666674C213,286.66666666666674,213,281.6666666666666,421,281.6666666666666" stroke-width="73.33333333333333" style="stroke: rgb(105, 191, 162);"></path><path d="M5,120.00000000000014C213,120.00000000000014,213,134.9999999999999,421,134.9999999999999" stroke-width="73.33333333333333" style="stroke: rgb(105, 162, 191);"></path><path d="M5,36.66666666666678C213,36.66666666666678,213,61.66666666666655,421,61.66666666666655" stroke-width="73.33333333333333" style="stroke: rgb(105, 105, 191);"></path><path d="M426,171.66666666666654C634,171.66666666666654,634,166.66666666666666,842,166.66666666666666" stroke-width="293.3333333333333" style="stroke: rgb(162, 105, 191);"></path><path d="M426,438.3333333333333C634,438.3333333333333,634,443.33333333333337,842,443.33333333333337" stroke-width="73.33333333333333" style="stroke: rgb(191, 105, 162);"></path><path d="M426,365C634,365,634,359.99999999999994,842,359.99999999999994" stroke-width="73.33333333333333" style="stroke: rgb(191, 105, 162);"></path></g><g class="nodes" font-family="Arial, Helvetica" font-size="10"><g><rect x="842" y="406.6666666666667" height="73.33333333333329" width="5" fill="#000"></rect><text x="836" y="443.3333333333333" dy="0.35em" text-anchor="end">netflow/enclave netflow</text></g><g><rect x="842" y="323.33333333333326" height="73.33333333333343" width="5" fill="#000"></rect><text x="836" y="360" dy="0.35em" text-anchor="end">network protocol analysis</text></g><g><rect x="842" y="20" height="293.33333333333326" width="5" fill="#000"></rect><text x="836" y="166.66666666666663" dy="0.35em" text-anchor="end">windows event logs</text></g><g><rect x="0" y="166.6666666666668" height="73.33333333333326" width="5" fill="#000"></rect><text x="11" y="203.33333333333343" dy="0.35em" text-anchor="start">Audit</text></g><g><rect x="0" y="333.3333333333333" height="48.88888888888892" width="5" fill="#000"></rect><text x="11" y="357.77777777777777" dy="0.35em" text-anchor="start">Disable or Remove Feature or Program</text></g><g><rect x="0" y="392.22222222222223" height="48.88888888888886" width="5" fill="#000"></rect><text x="11" y="416.66666666666663" dy="0.35em" text-anchor="start">Network Intrusion Prevention</text></g><g><rect x="0" y="451.1111111111111" height="48.8888888888888" width="5" fill="#000"></rect><text x="11" y="475.5555555555555" dy="0.35em" text-anchor="start">Network Segmentation</text></g><g><rect x="0" y="250.00000000000006" height="73.33333333333326" width="5" fill="#000"></rect><text x="11" y="286.6666666666667" dy="0.35em" text-anchor="start">Operating System Configuration</text></g><g><rect x="0" y="83.33333333333348" height="73.33333333333331" width="5" fill="#000"></rect><text x="11" y="120.00000000000014" dy="0.35em" text-anchor="start">Privileged Account Management</text></g><g><rect x="0" y="1.1368683772161603e-13" height="73.33333333333337" width="5" fill="#000"></rect><text x="11" y="36.6666666666668" dy="0.35em" text-anchor="start">User Account Management</text></g><g><rect x="421" y="328.3333333333333" height="146.66666666666677" width="5" fill="#000"></rect><text x="415" y="401.6666666666667" dy="0.35em" text-anchor="end">network service scanning</text></g><g><rect x="421" y="24.999999999999886" height="293.3333333333334" width="5" fill="#000"></rect><text x="415" y="171.6666666666666" dy="0.35em" text-anchor="end">scheduled task</text></g></g></g></svg>