<svg width="847" height="520" xmlns="http://www.w3.org/2000/svg" version="1.1"><g transform="translate(0, 10)"><g class="links" fill="none" stroke-opacity="0.4"><path d="M5,332.14285714285705C213,332.14285714285705,213,251.42857142857127,421,251.42857142857127" stroke-width="98.57142857142856" style="stroke: rgb(191, 105, 105);"></path><path d="M5,256.4285714285714C213,256.4285714285714,213,359.9999999999999,421,359.9999999999999" stroke-width="32.857142857142854" style="stroke: rgb(191, 162, 105);"></path><path d="M5,190.71428571428567C213,190.71428571428567,213,152.85714285714272,421,152.85714285714272" stroke-width="98.57142857142856" style="stroke: rgb(191, 162, 105);"></path><path d="M5,114.99999999999987C213,114.99999999999987,213,327.14285714285705,421,327.14285714285705" stroke-width="32.857142857142854" style="stroke: rgb(162, 191, 105);"></path><path d="M5,49.285714285714164C213,49.285714285714164,213,54.285714285714164,421,54.285714285714164" stroke-width="98.57142857142856" style="stroke: rgb(162, 191, 105);"></path><path d="M5,483.57142857142867C213,483.57142857142867,213,478.5714285714286,421,478.5714285714286" stroke-width="32.857142857142854" style="stroke: rgb(105, 191, 105);"></path><path d="M5,424.2857142857143C213,424.2857142857143,213,419.2857142857142,421,419.2857142857142" stroke-width="65.71428571428571" style="stroke: rgb(105, 191, 162);"></path><path d="M426,54.285714285714164C634,54.285714285714164,634,54.285714285714334,842,54.285714285714334" stroke-width="98.57142857142856" style="stroke: rgb(105, 162, 191);"></path><path d="M426,152.85714285714272C634,152.85714285714272,634,337.1428571428573,842,337.1428571428573" stroke-width="98.57142857142856" style="stroke: rgb(105, 162, 191);"></path><path d="M426,251.42857142857127C634,251.42857142857127,634,445.7142857142858,842,445.7142857142858" stroke-width="98.57142857142856" style="stroke: rgb(105, 162, 191);"></path><path d="M426,343.57142857142844C634,343.57142857142844,634,136.42857142857147,842,136.42857142857147" stroke-width="65.71428571428571" style="stroke: rgb(105, 105, 191);"></path><path d="M426,478.5714285714286C634,478.5714285714286,634,261.42857142857144,842,261.42857142857144" stroke-width="32.857142857142854" style="stroke: rgb(162, 105, 191);"></path><path d="M426,419.2857142857142C634,419.2857142857142,634,212.14285714285714,842,212.14285714285714" stroke-width="65.71428571428571" style="stroke: rgb(191, 105, 162);"></path></g><g class="nodes" font-family="Arial, Helvetica" font-size="10"><g><rect x="842" y="5.000000000000057" height="164.28571428571422" width="5" fill="#000"></rect><text x="836" y="87.14285714285717" dy="0.35em" text-anchor="end">netflow/enclave netflow</text></g><g><rect x="842" y="287.857142857143" height="98.5714285714285" width="5" fill="#000"></rect><text x="836" y="337.1428571428572" dy="0.35em" text-anchor="end">network intrusion detection system</text></g><g><rect x="842" y="396.4285714285715" height="98.57142857142844" width="5" fill="#000"></rect><text x="836" y="445.7142857142857" dy="0.35em" text-anchor="end">network protocol analysis</text></g><g><rect x="842" y="179.28571428571428" height="98.57142857142873" width="5" fill="#000"></rect><text x="836" y="228.57142857142864" dy="0.35em" text-anchor="end">windows event logs</text></g><g><rect x="0" y="282.8571428571428" height="98.57142857142867" width="5" fill="#000"></rect><text x="11" y="332.1428571428571" dy="0.35em" text-anchor="start">Filter Network Traffic</text></g><g><rect x="0" y="141.4285714285714" height="131.4285714285714" width="5" fill="#000"></rect><text x="11" y="207.14285714285708" dy="0.35em" text-anchor="start">Network Intrusion Prevention</text></g><g><rect x="0" y="-1.1368683772161603e-13" height="131.4285714285715" width="5" fill="#000"></rect><text x="11" y="65.71428571428564" dy="0.35em" text-anchor="start">Network Segmentation</text></g><g><rect x="0" y="467.1428571428572" height="32.85714285714289" width="5" fill="#000"></rect><text x="11" y="483.57142857142867" dy="0.35em" text-anchor="start">Restrict Registry Permissions</text></g><g><rect x="0" y="391.42857142857144" height="65.71428571428578" width="5" fill="#000"></rect><text x="11" y="424.28571428571433" dy="0.35em" text-anchor="start">User Account Management</text></g><g><rect x="421" y="310.7142857142856" height="65.71428571428578" width="5" fill="#000"></rect><text x="415" y="343.5714285714285" dy="0.35em" text-anchor="end">commonly used port</text></g><g><rect x="421" y="4.999999999999886" height="295.7142857142857" width="5" fill="#000"></rect><text x="415" y="152.85714285714275" dy="0.35em" text-anchor="end">custom command and control protocol</text></g><g><rect x="421" y="462.14285714285717" height="32.85714285714295" width="5" fill="#000"></rect><text x="415" y="478.57142857142867" dy="0.35em" text-anchor="end">modify registry</text></g><g><rect x="421" y="386.4285714285714" height="65.71428571428578" width="5" fill="#000"></rect><text x="415" y="419.2857142857143" dy="0.35em" text-anchor="end">new service</text></g></g></g></svg>