<svg width="847" height="520" xmlns="http://www.w3.org/2000/svg" version="1.1"><g transform="translate(0, 10)"><g class="links" fill="none" stroke-opacity="0.4"><path d="M5,306.42857142857144C213,306.42857142857144,213,112.14285714285728,421,112.14285714285728" stroke-width="184.28571428571428" style="stroke: rgb(191, 105, 105);"></path><path d="M5,173.57142857142858C213,173.57142857142858,213,449.2857142857144,421,449.2857142857144" stroke-width="61.42857142857143" style="stroke: rgb(191, 169, 105);"></path><path d="M5,81.42857142857143C213,81.42857142857143,213,275.7142857142859,421,275.7142857142859" stroke-width="122.85714285714286" style="stroke: rgb(191, 169, 105);"></path><path d="M5,464.6428571428571C213,464.6428571428571,213,393.2142857142858,421,393.2142857142858" stroke-width="30.714285714285715" style="stroke: rgb(148, 191, 105);"></path><path d="M5,423.9285714285714C213,423.9285714285714,213,362.50000000000006,421,362.50000000000006" stroke-width="30.714285714285715" style="stroke: rgb(105, 191, 126);"></path><path d="M426,158.21428571428586C634,158.21428571428586,634,443.9285714285717,842,443.9285714285717" stroke-width="30.714285714285715" style="stroke: rgb(105, 191, 191);"></path><path d="M426,66.07142857142871C634,66.07142857142871,634,219.64285714285725,842,219.64285714285725" stroke-width="30.714285714285715" style="stroke: rgb(105, 191, 191);"></path><path d="M426,96.78571428571443C634,96.78571428571443,634,362.5000000000001,842,362.5000000000001" stroke-width="30.714285714285715" style="stroke: rgb(105, 191, 191);"></path><path d="M426,35.357142857143C634,35.357142857143,634,15.35714285714283,842,15.35714285714283" stroke-width="30.714285714285715" style="stroke: rgb(105, 191, 191);"></path><path d="M426,188.9285714285716C634,188.9285714285716,634,484.64285714285734,842,484.64285714285734" stroke-width="30.714285714285715" style="stroke: rgb(105, 191, 191);"></path><path d="M426,127.50000000000014C634,127.50000000000014,634,403.2142857142859,842,403.2142857142859" stroke-width="30.714285714285715" style="stroke: rgb(105, 191, 191);"></path><path d="M426,464.6428571428572C634,464.6428571428572,634,250.35714285714297,842,250.35714285714297" stroke-width="30.714285714285715" style="stroke: rgb(105, 126, 191);"></path><path d="M426,433.9285714285715C634,433.9285714285715,634,178.92857142857153,842,178.92857142857153" stroke-width="30.714285714285715" style="stroke: rgb(105, 126, 191);"></path><path d="M426,306.4285714285716C634,306.4285714285716,634,132.85714285714297,842,132.85714285714297" stroke-width="61.42857142857143" style="stroke: rgb(148, 105, 191);"></path><path d="M426,245.0000000000002C634,245.0000000000002,634,61.4285714285714,842,61.4285714285714" stroke-width="61.42857142857143" style="stroke: rgb(148, 105, 191);"></path><path d="M426,377.85714285714295C634,377.85714285714295,634,306.42857142857156,842,306.42857142857156" stroke-width="61.42857142857143" style="stroke: rgb(191, 105, 169);"></path></g><g class="nodes" font-family="Arial, Helvetica" font-size="10"><g><rect x="842" y="275.71428571428584" height="61.42857142857144" width="5" fill="#000"></rect><text x="836" y="306.42857142857156" dy="0.35em" text-anchor="end">anti-virus</text></g><g><rect x="842" y="428.57142857142884" height="30.714285714285666" width="5" fill="#000"></rect><text x="836" y="443.9285714285717" dy="0.35em" text-anchor="end">binary file metadata</text></g><g><rect x="842" y="204.2857142857144" height="61.428571428571445" width="5" fill="#000"></rect><text x="836" y="235.0000000000001" dy="0.35em" text-anchor="end">malware reverse engineering</text></g><g><rect x="842" y="102.14285714285725" height="92.14285714285714" width="5" fill="#000"></rect><text x="836" y="148.21428571428584" dy="0.35em" text-anchor="end">netflow/enclave netflow</text></g><g><rect x="842" y="347.1428571428573" height="30.71428571428578" width="5" fill="#000"></rect><text x="836" y="362.50000000000017" dy="0.35em" text-anchor="end">network intrusion detection system</text></g><g><rect x="842" y="-2.842170943040401e-14" height="92.14285714285728" width="5" fill="#000"></rect><text x="836" y="46.07142857142861" dy="0.35em" text-anchor="end">network protocol analysis</text></g><g><rect x="842" y="469.2857142857145" height="30.714285714285552" width="5" fill="#000"></rect><text x="836" y="484.6428571428573" dy="0.35em" text-anchor="end">ssl/tls inspection</text></g><g><rect x="842" y="387.85714285714306" height="30.71428571428578" width="5" fill="#000"></rect><text x="836" y="403.21428571428595" dy="0.35em" text-anchor="end">windows event logs</text></g><g><rect x="0" y="214.28571428571433" height="184.28571428571422" width="5" fill="#000"></rect><text x="11" y="306.42857142857144" dy="0.35em" text-anchor="start">Antivirus/Antimalware</text></g><g><rect x="0" y="20" height="184.28571428571433" width="5" fill="#000"></rect><text x="11" y="112.14285714285717" dy="0.35em" text-anchor="start">Network Intrusion Prevention</text></g><g><rect x="0" y="449.2857142857143" height="30.714285714285708" width="5" fill="#000"></rect><text x="11" y="464.6428571428571" dy="0.35em" text-anchor="start">Restrict File and Directory Permissions</text></g><g><rect x="0" y="408.57142857142856" height="30.714285714285722" width="5" fill="#000"></rect><text x="11" y="423.92857142857144" dy="0.35em" text-anchor="start">User Account Management</text></g><g><rect x="421" y="347.1428571428572" height="61.42857142857148" width="5" fill="#000"></rect><text x="415" y="377.85714285714295" dy="0.35em" text-anchor="end">disabling security tools</text></g><g><rect x="421" y="20.000000000000142" height="184.28571428571433" width="5" fill="#000"></rect><text x="415" y="112.14285714285731" dy="0.35em" text-anchor="end">obfuscated files or information</text></g><g><rect x="421" y="214.28571428571448" height="122.85714285714273" width="5" fill="#000"></rect><text x="415" y="275.71428571428584" dy="0.35em" text-anchor="end">remote file copy</text></g><g><rect x="421" y="418.57142857142867" height="61.42857142857122" width="5" fill="#000"></rect><text x="415" y="449.2857142857143" dy="0.35em" text-anchor="end">standard application layer protocol</text></g></g></g></svg>