<svg width="847" height="520" xmlns="http://www.w3.org/2000/svg" version="1.1"><g transform="translate(0, 10)"><g class="links" fill="none" stroke-opacity="0.4"><path d="M5,240.23809523809524C213,240.23809523809524,213,71.42857142857127,421,71.42857142857127" stroke-width="122.85714285714285" style="stroke: rgb(191, 105, 105);"></path><path d="M5,35.71428571428585C213,35.71428571428585,213,173.57142857142858,421,173.57142857142858" stroke-width="61.42857142857142" style="stroke: rgb(191, 145, 105);"></path><path d="M5,107.38095238095251C213,107.38095238095251,213,316.66666666666674,421,316.66666666666674" stroke-width="81.9047619047619" style="stroke: rgb(191, 145, 105);"></path><path d="M5,158.5714285714287C213,158.5714285714287,213,377.85714285714283,421,377.85714285714283" stroke-width="20.476190476190474" style="stroke: rgb(191, 145, 105);"></path><path d="M5,423.80952380952385C213,423.80952380952385,213,398.3333333333333,421,398.3333333333333" stroke-width="20.476190476190474" style="stroke: rgb(191, 184, 105);"></path><path d="M5,393.33333333333337C213,393.33333333333337,213,428.80952380952385,421,428.80952380952385" stroke-width="20.476190476190474" style="stroke: rgb(158, 191, 105);"></path><path d="M5,484.7619047619048C213,484.7619047619048,213,479.7619047619048,421,479.7619047619048" stroke-width="20.476190476190474" style="stroke: rgb(118, 191, 105);"></path><path d="M5,342.38095238095235C213,342.38095238095235,213,235,421,235" stroke-width="61.42857142857142" style="stroke: rgb(105, 191, 131);"></path><path d="M5,454.28571428571433C213,454.28571428571433,213,449.28571428571433,421,449.28571428571433" stroke-width="20.476190476190474" style="stroke: rgb(105, 191, 171);"></path><path d="M426,122.61904761904748C634,122.61904761904748,634,489.7619047619048,842,489.7619047619048" stroke-width="20.476190476190474" style="stroke: rgb(105, 171, 191);"></path><path d="M426,61.19047619047605C634,61.19047619047605,634,285.9523809523809,842,285.9523809523809" stroke-width="20.476190476190474" style="stroke: rgb(105, 171, 191);"></path><path d="M426,102.142857142857C634,102.142857142857,634,459.2857142857141,842,459.2857142857141" stroke-width="20.476190476190474" style="stroke: rgb(105, 171, 191);"></path><path d="M426,20.238095238095095C634,20.238095238095095,634,143.09523809523802,842,143.09523809523802" stroke-width="20.476190476190474" style="stroke: rgb(105, 171, 191);"></path><path d="M426,40.714285714285566C634,40.714285714285566,634,214.52380952380946,842,214.52380952380946" stroke-width="20.476190476190474" style="stroke: rgb(105, 171, 191);"></path><path d="M426,81.66666666666652C634,81.66666666666652,634,357.3809523809522,842,357.3809523809522" stroke-width="20.476190476190474" style="stroke: rgb(105, 171, 191);"></path><path d="M426,245.23809523809524C634,245.23809523809524,634,316.66666666666663,842,316.66666666666663" stroke-width="40.95238095238095" style="stroke: rgb(105, 131, 191);"></path><path d="M426,163.33333333333334C634,163.33333333333334,634,20.476190476190418,842,20.476190476190418" stroke-width="40.95238095238095" style="stroke: rgb(105, 131, 191);"></path><path d="M426,204.28571428571428C634,204.28571428571428,634,245.23809523809518,842,245.23809523809518" stroke-width="40.95238095238095" style="stroke: rgb(105, 131, 191);"></path><path d="M426,296.19047619047626C634,296.19047619047626,634,61.42857142857137,842,61.42857142857137" stroke-width="40.95238095238095" style="stroke: rgb(118, 105, 191);"></path><path d="M426,337.1428571428572C634,337.1428571428572,634,173.80952380952374,842,173.80952380952374" stroke-width="40.95238095238095" style="stroke: rgb(118, 105, 191);"></path><path d="M426,388.0952380952381C634,388.0952380952381,634,102.38095238095232,842,102.38095238095232" stroke-width="40.95238095238095" style="stroke: rgb(158, 105, 191);"></path><path d="M426,439.0476190476191C634,439.0476190476191,634,418.5714285714284,842,418.5714285714284" stroke-width="40.95238095238095" style="stroke: rgb(191, 105, 184);"></path><path d="M426,479.7619047619048C634,479.7619047619048,634,377.85714285714266,842,377.85714285714266" stroke-width="20.476190476190474" style="stroke: rgb(191, 105, 145);"></path></g><g class="nodes" font-family="Arial, Helvetica" font-size="10"><g><rect x="842" y="398.0952380952379" height="40.95238095238095" width="5" fill="#000"></rect><text x="836" y="418.5714285714284" dy="0.35em" text-anchor="end">anti-virus</text></g><g><rect x="842" y="479.5238095238096" height="20.47619047619048" width="5" fill="#000"></rect><text x="836" y="489.7619047619048" dy="0.35em" text-anchor="end">binary file metadata</text></g><g><rect x="842" y="275.71428571428567" height="61.428571428571274" width="5" fill="#000"></rect><text x="836" y="306.42857142857133" dy="0.35em" text-anchor="end">malware reverse engineering</text></g><g><rect x="842" y="-5.684341886080802e-14" height="122.85714285714285" width="5" fill="#000"></rect><text x="836" y="61.42857142857137" dy="0.35em" text-anchor="end">netflow/enclave netflow</text></g><g><rect x="842" y="449.04761904761887" height="20.47619047619071" width="5" fill="#000"></rect><text x="836" y="459.2857142857142" dy="0.35em" text-anchor="end">network intrusion detection system</text></g><g><rect x="842" y="132.85714285714278" height="61.428571428571445" width="5" fill="#000"></rect><text x="836" y="163.5714285714285" dy="0.35em" text-anchor="end">network protocol analysis</text></g><g><rect x="842" y="204.28571428571422" height="61.428571428571445" width="5" fill="#000"></rect><text x="836" y="234.99999999999994" dy="0.35em" text-anchor="end">ssl/tls inspection</text></g><g><rect x="842" y="347.14285714285694" height="40.95238095238096" width="5" fill="#000"></rect><text x="836" y="367.6190476190474" dy="0.35em" text-anchor="end">windows event logs</text></g><g><rect x="0" y="178.80952380952382" height="122.85714285714278" width="5" fill="#000"></rect><text x="11" y="240.2380952380952" dy="0.35em" text-anchor="start">Antivirus/Antimalware</text></g><g><rect x="0" y="5.000000000000142" height="163.80952380952368" width="5" fill="#000"></rect><text x="11" y="86.90476190476198" dy="0.35em" text-anchor="start">Network Intrusion Prevention</text></g><g><rect x="0" y="413.5714285714286" height="20.47619047619048" width="5" fill="#000"></rect><text x="11" y="423.80952380952385" dy="0.35em" text-anchor="start">Network Segmentation</text></g><g><rect x="0" y="383.09523809523813" height="20.476190476190503" width="5" fill="#000"></rect><text x="11" y="393.33333333333337" dy="0.35em" text-anchor="start">Restrict File and Directory Permissions</text></g><g><rect x="0" y="474.5238095238096" height="20.47619047619031" width="5" fill="#000"></rect><text x="11" y="484.7619047619047" dy="0.35em" text-anchor="start">Restrict Registry Permissions</text></g><g><rect x="0" y="311.66666666666663" height="61.4285714285715" width="5" fill="#000"></rect><text x="11" y="342.3809523809524" dy="0.35em" text-anchor="start">SSL/TLS Inspection</text></g><g><rect x="0" y="444.0476190476191" height="20.476190476190474" width="5" fill="#000"></rect><text x="11" y="454.28571428571433" dy="0.35em" text-anchor="start">User Account Management</text></g><g><rect x="421" y="418.5714285714286" height="40.95238095238096" width="5" fill="#000"></rect><text x="415" y="439.0476190476191" dy="0.35em" text-anchor="end">disabling security tools</text></g><g><rect x="421" y="469.5238095238096" height="20.476190476190595" width="5" fill="#000"></rect><text x="415" y="479.7619047619049" dy="0.35em" text-anchor="end">modify registry</text></g><g><rect x="421" y="9.999999999999858" height="122.857142857143" width="5" fill="#000"></rect><text x="415" y="71.42857142857136" dy="0.35em" text-anchor="end">obfuscated files or information</text></g><g><rect x="421" y="275.7142857142858" height="81.9047619047618" width="5" fill="#000"></rect><text x="415" y="316.6666666666667" dy="0.35em" text-anchor="end">remote file copy</text></g><g><rect x="421" y="142.85714285714286" height="122.85714285714289" width="5" fill="#000"></rect><text x="415" y="204.2857142857143" dy="0.35em" text-anchor="end">standard cryptographic protocol</text></g><g><rect x="421" y="367.6190476190476" height="40.95238095238102" width="5" fill="#000"></rect><text x="415" y="388.0952380952381" dy="0.35em" text-anchor="end">uncommonly used port</text></g></g></g></svg>