<svg width="847" height="520" xmlns="http://www.w3.org/2000/svg" version="1.1"><g transform="translate(0, 10)"><g class="links" fill="none" stroke-opacity="0.4"><path d="M5,344.0000000000001C213,344.0000000000001,213,250.0000000000002,421,250.0000000000002" stroke-width="94" style="stroke: rgb(191, 105, 105);"></path><path d="M5,239.99999999999986C213,239.99999999999986,213,448.0000000000002,421,448.0000000000002" stroke-width="94" style="stroke: rgb(191, 191, 105);"></path><path d="M5,98.99999999999986C213,98.99999999999986,213,99.00000000000009,421,99.00000000000009" stroke-width="188" style="stroke: rgb(191, 191, 105);"></path><path d="M5,448.0000000000002C213,448.0000000000002,213,344.0000000000002,421,344.0000000000002" stroke-width="94" style="stroke: rgb(105, 191, 105);"></path><path d="M426,297.0000000000002C634,297.0000000000002,634,93.99999999999989,842,93.99999999999989" stroke-width="188" style="stroke: rgb(105, 191, 191);"></path><path d="M426,471.5000000000002C634,471.5000000000002,634,476.5000000000001,842,476.5000000000001" stroke-width="47" style="stroke: rgb(105, 105, 191);"></path><path d="M426,424.5000000000002C634,424.5000000000002,634,315.4999999999999,842,315.4999999999999" stroke-width="47" style="stroke: rgb(105, 105, 191);"></path><path d="M426,52.000000000000085C634,52.000000000000085,634,244.9999999999999,842,244.9999999999999" stroke-width="94" style="stroke: rgb(191, 105, 191);"></path><path d="M426,146.00000000000009C634,146.00000000000009,634,395.9999999999999,842,395.9999999999999" stroke-width="94" style="stroke: rgb(191, 105, 191);"></path></g><g class="nodes" font-family="Arial, Helvetica" font-size="10"><g><rect x="842" y="-1.1368683772161603e-13" height="188" width="5" fill="#000"></rect><text x="836" y="93.99999999999989" dy="0.35em" text-anchor="end">dll monitoring</text></g><g><rect x="842" y="453.0000000000001" height="47" width="5" fill="#000"></rect><text x="836" y="476.5000000000001" dy="0.35em" text-anchor="end">malware reverse engineering</text></g><g><rect x="842" y="197.9999999999999" height="141" width="5" fill="#000"></rect><text x="836" y="268.4999999999999" dy="0.35em" text-anchor="end">netflow/enclave netflow</text></g><g><rect x="842" y="348.9999999999999" height="94.00000000000023" width="5" fill="#000"></rect><text x="836" y="396" dy="0.35em" text-anchor="end">network protocol analysis</text></g><g><rect x="0" y="297.0000000000001" height="94.0000000000001" width="5" fill="#000"></rect><text x="11" y="344.00000000000017" dy="0.35em" text-anchor="start">Behavior Prevention on Endpoint</text></g><g><rect x="0" y="4.999999999999858" height="282.0000000000002" width="5" fill="#000"></rect><text x="11" y="145.99999999999997" dy="0.35em" text-anchor="start">Network Intrusion Prevention</text></g><g><rect x="0" y="401.0000000000002" height="93.99999999999994" width="5" fill="#000"></rect><text x="11" y="448.0000000000002" dy="0.35em" text-anchor="start">Privileged Account Management</text></g><g><rect x="421" y="203.0000000000002" height="188" width="5" fill="#000"></rect><text x="415" y="297.0000000000002" dy="0.35em" text-anchor="end">process injection</text></g><g><rect x="421" y="5.000000000000085" height="188.0000000000001" width="5" fill="#000"></rect><text x="415" y="99.00000000000014" dy="0.35em" text-anchor="end">remote file copy</text></g><g><rect x="421" y="401.0000000000002" height="93.99999999999972" width="5" fill="#000"></rect><text x="415" y="448.0000000000001" dy="0.35em" text-anchor="end">standard application layer protocol</text></g></g></g></svg>