<svg width="847" height="520" xmlns="http://www.w3.org/2000/svg" version="1.1"><g transform="translate(0, 10)"><g class="links" fill="none" stroke-opacity="0.4"><path d="M5,137.14285714285725C213,137.14285714285725,213,137.14285714285697,421,137.14285714285697" stroke-width="274.2857142857143" style="stroke: rgb(191, 105, 105);"></path><path d="M5,465.7142857142857C213,465.7142857142857,213,465.7142857142857,421,465.7142857142857" stroke-width="68.57142857142857" style="stroke: rgb(191, 191, 105);"></path><path d="M5,352.8571428571429C213,352.8571428571429,213,352.8571428571429,421,352.8571428571429" stroke-width="137.14285714285714" style="stroke: rgb(105, 191, 105);"></path><path d="M426,68.5714285714284C634,68.5714285714284,634,284.2857142857144,842,284.2857142857144" stroke-width="137.14285714285714" style="stroke: rgb(105, 191, 191);"></path><path d="M426,205.71428571428555C634,205.71428571428555,634,431.42857142857156,842,431.42857142857156" stroke-width="137.14285714285714" style="stroke: rgb(105, 191, 191);"></path><path d="M426,465.7142857142857C634,465.7142857142857,634,171.42857142857127,842,171.42857142857127" stroke-width="68.57142857142857" style="stroke: rgb(105, 105, 191);"></path><path d="M426,352.8571428571429C634,352.8571428571429,634,68.57142857142843,842,68.57142857142843" stroke-width="137.14285714285714" style="stroke: rgb(191, 105, 191);"></path></g><g class="nodes" font-family="Arial, Helvetica" font-size="10"><g><rect x="842" y="215.7142857142858" height="137.14285714285717" width="5" fill="#000"></rect><text x="836" y="284.2857142857144" dy="0.35em" text-anchor="end">netflow/enclave netflow</text></g><g><rect x="842" y="362.857142857143" height="137.14285714285717" width="5" fill="#000"></rect><text x="836" y="431.42857142857156" dy="0.35em" text-anchor="end">network protocol analysis</text></g><g><rect x="842" y="-1.4210854715202004e-13" height="205.71428571428595" width="5" fill="#000"></rect><text x="836" y="102.85714285714283" dy="0.35em" text-anchor="end">windows event logs</text></g><g><rect x="0" y="1.1368683772161603e-13" height="274.2857142857142" width="5" fill="#000"></rect><text x="11" y="137.14285714285722" dy="0.35em" text-anchor="start">Network Intrusion Prevention</text></g><g><rect x="0" y="431.42857142857144" height="68.57142857142844" width="5" fill="#000"></rect><text x="11" y="465.71428571428567" dy="0.35em" text-anchor="start">Restrict Registry Permissions</text></g><g><rect x="0" y="284.28571428571433" height="137.1428571428571" width="5" fill="#000"></rect><text x="11" y="352.8571428571429" dy="0.35em" text-anchor="start">User Account Management</text></g><g><rect x="421" y="431.42857142857144" height="68.57142857142873" width="5" fill="#000"></rect><text x="415" y="465.7142857142858" dy="0.35em" text-anchor="end">modify registry</text></g><g><rect x="421" y="284.28571428571433" height="137.1428571428571" width="5" fill="#000"></rect><text x="415" y="352.8571428571429" dy="0.35em" text-anchor="end">new service</text></g><g><rect x="421" y="-1.7053025658242404e-13" height="274.2857142857145" width="5" fill="#000"></rect><text x="415" y="137.14285714285708" dy="0.35em" text-anchor="end">remote file copy</text></g></g></g></svg>