<svg width="847" height="520" xmlns="http://www.w3.org/2000/svg" version="1.1"><g transform="translate(0, 10)"><g class="links" fill="none" stroke-opacity="0.4"><path d="M5,361.78571428571445C213,361.78571428571445,213,123.21428571428575,421,123.21428571428575" stroke-width="49.28571428571428" style="stroke: rgb(191, 105, 105);"></path><path d="M5,411.07142857142867C213,411.07142857142867,213,281.07142857142867,421,281.07142857142867" stroke-width="49.28571428571428" style="stroke: rgb(191, 105, 105);"></path><path d="M5,169.28571428571414C213,169.28571428571414,213,440.7142857142856,421,440.7142857142856" stroke-width="32.857142857142854" style="stroke: rgb(191, 162, 105);"></path><path d="M5,202.142857142857C213,202.142857142857,213,483.5714285714285,421,483.5714285714285" stroke-width="32.857142857142854" style="stroke: rgb(191, 162, 105);"></path><path d="M5,128.21428571428558C213,128.21428571428558,213,340.3571428571429,421,340.3571428571429" stroke-width="49.28571428571428" style="stroke: rgb(191, 162, 105);"></path><path d="M5,29.642857142857025C213,29.642857142857025,213,24.642857142857196,421,24.642857142857196" stroke-width="49.28571428571428" style="stroke: rgb(191, 162, 105);"></path><path d="M5,78.9285714285713C213,78.9285714285713,213,182.50000000000009,421,182.50000000000009" stroke-width="49.28571428571428" style="stroke: rgb(191, 162, 105);"></path><path d="M5,253.21428571428558C213,253.21428571428558,213,73.92857142857147,421,73.92857142857147" stroke-width="49.28571428571428" style="stroke: rgb(162, 191, 105);"></path><path d="M5,302.4999999999999C213,302.4999999999999,213,231.78571428571436,421,231.78571428571436" stroke-width="49.28571428571428" style="stroke: rgb(162, 191, 105);"></path><path d="M5,470.357142857143C213,470.357142857143,213,389.6428571428571,421,389.6428571428571" stroke-width="49.28571428571428" style="stroke: rgb(105, 191, 105);"></path><path d="M426,24.642857142857196C634,24.642857142857196,634,24.642857142857167,842,24.642857142857167" stroke-width="49.28571428571428" style="stroke: rgb(105, 191, 162);"></path><path d="M426,73.92857142857147C634,73.92857142857147,634,198.92857142857144,842,198.92857142857144" stroke-width="49.28571428571428" style="stroke: rgb(105, 191, 162);"></path><path d="M426,123.21428571428575C634,123.21428571428575,634,307.5,842,307.5" stroke-width="49.28571428571428" style="stroke: rgb(105, 191, 162);"></path><path d="M426,182.50000000000009C634,182.50000000000009,634,73.92857142857144,842,73.92857142857144" stroke-width="49.28571428571428" style="stroke: rgb(105, 162, 191);"></path><path d="M426,231.78571428571436C634,231.78571428571436,634,248.21428571428572,842,248.21428571428572" stroke-width="49.28571428571428" style="stroke: rgb(105, 162, 191);"></path><path d="M426,281.07142857142867C634,281.07142857142867,634,356.78571428571433,842,356.78571428571433" stroke-width="49.28571428571428" style="stroke: rgb(105, 162, 191);"></path><path d="M426,448.92857142857133C634,448.92857142857133,634,432.49999999999994,842,432.49999999999994" stroke-width="16.428571428571427" style="stroke: rgb(105, 105, 191);"></path><path d="M426,432.4999999999999C634,432.4999999999999,634,139.64285714285717,842,139.64285714285717" stroke-width="16.428571428571427" style="stroke: rgb(105, 105, 191);"></path><path d="M426,491.7857142857142C634,491.7857142857142,634,448.9285714285714,842,448.9285714285714" stroke-width="16.428571428571427" style="stroke: rgb(162, 105, 191);"></path><path d="M426,475.3571428571428C634,475.3571428571428,634,156.07142857142858,842,156.07142857142858" stroke-width="16.428571428571427" style="stroke: rgb(162, 105, 191);"></path><path d="M426,365C634,365,634,407.85714285714283,842,407.85714285714283" stroke-width="32.857142857142854" style="stroke: rgb(191, 105, 162);"></path><path d="M426,332.14285714285717C634,332.14285714285717,634,115.00000000000001,842,115.00000000000001" stroke-width="32.857142857142854" style="stroke: rgb(191, 105, 162);"></path><path d="M426,397.85714285714283C634,397.85714285714283,634,483.5714285714286,842,483.5714285714286" stroke-width="32.857142857142854" style="stroke: rgb(191, 105, 162);"></path></g><g class="nodes" font-family="Arial, Helvetica" font-size="10"><g><rect x="842" y="391.4285714285714" height="65.7142857142858" width="5" fill="#000"></rect><text x="836" y="424.2857142857143" dy="0.35em" text-anchor="end">malware reverse engineering</text></g><g><rect x="842" y="2.842170943040401e-14" height="164.28571428571428" width="5" fill="#000"></rect><text x="836" y="82.14285714285717" dy="0.35em" text-anchor="end">netflow/enclave netflow</text></g><g><rect x="842" y="174.2857142857143" height="98.57142857142856" width="5" fill="#000"></rect><text x="836" y="223.57142857142858" dy="0.35em" text-anchor="end">network intrusion detection system</text></g><g><rect x="842" y="282.8571428571429" height="98.5714285714285" width="5" fill="#000"></rect><text x="836" y="332.1428571428571" dy="0.35em" text-anchor="end">network protocol analysis</text></g><g><rect x="842" y="467.14285714285717" height="32.85714285714283" width="5" fill="#000"></rect><text x="836" y="483.57142857142856" dy="0.35em" text-anchor="end">ssl/tls inspection</text></g><g><rect x="0" y="337.1428571428573" height="98.57142857142856" width="5" fill="#000"></rect><text x="11" y="386.42857142857156" dy="0.35em" text-anchor="start">Filter Network Traffic</text></g><g><rect x="0" y="4.999999999999886" height="213.57142857142856" width="5" fill="#000"></rect><text x="11" y="111.78571428571416" dy="0.35em" text-anchor="start">Network Intrusion Prevention</text></g><g><rect x="0" y="228.57142857142844" height="98.57142857142884" width="5" fill="#000"></rect><text x="11" y="277.8571428571429" dy="0.35em" text-anchor="start">Network Segmentation</text></g><g><rect x="0" y="445.71428571428584" height="49.28571428571428" width="5" fill="#000"></rect><text x="11" y="470.357142857143" dy="0.35em" text-anchor="start">SSL/TLS Inspection</text></g><g><rect x="421" y="5.684341886080802e-14" height="147.8571428571429" width="5" fill="#000"></rect><text x="415" y="73.9285714285715" dy="0.35em" text-anchor="end">custom command and control protocol</text></g><g><rect x="421" y="424.28571428571416" height="32.85714285714289" width="5" fill="#000"></rect><text x="415" y="440.7142857142856" dy="0.35em" text-anchor="end">fallback channels</text></g><g><rect x="421" y="467.14285714285705" height="32.85714285714286" width="5" fill="#000"></rect><text x="415" y="483.5714285714285" dy="0.35em" text-anchor="end">standard application layer protocol</text></g><g><rect x="421" y="315.7142857142857" height="98.57142857142844" width="5" fill="#000"></rect><text x="415" y="364.99999999999994" dy="0.35em" text-anchor="end">standard cryptographic protocol</text></g><g><rect x="421" y="157.85714285714295" height="147.85714285714278" width="5" fill="#000"></rect><text x="415" y="231.78571428571433" dy="0.35em" text-anchor="end">standard non-application layer protocol</text></g></g></g></svg>