<svg width="847" height="520" xmlns="http://www.w3.org/2000/svg" version="1.1"><g transform="translate(0, 10)"><g class="links" fill="none" stroke-opacity="0.4"><path d="M5,415.2941176470588C213,415.2941176470588,213,327.64705882352945,421,327.64705882352945" stroke-width="25.88235294117647" style="stroke: rgb(191, 105, 105);"></path><path d="M5,379.4117647058823C213,379.4117647058823,213,301.764705882353,421,301.764705882353" stroke-width="25.88235294117647" style="stroke: rgb(191, 148, 105);"></path><path d="M5,38.82352941176471C213,38.82352941176471,213,48.82352941176474,421,48.82352941176474" stroke-width="77.64705882352942" style="stroke: rgb(191, 191, 105);"></path><path d="M5,194.11764705882354C213,194.11764705882354,213,451.1764705882354,421,451.1764705882354" stroke-width="25.88235294117647" style="stroke: rgb(191, 191, 105);"></path><path d="M5,129.41176470588238C213,129.41176470588238,213,227.05882352941165,421,227.05882352941165" stroke-width="103.52941176470588" style="stroke: rgb(191, 191, 105);"></path><path d="M5,451.17647058823525C213,451.17647058823525,213,477.0588235294119,421,477.0588235294119" stroke-width="25.88235294117647" style="stroke: rgb(148, 191, 105);"></path><path d="M5,487.0588235294117C213,487.0588235294117,213,353.5294117647059,421,353.5294117647059" stroke-width="25.88235294117647" style="stroke: rgb(105, 191, 105);"></path><path d="M5,255.88235294117658C213,255.88235294117658,213,126.47058823529416,421,126.47058823529416" stroke-width="77.64705882352942" style="stroke: rgb(105, 191, 148);"></path><path d="M5,330.5882352941177C213,330.5882352941177,213,402.3529411764706,421,402.3529411764706" stroke-width="51.76470588235294" style="stroke: rgb(105, 191, 191);"></path><path d="M426,327.64705882352945C634,327.64705882352945,634,209.11764705882348,842,209.11764705882348" stroke-width="77.64705882352942" style="stroke: rgb(105, 148, 191);"></path><path d="M426,139.41176470588238C634,139.41176470588238,634,345.5882352941177,842,345.5882352941177" stroke-width="51.76470588235294" style="stroke: rgb(105, 105, 191);"></path><path d="M426,35.8823529411765C634,35.8823529411765,634,30.882352941176585,842,30.882352941176585" stroke-width="51.76470588235294" style="stroke: rgb(105, 105, 191);"></path><path d="M426,87.64705882352945C634,87.64705882352945,634,283.82352941176464,842,283.82352941176464" stroke-width="51.76470588235294" style="stroke: rgb(105, 105, 191);"></path><path d="M426,464.11764705882365C634,464.11764705882365,634,134.41176470588246,842,134.41176470588246" stroke-width="51.76470588235294" style="stroke: rgb(148, 105, 191);"></path><path d="M426,201.17647058823516C634,201.17647058823516,634,82.64705882352953,842,82.64705882352953" stroke-width="51.76470588235294" style="stroke: rgb(191, 105, 191);"></path><path d="M426,252.94117647058812C634,252.94117647058812,634,407.3529411764706,842,407.3529411764706" stroke-width="51.76470588235294" style="stroke: rgb(191, 105, 191);"></path><path d="M426,402.3529411764706C634,402.3529411764706,634,469.11764705882354,842,469.11764705882354" stroke-width="51.76470588235294" style="stroke: rgb(191, 105, 148);"></path></g><g class="nodes" font-family="Arial, Helvetica" font-size="10"><g><rect x="842" y="170.29411764705875" height="77.64705882352939" width="5" fill="#000"></rect><text x="836" y="209.11764705882345" dy="0.35em" text-anchor="end">binary file metadata</text></g><g><rect x="842" y="319.7058823529412" height="51.76470588235293" width="5" fill="#000"></rect><text x="836" y="345.5882352941177" dy="0.35em" text-anchor="end">malware reverse engineering</text></g><g><rect x="842" y="5.000000000000114" height="155.29411764705864" width="5" fill="#000"></rect><text x="836" y="82.64705882352943" dy="0.35em" text-anchor="end">netflow/enclave netflow</text></g><g><rect x="842" y="381.47058823529414" height="51.76470588235293" width="5" fill="#000"></rect><text x="836" y="407.3529411764706" dy="0.35em" text-anchor="end">network protocol analysis</text></g><g><rect x="842" y="257.9411764705882" height="51.76470588235304" width="5" fill="#000"></rect><text x="836" y="283.8235294117647" dy="0.35em" text-anchor="end">ssl/tls inspection</text></g><g><rect x="842" y="443.2352941176471" height="51.764705882352814" width="5" fill="#000"></rect><text x="836" y="469.1176470588235" dy="0.35em" text-anchor="end">windows event logs</text></g><g><rect x="0" y="402.35294117647055" height="25.882352941176475" width="5" fill="#000"></rect><text x="11" y="415.2941176470588" dy="0.35em" text-anchor="start">Code Signing</text></g><g><rect x="0" y="366.4705882352941" height="25.882352941176478" width="5" fill="#000"></rect><text x="11" y="379.4117647058823" dy="0.35em" text-anchor="start">Execution Prevention</text></g><g><rect x="0" y="0" height="207.05882352941185" width="5" fill="#000"></rect><text x="11" y="103.52941176470593" dy="0.35em" text-anchor="start">Network Intrusion Prevention</text></g><g><rect x="0" y="438.235294117647" height="25.882352941176464" width="5" fill="#000"></rect><text x="11" y="451.17647058823525" dy="0.35em" text-anchor="start">Network Segmentation</text></g><g><rect x="0" y="474.1176470588235" height="25.882352941176464" width="5" fill="#000"></rect><text x="11" y="487.0588235294117" dy="0.35em" text-anchor="start">Restrict File and Directory Permissions</text></g><g><rect x="0" y="217.05882352941185" height="77.64705882352939" width="5" fill="#000"></rect><text x="11" y="255.88235294117655" dy="0.35em" text-anchor="start">SSL/TLS Inspection</text></g><g><rect x="0" y="304.7058823529412" height="51.76470588235287" width="5" fill="#000"></rect><text x="11" y="330.5882352941177" dy="0.35em" text-anchor="start">User Account Management</text></g><g><rect x="421" y="438.2352941176472" height="51.764705882352814" width="5" fill="#000"></rect><text x="415" y="464.1176470588236" dy="0.35em" text-anchor="end">commonly used port</text></g><g><rect x="421" y="288.82352941176475" height="77.6470588235294" width="5" fill="#000"></rect><text x="415" y="327.64705882352945" dy="0.35em" text-anchor="end">masquerading</text></g><g><rect x="421" y="376.47058823529414" height="51.76470588235304" width="5" fill="#000"></rect><text x="415" y="402.35294117647067" dy="0.35em" text-anchor="end">new service</text></g><g><rect x="421" y="175.2941176470587" height="103.52941176470603" width="5" fill="#000"></rect><text x="415" y="227.0588235294117" dy="0.35em" text-anchor="end">remote file copy</text></g><g><rect x="421" y="10.000000000000028" height="155.29411764705867" width="5" fill="#000"></rect><text x="415" y="87.64705882352936" dy="0.35em" text-anchor="end">standard cryptographic protocol</text></g></g></g></svg>