<svg width="847" height="520" xmlns="http://www.w3.org/2000/svg" version="1.1"><g transform="translate(0, 10)"><g class="links" fill="none" stroke-opacity="0.4"><path d="M5,252.98507462686578C213,252.98507462686578,213,202.5373134328357,421,202.5373134328357" stroke-width="30.44776119402985" style="stroke: rgb(191, 105, 105);"></path><path d="M5,323.731343283582C213,323.731343283582,213,71.04477611940295,421,71.04477611940295" stroke-width="20.29850746268657" style="stroke: rgb(191, 121, 105);"></path><path d="M5,419.5522388059701C213,419.5522388059701,213,303.5820895522386,421,303.5820895522386" stroke-width="10.149253731343284" style="stroke: rgb(191, 137, 105);"></path><path d="M5,381.7910447761194C213,381.7910447761194,213,321.19402985074606,421,321.19402985074606" stroke-width="5.074626865671642" style="stroke: rgb(191, 153, 105);"></path><path d="M5,374.17910447761193C213,374.17910447761193,213,172.23880597014923,421,172.23880597014923" stroke-width="10.149253731343284" style="stroke: rgb(191, 153, 105);"></path><path d="M5,177.1641791044776C213,177.1641791044776,213,263.13432835820873,421,263.13432835820873" stroke-width="10.149253731343284" style="stroke: rgb(191, 169, 105);"></path><path d="M5,151.7910447761194C213,151.7910447761194,213,30.447761194029823,421,30.447761194029823" stroke-width="20.29850746268657" style="stroke: rgb(191, 169, 105);"></path><path d="M5,167.0149253731343C213,167.0149253731343,213,162.08955223880594,421,162.08955223880594" stroke-width="10.149253731343284" style="stroke: rgb(191, 169, 105);"></path><path d="M5,437.16417910447757C213,437.16417910447757,213,326.2686567164177,421,326.2686567164177" stroke-width="5.074626865671642" style="stroke: rgb(191, 185, 105);"></path><path d="M5,442.2388059701492C213,442.2388059701492,213,467.31343283582095,421,467.31343283582095" stroke-width="5.074626865671642" style="stroke: rgb(191, 185, 105);"></path><path d="M5,285.82089552238824C213,285.82089552238824,213,129.25373134328356,421,129.25373134328356" stroke-width="15.223880597014926" style="stroke: rgb(180, 191, 105);"></path><path d="M5,298.5074626865673C213,298.5074626865673,213,348.9552238805968,421,348.9552238805968" stroke-width="10.149253731343284" style="stroke: rgb(180, 191, 105);"></path><path d="M5,399.4029850746268C213,399.4029850746268,213,273.283582089552,421,273.283582089552" stroke-width="10.149253731343284" style="stroke: rgb(164, 191, 105);"></path><path d="M5,65.8208955223881C213,65.8208955223881,213,429.5522388059702,421,429.5522388059702" stroke-width="10.149253731343284" style="stroke: rgb(148, 191, 105);"></path><path d="M5,50.597014925373166C213,50.597014925373166,213,369.1044776119404,421,369.1044776119404" stroke-width="10.149253731343284" style="stroke: rgb(148, 191, 105);"></path><path d="M5,17.61194029850749C213,17.61194029850749,213,98.80597014925372,421,98.80597014925372" stroke-width="15.223880597014926" style="stroke: rgb(148, 191, 105);"></path><path d="M5,58.208955223880636C213,58.208955223880636,213,386.7164179104479,421,386.7164179104479" stroke-width="5.074626865671642" style="stroke: rgb(148, 191, 105);"></path><path d="M5,35.37313432835824C213,35.37313432835824,213,237.91044776119375,421,237.91044776119375" stroke-width="20.29850746268657" style="stroke: rgb(148, 191, 105);"></path><path d="M5,73.43283582089555C213,73.43283582089555,213,497.46268656716427,421,497.46268656716427" stroke-width="5.074626865671642" style="stroke: rgb(148, 191, 105);"></path><path d="M5,202.3880597014926C213,202.3880597014926,213,50.746268656716396,421,50.746268656716396" stroke-width="20.29850746268657" style="stroke: rgb(132, 191, 105);"></path><path d="M5,220.14925373134332C213,220.14925373134332,213,114.02985074626865,421,114.02985074626865" stroke-width="15.223880597014926" style="stroke: rgb(132, 191, 105);"></path><path d="M5,96.11940298507459C213,96.11940298507459,213,10.149253731343256,421,10.149253731343256" stroke-width="20.29850746268657" style="stroke: rgb(116, 191, 105);"></path><path d="M5,111.34328358208953C213,111.34328358208953,213,151.94029850746264,421,151.94029850746264" stroke-width="10.149253731343284" style="stroke: rgb(116, 191, 105);"></path><path d="M5,121.4925373134328C213,121.4925373134328,213,293.4328358208953,421,293.4328358208953" stroke-width="10.149253731343284" style="stroke: rgb(116, 191, 105);"></path><path d="M5,129.10447761194027C213,129.10447761194027,213,447.1641791044777,421,447.1641791044777" stroke-width="5.074626865671642" style="stroke: rgb(116, 191, 105);"></path><path d="M5,457.31343283582083C213,457.31343283582083,213,331.3432835820893,421,331.3432835820893" stroke-width="5.074626865671642" style="stroke: rgb(105, 191, 110);"></path><path d="M5,487.4626865671642C213,487.4626865671642,213,482.38805970149264,421,482.38805970149264" stroke-width="5.074626865671642" style="stroke: rgb(105, 191, 126);"></path><path d="M5,472.3880597014925C213,472.3880597014925,213,391.7910447761195,421,391.7910447761195" stroke-width="5.074626865671642" style="stroke: rgb(105, 191, 143);"></path><path d="M5,356.56716417910445C213,356.56716417910445,213,452.2388059701493,421,452.2388059701493" stroke-width="5.074626865671642" style="stroke: rgb(105, 191, 159);"></path><path d="M5,348.955223880597C213,348.955223880597,213,409.40298507462694,421,409.40298507462694" stroke-width="10.149253731343284" style="stroke: rgb(105, 191, 159);"></path><path d="M426,205.0746268656715C634,205.0746268656715,634,386.7910447761196,842,386.7910447761196" stroke-width="5.074626865671642" style="stroke: rgb(105, 191, 175);"></path><path d="M426,210.14925373134312C634,210.14925373134312,634,442.31343283582095,842,442.31343283582095" stroke-width="5.074626865671642" style="stroke: rgb(105, 191, 175);"></path><path d="M426,199.99999999999986C634,199.99999999999986,634,341.4179104477613,842,341.4179104477613" stroke-width="5.074626865671642" style="stroke: rgb(105, 191, 175);"></path><path d="M426,194.92537313432823C634,194.92537313432823,634,290.8208955223881,842,290.8208955223881" stroke-width="5.074626865671642" style="stroke: rgb(105, 191, 175);"></path><path d="M426,215.22388059701476C634,215.22388059701476,634,462.4626865671642,842,462.4626865671642" stroke-width="5.074626865671642" style="stroke: rgb(105, 191, 175);"></path><path d="M426,189.8507462686566C634,189.8507462686566,634,240.223880597015,842,240.223880597015" stroke-width="5.074626865671642" style="stroke: rgb(105, 191, 175);"></path><path d="M426,20.29850746268654C634,20.29850746268654,634,55.298507462686516,842,55.298507462686516" stroke-width="40.59701492537314" style="stroke: rgb(105, 191, 191);"></path><path d="M426,60.895522388059675C634,60.895522388059675,634,217.3880597014926,842,217.3880597014926" stroke-width="40.59701492537314" style="stroke: rgb(105, 191, 191);"></path><path d="M426,298.50746268656695C634,298.50746268656695,634,100.9701492537313,842,100.9701492537313" stroke-width="20.29850746268657" style="stroke: rgb(105, 175, 191);"></path><path d="M426,326.2686567164177C634,326.2686567164177,634,396.94029850746284,842,396.94029850746284" stroke-width="15.223880597014926" style="stroke: rgb(105, 159, 191);"></path><path d="M426,154.47761194029846C634,154.47761194029846,634,83.20895522388055,842,83.20895522388055" stroke-width="15.223880597014926" style="stroke: rgb(105, 143, 191);"></path><path d="M426,169.7014925373134C634,169.7014925373134,634,422.16417910447774,842,422.16417910447774" stroke-width="15.223880597014926" style="stroke: rgb(105, 143, 191);"></path><path d="M426,268.20895522388037C634,268.20895522388037,634,364.1044776119404,842,364.1044776119404" stroke-width="20.29850746268657" style="stroke: rgb(105, 126, 191);"></path><path d="M426,467.31343283582095C634,467.31343283582095,634,255.44776119402994,842,255.44776119402994" stroke-width="5.074626865671642" style="stroke: rgb(105, 110, 191);"></path><path d="M426,98.80597014925372C634,98.80597014925372,634,128.73134328358213,842,128.73134328358213" stroke-width="15.223880597014926" style="stroke: rgb(116, 105, 191);"></path><path d="M426,129.25373134328356C634,129.25373134328356,634,331.268656716418,842,331.268656716418" stroke-width="15.223880597014926" style="stroke: rgb(116, 105, 191);"></path><path d="M426,114.02985074626865C634,114.02985074626865,634,280.6716417910448,842,280.6716417910448" stroke-width="15.223880597014926" style="stroke: rgb(116, 105, 191);"></path><path d="M426,346.417910447761C634,346.417910447761,634,149.0298507462687,842,149.0298507462687" stroke-width="5.074626865671642" style="stroke: rgb(132, 105, 191);"></path><path d="M426,351.49253731343265C634,351.49253731343265,634,306.044776119403,842,306.044776119403" stroke-width="5.074626865671642" style="stroke: rgb(132, 105, 191);"></path><path d="M426,432.08955223880605C634,432.08955223880605,634,447.3880597014926,842,447.3880597014926" stroke-width="5.074626865671642" style="stroke: rgb(148, 105, 191);"></path><path d="M426,427.0149253731344C634,427.0149253731344,634,174.4029850746269,842,174.4029850746269" stroke-width="5.074626865671642" style="stroke: rgb(148, 105, 191);"></path><path d="M426,369.1044776119404C634,369.1044776119404,634,156.64179104477614,842,156.64179104477614" stroke-width="10.149253731343284" style="stroke: rgb(164, 105, 191);"></path><path d="M426,389.2537313432837C634,389.2537313432837,634,166.79104477611943,842,166.79104477611943" stroke-width="10.149253731343284" style="stroke: rgb(180, 105, 191);"></path><path d="M426,232.8358208955221C634,232.8358208955221,634,141.41791044776122,842,141.41791044776122" stroke-width="10.149253731343284" style="stroke: rgb(191, 105, 185);"></path><path d="M426,242.98507462686538C634,242.98507462686538,634,298.43283582089555,842,298.43283582089555" stroke-width="10.149253731343284" style="stroke: rgb(191, 105, 185);"></path><path d="M426,497.46268656716427C634,497.46268656716427,634,311.11940298507466,842,311.11940298507466" stroke-width="5.074626865671642" style="stroke: rgb(191, 105, 169);"></path><path d="M426,449.70149253731347C634,449.70149253731347,634,182.01492537313436,842,182.01492537313436" stroke-width="10.149253731343284" style="stroke: rgb(191, 105, 153);"></path><path d="M426,482.38805970149264C634,482.38805970149264,634,260.5223880597016,842,260.5223880597016" stroke-width="5.074626865671642" style="stroke: rgb(191, 105, 137);"></path><path d="M426,409.40298507462694C634,409.40298507462694,634,247.83582089552246,842,247.83582089552246" stroke-width="10.149253731343284" style="stroke: rgb(191, 105, 121);"></path></g><g class="nodes" font-family="Arial, Helvetica" font-size="10"><g><rect x="842" y="384.25373134328373" height="20.29850746268653" width="5" fill="#000"></rect><text x="836" y="394.402985074627" dy="0.35em" text-anchor="end">binary file metadata</text></g><g><rect x="842" y="353.95522388059715" height="20.298507462686583" width="5" fill="#000"></rect><text x="836" y="364.1044776119404" dy="0.35em" text-anchor="end">data loss prevention</text></g><g><rect x="842" y="34.99999999999994" height="76.11940298507471" width="5" fill="#000"></rect><text x="836" y="73.0597014925373" dy="0.35em" text-anchor="end">dll monitoring</text></g><g><rect x="842" y="414.55223880597026" height="15.22388059701484" width="5" fill="#000"></rect><text x="836" y="422.1641791044777" dy="0.35em" text-anchor="end">loaded dlls</text></g><g><rect x="842" y="439.7761194029851" height="10.149253731343265" width="5" fill="#000"></rect><text x="836" y="444.85074626865674" dy="0.35em" text-anchor="end">malware reverse engineering</text></g><g><rect x="842" y="121.11940298507466" height="65.97014925373139" width="5" fill="#000"></rect><text x="836" y="154.10447761194035" dy="0.35em" text-anchor="end">netflow/enclave netflow</text></g><g><rect x="842" y="323.6567164179105" height="20.298507462686644" width="5" fill="#000"></rect><text x="836" y="333.8059701492538" dy="0.35em" text-anchor="end">network intrusion detection system</text></g><g><rect x="842" y="273.05970149253733" height="40.59701492537317" width="5" fill="#000"></rect><text x="836" y="293.3582089552239" dy="0.35em" text-anchor="end">network protocol analysis</text></g><g><rect x="842" y="459.92537313432837" height="5.074626865671746" width="5" fill="#000"></rect><text x="836" y="462.46268656716427" dy="0.35em" text-anchor="end">ssl/tls inspection</text></g><g><rect x="842" y="197.08955223880605" height="65.97014925373125" width="5" fill="#000"></rect><text x="836" y="230.0746268656717" dy="0.35em" text-anchor="end">windows event logs</text></g><g><rect x="0" y="237.76119402985086" height="30.44776119402991" width="5" fill="#000"></rect><text x="11" y="252.9850746268658" dy="0.35em" text-anchor="start">Antivirus/Antimalware</text></g><g><rect x="0" y="313.58208955223876" height="20.298507462686587" width="5" fill="#000"></rect><text x="11" y="323.7313432835821" dy="0.35em" text-anchor="start">Application Isolation and Sandboxing</text></g><g><rect x="0" y="414.47761194029846" height="10.149253731343265" width="5" fill="#000"></rect><text x="11" y="419.5522388059701" dy="0.35em" text-anchor="start">Behavior Prevention on Endpoint</text></g><g><rect x="0" y="369.1044776119403" height="15.223880597014897" width="5" fill="#000"></rect><text x="11" y="376.7164179104477" dy="0.35em" text-anchor="start">Code Signing</text></g><g><rect x="0" y="141.6417910447761" height="40.5970149253732" width="5" fill="#000"></rect><text x="11" y="161.94029850746273" dy="0.35em" text-anchor="start">Disable or Remove Feature or Program</text></g><g><rect x="0" y="434.6268656716417" height="10.149253731343265" width="5" fill="#000"></rect><text x="11" y="439.70149253731336" dy="0.35em" text-anchor="start">Execution Prevention</text></g><g><rect x="0" y="278.20895522388076" height="25.37313432835799" width="5" fill="#000"></rect><text x="11" y="290.89552238805976" dy="0.35em" text-anchor="start">Filter Network Traffic</text></g><g><rect x="0" y="394.3283582089552" height="10.14925373134328" width="5" fill="#000"></rect><text x="11" y="399.4029850746268" dy="0.35em" text-anchor="start">Limit Hardware Installation</text></g><g><rect x="0" y="10.000000000000028" height="65.97014925373128" width="5" fill="#000"></rect><text x="11" y="42.98507462686567" dy="0.35em" text-anchor="start">Network Intrusion Prevention</text></g><g><rect x="0" y="192.23880597014931" height="35.52238805970154" width="5" fill="#000"></rect><text x="11" y="210.00000000000009" dy="0.35em" text-anchor="start">Network Segmentation</text></g><g><rect x="0" y="85.97014925373131" height="45.671641791044806" width="5" fill="#000"></rect><text x="11" y="108.80597014925371" dy="0.35em" text-anchor="start">Privileged Account Management</text></g><g><rect x="0" y="454.776119402985" height="5.074626865671689" width="5" fill="#000"></rect><text x="11" y="457.31343283582083" dy="0.35em" text-anchor="start">Restrict File and Directory Permissions</text></g><g><rect x="0" y="484.92537313432837" height="5.074626865671576" width="5" fill="#000"></rect><text x="11" y="487.46268656716416" dy="0.35em" text-anchor="start">Restrict Registry Permissions</text></g><g><rect x="0" y="469.8507462686567" height="5.074626865671689" width="5" fill="#000"></rect><text x="11" y="472.3880597014925" dy="0.35em" text-anchor="start">Restrict Web-Based Content</text></g><g><rect x="0" y="343.88059701492534" height="15.223880597014954" width="5" fill="#000"></rect><text x="11" y="351.4925373134328" dy="0.35em" text-anchor="start">User Account Management</text></g><g><rect x="421" y="-2.842170943040401e-14" height="81.19402985074629" width="5" fill="#000"></rect><text x="415" y="40.59701492537312" dy="0.35em" text-anchor="end">component object model and distributed com</text></g><g><rect x="421" y="364.0298507462688" height="10.149253731343265" width="5" fill="#000"></rect><text x="415" y="369.1044776119404" dy="0.35em" text-anchor="end">connection proxy</text></g><g><rect x="421" y="91.19402985074626" height="45.67164179104475" width="5" fill="#000"></rect><text x="415" y="114.02985074626864" dy="0.35em" text-anchor="end">custom command and control protocol</text></g><g><rect x="421" y="494.9253731343284" height="5.074626865671576" width="5" fill="#000"></rect><text x="415" y="497.4626865671642" dy="0.35em" text-anchor="end">data encoding</text></g><g><rect x="421" y="384.17910447761204" height="10.149253731343265" width="5" fill="#000"></rect><text x="415" y="389.2537313432837" dy="0.35em" text-anchor="end">domain generation algorithms</text></g><g><rect x="421" y="464.7761194029851" height="5.074626865671689" width="5" fill="#000"></rect><text x="415" y="467.31343283582095" dy="0.35em" text-anchor="end">hidden window</text></g><g><rect x="421" y="318.6567164179102" height="15.223880597014954" width="5" fill="#000"></rect><text x="415" y="326.2686567164177" dy="0.35em" text-anchor="end">masquerading</text></g><g><rect x="421" y="479.8507462686568" height="5.0746268656716325" width="5" fill="#000"></rect><text x="415" y="482.3880597014926" dy="0.35em" text-anchor="end">modify registry</text></g><g><rect x="421" y="343.8805970149252" height="10.149253731343606" width="5" fill="#000"></rect><text x="415" y="348.955223880597" dy="0.35em" text-anchor="end">multi-hop proxy</text></g><g><rect x="421" y="404.3283582089553" height="10.149253731343265" width="5" fill="#000"></rect><text x="415" y="409.40298507462694" dy="0.35em" text-anchor="end">new service</text></g><g><rect x="421" y="187.31343283582078" height="30.44776119402968" width="5" fill="#000"></rect><text x="415" y="202.53731343283562" dy="0.35em" text-anchor="end">obfuscated files or information</text></g><g><rect x="421" y="146.865671641791" height="30.447761194029766" width="5" fill="#000"></rect><text x="415" y="162.08955223880588" dy="0.35em" text-anchor="end">powershell</text></g><g><rect x="421" y="288.3582089552237" height="20.29850746268653" width="5" fill="#000"></rect><text x="415" y="298.50746268656695" dy="0.35em" text-anchor="end">process injection</text></g><g><rect x="421" y="227.76119402985046" height="20.298507462686644" width="5" fill="#000"></rect><text x="415" y="237.91044776119378" dy="0.35em" text-anchor="end">remote file copy</text></g><g><rect x="421" y="258.0597014925371" height="20.298507462686594" width="5" fill="#000"></rect><text x="415" y="268.2089552238804" dy="0.35em" text-anchor="end">replication through removable media</text></g><g><rect x="421" y="424.4776119402986" height="10.149253731343265" width="5" fill="#000"></rect><text x="415" y="429.5522388059702" dy="0.35em" text-anchor="end">standard application layer protocol</text></g><g><rect x="421" y="444.62686567164184" height="10.149253731343265" width="5" fill="#000"></rect><text x="415" y="449.70149253731347" dy="0.35em" text-anchor="end">windows management instrumentation</text></g></g></g></svg>